<svg width="1920" height="1080" viewBox="0 0 1920 1080" fill="none" xmlns="http://www.w3.org/2000/svg">
<g clip-path="url(#clip0_1_3049)">
<path d="M1920 0H0V1080H1920V0Z" fill="#FFCB00"/>
<path d="M1824.64 947.04H979.28C962.27 947.04 948.49 933.25 948.49 916.25V166.8H1855.44V916.25C1855.44 933.25 1841.65 947.04 1824.64 947.04Z" fill="#7636FF"/>
<mask id="mask0_1_3049" style="mask-type:luminance" maskUnits="userSpaceOnUse" x="948" y="62" width="908" height="887">
<path d="M1822.55 948.52H981.37C963.21 948.52 948.48 933.8 948.48 915.63V95.67C948.48 77.51 963.2 62.78 981.37 62.78H1822.55C1840.71 62.78 1855.44 77.5 1855.44 95.67V915.64C1855.44 933.8 1840.71 948.52 1822.55 948.52Z" fill="white"/>
</mask>
<g mask="url(#mask0_1_3049)">
<path d="M2039.31 -52.93H839.57V174.29H2039.31V-52.93Z" fill="white" stroke="#232323" stroke-width="6" stroke-miterlimit="10"/>
</g>
<path d="M1822.55 68.78C1837.37 68.78 1849.44 80.84 1849.44 95.67V915.64C1849.44 930.46 1837.38 942.53 1822.55 942.53H981.37C966.55 942.53 954.48 930.47 954.48 915.64V95.67C954.48 80.85 966.54 68.78 981.37 68.78H1822.55ZM1822.55 62.78H981.37C963.21 62.78 948.48 77.5 948.48 95.67V915.64C948.48 933.8 963.2 948.53 981.37 948.53H1822.55C1840.71 948.53 1855.44 933.81 1855.44 915.64V95.67C1855.44 77.5 1840.71 62.78 1822.55 62.78Z" fill="#232323"/>
<path d="M1780.5 102.52L1813.67 135.68" stroke="#232323" stroke-width="4.6724" stroke-miterlimit="10" stroke-linecap="round" stroke-linejoin="round"/>
<path d="M1813.67 102.52L1780.5 135.68" stroke="#232323" stroke-width="4.6724" stroke-miterlimit="10" stroke-linecap="round" stroke-linejoin="round"/>
<path d="M1760.85 102.63H1727.91V135.57H1760.85V102.63Z" fill="#13E2BA" stroke="#232323" stroke-width="4.6724" stroke-miterlimit="10" stroke-linecap="round" stroke-linejoin="round"/>
<path d="M1677.95 119.1H1711.26" stroke="#232323" stroke-width="4.6724" stroke-miterlimit="10" stroke-linecap="round" stroke-linejoin="round"/>
<path d="M1004.79 104.182H1010.69C1011.78 104.182 1012.65 105.05 1012.65 106.092V122.325C1012.65 131.18 1008.44 135.086 1000.49 135.086C993.808 135.086 989.207 131.18 988.339 125.971C988.208 125.146 988.773 124.365 989.597 124.192L996.282 122.976C996.846 122.846 997.41 123.193 997.584 123.757C997.931 124.756 998.712 125.624 1000.19 125.624C1002.36 125.624 1002.88 124.018 1002.88 122.325V106.092C1002.88 105.05 1003.75 104.182 1004.79 104.182ZM1031.93 103.661C1041.04 103.661 1047.94 110.432 1047.94 119.374C1047.94 128.358 1041.04 135.13 1031.93 135.13C1022.81 135.13 1015.91 128.358 1015.91 119.374C1015.91 110.432 1022.81 103.661 1031.93 103.661ZM1031.93 125.624C1035.53 125.624 1038.18 123.063 1038.18 119.374C1038.18 115.727 1035.53 113.123 1031.93 113.123C1028.32 113.123 1025.68 115.727 1025.68 119.374C1025.68 123.063 1028.32 125.624 1031.93 125.624ZM1065.35 118.896C1065.35 117.854 1066.22 116.986 1067.26 116.986H1079.11C1080.2 116.986 1081.06 117.854 1081.06 118.896V133.003C1081.06 133.871 1080.37 134.565 1079.5 134.565H1077.9C1077.2 134.565 1076.59 134.088 1076.42 133.393L1075.86 131.31C1073.6 133.654 1070.34 135.086 1066.13 135.086C1057.02 135.086 1050.12 128.315 1050.12 119.374C1050.12 110.389 1057.02 103.617 1066.13 103.617C1070.99 103.617 1075.25 105.571 1078.11 108.739C1078.76 109.434 1078.59 110.562 1077.81 111.04L1072.21 114.773C1071.6 115.163 1070.86 115.076 1070.34 114.599C1069.21 113.644 1067.78 113.123 1066.13 113.123C1062.53 113.123 1059.84 115.727 1059.84 119.374C1059.84 123.237 1062.53 126.015 1066.13 126.015C1068.74 126.015 1070.65 125.146 1071.65 123.237H1067.26C1066.22 123.237 1065.35 122.412 1065.35 121.327V118.896ZM1099.92 103.661C1109.03 103.661 1115.93 110.432 1115.93 119.374C1115.93 128.358 1109.03 135.13 1099.92 135.13C1090.8 135.13 1083.9 128.358 1083.9 119.374C1083.9 110.432 1090.8 103.661 1099.92 103.661ZM1099.92 125.624C1103.52 125.624 1106.17 123.063 1106.17 119.374C1106.17 115.727 1103.52 113.123 1099.92 113.123C1096.31 113.123 1093.67 115.727 1093.67 119.374C1093.67 123.063 1096.31 125.624 1099.92 125.624ZM1143 104.182C1153.11 104.182 1159.58 110.128 1159.58 119.374C1159.58 128.575 1153.11 134.565 1143 134.565H1132.8C1131.76 134.565 1130.89 133.697 1130.89 132.612V106.092C1130.89 105.05 1131.76 104.182 1132.8 104.182H1143ZM1143 125.624C1147.47 125.624 1149.82 123.02 1149.82 119.374C1149.82 115.727 1147.47 113.123 1143 113.123H1140.66V125.624H1143ZM1182.59 134.565C1181.72 134.565 1180.98 134.001 1180.72 133.133L1179.81 129.878H1171.22L1170.3 133.133C1170.09 134.001 1169.31 134.565 1168.44 134.565H1161.58C1160.54 134.565 1159.76 133.524 1160.1 132.525L1169.05 105.744C1169.39 104.833 1170.26 104.182 1171.26 104.182H1179.77C1180.76 104.182 1181.68 104.833 1181.98 105.744L1190.92 132.525C1191.27 133.524 1190.53 134.565 1189.49 134.565H1182.59ZM1173.08 123.106H1177.94L1175.51 114.295L1173.08 123.106ZM1219.64 118.896C1219.64 117.854 1220.51 116.986 1221.55 116.986H1233.4C1234.49 116.986 1235.36 117.854 1235.36 118.896V133.003C1235.36 133.871 1234.66 134.565 1233.79 134.565H1232.19C1231.49 134.565 1230.89 134.088 1230.71 133.393L1230.15 131.31C1227.89 133.654 1224.64 135.086 1220.42 135.086C1211.31 135.086 1204.41 128.315 1204.41 119.374C1204.41 110.389 1211.31 103.617 1220.42 103.617C1225.29 103.617 1229.54 105.571 1232.4 108.739C1233.06 109.434 1232.88 110.562 1232.1 111.04L1226.5 114.773C1225.89 115.163 1225.16 115.076 1224.64 114.599C1223.51 113.644 1222.07 113.123 1220.42 113.123C1216.82 113.123 1214.13 115.727 1214.13 119.374C1214.13 123.237 1216.82 126.015 1220.42 126.015C1223.03 126.015 1224.94 125.146 1225.94 123.237H1221.55C1220.51 123.237 1219.64 122.412 1219.64 121.327V118.896ZM1259.16 104.182H1265.06C1266.14 104.182 1267.01 105.05 1267.01 106.092V122.282C1267.01 131.31 1261.41 135.086 1253.12 135.086C1244.88 135.086 1239.28 131.31 1239.28 122.282V106.092C1239.28 105.05 1240.14 104.182 1241.23 104.182H1247.13C1248.17 104.182 1249.04 105.05 1249.04 106.092V121.24C1249.04 124.018 1250.52 125.624 1253.12 125.624C1255.77 125.624 1257.25 124.018 1257.25 121.24V106.092C1257.25 105.05 1258.11 104.182 1259.16 104.182ZM1291.98 104.182C1293.02 104.182 1293.89 105.05 1293.89 106.092V111.17C1293.89 112.255 1293.02 113.123 1291.98 113.123H1286.82V132.612C1286.82 133.697 1285.95 134.565 1284.86 134.565H1278.96C1277.92 134.565 1277.05 133.697 1277.05 132.612V113.123H1271.89C1270.8 113.123 1269.93 112.255 1269.93 111.17V106.092C1269.93 105.05 1270.8 104.182 1271.89 104.182H1291.98ZM1315.86 134.565C1314.99 134.565 1314.25 134.001 1313.99 133.133L1313.08 129.878H1304.48L1303.57 133.133C1303.35 134.001 1302.57 134.565 1301.71 134.565H1294.85C1293.81 134.565 1293.02 133.524 1293.37 132.525L1302.31 105.744C1302.66 104.833 1303.53 104.182 1304.53 104.182H1313.03C1314.03 104.182 1314.94 104.833 1315.25 105.744L1324.19 132.525C1324.54 133.524 1323.8 134.565 1322.76 134.565H1315.86ZM1306.35 123.106H1311.21L1308.78 114.295L1306.35 123.106ZM1351.44 101.794C1352.04 102.272 1352.26 103.14 1351.83 103.791C1349.92 107.046 1347.62 112.472 1347.62 119.374C1347.62 126.275 1349.92 131.701 1351.83 134.913C1352.26 135.607 1352.04 136.475 1351.44 136.953L1347.88 139.6C1347.18 140.121 1346.23 139.991 1345.71 139.297C1343.02 135.694 1338.76 128.272 1338.76 119.374C1338.76 110.475 1343.02 103.053 1345.71 99.4505C1346.23 98.756 1347.18 98.6258 1347.88 99.1467L1351.44 101.794ZM1375.66 105.614C1375.88 104.746 1376.66 104.182 1377.53 104.182H1384.39C1385.47 104.182 1386.21 105.223 1385.86 106.222L1376.92 132.959C1376.62 133.914 1375.71 134.565 1374.71 134.565H1366.2C1365.2 134.565 1364.29 133.914 1363.99 132.959L1355.05 106.222C1354.7 105.223 1355.44 104.182 1356.52 104.182H1363.38C1364.25 104.182 1365.03 104.746 1365.25 105.614L1370.46 124.452L1375.66 105.614ZM1398.46 126.405H1408.18C1409.27 126.405 1410.14 127.273 1410.14 128.315V132.612C1410.14 133.697 1409.27 134.565 1408.18 134.565H1390.65C1389.56 134.565 1388.69 133.697 1388.69 132.612V106.092C1388.69 105.05 1389.56 104.182 1390.65 104.182H1407.79C1408.83 104.182 1409.7 105.05 1409.7 106.092V110.432C1409.7 111.474 1408.83 112.342 1407.79 112.342H1398.46V115.727H1406.4C1407.49 115.727 1408.36 116.596 1408.36 117.637V120.806C1408.36 121.891 1407.49 122.759 1406.4 122.759H1398.46V126.405ZM1423.34 125.624H1432.76C1433.85 125.624 1434.67 126.492 1434.67 127.534V132.612C1434.67 133.697 1433.85 134.565 1432.76 134.565H1415.53C1414.49 134.565 1413.62 133.697 1413.62 132.612V106.092C1413.62 105.05 1414.49 104.182 1415.53 104.182H1421.43C1422.52 104.182 1423.34 105.05 1423.34 106.092V125.624ZM1456.14 106.092C1456.14 105.05 1457.01 104.182 1458.1 104.182H1464C1465.04 104.182 1465.91 105.05 1465.91 106.092V132.612C1465.91 133.697 1465.04 134.565 1464 134.565H1458.1C1457.01 134.565 1456.14 133.697 1456.14 132.612V123.627H1447.46V132.612C1447.46 133.697 1446.59 134.565 1445.51 134.565H1439.65C1438.56 134.565 1437.69 133.697 1437.69 132.612V106.092C1437.69 105.05 1438.56 104.182 1439.65 104.182H1445.51C1446.59 104.182 1447.46 105.05 1447.46 106.092V114.816H1456.14V106.092ZM1491.26 134.565C1490.39 134.565 1489.65 134.001 1489.39 133.133L1488.48 129.878H1479.88L1478.97 133.133C1478.76 134.001 1477.98 134.565 1477.11 134.565H1470.25C1469.21 134.565 1468.43 133.524 1468.77 132.525L1477.71 105.744C1478.06 104.833 1478.93 104.182 1479.93 104.182H1488.44C1489.43 104.182 1490.35 104.833 1490.65 105.744L1499.59 132.525C1499.94 133.524 1499.2 134.565 1498.16 134.565H1491.26ZM1481.75 123.106H1486.61L1484.18 114.295L1481.75 123.106ZM1506.76 99.1467C1507.46 98.6258 1508.41 98.756 1508.93 99.4505C1511.62 103.053 1515.88 110.475 1515.88 119.374C1515.88 128.272 1511.62 135.694 1508.93 139.297C1508.41 139.991 1507.46 140.121 1506.76 139.6L1503.2 136.953C1502.55 136.475 1502.38 135.607 1502.81 134.913C1504.72 131.701 1506.98 126.275 1506.98 119.374C1506.98 112.472 1504.72 107.046 1502.81 103.791C1502.38 103.14 1502.55 102.272 1503.2 101.794L1506.76 99.1467ZM1524 125.798C1526.6 125.798 1528.69 127.881 1528.69 130.442C1528.69 133.046 1526.6 135.13 1524 135.13C1521.44 135.13 1519.36 133.046 1519.36 130.442C1519.36 127.881 1521.44 125.798 1524 125.798ZM1541.94 126.405H1551.67C1552.75 126.405 1553.62 127.273 1553.62 128.315V132.612C1553.62 133.697 1552.75 134.565 1551.67 134.565H1534.13C1533.05 134.565 1532.18 133.697 1532.18 132.612V106.092C1532.18 105.05 1533.05 104.182 1534.13 104.182H1551.28C1552.32 104.182 1553.19 105.05 1553.19 106.092V110.432C1553.19 111.474 1552.32 112.342 1551.28 112.342H1541.94V115.727H1549.89C1550.97 115.727 1551.84 116.596 1551.84 117.637V120.806C1551.84 121.891 1550.97 122.759 1549.89 122.759H1541.94V126.405ZM1584.67 132.786C1585.14 133.567 1584.58 134.565 1583.67 134.565H1576.37C1575.55 134.565 1574.77 134.131 1574.33 133.437L1570.3 126.492L1566.22 133.437C1565.83 134.131 1565.05 134.565 1564.22 134.565H1556.93C1556.02 134.565 1555.45 133.567 1555.93 132.786L1564.31 119.026L1556.32 105.961C1555.84 105.18 1556.41 104.182 1557.32 104.182H1564.61C1565.44 104.182 1566.17 104.616 1566.61 105.31L1570.3 111.604L1573.99 105.31C1574.38 104.616 1575.16 104.182 1575.98 104.182H1583.28C1584.19 104.182 1584.75 105.18 1584.27 105.961L1576.29 118.983L1584.67 132.786ZM1597.68 126.405H1607.41C1608.49 126.405 1609.36 127.273 1609.36 128.315V132.612C1609.36 133.697 1608.49 134.565 1607.41 134.565H1589.87C1588.79 134.565 1587.92 133.697 1587.92 132.612V106.092C1587.92 105.05 1588.79 104.182 1589.87 104.182H1607.02C1608.06 104.182 1608.93 105.05 1608.93 106.092V110.432C1608.93 111.474 1608.06 112.342 1607.02 112.342H1597.68V115.727H1605.63C1606.71 115.727 1607.58 116.596 1607.58 117.637V120.806C1607.58 121.891 1606.71 122.759 1605.63 122.759H1597.68V126.405Z" fill="#232323"/>
<path fill-rule="evenodd" clip-rule="evenodd" d="M1632.43 184.823L1627.53 189.723C1626.12 191.133 1623.71 190.593 1623.04 188.713L1609.46 150.643C1608.69 148.483 1610.78 146.393 1612.94 147.163L1651 160.753C1652.88 161.423 1653.42 163.833 1652.01 165.243L1647.11 170.143C1646.05 171.203 1646.05 172.933 1647.11 173.993L1655.41 182.293C1656.47 183.353 1656.47 185.083 1655.41 186.143L1648.43 193.123C1647.37 194.183 1645.64 194.183 1644.58 193.123L1636.28 184.823C1635.21 183.763 1633.49 183.763 1632.43 184.823Z" fill="#FF0086" stroke="#232323" stroke-width="5.9026" stroke-miterlimit="10" stroke-linecap="round" stroke-linejoin="round"/>
<path d="M1775.92 896.52H1031.05C1016.6 896.52 1004.89 884.81 1004.89 870.36V252.95C1004.89 238.5 1016.6 226.79 1031.05 226.79H1775.92C1790.37 226.79 1802.08 238.5 1802.08 252.95V870.36C1802.07 884.8 1790.36 896.52 1775.92 896.52Z" fill="#FF0086" stroke="#232323" stroke-width="5.8" stroke-miterlimit="10"/>
<path d="M1060.71 466.91H1746.25" stroke="#FFFFFD" stroke-width="8.8073" stroke-miterlimit="10" stroke-linecap="round" stroke-linejoin="round"/>
<path d="M1060.71 656.4H1746.25" stroke="#FFFFFD" stroke-width="8.8073" stroke-miterlimit="10" stroke-linecap="round" stroke-linejoin="round"/>
<path d="M1286.4 846.47V276.84" stroke="#FFFFFD" stroke-width="8.8073" stroke-miterlimit="10" stroke-linecap="round" stroke-linejoin="round"/>
<path d="M1519.48 846.47V276.84" stroke="#FFFFFD" stroke-width="8.8073" stroke-miterlimit="10" stroke-linecap="round" stroke-linejoin="round"/>
</g>
<defs>
<clipPath id="clip0_1_3049">
<rect width="1920" height="1080" fill="white"/>
</clipPath>
</defs>
</svg>
