<svg width="140" height="134" viewBox="0 0 140 134" fill="none" xmlns="http://www.w3.org/2000/svg">
<path d="M19.8199 88.95C24.5299 88.95 27.1599 91.5 27.1899 91.54C27.2499 91.6 27.2899 91.67 27.2999 91.76C27.9499 95.61 29.5399 98.04 30.1799 98.89C42.0399 86.08 43.3099 68.8 43.3199 68.62C43.3199 68.52 43.3699 68.42 43.4499 68.35L61.4299 51.91L60.8499 48.4C60.8299 48.25 60.8799 48.1 60.9999 48.01C61.1199 47.92 61.2799 47.9 61.4099 47.97L63.6299 49.02C63.6299 46.58 63.4799 44.16 63.2399 41.88L58.3399 46.68C58.2199 46.79 58.0499 46.83 57.8999 46.76C57.7499 46.7 57.6499 46.55 57.6499 46.39V44.12L52.4599 46.99C52.3399 47.06 52.1799 47.06 52.0599 46.99C51.9399 46.92 51.8599 46.79 51.8599 46.65V45.98L47.6699 49.64C47.5399 49.76 47.3399 49.77 47.1899 49.68C47.0399 49.59 46.9699 49.41 47.0199 49.23C47.2399 48.43 47.4699 47.52 47.5899 46.92C45.5999 48.02 38.9199 52.31 34.6499 55.09C34.5199 55.17 34.3499 55.18 34.2199 55.09C34.0899 55.01 34.0099 54.86 34.0299 54.71L34.1899 53.13C32.4199 54.43 28.0399 57.63 27.6199 57.92C27.4099 58.07 27.1999 58.02 27.0699 57.93C26.8699 57.79 26.6299 57.61 27.3499 54.88L21.3299 59.56C21.2299 59.64 21.0999 59.66 20.9799 59.63C20.8599 59.6 20.7599 59.51 20.7099 59.4L19.8699 57.39L7.40988 66.45C7.33988 66.5 7.25988 66.53 7.16988 66.53C7.11988 66.53 7.05988 66.52 7.00988 66.5C6.87988 66.44 6.78988 66.33 6.76988 66.19L6.54988 64.55L4.62988 65.82C4.95988 67.51 5.42988 69.46 6.10988 71.7C8.82988 80.67 12.7099 88.61 13.5599 90.31C15.9099 89.31 17.9899 88.94 19.7699 88.94L19.8199 88.95Z" fill="#381616"/>
<path d="M120.02 53.36C120 53.31 119.99 53.25 119.99 53.2C119.99 53.1 120.43 43.26 119.58 38.01C117.66 37.82 107.73 36.73 101.97 34.58L104.4 37.22C104.51 37.34 104.54 37.52 104.47 37.66C104.4 37.81 104.24 37.9 104.08 37.89C103.97 37.89 93.69 37.14 85.89 34.05L88.48 36.42C88.61 36.54 88.65 36.73 88.57 36.89C88.49 37.05 88.32 37.14 88.14 37.11C87.98 37.08 72.2101 34.46 61.7001 29.05C62.1901 30.91 63.29 35.49 63.94 41C63.94 41.01 63.94 41.02 63.94 41.03C64.26 43.75 64.46 46.7 64.42 49.66C64.42 49.8 64.3501 49.92 64.2301 49.99C64.1101 50.06 63.97 50.07 63.85 50.01L61.75 49.02L62.2401 51.99C62.2601 52.12 62.22 52.26 62.12 52.35L44.1 68.83C43.94 70.66 42.17 87.38 30.44 99.77C30.36 99.85 30.26 99.9 30.15 99.9C30.04 99.9 29.93 99.85 29.86 99.77C29.76 99.66 27.41 97.04 26.53 92.03C25.83 91.4 21.31 87.74 13.58 91.21C13.51 91.24 10.21 92.82 9.32005 96.16C8.66005 98.61 9.42005 101.4 11.57 104.47C13.36 107.02 15.61 108.53 18.25 108.96C23.55 109.83 28.73 106.07 28.79 106.03C28.86 105.98 28.94 105.95 29.03 105.95C29.07 105.95 29.11 105.95 29.15 105.97C29.27 106.01 29.37 106.11 29.41 106.23C29.45 106.34 32.05 114.33 40.23 120.99C41.12 121.65 43.38 123.25 46.69 125.21C48.32 126.05 50.1 126.81 52.03 127.46C52.81 127.7 53.71 127.98 54.71 128.27C71.89 132.99 95.51 134.23 111.09 123.7C116.92 119.76 120.33 114.78 120.94 109.31C121.59 103.49 119.01 98.44 116.61 95.88C116.51 95.77 116.48 95.62 116.52 95.48C116.58 95.32 122.1 79.06 123.89 73.25C124.2 70.28 124.55 65.57 124.29 64.66C123.91 63.37 120.08 53.47 120.04 53.37L120.02 53.36Z" fill="#FFC38D"/>
<path d="M129.81 31.22C129.89 31.07 130.05 30.99 130.22 31.01C132.21 31.28 135.33 32.75 137.03 33.61C136.26 32.5 134.84 30.71 133.02 29.24C130.11 26.89 123.42 21.44 123.35 21.38C123.24 21.29 123.18 21.14 123.21 21C123.24 20.86 123.34 20.74 123.47 20.69C126.24 19.74 127.3 16.99 127.63 15.86L125.48 15.94C125.33 15.94 125.19 15.87 125.12 15.74C125.05 15.61 125.05 15.45 125.13 15.32L126.33 13.45C120.98 14.7 116.15 13.15 115.94 13.07C115.79 13.02 115.69 12.89 115.67 12.74C115.65 12.59 115.72 12.44 115.85 12.35C117.68 11.15 118.06 8.85001 118.14 7.75001C116.4 8.52001 111.18 10.41 105.1 8.42001L104.94 8.37001C97.58 5.95001 78.04 -0.469985 55.19 2.29001C32.49 5.03001 19.64 18.11 19.51 18.24C19.39 18.36 19.21 18.4 19.06 18.33C18.91 18.26 18.81 18.1 18.82 17.93L19.09 14.27L11.46 28.79L12.07 35.08C12.08 35.19 12.05 35.29 11.98 35.38C5.21002 43.47 2.41002 54.71 1.77002 57.63L3.66002 56.87C3.80002 56.81 3.96002 56.84 4.07002 56.94C4.18002 57.04 4.23002 57.2 4.19002 57.34C4.19002 57.37 3.61002 59.74 4.52002 64.96L6.69002 63.52C6.81002 63.44 6.95002 63.43 7.08002 63.49C7.21002 63.55 7.29002 63.66 7.31002 63.8L7.53002 65.41L19.86 56.45C19.96 56.38 20.09 56.36 20.2 56.39C20.32 56.42 20.41 56.51 20.46 56.62L21.29 58.62L27.85 53.52C27.99 53.41 28.18 53.41 28.32 53.5C28.46 53.6 28.53 53.78 28.48 53.94C28.18 54.97 27.89 56.15 27.76 56.87C29.49 55.61 34.42 52 34.47 51.96C34.6 51.87 34.77 51.86 34.91 51.94C35.05 52.02 35.13 52.17 35.11 52.33L34.94 53.97C47.68 45.65 48.01 45.8 48.26 45.92C48.39 45.98 48.48 46.11 48.5 46.25C48.53 46.53 48.35 47.39 48.15 48.19L52.03 44.81C52.15 44.71 52.32 44.68 52.46 44.75C52.6 44.81 52.69 44.96 52.69 45.11V45.98L57.88 43.11C58 43.04 58.15 43.04 58.28 43.11C58.4 43.18 58.48 43.31 58.48 43.45V45.44L63.15 40.87C62.32 33.87 60.74 28.45 60.72 28.37C60.67 28.21 60.72 28.05 60.85 27.95C60.98 27.85 61.15 27.83 61.29 27.91C69.91 32.6 82.76 35.29 86.93 36.07L83.54 32.97C83.39 32.84 83.37 32.61 83.48 32.45C83.59 32.29 83.81 32.23 83.99 32.32C90.43 35.54 100 36.69 103.12 37L100.1 33.73C99.97 33.59 99.96 33.37 100.08 33.22C100.2 33.07 100.41 33.02 100.58 33.11C105.96 35.88 119.47 37.21 119.95 37.25C120.98 37.23 122.03 37.16 123.06 37.03C124.11 36.9 125.16 36.72 126.19 36.43C125.21 36.84 124.18 37.16 123.14 37.42C122.24 37.64 121.33 37.82 120.4 37.97C120.74 40.14 120.88 43 120.91 45.65L122.5 49.32L124 47.82C124.1 47.72 124.24 47.68 124.38 47.71C124.52 47.74 124.62 47.84 124.67 47.98L125.86 51.73L127.03 51.02C127.13 50.96 127.26 50.94 127.38 50.99C127.49 51.03 127.58 51.13 127.62 51.24C127.68 51.44 128.91 55.25 129.53 58.99C130.14 55.16 130.1 52.13 130.1 52.09C130.1 51.95 130.17 51.82 130.28 51.75C130.4 51.67 130.54 51.67 130.67 51.73L132.75 52.73C133.33 47.65 131.93 42.74 131.92 42.69C131.87 42.53 131.92 42.37 132.05 42.27C132.18 42.17 132.35 42.15 132.49 42.23L137.41 44.92C135.29 38 129.93 31.74 129.88 31.68C129.77 31.55 129.75 31.37 129.83 31.23L129.81 31.22Z" fill="#381616"/>
<path d="M110.38 64.15C106.53 63.25 104.3 66.07 104.28 66.1C104.21 66.2 104.09 66.25 103.97 66.26C103.84 66.26 103.73 66.21 103.65 66.11L103.24 65.61L102.71 67.08C102.67 67.19 102.59 67.27 102.48 67.32C102.38 67.36 102.26 67.36 102.16 67.31C101.83 69.4 102.4 71.27 102.72 72.11C103.47 71.57 105.19 70.62 108.17 70.5C110.13 70.42 112.02 70.81 113.68 71.15C115.38 71.5 116.85 71.8 117.77 71.46C119.18 70.94 118.78 69.21 118.65 68.77C118.02 68.25 114.07 65.02 110.38 64.16V64.15Z" fill="#381616"/>
<path d="M126.99 51.97L125.83 52.68C125.72 52.74 125.6 52.76 125.48 52.71C125.36 52.67 125.28 52.57 125.24 52.46L124.1 48.85L122.65 50.3C122.56 50.39 122.42 50.43 122.29 50.41C122.16 50.39 122.05 50.3 122 50.18L120.92 47.69C120.92 50.44 120.83 52.67 120.8 53.15C121.19 54.16 124.67 63.15 125.04 64.42C125.34 65.44 125.02 69.53 124.81 71.84C125.74 70.39 127.24 67.69 128.38 63.96C128.62 63.16 128.83 62.36 129.01 61.58C128.77 58.07 127.44 53.47 126.99 51.98V51.97Z" fill="#381616"/>
<path d="M81.1301 66.27C81.3401 64.66 80.5901 63.26 80.2101 62.68L79.3701 63.21C79.2001 63.32 78.9701 63.28 78.8501 63.13L77.8501 61.9L77.6201 62.35C77.5701 62.45 77.4801 62.52 77.3701 62.56C77.2601 62.59 77.1501 62.58 77.0501 62.52C70.9501 58.9 65.3701 63.62 64.3101 64.6C62.5201 66.26 62.6201 68.58 62.7701 69.6C63.8601 69.01 66.6301 67.69 69.8401 67.45C70.0701 67.43 70.3101 67.42 70.5401 67.42C74.0301 67.42 77.9101 69.26 78.9001 69.75C80.2101 68.73 80.9601 67.56 81.1201 66.27H81.1301Z" fill="#381616"/>
<g opacity="0.25">
<path d="M119.58 38.01C119.58 38.01 119.5 38.01 119.45 38L119.59 38.1C119.59 38.1 119.59 38.04 119.58 38.02V38.01Z" fill="#38393F"/>
</g>
<path d="M114.98 32.37C105.06 31.28 91.22 26.25 91.22 26.25L94.82 31.6C87.53 29.97 71.93 23.85 71.93 23.85C74.54 28.35 77.15 29.97 77.15 29.97C70.41 28.5 56.22 22.53 56.22 22.53C56.22 22.53 51.13 36.48 44.83 41.02C38.53 45.56 30.15 48.83 30.15 48.83V46.19C26.74 49.29 21.88 50.43 21.83 50.71C21.78 50.99 20.9 46.91 20.9 46.91C16.61 53.27 8.86 55.95 8.86 55.95C8.45 51.92 9.1 44.37 9.1 44.37C6.65 47.68 3.25 57.03 3.25 57.03L3.67 56.86C3.81 56.8 3.97 56.83 4.08 56.93C4.19 57.03 4.24 57.19 4.2 57.33C4.2 57.36 3.62 59.73 4.53 64.95L6.7 63.51C6.82 63.43 6.96 63.42 7.09 63.48C7.22 63.54 7.3 63.65 7.32 63.79L7.54 65.4L19.87 56.44C19.97 56.37 20.1 56.35 20.21 56.38C20.33 56.41 20.42 56.5 20.47 56.61L21.3 58.61L27.86 53.51C28 53.4 28.19 53.4 28.33 53.49C28.47 53.59 28.54 53.77 28.49 53.93C28.19 54.96 27.9 56.14 27.77 56.86C29.5 55.6 34.43 51.99 34.48 51.95C34.61 51.86 34.78 51.85 34.92 51.93C35.06 52.01 35.14 52.16 35.12 52.32L34.95 53.96C47.69 45.64 48.02 45.79 48.27 45.91C48.4 45.97 48.49 46.1 48.51 46.24C48.54 46.52 48.36 47.38 48.16 48.18L52.04 44.8C52.16 44.7 52.33 44.67 52.47 44.74C52.61 44.8 52.7 44.95 52.7 45.1V45.97L57.89 43.1C58.01 43.03 58.16 43.03 58.29 43.1C58.41 43.17 58.49 43.3 58.49 43.44V45.43L63.16 40.86C62.33 33.86 60.75 28.44 60.73 28.36C60.68 28.2 60.73 28.04 60.86 27.94C60.99 27.84 61.16 27.82 61.3 27.9C69.92 32.59 82.77 35.28 86.94 36.06L83.55 32.96C83.4 32.83 83.38 32.6 83.49 32.44C83.6 32.28 83.82 32.22 84 32.31C90.44 35.53 100.01 36.68 103.13 36.99L100.11 33.72C99.98 33.58 99.97 33.36 100.09 33.21C100.21 33.06 100.42 33.01 100.59 33.1C105.97 35.87 119.48 37.2 119.96 37.24C120.99 37.22 122.04 37.15 123.07 37.02C124.12 36.89 125.17 36.71 126.2 36.42C125.22 36.83 124.19 37.15 123.15 37.41C122.25 37.63 121.34 37.81 120.41 37.96C120.75 40.13 120.89 42.99 120.92 45.64L122.51 49.31L124.01 47.81C124.11 47.71 124.25 47.67 124.39 47.7C124.53 47.73 124.63 47.83 124.68 47.97L125.87 51.72L127.04 51.01C127.14 50.95 127.27 50.93 127.39 50.98C127.5 51.02 127.59 51.12 127.63 51.23C127.69 51.43 128.92 55.24 129.54 58.98C130.15 55.15 130.11 52.12 130.11 52.08C130.11 51.94 130.18 51.81 130.29 51.74C130.41 51.66 130.55 51.66 130.68 51.72L132.76 52.72C133.34 47.64 131.94 42.73 131.93 42.68C131.88 42.52 131.93 42.36 132.06 42.26C132.19 42.16 132.36 42.14 132.5 42.22L137.42 44.91C130.84 32.89 124.93 33.45 115 32.36L114.98 32.37Z" fill="#2B1010"/>
<g opacity="0.25">
<path d="M58.93 123.46C41.7201 118.97 32.32 103.4 30.35 103.09C28.39 102.78 23.48 106.4 16.86 104.95C10.25 103.5 9.32005 96.15 9.32005 96.15C8.66005 98.6 9.42005 101.39 11.57 104.46C13.36 107.01 15.61 108.52 18.25 108.95C23.55 109.82 28.73 106.06 28.79 106.02C28.86 105.97 28.94 105.94 29.03 105.94C29.07 105.94 29.11 105.94 29.15 105.96C29.27 106 29.37 106.1 29.41 106.22C29.45 106.33 32.05 114.32 40.23 120.98C41.12 121.64 43.38 123.24 46.69 125.2C48.32 126.04 50.1 126.8 52.03 127.45C52.81 127.69 53.71 127.97 54.71 128.26C71.89 132.98 95.51 134.22 111.09 123.69C112.51 122.73 113.79 121.7 114.92 120.62C117.89 117.57 119.29 114.83 119.71 113.89C119.76 113.78 119.81 113.66 119.85 113.55C106.76 129.62 76.15 127.94 58.94 123.46H58.93Z" fill="#000072"/>
</g>
<path d="M55.8301 51.51C53.9701 54.07 38.7801 67.17 38.7801 67.17C39.8101 79.88 31.4401 89.22 31.4401 89.22C31.4401 89.22 30.1001 85.36 24.5201 85.46C19.3001 85.56 14.2101 89.72 13.5801 90.25C13.5801 90.27 13.6001 90.28 13.6001 90.3H13.6901C16.0101 89.31 18.0601 88.95 19.8301 88.95C24.5401 88.95 27.1701 91.5 27.2001 91.54C27.2601 91.6 27.3001 91.67 27.3101 91.76C27.9601 95.61 29.5501 98.04 30.1901 98.89C42.0501 86.08 43.3201 68.8 43.3301 68.62C43.3301 68.52 43.3801 68.42 43.4601 68.35L61.4401 51.91L60.8601 48.4C60.8401 48.25 60.8901 48.1 61.0101 48.01C61.1301 47.92 61.2901 47.9 61.4201 47.97L62.1701 48.32L61.9101 43.19L58.3601 46.67C58.2401 46.78 58.0701 46.82 57.9201 46.75C57.7701 46.69 57.6701 46.54 57.6701 46.38V44.11L55.8301 45.13C55.8301 45.13 57.6901 48.94 55.8301 51.49V51.51Z" fill="#2B1010"/>
<path d="M79.0599 67.16C77.0299 67.81 74.38 65.34 70.4 65.5C66.42 65.66 62.71 68.81 62.7 68.82C62.71 69.12 62.74 69.39 62.77 69.6C63.86 69.01 66.6299 67.69 69.8399 67.45C70.0699 67.43 70.31 67.42 70.54 67.42C74.03 67.42 77.91 69.26 78.9 69.75C80.21 68.73 80.96 67.56 81.12 66.27C81.15 66.04 81.16 65.82 81.15 65.6C80.86 66.09 80.26 66.77 79.05 67.16H79.0599Z" fill="#2B1010"/>
<path d="M111.51 69.14C108.67 68.31 106.34 69.11 104.3 69.14C102.28 69.17 102.08 68.06 102.07 68.04C101.95 69.82 102.43 71.36 102.72 72.1C103.47 71.56 105.19 70.61 108.17 70.49C110.13 70.41 112.02 70.8 113.68 71.14C115.38 71.49 116.85 71.79 117.77 71.45C118.16 71.31 118.4 71.07 118.56 70.8C117.6 71.09 114.35 69.97 111.51 69.14Z" fill="#2B1010"/>
<path d="M126.94 63.17C126.8 63.01 122.11 54.6 120.82 52.68C120.82 52.9 120.81 53.06 120.8 53.15C121.19 54.16 124.67 63.15 125.04 64.42C125.33 65.4 125.04 69.25 124.84 71.59L124.92 71.67C125.85 70.18 127.29 67.55 128.38 63.96C128.41 63.87 128.43 63.79 128.45 63.7C128.42 63.45 128.38 63.3 128.38 63.3C128.38 63.3 127.09 63.35 126.93 63.17H126.94Z" fill="#2B1010"/>
<path d="M8.1801 41.49C8.1801 41.49 13.7101 36.53 14.0201 35.44C14.3301 34.35 14.0201 29.65 14.0201 29.65L18.0501 21.02L19.2901 23.97C19.2901 23.97 25.0801 15.29 34.6401 10.9C34.6401 10.9 29.3201 21.67 31.6401 20.74C33.9701 19.81 41.3301 16.4 41.4101 17.1C41.4901 17.8 30.6401 32.29 33.0401 31.6C35.4401 30.9 46.6101 25.09 45.4401 25.09C44.2701 25.09 38.4601 27.26 38.9301 26.87C39.4001 26.48 48.3901 13.3 46.8401 12.84C45.2901 12.37 37.5201 15.32 37.8401 14.55C38.1601 13.77 40.0201 8.80998 50.5601 6.09998C61.1001 3.38998 79.5501 3.53998 94.8201 8.03998C110.09 12.54 116.26 10.92 117.89 9.24998C118.03 8.67998 118.1 8.15998 118.12 7.77998C116.38 8.54998 111.16 10.44 105.08 8.44998L104.92 8.39998C97.5601 5.97998 78.0201 -0.440017 55.1701 2.31998C32.4701 5.05998 19.6201 18.14 19.4901 18.27C19.3701 18.39 19.1901 18.43 19.0401 18.36C18.8901 18.29 18.7901 18.13 18.8001 17.96L19.0701 14.3L11.4401 28.82L12.0501 35.11C12.0601 35.22 12.0301 35.32 11.9601 35.41C10.5401 37.1 9.3001 38.94 8.2101 40.81C8.1301 41.11 8.1001 41.36 8.1701 41.51L8.1801 41.49Z" fill="#491D1D"/>
<path d="M80.07 133.38C70.76 133.38 61.48 131.87 53.6 129.64C36.72 124.87 30.21 112.49 28.41 108.19C26.37 109.37 22.29 111.26 17.99 110.56C14.9 110.06 12.3 108.32 10.25 105.4C7.80004 101.92 6.97004 98.66 7.76004 95.73C8.51004 92.95 10.54 91.22 11.82 90.37C10.53 87.72 7.09004 80.38 4.61004 72.19C2.64004 65.7 2.34004 61.47 2.40004 59.15L1.69004 59.44C1.28004 59.61 0.810039 59.53 0.460039 59.25C0.120039 58.97 -0.049961 58.52 0.030039 58.08C0.130039 57.52 2.59004 44.38 10.41 34.76L9.84004 28.86C9.82004 28.62 9.86004 28.38 9.97004 28.17L18.55 11.84C18.82 11.33 19.41 11.07 19.97 11.23C20.53 11.39 20.9 11.92 20.85 12.5L20.66 15.03C25.37 11.07 37.1 2.85002 54.98 0.690025C78.18 -2.10998 97.98 4.39003 105.43 6.84002L105.59 6.89002C112.21 9.06002 117.9 6.08003 117.96 6.05002C118.33 5.85003 118.77 5.86002 119.14 6.06002C119.5 6.27002 119.74 6.64002 119.76 7.06002C119.76 7.20002 119.89 9.84002 118.45 12.01C120.44 12.35 123.64 12.61 126.87 11.64C127.36 11.49 127.89 11.67 128.2 12.08C128.51 12.49 128.53 13.05 128.25 13.48L127.76 14.25H128.1C128.47 14.22 128.83 14.38 129.07 14.66C129.31 14.94 129.42 15.31 129.35 15.68C129.32 15.85 128.66 19.34 125.82 21.33C127.97 23.08 131.96 26.33 134.03 28C135.64 29.3 136.92 30.8 137.71 31.83C139.43 34.06 139.45 34.59 139.09 35.21C138.78 35.73 138.12 35.96 137.56 35.73C137.51 35.71 137.34 35.63 137.07 35.49C135.72 34.8 134.52 34.23 133.48 33.78C135.42 36.56 138.02 40.87 139.21 45.44C139.33 45.91 139.16 46.41 138.78 46.71C138.39 47.01 137.87 47.05 137.44 46.82L134.04 44.96C134.41 47.11 134.72 50.28 134.26 53.52C134.2 53.91 133.97 54.24 133.63 54.43C133.29 54.61 132.88 54.62 132.52 54.45L131.65 54.03C131.54 56.34 131.17 60.4 129.93 64.45C128.3 69.81 125.98 73.1 125.37 73.92C123.73 79.18 119.32 92.23 118.26 95.34C120.75 98.29 123.19 103.53 122.53 109.5C122.07 113.65 119.86 119.73 111.98 125.05C103.02 131.11 91.52 133.4 80.07 133.4V133.38ZM29.03 105.12C29.16 105.12 29.29 105.14 29.41 105.18C29.79 105.3 30.08 105.6 30.2 105.98C30.25 106.14 35.44 121.96 54.27 127.29C71.32 132.11 95.07 133.52 110.62 123.01C116.33 119.15 119.52 114.51 120.11 109.21C120.73 103.67 118.28 98.87 115.99 96.44C115.68 96.11 115.58 95.64 115.72 95.21C115.78 95.05 121.24 78.94 123.06 73.08C123.41 69.68 123.67 65.61 123.48 64.88C123.17 63.84 120.32 56.43 119.25 53.66C119.19 53.5 119.16 53.33 119.17 53.16C119.17 53.06 119.57 44.04 118.86 38.75C116.43 38.49 109.9 37.69 104.67 36.28L105.01 36.65C105.35 37.02 105.43 37.56 105.21 38.01C104.99 38.46 104.52 38.74 104.02 38.7C103.62 38.67 96.28 38.14 89.26 36.07C89.47 36.42 89.5 36.86 89.32 37.24C89.08 37.73 88.56 38 88.02 37.91C87.39 37.81 73.43 35.48 62.95 30.56C63.87 34.41 65.36 41.91 65.25 49.66C65.25 50.08 65.03 50.46 64.67 50.68C64.32 50.9 63.88 50.93 63.5 50.75L62.82 50.43L63.06 51.85C63.13 52.26 62.98 52.67 62.68 52.95L44.89 69.22C44.6 72.28 42.58 88.14 31.03 100.33C30.8 100.58 30.46 100.71 30.13 100.71C29.79 100.71 29.47 100.56 29.24 100.31C29.14 100.19 26.72 97.5 25.76 92.45C24.71 91.61 20.62 88.93 13.91 91.94C13.82 91.98 10.88 93.42 10.09 96.37C9.51004 98.57 10.22 101.12 12.23 103.98C13.89 106.34 15.95 107.74 18.37 108.13C23.33 108.94 28.24 105.39 28.29 105.35C28.5 105.19 28.76 105.11 29.02 105.11L29.03 105.12ZM19.88 88.1C24.84 88.1 27.61 90.79 27.77 90.95C27.95 91.13 28.07 91.36 28.11 91.61C28.58 94.4 29.57 96.41 30.27 97.55C41.3 85.04 42.49 68.73 42.5 68.56C42.52 68.25 42.66 67.95 42.9 67.74L60.55 51.6L60.04 48.53C59.97 48.08 60.15 47.63 60.51 47.35C60.87 47.08 61.36 47.03 61.77 47.22L62.81 47.71C62.61 37.87 59.95 28.69 59.92 28.59C59.78 28.12 59.94 27.6 60.33 27.29C60.71 26.98 61.25 26.93 61.68 27.17C68.71 31 78.61 33.47 84.18 34.66L82.98 33.56C82.53 33.15 82.45 32.47 82.8 31.96C83.15 31.46 83.81 31.29 84.36 31.56C89.56 34.16 96.88 35.39 101.03 35.91L99.51 34.26C99.11 33.82 99.08 33.16 99.44 32.69C99.8 32.22 100.45 32.07 100.97 32.34C106.28 35.07 119.92 36.38 120.06 36.4C120.61 36.45 121.05 36.86 121.15 37.41C122.02 42.35 121.71 51.33 121.64 53C122.32 54.76 125.47 62.92 125.84 64.18C126.03 64.83 126.02 66.38 125.93 68.08C126.5 66.85 127.09 65.39 127.6 63.71C129.33 58.03 129.25 52.16 129.25 52.1C129.25 51.68 129.46 51.28 129.81 51.05C130.17 50.82 130.62 50.79 131 50.98L132.01 51.46C132.27 46.98 131.12 42.96 131.1 42.91C130.96 42.44 131.12 41.92 131.51 41.61C131.9 41.3 132.43 41.25 132.86 41.49L135.89 43.15C133.54 37.24 129.27 32.26 129.22 32.2C128.89 31.81 128.83 31.26 129.07 30.82C129.31 30.37 129.8 30.12 130.31 30.19C131.4 30.34 132.77 30.81 134.09 31.35C133.6 30.85 133.06 30.34 132.48 29.87C129.57 27.52 122.88 22.07 122.81 22.01C122.47 21.73 122.3 21.28 122.38 20.85C122.46 20.41 122.77 20.05 123.19 19.91C124.93 19.31 125.91 17.86 126.42 16.72L125.49 16.76C125.03 16.77 124.61 16.54 124.38 16.14C124.15 15.74 124.17 15.26 124.41 14.87L124.59 14.59C119.81 15.2 115.85 13.92 115.65 13.85C115.2 13.7 114.88 13.31 114.82 12.85C114.76 12.38 114.97 11.92 115.36 11.67C116.34 11.03 116.83 9.97003 117.06 9.04002C114.54 9.91002 109.96 10.9 104.79 9.20002L104.63 9.15002C97.32 6.75002 77.9 0.370024 55.24 3.10002C32.88 5.80002 20.18 18.68 20.06 18.81C19.7 19.18 19.15 19.29 18.68 19.08C18.28 18.9 18.02 18.53 17.97 18.11L12.27 28.96L12.86 35C12.89 35.33 12.79 35.65 12.58 35.9C6.81004 42.8 3.97004 52.07 2.91004 56.27L3.33004 56.1C3.76004 55.93 4.25004 56.01 4.59004 56.32C4.94004 56.63 5.08004 57.1 4.96004 57.55C4.96004 57.58 3.99004 61.81 6.91004 71.46C9.34004 79.49 12.71 86.69 13.97 89.26C16.17 88.41 18.14 88.09 19.84 88.09L19.88 88.1Z" fill="#232323"/>
<path d="M7.22003 67.36C7.06003 67.36 6.89003 67.33 6.74003 67.26C6.34003 67.09 6.07003 66.73 6.01003 66.3L5.96003 65.96L4.91003 66.66C4.35003 67.03 3.59003 66.88 3.21003 66.32C2.84003 65.76 2.99003 65 3.55003 64.62L6.23003 62.85C6.58003 62.62 7.03003 62.58 7.41003 62.75C7.79003 62.92 8.06003 63.28 8.12003 63.7L8.15003 63.95L19.36 55.8C19.66 55.58 20.05 55.51 20.41 55.61C20.77 55.71 21.06 55.97 21.21 56.32L21.63 57.32L27.34 52.88C27.76 52.55 28.34 52.54 28.78 52.83C29.22 53.13 29.42 53.67 29.27 54.18C29.2 54.41 29.14 54.66 29.07 54.9C30.65 53.75 32.67 52.27 33.99 51.3C34.38 51.01 34.9 50.98 35.32 51.23C35.72 51.46 35.95 51.89 35.93 52.34C47.63 44.72 47.87 44.84 48.6 45.17C48.96 45.34 49.23 45.69 49.3 46.08L51.48 44.18C51.84 43.86 52.35 43.79 52.79 43.99C53.08 44.12 53.29 44.35 53.41 44.63L57.48 42.38C57.86 42.17 58.32 42.18 58.69 42.4C59.06 42.62 59.29 43.02 59.29 43.45V43.48L62.7 40.13C63.18 39.66 63.96 39.66 64.43 40.15C64.9 40.63 64.89 41.41 64.41 41.88L58.92 47.26C58.57 47.6 58.04 47.7 57.59 47.51C57.14 47.32 56.84 46.87 56.84 46.38V45.51L52.87 47.71C52.49 47.92 52.03 47.91 51.66 47.69C51.56 47.63 51.47 47.56 51.4 47.48L48.23 50.24C47.82 50.6 47.23 50.64 46.78 50.35C46.32 50.06 46.11 49.51 46.25 48.99C46.29 48.86 46.32 48.73 46.36 48.6C43.77 50.18 39.24 53.08 35.13 55.77C34.73 56.03 34.23 56.04 33.82 55.79C33.49 55.59 33.28 55.24 33.24 54.86C31.21 56.35 28.46 58.36 28.13 58.59C27.67 58.91 27.08 58.92 26.63 58.59C26.21 58.29 25.98 57.96 26.11 56.9L21.87 60.2C21.57 60.43 21.18 60.51 20.81 60.42C20.44 60.32 20.14 60.06 19.99 59.71L19.55 58.66L7.93003 67.1C7.72003 67.25 7.47003 67.33 7.21003 67.33L7.22003 67.36Z" fill="#232323"/>
<path d="M119.85 36.42C121.94 36.66 124.08 36.72 126.19 36.42C124.26 37.51 122.15 38.28 120 38.86C118.06 39.22 117.89 36.27 119.86 36.41L119.85 36.42Z" fill="#232323"/>
<path d="M129.41 62.83C128.77 62.83 128.23 62.33 128.19 61.69C128.01 58.85 127.07 55.24 126.5 53.24L126.25 53.39C125.93 53.59 125.54 53.62 125.18 53.49C124.83 53.36 124.56 53.07 124.44 52.71L123.7 50.39L123.21 50.88C122.92 51.17 122.51 51.29 122.12 51.22C121.72 51.14 121.39 50.88 121.23 50.5L119.37 46.21C119.1 45.59 119.39 44.87 120.01 44.6C120.63 44.33 121.35 44.62 121.62 45.24L122.76 47.88L123.4 47.24C123.7 46.94 124.14 46.82 124.55 46.92C124.97 47.02 125.3 47.33 125.43 47.74L126.3 50.49L126.57 50.33C126.89 50.13 127.28 50.1 127.63 50.23C127.98 50.36 128.25 50.64 128.37 51C128.45 51.25 130.34 57.11 130.63 61.54C130.67 62.21 130.16 62.8 129.49 62.84C129.46 62.84 129.44 62.84 129.41 62.84V62.83Z" fill="#232323"/>
<path d="M88.8701 44.23C90.4001 43.43 92.1901 43.63 93.5701 44.64C92.1301 45.63 90.1301 45.4 88.8701 44.23Z" fill="#232323"/>
<path d="M85.77 47.59C87.53 47.21 89.29 47.3 91.04 47.55C92.79 47.83 94.5 48.27 96.05 49.19C92.54 49.48 89.01 48.97 85.77 47.59Z" fill="#232323"/>
<path d="M81.6299 52.7C84.5999 51.99 87.8699 51.93 90.7799 53.06C91.3599 53.27 92.0399 53.43 92.6499 53.52C96.2299 54.11 99.9499 54.15 103.6 54.56C99.6899 55.35 95.6099 55.6 91.6799 54.83C91.1099 54.7 90.4499 54.48 89.9199 54.25C87.3099 53.16 84.4799 52.96 81.6399 52.71L81.6299 52.7Z" fill="#232323"/>
<path d="M50.27 87.18C49.89 87.18 49.57 86.89 49.54 86.51C49.5 86.11 49.8 85.75 50.2 85.71L53.61 85.4C54.01 85.37 54.37 85.66 54.41 86.06C54.45 86.46 54.15 86.82 53.75 86.86L50.34 87.17C50.34 87.17 50.3 87.17 50.27 87.17V87.18Z" fill="#232323"/>
<path d="M50.27 89.53C49.95 89.53 49.66 89.32 49.57 89C49.46 88.61 49.68 88.2 50.07 88.09C51.36 87.72 52.89 87.9 52.95 87.91C53.35 87.96 53.64 88.33 53.59 88.73C53.54 89.13 53.17 89.42 52.77 89.37C52.73 89.37 51.47 89.22 50.48 89.5C50.41 89.52 50.34 89.53 50.28 89.53H50.27Z" fill="#232323"/>
<path d="M116.05 89.96C116.05 89.96 115.96 89.96 115.92 89.95L114.41 89.68C114.01 89.61 113.75 89.23 113.82 88.83C113.89 88.43 114.27 88.16 114.67 88.24L116.18 88.51C116.58 88.58 116.84 88.96 116.77 89.36C116.71 89.72 116.4 89.96 116.05 89.96Z" fill="#232323"/>
<path d="M115.51 92.25C115.51 92.25 115.41 92.25 115.36 92.23L114.04 91.96C113.64 91.88 113.39 91.49 113.47 91.09C113.55 90.69 113.94 90.44 114.34 90.52L115.66 90.79C116.06 90.87 116.31 91.26 116.23 91.66C116.16 92.01 115.85 92.25 115.51 92.25Z" fill="#232323"/>
<path d="M62.4901 71.2C62.3701 71.2 62.2501 71.18 62.1401 71.13C61.8501 71.02 61.6401 70.78 61.5501 70.49C61.5001 70.32 60.4101 66.34 63.3801 63.59C66.6101 60.59 71.7501 58.4 76.8401 60.84L76.8901 60.73C77.0401 60.43 77.3301 60.23 77.6601 60.19C77.9901 60.15 78.3201 60.29 78.5301 60.54L79.3801 61.57L79.8101 61.3C80.2301 61.03 80.7801 61.13 81.0901 61.51C81.1601 61.6 82.8601 63.73 82.5101 66.43C82.2901 68.17 81.2901 69.71 79.5401 71C79.2401 71.22 78.8301 71.25 78.5001 71.08C78.4501 71.05 73.6601 68.53 69.9701 68.81C66.2201 69.1 63.0501 71.03 63.0201 71.04C62.8601 71.14 62.6901 71.19 62.5101 71.19L62.4901 71.2ZM70.5401 66.84C73.8401 66.84 77.4401 68.4 78.8301 69.07C79.8501 68.2 80.4301 67.23 80.5601 66.19C80.7001 65.11 80.3401 64.13 80.0101 63.49L79.6801 63.7C79.2601 63.96 78.7101 63.88 78.4001 63.49L77.9201 62.9C77.8101 63 77.6801 63.07 77.5401 63.11C77.2801 63.19 77.0001 63.15 76.7601 63.01C71.0201 59.6 65.7101 64.08 64.7101 65.02C63.4701 66.17 63.2501 67.66 63.2701 68.7C64.6701 68.03 67.0801 67.08 69.8101 66.87C70.0501 66.85 70.3001 66.84 70.5501 66.84H70.5401Z" fill="#232323"/>
<path d="M102.57 73.73C102.52 73.73 102.47 73.73 102.42 73.72C102.11 73.67 101.84 73.48 101.7 73.2C101.63 73.07 100.12 70.01 100.92 66.49C100.99 66.2 101.19 65.95 101.46 65.82C101.55 65.78 101.64 65.75 101.74 65.74L102.2 64.48C102.32 64.15 102.61 63.91 102.96 63.85C103.31 63.79 103.66 63.92 103.88 64.2L104.05 64.41C105.2 63.43 107.48 62.07 110.71 62.82C115.04 63.83 119.47 67.64 119.66 67.8C119.79 67.91 119.89 68.06 119.94 68.22C120.36 69.42 120.55 71.91 118.27 72.75C116.98 73.23 115.33 72.89 113.42 72.5C111.83 72.18 110.04 71.81 108.24 71.88C104.76 72.02 103.3 73.43 103.28 73.45C103.09 73.63 102.84 73.74 102.58 73.74L102.57 73.73ZM102.68 67.86C102.55 69.19 102.8 70.41 103.04 71.23C104.04 70.67 105.7 70.01 108.15 69.92C110.19 69.84 112.11 70.23 113.8 70.58C115.35 70.9 116.81 71.2 117.57 70.91C118.39 70.6 118.25 69.56 118.14 69.09C117.23 68.34 113.6 65.5 110.25 64.72C106.76 63.9 104.76 66.43 104.74 66.46C104.56 66.7 104.28 66.84 103.98 66.84C103.81 66.84 103.62 66.79 103.47 66.7L103.26 67.28C103.16 67.54 102.96 67.75 102.7 67.86H102.68Z" fill="#232323"/>
<g opacity="0.4">
<path d="M94.8001 96.12C94.1201 94.62 93.0901 93.6599 91.7201 93.2399C90.0601 92.7299 88.1701 93.1399 86.8501 93.6799C86.3501 93.9499 85.8601 94.1699 85.8601 94.1699C85.8601 94.1699 91.8301 94.2199 92.9201 95.9599C94.0101 97.6999 94.4901 101.77 94.0701 104.06C94.9501 102.69 96.3901 99.6399 94.7901 96.1099L94.8001 96.12Z" fill="white"/>
</g>
<path d="M94.65 107.15C94.36 107.15 94.07 107.02 93.88 106.77L93.05 105.71C92.76 105.34 92.77 104.82 93.08 104.46C93.21 104.31 96.25 100.72 94.27 96.36C93.66 95.02 92.75 94.16 91.55 93.79C89.6 93.2 87.26 93.99 86.16 94.66C85.7 94.94 85.1 94.8 84.81 94.34C84.52 93.88 84.67 93.28 85.13 92.99C86.33 92.25 89.34 91.06 92.12 91.91C93.88 92.45 95.2 93.67 96.05 95.54C98.03 99.9 96.05 103.62 95.05 105.08L95.42 105.55C95.75 105.98 95.68 106.59 95.25 106.92C95.07 107.06 94.86 107.13 94.65 107.13V107.15Z" fill="#232323"/>
<path d="M87.87 104.07C87.5 104.07 87.15 103.86 86.98 103.51C86.84 103.24 86.42 102.64 85.41 102.95C84.89 103.11 84.34 102.82 84.18 102.31C84.02 101.79 84.31 101.25 84.82 101.08C87.04 100.39 88.36 101.82 88.75 102.68C88.98 103.17 88.75 103.75 88.27 103.98C88.14 104.04 88 104.07 87.86 104.07H87.87Z" fill="#232323"/>
<path d="M70.94 96.97C75.3251 96.97 78.88 92.26 78.88 86.45C78.88 80.64 75.3251 75.93 70.94 75.93C66.5549 75.93 63 80.64 63 86.45C63 92.26 66.5549 96.97 70.94 96.97Z" fill="#3F0F0F"/>
<path d="M68.86 88.86C70.191 88.86 71.27 87.2348 71.27 85.23C71.27 83.2252 70.191 81.6 68.86 81.6C67.5289 81.6 66.45 83.2252 66.45 85.23C66.45 87.2348 67.5289 88.86 68.86 88.86Z" fill="white"/>
<g opacity="0.35">
<path d="M76.3001 90.86C75.6501 92.28 74.5301 93.15 73.8001 92.82C73.0701 92.48 73.0101 91.06 73.6701 89.65C74.3301 88.24 75.4401 87.36 76.1701 87.69C76.9001 88.03 76.9601 89.45 76.3001 90.86Z" fill="white"/>
</g>
<path d="M104.59 97.1C108.682 97.1 112 92.7079 112 87.29C112 81.8721 108.682 77.48 104.59 77.48C100.497 77.48 97.1799 81.8721 97.1799 87.29C97.1799 92.7079 100.497 97.1 104.59 97.1Z" fill="#3F0F0F"/>
<path d="M102.65 89.53C103.887 89.53 104.89 88.0167 104.89 86.15C104.89 84.2833 103.887 82.77 102.65 82.77C101.413 82.77 100.41 84.2833 100.41 86.15C100.41 88.0167 101.413 89.53 102.65 89.53Z" fill="white"/>
<g opacity="0.35">
<path d="M109.59 91.4C108.98 92.72 107.94 93.54 107.26 93.23C106.58 92.92 106.53 91.59 107.14 90.27C107.75 88.95 108.79 88.13 109.47 88.44C110.15 88.75 110.2 90.08 109.59 91.4Z" fill="white"/>
</g>
<path d="M46.83 80.59L49.31 80.63L49.39 75.93L46.56 76.32C45.8 77.68 46.56 79.91 46.83 80.59Z" fill="#58546B"/>
<g opacity="0.4">
<path d="M67.8 72.83C62.64 72.85 50.58 72.91 50.08 75.59L49.99 80.97C50.27 85.46 51.05 97.11 51.31 98.46C52.94 99.33 75.74 99.59 77.46 98.75C77.84 98.53 78.6 95.81 79.01 87.03C79.3 80.76 79.23 75.47 79.03 74.96C78.62 73.91 77.39 72.78 67.8 72.83Z" fill="white"/>
</g>
<path d="M129.54 77.66L126.73 77.18L126.65 81.88L129.13 81.92C129.41 81.25 130.26 79.04 129.55 77.66H129.54Z" fill="#58546B"/>
<g opacity="0.4">
<path d="M96.7302 84.36C96.7302 85.31 96.7302 86.3 96.7402 87.31C96.8502 96.1 97.5102 98.84 97.8902 99.07C99.5702 99.97 122.37 100.43 124.03 99.62C124.34 98.29 125.52 86.67 125.95 82.19L126.04 76.81C125.63 74.12 113.57 73.68 108.42 73.49C98.8402 73.13 97.5702 74.22 97.1302 75.26C96.9502 75.68 96.7402 79.46 96.7202 84.36H96.7302Z" fill="white"/>
</g>
<g opacity="0.25">
<path d="M53.51 96.07C52.68 95.49 50.04 81.89 50.04 81.89C50.36 86.88 51.05 97.2 51.3 98.45C52.93 99.32 75.73 99.58 77.45 98.74C77.66 98.62 77.99 97.71 78.31 95.41C77.92 95.72 76.98 96.3 75.08 96.76C72.38 97.42 54.33 96.64 53.51 96.06V96.07Z" fill="#000D68"/>
</g>
<g opacity="0.25">
<path d="M46.83 80.59L49.31 80.63L49.33 79.6L46.5 79.55C46.62 80 46.75 80.37 46.84 80.59H46.83Z" fill="#000D68"/>
</g>
<g opacity="0.25">
<path d="M121.99 97.96C119.63 98.47 102.07 97.44 100.65 96.93C99.24 96.42 96.76 88.11 96.76 88.11C96.9 96.26 97.53 98.84 97.9 99.07C99.58 99.97 122.38 100.43 124.04 99.62C124.11 99.32 124.23 98.48 124.37 97.31C124.15 97.18 124.35 97.45 122 97.96H121.99Z" fill="#000D68"/>
</g>
<g opacity="0.25">
<path d="M126.88 80.06L126.67 80.15L126.64 81.88L128.43 81.91L128.55 80.42C128.55 80.42 126.94 80.07 126.88 80.07V80.06Z" fill="#000D68"/>
</g>
<path d="M49.6201 82.02L46.5701 81.97C46.1601 81.97 45.7901 81.72 45.6301 81.35C45.4601 80.97 44.0401 77.6 45.4701 75.43C45.6401 75.18 45.9001 75.01 46.2001 74.97L49.5901 74.5C49.8901 74.46 50.2001 74.55 50.4301 74.75C50.6601 74.95 50.7901 75.25 50.7801 75.55L50.6901 80.99C50.6901 81.55 50.2301 82 49.6801 82.02C49.6601 82.02 49.6401 82.02 49.6301 82.02H49.6201ZM47.0401 76.97C46.7701 77.82 47.0501 79.07 47.3201 79.89L48.6101 79.91L48.6601 76.74L47.0401 76.97Z" fill="#232323"/>
<path d="M50.7402 99.71C50.2402 99.49 50.0602 99.14 49.9902 98.9C49.6702 97.76 48.8502 84.94 48.6002 81.04C48.5602 80.46 49.0002 79.97 49.5802 79.93C50.1602 79.9 50.6502 80.33 50.6902 80.91C51.0502 86.63 51.6702 95.7 51.9402 97.9C55.2302 98.64 74.4002 98.85 77.0202 98.14C78.2102 95.84 78.8602 77.32 78.3702 75.18C78.0602 74.44 76.5802 73.49 67.8202 73.53C62.1302 73.56 58.3502 73.74 55.5602 74.11C51.0102 74.72 50.7902 75.67 50.7802 75.71C50.6802 76.28 50.1402 76.66 49.5702 76.56C49.0002 76.46 48.6202 75.92 48.7202 75.35C49.2102 72.52 54.2002 71.5 67.8102 71.43C77.3502 71.38 79.5702 72.46 80.3402 74.45C80.7802 75.6 80.5702 83.65 80.4002 87.14C79.8302 99.11 78.7402 99.65 78.0802 99.97C77.4802 100.27 75.2402 100.46 72.2702 100.57C64.7302 100.83 52.5102 100.49 50.7502 99.7L50.7402 99.71Z" fill="#232323"/>
<path d="M129.32 83.31L126.27 83.26C125.99 83.26 125.73 83.14 125.53 82.94C125.34 82.74 125.23 82.47 125.24 82.19L125.33 76.75C125.33 76.44 125.47 76.16 125.71 75.96C125.94 75.77 126.25 75.68 126.55 75.73L129.92 76.31C130.22 76.36 130.48 76.54 130.64 76.79C131.99 79 130.45 82.33 130.27 82.7C130.1 83.05 129.75 83.28 129.36 83.29C129.34 83.29 129.32 83.29 129.31 83.29L129.32 83.31ZM127.41 78.02L127.36 81.19L128.65 81.21C128.95 80.4 129.27 79.16 129.03 78.3L127.42 78.02H127.41Z" fill="#232323"/>
<path d="M97.2301 100.29C96.5901 99.95 95.5101 99.37 95.3501 87.39C95.3001 83.89 95.3701 75.85 95.8501 74.71C96.6801 72.74 98.9401 71.75 108.47 72.1C122.07 72.6 127.02 73.79 127.42 76.63C127.5 77.2 127.1 77.73 126.53 77.81C125.96 77.89 125.43 77.49 125.35 76.92C125.35 76.88 125.16 75.92 120.63 75.16C117.86 74.7 114.08 74.4 108.4 74.19C99.6401 73.87 98.1301 74.77 97.7901 75.5C97.2301 77.62 97.2301 96.12 98.3401 98.49C101.05 99.28 120.11 99.69 123.41 99.06C123.76 96.84 124.69 87.81 125.24 82.11C125.3 81.53 125.81 81.11 126.38 81.17C126.96 81.23 127.38 81.74 127.32 82.31C126.94 86.2 125.67 98.99 125.32 100.11C125.24 100.36 125.04 100.69 124.54 100.9C123.94 101.14 122.19 101.3 119.84 101.38C112.36 101.64 98.8201 101.14 97.2201 100.29H97.2301Z" fill="#232323"/>
<path d="M96.42 85.39C96.81 85.38 97.18 85.14 97.34 84.76C97.57 84.23 97.33 83.61 96.8 83.38C87.53 79.36 79.38 82.96 79.04 83.11C78.51 83.35 78.28 83.97 78.52 84.49C78.76 85.02 79.38 85.25 79.9 85.01C80.01 84.96 87.6 81.66 95.97 85.29C96.12 85.35 96.27 85.38 96.42 85.38V85.39Z" fill="#232323"/>
<path d="M95.5001 110.55C93.8901 114.54 92.9301 118.84 90.7601 121.55C89.9301 122.59 88.9201 123.4 87.6201 123.86C86.3901 124.3 85.0501 124.28 83.7901 123.94C79.1501 122.69 76.6401 118.97 75.5301 114.19C75.0301 112.03 74.8101 109.65 74.8101 107.18C79.5801 110.32 89.1001 113.11 95.4901 110.54L95.5001 110.55Z" fill="#232323"/>
<path d="M90.76 121.56C89.93 122.6 88.92 123.41 87.62 123.87C86.39 124.31 85.05 124.29 83.79 123.95C79.15 122.7 76.64 118.98 75.53 114.2C80.85 112.83 88.43 115.76 90.75 121.56H90.76Z" fill="#FA6469"/>
<path d="M85.65 125.27C84.96 125.27 84.24 125.17 83.52 124.98C78.87 123.73 75.83 120.18 74.5 114.44C74 112.31 73.75 109.87 73.75 107.19C73.75 106.8 73.97 106.44 74.31 106.25C74.65 106.06 75.07 106.08 75.4 106.3C79.66 109.1 88.86 112.07 95.1 109.56C95.5 109.4 95.95 109.49 96.25 109.8C96.55 110.1 96.64 110.56 96.48 110.95C96 112.13 95.58 113.36 95.17 114.55C94.17 117.45 93.22 120.19 91.59 122.22C90.57 123.5 89.39 124.37 87.98 124.87C87.25 125.13 86.46 125.26 85.65 125.26V125.27ZM75.94 109.09C76.03 110.86 76.25 112.49 76.59 113.96C77.73 118.87 80.25 121.89 84.08 122.92C85.22 123.22 86.32 123.21 87.27 122.86C88.3 122.49 89.17 121.85 89.93 120.89C91.33 119.14 92.22 116.57 93.16 113.85C93.35 113.31 93.54 112.76 93.73 112.21C87.77 113.56 80.51 111.52 75.93 109.08L75.94 109.09Z" fill="#232323"/>
<path d="M97.88 106.02L99.89 107.69C100.2 107.95 100.25 108.42 99.98 108.73L99.95 108.77L99.74 108.99C98.66 110.13 97.31 110.98 95.89 111.55C95.34 111.77 94.72 111.5 94.51 110.95C94.29 110.4 94.56 109.78 95.11 109.57C96.29 109.1 97.36 108.41 98.21 107.52L98.07 108.81L97.52 106.25C97.49 106.13 97.57 106.01 97.69 105.98C97.76 105.96 97.83 105.98 97.88 106.03V106.02Z" fill="#232323"/>
<path d="M75.3001 104.17C74.0101 104.52 73.1401 105.08 72.3901 105.85C72.0101 106.23 71.7001 106.69 71.3501 107.16C71.1901 107.4 71.0301 107.66 70.8401 107.91C70.6701 108.17 70.5101 108.44 70.2801 108.7C70.2301 108.37 70.2401 108.04 70.2401 107.7C70.2801 107.37 70.3401 107.05 70.4301 106.72C70.6501 106.09 70.9601 105.46 71.4601 104.95C71.9501 104.44 72.5901 104.05 73.2801 103.9C73.9701 103.75 74.7001 103.8 75.2901 104.15L75.3001 104.17Z" fill="#232323"/>
<path d="M78.5 125.74C79.53 126.19 80.54 126.56 81.57 126.83C82.59 127.1 83.62 127.24 84.64 127.24C85.66 127.24 86.69 127.14 87.7 126.84C88.22 126.74 88.71 126.53 89.22 126.36C89.73 126.18 90.21 125.92 90.76 125.74C90.57 125.95 90.37 126.15 90.17 126.35C90.07 126.45 89.96 126.55 89.86 126.64C89.76 126.74 89.65 126.83 89.53 126.91C89.06 127.22 88.59 127.58 88.05 127.79C87 128.3 85.81 128.53 84.64 128.52C83.46 128.52 82.29 128.25 81.24 127.78C80.19 127.29 79.23 126.63 78.51 125.75L78.5 125.74Z" fill="#232323"/>
<path d="M71.65 102.98C69.87 105.22 68.58 107.52 68.86 107.98C69.31 108.71 73.31 111.07 75.94 112.5L77.72 110.15C77.82 110.02 77.98 109.96 78.14 109.99C78.3 110.02 78.42 110.14 78.46 110.3L79.15 113.06C82.44 113.68 84.54 113.5 85.22 113.41L85.96 110.82C86 110.67 86.13 110.55 86.29 110.52C86.45 110.49 86.61 110.56 86.7 110.68L88.63 113.32C92.85 113.51 96.18 112.7 97.03 112.47L97.66 110.42C97.7 110.28 97.82 110.17 97.97 110.14C98.12 110.11 98.27 110.16 98.37 110.27L99.81 111.85C100.48 111.45 101.18 110.99 101.44 110.77C101.18 110.04 99.72 107.17 98.31 104.53C88.03 109.4 73.94 103.92 71.66 102.98H71.65Z" fill="#353535"/>
<path d="M72.15 104.98C72.31 104.98 75.22 106.52 84.09 107.49C92.96 108.46 97.89 106.47 97.89 106.47C97.89 106.47 100.5 111.43 100.62 111.36C100.98 111.13 101.27 110.92 101.42 110.79C101.16 110.06 99.7 107.19 98.29 104.55C88.01 109.42 73.92 103.94 71.64 103C69.86 105.24 68.57 107.54 68.85 108C68.93 108.14 69.14 108.33 69.44 108.57C69.44 108.57 71.98 105 72.14 105L72.15 104.98Z" fill="#565656"/>
<path d="M83.55 114.95C82.36 114.95 80.69 114.84 78.6 114.42C78.21 114.34 77.9 114.05 77.81 113.67L77.57 112.72L76.86 113.66C76.56 114.06 76 114.18 75.56 113.94C73.43 112.79 68.39 109.98 67.63 108.73C66.91 107.56 67.96 105.24 70.73 101.83C71.02 101.47 71.51 101.35 71.93 101.54C72.09 101.61 87.64 108.29 98.02 103.07C98.51 102.82 99.12 103.01 99.38 103.5C103.09 110.46 103 110.73 102.84 111.2C102.74 111.51 102.61 111.89 100.23 113.27C99.81 113.51 99.29 113.43 98.96 113.07L98.49 112.56L98.32 113.12C98.22 113.44 97.97 113.69 97.65 113.79C97.49 113.84 93.59 115.03 88.34 114.75C88.03 114.73 87.75 114.58 87.57 114.33L86.76 113.22L86.52 114.05C86.42 114.41 86.12 114.69 85.75 114.77C85.69 114.78 84.94 114.93 83.55 114.93V114.95ZM79.63 112.54C82.15 112.98 83.89 112.93 84.74 112.86L85.36 110.66C85.47 110.28 85.78 110 86.16 109.93C86.54 109.86 86.93 110.02 87.16 110.33L88.92 112.74C92.51 112.87 95.4 112.26 96.53 111.98L97.06 110.25C97.17 109.9 97.46 109.64 97.81 109.56C98.17 109.48 98.54 109.6 98.79 109.87L99.9 111.08C100.2 110.89 100.47 110.72 100.68 110.57C100.24 109.59 99.14 107.42 98.02 105.31C88.09 109.63 75.07 104.99 71.83 103.7C70.55 105.37 69.51 107.11 69.43 107.73C70.04 108.38 72.98 110.18 75.76 111.71L77.22 109.77C77.46 109.46 77.85 109.31 78.24 109.38C78.63 109.46 78.93 109.75 79.03 110.13L79.63 112.51V112.54Z" fill="#232323"/>
</svg>
