<svg width="140" height="145" viewBox="0 0 140 145" fill="none" xmlns="http://www.w3.org/2000/svg">
<g id="Group">
<g id="Group_2">
<g id="Group_3">
<path id="Vector" d="M136.77 70.88L134.96 66.14C134.96 66.14 135.01 66.79 134.99 67.91C134.9 72.71 133.51 86.18 121.17 94.52C121.47 91.66 121.71 88.86 121.88 86.11C122.64 74.26 122.2 63.49 120.3 54.08C119.69 51.06 118.93 48.19 118 45.46L124.59 41.41C128.11 42.41 131.11 44.95 133.36 48.28C137.67 54.63 139.29 63.88 136.77 70.88Z" fill="#FF0086"/>
</g>
<g id="Group_4" opacity="0.3">
<path id="Vector_2" d="M134.99 67.9C134.9 72.7 133.51 86.17 121.17 94.51C121.47 91.65 121.71 88.85 121.88 86.1L124.47 85.1C124.47 85.1 133.42 81.05 134.71 67.18L134.99 67.9Z" fill="#371A45"/>
</g>
<g id="Group_5" opacity="0.3">
<path id="Vector_3" d="M133.36 48.27C125.15 44.44 127.39 55.73 127.39 55.73L120.3 54.07C119.69 51.05 118.93 48.18 118 45.45L124.59 41.4C128.11 42.4 131.1 44.94 133.36 48.27Z" fill="#371A45"/>
</g>
<g id="Group_6">
<path id="Vector_4" d="M120.34 42.86L41.7199 40.16L41.7399 40.23L42.0299 41.54L48.8699 54.17C48.8699 54.17 33.3599 76.54 33.5399 77.97C33.7199 79.41 25.1898 99.04 25.1898 99.04L12.4099 96.2L10.0499 86.62C10.0499 86.62 6.4899 81.7 8.4999 72.5C8.5599 72.23 8.61984 71.95 8.68984 71.67C11.1098 61.93 4.63996 54.96 5.05996 46.78C5.48996 38.6 12.3898 32.27 22.6999 33.63C28.1999 14.86 46.2299 7.15998 82.6499 15.71C82.6499 15.71 81.7999 3.66001 96.5899 1.92001C105.64 0.860005 114.78 3.71999 121.59 9.77999C123.95 11.88 125.98 14.25 127.62 16.74C134.47 27.14 134.22 39.62 120.34 42.86Z" fill="#FF0086"/>
</g>
<g id="Group_7" opacity="0.3">
<path id="Vector_5" d="M120.34 42.86L41.7198 40.16L41.7399 40.23C41.1799 40.05 40.8699 39.94 40.8699 39.94L34.7699 36.85L27.9099 33.75C29.4099 34.36 36.3398 36.43 48.2198 29.2C61.7198 20.99 78.7999 29.08 86.9099 31.85C95.0199 34.61 111.37 41.29 119.62 37.74C127.87 34.19 130.04 26.65 127.88 18.11C127.75 17.61 127.66 17.14 127.6 16.71C134.47 27.14 134.22 39.62 120.34 42.86Z" fill="#371A45"/>
</g>
<g id="Group_8" opacity="0.3">
<path id="Vector_6" d="M33.5501 77.97C33.7301 79.41 25.2 99.04 25.2 99.04L12.4201 96.2L10.0601 86.62C10.0601 86.62 6.50007 81.7 8.51007 72.5C9.71007 76.59 13.1601 86.58 18.1601 86.81C24.4501 87.1 33.99 64.91 30.71 55.74H33.5501L31.3801 51.72L38.71 53.7C38.71 53.7 38.1 49.58 32.98 45.46C32.98 45.46 43.2 45.46 39.49 41.41C38.38 40.19 37.36 39.3 36.47 38.64L42.0401 41.56L46.21 60.09C46.21 60.07 33.3701 76.53 33.5501 77.97Z" fill="#371A45"/>
</g>
<g id="Group_9" opacity="0.6">
<path id="Vector_7" d="M131.7 26.38C130.16 21.39 126.77 16.29 122.2 12.22C116.49 7.12999 109.13 4.3 101.57 4.16C98.5699 6.73 94.9299 8.08 89.8399 6.6C82.7399 10.61 83.2699 18.15 83.2699 18.15C46.8599 9.59999 28.8199 17.3 23.3199 36.07C13.0099 34.72 6.10996 41.05 5.67996 49.22C5.59996 50.74 5.75997 52.22 6.05997 53.68C5.40997 51.41 4.94985 49.14 5.06985 46.77C5.49985 38.59 12.3999 32.26 22.7099 33.62C28.2099 14.85 46.2399 7.15 82.6599 15.7C82.6599 15.7 81.8099 3.65 96.5999 1.91C105.65 0.849996 114.79 3.70998 121.6 9.76998C126.91 14.51 130.63 20.64 131.7 26.38Z" fill="white"/>
</g>
<g id="Group_10" opacity="0.6">
<path id="Vector_8" d="M10.6499 89.07L12.4099 96.2L10.6499 89.07Z" fill="white"/>
</g>
<g id="Group_11" opacity="0.6">
<path id="Vector_9" d="M6.0498 53.68C6.8998 56.65 8.08976 59.61 8.74976 62.78C7.85976 59.67 6.6598 56.71 6.0498 53.68Z" fill="white"/>
</g>
<g id="Group_12" opacity="0.6">
<path id="Vector_10" d="M10.6498 89.06C10.5498 88.92 9.33979 87.15 8.77979 83.87C9.37979 85.68 10.0498 86.61 10.0498 86.61L10.6498 89.06Z" fill="white"/>
</g>
<g id="Group_13">
<path id="Vector_11" d="M120.22 96.58C118.56 100.09 116.78 103.28 115.01 105.99C116.53 110.44 117.15 114.73 117 118.73C116.32 136.39 100.6 148.24 81.55 141.6C75 144.01 69.3 142.88 64.13 139.57C38.02 141.96 19.65 124.96 17.76 105.79C17.45 102.72 17.57 99.59 18.15 96.48L22.5999 96.34C22.5499 91.48 25.78 86.39 29.03 80.84C33.37 73.44 37.74 65.24 34.42 55.73L41.3 58.08C42.43 54.59 40.69 51.2 38.42 47.84C41.41 46.7 44.9599 47.27 44.9599 47.27C42.8299 41.72 38.6999 39.02 38.6999 39.02C66.4599 18.94 88.03 38.64 117.89 42.57C117.94 42.58 117.97 42.58 117.98 42.58C118.76 42.68 119.54 42.77 120.33 42.85C132.88 56.87 127.95 80.2 120.22 96.58Z" fill="#FFC38D"/>
</g>
<g id="Group_14" opacity="0.3">
<path id="Vector_12" d="M117.9 42.57C115.92 42.33 83.9598 38.41 70.2798 34.75C56.1598 30.98 45.6698 41.39 45.6698 41.39L49.7998 49.68H44.5298C44.5298 49.68 47.4497 57.45 43.2197 63.95L38.7097 59.78C38.7097 59.78 38.8398 72.74 29.0298 80.84C33.3698 73.44 37.7398 65.24 34.4198 55.73L41.2998 58.08C42.4298 54.59 40.6898 51.2 38.4198 47.84C41.4098 46.7 44.9597 47.27 44.9597 47.27C42.8297 41.72 38.6997 39.02 38.6997 39.02C66.4697 18.94 88.0298 38.64 117.9 42.57Z" fill="#371A45"/>
</g>
<g id="Group_15" opacity="0.3">
<path id="Vector_13" d="M116.05 109.58C121.41 131.97 103.73 149.33 81.5398 141.6C74.9898 144.01 69.2897 142.88 64.1197 139.57C38.0097 141.96 19.6397 124.96 17.7497 105.79C17.4397 102.72 17.5597 99.59 18.1397 96.48L19.6598 96.43C19.5898 97.96 19.6398 99.48 19.7898 100.99C21.6298 119.69 39.4598 136.27 64.8098 133.94C69.8398 137.16 77.4797 138.46 83.8397 136.11C103.76 143.08 117.81 128.96 116.05 109.58Z" fill="#371A45"/>
</g>
<g id="Group_16" opacity="0.3">
<path id="Vector_14" d="M112.52 102.81C120.19 90.99 129.88 68.25 125.68 51.71C132.19 68.82 123.06 93.41 114.72 106.52C114.43 105.14 113 104.23 112.52 102.81Z" fill="#371A45"/>
</g>
<g id="Group_17">
<path id="Vector_15" d="M49.28 83.99C55.84 81.77 62.4399 81.55 69.0999 83.86C69.9599 84.16 70.91 83.82 71.42 83.06C73.19 80.39 73.33 75.83 71.29 73.7L69.81 76.37C69.81 76.37 68.69 74.32 66.4 73.33L66.4499 75.17C60.0299 74.13 54.4499 73.96 50.3599 75.38C47.9699 76.2 46.27 78.43 46.29 80.96C46.3 82.05 46.5899 82.92 47.2099 83.56C47.7599 84.08 48.56 84.23 49.28 83.99Z" fill="#232323"/>
</g>
<g id="Group_18">
<path id="Vector_16" d="M94.5099 79.34C94.5099 79.34 94.7499 82.38 94.1099 85.64C93.9699 86.35 94.5399 87 95.2599 86.95C100.48 86.62 105.36 87.43 109.42 90.99C109.9 91.41 110.58 91.51 111.15 91.23C113.07 90.3 114.2 88.85 113.55 86.22C113.44 85.76 113.19 85.34 112.85 85C108.82 81.02 104.07 79.08 98.2399 80.24L97.0899 78.48L96.4499 80.8C96.4599 80.81 95.8999 79.8 94.5099 79.34Z" fill="#371A45"/>
</g>
<g id="Group_19">
<path id="Vector_17" d="M49.28 83.99C55.84 81.77 62.4399 81.55 69.0999 83.86C69.9599 84.16 70.91 83.82 71.42 83.06C73.19 80.39 73.33 75.83 71.29 73.7L69.81 76.37C69.81 76.37 68.69 74.32 66.4 73.33L66.4499 75.17C60.0299 74.13 54.4499 73.96 50.3599 75.38C47.9699 76.2 46.27 78.43 46.29 80.96C46.3 82.05 46.5899 82.92 47.2099 83.56C47.7599 84.08 48.56 84.23 49.28 83.99Z" fill="#232323"/>
</g>
<g id="Group_20">
<path id="Vector_18" d="M94.5099 79.34C94.5099 79.34 94.7499 82.38 94.1099 85.64C93.9699 86.35 94.5399 87 95.2599 86.95C100.48 86.62 105.36 87.43 109.42 90.99C109.9 91.41 110.58 91.51 111.15 91.23C113.07 90.3 114.2 88.85 113.55 86.22C113.44 85.76 113.19 85.34 112.85 85C108.82 81.02 104.07 79.08 98.2399 80.24L97.0899 78.48L96.4499 80.8C96.4599 80.81 95.8999 79.8 94.5099 79.34Z" fill="#232323"/>
</g>
<g id="Group_21">
<path id="Vector_19" d="M48.6099 84.95C47.8599 84.95 47.1399 84.66 46.6199 84.13C45.8599 83.35 45.4599 82.28 45.4499 80.94C45.4299 78.08 47.2899 75.52 50.0899 74.55C53.7699 73.28 58.8499 73.15 65.5699 74.15L65.55 73.34C65.54 73.05 65.68 72.77 65.92 72.61C66.16 72.45 66.4699 72.42 66.7399 72.53C68.0999 73.12 69.0899 74.03 69.7199 74.77L70.55 73.28C70.68 73.04 70.9199 72.88 71.1899 72.85C71.4599 72.82 71.73 72.91 71.92 73.11C74.33 75.64 74.0199 80.7 72.1399 83.53C71.4099 84.62 70.0499 85.09 68.8299 84.67C62.5599 82.5 56.25 82.54 49.56 84.8C49.24 84.9 48.9199 84.95 48.6099 84.95ZM57.5999 75.19C54.8299 75.19 52.5299 75.51 50.6499 76.16C48.5399 76.89 47.1399 78.8 47.1599 80.92C47.1699 81.81 47.3899 82.47 47.8399 82.93C48.1199 83.22 48.5799 83.31 49.0099 83.17C55.9799 80.82 62.8299 80.77 69.3799 83.04C69.8699 83.21 70.4199 83.02 70.7099 82.57C72.0699 80.52 72.2799 77.32 71.3599 75.31L70.56 76.75C70.41 77.02 70.12 77.19 69.81 77.19C69.5 77.19 69.21 77.02 69.06 76.75C69.05 76.74 68.46 75.68 67.29 74.81L67.3 75.12C67.31 75.37 67.1999 75.62 67.0099 75.79C66.8199 75.96 66.56 76.03 66.31 75.99C63.01 75.46 60.1199 75.19 57.5999 75.19Z" fill="#232323"/>
</g>
<g id="Group_22">
<path id="Vector_20" d="M110.48 92.25C109.9 92.25 109.32 92.04 108.86 91.64C105.46 88.65 101.15 87.43 95.31 87.81C94.7 87.85 94.1199 87.61 93.7099 87.15C93.3099 86.69 93.1499 86.08 93.2599 85.48C93.8699 82.39 93.65 79.44 93.65 79.41C93.63 79.13 93.7499 78.85 93.9699 78.67C94.1899 78.49 94.4899 78.44 94.7599 78.53C95.2599 78.69 95.6799 78.92 96.0099 79.15L96.2499 78.26C96.3399 77.94 96.6099 77.69 96.9399 77.64C97.2699 77.59 97.6 77.74 97.79 78.02L98.6299 79.31C104.17 78.38 109.02 80.05 113.43 84.41C113.89 84.86 114.21 85.42 114.36 86.03C115.03 88.76 114.07 90.77 111.51 92.02C111.2 92.17 110.84 92.25 110.48 92.25ZM97.3 86.03C102.58 86.03 106.65 87.43 109.99 90.35C110.21 90.54 110.53 90.59 110.79 90.47C112.63 89.58 113.21 88.37 112.73 86.43C112.66 86.13 112.49 85.85 112.26 85.62C108.13 81.54 103.6 80.06 98.42 81.09C98.08 81.16 97.73 81.01 97.54 80.72L97.43 80.55L97.29 81.04C97.2 81.37 96.9099 81.62 96.5699 81.66C96.2299 81.7 95.8899 81.53 95.7199 81.23C95.7099 81.22 95.62 81.06 95.42 80.86C95.42 82.09 95.3299 83.91 94.9599 85.81C94.9399 85.91 94.9799 85.98 95.0099 86.02C95.0399 86.05 95.1099 86.11 95.2099 86.1C95.9299 86.06 96.62 86.03 97.3 86.03Z" fill="#232323"/>
</g>
<g id="Group_23">
<path id="Vector_21" d="M85.2297 111.14C85.8697 110.4 86.4197 109.68 86.7497 108.91C87.0897 108.15 87.2298 107.38 87.1698 106.65C87.0998 105.92 86.8497 105.21 86.3697 104.62C85.8997 104.03 85.2497 103.56 84.4997 103.23L84.8397 103.29H84.7497C84.6597 103.29 84.5697 103.26 84.4897 103.23C83.9697 103.01 83.4097 102.86 82.8297 102.75C82.2397 102.66 81.6297 102.63 81.0097 102.63C80.3897 102.65 79.7597 102.7 79.1197 102.79C78.4797 102.88 77.8497 103.01 77.1997 103.14C77.0797 103.16 76.9697 103.09 76.9397 102.97C76.9197 102.88 76.9598 102.79 77.0398 102.74C77.6098 102.38 78.2197 102.07 78.8597 101.81C79.4997 101.55 80.1597 101.34 80.8497 101.2C81.5397 101.06 82.2597 100.99 82.9797 101.01C83.7097 101.03 84.4498 101.14 85.1698 101.38L84.8297 101.32C84.9197 101.32 85.0097 101.33 85.0997 101.36L85.1698 101.38C86.2198 101.73 87.2397 102.36 87.9997 103.27C88.7597 104.17 89.2297 105.36 89.2297 106.56C89.2397 107.76 88.7897 108.91 88.0797 109.77C87.3697 110.63 86.4297 111.21 85.4397 111.5C85.3197 111.54 85.1998 111.47 85.1698 111.35C85.1498 111.28 85.1697 111.2 85.2097 111.14H85.2297Z" fill="#232323"/>
</g>
<g id="Group_24">
<path id="Vector_22" d="M117 118.73C117.15 114.73 116.53 110.44 115.01 105.99C116.78 103.28 118.56 100.09 120.22 96.59C131.27 92.85 127.33 117.5 117 118.73Z" fill="#FFC38D"/>
</g>
<g id="Group_25" opacity="0.3">
<path id="Vector_23" d="M117 118.73C117.05 117.35 117.01 115.93 116.88 114.48C122.51 112.09 125.69 102.61 124.62 96.9C129.73 100.59 125.57 117.7 117 118.73Z" fill="#371A45"/>
</g>
<g id="Group_26">
<path id="Vector_24" d="M37.98 93.16C38.25 93.01 38.51 92.96 38.77 92.92C39.03 92.89 39.28 92.89 39.53 92.92C39.78 92.95 40.02 93.01 40.27 93.1C40.51 93.2 40.75 93.32 40.98 93.53C40.71 93.68 40.4499 93.73 40.1899 93.77C39.9299 93.8 39.6801 93.8 39.4301 93.77C39.1801 93.74 38.9399 93.68 38.6899 93.59C38.4399 93.48 38.2 93.36 37.98 93.16Z" fill="#371A45"/>
</g>
<g id="Group_27">
<path id="Vector_25" d="M37.1799 95.24C37.4399 95.09 37.6799 95.03 37.9199 94.99C38.1599 94.95 38.3999 94.95 38.6399 94.98C38.8799 95.01 39.1098 95.06 39.3398 95.15C39.5698 95.24 39.7899 95.36 40.0099 95.56C39.7499 95.71 39.5099 95.77 39.2699 95.81C39.0299 95.85 38.7899 95.85 38.5499 95.82C38.3099 95.79 38.0799 95.74 37.8499 95.65C37.6199 95.56 37.3899 95.44 37.1799 95.24Z" fill="#371A45"/>
</g>
<g id="Group_28">
<path id="Vector_26" d="M107.21 99.45C107.35 99.28 107.49 99.2 107.63 99.14C107.77 99.08 107.9 99.06 108.04 99.07C108.17 99.08 108.31 99.11 108.44 99.18C108.57 99.25 108.7 99.35 108.83 99.54C108.69 99.71 108.55 99.79 108.41 99.85C108.27 99.91 108.14 99.93 108 99.92C107.87 99.91 107.73 99.88 107.6 99.81C107.46 99.73 107.33 99.64 107.21 99.45Z" fill="#371A45"/>
</g>
<g id="Group_29">
<path id="Vector_27" d="M17.7599 105.8C15.4599 108.13 8.43989 110.09 4.63989 105.02C0.589895 99.61 0.619846 88.67 8.08985 86.81C15.5598 84.95 18.1499 96.48 18.1499 96.48C17.5699 99.6 17.4499 102.72 17.7599 105.8Z" fill="#FFC38D"/>
</g>
<g id="Group_30" opacity="0.3">
<path id="Vector_28" d="M17.7599 105.8C15.4599 108.13 8.43989 110.09 4.63989 105.02C2.80989 102.57 1.80983 98.98 1.95983 95.62C2.37983 97.65 3.18993 99.56 4.30993 101.05C8.10993 106.12 15.1299 104.16 17.4299 101.83C17.1899 99.38 17.2099 96.9 17.5299 94.41C17.9699 95.62 18.1599 96.48 18.1599 96.48C17.5699 99.6 17.4499 102.72 17.7599 105.8Z" fill="#371A45"/>
</g>
<g id="Group_31" opacity="0.6">
<path id="Vector_29" d="M17.7499 95.08C16.3499 91.85 13.5699 87.7 8.86985 88.87C3.01985 90.32 1.72987 97.3401 3.38987 102.92C0.689871 97.1801 1.49982 88.45 8.08982 86.81C13.9198 85.36 16.7799 92.06 17.7499 95.08Z" fill="white"/>
</g>
<g id="Group_32">
<path id="Vector_30" d="M106.69 101.34C106.87 101.2 107.03 101.14 107.18 101.1C107.33 101.07 107.48 101.07 107.62 101.1C107.76 101.13 107.9 101.19 108.02 101.28C108.15 101.38 108.27 101.49 108.37 101.7C108.19 101.85 108.03 101.9 107.88 101.94C107.73 101.97 107.58 101.97 107.44 101.94C107.3 101.91 107.16 101.85 107.04 101.76C106.92 101.66 106.8 101.54 106.69 101.34Z" fill="#371A45"/>
</g>
<g id="Group_33">
<path id="Vector_31" d="M92.0499 144.52C88.6499 144.52 85.11 143.93 81.56 142.73C75.39 144.89 69.5999 144.22 63.8699 140.67C36.7099 142.98 18.5698 124.86 16.6998 105.9C16.3798 102.69 16.5199 99.45 17.1099 96.29C17.1999 95.8 17.6199 95.44 18.1299 95.42L21.5798 95.31C21.9198 90.84 24.5999 86.29 27.4199 81.49C32.0099 73.7 36.7599 65.64 33.4199 56.08C33.2899 55.69 33.3799 55.27 33.6699 54.98C33.9599 54.69 34.3899 54.59 34.7699 54.72L40.5299 56.69C40.8999 53.91 39.3299 51.09 37.5399 48.44C37.3599 48.17 37.3099 47.83 37.4099 47.52C37.5099 47.21 37.7399 46.96 38.0499 46.84C39.8799 46.14 41.8699 46.03 43.2699 46.06C41.2099 41.98 38.1599 39.93 38.1299 39.9C37.8399 39.71 37.6599 39.38 37.6499 39.03C37.6399 38.68 37.8099 38.35 38.0899 38.14C57.7899 23.89 74.7599 29.33 92.7299 35.09C101.45 37.89 110.47 40.78 120.46 41.78C120.73 41.81 120.97 41.93 121.15 42.13C128.11 49.91 130.55 61.34 128.21 75.2C126.45 85.6 121.97 97.12 116.2 106.12C120.12 118.04 117.95 129.63 110.33 137.21C105.5 142.02 99.0599 144.52 92.0499 144.52ZM81.5499 140.54C81.6699 140.54 81.7899 140.56 81.8999 140.6C92.1099 144.16 102.17 142.33 108.81 135.72C115.94 128.63 117.88 117.64 114 106.34C113.89 106.03 113.94 105.69 114.12 105.41C123.96 90.32 134.13 60.38 119.82 43.88C109.77 42.82 100.78 39.93 92.0698 37.14C74.2498 31.43 58.8099 26.48 40.4899 39.07C41.9599 40.35 44.4298 42.93 45.9498 46.89C46.0898 47.25 46.0199 47.65 45.7799 47.95C45.5399 48.25 45.1599 48.39 44.7799 48.33C44.7499 48.33 42.4199 47.97 40.0899 48.46C42.0399 51.56 43.4399 54.89 42.3099 58.41C42.2199 58.68 42.0299 58.91 41.7699 59.04C41.5099 59.17 41.2198 59.19 40.9498 59.1L36.0199 57.42C38.3999 67.04 33.5499 75.27 29.2399 82.58C26.3499 87.49 23.6199 92.12 23.6599 96.34C23.6699 96.92 23.2099 97.4 22.6299 97.42L19.0499 97.53C18.6199 100.23 18.5398 102.97 18.8198 105.7C20.5998 123.71 37.9899 140.91 64.0299 138.52C64.2599 138.5 64.4998 138.56 64.6998 138.68C70.0398 142.09 75.4299 142.72 81.1799 140.6C81.2999 140.56 81.4199 140.54 81.5499 140.54Z" fill="#232323"/>
</g>
<g id="Group_34">
<path id="Vector_32" d="M11.1998 109.27C10.9498 109.27 10.7098 109.26 10.4598 109.24C7.70982 109.05 5.4099 107.81 3.7899 105.65C0.979901 101.91 0.0798762 96 1.63988 91.61C2.73988 88.52 4.87982 86.5 7.82982 85.77C9.78982 85.28 11.6399 85.56 13.2999 86.58C17.5599 89.21 19.1198 95.96 19.1898 96.24C19.2198 96.38 19.2198 96.53 19.1998 96.67C18.6498 99.64 18.5198 102.67 18.8198 105.68C18.8498 106 18.7399 106.31 18.5199 106.54C17.1799 107.9 14.3698 109.27 11.1998 109.27ZM9.67992 87.67C9.24992 87.67 8.80983 87.73 8.33983 87.84C5.52983 88.54 4.22988 90.66 3.63988 92.32C2.31988 96.03 3.10984 101.21 5.47984 104.37C6.72984 106.04 8.44983 106.96 10.5898 107.11C12.9898 107.27 15.3799 106.38 16.6399 105.36C16.3899 102.4 16.5299 99.43 17.0499 96.51C16.7699 95.43 15.3099 90.33 12.1699 88.39C11.3899 87.91 10.5699 87.67 9.67992 87.67Z" fill="#232323"/>
</g>
<g id="Group_35">
<path id="Vector_33" d="M6.88988 94.6001C7.46988 93.8401 8.43992 93.4701 9.42992 93.4801C10.4199 93.4801 11.3698 93.9101 12.0798 94.4801L12.3599 94.69C12.4499 94.76 12.5198 94.85 12.5998 94.93C12.7598 95.09 12.9099 95.2601 13.0599 95.4201C13.3199 95.7701 13.5699 96.1301 13.7799 96.5101C13.9599 96.9001 14.1499 97.28 14.2699 97.69C14.3799 98.1 14.4699 98.52 14.5099 98.94C14.5199 99.07 14.4299 99.18 14.2999 99.19C14.2399 99.2 14.1799 99.1801 14.1399 99.1401L14.1299 99.13C13.7799 98.87 13.4898 98.5901 13.2198 98.3201C12.9398 98.0501 12.6499 97.8 12.3999 97.53C12.1299 97.27 11.8599 97.0401 11.6099 96.7901C11.3299 96.5901 11.0898 96.33 10.8198 96.16C10.2898 95.77 9.76981 95.4701 9.18981 95.2601C8.60981 95.0601 7.93988 94.9401 7.13988 94.9501H7.08983C6.96983 94.9501 6.85985 94.8501 6.85985 94.7301C6.83985 94.6801 6.85988 94.6301 6.88988 94.6001Z" fill="#232323"/>
</g>
<g id="Group_36">
<path id="Vector_34" d="M10.0499 87.68C9.71994 87.68 9.39983 87.53 9.18983 87.24C9.01983 87.01 5.15992 81.51 7.65992 71.4C8.96992 66.11 7.48994 61.59 6.04994 57.22C4.94994 53.87 3.80989 50.4 3.99989 46.71C4.21989 42.43 6.08989 38.62 9.24989 35.99C12.5399 33.25 17.0198 32.01 21.9398 32.45C24.9898 22.9 31.3099 16.49 40.7499 13.39C50.6799 10.13 64.4299 10.46 81.6299 14.36C81.9299 10.93 83.9499 2.30998 96.4699 0.839981C105.86 -0.260019 115.27 2.69998 122.3 8.95998C130.38 16.15 134.53 25.99 132.63 33.46C131.69 37.16 128.84 41.97 120.59 43.9C120.02 44.03 119.44 43.68 119.31 43.1C119.18 42.53 119.53 41.95 120.11 41.82C125.82 40.49 129.43 37.41 130.57 32.94C132.25 26.34 128.27 17.13 120.89 10.56C114.31 4.69998 105.51 1.93999 96.7199 2.96999C83.1599 4.55999 83.6899 15.18 83.7199 15.63C83.7399 15.97 83.5999 16.3 83.3399 16.51C83.0799 16.73 82.7399 16.81 82.4099 16.74C48.6299 8.80998 29.4299 14.43 23.7299 33.92C23.5799 34.42 23.0898 34.74 22.5698 34.68C17.8998 34.07 13.6599 35.12 10.6299 37.64C7.92989 39.89 6.3299 43.15 6.1399 46.83C5.9699 50.12 6.99985 53.25 8.07985 56.56C9.60985 61.22 11.1899 66.04 9.72987 71.92C7.47987 81 10.8799 85.95 10.9199 86C11.2599 86.48 11.1499 87.14 10.6699 87.49C10.4799 87.62 10.2599 87.68 10.0499 87.68Z" fill="#232323"/>
</g>
<g id="Group_37">
<path id="Vector_35" d="M38.6999 40.09C38.4999 40.09 38.2999 40.03 38.1199 39.92C30.8999 35.22 22.7199 34.69 22.6399 34.69C22.0499 34.66 21.5999 34.15 21.6399 33.56C21.6699 32.97 22.1799 32.52 22.7699 32.56C23.1299 32.58 31.6099 33.13 39.2899 38.13C39.7799 38.45 39.9199 39.11 39.5999 39.61C39.3899 39.92 39.0499 40.09 38.6999 40.09Z" fill="#371A45"/>
</g>
<g id="Group_38">
<path id="Vector_36" d="M27.5797 46.06C23.7897 45.59 19.9198 45.83 16.2998 46.85C12.6898 47.86 9.30971 49.68 6.71971 52.25C6.29971 52.67 5.6297 52.66 5.2097 52.25C4.7897 51.83 4.7997 51.16 5.2097 50.74C5.2297 50.72 5.24976 50.7 5.26976 50.69C8.36976 48.04 12.1397 46.4 15.9997 45.62C19.8697 44.83 23.8498 44.89 27.6498 45.65C27.7698 45.67 27.8397 45.79 27.8197 45.9C27.7897 46 27.6797 46.07 27.5797 46.06Z" fill="#371A45"/>
</g>
<g id="Group_39">
<path id="Vector_37" d="M28.5699 62.39C24.7199 64.88 21.06 67.66 17.74 70.78C14.42 73.9 11.43 77.35 8.88999 81.08C8.55999 81.57 7.89001 81.69 7.41001 81.36C6.92001 81.03 6.79998 80.36 7.12998 79.88C7.13998 79.86 7.16002 79.84 7.17002 79.83C10.04 76.13 13.32 72.78 16.9 69.83C20.48 66.87 24.3399 64.29 28.3499 62.03C28.4499 61.97 28.58 62.01 28.64 62.11C28.7 62.2 28.6699 62.33 28.5699 62.39Z" fill="#371A45"/>
</g>
<g id="Group_40">
<path id="Vector_38" d="M33.3597 36.22C34.6797 33.77 36.4598 31.65 38.4298 29.7C40.4098 27.76 42.6697 26.12 45.0797 24.73C49.8697 21.87 55.5097 20.57 60.9697 20.04C66.4597 19.5 72.0498 19.58 77.5398 20.53C83.0298 21.47 88.3697 23.39 93.2097 26.14C93.8097 26.49 94.4197 26.82 95.0097 27.2L96.7397 28.29C97.8597 28.99 99.0197 29.64 100.2 30.23C102.57 31.4 105.06 32.35 107.6 32.83C108.87 33.07 110.15 33.19 111.4 33.13C112.65 33.07 113.86 32.81 114.93 32.29C117.12 31.31 118.55 29.16 119.26 26.74C119.63 25.53 119.73 24.35 119.57 23.18C119.43 22.01 118.97 20.87 118.27 19.86C116.87 17.83 114.6 16.35 112.14 15.56C109.69 14.78 106.93 14.63 104.54 15.61C104.24 15.72 103.97 15.9 103.68 16.03C103.41 16.19 103.15 16.38 102.88 16.56C102.65 16.78 102.39 16.98 102.17 17.21C101.97 17.46 101.73 17.68 101.56 17.96C100.81 19.02 100.37 20.3 100.17 21.62C100.15 21.74 100.04 21.82 99.9298 21.8C99.8198 21.78 99.7397 21.68 99.7497 21.57C99.8597 20.19 100.23 18.79 100.98 17.57C101.15 17.26 101.4 16.99 101.6 16.7C101.83 16.42 102.1 16.18 102.35 15.92C102.63 15.7 102.91 15.47 103.21 15.26C103.52 15.08 103.82 14.87 104.15 14.73C105.45 14.1 106.88 13.79 108.3 13.72C109.73 13.65 111.16 13.82 112.54 14.18C113.92 14.54 115.26 15.09 116.5 15.84C117.74 16.59 118.88 17.55 119.8 18.73C120.72 19.91 121.4 21.33 121.67 22.85C121.95 24.37 121.71 25.96 121.29 27.35C120.88 28.74 120.27 30.13 119.36 31.35C118.92 31.97 118.37 32.52 117.79 33.02C117.19 33.5 116.55 33.94 115.85 34.26C114.47 34.93 112.96 35.25 111.5 35.33C110.03 35.41 108.58 35.28 107.17 35.02C104.35 34.49 101.7 33.49 99.1798 32.27C97.9198 31.65 96.6997 30.98 95.5097 30.24L93.7798 29.16C93.2198 28.8 92.6298 28.48 92.0598 28.15C89.7398 26.84 87.3198 25.73 84.8098 24.84C82.3098 23.95 79.7297 23.26 77.1097 22.77C71.8597 21.79 66.4697 21.7 61.1097 22.08L59.0997 22.27L58.0997 22.37L57.1197 22.52L55.1497 22.82C54.4997 22.94 53.8597 23.12 53.2097 23.27L52.2397 23.5C51.9197 23.58 51.6098 23.7 51.2898 23.8L49.3897 24.42L47.5398 25.17L47.0797 25.36L46.6297 25.58L45.7397 26.03C43.3597 27.23 41.1297 28.74 39.0897 30.48C37.0597 32.22 35.1897 34.21 33.7097 36.45L33.6997 36.46C33.6297 36.56 33.4997 36.58 33.3997 36.52C33.3397 36.43 33.3097 36.31 33.3597 36.22Z" fill="#371A45"/>
</g>
<g id="Group_41">
<path id="Vector_39" d="M29.94 30.77C30.5 29.05 31.48 27.52 32.62 26.14C33.77 24.77 35.1 23.52 36.6 22.52C36.96 22.25 37.36 22.04 37.74 21.8C38.13 21.57 38.5101 21.34 38.9201 21.15L40.14 20.5799C40.55 20.4099 40.9801 20.2599 41.4001 20.1099C42.2301 19.7799 43.12 19.62 43.98 19.4C44.2 19.35 44.42 19.31 44.64 19.29C44.86 19.26 45.0801 19.23 45.3001 19.21C45.7401 19.16 46.18 19.1099 46.62 19.0799C46.71 19.0699 46.8001 19.15 46.8001 19.24C46.8001 19.31 46.76 19.38 46.7 19.41L46.69 19.42C45.88 19.78 45.06 20.04 44.27 20.38L43.09 20.89C42.69 21.04 42.3101 21.23 41.9301 21.42C41.5501 21.61 41.1701 21.79 40.7901 21.98L39.69 22.6C39.32 22.79 38.96 23.02 38.61 23.25C38.26 23.48 37.8801 23.68 37.5501 23.93C36.1501 24.86 34.86 25.94 33.63 27.1C32.41 28.27 31.26 29.53 30.23 30.92L30.22 30.93C30.16 31.01 30.06 31.02 29.98 30.97C29.94 30.92 29.92 30.84 29.94 30.77Z" fill="#371A45"/>
</g>
<g id="Group_42">
<path id="Vector_40" d="M121.16 95.58C120.82 95.58 120.48 95.42 120.28 95.11C119.95 94.62 120.08 93.96 120.57 93.63C135.11 83.8 133.91 66.39 133.9 66.22C133.86 65.69 134.21 65.21 134.73 65.1C135.25 64.98 135.77 65.26 135.96 65.76L136.59 67.4C137.45 62.33 136.51 56.35 133.94 51.34C131.56 46.69 128.13 43.52 124.3 42.43C123.73 42.27 123.41 41.68 123.57 41.11C123.73 40.54 124.32 40.22 124.89 40.38C129.29 41.64 133.18 45.19 135.84 50.37C139.27 57.06 140.01 65.06 137.78 71.25C137.63 71.67 137.23 71.95 136.79 71.96H136.78C136.36 71.96 135.98 71.71 135.81 71.33C135.06 77.68 132.19 88.37 121.77 95.41C121.58 95.52 121.37 95.58 121.16 95.58Z" fill="#232323"/>
</g>
<g id="Group_43">
<path id="Vector_41" d="M117 119.79C116.47 119.79 116.01 119.39 115.94 118.85C115.87 118.26 116.29 117.73 116.87 117.66C120.61 117.21 123.34 113.07 124.64 109.35C126.26 104.72 126.13 99.86 124.34 98.05C123.48 97.18 122.21 97.0299 120.56 97.5799C120 97.7699 119.4 97.47 119.21 96.91C119.02 96.35 119.32 95.75 119.88 95.56C122.98 94.52 124.84 95.52 125.86 96.55C128.66 99.38 128.24 105.53 126.66 110.05C124.7 115.66 121.14 119.3 117.13 119.78C117.08 119.79 117.04 119.79 117 119.79Z" fill="#232323"/>
</g>
<g id="Group_44">
<path id="Vector_42" d="M123.33 102.24C122.73 102.54 122.26 102.87 121.84 103.23C121.42 103.59 121.06 103.99 120.73 104.42C120.4 104.85 120.13 105.34 119.83 105.84C119.69 106.1 119.56 106.36 119.39 106.63C119.25 106.9 119.11 107.18 118.91 107.46C118.83 107.13 118.81 106.81 118.78 106.48C118.79 106.15 118.82 105.82 118.88 105.5C119.03 104.86 119.28 104.21 119.71 103.66C120.13 103.11 120.69 102.64 121.33 102.38C121.97 102.1 122.69 102.01 123.33 102.24Z" fill="#232323"/>
</g>
<g id="Group_45">
<path id="Vector_43" d="M33.0898 36.86C33.1998 36.88 34.4898 37.16 36.4698 38.63L33.0898 36.86Z" fill="#371A45"/>
</g>
<g id="Group_46">
<path id="Vector_44" d="M27.6499 33.64L27.7799 33.7C27.7299 33.67 27.6799 33.65 27.6499 33.64Z" fill="#371A45"/>
</g>
<g id="Group_47" opacity="0.3">
<path id="Vector_45" d="M85.4099 111.29C82.8999 111.38 80.8298 110.32 80.8298 110.32C86.7998 108.61 84.8398 102.32 84.8398 102.32C88.8898 103.83 89.5599 108.68 85.4099 111.29Z" fill="#371A45"/>
</g>
<g id="Group_48">
<g id="Group_49">
<g id="Group_50">
<path id="Vector_46" d="M104.502 102.009C106.155 96.9308 104.659 91.8912 101.161 90.7528C97.6639 89.6144 93.4886 92.8083 91.8357 97.8867C90.1827 102.965 91.6782 108.005 95.1758 109.143C98.6734 110.282 102.849 107.088 104.502 102.009Z" fill="#0F6817"/>
</g>
</g>
</g>
<g id="Group_51">
<g id="Group_52">
<g id="Group_53">
<path id="Vector_47" d="M100.45 92.88C99.1998 93.09 98.3098 94.75 98.4598 96.57C98.5998 98.39 99.7299 99.7 100.98 99.48C102.23 99.27 103.12 97.61 102.97 95.79C102.82 93.96 101.69 92.66 100.45 92.88Z" fill="white"/>
</g>
</g>
</g>
<g id="Group_54">
<g id="Group_55">
<g id="Group_56">
<path id="Vector_48" d="M94.07 103.14C93.44 103.42 93.1501 104.37 93.4301 105.28C93.7001 106.19 94.44 106.7 95.07 106.42C95.7 106.14 95.99 105.19 95.71 104.28C95.43 103.37 94.7 102.86 94.07 103.14Z" fill="#B098C4"/>
</g>
</g>
</g>
<g id="Group_57">
<g id="Group_58">
<g id="Group_59">
<path id="Vector_49" d="M66.4698 85.28C62.5598 84.14 58.0798 87.82 56.4598 93.51C54.8398 99.19 56.6998 104.73 60.6098 105.87C64.5198 107.01 68.9999 103.33 70.6199 97.64C72.2299 91.95 70.3798 86.42 66.4698 85.28Z" fill="#0F6817"/>
</g>
</g>
</g>
<g id="Group_60">
<g id="Group_61">
<g id="Group_62">
<path id="Vector_50" d="M65.7398 87.65C64.3698 87.95 63.4598 89.82 63.7098 91.82C63.9598 93.83 65.2598 95.22 66.6298 94.92C67.9998 94.62 68.9099 92.75 68.6599 90.75C68.4199 88.74 67.1098 87.35 65.7398 87.65Z" fill="white"/>
</g>
</g>
</g>
<g id="Group_63">
<g id="Group_64">
<g id="Group_65">
<path id="Vector_51" d="M59.18 99.3C58.5 99.63 58.2199 100.71 58.5699 101.7C58.9199 102.69 59.75 103.22 60.43 102.89C61.11 102.56 61.39 101.48 61.04 100.49C60.69 99.5 59.86 98.97 59.18 99.3Z" fill="#B098C4"/>
</g>
</g>
</g>
<g id="Group_66">
<g id="Group_67">
<path id="Vector_52" d="M88.9197 119.45C86.9997 123.3 85.7096 127.52 83.3296 130.05C82.4196 131.02 81.3497 131.75 80.0197 132.11C78.7597 132.45 77.4296 132.33 76.1996 131.89C71.6696 130.28 69.4596 126.37 68.7296 121.52C68.3996 119.32 68.3697 116.93 68.5597 114.48C73.0697 117.98 82.3397 121.51 88.9197 119.45Z" fill="#232323"/>
</g>
<g id="Group_68">
<path id="Vector_53" d="M83.3297 130.05C82.4197 131.02 81.3498 131.75 80.0198 132.11C78.7598 132.45 77.4297 132.33 76.1997 131.89C71.6697 130.28 69.4597 126.37 68.7297 121.52C74.1397 120.57 81.4697 124.09 83.3297 130.05Z" fill="#FA6469"/>
</g>
<g id="Group_69">
<path id="Vector_54" d="M77.9396 133.35C77.2496 133.3 76.5396 133.14 75.8396 132.9C71.2996 131.29 68.5497 127.51 67.6697 121.69C67.3397 119.52 67.2797 117.07 67.4897 114.41C67.5197 114.02 67.7597 113.68 68.1197 113.52C68.4797 113.36 68.8996 113.41 69.2096 113.65C73.2296 116.77 82.1796 120.46 88.5896 118.45C88.9996 118.32 89.4397 118.45 89.7197 118.78C89.9997 119.11 90.0497 119.57 89.8597 119.95C89.2897 121.09 88.7697 122.28 88.2697 123.43C87.0397 126.24 85.8797 128.9 84.0997 130.8C82.9897 132 81.7397 132.77 80.2897 133.16C79.5497 133.34 78.7496 133.41 77.9396 133.35ZM69.5197 116.45C69.4697 118.22 69.5597 119.87 69.7797 121.36C70.5297 126.35 72.8097 129.55 76.5497 130.88C77.6597 131.27 78.7597 131.34 79.7397 131.07C80.7897 130.79 81.7097 130.21 82.5497 129.32C84.0797 127.69 85.1696 125.19 86.3296 122.55C86.5596 122.03 86.7897 121.49 87.0297 120.96C80.9797 121.84 73.8997 119.24 69.5197 116.45Z" fill="#232323"/>
</g>
<g id="Group_70">
<path id="Vector_55" d="M91.6398 115.12L93.5098 116.95C93.7998 117.23 93.8098 117.7 93.5198 117.99L93.4898 118.02L93.2698 118.22C92.0998 119.27 90.6898 120.02 89.2298 120.47C88.6698 120.64 88.0698 120.33 87.8998 119.77C87.7298 119.21 88.0397 118.61 88.5997 118.44C89.8097 118.06 90.9297 117.46 91.8497 116.64L91.6098 117.91L91.2598 115.32C91.2398 115.2 91.3297 115.08 91.4497 115.07C91.5297 115.05 91.5998 115.07 91.6398 115.12Z" fill="#232323"/>
</g>
<g id="Group_71">
<path id="Vector_56" d="M69.2698 111.51C67.9598 111.76 67.0398 112.25 66.2398 112.96C65.8298 113.31 65.4797 113.74 65.0997 114.18C64.9197 114.41 64.7398 114.65 64.5398 114.89C64.3498 115.14 64.1698 115.39 63.9198 115.64C63.8898 115.3 63.9297 114.98 63.9597 114.64C64.0297 114.32 64.1098 114 64.2298 113.68C64.4998 113.07 64.8498 112.46 65.3998 112C65.9298 111.53 66.5998 111.2 67.2998 111.1C67.9898 111 68.7198 111.11 69.2698 111.51Z" fill="#232323"/>
</g>
</g>
<g id="Group_72">
<g id="Group_73">
<g id="Group_74">
<path id="Vector_57" d="M65.7998 110.07C63.8498 112.17 62.3798 114.36 62.6298 114.84C63.0198 115.61 66.8198 118.27 69.3298 119.9L71.2898 117.69C71.3998 117.57 71.5598 117.52 71.7198 117.57C71.8698 117.61 71.9898 117.74 72.0198 117.9L72.4898 120.71C75.7198 121.59 77.8298 121.57 78.5098 121.54L79.4497 119.02C79.5097 118.87 79.6398 118.77 79.7998 118.75C79.9598 118.73 80.1097 118.81 80.1997 118.95L81.9198 121.74C86.1098 122.26 89.4998 121.71 90.3598 121.55L91.1498 119.56C91.2098 119.42 91.3298 119.32 91.4798 119.3C91.6298 119.28 91.7798 119.34 91.8698 119.46L93.1798 121.15C93.8798 120.8 94.6198 120.4 94.8898 120.2C94.6898 119.46 93.4498 116.48 92.2598 113.73C81.6198 117.75 67.9998 111.19 65.7998 110.07Z" fill="#353535"/>
</g>
</g>
<g id="Group_75">
<g id="Group_76">
<path id="Vector_58" d="M66.1498 112.1C66.3098 112.11 69.0898 113.87 77.8598 115.53C86.6298 117.19 91.6997 115.59 91.6997 115.59C91.6997 115.59 93.9098 120.74 94.0398 120.67C94.4098 120.47 94.7298 120.28 94.8798 120.16C94.6798 119.42 93.4398 116.44 92.2498 113.69C81.6198 117.74 67.9998 111.18 65.7998 110.05C63.8498 112.15 62.3798 114.34 62.6298 114.82C62.6998 114.96 62.8998 115.17 63.1798 115.43C63.1798 115.45 65.9898 112.09 66.1498 112.1Z" fill="#565656"/>
</g>
</g>
<g id="Group_77">
<g id="Group_78">
<path id="Vector_59" d="M76.7297 122.93C75.5397 122.84 73.8897 122.59 71.8397 122.02C71.4597 121.91 71.1697 121.6 71.1097 121.21L70.9497 120.25L70.1698 121.13C69.8398 121.51 69.2797 121.58 68.8497 121.31C66.8197 120 62.0097 116.8 61.3497 115.5C60.7297 114.28 61.9497 112.05 64.9797 108.86C65.2997 108.53 65.7997 108.45 66.1997 108.66C66.3497 108.74 81.3297 116.62 92.0897 112.23C92.5997 112.02 93.1898 112.26 93.4098 112.77C96.5598 120 96.4597 120.26 96.2597 120.72C96.1297 121.02 95.9797 121.39 93.4897 122.58C93.0597 122.79 92.5397 122.66 92.2397 122.29L91.8098 121.74L91.5897 122.28C91.4697 122.59 91.1897 122.82 90.8697 122.9C90.6997 122.94 86.7197 123.82 81.5197 123.13C81.2197 123.09 80.9498 122.91 80.7798 122.65L80.0598 121.48L79.7597 122.29C79.6297 122.65 79.3098 122.9 78.9298 122.95C78.8798 122.95 78.1097 123.04 76.7297 122.93ZM73.0097 120.22C75.4897 120.86 77.2297 120.95 78.0797 120.94L78.8697 118.8C79.0097 118.43 79.3397 118.18 79.7297 118.14C80.1197 118.1 80.4897 118.29 80.6997 118.62L82.2697 121.16C85.8397 121.57 88.7698 121.19 89.9098 121L90.5797 119.32C90.7197 118.98 91.0197 118.74 91.3797 118.69C91.7397 118.64 92.0997 118.79 92.3297 119.07L93.3397 120.37C93.6497 120.21 93.9398 120.05 94.1598 119.92C93.7998 118.91 92.8698 116.66 91.9198 114.47C81.6898 118 69.0697 112.36 65.9397 110.82C64.5297 112.38 63.3597 114.03 63.2297 114.65C63.7897 115.34 66.5797 117.37 69.2297 119.11L70.8397 117.29C71.0997 117 71.5097 116.88 71.8897 116.99C72.2697 117.1 72.5497 117.41 72.6197 117.8L73.0097 120.22Z" fill="#232323"/>
</g>
</g>
</g>
</g>
</g>
</svg>
