<svg width="1920" height="1080" viewBox="0 0 1920 1080" fill="none" xmlns="http://www.w3.org/2000/svg">
<g clip-path="url(#clip0_1_688)">
<path d="M1920 0H0V1080H1920V0Z" fill="#13E2BA"/>
<path d="M1824.64 947.04H979.28C962.27 947.04 948.49 933.25 948.49 916.25V166.8H1855.44V916.25C1855.44 933.25 1841.65 947.04 1824.64 947.04Z" fill="#7636FF"/>
<mask id="mask0_1_688" style="mask-type:luminance" maskUnits="userSpaceOnUse" x="948" y="62" width="908" height="887">
<path d="M1822.55 948.52H981.37C963.21 948.52 948.48 933.8 948.48 915.63V95.67C948.48 77.51 963.2 62.78 981.37 62.78H1822.55C1840.71 62.78 1855.44 77.5 1855.44 95.67V915.64C1855.44 933.8 1840.71 948.52 1822.55 948.52Z" fill="white"/>
</mask>
<g mask="url(#mask0_1_688)">
<path d="M2039.31 -52.93H839.57V174.29H2039.31V-52.93Z" fill="white" stroke="#232323" stroke-width="6" stroke-miterlimit="10"/>
</g>
<path d="M1822.55 68.78C1837.37 68.78 1849.44 80.84 1849.44 95.67V915.64C1849.44 930.46 1837.38 942.53 1822.55 942.53H981.37C966.55 942.53 954.48 930.47 954.48 915.64V95.67C954.48 80.85 966.54 68.78 981.37 68.78H1822.55ZM1822.55 62.78H981.37C963.21 62.78 948.48 77.5 948.48 95.67V915.64C948.48 933.8 963.2 948.53 981.37 948.53H1822.55C1840.71 948.53 1855.44 933.81 1855.44 915.64V95.67C1855.44 77.5 1840.71 62.78 1822.55 62.78Z" fill="#232323"/>
<path d="M1780.5 102.52L1813.67 135.68" stroke="#232323" stroke-width="4.6724" stroke-miterlimit="10" stroke-linecap="round" stroke-linejoin="round"/>
<path d="M1813.67 102.52L1780.5 135.68" stroke="#232323" stroke-width="4.6724" stroke-miterlimit="10" stroke-linecap="round" stroke-linejoin="round"/>
<path d="M1760.85 102.63H1727.91V135.57H1760.85V102.63Z" fill="#7636FF" stroke="#232323" stroke-width="4.6724" stroke-miterlimit="10" stroke-linecap="round" stroke-linejoin="round"/>
<path d="M1677.95 119.1H1711.26" stroke="#232323" stroke-width="4.6724" stroke-miterlimit="10" stroke-linecap="round" stroke-linejoin="round"/>
<path d="M1004.79 104.182H1010.69C1011.78 104.182 1012.64 105.05 1012.64 106.092V122.325C1012.64 131.18 1008.43 135.086 1000.49 135.086C993.807 135.086 989.206 131.18 988.338 125.971C988.208 125.146 988.772 124.365 989.597 124.192L996.281 122.976C996.845 122.846 997.41 123.193 997.583 123.758C997.931 124.756 998.712 125.624 1000.19 125.624C1002.36 125.624 1002.88 124.018 1002.88 122.325V106.092C1002.88 105.05 1003.75 104.182 1004.79 104.182ZM1031.93 103.661C1041.04 103.661 1047.94 110.432 1047.94 119.374C1047.94 128.358 1041.04 135.13 1031.93 135.13C1022.81 135.13 1015.91 128.358 1015.91 119.374C1015.91 110.432 1022.81 103.661 1031.93 103.661ZM1031.93 125.624C1035.53 125.624 1038.18 123.063 1038.18 119.374C1038.18 115.728 1035.53 113.123 1031.93 113.123C1028.32 113.123 1025.67 115.728 1025.67 119.374C1025.67 123.063 1028.32 125.624 1031.93 125.624ZM1065.35 118.896C1065.35 117.854 1066.22 116.986 1067.26 116.986H1079.11C1080.2 116.986 1081.06 117.854 1081.06 118.896V133.003C1081.06 133.871 1080.37 134.565 1079.5 134.565H1077.9C1077.2 134.565 1076.59 134.088 1076.42 133.393L1075.85 131.31C1073.6 133.654 1070.34 135.086 1066.13 135.086C1057.02 135.086 1050.12 128.315 1050.12 119.374C1050.12 110.389 1057.02 103.617 1066.13 103.617C1070.99 103.617 1075.25 105.571 1078.11 108.739C1078.76 109.434 1078.59 110.562 1077.81 111.04L1072.21 114.773C1071.6 115.163 1070.86 115.076 1070.34 114.599C1069.21 113.644 1067.78 113.123 1066.13 113.123C1062.53 113.123 1059.84 115.728 1059.84 119.374C1059.84 123.237 1062.53 126.015 1066.13 126.015C1068.74 126.015 1070.65 125.146 1071.64 123.237H1067.26C1066.22 123.237 1065.35 122.412 1065.35 121.327V118.896ZM1099.92 103.661C1109.03 103.661 1115.93 110.432 1115.93 119.374C1115.93 128.358 1109.03 135.13 1099.92 135.13C1090.8 135.13 1083.9 128.358 1083.9 119.374C1083.9 110.432 1090.8 103.661 1099.92 103.661ZM1099.92 125.624C1103.52 125.624 1106.17 123.063 1106.17 119.374C1106.17 115.728 1103.52 113.123 1099.92 113.123C1096.31 113.123 1093.67 115.728 1093.67 119.374C1093.67 123.063 1096.31 125.624 1099.92 125.624ZM1143 104.182C1153.11 104.182 1159.58 110.128 1159.58 119.374C1159.58 128.575 1153.11 134.565 1143 134.565H1132.8C1131.76 134.565 1130.89 133.697 1130.89 132.612V106.092C1130.89 105.05 1131.76 104.182 1132.8 104.182H1143ZM1143 125.624C1147.47 125.624 1149.81 123.02 1149.81 119.374C1149.81 115.728 1147.47 113.123 1143 113.123H1140.66V125.624H1143ZM1182.59 134.565C1181.72 134.565 1180.98 134.001 1180.72 133.133L1179.81 129.878H1171.22L1170.3 133.133C1170.09 134.001 1169.31 134.565 1168.44 134.565H1161.58C1160.54 134.565 1159.76 133.524 1160.1 132.525L1169.04 105.744C1169.39 104.833 1170.26 104.182 1171.26 104.182H1179.77C1180.76 104.182 1181.68 104.833 1181.98 105.744L1190.92 132.525C1191.27 133.524 1190.53 134.565 1189.49 134.565H1182.59ZM1173.08 123.106H1177.94L1175.51 114.295L1173.08 123.106ZM1206.95 115.554C1214.37 117.594 1217.28 119.764 1217.28 124.886C1217.28 130.312 1213.33 135.086 1205.04 135.086C1199.87 135.086 1194.45 133.437 1192.54 128.619C1192.19 127.751 1192.62 126.839 1193.49 126.535L1198.79 124.929C1199.44 124.712 1200.13 124.973 1200.52 125.537C1201.22 126.535 1202.82 127.23 1204.56 127.23C1206.25 127.23 1207.55 126.535 1207.55 125.407C1207.55 123.888 1205.69 123.801 1202.61 123.063C1197.05 121.717 1193.01 119.764 1193.01 113.514C1193.01 107.567 1198.22 103.617 1204.95 103.617C1209.68 103.617 1214.02 105.744 1215.67 109.911C1216.02 110.823 1215.54 111.778 1214.63 111.995L1209.33 113.297C1208.77 113.427 1208.12 113.253 1207.77 112.733C1207.21 111.995 1206.25 111.517 1204.99 111.517C1203.26 111.517 1202.34 112.255 1202.34 113.297C1202.34 114.729 1204.6 114.903 1206.95 115.554ZM1244.5 104.182C1252.87 104.182 1257.3 108.392 1257.3 115.424C1257.3 122.976 1252.13 126.318 1244.5 126.318H1241.37V132.612C1241.37 133.697 1240.5 134.565 1239.46 134.565H1233.56C1232.47 134.565 1231.6 133.697 1231.6 132.612V106.092C1231.6 105.05 1232.47 104.182 1233.56 104.182H1244.5ZM1244.5 118.158C1246.49 118.158 1247.45 117.03 1247.45 115.424C1247.45 113.861 1246.49 112.733 1244.5 112.733H1241.37V118.158H1244.5ZM1278.3 134.565C1277.43 134.565 1276.69 134.001 1276.43 133.133L1275.52 129.878H1266.93L1266.02 133.133C1265.8 134.001 1265.02 134.565 1264.15 134.565H1257.29C1256.25 134.565 1255.47 133.524 1255.82 132.525L1264.76 105.744C1265.1 104.833 1265.97 104.182 1266.97 104.182H1275.48C1276.48 104.182 1277.39 104.833 1277.69 105.744L1286.63 132.525C1286.98 133.524 1286.24 134.565 1285.2 134.565H1278.3ZM1268.79 123.106H1273.65L1271.22 114.295L1268.79 123.106ZM1299.27 125.624H1308.69C1309.78 125.624 1310.6 126.492 1310.6 127.534V132.612C1310.6 133.697 1309.78 134.565 1308.69 134.565H1291.46C1290.42 134.565 1289.55 133.697 1289.55 132.612V106.092C1289.55 105.05 1290.42 104.182 1291.46 104.182H1297.36C1298.45 104.182 1299.27 105.05 1299.27 106.092V125.624ZM1334.63 134.565C1333.76 134.565 1333.03 134.001 1332.77 133.133L1331.86 129.878H1323.26L1322.35 133.133C1322.13 134.001 1321.35 134.565 1320.48 134.565H1313.62C1312.58 134.565 1311.8 133.524 1312.15 132.525L1321.09 105.744C1321.44 104.833 1322.31 104.182 1323.3 104.182H1331.81C1332.81 104.182 1333.72 104.833 1334.03 105.744L1342.97 132.525C1343.31 133.524 1342.58 134.565 1341.53 134.565H1334.63ZM1325.13 123.106H1329.99L1327.56 114.295L1325.13 123.106ZM1362.4 105.614C1362.61 104.746 1363.39 104.182 1364.26 104.182H1371.12C1372.21 104.182 1372.94 105.223 1372.6 106.222L1363.65 132.959C1363.35 133.914 1362.44 134.565 1361.44 134.565H1352.93C1351.94 134.565 1351.02 133.914 1350.72 132.959L1341.78 106.222C1341.43 105.223 1342.17 104.182 1343.25 104.182H1350.11C1350.98 104.182 1351.76 104.746 1351.98 105.614L1357.19 124.452L1362.4 105.614ZM1393.87 134.565C1393.14 134.565 1392.44 134.131 1392.14 133.48L1387.93 125.146H1385.19V132.612C1385.19 133.697 1384.32 134.565 1383.28 134.565H1377.38C1376.29 134.565 1375.43 133.697 1375.43 132.612V106.092C1375.43 105.05 1376.29 104.182 1377.38 104.182H1388.27C1396.7 104.182 1401.12 108.045 1401.12 115.076C1401.12 118.94 1399.56 121.587 1396.83 123.237L1402.29 132.829C1402.73 133.611 1402.16 134.565 1401.3 134.565H1393.87ZM1385.19 112.733V117.377H1388.27C1390.31 117.377 1391.27 116.639 1391.27 115.076C1391.27 113.47 1390.31 112.733 1388.27 112.733H1385.19ZM1426.45 134.565C1425.58 134.565 1424.84 134.001 1424.58 133.133L1423.67 129.878H1415.07L1414.16 133.133C1413.94 134.001 1413.16 134.565 1412.3 134.565H1405.44C1404.4 134.565 1403.61 133.524 1403.96 132.525L1412.9 105.744C1413.25 104.833 1414.12 104.182 1415.12 104.182H1423.62C1424.62 104.182 1425.53 104.833 1425.84 105.744L1434.78 132.525C1435.13 133.524 1434.39 134.565 1433.35 134.565H1426.45ZM1416.94 123.106H1421.8L1419.37 114.295L1416.94 123.106ZM1450.8 115.554C1458.23 117.594 1461.13 119.764 1461.13 124.886C1461.13 130.312 1457.18 135.086 1448.89 135.086C1443.73 135.086 1438.3 133.437 1436.39 128.619C1436.05 127.751 1436.48 126.839 1437.35 126.535L1442.64 124.929C1443.29 124.712 1443.99 124.973 1444.38 125.537C1445.07 126.535 1446.68 127.23 1448.42 127.23C1450.11 127.23 1451.41 126.535 1451.41 125.407C1451.41 123.888 1449.55 123.801 1446.46 123.063C1440.91 121.717 1436.87 119.764 1436.87 113.514C1436.87 107.567 1442.08 103.617 1448.81 103.617C1453.54 103.617 1457.88 105.744 1459.53 109.911C1459.88 110.823 1459.4 111.778 1458.49 111.995L1453.19 113.297C1452.63 113.427 1451.98 113.253 1451.63 112.733C1451.06 111.995 1450.11 111.517 1448.85 111.517C1447.11 111.517 1446.2 112.255 1446.2 113.297C1446.2 114.729 1448.46 114.903 1450.8 115.554ZM1467.54 125.798C1470.14 125.798 1472.23 127.881 1472.23 130.442C1472.23 133.046 1470.14 135.13 1467.54 135.13C1464.98 135.13 1462.89 133.046 1462.89 130.442C1462.89 127.881 1464.98 125.798 1467.54 125.798ZM1485.48 126.405H1495.21C1496.29 126.405 1497.16 127.273 1497.16 128.315V132.612C1497.16 133.697 1496.29 134.565 1495.21 134.565H1477.67C1476.58 134.565 1475.72 133.697 1475.72 132.612V106.092C1475.72 105.05 1476.58 104.182 1477.67 104.182H1494.81C1495.86 104.182 1496.72 105.05 1496.72 106.092V110.432C1496.72 111.474 1495.86 112.342 1494.81 112.342H1485.48V115.728H1493.43C1494.51 115.728 1495.38 116.596 1495.38 117.637V120.806C1495.38 121.891 1494.51 122.759 1493.43 122.759H1485.48V126.405ZM1528.2 132.786C1528.68 133.567 1528.12 134.565 1527.21 134.565H1519.91C1519.09 134.565 1518.31 134.131 1517.87 133.437L1513.84 126.492L1509.76 133.437C1509.37 134.131 1508.58 134.565 1507.76 134.565H1500.47C1499.56 134.565 1498.99 133.567 1499.47 132.786L1507.85 119.026L1499.86 105.961C1499.38 105.18 1499.95 104.182 1500.86 104.182H1508.15C1508.98 104.182 1509.71 104.616 1510.15 105.31L1513.84 111.604L1517.53 105.31C1517.92 104.616 1518.7 104.182 1519.52 104.182H1526.82C1527.73 104.182 1528.29 105.18 1527.81 105.961L1519.83 118.983L1528.2 132.786ZM1541.22 126.405H1550.95C1552.03 126.405 1552.9 127.273 1552.9 128.315V132.612C1552.9 133.697 1552.03 134.565 1550.95 134.565H1533.41C1532.32 134.565 1531.46 133.697 1531.46 132.612V106.092C1531.46 105.05 1532.32 104.182 1533.41 104.182H1550.55C1551.6 104.182 1552.46 105.05 1552.46 106.092V110.432C1552.46 111.474 1551.6 112.342 1550.55 112.342H1541.22V115.728H1549.17C1550.25 115.728 1551.12 116.596 1551.12 117.637V120.806C1551.12 121.891 1550.25 122.759 1549.17 122.759H1541.22V126.405Z" fill="#232323"/>
<path fill-rule="evenodd" clip-rule="evenodd" d="M1605.13 140.823L1600.23 145.723C1598.82 147.133 1596.41 146.593 1595.74 144.713L1582.16 106.643C1581.39 104.483 1583.48 102.393 1585.64 103.163L1623.71 116.743C1625.59 117.413 1626.13 119.823 1624.72 121.233L1619.82 126.133C1618.76 127.193 1618.76 128.923 1619.82 129.983L1628.12 138.283C1629.18 139.343 1629.18 141.073 1628.12 142.133L1621.14 149.113C1620.08 150.173 1618.35 150.173 1617.29 149.113L1608.99 140.813C1607.92 139.753 1606.2 139.753 1605.13 140.823Z" fill="#FFCB00" stroke="#232323" stroke-width="5.9026" stroke-miterlimit="10" stroke-linecap="round" stroke-linejoin="round"/>
<path fill-rule="evenodd" clip-rule="evenodd" d="M1268.27 891.35H1176.65C1173.06 891.35 1170.15 888.44 1170.15 884.85V839.43C1170.15 835.84 1173.06 832.93 1176.65 832.93H1268.27C1271.86 832.93 1274.77 835.84 1274.77 839.43V884.85C1274.77 888.44 1271.86 891.35 1268.27 891.35Z" fill="#232323" stroke="#232323" stroke-width="4.7616" stroke-miterlimit="10"/>
<path fill-rule="evenodd" clip-rule="evenodd" d="M1141.58 891.35H1013.05C1008.84 891.35 1005.43 887.94 1005.43 883.73V840.55C1005.43 836.34 1008.84 832.93 1013.05 832.93H1141.58C1145.79 832.93 1149.2 836.34 1149.2 840.55V883.73C1149.2 887.94 1145.79 891.35 1141.58 891.35Z" fill="#232323" stroke="#232323" stroke-width="4.7616" stroke-miterlimit="10"/>
<path d="M1205.7 851.326C1206.48 851.326 1207.12 851.971 1207.12 852.746V856.52C1207.12 857.327 1206.48 857.972 1205.7 857.972H1201.86V872.458C1201.86 873.264 1201.22 873.91 1200.41 873.91H1196.02C1195.25 873.91 1194.61 873.264 1194.61 872.458V857.972H1190.77C1189.96 857.972 1189.31 857.327 1189.31 856.52V852.746C1189.31 851.971 1189.96 851.326 1190.77 851.326H1205.7ZM1216.7 867.844H1223.93C1224.73 867.844 1225.38 868.49 1225.38 869.264V872.458C1225.38 873.264 1224.73 873.91 1223.93 873.91H1210.89C1210.08 873.91 1209.44 873.264 1209.44 872.458V852.746C1209.44 851.971 1210.08 851.326 1210.89 851.326H1223.63C1224.41 851.326 1225.05 851.971 1225.05 852.746V855.972C1225.05 856.746 1224.41 857.391 1223.63 857.391H1216.7V859.908H1222.6C1223.41 859.908 1224.05 860.553 1224.05 861.327V863.683C1224.05 864.489 1223.41 865.134 1222.6 865.134H1216.7V867.844ZM1246.23 852.197C1246.52 851.649 1247.1 851.326 1247.71 851.326H1253.1C1253.9 851.326 1254.52 851.971 1254.52 852.746V872.458C1254.52 873.264 1253.9 873.91 1253.1 873.91H1248.71C1247.94 873.91 1247.29 873.264 1247.29 872.458V862.037L1242.58 870.167C1242.39 870.522 1242 870.748 1241.58 870.748H1240.87C1240.48 870.748 1240.1 870.522 1239.9 870.167L1235.19 862.037V872.458C1235.19 873.264 1234.55 873.91 1233.74 873.91H1229.39C1228.58 873.91 1227.93 873.264 1227.93 872.458V852.746C1227.93 851.971 1228.58 851.326 1229.39 851.326H1234.77C1235.39 851.326 1235.97 851.649 1236.26 852.197L1241.23 860.94L1246.23 852.197Z" fill="#13E2BA"/>
<path d="M1032.76 851.326C1040.27 851.326 1045.08 855.746 1045.08 862.618C1045.08 869.458 1040.27 873.91 1032.76 873.91H1025.17C1024.4 873.91 1023.75 873.264 1023.75 872.458V852.746C1023.75 851.971 1024.4 851.326 1025.17 851.326H1032.76ZM1032.76 867.264C1036.08 867.264 1037.82 865.328 1037.82 862.618C1037.82 859.908 1036.08 857.972 1032.76 857.972H1031.01V867.264H1032.76ZM1047.54 852.746C1047.54 851.971 1048.19 851.326 1048.99 851.326H1053.35C1054.16 851.326 1054.8 851.971 1054.8 852.746V872.458C1054.8 873.264 1054.16 873.91 1053.35 873.91H1048.99C1048.19 873.91 1047.54 873.264 1047.54 872.458V852.746ZM1069.13 867.264C1070.36 867.264 1071.42 866.877 1072.23 866.167C1072.65 865.812 1073.2 865.747 1073.65 866.038L1077.81 868.78C1078.39 869.167 1078.52 870.006 1078.04 870.522C1075.87 872.877 1072.74 874.297 1069.13 874.297C1062.36 874.297 1057.23 869.264 1057.23 862.618C1057.23 855.94 1062.36 850.907 1069.13 850.907C1072.74 850.907 1075.87 852.359 1078.04 854.714C1078.52 855.23 1078.39 856.069 1077.81 856.424L1073.65 859.198C1073.2 859.489 1072.65 859.424 1072.23 859.069C1071.42 858.359 1070.36 857.972 1069.13 857.972C1066.42 857.972 1064.45 859.908 1064.45 862.618C1064.45 865.328 1066.42 867.264 1069.13 867.264ZM1096.43 873.91C1095.78 873.91 1095.23 873.49 1095.04 872.845L1094.36 870.425H1087.97L1087.3 872.845C1087.14 873.49 1086.55 873.91 1085.91 873.91H1080.81C1080.04 873.91 1079.46 873.135 1079.72 872.393L1086.36 852.488C1086.62 851.81 1087.26 851.326 1088.01 851.326H1094.33C1095.07 851.326 1095.75 851.81 1095.98 852.488L1102.62 872.393C1102.88 873.135 1102.33 873.91 1101.56 873.91H1096.43ZM1089.36 865.393H1092.98L1091.17 858.843L1089.36 865.393ZM1114.53 859.779C1120.05 861.295 1122.21 862.908 1122.21 866.715C1122.21 870.748 1119.27 874.297 1113.11 874.297C1109.27 874.297 1105.24 873.071 1103.82 869.49C1103.56 868.845 1103.89 868.167 1104.53 867.941L1108.47 866.748C1108.95 866.586 1109.47 866.78 1109.76 867.199C1110.27 867.941 1111.47 868.457 1112.76 868.457C1114.02 868.457 1114.98 867.941 1114.98 867.102C1114.98 865.973 1113.6 865.909 1111.31 865.36C1107.18 864.36 1104.18 862.908 1104.18 858.263C1104.18 853.843 1108.05 850.907 1113.05 850.907C1116.56 850.907 1119.79 852.488 1121.02 855.585C1121.28 856.262 1120.92 856.972 1120.24 857.133L1116.31 858.101C1115.89 858.198 1115.4 858.069 1115.15 857.682C1114.73 857.133 1114.02 856.779 1113.08 856.779C1111.79 856.779 1111.11 857.327 1111.11 858.101C1111.11 859.166 1112.79 859.295 1114.53 859.779ZM1127.29 867.393C1129.23 867.393 1130.78 868.941 1130.78 870.845C1130.78 872.781 1129.23 874.329 1127.29 874.329C1125.39 874.329 1123.84 872.781 1123.84 870.845C1123.84 868.941 1125.39 867.393 1127.29 867.393ZM1127.29 864.102C1125.39 864.102 1123.84 862.553 1123.84 860.618C1123.84 858.714 1125.39 857.166 1127.29 857.166C1129.23 857.166 1130.78 858.714 1130.78 860.618C1130.78 862.553 1129.23 864.102 1127.29 864.102Z" fill="white"/>
<path fill-rule="evenodd" clip-rule="evenodd" d="M1580.63 891.35H1307.11C1301.08 891.35 1296.18 886.46 1296.18 880.42V843.85C1296.18 837.82 1301.07 832.92 1307.11 832.92H1580.63C1586.66 832.92 1591.56 837.81 1591.56 843.85V880.42C1591.55 886.46 1586.66 891.35 1580.63 891.35Z" fill="#232323" stroke="#232323" stroke-width="4.7616" stroke-miterlimit="10"/>
<path d="M1322.98 867.264H1329.99C1330.79 867.264 1331.41 867.909 1331.41 868.683V872.458C1331.41 873.264 1330.79 873.91 1329.99 873.91H1317.18C1316.4 873.91 1315.76 873.264 1315.76 872.458V852.746C1315.76 851.971 1316.4 851.326 1317.18 851.326H1321.57C1322.37 851.326 1322.98 851.971 1322.98 852.746V867.264ZM1348.11 851.326H1352.5C1353.31 851.326 1353.95 851.971 1353.95 852.746V864.78C1353.95 871.49 1349.79 874.297 1343.63 874.297C1337.5 874.297 1333.34 871.49 1333.34 864.78V852.746C1333.34 851.971 1333.98 851.326 1334.79 851.326H1339.18C1339.95 851.326 1340.6 851.971 1340.6 852.746V864.005C1340.6 866.07 1341.69 867.264 1343.63 867.264C1345.6 867.264 1346.69 866.07 1346.69 864.005V852.746C1346.69 851.971 1347.34 851.326 1348.11 851.326ZM1367.67 862.263C1367.67 861.489 1368.32 860.844 1369.09 860.844H1377.9C1378.71 860.844 1379.35 861.489 1379.35 862.263V872.748C1379.35 873.394 1378.84 873.91 1378.19 873.91H1377C1376.48 873.91 1376.03 873.555 1375.9 873.039L1375.48 871.49C1373.8 873.232 1371.38 874.297 1368.25 874.297C1361.48 874.297 1356.35 869.264 1356.35 862.618C1356.35 855.94 1361.48 850.907 1368.25 850.907C1371.87 850.907 1375.03 852.359 1377.16 854.714C1377.64 855.23 1377.51 856.069 1376.93 856.424L1372.77 859.198C1372.32 859.489 1371.77 859.424 1371.38 859.069C1370.54 858.359 1369.48 857.972 1368.25 857.972C1365.58 857.972 1363.58 859.908 1363.58 862.618C1363.58 865.489 1365.58 867.554 1368.25 867.554C1370.19 867.554 1371.61 866.909 1372.35 865.489H1369.09C1368.32 865.489 1367.67 864.876 1367.67 864.07V862.263ZM1397.88 873.91C1397.24 873.91 1396.69 873.49 1396.49 872.845L1395.82 870.425H1389.43L1388.75 872.845C1388.59 873.49 1388.01 873.91 1387.36 873.91H1382.27C1381.49 873.91 1380.91 873.135 1381.17 872.393L1387.82 852.488C1388.07 851.81 1388.72 851.326 1389.46 851.326H1395.78C1396.53 851.326 1397.2 851.81 1397.43 852.488L1404.08 872.393C1404.33 873.135 1403.79 873.91 1403.01 873.91H1397.88ZM1390.82 865.393H1394.43L1392.62 858.843L1390.82 865.393ZM1419.92 873.91C1419.37 873.91 1418.86 873.587 1418.63 873.103L1415.5 866.909H1413.47V872.458C1413.47 873.264 1412.82 873.91 1412.05 873.91H1407.66C1406.86 873.91 1406.21 873.264 1406.21 872.458V852.746C1406.21 851.971 1406.86 851.326 1407.66 851.326H1415.76C1422.02 851.326 1425.31 854.198 1425.31 859.424C1425.31 862.295 1424.15 864.263 1422.12 865.489L1426.18 872.619C1426.5 873.2 1426.08 873.91 1425.44 873.91H1419.92ZM1413.47 857.682V861.134H1415.76C1417.28 861.134 1417.99 860.585 1417.99 859.424C1417.99 858.23 1417.28 857.682 1415.76 857.682H1413.47ZM1444.47 867.844H1451.7C1452.51 867.844 1453.15 868.49 1453.15 869.264V872.458C1453.15 873.264 1452.51 873.91 1451.7 873.91H1438.66C1437.86 873.91 1437.21 873.264 1437.21 872.458V852.746C1437.21 851.971 1437.86 851.326 1438.66 851.326H1451.41C1452.18 851.326 1452.83 851.971 1452.83 852.746V855.972C1452.83 856.746 1452.18 857.391 1451.41 857.391H1444.47V859.908H1450.38C1451.18 859.908 1451.83 860.553 1451.83 861.327V863.683C1451.83 864.489 1451.18 865.134 1450.38 865.134H1444.47V867.844ZM1469.42 873.91C1468.87 873.91 1468.35 873.587 1468.13 873.103L1465 866.909H1462.97V872.458C1462.97 873.264 1462.32 873.91 1461.55 873.91H1457.16C1456.35 873.91 1455.71 873.264 1455.71 872.458V852.746C1455.71 851.971 1456.35 851.326 1457.16 851.326H1465.26C1471.52 851.326 1474.81 854.198 1474.81 859.424C1474.81 862.295 1473.64 864.263 1471.61 865.489L1475.68 872.619C1476 873.2 1475.58 873.91 1474.94 873.91H1469.42ZM1462.97 857.682V861.134H1465.26C1466.77 861.134 1467.48 860.585 1467.48 859.424C1467.48 858.23 1466.77 857.682 1465.26 857.682H1462.97ZM1491.72 873.91C1491.18 873.91 1490.66 873.587 1490.43 873.103L1487.3 866.909H1485.27V872.458C1485.27 873.264 1484.63 873.91 1483.85 873.91H1479.47C1478.66 873.91 1478.01 873.264 1478.01 872.458V852.746C1478.01 851.971 1478.66 851.326 1479.47 851.326H1487.56C1493.82 851.326 1497.11 854.198 1497.11 859.424C1497.11 862.295 1495.95 864.263 1493.92 865.489L1497.98 872.619C1498.31 873.2 1497.89 873.91 1497.24 873.91H1491.72ZM1485.27 857.682V861.134H1487.56C1489.08 861.134 1489.79 860.585 1489.79 859.424C1489.79 858.23 1489.08 857.682 1487.56 857.682H1485.27ZM1515.93 873.91C1515.29 873.91 1514.74 873.49 1514.55 872.845L1513.87 870.425H1507.48L1506.8 872.845C1506.64 873.49 1506.06 873.91 1505.42 873.91H1500.32C1499.55 873.91 1498.96 873.135 1499.22 872.393L1505.87 852.488C1506.13 851.81 1506.77 851.326 1507.51 851.326H1513.84C1514.58 851.326 1515.26 851.81 1515.48 852.488L1522.13 872.393C1522.39 873.135 1521.84 873.91 1521.06 873.91H1515.93ZM1508.87 865.393H1512.48L1510.68 858.843L1508.87 865.393ZM1533.27 851.326C1540.78 851.326 1545.59 855.746 1545.59 862.618C1545.59 869.458 1540.78 873.91 1533.27 873.91H1525.68C1524.91 873.91 1524.26 873.264 1524.26 872.458V852.746C1524.26 851.971 1524.91 851.326 1525.68 851.326H1533.27ZM1533.27 867.264C1536.59 867.264 1538.33 865.328 1538.33 862.618C1538.33 859.908 1536.59 857.972 1533.27 857.972H1531.52V867.264H1533.27ZM1559.15 850.939C1565.92 850.939 1571.05 855.972 1571.05 862.618C1571.05 869.296 1565.92 874.329 1559.15 874.329C1552.37 874.329 1547.24 869.296 1547.24 862.618C1547.24 855.972 1552.37 850.939 1559.15 850.939ZM1559.15 867.264C1561.83 867.264 1563.8 865.36 1563.8 862.618C1563.8 859.908 1561.83 857.972 1559.15 857.972C1556.47 857.972 1554.5 859.908 1554.5 862.618C1554.5 865.36 1556.47 867.264 1559.15 867.264Z" fill="#FFCB00"/>
<path fill-rule="evenodd" clip-rule="evenodd" d="M1789.37 891.35H1620.82C1616.03 891.35 1612.15 887.47 1612.15 882.68V841.6C1612.15 836.81 1616.03 832.93 1620.82 832.93H1789.37C1794.16 832.93 1798.04 836.81 1798.04 841.6V882.69C1798.04 887.47 1794.15 891.35 1789.37 891.35Z" fill="#232323" stroke="#232323" stroke-width="4.7616" stroke-miterlimit="10"/>
<path d="M1645.34 852.746C1645.34 851.971 1645.95 851.326 1646.76 851.326H1651.15C1651.95 851.326 1652.6 851.971 1652.6 852.746V872.458C1652.6 873.264 1651.95 873.91 1651.15 873.91H1646.99C1646.4 873.91 1645.86 873.587 1645.53 873.103L1638.95 862.489V872.458C1638.95 873.264 1638.31 873.91 1637.5 873.91H1633.11C1632.31 873.91 1631.69 873.264 1631.69 872.458V852.746C1631.69 851.971 1632.31 851.326 1633.11 851.326H1637.27C1637.86 851.326 1638.4 851.617 1638.73 852.133L1645.34 862.747V852.746ZM1671.44 873.91C1670.8 873.91 1670.25 873.49 1670.05 872.845L1669.38 870.425H1662.99L1662.31 872.845C1662.15 873.49 1661.57 873.91 1660.92 873.91H1655.83C1655.05 873.91 1654.47 873.135 1654.73 872.393L1661.38 852.488C1661.63 851.81 1662.28 851.326 1663.02 851.326H1669.34C1670.09 851.326 1670.76 851.81 1670.99 852.488L1677.64 872.393C1677.89 873.135 1677.35 873.91 1676.57 873.91H1671.44ZM1664.38 865.393H1667.99L1666.18 858.843L1664.38 865.393ZM1668.8 844.358L1671.28 844.777C1671.76 844.874 1672.05 845.325 1671.99 845.777C1671.6 848.261 1670.57 849.455 1668.86 849.455C1667.18 849.455 1665.99 848.455 1665.22 848.455C1664.83 848.455 1664.6 848.648 1664.47 848.874C1664.31 849.197 1663.96 849.39 1663.57 849.326L1661.09 848.874C1660.63 848.81 1660.31 848.358 1660.41 847.874C1660.73 845.842 1661.63 844.229 1663.86 844.229C1665.38 844.229 1666.18 845.196 1667.18 845.196C1667.57 845.196 1667.8 845.035 1667.93 844.809C1668.09 844.487 1668.44 844.293 1668.8 844.358ZM1689.89 850.939C1696.67 850.939 1701.8 855.972 1701.8 862.618C1701.8 869.296 1696.67 874.329 1689.89 874.329C1683.12 874.329 1677.99 869.296 1677.99 862.618C1677.99 855.972 1683.12 850.939 1689.89 850.939ZM1689.89 867.264C1692.57 867.264 1694.54 865.36 1694.54 862.618C1694.54 859.908 1692.57 857.972 1689.89 857.972C1687.22 857.972 1685.25 859.908 1685.25 862.618C1685.25 865.36 1687.22 867.264 1689.89 867.264ZM1728.27 851.326C1729.05 851.326 1729.69 851.971 1729.69 852.746V856.52C1729.69 857.327 1729.05 857.972 1728.27 857.972H1724.43V872.458C1724.43 873.264 1723.79 873.91 1722.98 873.91H1718.59C1717.82 873.91 1717.17 873.264 1717.17 872.458V857.972H1713.34C1712.53 857.972 1711.88 857.327 1711.88 856.52V852.746C1711.88 851.971 1712.53 851.326 1713.34 851.326H1728.27ZM1739.27 867.844H1746.49C1747.3 867.844 1747.95 868.49 1747.95 869.264V872.458C1747.95 873.264 1747.3 873.91 1746.49 873.91H1733.46C1732.65 873.91 1732.01 873.264 1732.01 872.458V852.746C1732.01 851.971 1732.65 851.326 1733.46 851.326H1746.2C1746.98 851.326 1747.62 851.971 1747.62 852.746V855.972C1747.62 856.746 1746.98 857.391 1746.2 857.391H1739.27V859.908H1745.17C1745.98 859.908 1746.62 860.553 1746.62 861.327V863.683C1746.62 864.489 1745.98 865.134 1745.17 865.134H1739.27V867.844ZM1768.8 852.197C1769.09 851.649 1769.67 851.326 1770.28 851.326H1775.67C1776.47 851.326 1777.09 851.971 1777.09 852.746V872.458C1777.09 873.264 1776.47 873.91 1775.67 873.91H1771.28C1770.51 873.91 1769.86 873.264 1769.86 872.458V862.037L1765.15 870.167C1764.96 870.522 1764.57 870.748 1764.15 870.748H1763.44C1763.05 870.748 1762.67 870.522 1762.47 870.167L1757.76 862.037V872.458C1757.76 873.264 1757.12 873.91 1756.31 873.91H1751.95C1751.15 873.91 1750.5 873.264 1750.5 872.458V852.746C1750.5 851.971 1751.15 851.326 1751.95 851.326H1757.34C1757.96 851.326 1758.54 851.649 1758.83 852.197L1763.79 860.94L1768.8 852.197Z" fill="#FF0086"/>
</g>
<defs>
<clipPath id="clip0_1_688">
<rect width="1920" height="1080" fill="white"/>
</clipPath>
</defs>
</svg>
