<svg width="86" height="87" viewBox="0 0 86 87" fill="none" xmlns="http://www.w3.org/2000/svg">
<path d="M84.8247 43.3973C84.8047 43.7973 85.2147 43.6473 85.2947 43.7073C85.1747 43.0373 84.7147 43.4073 84.8247 43.3973Z" fill="#404040"/>
<path d="M83.3047 37.0073L83.4847 37.0873L82.9347 36.2273L83.3047 37.0073Z" fill="#404040"/>
<path d="M81.9747 31.1473C81.4447 31.8973 82.6347 33.2173 82.6547 34.3273L82.5447 34.5373L83.2247 34.8873C82.8047 33.6273 82.0247 32.0973 81.9747 31.1573V31.1473Z" fill="#404040"/>
<path d="M82.3047 27.5573C82.1147 27.8573 81.8347 26.9773 82.4947 28.3173C82.4947 28.2373 82.5047 28.2073 82.5147 28.1573C82.4647 28.0373 82.4047 27.8573 82.3147 27.5573H82.3047Z" fill="#404040"/>
<path d="M82.5147 28.1673C82.5847 27.6773 82.7647 28.7773 82.5147 28.1673V28.1673Z" fill="#404040"/>
<path d="M81.1847 25.4373L81.7847 26.1173C81.8547 25.8873 81.5547 25.1773 81.7847 25.3873C81.2747 24.6373 81.2047 24.8773 81.1847 25.4473V25.4373Z" fill="#404040"/>
<path d="M80.3647 24.9373L80.6547 25.2873C80.6847 25.1873 80.6547 25.0673 80.3647 24.9373Z" fill="#404040"/>
<path d="M81.2547 26.0373L80.6447 25.2873C80.5947 25.4473 80.3947 25.5573 80.9047 25.6373C80.6847 25.6573 80.9447 25.7373 81.2547 26.0373Z" fill="#404040"/>
<path d="M81.3947 26.5673C81.4747 27.0573 81.5847 27.6773 81.0347 26.9773C81.6947 28.4473 82.1147 28.0373 81.3947 26.5673Z" fill="#404040"/>
<path d="M81.1647 31.0873C81.1647 31.2973 81.1747 31.5173 81.1547 31.7373L81.5147 32.1873C81.4247 32.0773 81.3947 31.7773 81.3647 31.5173C81.3247 31.2573 81.2547 31.0473 81.1647 31.0973V31.0873Z" fill="#404040"/>
<path d="M78.9447 20.5373C78.7847 20.5673 78.7547 20.9973 78.6247 21.1573L79.1047 21.6073C79.0247 21.2773 78.7847 20.6973 78.9547 20.5373H78.9447Z" fill="#404040"/>
<path d="M78.6147 21.1573L77.9047 20.4873C78.3147 21.2173 78.5047 21.2873 78.6147 21.1573Z" fill="#404040"/>
<path d="M79.5847 25.1473L80.7447 26.2873L79.4547 24.8873L79.5847 25.1473Z" fill="#404040"/>
<path d="M76.8847 17.5073L77.4947 17.7373L76.4847 17.2773L76.8847 17.5073Z" fill="#404040"/>
<path d="M75.3447 15.6173C75.8347 15.7273 75.3447 14.8873 75.7747 15.0873C75.2847 14.6273 74.7147 14.3673 74.2047 14.1373C74.6647 14.4473 75.0247 14.9073 75.3447 15.6073V15.6173Z" fill="#404040"/>
<path d="M73.3947 13.7473C73.6247 13.8973 73.9047 14.0173 74.2047 14.1573C73.9647 13.9873 73.7047 13.8473 73.3947 13.7473Z" fill="#404040"/>
<path d="M77.0747 19.1073C77.1047 18.9973 77.2147 18.7473 76.9847 18.2573L76.8647 18.8073C76.9347 18.8973 77.0047 19.0073 77.0847 19.1073H77.0747Z" fill="#404040"/>
<path d="M76.8547 18.8273V18.8073C76.6247 18.4773 76.4647 18.2473 76.3947 18.1473C76.4547 18.2273 76.5947 18.4373 76.8547 18.8173V18.8273Z" fill="#404040"/>
<path d="M77.1347 19.1873L77.0847 19.1073C77.0747 19.1573 77.0747 19.1873 77.1347 19.1873Z" fill="#404040"/>
<path d="M78.8047 22.8173C78.3147 22.4673 77.5147 21.6373 77.7647 22.7473C78.2147 22.9273 78.0747 22.2873 78.8047 22.8173Z" fill="#404040"/>
<path d="M76.9647 19.8573C77.1347 20.1373 77.2647 20.4473 77.4147 20.7473C77.4947 20.6673 77.5447 20.4273 77.7847 20.5973C77.5147 20.3473 77.2647 20.0873 76.9647 19.8573Z" fill="#404040"/>
<path d="M76.5647 19.5473L76.9647 19.8573L76.7747 19.5473H76.5647Z" fill="#404040"/>
<path d="M74.2647 15.2873C73.8347 15.0873 73.5047 14.7473 73.1247 14.3773C73.4447 14.8573 73.8147 15.3273 74.1847 15.7373C74.3347 15.7073 74.6847 15.7373 74.2647 15.2873Z" fill="#404040"/>
<path d="M75.5447 16.9973L75.4647 16.9373C75.4647 17.0073 75.4947 17.0573 75.5447 16.9973Z" fill="#404040"/>
<path d="M69.3247 10.7573L69.3347 10.8773L69.4047 10.8273L69.3247 10.7573Z" fill="#404040"/>
<path d="M74.1847 15.8673C74.4047 16.2373 74.6547 16.3573 74.9247 16.4573C74.6747 16.2473 74.4247 16.0173 74.1847 15.7473C74.1147 15.7573 74.0847 15.7773 74.1847 15.8673Z" fill="#404040"/>
<path d="M72.2247 12.8173C72.3347 13.0273 72.4647 13.2673 72.5847 13.5073C72.5447 13.2373 72.3647 12.7873 72.2247 12.8173Z" fill="#404040"/>
<path d="M75.4747 16.7473L75.5247 16.7873C75.5147 16.6173 75.4847 16.6573 75.4747 16.7473Z" fill="#404040"/>
<path d="M75.4747 16.7473C75.2947 16.6073 75.1047 16.5373 74.9247 16.4573C75.1047 16.6473 75.2847 16.8073 75.4647 16.9373C75.4647 16.8773 75.4647 16.8073 75.4647 16.7473H75.4747Z" fill="#404040"/>
<path d="M66.3847 11.9573C66.6647 11.6973 67.8147 11.9973 68.1947 12.9773C69.0547 13.3573 69.4947 11.9973 69.3347 10.8673C69.1947 10.9873 69.1147 11.0773 68.1847 10.6773C68.3547 11.0173 69.4947 12.4573 68.6547 12.1873C67.5847 11.4973 67.9347 11.4373 67.5847 10.8773C67.6947 11.5773 65.8647 10.4873 65.6547 11.2373L66.6747 11.6773C66.6247 11.7773 66.1947 11.6773 66.3747 11.9473L66.3847 11.9573Z" fill="#404040"/>
<path d="M70.7047 12.1673L71.0347 12.4073C70.7347 12.0473 70.6047 11.7073 70.3447 11.0573C69.7147 10.7473 69.5147 10.7673 69.3947 10.8373L70.8347 12.2273L70.6947 12.1773L70.7047 12.1673Z" fill="#404040"/>
<path d="M72.3647 13.6473C71.8547 13.6973 70.9947 13.2073 71.1147 13.9273C71.9647 14.7173 71.9347 14.2573 72.5547 14.6373C71.1947 13.3073 73.0947 14.8773 72.3447 13.6873C72.6547 13.9173 72.8947 14.1473 73.1247 14.3773C72.9247 14.0873 72.7547 13.7973 72.5947 13.5073V13.5573H72.6047C72.6247 13.6673 72.6147 13.7073 72.5747 13.6173L72.5447 13.5973C72.4947 13.6273 72.4347 13.6373 72.3747 13.6473C72.0647 13.1773 72.3947 13.5073 72.5447 13.5973C72.5647 13.5873 72.5847 13.5873 72.6047 13.5673C72.1247 13.1273 71.5547 12.7873 71.0347 12.3973C71.2847 12.7273 71.6947 13.0273 72.3647 13.6473Z" fill="#404040"/>
<path d="M76.4547 22.3773C76.4547 22.3073 76.4847 22.2973 76.5047 22.2773C76.3947 22.2073 76.3447 22.1873 76.4547 22.3773Z" fill="#404040"/>
<path d="M76.2847 21.5973C76.4047 21.6773 76.6047 21.6773 76.7947 22.0773C76.8847 22.4673 76.6147 22.1873 76.5047 22.2773C76.7347 22.4373 77.2447 22.9073 76.9947 22.0873L76.8747 22.0073C76.6147 21.2973 76.5547 20.1673 76.6747 20.2473C76.4647 20.6573 76.3447 20.9773 76.2747 21.5973H76.2847Z" fill="#404040"/>
<path d="M74.4447 17.5873C74.0947 17.1973 73.6747 16.8773 73.2747 16.5373L73.5247 17.3673L73.6747 17.1973C74.1747 17.9273 74.2447 17.6273 74.4547 17.5973L74.4447 17.5873Z" fill="#404040"/>
<path d="M69.3247 10.4673L69.7747 10.2573C69.4147 10.1973 69.0147 10.1973 68.6347 10.1773L69.3247 10.4673Z" fill="#404040"/>
<path d="M67.6147 9.24728L67.9147 8.97728L67.3347 8.83728L67.6147 9.24728Z" fill="#404040"/>
<path d="M9.09471 63.1173L9.40471 63.4173C9.27471 63.2673 9.17471 63.1773 9.09471 63.1173Z" fill="#404040"/>
<path d="M7.68471 60.4373L7.47471 60.4573C7.63471 60.5373 7.72471 60.5573 7.68471 60.4373Z" fill="#404040"/>
<path d="M19.2747 7.16728C18.4947 7.20728 17.5047 7.14728 17.8247 7.46728L18.2447 7.71728C18.6147 7.39728 18.9547 7.24728 19.2747 7.16728Z" fill="#404040"/>
<path d="M2.26471 35.7573L2.42471 35.5973C2.31471 35.4173 2.21471 35.2473 2.12471 35.0873C2.16471 35.2873 2.19471 35.5173 2.26471 35.7573Z" fill="#404040"/>
<path d="M3.95471 36.5373L3.55471 37.2973C3.67471 37.1273 3.81471 36.8873 3.95471 36.5373Z" fill="#404040"/>
<path d="M20.5847 74.7773C20.7947 74.7573 21.0047 74.7273 21.2247 74.6873C20.6047 74.2673 20.7547 74.6273 20.5847 74.7773Z" fill="#404040"/>
<path d="M47.9847 1.29728C47.4247 1.03728 46.9547 0.897276 46.5447 0.817276C47.2347 1.16728 47.7447 1.62728 47.9847 1.29728Z" fill="#404040"/>
<path d="M4.44471 64.3273C4.66471 64.5373 4.80471 64.5973 4.88471 64.5373C4.66471 64.3173 4.50471 64.2173 4.44471 64.3273Z" fill="#404040"/>
<path d="M44.8347 0.707276C44.9347 0.757276 45.0347 0.787276 45.1447 0.827276C45.5847 0.787276 46.0347 0.717276 46.5547 0.827276C46.0547 0.567276 45.4447 0.457276 44.8347 0.717276V0.707276Z" fill="#404040"/>
<path d="M73.4247 64.9873C73.4247 64.9873 73.4947 64.9173 73.5347 64.8973C73.4947 64.8573 73.4647 64.8973 73.4247 64.9873Z" fill="#404040"/>
<path d="M83.8847 49.3573C83.8847 49.5473 83.8347 49.8573 83.7947 50.1573C83.8447 50.0173 83.8747 49.7773 83.8847 49.3573Z" fill="#404040"/>
<path d="M60.5047 4.72728C60.5847 4.71728 60.9147 4.89728 60.5047 4.72728V4.72728Z" fill="#404040"/>
<path d="M61.6447 7.17728C61.5347 7.17728 61.4447 7.20728 61.3947 7.28728C61.4747 7.20728 61.5647 7.17728 61.6447 7.17728Z" fill="#404040"/>
<path d="M40.4947 3.32728H40.4547C40.5847 3.40728 40.5547 3.38728 40.4947 3.32728Z" fill="#404040"/>
<path d="M61.0247 5.19728C60.8947 5.07728 60.7447 4.95728 60.5647 4.83728C60.6347 4.90728 60.7747 5.01728 61.0247 5.19728Z" fill="#404040"/>
<path d="M61.0347 4.96728C61.1647 5.04728 61.2647 5.11728 61.3647 5.17728C61.4447 5.13728 61.4247 5.07728 61.0347 4.96728Z" fill="#404040"/>
<path d="M59.9347 4.47728C60.1647 4.57728 60.3747 4.70728 60.5647 4.82728C60.4947 4.76728 60.4747 4.72728 60.5047 4.71728C60.3847 4.66728 60.2147 4.58728 59.9347 4.46728V4.47728Z" fill="#404040"/>
<path d="M47.0247 82.5373C47.0247 82.5373 47.0847 82.5473 47.1147 82.5673C47.4947 82.3273 47.3247 82.3873 47.0247 82.5373Z" fill="#404040"/>
<path d="M13.6947 17.5473C13.6947 17.5473 13.6947 17.5173 13.7147 17.4973L13.6647 17.5273H13.7047L13.6947 17.5473Z" fill="#404040"/>
<path d="M12.9847 18.8173C12.9847 18.0173 13.2747 17.7973 13.6647 17.5373L12.4147 17.0473C12.5947 17.6473 12.7847 18.2373 12.9847 18.8173Z" fill="#404040"/>
<path d="M13.4747 68.8973L13.1047 67.9173C14.3947 68.3773 14.7747 69.1273 14.5847 68.0973C14.0547 68.4873 13.3347 67.8573 12.7447 67.1173C12.1547 66.3773 11.5547 65.6473 10.9647 65.9873L10.8047 65.2973C10.9047 65.4573 10.9847 65.4273 11.0847 65.5873C10.8547 64.2173 9.72471 65.3873 9.00471 63.8573C8.79471 63.3073 8.75471 62.8673 9.09471 63.1173L8.13471 62.1873C7.97471 61.8473 8.21471 61.8173 8.38471 62.1473C8.02471 61.6073 7.74471 61.0173 7.42471 60.4473H7.46471C7.15471 60.2873 6.57471 59.8573 6.31471 59.6273C6.27471 59.0973 6.55471 59.7973 6.65471 59.6073C6.40471 59.3273 6.12471 59.0473 5.88471 58.7473C5.97471 58.4673 6.16471 58.5173 6.37471 58.7073C6.60471 58.8973 6.84471 59.2373 6.98471 59.5873C7.38471 58.8573 7.20471 58.6973 6.91471 58.4273C6.64471 58.1473 6.25471 57.7373 6.25471 56.5873L6.76471 57.4673C7.26471 56.5873 6.73471 55.9573 6.80471 54.7673C6.65471 55.0673 6.43471 57.2773 5.72471 56.2973C5.71471 55.9473 5.59471 55.5373 5.13471 55.0173C5.59471 54.8673 5.33471 54.3073 5.11471 53.5773L5.74471 53.4573C5.36471 52.7173 5.06471 52.8573 4.66471 52.4473C4.49471 51.5273 4.92471 51.2473 5.31471 50.9573C5.19471 49.4973 4.68471 52.1173 4.30471 50.4073C4.33471 49.7773 4.25471 49.2573 4.08471 48.7173C3.92471 48.1773 3.64471 47.6173 3.44471 46.8873C3.62471 45.9973 3.84471 47.0073 4.00471 46.6773L3.45471 45.9473C3.45471 45.7573 3.61471 45.8073 3.69471 45.8373C3.46471 45.1973 3.05471 45.8173 2.82471 44.7873C2.47471 44.6573 2.67471 44.1073 2.93471 43.4573C3.21471 42.7973 3.48471 42.0473 3.12471 41.3773C3.32471 41.0773 3.50471 41.5473 3.76471 41.4673C3.32471 39.6973 3.42471 39.9573 2.95471 38.4373L3.55471 37.2773C2.94471 38.0973 2.55471 36.8673 2.25471 35.7373C1.97471 36.0173 1.73471 36.2673 1.60471 36.4473C1.57471 35.8673 1.54471 35.2773 1.59471 34.7073C1.74471 34.5273 1.92471 34.7473 2.11471 35.0673C2.09471 34.9473 2.06471 34.8273 2.04471 34.7373C2.42471 34.2073 2.70471 34.5973 2.94471 35.0773C2.76471 35.2473 2.58471 35.4073 2.41471 35.5773C2.73471 36.0673 3.10471 36.5173 3.48471 36.4973C3.42471 36.3773 3.39471 36.1673 3.39471 35.9373C3.48471 36.0573 3.56471 36.1473 3.63471 36.1073C3.71471 36.0673 3.57471 35.8673 3.49471 35.5773L4.28471 35.3673L4.03471 35.2173L4.98471 33.2973C4.90471 32.8873 4.79471 32.4773 4.70471 32.0573C4.63471 31.6473 4.57471 31.2173 4.53471 30.7673C4.46471 29.8673 4.43471 28.8273 4.78471 27.6173C4.99471 28.3773 5.51471 28.0673 6.06471 28.3473C5.20471 28.7073 5.67471 30.1973 5.12471 31.2973C5.41471 30.7173 5.64471 30.9473 5.68471 31.1273L5.88471 28.8473C6.33471 29.0873 6.38471 28.5473 6.84471 28.1273C5.73471 28.1173 6.95471 26.3673 7.07471 25.4073C7.39471 25.5173 7.60471 25.8673 7.06471 26.8173C8.27471 26.0873 6.65471 24.8373 7.87471 24.1173C7.74471 24.3573 7.62471 24.4573 7.71471 24.6273C7.78471 23.9373 8.79471 22.7373 8.85471 23.1973L8.72471 23.4273C8.98471 23.0573 9.28471 22.5873 9.58471 22.0773C9.90471 21.5773 10.2847 21.0673 10.5747 20.5573C11.1847 19.5573 11.5647 18.5973 11.3447 18.2373C11.4347 18.2973 11.9747 19.0673 12.0547 19.2673C11.9947 17.8673 12.0347 16.4373 12.1047 14.9373C12.4447 15.6473 14.4147 16.0673 13.7247 17.4373C14.0947 17.2073 14.4847 16.8673 14.9547 16.0873C14.6647 16.1973 13.6747 15.8373 13.9247 15.5073C15.3047 15.3473 14.8047 15.2973 16.2547 14.9173C15.8347 15.0873 15.4147 13.9173 15.9647 13.4673C15.9947 13.6673 16.7447 14.2873 16.6347 14.5473C16.8047 13.8773 16.9847 13.2073 17.2347 12.5773C17.0147 12.9973 17.7747 13.3673 18.2647 13.3873C17.9947 13.3173 19.4447 12.5273 19.7447 12.1673L19.0147 12.3873C20.6247 11.3573 19.6847 9.98728 21.4047 8.98728C21.3147 9.31728 21.6447 10.5073 22.5447 10.1273C22.5947 9.77728 22.6547 8.87728 22.9447 7.98728C23.2347 7.09728 23.7147 6.13728 24.4447 5.53728L24.8947 5.68728C25.2647 5.37728 25.6247 5.04728 26.0247 4.78728C25.7647 5.30728 25.3047 6.31728 24.8147 7.26728C24.3247 8.22728 23.8147 9.16728 23.4447 9.75728C24.2047 9.66728 23.8047 10.0073 24.7447 9.51728C25.2147 9.62728 24.4347 10.1873 24.1747 10.3273L26.4547 9.44728C26.2647 9.16728 26.6147 8.80728 26.9847 8.45728C27.3647 8.14728 27.7647 7.85728 27.6147 7.60728C26.8347 8.09728 26.1347 8.75728 25.4347 9.33728C25.2447 9.05728 25.3847 8.45728 25.8047 7.83728C26.0147 7.53728 26.2847 7.18728 26.6347 6.94728C26.9847 6.70728 27.3847 6.49728 27.8247 6.36728C28.3547 6.45728 27.9247 7.60728 28.0447 7.79728C28.1747 7.50728 29.4747 6.80728 29.6747 6.90728L29.0847 7.50728C29.5847 7.45728 29.8847 7.10728 30.2347 6.79728C30.5847 6.48728 31.0047 6.27728 31.6547 6.43728C32.0647 6.37728 33.0447 6.97728 33.0147 6.56728C32.2047 5.98728 31.4547 3.72728 31.7847 3.04728C31.8647 3.04728 32.4747 3.08728 33.1247 3.14728C33.7647 3.18728 34.4747 3.40728 34.7447 3.54728C35.5347 4.03728 33.9647 5.11728 34.6547 5.53728C34.6447 5.35728 34.9747 5.07728 35.1147 4.97728C35.5747 5.06728 35.0347 5.56728 35.9447 5.33728C35.9947 4.63728 37.8447 5.10728 36.3047 4.69728C37.2047 4.38728 37.2947 4.63728 38.3747 4.54728C37.9747 4.12728 39.2347 3.00728 40.2147 2.75728C40.1647 2.93728 40.3947 3.14728 40.4947 3.24728C40.9847 3.24728 41.4147 3.24728 41.8147 3.26728C42.2147 3.30728 42.5847 3.38728 42.9547 3.44728C43.6847 3.56728 44.3947 3.68728 45.2947 3.73728C45.4547 3.90728 46.2947 4.16728 45.8947 4.42728C46.1647 4.33728 46.4147 4.14728 46.9647 4.21728C47.9447 4.96728 45.7447 4.12728 46.4547 4.94728C46.5647 4.56728 47.9147 4.61728 48.7447 4.49728C48.6047 3.85728 46.9447 4.10728 46.1447 4.22728C46.2247 3.38728 47.7147 2.71728 49.7447 2.63728C51.3247 2.71728 50.2947 3.30728 50.5847 3.23728C51.9747 3.66728 52.6647 3.46728 53.3047 3.30728C53.9347 3.14728 54.5247 3.00728 55.5747 3.74728C56.3147 4.58728 55.2647 4.76728 55.3347 5.21728C54.7147 5.10728 54.3047 4.84728 53.9247 4.61728C53.5447 4.40728 53.2047 4.18728 52.7947 4.08728L53.7347 4.58728C53.2947 4.65728 52.4647 4.58728 52.0647 4.31728C52.7147 4.89728 56.6847 5.75728 58.4747 7.14728C58.8947 7.14728 59.5847 7.27728 59.3947 6.93728L58.7347 6.69728C58.3247 6.01728 60.1847 6.72728 59.4647 6.15728C59.9647 6.22728 60.5047 6.26728 61.0747 6.40728C61.3547 6.47728 61.6447 6.55728 61.9247 6.67728C62.1947 6.82728 62.4647 7.00728 62.7247 7.23728L62.6347 7.89728C62.7047 7.72728 62.0647 7.11728 61.6447 7.08728C62.2747 7.14728 62.9847 8.86728 63.9247 8.49728L63.3347 7.64728C64.3047 7.90728 65.7547 7.91728 66.6047 8.85728C66.5047 8.02728 66.3447 8.73728 66.0347 7.64728C66.1947 8.77728 63.3447 5.96728 63.9047 7.38728C63.5447 6.23728 62.7947 6.23728 62.0547 5.10728C61.9947 5.30728 62.2547 5.62728 61.3547 5.08728C61.2847 5.11728 61.1547 5.13728 61.0647 5.14728L61.0047 5.10728L61.0447 5.15728C60.9947 5.15728 60.9847 5.16728 61.0647 5.17728C61.2447 5.36728 61.3747 5.54728 61.4047 5.67728C60.7347 5.86728 59.2747 5.14728 58.6847 5.13728C58.1747 4.78728 59.0047 5.03728 58.7947 4.69728C58.5047 4.67728 58.2047 4.67728 57.9047 4.69728C58.0047 4.25728 56.6547 3.44728 58.1147 3.69728L56.8947 3.22728C56.2547 2.72728 55.2847 2.24728 54.5947 2.23728C54.0147 1.98728 52.9447 2.32728 53.5647 2.11728L51.5047 1.87728V1.76728C50.5447 1.44728 49.4747 1.52728 48.4047 1.43728C47.3247 1.37728 46.2547 1.14728 45.1347 0.737276C44.4447 0.817276 43.7447 0.917276 42.6147 0.737276L42.3947 0.337276C41.5247 0.417276 39.7347 0.0472763 39.3747 0.447276C39.1247 0.197276 38.7247 0.0772763 38.2447 0.0272763C37.7647 -0.0327237 37.2047 0.00727627 36.6347 0.137276C35.4947 0.357276 34.3047 0.697276 33.5247 0.727276L33.5647 1.23728C32.5147 1.39728 31.5647 1.84728 30.3447 2.34728L30.5447 2.75728C29.5547 3.32728 27.7147 3.31728 26.0447 3.97728C26.0947 3.77728 26.5347 3.65728 26.8747 3.64728C26.2847 3.59728 25.7347 3.70728 25.2247 3.90728C24.7247 4.13728 24.2647 4.48728 23.8147 4.81728C22.9247 5.51728 22.0547 6.13728 21.0647 6.31728C20.7347 6.70728 20.4147 6.83728 20.0647 6.91728C20.1047 6.89728 20.1347 6.86728 20.1547 6.83728C20.1147 6.85728 20.0447 6.89728 19.9847 6.93728C19.7647 6.97728 19.5247 7.01728 19.2847 7.07728C19.5147 7.06728 19.7247 7.03728 19.8947 6.98728C19.5847 7.18728 19.1347 7.52728 18.7247 7.90728L18.2647 7.62728C18.2647 7.62728 18.2047 7.67728 18.1647 7.70728C17.6047 7.84728 17.9247 8.12728 18.3647 8.27728C18.1647 8.47728 18.0247 8.72728 17.9347 8.92728C17.1347 8.55728 16.9447 9.98728 15.9747 9.68728C15.9447 9.95728 15.4447 10.4373 14.9847 10.9373C14.5647 11.4873 14.1947 12.0773 14.3747 12.4973C14.2847 12.4273 14.1347 12.4973 14.3447 12.2973C13.8347 12.6273 13.3247 12.9673 13.0947 13.4973L12.4847 13.2273C12.3447 13.7173 12.2247 14.2173 12.1347 14.7373C11.3347 15.0673 10.9447 15.1673 11.1447 14.2473C10.3747 16.1773 10.2747 15.5973 9.74471 17.2773L9.48471 16.9673C9.14471 17.4473 9.00471 18.5073 8.53471 18.5973C7.03471 19.1373 4.82471 23.8473 2.87471 26.6673C3.55471 26.6073 3.25471 26.8973 2.91471 27.2873C2.59471 27.6873 2.20471 28.1673 2.60471 28.3973C2.28471 28.4773 1.97471 28.8773 1.93471 28.2673C1.61471 29.9973 0.554707 30.5873 1.03471 31.9773C0.714707 32.0973 0.734707 31.5073 0.534707 31.6273C0.554707 31.7773 0.624707 32.2273 0.424707 32.3673C0.224707 32.4973 0.264707 32.0573 0.224707 31.7573C-0.185293 33.5273 0.604707 33.8873 1.34471 34.1873C1.05471 34.5673 0.884707 34.8773 0.844707 35.1773C0.834707 35.4773 0.934707 35.7773 1.13471 36.1373C0.834707 36.3873 0.484707 36.8573 0.554707 35.7673C0.434707 36.3573 -0.415293 39.4273 0.254707 39.5573C0.0847074 39.7273 0.164707 40.4073 0.224707 40.5673C0.114707 41.9273 0.0547074 42.0473 0.0447074 43.3873L0.164707 43.0173C0.884707 43.5473 0.334707 44.1173 0.474707 45.1973L0.394707 45.1673C0.174707 46.4073 0.254707 46.6773 0.324707 46.9373C0.364707 47.0673 0.394707 47.1973 0.384707 47.4473C0.364707 47.6973 0.334707 48.0673 0.284707 48.6973L0.744707 48.5073C1.80471 48.5873 0.464707 50.7073 1.07471 52.0573L1.26471 51.4973C1.70471 52.1673 0.404707 53.8873 0.464707 54.7273C0.424707 54.9173 0.254707 54.4973 0.134707 54.2773C0.0747074 56.4673 0.814707 54.3773 1.33471 55.8373C1.09471 56.2073 0.394707 55.7373 0.644707 56.7573C0.604707 57.0473 1.12471 57.6873 1.64471 58.4273C2.18471 59.1573 2.61471 60.0373 2.65471 60.7873C2.75471 60.3973 2.86471 60.0173 3.35471 60.5873C3.91471 61.4973 3.71471 63.7173 4.95471 64.1773C4.95471 64.3273 4.93471 64.4073 4.87471 64.4473C5.49471 65.0573 6.59471 66.5873 7.21471 66.7673C6.72471 67.5473 7.69471 68.4773 8.57471 69.3073C9.43471 70.1573 10.3447 70.7873 9.77471 71.2773L11.5647 73.1273L11.4047 73.1873C12.4747 74.4573 13.2147 74.5273 13.8647 74.6573C14.0747 74.9873 13.7747 74.9073 13.6947 74.9473C15.2347 76.8173 15.5847 76.8373 17.6047 77.4373L17.4847 77.9673C17.7847 78.0173 18.3547 78.7073 19.2247 79.3773C19.6547 79.7273 20.1347 80.1073 20.6547 80.4373C21.1747 80.7673 21.7247 81.0673 22.3347 81.1773C22.2847 81.2173 22.1947 81.2773 21.9947 81.2573C23.3347 81.5573 24.5747 82.6273 25.8147 83.2973C27.0447 83.9573 28.1647 84.4073 28.9047 83.7073C29.4847 83.7873 30.1047 83.7473 30.6947 83.7573C28.5847 83.0673 31.2247 83.0873 30.4347 82.5673C31.2847 82.6773 32.4447 83.6473 31.3947 83.4673L31.2547 83.3373C30.6347 84.1373 33.8347 84.3773 33.6647 84.9273C38.0147 85.7273 42.3547 86.3273 46.5647 85.9873C46.3747 85.7673 46.1947 85.5573 46.0147 85.3173C46.4947 85.2873 46.9647 85.2073 47.4447 85.1573C47.8447 85.2673 48.0347 85.6473 46.9947 85.7773C47.5947 86.1073 48.6747 85.1673 48.6747 85.0073C50.7347 84.9873 48.0247 85.9673 48.6447 85.8973L49.4847 85.7173L49.2747 85.6673C49.5947 85.4673 49.7447 85.2873 49.9847 85.1373C50.2147 84.9973 50.5247 84.8673 51.1247 84.7173C51.9147 84.6673 51.6147 85.0573 51.9247 85.0073C51.9347 85.0573 52.0447 85.0573 52.3947 84.9073L54.2047 84.5073L53.3347 84.1373C54.0447 83.6773 54.9947 83.7173 53.9947 83.3173C54.7247 83.6373 56.3547 83.1073 57.8947 82.5573C59.4047 81.9173 60.7747 81.1073 61.1947 81.0973C61.4047 80.8773 61.6147 80.6873 61.8447 80.5173C62.0647 80.3273 62.2847 80.1373 62.5347 79.9673C63.0147 79.6273 63.5547 79.3173 64.1547 78.9773C63.7947 79.0573 63.2847 78.6073 64.3247 78.0673C64.4947 78.7273 65.0647 78.6073 65.6947 78.2573C66.3247 77.9073 67.0747 77.4173 67.7547 77.5073C67.2147 77.5073 67.8747 76.9673 68.4547 76.4373C69.0347 75.8973 69.4747 75.2973 68.6847 75.4173C69.4847 74.8373 69.0547 75.7573 69.8247 75.4873C70.1847 74.9873 70.6147 74.5373 71.0947 74.1073C71.3447 73.8973 71.5947 73.6773 71.8447 73.4573C72.0947 73.2273 72.3447 72.9973 72.5947 72.7573C73.6047 71.8073 74.7847 70.8873 75.5647 69.6073C75.4547 69.4673 74.9447 69.6873 75.1147 69.0273L76.7547 68.3073C77.0147 67.7673 76.2847 67.3273 77.3347 66.7573C77.1347 66.8073 76.8347 66.8673 76.9847 66.5073C78.8847 64.3273 80.1447 61.6073 81.1047 58.8273C81.5647 57.4273 82.1147 56.0573 82.5147 54.6373C82.7447 53.9373 82.9947 53.2373 83.2947 52.5473C83.5947 51.8573 83.8047 51.1473 84.1347 50.4473C83.6747 51.1873 83.7247 50.6473 83.8047 50.0473C83.6647 50.4273 83.3747 49.9673 83.1247 50.0173C83.4547 49.2473 83.8347 48.4773 84.1247 47.6873C83.4847 47.1873 84.2147 45.0573 83.5947 44.7773L83.6747 45.5473C82.9747 44.5173 81.9447 46.8673 81.0047 46.6273C81.2047 46.9073 81.2147 47.2273 81.1347 47.5673C81.0347 47.9073 80.8247 48.2573 80.6347 48.6273C80.2447 49.3773 79.9047 50.1773 80.3647 51.1673C80.1147 51.5073 80.1147 50.7873 79.8647 50.9473C80.2247 51.4673 80.1447 52.0073 79.7247 52.9273L79.6547 52.7973C79.3347 54.1473 79.0947 55.1173 78.5747 56.0273C78.3347 56.4873 78.0947 56.9573 77.8147 57.4873C77.5447 58.0173 77.2747 58.6073 76.8547 59.2573H77.3847C77.0347 59.8173 76.8447 59.8873 76.5947 60.1173C76.9147 61.1173 77.4447 58.4473 77.8647 59.3973C77.2247 59.6073 76.7147 60.6673 76.2047 61.6873C75.6747 62.6973 75.0047 63.5973 74.4047 63.5773C73.8747 64.4473 75.0247 63.6073 74.4847 64.4773L74.0947 64.5473L74.2847 64.9773C73.8947 65.5273 73.3347 65.5573 73.1347 65.4373C73.2547 65.3273 73.3547 65.0273 73.4347 64.8773C72.6347 65.3573 72.0847 66.8773 71.8147 67.0573L72.5447 66.3873C72.1747 66.9773 71.7847 67.6073 71.3147 68.1773C70.8147 68.7373 70.2947 69.3073 69.7847 69.8773C69.5347 70.1673 69.2847 70.4573 69.0347 70.7373C68.7647 70.9973 68.4947 71.2673 68.2347 71.5273C67.7247 72.0673 67.2547 72.6073 66.8447 73.1873L67.1447 73.2173C66.8347 73.6573 66.5647 73.9073 66.3347 74.0773C66.1047 74.2473 65.9047 74.3473 65.7047 74.4473C65.2947 74.6473 64.8547 74.8273 63.9947 75.5873L64.0347 75.4973C63.8147 75.9773 63.3347 76.3673 62.7847 76.6773C63.1347 76.1573 61.5947 76.8073 62.0847 76.1673C60.3947 77.6973 61.3447 77.0673 60.4247 78.5073L59.9347 78.3273C59.6247 78.8473 59.6647 79.0273 58.6547 79.6173C59.3747 78.9173 57.7547 79.4273 58.5247 78.5873C57.9047 78.6673 57.4147 78.8373 57.0147 79.0573C56.6047 79.2573 56.2547 79.4573 55.9447 79.6573C55.3247 80.0473 54.8247 80.3573 54.1247 79.9773C53.4147 81.3273 56.2547 79.8073 55.7547 80.2173C56.3647 80.3473 55.1547 81.2573 54.3947 81.4273C53.6547 81.7073 52.7347 80.5473 50.9147 81.0573C51.0947 81.0173 51.0947 80.9373 51.2747 80.8973C50.8947 80.8573 50.5847 81.0273 50.2447 81.1873C49.9047 81.3573 49.5347 81.4873 49.0547 81.3273C48.6847 82.0073 47.9247 81.4573 47.9147 82.2673L49.6347 81.8173C48.6947 82.1673 47.8847 83.2273 46.1547 83.0373C46.2647 82.8573 46.7347 82.5773 47.0547 82.4073C46.5447 82.2373 46.1547 82.7373 45.6247 82.5073C45.6947 81.7573 47.7347 82.0273 48.6847 81.2873C48.1347 81.0273 46.7947 82.1573 47.1947 81.2273C46.8947 81.8273 46.4247 81.8673 45.8847 81.8773C45.3447 81.8473 44.7447 81.7673 44.1247 82.2173L44.1847 81.7373C43.9847 81.8173 43.5747 82.0673 43.1947 82.0773L43.8447 81.4273C42.8247 81.9973 41.8547 81.1073 40.8847 81.2973C41.9147 81.3473 42.0247 81.4873 41.9947 81.6673C41.9647 81.8573 41.7747 82.0973 42.2247 82.2473C39.6047 82.8073 40.7647 80.9573 37.9347 81.0373C38.3147 81.0173 39.3547 81.3973 38.7347 81.5973C38.1947 81.4973 37.5047 81.2073 37.2047 80.9073C35.3347 80.7173 37.4247 81.4373 36.5947 81.5973C36.0347 80.9273 35.6347 81.6873 34.7647 81.7473L34.8447 81.2673C34.3147 81.1173 34.0147 81.0773 33.8247 81.0973C33.6247 81.1273 33.5347 81.2273 33.4547 81.3273C33.2847 81.5373 33.1447 81.7373 32.2247 81.3073L33.1947 80.8673L32.1647 80.7773L32.5047 80.2973C31.9247 80.3573 31.5447 80.3373 31.1947 80.2573C30.8447 80.1773 30.5147 80.0373 30.0347 79.7573C30.1647 80.1673 29.6347 80.5373 28.7047 80.2173C28.1747 79.7173 29.2147 79.9173 27.8947 79.5073C28.2947 79.3373 28.7347 79.0873 29.1447 79.7173C29.2547 79.5873 29.5247 79.5373 29.6347 79.4073C29.0847 78.8573 28.0147 78.7373 27.5547 78.5673C27.7247 78.6473 27.9247 78.7473 28.0047 78.8473C27.6547 78.8373 27.3047 78.8473 26.9547 78.8173L25.9247 78.6873C25.7147 78.3873 26.0047 78.3673 26.2847 78.3373C25.9047 78.2073 25.5647 78.2873 25.0047 78.0673C25.3147 77.7773 25.4647 77.4073 26.2747 77.5873L24.4147 77.1773C24.3747 76.9773 23.7847 76.3473 24.0647 76.3273C23.3347 75.5873 21.5147 75.7073 20.5347 74.6773C20.4347 74.6973 20.2747 74.6773 20.0147 74.5373C19.5247 74.1173 19.1247 73.6373 18.6547 73.2073C18.4247 72.9873 18.1647 72.7973 17.8847 72.6073C17.6147 72.3973 17.3047 72.2173 16.9347 72.0573L16.7647 70.9573C15.7747 70.2773 17.0347 72.3973 15.3747 71.2473C14.1647 70.4473 15.3947 70.4673 15.1947 69.9773C14.4847 69.7173 13.1147 69.2773 12.6647 67.9373C13.0547 68.1673 13.2047 68.4873 13.5147 68.7473L13.4747 68.8973ZM5.73471 56.3373C5.93471 56.5773 6.41471 57.0073 6.22471 57.2973C5.59471 57.1873 5.75471 56.8473 5.73471 56.3373ZM3.71471 33.7373C3.81471 33.9873 3.65471 34.2973 3.37471 34.6373C3.40471 34.3573 3.50471 34.0473 3.71471 33.7373ZM55.8547 3.23728C55.8547 3.23728 55.8247 3.23728 55.8147 3.24728C55.1947 2.82728 55.4147 2.97728 55.8547 3.23728ZM57.1847 3.94728C57.3447 3.93728 57.3647 3.86728 57.3247 3.78728C57.1847 3.86728 56.8647 3.75728 56.5147 3.59728C56.5747 3.75728 56.7247 3.89728 57.1747 3.94728H57.1847ZM52.0447 84.8873L51.7347 84.8373C52.3347 84.5373 52.1847 84.7073 52.0447 84.8873Z" fill="#404040"/>
<path d="M3.76471 36.4473C3.67471 36.5173 3.58471 36.5173 3.48471 36.5273C3.54471 36.6573 3.63471 36.6773 3.76471 36.4473Z" fill="#404040"/>
<path d="M20.4647 74.7973L20.4947 74.8273C20.4947 74.8273 20.5547 74.7973 20.5847 74.7873H20.4647V74.7973Z" fill="#404040"/>
<path d="M35.2247 5.77728C34.9347 5.74728 34.7647 5.68728 34.6547 5.61728C34.6547 5.73728 34.8047 5.81728 35.2247 5.77728Z" fill="#404040"/>
<path d="M64.6747 6.74728L63.7847 6.34728C64.1947 6.56728 64.2847 6.74728 64.4447 6.93728C64.4847 6.82728 64.4147 6.59728 64.6747 6.74728Z" fill="#404040"/>
<path d="M69.3447 14.0373C69.4847 14.0873 69.5547 14.2173 69.6947 14.2673L69.8247 14.0773C69.3947 13.7073 68.9847 13.5773 69.3447 14.0373Z" fill="#404040"/>
<path d="M64.5647 8.56728C64.3947 8.96728 65.0047 9.09728 65.5547 9.44728C65.5247 9.42728 65.4947 9.40728 65.4647 9.37728C65.9447 9.01728 65.2747 8.74728 64.5647 8.56728Z" fill="#404040"/>
<path d="M65.6847 9.52728C65.8547 9.62728 66.0247 9.74728 66.1747 9.87728C66.3647 9.73728 66.0047 9.68728 65.6847 9.52728Z" fill="#404040"/>
<path d="M59.0447 4.39728C59.2847 4.62728 59.4347 4.00728 59.5347 4.23728C60.0647 3.90728 57.3547 3.90728 59.0447 4.39728Z" fill="#404040"/>
<path d="M64.2847 9.95728L64.3647 9.41728L63.8347 9.56728L64.2847 9.95728Z" fill="#404040"/>
<path d="M60.0947 7.14728L60.9547 7.71728C60.9847 7.63728 61.1247 7.64728 61.2847 7.68728C60.7247 7.39728 60.1447 7.00728 60.1047 7.14728H60.0947Z" fill="#404040"/>
<path d="M61.2847 7.67728C61.5747 7.83728 61.8347 8.00728 62.0347 8.02728C61.8747 7.94728 61.5447 7.74728 61.2847 7.67728Z" fill="#404040"/>
<path d="M63.0147 9.36728L62.8147 9.11728L62.2247 8.71728L63.0147 9.36728Z" fill="#404040"/>
<path d="M49.7447 3.49728L48.6147 3.46728C48.4747 3.61728 48.7547 3.76728 49.1747 3.76728C49.4547 3.68728 49.8847 3.68728 49.7447 3.49728Z" fill="#404040"/>
<path d="M52.6547 5.61728C52.3947 5.44728 52.4047 5.32728 52.2947 5.12728L52.1047 5.71728L52.6647 5.60728L52.6547 5.61728Z" fill="#404040"/>
<path d="M49.5647 5.00728C49.4247 5.15728 47.9347 5.25728 49.2847 5.42728C49.4247 5.25728 50.5147 5.32728 49.5647 5.00728Z" fill="#404040"/>
<path d="M33.2647 4.40728L33.5347 4.32728L33.2847 3.34728L33.2647 4.40728Z" fill="#404040"/>
<path d="M21.2047 12.0673C22.3847 11.6373 21.1147 11.3873 22.2347 11.0673C22.3647 10.7073 21.3247 11.3273 21.4647 10.9973C20.9547 11.6073 20.5447 11.6873 21.2047 12.0673Z" fill="#404040"/>
<path d="M21.4647 11.0073C21.5447 10.9073 21.6347 10.8073 21.7147 10.6773C21.5647 10.8473 21.4947 10.9373 21.4647 11.0073Z" fill="#404040"/>
<path d="M84.7247 46.1673L84.9847 45.2873L84.6147 45.8473L84.7247 46.1673Z" fill="#404040"/>
<path d="M84.0547 44.4473L84.7147 44.2473L84.1547 43.7173C84.1747 43.9173 84.2147 44.2973 84.0547 44.4473Z" fill="#404040"/>
<path d="M6.31471 53.8773H6.15471C6.02471 54.0273 6.05471 54.2073 6.11471 54.5673L6.31471 53.8773Z" fill="#404040"/>
<path d="M10.1547 63.6373L10.0747 63.4773L9.75471 64.0773L10.1547 63.6373Z" fill="#404040"/>
<path d="M16.2347 70.0073C15.9747 69.7673 15.6047 69.5473 15.3847 69.2573C15.9647 69.7773 15.8047 70.5873 16.2347 70.0073Z" fill="#404040"/>
</svg>
