<?xml version="1.0" encoding="UTF-8"?><svg id="Camada_1" xmlns="http://www.w3.org/2000/svg" xmlns:xlink="http://www.w3.org/1999/xlink" viewBox="0 0 132.51 213.64"><defs><style>.cls-1{fill:#fff;}.cls-2{clip-path:url(#clippath-1);}.cls-3{fill:#d2836d;}.cls-4{clip-path:url(#clippath);}.cls-5{fill:none;}.cls-6{fill:#b97055;}.cls-7{fill:url(#_åçûìÿííûé_ãðàäèåíò_796);}</style><clipPath id="clippath"><rect class="cls-5" x="539.35" y="113.5" width="1920" height="1080.39"/></clipPath><clipPath id="clippath-1"><rect class="cls-5" x="-606.99" y="62.09" width="3728.76" height="1242.92"/></clipPath><linearGradient id="_åçûìÿííûé_ãðàäèåíò_796" x1="-2538.58" y1="1009.41" x2="-2538.58" y2="74.81" gradientTransform="translate(3796.92)" gradientUnits="userSpaceOnUse"><stop offset="0" stop-color="#f8ebd6"/><stop offset=".36" stop-color="#fae3c7"/><stop offset="1" stop-color="#ffd1a6"/></linearGradient></defs><g class="cls-4"><g class="cls-2"><rect class="cls-7" x="-630.93" y="36.44" width="3778.54" height="982.49"/><polygon class="cls-6" points="334.78 1018.93 -173.48 1018.93 -188.21 36.44 349.51 36.44 334.78 1018.93"/><polygon class="cls-3" points="231.67 36.44 182.95 905.19 -310.75 905.19 -320.18 36.44 231.67 36.44"/></g></g><path class="cls-1" d="M124.08,176.65c-15.34,28.5-51.36,39.14-81.73,36.64l-27.56-2.5c-2.82-.31-4.7-1.88-5.01-4.7L.08,151.91c-.63-4.07,2.5-7.2,6.58-6.58,6.26,1.25,11.27,2.19,15.34,2.5q-.31,.31,0,.63h.94c.31,0,.31-.31,.31-.31,7.2,.94,13.78,1.57,20.35,1.57,4.7,0,10.02-.94,15.34-2.5h.31c2.5-.63,4.38-2.82,5.64-5.95,1.88-5.64,1.25-11.27-1.57-16.91-.31-.94-.94-1.57-1.57-2.5,.63-.63,.63-.94-.31-1.57,0,0-.31,.31-.63,.31l-4.7-3.76c-3.45-2.5-6.58-4.38-9.71-6.26,.31-.63,.31-2.82-1.57-3.44,0,0-.31,.31-.63,1.25-.31,.31-.31,.63-.31,.94-3.13-1.88-5.01-2.82-5.32-2.82-3.76-1.88-4.38-7.2-.94-9.71,4.7-3.44,8.14-6.26,10.65-8.14,2.19-2.19,4.07-3.76,5.01-5.01h.31c4.38-5.64,6.26-10.96,5.01-16.28l-.31-.31c-.31-3.44-1.88-5.32-4.07-5.32-6.26,0-13.47,2.5-19.42,4.38-7.2,2.5-13.78,4.7-19.1,6.89-1.25,.63-2.5,.63-3.44,.31v-8.14c-.31-.63-.31-1.25-.31-1.88v-2.19s0-.63,.31-.94v-4.38c0-.31,0-.63-.31-1.57-.31-.63-.63-.94-.94-1.25v19.73c-.31,0-.63,0-.94-.31-1.57-1.57-2.5-3.13-2.19-5.32L12.29,15.07c.31-3.13,1.88-4.7,4.7-5.32L58.64,2.54c18.16-2.82,46.03-5.95,61.38,6.58q0,.31,.31,.31c9.71,9.08,11.9,21.92,11.59,34.76,0,.63-.31,1.57-.31,2.82h-.31c-1.25,0-1.88,.31-1.88,1.25,0,.31,.31,.63,.63,1.25h1.25c-2.5,18.16-12.21,31.63-25.05,45.72,12.53,9.39,22.23,21.92,25.36,37.58,.31,.31,.31,.63,.31,.63,1.88,15.97-.63,30.69-7.83,43.21Zm-112.42,6.58c.94,0,1.57-.31,1.88-.63-2.19-1.25-3.13-1.88-4.38-.31,.63,.31,1.25,1.25,.63,1.25,.63,0,.94,0,1.88-.31Zm2.19,6.26l-1.88-.63v.63l1.57,.31,.31-.31Zm11.9,3.76v-.94c-.63,0-1.25-.31-1.57,0-1.25,0-2.19-.31-2.19-.94,0-.31-.31-.31-.63-.63-.31,0-.94-.31-1.88-.63,.31,.31-.31-.31-1.88-.63-.94-.31-1.88,0-2.82,0v.63c.94,.63,1.25,.94,1.57,1.25,.94,.63,1.57,.94,1.88,.63q0-.31,.31-.31l3.44,.94,1.57,.63c.63,0,.94,.31,1.57,.31h.31s0-.31,.31-.31Zm-9.71-11.27c0,.94,0,1.25,.94,.94,.31,0,.63-.31,.63-.31v-.31s0-.31-.31-.31l-.63-.31-.63,.31Zm2.19,3.44c-.31,.31-.63,.31-.94,.31l-.94,1.25,.31,.31h.63l.63-.63c0,.31,.63,.63,2.5,.31-.31-.63-.94-1.25-1.25-1.25-.31-.31-.63-.31-.94-.31Zm.31,6.89l-.63,.31q0,.31,.31,.31v.31c.31-.31,.31-.63,.31-.94Zm5.01,3.13c-.31,0-.31-.31-.31-.31l-2.19-.63h-.31c-.31,0-.63,.63-.63,.94,0,1.25,.31,1.25,1.88,1.25,.31,0,.94-.31,1.25-.63s.31-.63,.31-.63ZM68.03,22.58c15.66,0,31.94,0,46.03-2.51h-.31l-24.11,1.25-.94-1.25c-2.5,2.19-4.7,1.57-6.89,.63-3.13-.63-4.7-.94-6.89,.63-3.44,.31-7.2,.31-10.96,0-4.07,0-7.52,.31-10.96,1.25-2.82-1.57-4.7-1.25-8.77-.63-2.82,.94-5.95,.94-8.14-1.88-.94,1.25-1.88,1.88-3.13,1.88h-3.76c-1.25-.31-2.5-.31-3.44,0-1.25,.31-1.88,.94-2.5,2.19,6.89-.94,13.78-1.25,21.61-1.25,3.76,0,7.52,0,11.59-.31h11.59ZM27.01,201.39l-.63-.63c-.31,0-.31,.31-.31,.31v.31l-.31,.31h.63s.31-.31,.63-.31Zm.63-186c2.5,.31,4.7,.63,6.89,.31l3.13-.31c.94-.31,2.19-.31,3.13-.63,1.88-.31,4.07-.31,6.26-.31,1.88,0,4.07,.31,5.95,.94h18.48v-1.25c-1.57,.31-2.51,0-4.07-.63-1.88-.31-2.82-.63-4.07,.63l-.94-.94-1.25,.94-.94-.94c-3.44,.31-6.58,.31-9.08,0-1.88,0-4.38-.31-7.83-.31-5.32,0-10.02,.63-15.66,2.51Zm3.76,177.86c-.31-.63-.94-.63-.94-.94-.63-.63-1.25-1.25-1.88,0l-.31,1.25h2.82l.31-.31Zm-2.51-1.88l1.25,.31,.31-.31,.63-1.25q-.94,0-1.25-.31h-.63v.63c-.31,.31-.31,.63-.31,.63v.31Zm7.83,1.88h-2.5c.31,.63,.94,.94,1.88,.94,0-.63,.31-.94,.63-.94Zm.63-3.44q-.31,0-.31-.31h-.31c-.31,0-1.25,1.25,0,1.25,0-.31,.31-.31,.31-.31,.31,0,.31-.31,.31-.63Zm11.59-81.1l.94-.94q.31-.31,.31-.63c-.31-.31-.63-.31-.94-1.25,0-.31-.31-.31-.31-.94-.31-.31-.94-2.19-1.25-2.82-.31-.31-.63-.63-.94-.63s-.31,.63,.31,1.25v2.5c0,.63,.63,3.76,1.25,3.76,.31,0,.63-.31,.63-.31Zm2.82-.94c-.63,.31-.94,.31-1.25,.31,0,.31-.31,.31-.63,.31h-.31c.31,.31,.31,.63,.31,.63v.31h1.88v-1.57Zm4.38,5.01h-.94c-.31,0-.63-.31-.94-.31l-1.88,1.25c.63,.31,1.25,.63,1.57,.94,.63,.31,.94,.63,1.25,.63,.31-.63,.63-1.25,.94-2.5Zm0-3.76h1.25l.63-.63-1.25-.31-.63,.94Zm1.57,6.58h-1.25v1.25h1.25v-1.25Zm2.19-1.57c-.63,0-.94,0-1.88,.63,.31,0,.63,.31,1.25,.63,.31,0,.31,.31,.63,.31,.94-.94,.94-1.25,0-1.57Zm5.01-1.57h-1.57s.31-.31,.31-.63c.31-.31,.31-.63,.31-1.25-.94,.63-1.57,.94-2.19,.63-.63-.63-1.25-.63-1.57-.63,0,.31,.63,.63,1.25,1.25,.31,.63,.63,.63,.94,.94v.31h2.5v-.63ZM62.4,5.36c.31,.31,.94,.31,1.57,0,.94-.31,1.25-.63,.63-.94-.31,0-.94,.31-2.19,.94Zm.94,99.27l1.25,.94,.63-.63-1.88-.63v.31Zm4.07,5.32c-2.19,0-1.88-1.57-1.88-2.5-.94,0-1.88,.63-1.88,1.25v1.57h2.51c.63-.31,.94-.31,1.25-.31Zm2.19-6.58c.63,0,1.88,0,3.13-.31-.31-.31-1.25-.31-2.82,0h-3.13c-.63,0-.94,0-.94,.31-.31,0-.63,.31-.94,.63,.63,.63,2.5,1.57,3.44,1.57,0-1.25,.31-1.88,1.25-2.19Zm1.25,22.55c0-.31-.31-.63-.63-.94l-.63-.63h-.31l-.31-.31v2.19h.94c.31,0,.63-.31,.94-.31Zm-.31,52.92h-1.25v1.25h1.25v-1.25Zm3.76-72.02c-.31,0-.94-.31-1.57-.94l-1.57-.63c-.94,.63-1.25,1.25-1.25,1.88,1.57,.31,3.13,.31,4.38-.31Zm-4.07,14.4c.31,.63,.63,.94,1.57,1.25,.63,0,.94,.31,1.57,.31,.31-.63,.31-1.25-.63-1.57h-2.5Zm1.57,55.11c.94,.31,1.57,.63,2.51,.63,0-1.25-.63-1.88-.94-1.88s-.31,.31-.31,.31h-.31l-.94,.94Zm2.82-62.63c0-.63,0-.94,.31-1.25,0-.31-.31-.63-.63-.94h-1.57c-.94,1.57,.31,3.13,.31,3.13h1.88c0-.63,0-.94-.31-.94Zm-.63-99.58l.94,1.25v-1.25h-.94Zm2.5,170.66h-2.19q-.31,0-.31,.31c0,.31,0,.63,.31,1.25l2.19-1.57Zm1.57-69.83c-.94,0-1.88-.31-2.19-.31-.63,0-1.25,0-1.57,.31,0,.63,.31,1.57,.94,1.88l2.82-1.88Zm-.31,64.19c-.63-.63-1.57-.94-2.5-.94l-.63,1.88h1.25c.94,0,1.88-.31,1.88-.94Zm-1.25-69.2c1.25-.63,1.57-1.25,1.57-1.88-.63,0-.94-.31-.94-.31-.63-.31-.94-.31-1.25-.31,0,.94-.31,1.88-.94,2.5h1.57Zm1.25,13.46c0-.63-.31-.94-.31-.94,0,0,0-.31-.31-.94v-.31h-.63l-.31,.63c0,1.57,.31,2.5,.31,2.5h.63c.31,0,.63-.31,.63-.94Zm1.57-10.65c0-.31-.31-.94-.94-1.25,0,0-.31,0-.63,.31-.63,.31-.94,.31-.94,.31,.31,.31,.31,.63,.31,.63v.31c.63,0,.94,0,1.25-.31h.94Zm0-7.2v1.88c-.31,.63,.31,.94,1.88,.94,.63-.94,.94-1.25,1.57-1.25-.31-.31-.63-.31-.94-.94l-.94-.63,1.25-.94c-.31-.31-1.25-.31-2.19-.31s-1.57-.31-2.5-.63l-.31,1.25c.94,0,1.88,0,2.19,.63Zm1.57,4.07l-.31-.31-1.25,.31v.63l1.57-.63Zm-.94-101.46c.63,.31,1.57,.94,1.88,1.57,.63,.63,1.25,.63,2.19,.63s1.57,0,1.88-.63c0-.31,.31-.63,.94-1.25l-2.19-1.25-4.7,.94Zm10.96,5.95c-1.88,.31-3.44,.31-5.01,.31h-5.32l33.19,2.19c-2.82-.94-5.95-1.88-8.77-2.19-4.07-.31-7.2-.31-9.39-.31h-4.7Zm-9.71,119.31l2.5,.31v-.63l-2.5-.63v.94Zm1.88,38.2c0-.31-.31-.63-.31-.94v-.31s-.31,0-.63-.31c-.31,.31-.63,.63-.63,.94v1.25c.63,0,.94,0,1.25-.31v-.31h.31Zm-.94-61.06c1.25,.63,3.44,1.25,5.01,.94v-4.7c-.94,.63-1.57,.94-1.57,1.25s-.31,.94-.94,1.57h-.31c0-.31-.31-.31-.94-.31s-.94,.31-.94,.63v.31l-.31,.31Zm3.44,55.11c.31,0,.94-.31,1.88-.94,.94-.63,1.25-.94,1.25-1.25v-.94h-2.82c-.31,0-.63,.31-1.25,.31l-.94,.63c-.94,.31-1.57,.94-1.57,1.25v.94h3.44Zm-1.88-27.24l-.94,.94,1.25,.31,.63-.94-.94-.31Zm8.14,21.29c0-.63-.63-1.25-2.19-2.5q-.31,.31-.63,.31v.31l-.63,.31c-.31,.31-.63,.63-.94,.63l-.31-.31c-.31,0-.63,0-1.25-.31-.94-.31-1.88-.31-2.19-.31-.63,0-.94,0-.94,.31v.94l.31,.31v.31c0,.31,.31,.31,.63,.31,.63,.31,.94,.31,1.88,.31,0,0,.63,.31,1.88,.31v.31h.63c.63,.31,1.25,.63,1.57,.63s.31,0,.31-.31h1.57v-.94c.31,0,.31-.31,.31-.63Zm-6.26-55.43v-.94h-2.5v.94h2.5Zm-.94,24.74h1.25v-.63c-.31,0-.31-.31-.31-.31l-.94-.63c-.94,.63-1.57,.94-1.57,1.88h.94c.31-.31,.63-.31,.63-.31Zm.94,19.1s0,.31,.31,.31h.31q0,.31,.31,.31h1.88c0-.31,0-.63,.31-.63v-.31c.31,0,.31-.31,.31-.31-.63-.31-.94-.94-.94-.94h-2.19l-.31,1.57Zm2.5,17.54h-.94l-1.25,.94v.94c.94,.31,2.19,.31,3.13,0v-1.25c0-.31-.31-.63-.94-.63Zm1.25,10.65c0-.31-.31-.63-.31-.94v-.31l-3.13,.31,3.44,.94Zm3.76-26.62q-.63,0-.94,.31h-.31l-.63,.31c-.94,0-1.88,0-2.5,.31-.31,1.25,1.57,1.88,2.19,2.19q.31,0,.63-.31l.63-.63h.31l.31-.31s.31,0,.31-.31v-1.57Zm2.19-8.77c.94,0,1.57-.63,1.57-1.57,0-.31,0-.63-.31-.63h-.31v-.31q-.31,0-.63-.31h-1.88l-.63,1.57c0,.63,.63,1.25,2.19,1.25Zm2.5,25.68c0-.31-1.25-1.57-2.19-2.19-1.25,.31-1.57,.94-1.57,1.88,0,.63,.31,1.25,1.25,2.19l.94-.31c.94-.31,1.57-.94,1.57-1.57Zm-2.82-6.26v1.88h1.25v-1.88h-1.25Zm3.44-2.19h-1.88c0,.94-.31,1.25-.94,1.57h2.51v-.63c.31,0,.31-.31,.31-.94Zm2.19-10.33c-.94-.31-1.57-.31-1.57-.31,0,0-.63-.31-.94-.31-.31,.31-.63,.63-.63,.94,.31,.63,.31,.94,.31,1.25,.63,0,.94-.31,1.25-.31l1.57-1.25Zm5.95-46.97h-4.38v.94h4.38v-.94Zm13.78-49.48h1.25v-.94h-.94s-.31,.63-.31,.94Zm10.96-1.88v0Z"/></svg>