<?xml version="1.0" encoding="UTF-8"?><svg xmlns="http://www.w3.org/2000/svg" xmlns:xlink="http://www.w3.org/1999/xlink" viewBox="0 0 76.06 216.41"><defs><style>.cls-1{fill:#fff;}.cls-2{isolation:isolate;}.cls-3{clip-path:url(#clippath-1);}.cls-4{fill:#d2836d;}.cls-5{fill:#eaaf81;}.cls-6{clip-path:url(#clippath);}.cls-7{fill:none;}.cls-8{fill:url(#_åçûìÿííûé_ãðàäèåíò_796);}.cls-9{mix-blend-mode:multiply;}.cls-10{fill:#ffeada;}</style><clipPath id="clippath"><rect class="cls-7" x="901.81" y="125.71" width="1920" height="1080.39"/></clipPath><clipPath id="clippath-1"><rect class="cls-7" x="-244.53" y="74.29" width="3728.76" height="1242.92"/></clipPath><linearGradient id="_åçûìÿííûé_ãðàäèåíò_796" x1="-2176.12" y1="1021.61" x2="-2176.12" y2="87.01" gradientTransform="translate(3796.92)" gradientUnits="userSpaceOnUse"><stop offset="0" stop-color="#f8ebd6"/><stop offset=".36" stop-color="#fae3c7"/><stop offset="1" stop-color="#ffd1a6"/></linearGradient></defs><g class="cls-2"><g id="Camada_1"><g class="cls-6"><g class="cls-3"><rect class="cls-8" x="-268.46" y="48.64" width="3778.54" height="982.49"/><polygon class="cls-4" points="594.13 48.64 545.41 917.39 51.71 917.39 42.28 48.64 594.13 48.64"/><polygon class="cls-5" points="44.61 48.64 59.41 1031.13 48.75 1031.13 17.44 48.64 44.61 48.64"/><g class="cls-9"><polygon class="cls-10" points="50.55 443.5 -268.46 563.83 -268.46 48.64 44.61 48.64 50.55 443.5"/></g></g></g><path class="cls-1" d="M75.78,42.62c-.94,15.03-2.82,30.37-4.38,45.09-4.7,39.14-7.52,78.91-9.71,118.05-.31,3.13-2.19,5.01-5.01,5.32l-46.03,5.32c-3.76,0-6.58-2.82-6.26-6.26L19.42,69.55l-12.21,3.76c-1.88,.63-3.76,.31-5.01-1.25-1.57-.94-2.19-2.5-2.19-4.7L4.38,20.07h1.88c1.25,.63,2.19,.94,2.19,1.25,.31,.31,0,.94-.63,1.25-.94,.94-2.19,2.19-1.88,2.82,.94,1.57,3.13,2.5,5.95,1.88-1.88-.94-1.25-1.88-.31-3.13,.63-.94,1.25-2.5-.63-3.44l14.72-.94c1.88,0,4.38-.31,6.89-.31,2.82,0,5.95-.31,9.08-.63l.94,.63c4.7,0,9.39-.63,14.4-.94,4.07-.31,8.46-.31,13.46-.31h.31c-2.19,0-4.38-.31-6.89-.31-2.82,0-4.7-.63-6.26-2.19l-4.07,2.51c-1.25-.31-1.88-.63-2.82-.63s-1.88,0-2.5,.31c-1.88,.31-2.82,.31-2.82,.31-.94,0-1.88,0-2.82-.63-2.82,.63-5.64,.94-7.83,.63-1.57,0-3.76,0-6.58-.31h-6.26c-2.19,0-4.7,.31-7.2,.94-1.57-.31-2.19-.63-2.5-1.25-.31-.63,0-.94,.31-2.82,.31-.31,0-.94-.63-1.88,.31-.31,1.25-.63,2.19-.63,.94,.31,1.88,.31,3.13,0l-1.57-.63-.94,.63c-1.25-.94-2.19-.63-3.76-.63-1.57,.31-2.19,.63-2.5,.94-.31,.94,.31,1.57,1.57,2.82,.63,.63,.94,1.25,.94,1.57-1.25,1.25-3.13,1.25-6.26,1.25l.63-7.52c.31-2.82,1.88-4.38,4.7-5.01L43.53,.34h.31c11.59-1.25,22.23,.63,28.18,10.33-.94-.31-1.88-.31-2.82-.31s-1.88-.31-2.82-.31c-5.95-.63-11.59-.63-17.54,.31,.94,.63,2.19,.94,3.76,.63,1.88-.31,2.82,.31,3.44,1.25,4.7-.94,9.39-1.57,13.78-1.25h2.5l1.25,2.82h-.63c-.63,.63,.31,1.88,.63,2.51,.63,.63,1.25,1.25-.63,1.88l2.19-.31c1.57,6.89,.63,18.48,.63,24.74ZM7.83,65.79h-1.88v.63h1.88v-.63Zm4.07-12.21h1.88v-.94h-1.88v.94Zm6.89,4.7l-4.7-.63c-.31,0-.63,.31-.94,.63l-.94,.63c.94,0,1.88-.31,2.5-.31,1.57-.31,4.07-.31,4.07-.31Zm-1.88,84.23c-.94,0-1.57-.31-1.88-.31h-2.5c.31,0,.63,.31,.94,.94,0,.31,.31,.63,.94,.63,1.25,0,2.5-.94,2.5-1.25Zm-3.44-1.88c.31,.31,1.25,.31,1.88,.63,.31,.31,1.25,.63,2.82,1.25,0-.63,.31-1.25,.94-1.57-.31-.31-1.25-.31-2.82-.31h-2.82Zm11.59,13.78l-1.88-.94h-2.5l-3.13,1.57c.63,.31,.63,.63,.94,.63l.31,.31s.31,.31,.63,.31c.94-.31,2.19-.63,2.82-.94,1.25-.63,2.19-.94,2.82-.94Zm-4.38,5.32l-.63-.31-1.57,.31v.31l2.19-.31Zm-1.88-30.06l1.57,.94c.94,0,1.88-.31,2.82-.94-2.19-1.25-4.38-.94-4.38,0Zm1.88,33.51c-.94,.31-1.25,.63-1.25,.63h.94c.63,0,.94-.31,.31-.63Zm0-16.91h2.5v-.94h-2.5v.94ZM45.09,10.99c-5.01-.63-8.14-.63-11.59-.31-1.25,0-3.13,.31-5.32,.63-1.88,0-4.07,.31-6.58,.31v.63c4.7,.31,6.58,.31,8.14-.31h1.25c.63-.31,1.25-.31,1.88-.31,.94-.31,2.51-.31,3.76,0l1.25-.63,4.7,3.13c-.94-1.25,0-1.57,2.5-3.13Zm-19.73,127.45c-1.25-.63-2.19-1.25-2.19-1.88l-.94,.94v.94h3.13Zm-.31,28.18h-1.88v.94h1.88v-.94ZM28.5,24.14c-3.76-2.19-5.64,.94-4.7,2.5,.63,.31,1.57,.63,2.51,.63-.63-1.25,.31-2.51,2.19-3.13Zm.94,52.29l2.5,.31-.31-.94-2.19,.63Zm2.82,29.43l-.31-1.88h-1.25v1.88h1.57Zm10.65,22.86h-2.5l-.63,1.25c.63,.31,1.57,.63,2.5,.63l.63-1.88Zm5.32,31h-2.19v.94h2.19v-.94Zm-.63,10.02c-.31,0-.94,.31-1.57,.63l1.57-.63Zm.63-38.52h2.19c.63-.31,.94-.94,.94-1.57-.63-.31-1.25-.63-1.88-.63h-.31c-.94,.31-1.25,.94-1.25,1.25,0,.63,.31,.94,.31,.94Zm0-14.09l.63,1.25,.94,.63v-.94l-1.57-.94Zm1.25-4.7q0,.31-.31,.31c-.31,.63-.31,.94-.31,.94l2.5-.31c0-.94-.94-1.57-2.5-1.57,0,.63,.31,.63,.63,.63Zm.94,8.46c-.31,0-.94,.31-1.57,.94l.94,.94c.63,0,1.25,0,1.88-.63,0-.94-.31-1.25-1.25-1.25Zm3.44,3.44l-5.01-.63v1.25l5.01-.63Zm2.19,36.32c-1.25,0-1.88-.31-2.19-.63l.31-2.5c-.94-.63-1.57-.94-2.5-.94v1.25h-.31c-.94-.31-2.19,.63-2.5,1.25,1.25,.63,1.88,1.57,2.5,2.19,.63,.94,1.25,1.57,2.19,2.19,.31,0,.63-.31,.63-.31h.31l.63-.63,.94-1.88Zm-6.26-45.09v-.31h-.31c0,.31,.31,.31,.31,.63h.94q-.31,0-.31-.31l-.31-.31v-.31l-.31,.63Zm.31,39.77v1.25c1.57,0,3.45-.94,4.38-2.51-2.51-.31-4.38,1.25-4.38,1.25Zm.31-10.02c.31,.31,.94,.31,1.57,.31h2.19l-.63-1.57c-1.57,.63-2.82,.94-3.13,1.25Zm1.57-43.21h2.19v-.63l-.31-.31v-.63h-1.88v1.57Zm2.82,10.02l-.63,.31h-.94v1.25c-.31,.31-.31,.63-.31,.94h2.19v-1.57c1.25,0,2.19,0,2.5-.31,0-.31-.31-.31-.31-.63v-.94l-2.51,.94Zm-1.25,20.04c1.25,.63,2.82-.31,2.82-.31v-1.57c-.31,0-.94-.31-1.88-.31l-.63,.94c-.31,.31-.63,.94-.31,1.25Zm2.5,8.77v-.94h-1.88v.94h1.88Zm1.88-19.42c.63-.31,.94-.63,.94-1.25-.31-.31-.31-.94-.31-1.25h-1.25c-.63,.31-.94,.94-1.25,1.25-.63,.63-1.25,.94-1.57,.94,1.57,.63,3.13,.94,5.01,.94q-.31-.31-.63-.31c-.31,0-.63-.31-.94-.31Zm-3.13-13.15c.31,0,.94,.31,.94,.31h1.25l.94-.94c-.63-.63-1.25-1.25-2.19-1.25-.63,.63-.94,1.57-.94,1.88Zm.63-9.39h1.57v-.94h-1.57v.94Zm.31,55.43l.94,.31,.63-.94-1.25-.63-.31,1.25Zm2.19,6.26h1.25c.94,0,1.57-.63,1.57-1.57h-2.19c-.63,0-1.25,0-2.19-.31l-.63,1.57c.94,0,1.57,0,2.19,.31Zm.94-17.22v-1.57h-2.5v1.88l2.5-.31Zm.31,10.33c.63,0,1.25-.31,1.57-.63h.31v-2.19c-.63,0-1.25-.31-1.88-.63-.31,0-.31,.31-.31,.31v.31h-.63l-.94-.63c-.63,.63-.94,.94-.94,1.57,0,.31,.31,.63,.63,.94,.31,.63,.94,.94,2.19,.94Zm1.25-36.64h-1.88c-.94-.31-1.25-.31-1.88,0v1.57c.63,0,1.88,0,4.07,.31,.31-.31,0-.63-.31-1.88Zm-3.13,47.91l2.5,.31c.31,.31,.63,.31,.63,.31l.63-.31c0-.31,0-.63-.31-.63,.94-.63,1.57-1.25,2.19-2.19h-3.44c-.31,.31-1.88,1.25-2.19,2.5Zm1.25-15.97q0,.31,.31,.31s0,.31,.31,.63c.31-.31,.31-.94,0-1.25l-.31,.31h-.31Zm1.57,18.79c.31,0,.31-.31,.63-.31-.31-.31-.63-.63-1.25-.63h-.94l.31,1.25c.31,0,.63,0,1.25-.31Zm5.01-142.79l-5.32,.94c-.31,1.25,.63,1.88,3.44,1.57l1.88-2.5Zm-3.44,116.49c1.25,0,2.19-.31,2.19-1.25l-2.19-.63-1.57,1.25q.31,.31,.31,.63h1.25Zm1.57,27.56q0-.31-.31-.31v-.31q-.31-.31-.31-.63h-1.57l-.31,1.57c.63,0,.94,0,1.25-.31h1.25Zm.63-57.93c-.94-.94-1.88-1.57-2.82-1.57-.31,.31-.31,.63,0,1.25v.63l2.82-.31Zm.63,46.03c0-.31,0-.63-.31-.94,0,0,0-.31-.31-.94h-2.5c0,.63,.31,1.25,.31,1.25v.94c1.57,.31,2.5,.31,2.82-.31Zm.31-10.65c-.31-.63-.94-.94-1.57-.94,0,.31-.31,.63-.31,.94,.31,0,.31,.31,.31,.31,0,0,0,.31,.31,.31,.94-.31,1.25-.31,1.25-.63Z"/></g></g></svg>