<?xml version="1.0" encoding="UTF-8"?><svg id="Camada_1" xmlns="http://www.w3.org/2000/svg" xmlns:xlink="http://www.w3.org/1999/xlink" viewBox="0 0 135.82 217.54"><defs><style>.cls-1{fill:#fff;}.cls-2{clip-path:url(#clippath-1);}.cls-3{fill:#d2836d;}.cls-4{clip-path:url(#clippath);}.cls-5{fill:none;}.cls-6{fill:#b97055;}.cls-7{fill:url(#_åçûìÿííûé_ãðàäèåíò_796);}</style><clipPath id="clippath"><rect class="cls-5" x="727.88" y="126.9" width="1920" height="1080.39"/></clipPath><clipPath id="clippath-1"><rect class="cls-5" x="-418.46" y="75.49" width="3728.76" height="1242.92"/></clipPath><linearGradient id="_åçûìÿííûé_ãðàäèåíò_796" x1="-2350.05" y1="1022.81" x2="-2350.05" y2="88.21" gradientTransform="translate(3796.92)" gradientUnits="userSpaceOnUse"><stop offset="0" stop-color="#f8ebd6"/><stop offset=".36" stop-color="#fae3c7"/><stop offset="1" stop-color="#ffd1a6"/></linearGradient></defs><g class="cls-4"><g class="cls-2"><rect class="cls-7" x="-442.4" y="49.84" width="3778.54" height="982.49"/><polygon class="cls-6" points="523.3 1032.33 15.05 1032.33 .32 49.84 538.03 49.84 523.3 1032.33"/><polygon class="cls-3" points="420.2 49.84 371.47 918.59 -122.22 918.59 -131.66 49.84 420.2 49.84"/></g></g><path class="cls-1" d="M107.57,109.89l-29.43,47.91c5.01-.63,16.6-2.19,27.56-5.01,5.32-1.57,10.65-3.13,15.97-4.38,1.88-.63,3.44-.31,5.01,.94s2.19,2.82,2.19,4.7l-2.82,48.85c0,3.13-1.57,5.01-4.7,5.32-19.42,3.13-38.52,5.95-57.93,7.83-12.53,1.25-25.99,1.88-38.52,1.25-8.46-.63-16.6-3.44-21.29-10.65-5.01-8.77-4.07-18.79-1.57-27.87,2.19-6.89,5.32-14.09,10.65-21.92l22.23-33.82v-.31c8.46-11.27,17.22-23.8,26.62-37.89,.63-.63,1.25-2.19,2.5-4.07h.31l1.25-.63v-.63c0-.31-.31-.31-.94-.63,1.57-3.13,2.82-6.58,4.38-10.65,.31-1.25,1.88-6.26,1.57-8.14q-.31,0-.31-.31c-.63-.63-1.88-.94-4.38-.63-5.95,.94-14.09,4.38-19.42,6.58-10.96,5.01-21.61,11.59-31.31,17.54-4.07,2.19-8.77-.63-8.77-5.01l1.88-58.87c0-2.82,1.25-4.38,3.76-5.32C26.15,9.68,41.5,4.98,56.53,2.48c15.34-2.82,31.94-3.76,47.6,0,33.82,8.14,35.7,41.02,27.87,61.69-3.76,10.02-7.51,18.48-11.9,25.68v.31l-12.53,19.73ZM7.36,185.04h-.94v.63s.31,0,.63-.31l.31-.31Zm6.58-1.25h-1.88c-.31,0-.31,.31-.31,.63s.31,.63,.31,.63c.31-.31,.94-.31,1.25-.31,.31-.31,.63-.31,.63-.94Zm15.66-4.7q-.31,0-.31-.31h-1.57c-.31,.31-.63,.63-.63,.94h1.88l.63-.63Zm5.01,4.7c-.63-.31-1.25-.63-1.88-.63-.31,0-.63,0-1.25,.31-.63,.31-.94,.31-1.25,.31v.94l1.57,.31c.31-.31,.63-.31,1.25-.31,.31,.31,.94,.31,1.57-.31v-.63ZM47.45,51.33c0-.63-.31-.94-.63-1.25-.31,0-.63,.31-.94,.31h-.63l.31,1.25c.94,0,1.57-.31,1.88-.31Zm5.32,122.12c0-.31-.31-.63-.63-.63h-.63c-.31,0-1.25,0-1.57,.63,.63,.63,1.57,.94,2.51,1.25,0-.31,0-.63,.31-.63v-.63Zm.63-31.63c.63,0,.94-.31,.94-.31l.63-.31c-.63-.31-.94-.31-1.25-.31l-.31,.94Zm17.54,49.48c-.31-.63-3.13-1.25-4.07-1.25h-1.57c-.94,0-1.57,0-2.19,.31h-3.44c-.63,0-.94,0-1.88-.31-.31-.31-.94-.31-1.25-.31s-.63,0-1.57,.31c-.63,.31-1.25,.94-1.57,1.25h17.54Zm-14.09-48.85c.31-.31,.31-.63,.31-1.25l-.63,.31c-.31,.31-.31,.63,.31,.94Zm2.5-103.34h-2.19v1.25h.94c.31-.31,.31-.63,.63-.63l.63-.63Zm.31,4.07l.31,.31h2.82c.31,0,.63,0,.94-.31-.63-.31-.94-.63-.94-1.25,0-.31,.31-.63,.31-.63-.94,0-1.57,.31-1.88,.31-.63,0-1.25,.31-1.57,1.57Zm2.19,5.95l.94-1.25c-.63-.31-1.25-.31-1.88-.31-.94,0-1.25,0-1.25,.63,.31,.31,.63,.63,.94,.63s.63,.31,1.25,.31Zm0,100.52l.94,.31v-.31l-.94-.63v.63Zm4.07-1.25l.31-.63v-.94c0-.31,0-.63-.31-.63l-1.88-.63c-.63,0-.94,.31-1.25,.63-1.25,1.88,1.57,2.51,3.13,2.19Zm-.63-93c0-.63-.31-.63-.94-.63h-.94c-.31,.31-.63,.63-.63,.94s.31,.31,.31,.63h1.57c.31-.31,.63-.63,.63-.94Zm-1.25,78.6l.31,.31c.63,0,1.25,0,1.88-.31l-.94-.94h-.94l-.31,.94Zm2.82,3.76c-.31-.63-.63-1.25-.94-1.25-.63,.31-.94,.94-1.25,1.25l-.31,.31c-.31,.94,0,1.57,.94,1.88,.63-.63,1.57-.94,2.19-.63-.31-.31-.31-.63-.63-1.57Zm1.88,41.96c-.63,0-.94,.31-1.25,.31v.94c.63,.63,.94,1.25,.94,1.57,0,.63,.31,.94,1.57,.94h.63c-.31-.63-.63-.63-.94-.63s-.31,0-.63-.31v-1.25c.94-.63,1.25-.94,1.57-1.25-.94,0-1.57-.31-1.88-.31Zm.94-47.29c.31,0,.31,.31,.31,.63l2.19,.94c0-.63,0-.94,.31-1.25-.31,0-.63,0-.94-.31-.31,0,0-.31,.31-.31l.31-.31c0-.31-.31-.63-.94-1.57l-1.25,1.25c-.31,.31-.31,.63-.31,.94Zm4.7,46.66l-.94-.31h-.94l-.31,.63,1.57,.31s.31-.31,.63-.31v-.31Zm-.94-140.91l.94,.31c.31-.31,0-.63-.94-.94v.63Zm1.88,16.91h1.25c-.63-.31-.94-.63-1.25-.63-.63,0-.94,.31-.94,.63,.31,.31,.63,.31,.94,0Zm-.63-7.2c0,.31,.63,1.88,1.57,1.88,.31,0,.94-.31,.94-.63,.31-.31,.94-.63,1.57-.63,.31,0,.63-.31,.94-.63v-.63c0-.31-.31-.63-.63-.63s-.63,0-.94-.31c-.63,1.25-1.88,1.57-3.45,1.57Zm1.57,87.68l-.94,1.25h.63l.31-1.25Zm2.82-3.76v-.31c.31-.63,.63-1.88,.94-2.82l1.25-2.51v-.31h-.94c-.31-.31-.63,0-1.25,0v1.25c0,.63-.31,1.25-.94,1.57-.94,.63-.94,1.25-1.57,2.19-.31,.31-.63,.94-.94,1.57-.31,.63-.31,1.25,.31,2.19h.94c.63-.63,.94-.94,1.57-1.25,.31-.31,.63-.63,.63-.94,.31-.31,.31-.63,0-.63Zm-3.44-109.6c.94,0,2.51,0,4.38-.31,1.88-.31,2.82,.31,2.82,2.19l-2.19,1.57c-.63,.63-.63,.94-.63,1.25,1.88,.94,4.7,1.57,7.2,.94-1.88-.94-1.88-2.5-1.25-3.13,.63-.63,.94-.94,1.57-1.25,.63-.63,.94-.94,.94-1.25l-5.32-.94c-1.25-.31-2.82-.31-5.01-.63-.31,.31-.94,.94-1.57,.94s-.94,.31-.94,.63Zm1.57,99.58h-1.25c-.31,0-.31,.63-.31,1.25,.63,0,1.25,0,1.25,.31q.31,0,.31-.31h.31v-.31c0-.31,0-.63-.31-.94Zm.31-77.97c-.63,.31-.94,.63-.94,.31v.94c.31,0,.63,.31,.94,.31,0,.31,.31,.31,.63,.63l.63-.63v-.63c0-.63-.31-.94-1.25-.94Zm.31,78.91c0,.31,2.19,.94,2.82,.94l.63-.63c-.31-.31-.31-.94-.31-1.88l-.94-.31c-1.25,.94-1.57,1.25-2.19,1.88Zm.94-67.33c.31,0,.31,.31,.31,.31,.31-.31,.94-.31,1.25-.31,0-.63-.31-.94-1.25-1.25-.63,.31-.94,.63-.94,.94s.31,.31,.63,.31Zm.31-39.14c1.88-.31,3.13,.31,4.07,1.88,.94-1.57,.94-2.5,0-3.44-.94,.31-1.57,.63-2.19,.63l-1.88,.94Zm4.07,127.13l-.31-.31h-1.25l-.31,.31v.31c0,.94,.31,1.25,1.25,1.25,.31-.31,.63-.63,.63-1.25v-.31Zm.94-40.08c-1.25,.31-1.88,.63-2.19,1.25-.31,.31,.31,2.19,.94,2.19,.63,.31,2.51,.31,3.13-1.25,.63-.31-.31-1.25-1.88-2.19Zm-.63-61.38c0-.31,0-.63-.31-.94,0,0,0,.31-.31,.31,0,0-.31,0-.31,.63,0,.31,.31,.31,.63,.31s.31,0,.31-.31Zm.31,74.84q-.31-.31-.63-.31h-.31q0,.31-.31,.31v.31c0,.31,.94,.63,1.57,.31,0,0,.31-.31,.31-.63h-.63Zm2.19,11.9c-.31-.31-.63-.94-1.25-1.25-.31,0-.63,0-.94,.31l-1.25,1.57,.31,.31s.31,.31,.63,.31c0,0,.63,.31,1.25,.31s.94-.31,1.25-.63c.31-.31,.31-.63,0-.94Zm.31-31.31c-.31-.31-.63-.63-.63-.94l-.94-.63-.94,1.57c1.25,.31,1.88,.31,1.88,.63l.63-.63Zm.31-44.47l-.63-.63-1.57,.63c.31,.31,.94,.63,1.57,.94,0-.31,.31-.31,.31-.31q0-.31,.31-.63Zm-1.25,131.21c0,.63,.63,1.25,2.19,1.25,.31,0,.63,0,.94-.31h1.25c0-.31,.31-.31,.31-.63-.63-.63-1.88-1.25-2.19-.94h-2.19v.31c-.31,0-.31,.31-.31,.31Zm3.44-146.24s.31,0,.63-.31h2.19l-.63-2.51c-.31-.31-1.25-.63-1.57-.94-.63-.31-.94-.31-1.57-.31-.94,0-1.25,.31-1.57,.63-.31,.31-.31,.94-.31,.94,0,.94,.94,2.5,2.82,2.5Zm-1.88,77.03l.94,.63c.94,0,1.25-.94,1.25-1.25,0,0,0-.31,.31-.63-.63-.31-.94-.63-.94-.94l-.94,.63c-.63,.63-.63,.94-.63,1.25v.31Zm4.7-8.46c-.31-.63-.63-1.25-.94-1.57,0,0,0-.31,.31-.63v-1.57c0-1.25-.63-1.88-1.57-2.19-.31-.31-.63-.31-.63,0h-.63c.63,.94,.94,1.25,.94,1.57-.31,0-.31,.31-.63,.63,0,0-.31,0-.63,.31-.31,.94-.31,3.13,1.25,3.76,.31,0,.63,.31,.94,0l.63,.31c.63,0,.94-.31,.94-.63Zm-3.76-89.56c0,.63,1.25,1.88,1.88,2.19,.31,0,.31-.63,.94-.94v-1.25h-2.82Zm1.57,100.21h-1.57c.31,.31,.63,.94,.63,1.57,.94-.63,1.25-.94,.94-1.57Zm-.63-87.99v.63h1.25v-.63h-1.25Zm.94,55.74l.94-.31c-.63-.63-1.25-.63-1.88,0l.94,.31Zm2.5,9.39c-.63,.31-1.25,.31-1.57,0-.63,0-.94-.31-.94-.63,0,.94-.31,1.57-.31,1.88-.31,.31,0,.94,1.25,1.88l.63-.31,1.25-2.19s0-.31-.31-.63Zm.63,30.69c0-.94-.31-.63-.63-.63q-.31,.31,0,.31c.31,.31,.63,.31,.63,.31Zm.94-13.46l-1.57-.63v.31l1.25,.63,.31-.31Zm-1.25,67.01h1.57l.94-1.25h-.31l-.31-.31c-.31,0-.63,.31-.94,.63,0-.31-.31,0-.94,.94Zm4.38-68.58c-.94-.31-1.57-.31-2.19,0v1.25l1.25,.31c0-.31,.31-.31,.63-.63,.31-.31,.31-.63,.31-.94Zm-.94,81.42h21.92c-.31-.63-6.89-1.25-9.08-1.25-.31,0-.63,.31-1.88,.31s-1.88,.31-2.19,.31h-1.57c-1.25,0-2.5-.31-3.76-.63-.63-.31-1.25-.31-1.57-.31h-1.25c-.31,0-.31,.63-.63,1.57Zm3.76-93c0-.31,0-.63-.31-.63s-.63-.31-.63-.31c-1.88,.31-2.82,1.57-.94,2.19,.31-.31,.94-.63,1.25-.63,0-.31,.31-.31,.31-.31l.31-.31Zm-1.88-19.42l.31,.31c0,.63,.94,.94,1.25,.31v-.63c-.63,0-1.25-.31-1.57,0Zm4.7,5.95l-.31-.63-1.25-.31c-.94-.31-1.57,0-1.57,.63v.63l1.57,.63c0-.31,.63-.31,1.57-.94Zm4.38,1.88c-.63-.31-.63-.63-.63-.94-.31,0-.31-.31-.31-.63,0,0,0-.31,.31-.31v-.31l-1.25-.31c-.94,0-1.25,.31-1.57,.63-.31,0-.63,.31-.63,.31,1.57,.94,1.88,1.88,1.25,3.13,.31,0,2.19,0,2.82-.94,.31,0,.31-.31,0-.63Zm-2.82,82.98l.94,.31c0-.63,0-.94-.31-1.25-.31,0-.63,.31-.63,.94Zm0,2.5c0,.94,.31,1.25,.31,1.25h.63v-1.25h-.94Zm4.38-72.65c0,.63,1.25,1.25,1.88,.94l.63-1.25-.31-.31c-.63-.31-2.19-.94-2.19,0v.63Zm0,82.67l.63,.31,.31-.63h-.31l-.63,.31Zm1.25-110.54l.31,.31,.31-.94-.31-.31-.31,.94Zm2.82,112.73q0,.31,.31,.63t.31,0c.31-.94,.31-1.25-.31-1.25v.31h-.31v.31Zm.31-93q.31,.31,.63,.31s.31-.31,.63-1.25c0-.31,.31-.63,.31-.94-.31,0-.31,.31-.63,.31-.94,.63-1.25,1.25-.94,1.57Zm1.57-4.07c0,.94,0,1.25,.63,1.25,.63-.31,.94-.31,1.25-.31v-1.25c-.63,0-1.25,0-1.88,.31Zm.31-4.07l.94-.63c.31,0,.63-.31,.94-.31,0-.63-.31-.94-.94-.94l-.94,.31v1.57Zm2.19-6.89c1.25,.63,2.82,.31,4.07-.94,.63-1.25,.63-1.88,.63-1.25,0,0,0-.31,.31-.94-.94,0-1.25-.31-1.88-.31-.31,0-.94,0-1.88-.31,0,0-.31,.31-1.57,.94-.31,0-.94,.31-1.25,.63-.63,1.57,.63,2.19,1.57,2.19Zm-.94,108.03c.63,.63,1.25,.63,1.88,.63,0,0,.63,0,1.25-.31v-.63c-.31,0-.63-.31-.94-.31,0-.31-.31-.31-.63-.31l-.31,.31c-.31,0-.63,.31-.63,.31-.31,0-.31,.31-.63,.31Zm.31-3.13c0,.31,.31,.63,.63,.94l.94-.63v-.31l-.31-.63c-.94,0-1.25,.31-1.25,.63Z"/></svg>