<svg width="189" height="155" viewBox="0 0 189 155" fill="none" xmlns="http://www.w3.org/2000/svg">
<path d="M18.1264 100.236C26.1464 96.7962 36.1064 96.3862 45.9464 99.1162C41.6264 97.2662 37.0864 95.2562 33.5464 91.6162C29.9364 87.8962 27.7764 81.8662 30.1264 78.3962C31.3664 76.5562 33.5964 75.7862 35.8164 75.2962C44.4864 73.3662 54.3864 74.8062 63.3964 79.2762C60.7264 70.7562 58.4764 58.9762 65.2564 55.0562C74.6864 49.6062 97.2064 58.8962 107.296 80.0762C108.266 68.0262 122.126 59.8062 131.986 65.8562C141.046 71.4162 142.536 86.5862 135.876 94.4362C145.426 84.6562 161.356 73.6062 170.026 81.8662C179.506 87.2662 173.826 105.276 158.826 107.426C167.566 106.116 173.776 109.506 173.316 114.946C172.596 119.546 168.576 125.056 161.936 127.916C165.816 132.916 158.946 132.086 155.456 129.676C167.546 141.196 139.686 143.826 123.726 138.636C134.166 142.836 130.336 161.676 92.9264 144.666C96.2564 156.436 79.2164 155.966 71.4264 150.256C65.2164 152.556 50.9264 154.926 56.1364 147.776C36.9164 145.846 28.6064 138.326 33.2764 133.906C10.4364 130.796 11.2164 115.736 24.2364 118.706C8.29642 110.916 14.1264 101.956 18.1164 100.236H18.1264Z" fill="#0E7012"/>
<path d="M181.476 96.0362C171.576 99.3662 160.196 99.7462 149.456 97.1262C154.086 98.9162 158.906 100.826 162.246 104.256C165.586 107.686 166.836 113.106 163.656 116.146C161.996 117.736 159.476 118.406 157.006 118.826C147.446 120.466 137.026 119.246 127.746 115.386C129.866 122.666 131.166 132.236 123.906 135.306C114.026 139.476 91.2564 132.296 80.1364 114.686C79.5364 124.936 65.5164 131.586 54.7464 126.716C44.5664 122.116 40.9664 108.876 47.3664 101.616C38.0564 110.626 22.5864 120.266 11.6164 113.116C5.22644 106.386 12.3564 96.6362 21.8964 89.7062C22.9864 88.9162 24.1064 88.1562 25.2464 87.4462C23.0864 88.1562 20.9464 88.6362 18.8964 88.9062C8.98644 90.2262 0.896442 86.7862 0.0264419 81.1162C-0.403558 75.3362 4.40644 67.9762 14.7864 65.4862C15.8564 65.2262 16.9864 65.0262 18.1864 64.8762C17.5264 64.3262 16.9264 63.7762 16.3864 63.2362C15.5064 62.3362 14.7964 61.4562 14.2464 60.5862C7.95644 50.6062 23.2664 42.9562 43.8964 45.7662C43.8964 45.7662 64.6664 36.8462 96.0264 46.8462C95.5964 43.4762 140.596 38.3262 144.356 42.9062C159.226 45.2362 170.086 52.0762 176.396 59.0462C183.936 67.3762 184.996 75.8862 178.666 77.0962C195.636 85.3262 186.466 94.3562 181.476 96.0362Z" fill="#1C9127"/>
<path d="M148.337 113.846C134.747 112.076 118.577 102.776 117.307 105.906C116.927 106.836 121.697 108.486 125.847 114.016C128.017 116.906 129.267 126.576 125.677 129.236C118.387 134.646 102.987 128.906 92.7165 117.816C86.2265 110.806 83.8465 103.986 81.9065 103.626C79.6365 103.206 76.5665 112.016 70.6565 117.556C64.3965 123.426 55.1665 125.856 47.8165 118.336C41.7965 112.166 49.7165 101.556 51.2865 96.6762C51.5265 95.9362 41.4865 103.676 23.6865 110.296C14.6065 113.666 8.80652 108.836 9.69652 110.676C11.2265 113.836 15.1165 115.726 20.1365 115.746C28.0965 115.786 38.8965 111.156 47.3565 101.616C32.0065 125.216 74.7565 140.856 80.1265 114.686C86.7965 125.406 99.2065 133.306 109.897 135.766C123.017 138.786 134.317 134.606 127.737 115.386C137.947 119.896 153.667 122.236 163.637 116.146C167.057 112.256 165.437 107.836 162.137 104.346C164.937 110.556 161.647 115.576 148.327 113.846H148.337Z" fill="#30B543"/>
<path d="M176.396 59.0463C170.087 52.0763 159.227 45.2363 144.357 42.9063C140.597 38.3363 95.5965 43.4763 96.0265 46.8463C64.6665 36.8463 43.8965 45.7663 43.8965 45.7663C30.3965 43.9263 19.1765 46.5663 14.7965 51.4063C12.4765 53.9663 16.6765 58.4763 27.7465 55.7063C26.8265 56.7263 19.2965 63.5563 18.5765 70.0663C16.8465 85.8063 29.6465 93.9363 48.8265 78.8563C46.8665 89.8763 53.0965 95.9563 58.8865 98.2663C65.2965 100.826 70.9565 99.7863 77.4465 95.9763C80.2865 94.3163 82.6565 92.1963 84.4665 89.8063C93.4565 98.7263 105.597 103.406 115.667 103.406C119.837 103.406 137.607 103.116 134.597 83.4163C146.077 87.0263 169.956 83.3863 158.536 60.5563C165.286 61.5963 173.096 60.1963 176.396 59.0463Z" fill="#0E7012"/>
<path d="M50.6065 8.94624C46.4765 9.76624 43.2965 17.5162 49.5765 24.4562C39.2565 20.7762 22.9065 25.9662 27.1865 34.3862C19.3365 36.9762 11.5165 41.3362 11.9265 47.6762C13.1065 56.1762 32.4665 46.9162 42.7365 46.5362C30.6465 52.3662 14.0265 69.7862 22.1365 78.7762C32.2465 85.3662 46.6565 73.2562 54.7165 63.2362C47.6665 70.7562 50.6665 85.0262 60.1565 89.0562C69.6465 93.0962 82.0065 85.3662 82.5365 75.0662C92.3365 91.8262 112.406 97.2462 121.116 92.3062C127.516 88.6762 126.376 79.2062 124.506 72.0962C132.676 75.2362 141.866 75.6562 150.296 73.2762C152.466 72.6662 154.686 71.8062 156.156 70.0862C158.966 66.7962 157.856 61.4662 154.916 58.3062C151.976 55.1362 147.726 53.5962 143.646 52.1662C153.116 53.9662 163.146 52.6962 171.876 48.6062C176.276 46.5462 180.956 42.0562 179.046 37.5862C178.366 35.9962 176.966 34.8462 175.556 33.8462C164.386 25.8962 149.386 23.6362 136.366 27.9262C140.276 26.8462 148.286 19.2762 145.716 15.9462C142.406 11.6662 127.066 15.1262 119.606 20.7262C123.136 14.5462 117.786 6.54624 111.956 8.08624C109.326 8.51624 109.186 14.7762 109.566 18.1162C105.176 10.3962 96.3565 2.34624 86.2365 5.46624C76.1165 8.57624 85.6665 22.3562 83.8965 20.7762C74.2965 12.2162 61.5765 6.76624 50.6165 8.95624L50.6065 8.94624Z" fill="#30B543"/>
<path d="M139.976 36.8463C159.236 25.4763 147.356 21.4763 136.676 24.9863C140.686 23.4963 148.216 15.6163 145.706 12.1063C142.396 7.46634 127.056 11.2163 119.596 17.2863C123.126 10.5863 117.776 1.92634 111.946 3.58634C109.316 4.05633 109.176 10.8363 109.556 14.4563C105.166 6.08634 96.3464 -2.63366 86.2264 0.746335C76.1064 4.11634 85.6564 19.0463 83.8864 17.3363C74.2864 8.05634 61.5664 2.14634 50.6064 4.52634C46.4764 5.41634 43.2964 13.8163 49.5764 21.3363C39.2564 17.3463 22.9064 22.9663 27.1864 32.1063C13.3964 41.3463 36.2264 45.0963 55.1764 33.0863C46.0964 42.0963 41.3364 70.2263 66.7664 45.1963C59.7564 61.5063 80.5164 72.7563 82.2164 43.7463C88.0464 60.1063 106.566 60.8863 115.036 56.4463C126.716 57.0063 137.616 54.1963 123.016 41.0763C141.826 48.2363 150.016 40.2363 139.976 36.8563V36.8463Z" fill="#56DA60"/>
<path d="M113.146 47.9462C113.236 48.5562 113.256 49.1662 113.206 49.7862C112.516 58.5862 100.336 54.7062 96.0264 52.7162C82.9964 46.7162 84.0764 36.2662 82.8964 35.9862C81.7264 35.7162 76.5364 51.6462 71.3464 51.2762C66.1564 50.9062 71.8664 38.5262 70.0564 38.0162C64.9464 44.8962 50.4164 53.1462 51.6264 45.2762C53.1864 35.1062 63.8964 27.5062 63.0364 27.1062C62.1764 26.7062 44.7764 34.2262 40.8964 35.5262C37.0064 36.8262 22.3864 39.8362 24.7964 33.9662C16.5964 41.7862 37.5664 44.2362 55.1764 33.0662C46.0964 42.0762 41.3364 70.2062 66.7664 45.1762C59.7564 61.4862 80.5164 72.7362 82.2164 43.7262C88.0464 60.0862 106.566 60.8662 115.036 56.4262C123.866 56.8562 132.256 55.3462 129.496 48.9062C128.556 55.3362 116.446 53.5862 113.156 47.9362L113.146 47.9462Z" fill="#81FF7C"/>
<path d="M76.1964 17.1562C69.2764 7.40625 58.5464 3.65625 51.8064 5.90625C45.0564 8.15625 54.0564 19.5963 76.1964 17.1562Z" fill="#81FF7C"/>
<path d="M102.486 13.3861C101.456 3.84612 94.3564 0.0961213 91.0764 1.40612C87.7964 2.72612 93.7164 10.9561 102.496 13.3861H102.486Z" fill="#81FF7C"/>
<path d="M112.636 13.4665C113.666 15.4765 117.476 5.34653 114.716 4.46653C111.946 3.59653 109.756 7.83653 112.636 13.4665Z" fill="#81FF7C"/>
<path d="M68.3265 65.9166C70.6665 67.2166 67.8065 87.7166 59.7665 83.3066C51.7265 78.8966 65.9965 64.6266 68.3265 65.9166Z" fill="#56DA60"/>
<path d="M107.356 45.7262C106.136 48.1062 122.066 65.2462 126.276 57.0962C130.496 48.9462 108.566 43.3462 107.356 45.7262Z" fill="#81FF7C"/>
<path d="M111.256 30.9263C110.066 31.9263 118.546 33.9063 124.806 33.5663C129.326 33.3263 134.826 30.8063 134.146 28.3763C133.276 25.2663 127.736 24.7763 123.076 25.6063C117.056 26.6763 113.046 29.4163 111.256 30.9163V30.9263Z" fill="#81FF7C"/>
<path d="M151.886 33.7465C151.966 35.0165 158.096 39.3265 165.116 40.7565C170.126 41.7765 177.116 40.9565 175.756 38.1565C170.826 28.0365 151.736 31.5765 151.886 33.7465Z" fill="#56DA60"/>
<path d="M141.756 101.496C140.526 104.506 158.876 121.776 163.146 111.456C167.416 101.136 142.986 98.4863 141.756 101.496Z" fill="#30B543"/>
<path d="M42.3065 54.6861C43.1865 55.5661 42.8665 61.2461 39.8665 66.2561C36.3965 72.0661 28.6565 78.8761 23.0865 74.5561C19.6565 71.8961 22.8865 65.7561 27.9265 61.4061C33.5465 56.5661 41.3065 53.6761 42.2965 54.6761L42.3065 54.6861Z" fill="#56DA60"/>
<path d="M37.7064 90.6463C38.2964 91.7363 36.3864 97.0963 32.1064 101.066C27.1464 105.656 17.7964 110.016 13.6664 104.306C11.1264 100.786 15.9564 95.8063 22.0164 93.0563C28.7764 89.9963 37.0264 89.4163 37.7064 90.6463Z" fill="#30B543"/>
<path d="M42.5964 122.456C43.6064 123.176 44.2264 128.836 42.0964 134.276C39.6264 140.576 33.1164 148.566 26.9064 145.226C23.0864 143.166 25.2564 136.576 29.5264 131.456C34.2764 125.756 41.4564 121.636 42.5964 122.456Z" fill="#1C9127"/>
<path d="M88.1965 134.106C87.3665 135.026 87.9765 140.686 91.2165 145.546C94.9765 151.166 103.047 157.586 108.397 152.996C111.687 150.166 108.157 144.196 102.897 140.106C97.0365 135.556 89.1465 133.066 88.1965 134.106Z" fill="#1C9127"/>
<path d="M81.5365 126.706C80.7765 126.176 76.6465 127.156 73.3665 130.006C69.5665 133.306 65.5765 139.876 69.4765 143.396C71.8765 145.566 75.9565 142.396 78.4865 138.126C81.2965 133.376 82.3965 127.306 81.5365 126.706Z" fill="#1C9127"/>
</svg>
