<svg width="83" height="85" viewBox="0 0 83 85" fill="none" xmlns="http://www.w3.org/2000/svg">
<path d="M1.72 84.15C1.57 84.24 1.91 84.5 1.95 84.57C2.08 84.3 1.64 84.08 1.72 84.15Z" fill="#404040"/>
<path d="M3.02 81.5L3.11 81.66L3.1 81.07L3.02 81.5Z" fill="#404040"/>
<path d="M4.88 79.66C4.2 79.33 4.29 80.41 3.78 80.56L3.61 80.5L3.87 81.05C4.21 80.59 4.46 79.8 4.88 79.66Z" fill="#404040"/>
<path d="M6.95 79.77C6.69 79.63 6.99 79.39 6.66 79.94C6.7 79.94 6.72 79.94 6.75 79.94C6.79 79.9 6.84 79.84 6.95 79.76V79.77Z" fill="#404040"/>
<path d="M6.75 79.95C7.04 79.99 6.57 80.16 6.75 79.95V79.95Z" fill="#404040"/>
<path d="M7.54 78.94L7.46 79.37C7.63 79.43 7.88 79.23 7.88 79.4C8.05 79.04 7.88 78.98 7.54 78.94Z" fill="#404040"/>
<path d="M7.41 78.32L7.35 78.53C7.42 78.56 7.47 78.53 7.41 78.32Z" fill="#404040"/>
<path d="M7.23 78.97L7.35 78.53C7.23 78.49 7.06 78.33 7.28 78.72C7.15 78.55 7.24 78.75 7.23 78.97Z" fill="#404040"/>
<path d="M6.99 79.05C6.74 79.08 6.48 79.2 6.56 78.77C6.14 79.33 6.56 79.61 6.99 79.05Z" fill="#404040"/>
<path d="M4.45 79.05L4.11 79.09V79.43C4.11 79.26 4.62 79.2 4.45 79.05Z" fill="#404040"/>
<path d="M9.4 77.6C9.31 77.48 9.03 77.4 8.87 77.28L8.8 77.59C8.97 77.57 9.22 77.45 9.39 77.59L9.4 77.6Z" fill="#404040"/>
<path d="M8.87 77.28L8.97 76.81C8.7 77.04 8.74 77.18 8.87 77.28Z" fill="#404040"/>
<path d="M6.9 77.72L6.82 78.57L6.98 77.62L6.9 77.72Z" fill="#404040"/>
<path d="M10.49 76.53L10.58 76.94L10.49 76.28V76.53Z" fill="#404040"/>
<path d="M11.16 75.77C11.25 76.09 11.67 75.96 11.67 76.21C11.83 75.98 11.82 75.63 11.81 75.33C11.74 75.58 11.55 75.73 11.16 75.78V75.77Z" fill="#404040"/>
<path d="M11.83 74.84C11.8 74.97 11.81 75.14 11.81 75.32C11.85 75.19 11.86 75.04 11.83 74.84Z" fill="#404040"/>
<path d="M9.5 76.39C9.59 76.43 9.8 76.56 10.03 76.47L9.62 76.28C9.62 76.28 9.54 76.35 9.5 76.39Z" fill="#404040"/>
<path d="M9.6 76.27H9.61C9.74 76.16 9.83 76.08 9.87 76.05C9.84 76.08 9.76 76.14 9.6 76.27Z" fill="#404040"/>
<path d="M9.47 76.41C9.47 76.41 9.49 76.39 9.5 76.38C9.46 76.36 9.44 76.36 9.47 76.41Z" fill="#404040"/>
<path d="M7.91 77.25C7.91 76.91 8.07 76.39 7.48 76.46C7.57 76.79 7.91 76.74 7.91 77.25Z" fill="#404040"/>
<path d="M8.96 76.17L8.59 76.4C8.68 76.47 8.85 76.54 8.85 76.7L8.96 76.17Z" fill="#404040"/>
<path d="M9.01 75.93L8.96 76.17L9.09 76.09L9.01 75.93Z" fill="#404040"/>
<path d="M11.04 75.08C11.04 74.82 11.17 74.66 11.31 74.48C11.08 74.59 10.87 74.74 10.7 74.91C10.77 75.03 10.87 75.27 11.04 75.08Z" fill="#404040"/>
<path d="M10.31 75.63C10.31 75.63 10.32 75.6 10.32 75.58C10.28 75.58 10.25 75.58 10.31 75.63Z" fill="#404040"/>
<path d="M12.89 72.9C12.89 72.9 12.84 72.88 12.81 72.87C12.83 72.89 12.84 72.91 12.86 72.93L12.89 72.9Z" fill="#404040"/>
<path d="M10.61 74.88C10.42 74.95 10.42 75.1 10.44 75.27C10.51 75.14 10.59 75.02 10.7 74.91C10.67 74.86 10.64 74.83 10.61 74.88Z" fill="#404040"/>
<path d="M12.13 74.26C12 74.26 11.87 74.29 11.74 74.32C11.9 74.35 12.19 74.36 12.13 74.26Z" fill="#404040"/>
<path d="M10.45 75.63C10.45 75.63 10.45 75.65 10.45 75.66C10.56 75.68 10.52 75.66 10.45 75.63Z" fill="#404040"/>
<path d="M10.45 75.63C10.47 75.52 10.45 75.39 10.44 75.27C10.39 75.37 10.34 75.48 10.33 75.59C10.37 75.59 10.42 75.61 10.46 75.63H10.45Z" fill="#404040"/>
<path d="M11.43 70.48C11.69 70.78 11.61 71.38 11.01 71.37C10.93 71.87 12.04 72.6 12.81 72.86C12.7 72.73 12.58 72.62 12.72 72.15C12.46 72.1 11.7 72.45 11.7 71.95C11.95 71.41 12.12 71.73 12.46 71.68C11.95 71.49 12.46 70.67 11.85 70.24L11.69 70.77C11.6 70.7 11.6 70.44 11.43 70.47V70.48Z" fill="#404040"/>
<path d="M12.21 73.41L12.12 73.57C12.31 73.48 12.52 73.49 12.92 73.53C12.99 73.19 12.92 73.04 12.85 72.94L12.21 73.5V73.41Z" fill="#404040"/>
<path d="M11.58 74.12C11.37 73.72 11.53 73.3 11.03 73.15C10.69 73.53 11.03 73.66 10.95 74C11.45 73.35 10.95 74.34 11.54 74.09C11.48 74.26 11.39 74.37 11.31 74.48C11.45 74.41 11.6 74.36 11.75 74.32H11.71C11.65 74.3 11.62 74.28 11.67 74.28C11.67 74.28 11.67 74.27 11.67 74.26C11.63 74.21 11.61 74.17 11.58 74.12C11.81 74.02 11.69 74.17 11.67 74.26C11.68 74.28 11.69 74.3 11.71 74.31L12.12 73.56C11.95 73.64 11.81 73.8 11.57 74.11L11.58 74.12Z" fill="#404040"/>
<path d="M7.14 75.5C7.14 75.5 7.21 75.53 7.23 75.55C7.23 75.48 7.22 75.44 7.14 75.5Z" fill="#404040"/>
<path d="M7.56 75.45C7.56 75.53 7.65 75.69 7.48 75.8C7.27 75.83 7.33 75.65 7.23 75.56C7.23 75.72 7.16 76.07 7.57 75.96V75.88C7.91 75.75 8.59 75.83 8.59 75.91C8.25 75.7 7.99 75.57 7.57 75.45H7.56Z" fill="#404040"/>
<path d="M9.51 74.69L9.84 74.06L9.33 74.04L9.5 74.19C9.16 74.4 9.42 74.54 9.5 74.69H9.51Z" fill="#404040"/>
<path d="M13.09 73L13.35 73.38L13.18 72.65L13.09 73Z" fill="#404040"/>
<path d="M13.68 72.33L13.94 72.64V72.3L13.68 72.33Z" fill="#404040"/>
<path d="M45.64 33.44L45.7 33.22C45.66 33.31 45.64 33.38 45.64 33.44Z" fill="#404040"/>
<path d="M44.59 34.44L44.7 34.6C44.67 34.48 44.64 34.4 44.59 34.44Z" fill="#404040"/>
<path d="M29.07 56.88C29.54 56.93 30.17 57.11 29.83 56.82L29.46 56.58C29.37 56.78 29.23 56.86 29.07 56.88Z" fill="#404040"/>
<path d="M37.8 44.49C37.8 44.49 37.7 44.47 37.65 44.46C37.7 44.62 37.75 44.76 37.8 44.89C37.8 44.77 37.8 44.63 37.8 44.49Z" fill="#404040"/>
<path d="M36.67 43.08L37.14 43.01C37.01 43.01 36.86 43.02 36.67 43.08Z" fill="#404040"/>
<path d="M50.92 27.5L50.77 27.02C50.51 27.28 50.78 27.32 50.92 27.5Z" fill="#404040"/>
<path d="M20 65.79C20.3 65.73 20.49 65.64 20.63 65.53C20.24 65.57 19.8 65.48 20 65.79Z" fill="#404040"/>
<path d="M48.49 37.1C48.52 36.96 48.49 36.86 48.42 36.79C48.38 36.93 48.39 37.04 48.49 37.1Z" fill="#404040"/>
<path d="M21.14 65.01C21.08 65.01 21.03 65.03 20.97 65.03C20.89 65.21 20.8 65.38 20.62 65.52C20.91 65.49 21.17 65.39 21.13 65L21.14 65.01Z" fill="#404040"/>
<path d="M71.53 7.4C71.53 7.4 71.58 7.39 71.61 7.4C71.57 7.35 71.55 7.37 71.53 7.4Z" fill="#404040"/>
<path d="M80.56 4.56C80.52 4.64 80.43 4.73 80.34 4.83C80.4 4.81 80.48 4.73 80.56 4.56Z" fill="#404040"/>
<path d="M16.34 69.94C16.35 69.99 16.23 70.09 16.34 69.94V69.94Z" fill="#404040"/>
<path d="M14.48 69.37C14.48 69.31 14.45 69.24 14.38 69.17C14.44 69.25 14.47 69.32 14.48 69.37Z" fill="#404040"/>
<path d="M20.56 61.78H20.57C20.47 61.75 20.49 61.75 20.56 61.78Z" fill="#404040"/>
<path d="M16 70C16.09 69.99 16.18 69.96 16.26 69.92C16.21 69.92 16.13 69.95 16 70Z" fill="#404040"/>
<path d="M16.18 70.12C16.12 70.15 16.08 70.18 16.03 70.21C16.06 70.28 16.11 70.29 16.18 70.12Z" fill="#404040"/>
<path d="M16.51 69.74C16.44 69.82 16.35 69.88 16.26 69.92C16.31 69.92 16.34 69.92 16.34 69.94C16.37 69.9 16.42 69.83 16.51 69.74Z" fill="#404040"/>
<path d="M61.45 19.13C61.45 19.13 61.48 19.13 61.51 19.13C61.51 18.87 61.48 18.95 61.45 19.13Z" fill="#404040"/>
<path d="M29.35 50.23C29.35 50.23 29.35 50.25 29.35 50.26C29.35 50.26 29.37 50.26 29.38 50.26L29.35 50.24V50.23Z" fill="#404040"/>
<path d="M29.6 49.53C29.78 50.12 29.62 50.18 29.38 50.26L30.42 50.99L29.6 49.54V49.53Z" fill="#404040"/>
<path d="M48.01 30.89L47.4 30.95C47.35 30.09 47.8 29.95 47.1 29.88C48.01 30.89 45.89 31.28 46.81 32.29L46.39 32.31C46.46 32.26 46.42 32.19 46.49 32.14C45.6 32.11 46.86 33.15 46.17 33.57C45.9 33.69 45.63 33.69 45.65 33.44L45.46 34.11C45.32 34.22 45.18 34.02 45.32 33.91L44.74 34.64L44.72 34.61C44.78 34.85 44.8 35.3 44.79 35.5C44.49 35.53 44.77 35.31 44.61 35.24L44.48 35.84C44.08 35.74 44.14 35.2 44.43 34.98C43.13 34.36 44.37 35.52 43.08 35.7L43.3 35.23C42.53 34.91 42.46 35.37 41.74 35.42C42.01 35.51 43.37 35.5 43.22 36.13C43.04 36.17 42.86 36.28 42.84 36.69C42.5 36.35 42.37 36.64 42.13 36.92L41.7 36.45C41.55 36.86 41.8 37.07 41.84 37.44C41.48 37.71 41.07 37.42 40.7 37.2C40.13 37.63 41.61 37.41 41.1 38.09C40.51 38.33 40.4 38.81 40.17 39.58C39.72 39.72 39.94 39.25 39.71 39.23L39.81 39.85C39.74 39.9 39.65 39.77 39.6 39.71C39.52 40.07 40.03 40.18 39.81 40.65C40.22 41.24 38.38 40.63 38.52 41.62C38.29 41.6 38.29 41.29 38.09 41.15C37.88 42.1 37.86 41.92 37.88 42.9L37.18 43.01C37.82 43.05 37.84 43.83 37.83 44.5C38.1 44.56 38.33 44.61 38.46 44.62L38.17 45.4C38.03 45.4 37.93 45.18 37.83 44.9C37.83 44.97 37.83 45.05 37.84 45.11C37.48 45.13 37.32 44.77 37.2 44.38C37.35 44.4 37.51 44.43 37.67 44.47C37.53 44.06 37.35 43.64 37.05 43.4C37.07 43.49 37.05 43.6 37 43.7C36.96 43.59 36.92 43.5 36.85 43.47C36.78 43.44 36.83 43.6 36.85 43.8L36.22 43.42L36.39 43.65L35.37 44.03C35.37 45.04 35.69 46.22 35.1 47.22C34.93 46.65 34.54 46.57 34.11 46.12C34.79 46.37 34.53 45.31 35.03 44.99C34.77 45.16 34.6 44.9 34.59 44.77L34.28 45.93C33.94 45.55 33.86 45.82 33.52 45.86C34.37 46.42 33.44 46.88 33.36 47.4C33.1 47.18 32.93 46.87 33.36 46.56C32.42 46.43 33.67 47.91 32.82 47.85C32.9 47.75 32.99 47.74 32.9 47.59C32.9 48.01 32.23 48.35 32.14 48.02L32.22 47.93C31.54 48.44 30.42 49.72 30.93 50.41C30.85 50.34 30.28 49.61 30.2 49.45L31.17 52.53C30.75 51.92 29.16 51.05 29.36 50.26C29.15 50.33 28.89 50.42 28.77 50.89C28.94 50.87 29.76 51.4 29.67 51.58C28.73 51.37 29.11 51.52 28.18 51.48C28.43 51.45 29.08 52.42 28.83 52.62C28.74 52.46 28.01 51.84 28.01 51.67L28.24 53.03C28.24 52.75 27.59 52.33 27.24 52.23C27.45 52.33 26.74 52.71 26.66 52.94L27.08 52.88C26.32 53.4 27.57 54.63 26.89 55.22C26.8 54.98 26.07 54.02 25.65 54.24C25.91 54.8 26.95 56.85 26.71 57.73L26.37 57.61L26.2 58.31C25.86 57.43 25.32 55.39 25.23 54.47C24.81 54.52 24.89 54.26 24.55 54.64C24.21 54.55 24.41 54.11 24.51 54L23.53 54.69C24.04 55.13 23.37 55.8 23.8 56.17L24.21 54.77C24.72 55.21 25.04 56.64 24.36 57.15C24.02 57.11 23.63 56.19 23.46 56.05C23.55 56.29 23.21 56.92 23.04 56.86V56.36C22.53 56.51 23.13 57.53 22.28 57.47C22.11 57.58 21.26 57.27 21.52 57.57C22.28 57.89 24.01 59.52 24.27 60.08C24.19 60.09 23.03 60.28 22.61 60.17C21.96 59.97 21.93 58.82 21.38 58.65C21.5 58.79 21.54 59.07 21.54 59.18C21.29 59.21 21.2 58.72 20.94 59.09C21.37 59.62 20.27 59.68 21.2 59.64C21.03 60.08 20.78 59.86 20.44 60.24C20.87 60.44 21.18 61.62 21.01 62.06C20.91 61.92 20.68 61.83 20.57 61.79C19.9 62.37 19.35 62.49 18.76 63.07C18.59 63.01 18.17 63.15 18.08 62.82C18.08 62.99 18.17 63.23 18 63.42C17.24 63.35 18.34 62.95 17.57 62.72C17.83 63.02 17.49 63.57 17.41 64C17.92 64.35 18.08 63.49 18.17 63.06C18.77 63.66 18.95 64.73 18.61 65.61C18.27 66.24 18.01 65.43 18.02 65.61C17.01 66.41 18.29 67.43 17.1 67.75C16.42 67.67 16.33 67.01 15.99 66.8C16.24 66.26 16.84 66.44 17.09 66.15L16.58 66.3C16.58 66.05 16.75 65.69 17 65.66C16.41 65.57 15.4 67.13 14.38 67.51C14.38 67.76 14.3 68.11 14.55 68.16L14.72 67.88C15.23 67.98 14.72 68.72 15.15 68.58C15.07 69.09 15.07 69.77 14.48 70.01L13.97 69.66C14.11 69.78 14.5 69.64 14.49 69.39C14.51 69.76 13.26 69.45 13.64 70.2H14.23C14.15 70.72 14.24 71.55 13.73 71.79C14.33 72.05 13.77 71.66 14.53 71.89C13.68 71.49 15.51 70.97 14.48 70.68C15.33 70.99 15.2 70.46 16.04 70.6C15.89 70.47 15.64 70.45 16.02 70.21C15.99 70.15 15.97 70.07 15.96 70.02C15.97 70.02 15.98 70.02 15.99 70.01C15.98 70.01 15.97 70.01 15.96 70.01C15.96 69.97 15.95 69.97 15.95 70.01C15.81 70.02 15.68 70.01 15.57 69.95C15.4 69.47 15.9 68.98 15.9 68.64C16.15 68.52 15.99 68.88 16.24 68.93V68.43C16.58 68.72 17.26 68.47 17.01 69.09L17.42 68.71C17.83 68.66 18.22 68.41 18.28 68.08C18.53 67.96 18.4 67.26 18.48 67.67L18.9 66.86L18.99 66.93C19.64 66.36 19.71 65.16 20.98 65.03C21.1 64.75 21.22 64.44 21.65 64.19L21.99 64.4C22.16 64.04 23.05 63.89 22.88 63.49C23.9 63.95 24.31 62.38 24.91 62.05L24.57 61.67C24.91 61.37 25.11 60.97 25.36 60.43L25.02 60.14C25.1 59.54 26.12 59.49 26.62 58.92C26.7 59.08 26.54 59.18 26.37 59.21C27.73 59.28 27.2 57.33 28.31 57.27C28.34 57.01 28.48 56.94 28.67 56.92C28.66 56.93 28.65 56.95 28.65 56.97C28.67 56.96 28.69 56.94 28.71 56.91C28.83 56.91 28.96 56.9 29.08 56.88C28.94 56.86 28.82 56.86 28.74 56.88C28.85 56.76 28.98 56.55 29.06 56.31L29.47 56.58C29.47 56.58 29.49 56.55 29.5 56.53C29.79 56.49 29.47 56.24 29.13 56.07C29.16 55.93 29.17 55.79 29.14 55.64C29.82 56.06 29.39 55.02 30.16 55.42C29.99 55.02 30.78 54.37 30.27 53.68C30.35 53.75 30.44 53.74 30.36 53.84C30.61 53.72 30.87 53.61 30.86 53.27L31.37 53.62L31.19 52.63C31.7 52.65 31.96 52.7 32.04 53.28C32.12 52.18 32.33 52.61 32.32 51.6L32.58 51.9C32.75 51.71 32.66 51.05 33 51.17C33.93 51.3 35.06 49.26 36.58 48.72C35.56 48.1 37.43 48.61 36.83 47.93C37.08 48.06 37.34 48.03 37.34 48.37C37.67 47.65 38.44 47.89 38.26 46.99C38.52 47.13 38.43 47.39 38.6 47.45C38.6 47.37 38.6 47.11 38.77 47.18C38.94 47.24 38.86 47.42 38.86 47.59C39.36 47.02 38.82 46.37 38.29 45.76C38.83 45.76 38.93 45.58 38.75 45.02C39.03 45.11 39.38 45.14 39.11 45.54C39.32 45.38 40.53 44.66 40.09 44.19C40.26 44.25 40.39 43.96 40.38 43.86C40.83 43.47 40.91 43.47 41.28 43.01L41.09 43.05C40.71 42.34 41.31 42.58 41.58 42.19L41.63 42.26C42.79 41.89 41.77 41.74 42.97 41.44L42.59 41.14C41.93 40.34 43.69 40.9 43.85 40.19L43.5 40.15C43.49 39.66 45.16 40.47 45.49 40.33C45.61 40.34 45.51 40.51 45.49 40.63C46.55 40.43 45.13 40.1 45.49 39.53C45.82 39.68 45.99 40.25 46.35 39.98C46.7 40.02 46.49 38.29 47.38 38.32C47.1 38.23 46.82 38.14 46.9 37.78C47.17 37.38 48.5 37.58 48.22 36.69C48.31 36.69 48.38 36.73 48.42 36.77C48.52 36.37 49 35.69 48.84 35.22C50.25 36.16 49.85 33.07 50.93 34.15L51.66 33.31L51.75 33.44C52.32 33.01 52.24 32.57 52.16 32.14C52.35 32.1 52.37 32.28 52.41 32.35C53.36 31.84 53.39 31.72 53.46 30.57L53.87 30.86C53.83 30.49 55.48 30.35 55.79 29.22C55.82 29.27 55.88 29.35 55.87 29.46C56.27 28.24 58.78 28.5 57.8 26.93L58.02 26.08C57.23 26.67 57.57 25.42 57.07 25.5C57.27 25.15 58.16 25.18 57.89 25.58H57.77C58.31 26.36 58.86 24.95 59.3 25.42C60.62 24.03 62.32 23.08 63.61 21.83L62.95 21.46L63.42 21.05C63.66 21.05 63.98 21.3 63.64 21.59C64.1 21.72 63.92 20.81 63.82 20.69C64.65 20.28 64.18 21.54 64.38 21.36L64.6 21.06H64.48C64.48 20.64 64.27 20.39 64.68 20.04C65.02 19.9 65.12 20.24 65.24 20.16C65.28 20.2 65.33 20.18 65.4 20.03L66 19.52L65.37 19.33C65.42 18.88 65.92 18.83 65.2 18.62C66.29 18.95 67.54 16.79 67.99 16.78C68.04 16.14 68.39 15.8 68.85 15.41C68.66 15.43 68.14 15.03 68.56 14.72C69.37 15.8 69.64 14.46 70.62 14.85C69.9 14.66 71.55 13.7 70.49 13.47C70.87 13.24 70.86 13.81 71.32 13.8C71.68 12.71 73.16 12.44 73.93 11.42C73.82 11.28 73.48 11.24 73.49 10.86L74.59 11.01C74.71 10.77 74.04 10.13 74.79 10.24C74.64 10.18 74.41 10.09 74.49 9.93C76.85 8.78 77.59 5.84 80.51 5.19C80.03 5.19 80.16 5.01 80.34 4.81C80.16 4.87 80.04 4.5 79.84 4.35L81.06 4.07C80.73 3.47 81.83 3.24 81.46 2.71L81.3 3.03C81.09 2.19 79.69 2.3 79.05 1.57C79.3 2.52 77.23 1.61 77.51 3.05C77.24 3.04 77.4 2.72 77.18 2.63C77.32 3.07 77.21 3.3 76.75 3.5L76.72 3.39C75.87 4.38 75.19 4.49 73.96 5.34L74.37 5.6C74.1 5.78 73.95 5.72 73.76 5.74C74.01 6.5 74.41 5.14 74.74 5.94C73.76 5.55 73.16 7.5 72.19 6.92C71.84 7.26 72.68 7.21 72.33 7.55L72.03 7.43L72.21 7.79C71.94 7.97 71.57 7.82 71.38 7.65C71.46 7.62 71.48 7.45 71.53 7.37C70.99 7.41 70.79 8.27 70.61 8.29L71.07 8.09C70.33 9.22 68.92 10.09 68.44 11.42L68.67 11.51C68.27 12.49 67.94 11.89 67.32 12.78V12.71C67.32 13.02 67.19 13.3 66.97 13.49C66.97 13.11 66.25 13.49 66.3 13.03C65.87 14.09 66.18 13.65 66.27 14.73L65.89 14.58C65.96 14.99 66.07 15.12 65.76 15.57C65.84 15.03 65.12 15.41 65.17 14.77C63.8 14.99 64.57 16.53 63.37 16.05C63.73 17.14 64.46 15.77 64.41 16.13C64.82 16.2 64.65 16.97 64.33 17.15C64.06 17.39 62.97 16.65 62.35 17.3C62.42 17.24 62.37 17.18 62.43 17.12C62.01 17.17 62.21 17.84 61.62 17.83C61.89 18.43 61.21 18.18 61.73 18.79L62.19 18.08C62 18.56 62.35 19.52 61.49 19.75C61.42 19.59 61.43 19.28 61.46 19.09C61.14 19.09 61.26 19.51 60.93 19.5C60.42 18.89 61.52 18.67 61.45 17.89C61.04 17.83 61.18 18.97 60.76 18.18C61.27 19.21 60.03 18.71 60.19 19.73L59.88 19.37C59.86 19.49 59.88 19.79 59.75 19.91L59.54 19.25C59.56 19.97 58.54 19.6 58.41 20.14C59.1 19.43 58.97 20.39 59.51 20.33C59.09 21.64 58.13 19.95 57.33 21.08C57.41 20.9 58.02 20.79 57.97 21.15C57.72 21.27 57.34 21.38 57.05 21.32C56.48 22.03 57.49 21.57 57.43 22.05C56.8 21.86 57.28 22.53 57.13 22.94L56.79 22.6C55.84 23.11 57.31 23.51 56.38 23.9L56.19 23.15L55.97 23.62L55.65 23.16C55.56 23.82 55.37 23.86 54.9 24.12C55.23 24.28 55.47 24.79 55.16 25.12C54.74 25.14 54.96 24.67 54.55 25.18C54.44 24.86 54.29 24.48 54.8 24.6C54.71 24.47 54.69 24.28 54.6 24.15C54.13 24.15 53.95 24.69 53.79 24.86C53.87 24.81 53.96 24.75 54.05 24.76L53.86 25.9C53.63 25.88 53.61 25.69 53.59 25.51C53.49 25.68 53.56 25.93 53.39 26.16C53.16 25.83 52.87 25.56 53.02 25.15L52.69 26.09C52.53 26.01 52.03 26.09 52.01 25.9C51.5 26.09 51.68 27.3 51 27.55C51.03 27.63 51.03 27.73 50.97 27.87C50.47 28.25 49.74 28.29 49.6 29.19L48.81 28.99C48.52 29.51 49.84 29.22 49.35 30.08C49.03 30.72 48.75 29.83 48.44 29.86C48.45 30.35 48.55 31.27 47.7 31.31C47.75 31.07 47.94 31.03 48.04 30.86L48.01 30.89ZM43.21 36.13C43.24 35.96 43.21 35.55 43.48 35.68C43.76 36.18 43.48 36.08 43.21 36.13ZM36.4 44.58C36.36 44.39 36.53 44.34 36.78 44.34C36.72 44.46 36.6 44.55 36.4 44.58ZM17.52 68.21C17.52 68.21 17.52 68.19 17.52 68.18C17.87 68.1 17.74 68.12 17.52 68.21ZM16.92 68.51C16.92 68.6 16.97 68.65 17.04 68.68C16.99 68.56 17.08 68.45 17.22 68.36C17.1 68.3 16.98 68.3 16.92 68.51ZM65.16 20H64.98C65.08 19.7 65.11 19.85 65.16 20Z" fill="#404040"/>
<path d="M36.8 43.24C36.89 43.27 36.96 43.33 37.03 43.38C37.01 43.28 36.95 43.22 36.8 43.24Z" fill="#404040"/>
<path d="M50.95 27.59C50.95 27.59 50.96 27.59 50.97 27.58C50.96 27.55 50.94 27.53 50.92 27.5L50.95 27.59Z" fill="#404040"/>
<path d="M21.01 58.64C21.15 58.6 21.27 58.61 21.36 58.64C21.28 58.55 21.17 58.52 21.01 58.64Z" fill="#404040"/>
<path d="M15.12 71.47L15.32 71.09C15.2 71.25 15.07 71.22 14.95 71.24C15.04 71.31 15.21 71.37 15.12 71.47Z" fill="#404040"/>
<path d="M10.5 71.87C10.5 71.95 10.42 71.96 10.42 72.05L10.59 72.2C10.76 72.01 10.76 71.76 10.5 71.87Z" fill="#404040"/>
<path d="M13.72 70.61C13.41 70.35 13.33 70.62 13.18 70.88C13.19 70.87 13.2 70.85 13.22 70.84C13.56 71.3 13.64 70.95 13.73 70.61H13.72Z" fill="#404040"/>
<path d="M13.14 70.93C13.09 71.01 13.04 71.08 12.96 71.12C13.1 71.3 13.07 71.08 13.14 70.93Z" fill="#404040"/>
<path d="M16.55 69.27C16.38 69.29 16.86 69.7 16.69 69.63C16.95 70.1 16.89 68.55 16.55 69.27Z" fill="#404040"/>
<path d="M12.61 69.82L13.04 70.11L12.86 69.71L12.61 69.82Z" fill="#404040"/>
<path d="M14.47 68.49L14.05 68.72C14.11 68.77 14.11 68.85 14.08 68.93C14.29 68.74 14.58 68.6 14.47 68.5V68.49Z" fill="#404040"/>
<path d="M14.08 68.92C13.97 69.02 13.88 69.12 13.88 69.24C13.93 69.18 14.04 69.05 14.08 68.92Z" fill="#404040"/>
<path d="M12.95 69.28L13.11 69.25L13.37 69.05L12.95 69.28Z" fill="#404040"/>
<path d="M18.01 65.09L18.26 64.64C18.17 64.48 18 64.5 17.92 64.68C17.92 64.85 17.84 65.03 18.01 65.09Z" fill="#404040"/>
<path d="M15.97 65.18C16.14 65.16 16.22 65.23 16.39 65.29L15.96 64.84V65.18H15.97Z" fill="#404040"/>
<path d="M16.9 64.05C16.81 63.89 17.06 63.19 16.64 63.66C16.72 63.82 16.47 64.27 16.9 64.05Z" fill="#404040"/>
<path d="M22.76 59.3L22.68 59.39L23.41 60.1L22.76 59.3Z" fill="#404040"/>
<path d="M25.72 52.89C25.13 53.14 26.07 53.43 25.47 53.6C25.54 53.87 25.95 53.47 26 53.72C26.07 53.29 26.31 53.26 25.72 52.9V52.89Z" fill="#404040"/>
<path d="M26 53.71C25.99 53.78 25.98 53.86 25.98 53.95C26.01 53.83 26.01 53.76 26 53.71Z" fill="#404040"/>
<path d="M81.93 3.97L82.35 3.85L81.93 3.78V3.97Z" fill="#404040"/>
<path d="M81.91 2.92L82.43 3.32L82.18 2.74C82.14 2.82 82.06 2.98 81.91 2.92Z" fill="#404040"/>
<path d="M41.54 35.95L41.63 36.08C41.79 36.16 41.86 36.1 42.01 36L41.54 35.95Z" fill="#404040"/>
<path d="M45.52 32.65L45.45 32.7L45.99 33L45.52 32.65Z" fill="#404040"/>
<path d="M48.05 29.06C47.91 29.17 47.85 29.41 47.71 29.51C47.91 29.16 48.6 29.54 48.05 29.06Z" fill="#404040"/>
<path d="M82.56 80.71C82.65 80.86 82.91 80.52 82.98 80.48C82.71 80.35 82.49 80.79 82.56 80.71Z" fill="#404040"/>
<path d="M79.91 79.41L80.07 79.32L79.48 79.33L79.91 79.41Z" fill="#404040"/>
<path d="M78.07 77.55C77.74 78.23 78.82 78.14 78.97 78.65L78.91 78.82L79.46 78.56C79 78.22 78.21 77.98 78.07 77.55Z" fill="#404040"/>
<path d="M78.18 75.48C78.04 75.74 77.8 75.44 78.35 75.77C78.35 75.73 78.35 75.71 78.35 75.68C78.31 75.64 78.25 75.59 78.17 75.48H78.18Z" fill="#404040"/>
<path d="M78.36 75.68C78.4 75.39 78.57 75.86 78.36 75.68V75.68Z" fill="#404040"/>
<path d="M77.35 74.89L77.78 74.97C77.84 74.8 77.64 74.55 77.81 74.55C77.45 74.38 77.39 74.55 77.35 74.89Z" fill="#404040"/>
<path d="M76.74 75.02L76.95 75.08C76.98 75.01 76.95 74.96 76.74 75.02Z" fill="#404040"/>
<path d="M77.38 75.2L76.94 75.08C76.9 75.2 76.74 75.37 77.13 75.15C76.96 75.28 77.16 75.19 77.38 75.2Z" fill="#404040"/>
<path d="M77.46 75.44C77.49 75.69 77.61 75.95 77.18 75.87C77.74 76.29 78.02 75.87 77.46 75.44Z" fill="#404040"/>
<path d="M77.46 77.98L77.5 78.32H77.84C77.67 78.32 77.61 77.81 77.46 77.98Z" fill="#404040"/>
<path d="M76.01 73.04C75.89 73.13 75.81 73.41 75.69 73.57L76 73.64C75.98 73.47 75.86 73.22 76 73.05L76.01 73.04Z" fill="#404040"/>
<path d="M75.69 73.56L75.22 73.46C75.45 73.73 75.58 73.69 75.69 73.56Z" fill="#404040"/>
<path d="M76.13 75.53L76.98 75.61L76.03 75.45L76.13 75.53Z" fill="#404040"/>
<path d="M74.94 71.94L75.35 71.85L74.69 71.94H74.94Z" fill="#404040"/>
<path d="M74.18 71.27C74.5 71.18 74.37 70.76 74.62 70.76C74.39 70.6 74.05 70.61 73.74 70.62C73.99 70.69 74.13 70.88 74.19 71.27H74.18Z" fill="#404040"/>
<path d="M73.25 70.6C73.38 70.63 73.55 70.62 73.73 70.62C73.6 70.58 73.45 70.57 73.25 70.6Z" fill="#404040"/>
<path d="M74.8 72.93C74.84 72.84 74.97 72.63 74.88 72.4L74.69 72.81C74.69 72.81 74.76 72.89 74.8 72.93Z" fill="#404040"/>
<path d="M74.68 72.83C74.57 72.69 74.49 72.6 74.46 72.56C74.49 72.59 74.55 72.67 74.68 72.83Z" fill="#404040"/>
<path d="M74.82 72.96C74.82 72.96 74.8 72.94 74.79 72.93C74.77 72.97 74.77 72.99 74.82 72.96Z" fill="#404040"/>
<path d="M75.66 74.52C75.32 74.52 74.8 74.36 74.87 74.95C75.2 74.86 75.15 74.52 75.66 74.52Z" fill="#404040"/>
<path d="M74.58 73.48L74.81 73.85C74.88 73.76 74.95 73.59 75.11 73.59L74.58 73.48Z" fill="#404040"/>
<path d="M74.34 73.42L74.58 73.48L74.5 73.34L74.34 73.42Z" fill="#404040"/>
<path d="M73.49 71.39C73.23 71.39 73.08 71.26 72.89 71.12C73 71.35 73.15 71.56 73.32 71.73C73.44 71.66 73.68 71.56 73.49 71.39Z" fill="#404040"/>
<path d="M74.04 72.12C74.04 72.12 74.01 72.11 73.99 72.11C73.99 72.15 73.99 72.18 74.04 72.12Z" fill="#404040"/>
<path d="M71.31 69.54C71.31 69.54 71.29 69.59 71.28 69.62C71.3 69.6 71.32 69.59 71.34 69.57L71.31 69.54Z" fill="#404040"/>
<path d="M73.29 71.82C73.36 72.01 73.51 72.01 73.68 71.99C73.55 71.92 73.43 71.84 73.32 71.73C73.27 71.76 73.24 71.79 73.29 71.81V71.82Z" fill="#404040"/>
<path d="M72.67 70.3C72.67 70.43 72.7 70.56 72.73 70.69C72.76 70.53 72.77 70.25 72.67 70.3Z" fill="#404040"/>
<path d="M74.04 71.98C74.04 71.98 74.06 71.98 74.07 71.98C74.09 71.87 74.07 71.91 74.04 71.98Z" fill="#404040"/>
<path d="M74.04 71.98C73.93 71.96 73.8 71.98 73.68 71.99C73.78 72.04 73.89 72.09 74 72.1C74 72.06 74.02 72.01 74.04 71.97V71.98Z" fill="#404040"/>
<path d="M68.89 71C69.19 70.74 69.79 70.82 69.78 71.42C70.28 71.5 71.01 70.39 71.27 69.62C71.14 69.73 71.03 69.85 70.56 69.71C70.51 69.97 70.86 70.73 70.36 70.73C69.82 70.48 70.14 70.31 70.09 69.97C69.9 70.48 69.08 69.97 68.65 70.58L69.18 70.74C69.11 70.83 68.85 70.83 68.88 71H68.89Z" fill="#404040"/>
<path d="M71.82 70.22L71.98 70.31C71.89 70.12 71.9 69.91 71.94 69.51C71.6 69.44 71.45 69.51 71.35 69.58L71.91 70.22H71.82Z" fill="#404040"/>
<path d="M72.53 70.85C72.13 71.06 71.71 70.89 71.56 71.4C71.94 71.74 72.07 71.4 72.41 71.48C71.76 70.98 72.75 71.48 72.5 70.89C72.67 70.95 72.78 71.04 72.89 71.12C72.82 70.98 72.77 70.83 72.73 70.68C72.73 70.69 72.73 70.7 72.73 70.71C72.72 70.78 72.7 70.81 72.7 70.76C72.7 70.76 72.69 70.76 72.68 70.76C72.63 70.8 72.59 70.82 72.54 70.85C72.44 70.62 72.59 70.74 72.68 70.76C72.7 70.75 72.72 70.74 72.73 70.72L71.98 70.3C72.06 70.47 72.22 70.61 72.53 70.85Z" fill="#404040"/>
<path d="M73.91 75.29C73.91 75.29 73.94 75.22 73.96 75.2C73.89 75.2 73.85 75.21 73.91 75.29Z" fill="#404040"/>
<path d="M73.86 74.87C73.94 74.87 74.1 74.78 74.21 74.95C74.24 75.16 74.06 75.1 73.97 75.2C74.13 75.2 74.48 75.27 74.37 74.86H74.29C74.16 74.52 74.24 73.84 74.32 73.84C74.11 74.18 73.98 74.44 73.87 74.86L73.86 74.87Z" fill="#404040"/>
<path d="M73.1 72.92L72.47 72.59L72.45 73.1L72.6 72.93C72.81 73.27 72.95 73.01 73.1 72.93V72.92Z" fill="#404040"/>
<path d="M71.41 69.34L71.79 69.08L71.06 69.25L71.41 69.34Z" fill="#404040"/>
<path d="M70.74 68.75L71.05 68.49H70.71L70.74 68.75Z" fill="#404040"/>
<path d="M31.85 36.79L31.63 36.73C31.72 36.77 31.79 36.79 31.85 36.79Z" fill="#404040"/>
<path d="M32.86 37.84L33.02 37.73C32.9 37.76 32.82 37.79 32.86 37.84Z" fill="#404040"/>
<path d="M55.29 53.36C55.34 52.89 55.52 52.26 55.23 52.6L54.99 52.97C55.19 53.06 55.27 53.2 55.29 53.36Z" fill="#404040"/>
<path d="M42.9 44.63C42.9 44.63 42.88 44.73 42.87 44.78C43.03 44.72 43.17 44.68 43.3 44.63C43.18 44.63 43.04 44.63 42.9 44.63Z" fill="#404040"/>
<path d="M41.49 45.76L41.42 45.29C41.42 45.42 41.43 45.57 41.49 45.76Z" fill="#404040"/>
<path d="M25.91 31.51L25.43 31.66C25.69 31.92 25.73 31.65 25.91 31.51Z" fill="#404040"/>
<path d="M64.2 62.43C64.14 62.13 64.05 61.94 63.94 61.8C63.98 62.19 63.89 62.63 64.2 62.43Z" fill="#404040"/>
<path d="M35.51 33.94C35.37 33.91 35.27 33.94 35.2 34C35.34 34.04 35.45 34.03 35.51 33.94Z" fill="#404040"/>
<path d="M63.42 61.29C63.42 61.35 63.44 61.4 63.44 61.46C63.62 61.54 63.79 61.63 63.93 61.81C63.9 61.52 63.8 61.26 63.41 61.3L63.42 61.29Z" fill="#404040"/>
<path d="M5.81 10.9C5.81 10.9 5.8 10.85 5.81 10.82C5.76 10.86 5.78 10.88 5.81 10.9Z" fill="#404040"/>
<path d="M2.98 1.87C3.06 1.91 3.15 2 3.25 2.09C3.23 2.03 3.15 1.95 2.98 1.87Z" fill="#404040"/>
<path d="M68.35 66.09C68.41 66.08 68.5 66.2 68.35 66.09V66.09Z" fill="#404040"/>
<path d="M67.78 67.95C67.72 67.95 67.65 67.98 67.58 68.05C67.66 67.99 67.73 67.96 67.78 67.95Z" fill="#404040"/>
<path d="M60.19 61.87H60.18C60.16 61.96 60.16 61.94 60.19 61.87Z" fill="#404040"/>
<path d="M68.41 66.43C68.4 66.34 68.37 66.25 68.33 66.17C68.33 66.22 68.36 66.3 68.41 66.43Z" fill="#404040"/>
<path d="M68.53 66.25C68.56 66.31 68.59 66.35 68.62 66.4C68.69 66.37 68.71 66.32 68.53 66.25Z" fill="#404040"/>
<path d="M68.15 65.92C68.23 65.99 68.29 66.08 68.33 66.17C68.33 66.12 68.33 66.09 68.35 66.09C68.31 66.06 68.25 66.01 68.15 65.92Z" fill="#404040"/>
<path d="M17.54 20.98C17.54 20.98 17.54 20.95 17.54 20.92C17.28 20.92 17.36 20.95 17.54 20.98Z" fill="#404040"/>
<path d="M48.64 53.08C48.64 53.08 48.66 53.08 48.67 53.08V53.05L48.64 53.08Z" fill="#404040"/>
<path d="M47.94 52.83C48.53 52.65 48.59 52.81 48.67 53.05L49.4 52.01L47.95 52.83H47.94Z" fill="#404040"/>
<path d="M29.3 34.42L29.36 35.03C28.5 35.08 28.36 34.63 28.29 35.33C29.3 34.42 29.69 36.54 30.7 35.62L30.72 36.04C30.67 35.97 30.6 36.01 30.55 35.94C30.52 36.83 31.56 35.57 31.98 36.26C32.1 36.53 32.09 36.8 31.85 36.78L32.52 36.97C32.63 37.11 32.43 37.25 32.32 37.11L33.05 37.69L33.02 37.71C33.26 37.65 33.71 37.63 33.91 37.64C33.94 37.94 33.72 37.66 33.65 37.82L34.25 37.95C34.15 38.35 33.61 38.29 33.39 38C32.77 39.3 33.93 38.06 34.11 39.35L33.64 39.13C33.32 39.9 33.78 39.97 33.83 40.69C33.92 40.42 33.91 39.06 34.54 39.21C34.58 39.39 34.69 39.58 35.1 39.59C34.76 39.93 35.05 40.06 35.33 40.3L34.86 40.73C35.27 40.88 35.48 40.63 35.85 40.59C36.12 40.95 35.83 41.36 35.61 41.73C36.04 42.3 35.83 40.82 36.5 41.33C36.74 41.92 37.22 42.03 37.99 42.26C38.13 42.71 37.66 42.49 37.64 42.72L38.26 42.62C38.31 42.69 38.18 42.78 38.12 42.83C38.48 42.91 38.59 42.4 39.06 42.62C39.65 42.21 39.04 44.05 40.03 43.91C40.01 44.14 39.7 44.14 39.56 44.34C40.51 44.55 40.33 44.57 41.31 44.55L41.42 45.25C41.46 44.61 42.24 44.59 42.91 44.6C42.97 44.33 43.02 44.1 43.03 43.97L43.81 44.26C43.81 44.4 43.59 44.5 43.31 44.6C43.38 44.6 43.46 44.6 43.52 44.59C43.54 44.95 43.18 45.11 42.79 45.23C42.81 45.08 42.84 44.92 42.88 44.76C42.47 44.9 42.05 45.08 41.81 45.38C41.9 45.36 42.01 45.38 42.11 45.43C42 45.47 41.91 45.51 41.88 45.58C41.85 45.65 42.01 45.6 42.21 45.58L41.83 46.21L42.06 46.04L42.44 47.06C43.45 47.06 44.63 46.74 45.63 47.33C45.06 47.5 44.98 47.89 44.54 48.32C44.79 47.64 43.73 47.9 43.41 47.4C43.58 47.66 43.32 47.83 43.19 47.84L44.35 48.15C43.97 48.49 44.24 48.57 44.28 48.92C44.84 48.07 45.3 49 45.82 49.08C45.6 49.34 45.29 49.51 44.98 49.08C44.85 50.02 46.33 48.77 46.27 49.62C46.18 49.54 46.16 49.45 46.01 49.54C46.43 49.54 46.77 50.21 46.44 50.3L46.35 50.22C46.86 50.89 48.14 52.02 48.83 51.51C48.76 51.59 48.03 52.16 47.87 52.24L50.95 51.27C50.34 51.69 49.47 53.28 48.69 53.08C48.76 53.29 48.85 53.55 49.32 53.67C49.3 53.5 49.83 52.68 50.01 52.77C49.79 53.71 49.95 53.33 49.91 54.26C49.88 54.01 50.85 53.36 51.05 53.61C50.89 53.7 50.27 54.43 50.1 54.43L51.46 54.2C51.18 54.2 50.76 54.85 50.66 55.2C50.76 54.99 51.14 55.7 51.36 55.78L51.3 55.36C51.82 56.12 53.05 54.87 53.64 55.55C53.4 55.64 52.44 56.37 52.66 56.79C53.22 56.53 55.27 55.49 56.15 55.73L56.02 56.07L56.72 56.24C55.84 56.58 53.8 57.12 52.88 57.21C52.93 57.63 52.67 57.55 53.05 57.89C52.96 58.23 52.52 58.03 52.41 57.93L53.1 58.91C53.54 58.4 54.21 59.07 54.58 58.64L53.18 58.23C53.62 57.72 55.05 57.4 55.56 58.08C55.52 58.42 54.6 58.81 54.46 58.98C54.7 58.89 55.33 59.23 55.27 59.4H54.77C54.92 59.91 55.94 59.31 55.88 60.16C55.99 60.33 55.68 61.18 55.98 60.92C56.3 60.16 57.93 58.43 58.49 58.17C58.5 58.25 58.69 59.4 58.58 59.83C58.38 60.48 57.23 60.51 57.06 61.06C57.2 60.94 57.48 60.9 57.59 60.9C57.62 61.15 57.13 61.24 57.5 61.5C58.03 61.07 58.09 62.17 58.05 61.24C58.49 61.41 58.27 61.66 58.65 62C58.85 61.57 60.03 61.26 60.47 61.43C60.33 61.53 60.24 61.76 60.2 61.87C60.78 62.54 60.9 63.09 61.48 63.68C61.42 63.85 61.56 64.27 61.23 64.36C61.4 64.36 61.64 64.27 61.83 64.44C61.76 65.2 61.36 64.1 61.13 64.87C61.43 64.61 61.98 64.95 62.41 65.03C62.76 64.52 61.9 64.36 61.47 64.27C62.07 63.67 63.14 63.49 64.02 63.83C64.65 64.17 63.84 64.43 64.02 64.42C64.82 65.43 65.84 64.15 66.16 65.34C66.08 66.02 65.42 66.11 65.21 66.45C64.67 66.2 64.85 65.6 64.56 65.35L64.71 65.86C64.46 65.86 64.1 65.69 64.07 65.44C63.98 66.03 65.54 67.04 65.92 68.06C66.17 68.06 66.52 68.14 66.57 67.89L66.3 67.72C66.4 67.21 67.14 67.72 67 67.29C67.51 67.37 68.19 67.37 68.43 67.96L68.08 68.47C68.2 68.33 68.06 67.94 67.81 67.95C68.18 67.93 67.87 69.18 68.62 68.8V68.21C69.14 68.29 69.97 68.2 70.21 68.71C70.47 68.11 70.08 68.67 70.31 67.91C69.92 68.76 69.39 66.93 69.1 67.96C69.41 67.11 68.88 67.25 69.02 66.4C68.89 66.55 68.87 66.8 68.63 66.42C68.57 66.45 68.49 66.47 68.44 66.48C68.44 66.47 68.44 66.46 68.43 66.45C68.43 66.46 68.43 66.47 68.43 66.48C68.4 66.48 68.39 66.49 68.43 66.49C68.44 66.63 68.43 66.76 68.37 66.87C67.89 67.04 67.4 66.54 67.06 66.54C66.94 66.29 67.3 66.45 67.35 66.2H66.85C67.14 65.86 66.89 65.18 67.51 65.43L67.13 65.02C67.08 64.61 66.83 64.22 66.5 64.16C66.38 63.91 65.68 64.04 66.09 63.96L65.28 63.54L65.35 63.46C64.78 62.81 63.58 62.74 63.45 61.47C63.17 61.35 62.86 61.23 62.61 60.8L62.82 60.46C62.46 60.29 62.31 59.4 61.91 59.57C62.37 58.55 60.8 58.14 60.47 57.54L60.09 57.88C59.79 57.54 59.39 57.34 58.85 57.09L58.56 57.43C57.96 57.35 57.91 56.33 57.34 55.83C57.5 55.75 57.6 55.91 57.63 56.08C57.7 54.72 55.75 55.25 55.69 54.14C55.43 54.11 55.36 53.97 55.34 53.78C55.35 53.79 55.37 53.8 55.39 53.8C55.38 53.78 55.36 53.76 55.33 53.74C55.33 53.62 55.32 53.49 55.3 53.37C55.28 53.51 55.28 53.63 55.3 53.71C55.18 53.6 54.97 53.47 54.73 53.39L55 52.98C55 52.98 54.97 52.96 54.95 52.95C54.91 52.66 54.66 52.98 54.49 53.32C54.35 53.29 54.21 53.28 54.06 53.31C54.48 52.63 53.44 53.06 53.84 52.29C53.44 52.46 52.79 51.67 52.1 52.18C52.17 52.1 52.16 52.01 52.26 52.09C52.14 51.84 52.03 51.58 51.69 51.59L52.04 51.08L51.05 51.26C51.07 50.75 51.12 50.49 51.7 50.41C50.6 50.33 51.03 50.12 50.02 50.13L50.32 49.87C50.13 49.7 49.47 49.79 49.59 49.45C49.72 48.52 47.68 47.39 47.14 45.87C46.52 46.89 47.03 45.02 46.35 45.62C46.48 45.37 46.45 45.11 46.79 45.11C46.07 44.78 46.31 44.01 45.41 44.19C45.55 43.93 45.81 44.02 45.87 43.85C45.79 43.85 45.53 43.85 45.6 43.68C45.66 43.51 45.84 43.59 46.01 43.59C45.44 43.09 44.79 43.63 44.18 44.16C44.18 43.62 44 43.52 43.44 43.7C43.53 43.42 43.56 43.07 43.96 43.34C43.8 43.13 43.08 41.92 42.61 42.36C42.67 42.19 42.38 42.06 42.28 42.07C41.89 41.62 41.89 41.54 41.43 41.17L41.47 41.36C40.76 41.74 41 41.14 40.61 40.87L40.68 40.82C40.31 39.66 40.16 40.68 39.86 39.48L39.56 39.86C38.76 40.52 39.32 38.76 38.61 38.6L38.57 38.95C38.08 38.96 38.89 37.29 38.75 36.96C38.76 36.84 38.93 36.94 39.05 36.96C38.85 35.9 38.52 37.32 37.95 36.96C38.1 36.63 38.67 36.46 38.4 36.1C38.44 35.75 36.71 35.96 36.74 35.07C36.65 35.35 36.56 35.63 36.2 35.55C35.8 35.28 36 33.95 35.11 34.23C35.11 34.14 35.15 34.07 35.19 34.02C34.78 33.92 34.11 33.44 33.64 33.6C34.58 32.19 31.49 32.59 32.57 31.51L31.73 30.78L31.86 30.69C31.43 30.12 30.99 30.2 30.56 30.28C30.52 30.09 30.7 30.07 30.77 30.03C30.26 29.08 30.14 29.05 28.99 28.98L29.28 28.57C28.91 28.61 28.77 26.96 27.64 26.65C27.69 26.62 27.77 26.56 27.88 26.57C26.66 26.17 26.92 23.66 25.35 24.64L24.5 24.42C25.09 25.21 23.84 24.87 23.92 25.37C23.57 25.17 23.6 24.28 24 24.55V24.67C24.78 24.13 23.37 23.58 23.84 23.14C22.45 21.82 21.5 20.12 20.25 18.83L19.88 19.49L19.47 19.02C19.47 18.78 19.72 18.46 20.01 18.8C20.14 18.34 19.23 18.52 19.11 18.62C18.7 17.79 19.96 18.26 19.78 18.06L19.48 17.84V17.96C19.06 17.96 18.81 18.17 18.46 17.76C18.32 17.42 18.66 17.32 18.58 17.2C18.62 17.16 18.6 17.11 18.45 17.04L17.94 16.44L17.75 17.07C17.3 17.02 17.25 16.52 17.04 17.24C17.37 16.15 15.21 14.9 15.2 14.45C14.56 14.4 14.22 14.05 13.83 13.59C13.85 13.78 13.45 14.3 13.14 13.88C14.22 13.07 12.88 12.8 13.27 11.82C13.08 12.54 12.12 10.89 11.89 11.95C11.66 11.57 12.23 11.58 12.22 11.12C11.13 10.76 10.86 9.28 9.84 8.51C9.7 8.62 9.66 8.96 9.28 8.95L9.43 7.85C9.19 7.73 8.55 8.4 8.66 7.65C8.6 7.8 8.51 8.03 8.35 7.95C7.2 5.59 4.26 4.85 3.61 1.93C3.61 2.41 3.43 2.28 3.23 2.1C3.29 2.28 2.92 2.4 2.78 2.6L2.5 1.38C1.9 1.71 1.67 0.61 1.14 0.98L1.46 1.14C0.62 1.35 0.73 2.75 0 3.39C0.95 3.14 0.04 5.21 1.48 4.93C1.47 5.2 1.15 5.04 1.06 5.26C1.5 5.12 1.73 5.23 1.93 5.69L1.82 5.72C2.81 6.57 2.92 7.25 3.77 8.48L4.03 8.07C4.21 8.34 4.15 8.49 4.17 8.68C4.93 8.43 3.57 8.03 4.37 7.7C3.98 8.68 5.93 9.28 5.35 10.25C5.69 10.6 5.64 9.76 5.98 10.11L5.86 10.41L6.22 10.23C6.4 10.5 6.25 10.87 6.08 11.06C6.05 10.98 5.88 10.96 5.8 10.91C5.84 11.45 6.71 11.65 6.72 11.83L6.52 11.37C7.65 12.11 8.52 13.52 9.85 14L9.94 13.77C10.92 14.17 10.32 14.5 11.21 15.12H11.14C11.45 15.12 11.73 15.25 11.92 15.47C11.54 15.47 11.92 16.19 11.46 16.14C12.52 16.57 12.08 16.26 13.16 16.17L13.01 16.55C13.42 16.48 13.55 16.37 14 16.68C13.46 16.6 13.84 17.32 13.2 17.27C13.42 18.64 14.96 17.87 14.48 19.07C15.57 18.71 14.2 17.98 14.56 18.03C14.63 17.62 15.4 17.79 15.58 18.11C15.82 18.38 15.08 19.47 15.73 20.09C15.67 20.02 15.61 20.07 15.55 20.01C15.6 20.43 16.27 20.23 16.26 20.82C16.86 20.55 16.61 21.22 17.22 20.71L16.51 20.25C16.99 20.44 17.95 20.09 18.18 20.95C18.02 21.02 17.71 21.01 17.52 20.98C17.52 21.31 17.94 21.18 17.93 21.51C17.32 22.02 17.1 20.92 16.32 20.99C16.25 21.4 17.4 21.26 16.61 21.68C17.64 21.16 17.14 22.41 18.16 22.25L17.8 22.56C17.92 22.58 18.22 22.56 18.34 22.69L17.68 22.9C18.4 22.88 18.03 23.9 18.57 24.03C17.86 23.34 18.82 23.47 18.76 22.93C20.07 23.35 18.38 24.31 19.51 25.11C19.33 25.03 19.22 24.42 19.58 24.47C19.7 24.72 19.81 25.1 19.75 25.39C20.46 25.96 20 24.95 20.48 25.01C20.29 25.64 20.96 25.16 21.37 25.31L21.03 25.65C21.54 26.6 21.93 25.13 22.33 26.06L21.58 26.25L22.05 26.47L21.59 26.79C22.25 26.88 22.29 27.07 22.55 27.54C22.71 27.21 23.22 26.97 23.55 27.28C23.57 27.7 23.1 27.48 23.61 27.89C23.29 28 22.91 28.15 23.03 27.64C22.9 27.73 22.71 27.75 22.58 27.84C22.58 28.31 23.13 28.49 23.29 28.65C23.24 28.57 23.18 28.48 23.19 28.39L24.33 28.58C24.31 28.81 24.12 28.83 23.94 28.85C24.11 28.95 24.36 28.88 24.59 29.05C24.26 29.28 23.99 29.57 23.58 29.42L24.52 29.75C24.44 29.91 24.52 30.41 24.33 30.43C24.52 30.95 25.73 30.76 25.98 31.44C26.06 31.41 26.16 31.41 26.3 31.47C26.68 31.97 26.72 32.7 27.62 32.84L27.42 33.63C27.94 33.92 27.65 32.6 28.51 33.09C29.15 33.41 28.27 33.69 28.29 34C28.78 33.99 29.7 33.89 29.74 34.74C29.5 34.69 29.46 34.5 29.29 34.4L29.3 34.42ZM34.54 39.22C34.37 39.19 33.96 39.22 34.09 38.95C34.59 38.67 34.49 38.95 34.54 39.22ZM42.99 46.03C42.8 46.07 42.75 45.9 42.75 45.65C42.87 45.71 42.96 45.83 42.99 46.03ZM66.62 64.91C66.62 64.91 66.6 64.91 66.59 64.91C66.51 64.56 66.53 64.69 66.62 64.91ZM66.92 65.51C67.01 65.51 67.06 65.46 67.09 65.39C66.97 65.45 66.87 65.35 66.77 65.21C66.71 65.33 66.71 65.45 66.92 65.51ZM18.41 17.27V17.45C18.11 17.35 18.26 17.32 18.41 17.27Z" fill="#404040"/>
<path d="M41.66 45.63C41.69 45.55 41.75 45.47 41.8 45.4C41.7 45.42 41.64 45.48 41.66 45.63Z" fill="#404040"/>
<path d="M26 31.48C26 31.48 26 31.47 25.99 31.46C25.96 31.47 25.94 31.49 25.91 31.51L26 31.48Z" fill="#404040"/>
<path d="M57.05 61.42C57.01 61.28 57.02 61.16 57.05 61.07C56.96 61.15 56.93 61.26 57.05 61.42Z" fill="#404040"/>
<path d="M69.88 67.31L69.5 67.11C69.66 67.23 69.63 67.36 69.65 67.48C69.72 67.39 69.78 67.22 69.88 67.31Z" fill="#404040"/>
<path d="M70.28 71.93C70.36 71.93 70.37 72.01 70.46 72.01L70.61 71.84C70.42 71.67 70.17 71.67 70.29 71.93H70.28Z" fill="#404040"/>
<path d="M69.02 68.71C68.76 69.02 69.03 69.1 69.29 69.25C69.28 69.24 69.26 69.23 69.25 69.21C69.71 68.87 69.36 68.79 69.02 68.7V68.71Z" fill="#404040"/>
<path d="M69.34 69.29C69.42 69.34 69.49 69.39 69.53 69.47C69.71 69.33 69.49 69.36 69.34 69.29Z" fill="#404040"/>
<path d="M67.68 65.89C67.7 66.06 68.11 65.58 68.04 65.75C68.51 65.49 66.96 65.55 67.68 65.89Z" fill="#404040"/>
<path d="M68.23 69.82L68.52 69.39L68.12 69.57L68.23 69.82Z" fill="#404040"/>
<path d="M66.9 67.96L67.12 68.38C67.17 68.32 67.25 68.32 67.33 68.35C67.14 68.14 67 67.85 66.9 67.96Z" fill="#404040"/>
<path d="M67.33 68.35C67.43 68.46 67.53 68.55 67.65 68.55C67.59 68.5 67.46 68.39 67.33 68.35Z" fill="#404040"/>
<path d="M67.69 69.49L67.67 69.32L67.46 69.06L67.69 69.49Z" fill="#404040"/>
<path d="M63.5 64.43L63.05 64.18C62.89 64.27 62.91 64.44 63.09 64.52C63.26 64.52 63.44 64.6 63.5 64.43Z" fill="#404040"/>
<path d="M63.59 66.46C63.57 66.29 63.64 66.21 63.7 66.04L63.25 66.47H63.59V66.46Z" fill="#404040"/>
<path d="M62.46 65.54C62.3 65.63 61.6 65.38 62.07 65.8C62.23 65.71 62.68 65.97 62.46 65.54Z" fill="#404040"/>
<path d="M57.71 59.67L57.8 59.75L58.51 59.02L57.71 59.67Z" fill="#404040"/>
<path d="M51.3 56.71C51.54 57.3 51.84 56.36 52.01 56.96C52.28 56.89 51.88 56.48 52.12 56.43C51.69 56.36 51.66 56.12 51.3 56.71Z" fill="#404040"/>
<path d="M52.12 56.43C52.19 56.44 52.27 56.45 52.36 56.45C52.24 56.42 52.17 56.42 52.12 56.43Z" fill="#404040"/>
<path d="M2.38 0.5L2.26 0.08L2.19 0.5H2.38Z" fill="#404040"/>
<path d="M1.33 0.52L1.73 0L1.15 0.25C1.23 0.29 1.39 0.37 1.33 0.52Z" fill="#404040"/>
<path d="M34.36 40.89L34.49 40.8C34.57 40.64 34.51 40.57 34.41 40.42L34.36 40.89Z" fill="#404040"/>
<path d="M31.06 36.91L31.11 36.98L31.41 36.45L31.06 36.91Z" fill="#404040"/>
<path d="M27.47 34.38C27.58 34.52 27.82 34.58 27.92 34.72C27.57 34.52 27.95 33.83 27.47 34.38Z" fill="#404040"/>
</svg>
