<svg width="167" height="185" viewBox="0 0 167 185" fill="none" xmlns="http://www.w3.org/2000/svg">
<g opacity="0.3">
<path d="M83.85 184.37C120.908 184.37 150.95 179.826 150.95 174.22C150.95 168.614 120.908 164.07 83.85 164.07C46.7917 164.07 16.75 168.614 16.75 174.22C16.75 179.826 46.7917 184.37 83.85 184.37Z" fill="#3D3D3D"/>
</g>
<path d="M42.62 123.33C42.62 123.33 39.2899 122.49 36.9399 121.38C35.9299 120.9 34.73 121.52 34.56 122.62C34.38 123.82 34.3499 125.4 34.8499 127.14C34.8499 127.14 33.75 126.82 31.92 126.81C30.68 126.8 29.84 128.09 30.38 129.21C30.48 129.41 30.5499 129.62 30.5999 129.83L44.87 164.81C46.35 157.58 50.0699 155.74 50.0699 155.74C45.0699 142.78 42.62 123.33 42.62 123.33Z" fill="#111111"/>
<path d="M30.6899 129.96L31.24 131.23C31.34 131.47 31.5699 131.62 31.8299 131.64C32.0599 131.66 32.29 131.68 32.52 131.71C32.86 131.75 33.2 131.55 33.27 131.22C33.43 130.5 34.06 129.91 34.89 129.89C35.68 129.88 36.3299 129.92 36.8199 129.98C37.2799 130.03 37.6699 129.61 37.5699 129.16C37.3999 128.34 37.34 127.56 37.35 126.86C37.37 125.2 39.0399 124.08 40.5899 124.68C40.9999 124.84 41.4199 124.99 41.8299 125.13C42.3199 125.29 42.81 124.87 42.72 124.36C42.67 124.07 42.63 123.83 42.61 123.64C42.57 123.37 42.37 123.15 42.1 123.08C41.11 122.83 38.6699 122.19 36.8199 121.36C35.7999 120.9 34.61 121.55 34.47 122.65C34.35 123.62 34.32 124.83 34.6 126.16C34.7 126.62 34.32 127.04 33.85 126.99C33.61 126.96 33.34 126.94 33.03 126.92C31.42 126.83 30.27 128.35 30.67 129.91C30.68 129.93 30.6799 129.95 30.6899 129.96Z" fill="#111111"/>
<path d="M125.05 123.33C125.05 123.33 128.38 122.49 130.73 121.38C131.74 120.9 132.94 121.52 133.11 122.62C133.29 123.82 133.32 125.4 132.82 127.14C132.82 127.14 133.92 126.82 135.75 126.81C136.99 126.8 137.83 128.09 137.29 129.21C137.19 129.41 137.12 129.62 137.07 129.83L122.8 164.81C121.32 157.58 117.6 155.74 117.6 155.74C122.59 142.78 125.05 123.33 125.05 123.33Z" fill="#111111"/>
<path d="M36.8169 171.277C45.4406 167.114 47.8471 154.243 42.192 142.531C36.5368 130.819 24.9615 124.7 16.3378 128.864C7.71404 133.028 5.30754 145.898 10.9627 157.61C16.6178 169.322 28.1931 175.441 36.8169 171.277Z" fill="#1E1E1E"/>
<path d="M44.74 150C43.81 145.33 41.81 141 39.13 137.41C40.17 139.64 40.97 142.02 41.46 144.5C43.93 156.93 37.82 167.04 27.8 167.07C21.55 167.09 15.25 163.18 10.8 157.21C14.97 166.16 23.0499 172.6 31.0699 172.57C41.0999 172.53 47.21 162.43 44.74 150Z" fill="#111111"/>
<path d="M29.3566 158.676C31.694 157.547 32.3451 154.056 30.8106 150.878C29.2762 147.7 26.1373 146.039 23.7998 147.167C21.4623 148.296 20.8114 151.787 22.3459 154.965C23.8803 158.143 27.0191 159.804 29.3566 158.676Z" fill="#FF67A0"/>
<path d="M17.0029 153.671C18.286 153.052 18.6428 151.134 17.8 149.389C16.9571 147.643 15.2337 146.73 13.9506 147.35C12.6675 147.969 12.3106 149.887 13.1535 151.632C13.9963 153.378 15.7198 154.291 17.0029 153.671Z" fill="#FF67A0"/>
<path d="M21.5209 143.5C22.804 142.881 23.1609 140.964 22.318 139.218C21.4751 137.472 19.7517 136.559 18.4686 137.179C17.1855 137.798 16.8285 139.716 17.6714 141.461C18.5143 143.207 20.2378 144.12 21.5209 143.5Z" fill="#FF67A0"/>
<path d="M31.1012 145.269C32.3844 144.649 32.7412 142.732 31.8984 140.986C31.0555 139.241 29.3321 138.328 28.049 138.947C26.7658 139.567 26.409 141.484 27.2519 143.23C28.0947 144.975 29.8181 145.888 31.1012 145.269Z" fill="#FF67A0"/>
<path d="M136.91 129.96L136.36 131.23C136.26 131.47 136.03 131.62 135.77 131.64C135.54 131.66 135.31 131.68 135.08 131.71C134.74 131.75 134.4 131.55 134.33 131.22C134.17 130.5 133.54 129.91 132.71 129.89C131.92 129.88 131.27 129.92 130.78 129.98C130.32 130.03 129.93 129.61 130.03 129.16C130.2 128.34 130.26 127.56 130.25 126.86C130.23 125.2 128.56 124.08 127.01 124.68C126.6 124.84 126.18 124.99 125.77 125.13C125.28 125.29 124.79 124.87 124.88 124.36C124.93 124.07 124.97 123.83 124.99 123.64C125.03 123.37 125.23 123.15 125.5 123.08C126.49 122.83 128.93 122.19 130.78 121.36C131.8 120.9 132.99 121.55 133.13 122.65C133.25 123.62 133.28 124.83 133 126.16C132.9 126.62 133.28 127.04 133.75 126.99C133.99 126.96 134.26 126.94 134.57 126.92C136.18 126.83 137.33 128.35 136.93 129.91C136.92 129.93 136.91 129.95 136.91 129.96Z" fill="#111111"/>
<path d="M156.645 157.619C162.3 145.907 159.894 133.037 151.27 128.873C142.646 124.709 131.071 130.828 125.416 142.54C119.761 154.253 122.167 167.123 130.791 171.287C139.415 175.451 150.99 169.331 156.645 157.619Z" fill="#1E1E1E"/>
<path d="M145.265 154.973C146.799 151.795 146.148 148.304 143.811 147.176C141.474 146.047 138.335 147.708 136.8 150.886C135.266 154.064 135.917 157.555 138.254 158.684C140.592 159.813 143.731 158.151 145.265 154.973Z" fill="#FF67A0"/>
<path d="M154.452 151.643C155.295 149.897 154.938 147.98 153.655 147.36C152.372 146.741 150.649 147.654 149.806 149.399C148.963 151.145 149.32 153.062 150.603 153.682C151.886 154.302 153.609 153.389 154.452 151.643Z" fill="#FF67A0"/>
<path d="M149.929 141.477C150.772 139.731 150.415 137.814 149.132 137.194C147.849 136.575 146.126 137.487 145.283 139.233C144.44 140.979 144.797 142.896 146.08 143.516C147.363 144.135 149.087 143.222 149.929 141.477Z" fill="#FF67A0"/>
<path d="M140.353 143.248C141.196 141.503 140.839 139.585 139.556 138.966C138.273 138.346 136.55 139.259 135.707 141.005C134.864 142.75 135.221 144.668 136.504 145.287C137.787 145.907 139.51 144.994 140.353 143.248Z" fill="#FF67A0"/>
<path d="M122.93 150C123.86 145.33 125.86 141 128.54 137.41C127.5 139.64 126.7 142.02 126.21 144.5C123.74 156.93 129.85 167.04 139.87 167.07C146.12 167.09 152.42 163.18 156.87 157.21C152.7 166.16 144.62 172.6 136.6 172.57C126.57 172.53 120.46 162.43 122.93 150Z" fill="#111111"/>
<path d="M125.05 104.17C125.05 104.17 127.37 103.84 129.04 102.29C129.83 101.56 129.7 100.26 128.77 99.72C126.53 98.4 122.48 95.58 121.29 91.82C119.8 95.49 118.59 97.51 118.59 97.51L117.41 92.75C115.7 99.16 111.76 101.02 111.76 101.02L110.01 96.74C109.87 96.91 109.73 97.07 109.58 97.23C109.52 97.29 109.47 97.35 109.41 97.41C109.23 97.6 109.05 97.78 108.86 97.96C108.73 98.09 108.59 98.22 108.45 98.35C108.19 98.59 107.93 98.82 107.65 99.05C107.52 99.16 107.38 99.27 107.24 99.38C106.96 99.6 106.67 99.82 106.38 100.02C106.19 100.16 105.99 100.29 105.79 100.42C105.28 100.75 104.76 101.07 104.21 101.37C104.07 101.45 103.93 101.52 103.79 101.6C103.68 101.66 103.57 101.72 103.46 101.77C103.45 101.78 103.43 101.78 103.42 101.79C103.22 101.89 103.03 101.99 102.83 102.09C102.57 102.22 102.31 102.34 102.04 102.46C101.84 102.55 101.65 102.63 101.45 102.72C101.35 102.76 101.25 102.81 101.15 102.85C100.9 102.96 100.65 103.05 100.4 103.15C99.7 103.42 98.97 103.68 98.24 103.91C98.23 103.91 98.2199 103.92 98.2099 103.92C98.1699 103.93 98.1399 103.94 98.0999 103.96C97.9499 104.01 97.8 104.05 97.65 104.1C97.46 104.16 97.2699 104.21 97.0799 104.27C96.9199 104.32 96.7599 104.36 96.5999 104.4C96.5199 104.42 96.44 104.44 96.36 104.46C96.21 104.5 96.07 104.54 95.92 104.57C95.87 104.58 95.82 104.59 95.77 104.61C95.65 104.64 95.53 104.67 95.42 104.7C95.39 104.71 95.3599 104.72 95.3299 104.72C95.1299 104.77 94.94 104.82 94.74 104.86C94.74 104.86 94.7299 104.86 94.7199 104.86C94.4199 104.93 94.11 104.99 93.8 105.05C93.51 105.11 93.21 105.17 92.92 105.22C92.87 105.23 92.82 105.24 92.76 105.25C92.5 105.3 92.2299 105.34 91.9699 105.38C91.3799 105.47 90.78 105.56 90.17 105.64C89.95 105.67 89.74 105.69 89.52 105.71C89.1 105.76 88.68 105.8 88.26 105.84C88.01 105.86 87.76 105.88 87.51 105.9C86.75 105.96 85.9899 106 85.2199 106.03C84.9699 106.04 84.7199 106.05 84.4599 106.05C84.0299 106.06 83.6 106.07 83.17 106.07C82.88 106.07 82.59 106.07 82.29 106.06C82.1 106.06 81.8999 106.05 81.6999 106.05C81.4999 106.05 81.31 106.04 81.11 106.03C80.34 106 79.56 105.96 78.78 105.91C78.53 105.89 78.28 105.87 78.03 105.86C77.87 105.84 77.72 105.83 77.55 105.82C77.08 105.78 76.61 105.73 76.15 105.68C75.86 105.64 75.57 105.61 75.28 105.57C74.99 105.53 74.7 105.5 74.41 105.45C74.12 105.41 73.83 105.37 73.55 105.32C73.26 105.27 72.9699 105.23 72.6899 105.18C72.3999 105.13 72.1199 105.08 71.8299 105.03C71.5499 104.98 71.2599 104.92 70.9799 104.87C70.3999 104.75 69.82 104.63 69.25 104.5C69 104.44 68.75 104.38 68.51 104.32C67.92 104.17 67.34 104.02 66.77 103.86C65.96 103.63 65.16 103.38 64.37 103.12C63.58 102.86 62.81 102.58 62.05 102.28C62.04 102.28 62.03 102.27 62.03 102.27C61.77 102.17 61.52 102.07 61.27 101.96C61.02 101.86 60.77 101.75 60.52 101.64C60.27 101.53 60.03 101.43 59.79 101.31C59.77 101.3 59.7399 101.29 59.7199 101.28C59.4399 101.15 59.17 101.02 58.9 100.89C58.9 100.89 58.89 100.89 58.88 100.88C58.7 100.79 58.5299 100.71 58.3499 100.62C58.2199 100.56 58.0999 100.5 57.9799 100.43C57.6999 100.29 57.42 100.14 57.15 99.99C57.11 99.97 57.06 99.94 57.02 99.92C57 99.91 56.9799 99.9 56.9599 99.89C56.4099 99.59 55.89 99.27 55.37 98.95C55.11 98.79 54.86 98.62 54.62 98.45C54.04 98.06 53.4799 97.66 52.9499 97.24C52.7299 97.07 52.51 96.9 52.31 96.72C52.18 96.61 52.05 96.51 51.93 96.4C51.82 96.31 51.7099 96.21 51.5999 96.11C51.4799 96 51.36 95.9 51.25 95.79C51.03 95.58 50.8099 95.37 50.5999 95.16C50.3299 94.88 50.07 94.61 49.81 94.32C49.69 94.19 49.5799 94.05 49.4599 93.92C49.1999 93.61 48.9499 93.29 48.7099 92.97C48.6399 92.88 48.58 92.79 48.51 92.7C48.2 92.27 47.91 91.82 47.64 91.37L45.18 95.29C45.18 95.29 45.02 95.18 44.77 94.94C43.89 96.81 40.8699 98.7 38.9799 99.74C38.0099 100.27 37.85 101.6 38.67 102.34C40.34 103.87 42.63 104.19 42.63 104.19C42.25 106.47 40.3199 108.99 38.9599 110.51C38.1999 111.37 38.56 112.73 39.64 113.11C41.15 113.64 42.62 113.62 42.62 113.62C42.62 113.62 46.5 113.4 48.51 111.66C46.08 113.94 42.62 113.62 42.62 113.62C42.33 134.69 50.0799 155.76 50.0799 155.76C44.3799 159.73 42 170.52 49.55 174.06C49.72 174.14 49.8999 174.22 50.0799 174.29C58.2599 177.56 71.79 175.89 75.13 169.31C75.33 168.91 75.52 168.47 75.68 168H91.9799C92.1499 168.48 92.33 168.92 92.53 169.31C95.87 175.89 109.39 177.56 117.58 174.29C117.76 174.22 117.94 174.14 118.11 174.06C125.66 170.52 123.28 159.73 117.58 155.76C117.58 155.76 125.34 134.69 125.04 113.62C125.04 113.62 121.75 113.92 119.33 111.82C121.76 113.51 125.04 113.62 125.04 113.62C125.04 113.62 126.51 113.64 128.02 113.11C129.1 112.73 129.47 111.37 128.7 110.51C127.36 108.97 125.43 106.45 125.05 104.17Z" fill="#1E1E1E"/>
<path d="M110.71 99.89H83.83H56.95C56.95 99.89 74.9199 110.58 77.0699 122.82C77.0699 122.82 78.1 133.55 82.14 139.25C82.14 139.25 80.66 140.48 77.74 138.49C77.74 138.49 77.63 142.34 79.91 144.87C79.91 144.87 78.92 145.88 76.92 145.02C76.92 145.02 78.49 159.61 75.67 167.99H83.8199H91.97C89.16 159.61 90.72 145.02 90.72 145.02C88.72 145.88 87.73 144.87 87.73 144.87C90.01 142.34 89.9 138.49 89.9 138.49C86.99 140.48 85.5 139.25 85.5 139.25C89.54 133.55 90.5699 122.82 90.5699 122.82C92.7399 110.58 110.71 99.89 110.71 99.89Z" fill="#111111"/>
<g opacity="0.3">
<path d="M90.4301 155.7C89.7401 158.67 87.06 160.92 83.83 160.92C80.6 160.92 77.93 158.67 77.23 155.7C77.03 158.99 75.9901 167.06 75.6801 167.98H83.83H91.98C91.68 167.06 90.6301 158.99 90.4301 155.7Z" fill="black"/>
</g>
<g opacity="0.3">
<path d="M118.26 96.18L117.41 92.75C115.7 99.16 111.76 101.02 111.76 101.02L110.01 96.74C109.87 96.91 109.73 97.07 109.58 97.23C109.52 97.29 109.47 97.35 109.41 97.41C109.23 97.6 109.05 97.78 108.86 97.96C108.73 98.09 108.59 98.22 108.45 98.35C108.19 98.59 107.93 98.82 107.65 99.05C107.52 99.16 107.38 99.27 107.24 99.38C106.96 99.6 106.67 99.82 106.38 100.02C106.19 100.16 105.99 100.29 105.79 100.42C105.28 100.75 104.76 101.07 104.21 101.37C104.07 101.45 103.93 101.52 103.79 101.6C103.68 101.66 103.57 101.72 103.46 101.77C103.45 101.78 103.43 101.78 103.42 101.79C103.22 101.89 103.03 101.99 102.83 102.09C102.57 102.22 102.31 102.34 102.04 102.46C101.84 102.55 101.65 102.63 101.45 102.72C101.35 102.76 101.25 102.81 101.15 102.85C100.9 102.96 100.65 103.05 100.4 103.15C99.7 103.42 98.97 103.68 98.24 103.91C98.23 103.91 98.22 103.92 98.21 103.92C98.17 103.93 98.14 103.94 98.1 103.96C97.95 104.01 97.8 104.05 97.65 104.1C97.46 104.16 97.27 104.21 97.08 104.27C96.92 104.32 96.76 104.36 96.6 104.4C96.52 104.42 96.44 104.44 96.36 104.46C96.21 104.5 96.07 104.54 95.92 104.57C95.87 104.58 95.82 104.59 95.77 104.61C95.65 104.64 95.53 104.67 95.42 104.7C95.39 104.71 95.36 104.72 95.33 104.72C95.13 104.77 94.94 104.82 94.74 104.86C94.74 104.86 94.73 104.86 94.72 104.86C94.42 104.93 94.11 104.99 93.8 105.05C93.51 105.11 93.21 105.17 92.92 105.22C92.87 105.23 92.82 105.24 92.76 105.25C92.5 105.3 92.23 105.34 91.97 105.38C91.38 105.47 90.78 105.56 90.17 105.64C89.95 105.67 89.74 105.69 89.52 105.71C89.1 105.76 88.68 105.8 88.26 105.84C88.01 105.86 87.76 105.88 87.51 105.9C86.75 105.96 85.99 106 85.22 106.03C84.97 106.04 84.72 106.05 84.46 106.05C84.03 106.06 83.6 106.07 83.17 106.07C82.88 106.07 82.59 106.07 82.29 106.06C82.1 106.06 81.9 106.05 81.7 106.05C81.5 106.05 81.31 106.04 81.11 106.03C80.34 106 79.56 105.96 78.78 105.91C78.53 105.89 78.28 105.87 78.03 105.86C77.87 105.84 77.72 105.83 77.55 105.82C77.08 105.78 76.61 105.73 76.15 105.68C75.86 105.64 75.57 105.61 75.28 105.57C74.99 105.53 74.7 105.5 74.41 105.45C74.12 105.41 73.83 105.37 73.55 105.32C73.26 105.27 72.9699 105.23 72.6899 105.18C72.3999 105.13 72.12 105.08 71.83 105.03C71.55 104.98 71.26 104.92 70.98 104.87C70.4 104.75 69.82 104.63 69.25 104.5C69 104.44 68.75 104.38 68.51 104.32C67.92 104.17 67.34 104.02 66.77 103.86C65.96 103.63 65.16 103.38 64.37 103.12C63.58 102.86 62.81 102.58 62.05 102.28C62.04 102.28 62.03 102.27 62.03 102.27C61.77 102.17 61.52 102.07 61.27 101.96C61.02 101.86 60.77 101.75 60.52 101.64C60.27 101.53 60.03 101.43 59.79 101.31C59.77 101.3 59.74 101.29 59.72 101.28C59.44 101.15 59.17 101.02 58.9 100.89C58.9 100.89 58.89 100.89 58.88 100.88C58.7 100.79 58.53 100.71 58.35 100.62C58.22 100.56 58.1 100.5 57.98 100.43C57.7 100.29 57.42 100.14 57.15 99.99C57.11 99.97 57.06 99.94 57.02 99.92C57 99.91 56.98 99.9 56.96 99.89C56.41 99.59 55.89 99.27 55.37 98.95C55.11 98.79 54.86 98.62 54.62 98.45C54.04 98.06 53.48 97.66 52.95 97.24C52.73 97.07 52.5101 96.9 52.3101 96.72C52.1801 96.61 52.0501 96.51 51.9301 96.4C51.8201 96.31 51.71 96.21 51.6 96.11C51.48 96 51.36 95.9 51.25 95.79C51.03 95.58 50.81 95.37 50.6 95.16C50.33 94.88 50.0701 94.61 49.8101 94.32C49.6901 94.19 49.58 94.05 49.46 93.92C49.2 93.61 48.95 93.29 48.71 92.97C48.64 92.88 48.58 92.79 48.51 92.7C48.2 92.27 47.91 91.82 47.64 91.37L45.38 94.97C51.58 106.25 65.7201 114.13 82.1801 114.13C98.0301 114.1 111.73 106.79 118.26 96.18Z" fill="black"/>
</g>
<path d="M91.98 169.36H75.6801C74.9201 169.36 74.3 168.74 74.3 167.98C74.3 167.22 74.9201 166.6 75.6801 166.6H91.98C92.74 166.6 93.36 167.22 93.36 167.98C93.36 168.74 92.74 169.36 91.98 169.36Z" fill="#070707"/>
<path d="M138.07 79.93C136.75 80.75 135.23 81.17 133.68 81.18L132.6 81.19C129.42 80.83 126.86 78.76 125.71 76C123.47 89.38 118.59 97.51 118.59 97.51L117.41 92.75C115.7 99.16 111.76 101.02 111.76 101.02L110.01 96.74C97.5 111.49 57.43 108.02 47.63 91.35L45.17 95.27C45.17 95.27 41.61 92.76 41.02 86.15L39.04 90.64C39.04 90.64 35.62 81.79 35.71 68.22C34.21 70.59 31.59 72.15 28.63 72.17C28.44 72.17 28.24 72.17 28.04 72.16C26.35 72.17 24.71 71.57 23.43 70.47C12.44 61.01 -3.87998 37.35 4.03002 29.5C12.42 21.18 35.48 11.84 35.48 11.84L28.16 9.48001C34.87 5.65001 44.39 7.54001 44.39 7.54001L42.0799 2.01999C53.7999 2.82999 58.42 9.74001 59.27 11.17C59.99 10.99 61.68 10.82 63.88 10.66C71.55 10.11 79.23 10.19 86.86 10.9C93.91 11.55 100.91 12.74 107.8 14.46C109.94 14.99 111.58 15.45 112.25 15.76C113.32 14.49 119.07 8.48 130.75 9.69L127.53 14.73C127.53 14.73 137.24 14.51 143.19 19.44L135.58 20.5C135.58 20.5 156.7 33.66 163.54 43.3C169.9 52.23 150.55 72.19 138.07 79.93Z" fill="#1E1E1E"/>
<path d="M95.79 59.89C98.38 63.4 101.53 70.57 98.27 74.73C97.48 75.74 96.3 76.57 94.66 77.13C92.43 77.88 90.41 77.97 88.63 77.69C83.65 76.93 80.59 73.32 80.59 73.32C80.59 73.32 77.23 76.08 72.51 76.18C70.55 76.23 68.3499 75.81 66.0699 74.54C64.7899 73.83 63.87 72.99 63.26 72.06C60.14 67.36 64.75 60.48 68.04 57.38C71.99 53.66 83.2201 18.1 59.3101 11.18C60.0301 11 61.72 10.83 63.92 10.67C78.67 9.61004 93.5 10.89 107.84 14.47C109.98 15 111.62 15.46 112.29 15.77C87.51 18.27 92.57 55.52 95.79 59.89Z" fill="#1C1C1C"/>
<g opacity="0.6">
<path d="M164.56 45.19C157.94 35.4 137.12 21.77 137.12 21.77L144.75 20.87C138.91 15.82 129.2 15.82 129.2 15.82L132.53 10.85C120.88 9.37001 115 15.26 113.9 16.5C113.23 16.18 111.6 15.69 109.48 15.1C102.07 13.07 94.51 11.66 86.88 10.88C79.25 10.17 71.56 10.09 63.9 10.64C61.7 10.8 60.01 10.97 59.29 11.15C58.45 9.70999 53.82 2.81 42.1 2L44.41 7.51999C44.41 7.51999 34.8901 5.63999 28.1801 9.45999L35.5 11.82C35.5 11.82 12.43 21.16 4.05005 29.48C2.62005 30.89 1.98996 32.82 1.95996 35.09C2.92996 33.2 4.35995 31.38 6.44995 29.82C16.39 22.37 40.15 12.19 40.15 12.19L33.67 10.37C33.67 10.37 39.85 7.06 47.39 10.69L44.89 5.32001C44.89 5.32001 56.18 7.04999 58.67 13.87C58.67 13.87 72.41 12.05 86.64 13.45C100.88 14.84 114 19.28 114 19.28C117.77 13.07 129.17 13.56 129.17 13.56L125.68 18.34C133.78 16.24 139.21 20.68 139.21 20.68L132.5 21.21C132.5 21.21 153.84 35.8 162.15 45.03C163.89 46.97 164.94 49.03 165.53 51.07C165.94 48.87 165.69 46.85 164.56 45.19Z" fill="white"/>
</g>
<path d="M56.95 99.89C68.28 106.23 85.68 107.89 98.23 103.93C97.86 96.62 90.03 89.92 79.6 88.44C68.32 86.83 58.24 91.94 56.95 99.89Z" fill="#1C1C1C"/>
<path d="M92.3 78.07C92.3 78.07 87.03 89.22 79.38 88.12C71.69 87.4 69.04 76.09 69.04 76.09C76.22 77.35 80.83 71.53 80.83 71.53C80.83 71.53 84.54 78.46 92.3 78.07Z" fill="#070707"/>
<path d="M85.1428 85.1447C85.332 83.5376 83.0399 81.947 80.0233 81.5919C77.0067 81.2368 74.4079 82.2517 74.2187 83.8588C74.0296 85.4658 76.3217 87.0564 79.3383 87.4114C82.3549 87.7665 84.9537 86.7517 85.1428 85.1447Z" fill="#E74A63"/>
<path d="M63.5001 67.45C63.4401 68.46 63.5101 69.49 63.7501 70.39C63.9901 71.3 64.4 72.08 64.97 72.67C65.26 72.96 65.5801 73.22 65.9301 73.45C66.2801 73.68 66.68 73.85 67.08 74.02C67.5 74.17 67.9201 74.31 68.3801 74.41L68.72 74.49L69.07 74.54L69.7601 74.66C71.5901 74.94 73.48 74.72 75.23 73.99C76.1 73.63 76.93 73.12 77.7 72.56C77.89 72.42 78.0901 72.28 78.2701 72.12C78.4601 71.97 78.6401 71.81 78.8101 71.65C78.9901 71.49 79.16 71.32 79.32 71.15C79.48 70.99 79.6601 70.79 79.7601 70.66L79.7901 70.62C80.2701 70.03 81.14 69.95 81.73 70.43C82.32 70.91 82.4001 71.78 81.9201 72.36C81.6901 72.64 81.5101 72.83 81.3001 73.05C81.0901 73.26 80.8901 73.46 80.6701 73.66C80.4601 73.86 80.2401 74.05 80.0101 74.23C79.7901 74.42 79.56 74.59 79.33 74.76C78.4 75.44 77.39 76.04 76.32 76.51C76.06 76.63 75.7701 76.73 75.5001 76.83L75.09 76.99C74.95 77.04 74.8101 77.07 74.6701 77.12L73.82 77.36L72.94 77.53C72.79 77.56 72.6501 77.59 72.5001 77.61L72.0501 77.65L71.1601 77.72C70.8601 77.72 70.5601 77.7 70.2601 77.69C69.9601 77.67 69.66 77.68 69.37 77.62C68.19 77.45 67.0401 77.17 65.9201 76.61C65.3601 76.33 64.83 75.99 64.33 75.58C63.84 75.16 63.3901 74.68 63.0401 74.13C62.3101 73.04 62.0001 71.75 62.0201 70.56C62.0301 69.96 62.1101 69.38 62.2501 68.82C62.3901 68.26 62.5901 67.74 62.8801 67.22C62.9701 67.06 63.18 67 63.34 67.09C63.46 67.16 63.5201 67.28 63.5101 67.41L63.5001 67.45Z" fill="#070707"/>
<path d="M99.3399 70.44C99.5299 71.01 99.62 71.56 99.66 72.14C99.7 72.72 99.6799 73.31 99.5699 73.91C99.4699 74.51 99.29 75.1 99.01 75.68C98.74 76.26 98.37 76.8 97.91 77.27C97.46 77.75 96.94 78.16 96.38 78.48C95.82 78.8 95.22 79.04 94.63 79.23C94.03 79.39 93.4299 79.52 92.8299 79.58L92.38 79.62L91.93 79.63C91.63 79.63 91.33 79.63 91.03 79.63C90.43 79.61 89.8399 79.5 89.2499 79.41C88.9599 79.34 88.67 79.26 88.38 79.18L87.9499 79.06C87.8099 79.01 87.67 78.95 87.53 78.9L86.6999 78.57L85.9 78.17C85.77 78.1 85.63 78.04 85.51 77.97L85.13 77.74C84.88 77.58 84.62 77.44 84.38 77.27C83.41 76.6 82.5299 75.85 81.7299 75.01C81.5299 74.8 81.33 74.59 81.15 74.36C80.96 74.14 80.7799 73.92 80.6099 73.68C80.4299 73.45 80.2599 73.21 80.0899 72.98C79.9199 72.73 79.7699 72.51 79.5899 72.19C79.2199 71.53 79.4499 70.69 80.1099 70.32C80.7699 69.95 81.6099 70.18 81.9799 70.84C81.9799 70.84 81.9799 70.85 81.9899 70.85L82.01 70.89C82.09 71.03 82.2299 71.26 82.3499 71.45C82.4899 71.65 82.62 71.84 82.77 72.03C82.91 72.22 83.0699 72.41 83.2199 72.59C83.3699 72.78 83.5399 72.95 83.6999 73.13C84.3699 73.82 85.09 74.46 85.89 74.96C86.09 75.09 86.2999 75.2 86.4999 75.31L86.81 75.48C86.92 75.53 87.02 75.57 87.13 75.62L87.77 75.89L88.43 76.09L88.76 76.19L89.0999 76.25C89.3299 76.29 89.55 76.34 89.77 76.39C90 76.42 90.2299 76.43 90.4599 76.45C90.6899 76.47 90.91 76.52 91.15 76.5C92.07 76.52 93.0099 76.51 93.8699 76.34C94.2899 76.26 94.7099 76.14 95.0899 75.99C95.4699 75.83 95.83 75.64 96.16 75.4C96.49 75.16 96.78 74.87 97.05 74.53C97.32 74.19 97.5399 73.81 97.7399 73.39C98.1199 72.55 98.3699 71.55 98.4799 70.57V70.53C98.5099 70.3 98.7099 70.14 98.9399 70.16C99.1499 70.18 99.2899 70.29 99.3399 70.44Z" fill="#070707"/>
<g opacity="0.3">
<path d="M98.9301 70.51L98.5201 70.35C97.8301 72.19 96.1701 74.08 92.3001 74.28C87.4901 74.53 84.24 71.95 82.46 69.95C82.44 69.93 82.4301 69.91 82.4101 69.89C81.5001 68.86 79.96 68.74 78.89 69.59C76.79 71.25 73.11 73.25 68.39 72.15C64.96 71.36 63.57 69.51 63.08 67.73C62.71 69.22 61.93 74.44 68.39 75.94C75.95 77.69 80.84 71.51 80.84 71.51C80.84 71.51 84.5601 78.45 92.3101 78.06C100.05 77.68 98.9301 70.51 98.9301 70.51Z" fill="#070707"/>
</g>
<path d="M80.4599 89.6C80.0499 89.6 79.6399 89.57 79.2199 89.51C70.6499 88.68 67.8 76.9 67.68 76.4C67.5 75.64 67.9699 74.89 68.7299 74.71C69.4899 74.53 70.24 75 70.42 75.76C70.44 75.86 72.94 86.1 79.52 86.71C79.54 86.71 79.5699 86.71 79.5899 86.72C86.1099 87.66 90.99 77.56 91.03 77.46C91.36 76.76 92.2 76.46 92.9 76.79C93.6 77.12 93.8999 77.96 93.5699 78.66C93.3499 79.14 88.3099 89.6 80.4599 89.6Z" fill="#070707"/>
<path d="M31.0301 173.94C20.4301 173.94 9.71005 163.39 7.13005 150.38C5.67005 143.04 7.01009 136.18 10.8001 131.54C13.6201 128.09 17.6501 126.18 22.1301 126.16C22.1501 126.16 22.1701 126.16 22.1801 126.16C32.7801 126.16 43.5 136.71 46.08 149.72C47.54 157.06 46.2001 163.92 42.4101 168.56C39.5901 172.01 35.56 173.92 31.08 173.94C31.07 173.94 31.0501 173.94 31.0301 173.94ZM22.19 128.92C22.17 128.92 22.1601 128.92 22.1401 128.92C18.4401 128.93 15.2601 130.44 12.9301 133.29C9.6601 137.29 8.53 143.32 9.83 149.85C12.17 161.63 21.6701 171.19 31.0301 171.19C31.0501 171.19 31.06 171.19 31.08 171.19C34.78 171.18 37.9601 169.67 40.2901 166.82C43.5601 162.82 44.6901 156.79 43.3901 150.26C41.0501 138.48 31.55 128.92 22.19 128.92Z" fill="#070707"/>
<path d="M30.6099 131.21C29.9699 131.21 29.4 130.77 29.27 130.12C29.25 130.02 29.21 129.92 29.16 129.81C28.7 128.86 28.7599 127.76 29.3299 126.87C29.8999 125.97 30.87 125.44 31.93 125.44C31.94 125.44 31.9399 125.44 31.9499 125.44C32.3899 125.44 32.79 125.46 33.15 125.49C33.04 124.48 33.0599 123.45 33.2199 122.42C33.3599 121.47 33.94 120.66 34.79 120.2C35.64 119.75 36.67 119.72 37.54 120.14C39.73 121.18 42.9299 121.99 42.9599 122C43.6999 122.19 44.1399 122.93 43.9599 123.67C43.7699 124.41 43.03 124.85 42.29 124.67C42.15 124.63 38.7999 123.78 36.3599 122.63C36.2299 122.57 36.1299 122.61 36.0799 122.64C35.9999 122.68 35.9499 122.75 35.9399 122.84C35.7399 124.18 35.8199 125.5 36.1999 126.76C36.3399 127.24 36.2099 127.76 35.8499 128.12C35.4999 128.48 34.9799 128.61 34.4899 128.47C34.4899 128.47 33.52 128.21 31.93 128.2C31.78 128.2 31.69 128.29 31.66 128.35C31.6 128.44 31.6 128.53 31.64 128.63C31.79 128.94 31.8999 129.25 31.9699 129.57C32.1299 130.31 31.65 131.04 30.91 131.2C30.8 131.2 30.6999 131.21 30.6099 131.21Z" fill="#070707"/>
<path d="M136.63 173.94C136.61 173.94 136.59 173.94 136.58 173.94C132.1 173.92 128.08 172.01 125.25 168.56C121.46 163.92 120.12 157.06 121.58 149.72C124.16 136.72 134.88 126.16 145.48 126.16C145.5 126.16 145.52 126.16 145.53 126.16C150.01 126.18 154.03 128.09 156.86 131.54C160.65 136.18 161.99 143.04 160.53 150.38C157.95 163.39 147.24 173.94 136.63 173.94ZM145.48 128.92C136.12 128.92 126.62 138.48 124.28 150.26C122.98 156.79 124.11 162.82 127.38 166.82C129.71 169.67 132.89 171.18 136.59 171.19C136.61 171.19 136.62 171.19 136.64 171.19C146 171.19 155.5 161.63 157.84 149.85C159.14 143.32 158.01 137.29 154.74 133.29C152.41 130.44 149.23 128.93 145.53 128.92C145.51 128.92 145.49 128.92 145.48 128.92Z" fill="#070707"/>
<path d="M137.06 131.21C136.97 131.21 136.87 131.2 136.77 131.18C136.03 131.02 135.55 130.29 135.71 129.55C135.78 129.24 135.89 128.92 136.04 128.61C136.09 128.51 136.08 128.42 136.02 128.33C135.98 128.27 135.9 128.18 135.75 128.18C134.16 128.19 133.19 128.45 133.19 128.46C132.71 128.59 132.19 128.46 131.84 128.1C131.49 127.74 131.36 127.23 131.5 126.75C131.87 125.48 131.96 124.16 131.76 122.83C131.75 122.74 131.7 122.68 131.62 122.63C131.57 122.6 131.46 122.56 131.34 122.62C128.9 123.78 125.55 124.63 125.41 124.66C124.67 124.85 123.93 124.4 123.74 123.66C123.55 122.92 124 122.18 124.74 121.99C124.77 121.98 127.97 121.17 130.17 120.13C131.04 119.72 132.07 119.74 132.92 120.19C133.77 120.64 134.35 121.45 134.49 122.41C134.65 123.44 134.67 124.47 134.56 125.48C134.92 125.45 135.32 125.43 135.76 125.43C135.77 125.43 135.77 125.43 135.78 125.43C136.84 125.43 137.81 125.96 138.38 126.86C138.94 127.75 139.01 128.85 138.55 129.8C138.5 129.91 138.46 130.02 138.44 130.11C138.27 130.76 137.69 131.21 137.06 131.21Z" fill="#070707"/>
<path d="M42.62 113.6C42.62 113.6 46.08 113.92 48.51 111.64Z" fill="#070707"/>
<path d="M51.94 163.95C51.34 164.59 50.8001 165.38 50.3901 166.17C49.9801 166.97 49.71 167.82 49.6 168.67C49.52 169.09 49.5501 169.51 49.5401 169.93C49.6001 170.34 49.62 170.75 49.75 171.15L49.83 171.45L49.87 171.6L49.9301 171.74L50.1701 172.31C50.2301 172.5 50.36 172.68 50.46 172.86L50.7701 173.4L50.84 173.52C51.22 174.18 50.99 175.03 50.33 175.41C49.67 175.79 48.82 175.56 48.44 174.9C48.41 174.84 48.37 174.77 48.35 174.71L48.0601 173.94C47.9701 173.68 47.8501 173.44 47.8001 173.16L47.61 172.35L47.57 172.15L47.5501 171.94L47.5101 171.53C47.4301 170.98 47.48 170.42 47.5 169.88C47.59 169.34 47.66 168.8 47.84 168.29C48.15 167.26 48.65 166.32 49.25 165.48C49.56 165.07 49.88 164.67 50.24 164.31C50.59 163.94 50.9601 163.61 51.3801 163.28C51.5801 163.13 51.8601 163.17 52.0101 163.36C52.1501 163.54 52.13 163.79 51.98 163.94L51.94 163.95Z" fill="#070707"/>
<path d="M64.01 165.26C63.34 165.91 62.74 166.68 62.26 167.48C61.78 168.28 61.4199 169.14 61.2299 170C61.0299 170.86 61.01 171.73 61.16 172.56C61.31 173.39 61.63 174.17 62.05 174.89C62.44 175.55 62.21 176.4 61.55 176.78C60.89 177.17 60.04 176.94 59.66 176.28C59.62 176.21 59.58 176.13 59.55 176.06L59.54 176.04C59.16 174.98 58.9299 173.85 58.9399 172.71C58.9499 171.58 59.2 170.46 59.63 169.47C60.05 168.47 60.6499 167.59 61.3299 166.81C62.0199 166.03 62.77 165.36 63.64 164.79C63.78 164.7 63.96 164.74 64.05 164.87C64.13 164.99 64.11 165.15 64.01 165.24V165.26Z" fill="#070707"/>
<g opacity="0.3">
<path d="M81.15 137.47C78.47 131.9 76.9399 121.95 76.9399 121.95C76.9399 121.95 74.48 128.52 76.83 133.41C77.29 134.36 76.4601 135.43 75.4301 135.22C74.7001 135.07 73.87 134.76 73.02 134.14C73.02 134.14 73.55 137.04 74.65 139.27C75.12 140.22 74.33 141.29 73.29 141.12C73.07 141.08 72.85 141.03 72.62 140.94C72.62 140.94 74.1599 158.64 70.8199 165.23C67.4799 171.81 53.96 173.48 45.77 170.21C45.72 170.19 45.67 170.16 45.62 170.14C46.43 171.9 47.87 173.38 50.1 174.27C58.29 177.54 71.81 175.87 75.15 169.29C78.49 162.71 76.95 145 76.95 145C77.18 145.09 77.4 145.14 77.62 145.18C78.66 145.35 79.45 144.28 78.98 143.33C77.88 141.1 77.35 138.2 77.35 138.2C78.2 138.81 79.03 139.13 79.76 139.28C80.77 139.49 81.6 138.42 81.15 137.47Z" fill="#070707"/>
</g>
<g opacity="0.3">
<path d="M86.5999 137.47C89.2799 131.9 90.81 121.95 90.81 121.95C90.81 121.95 93.27 128.52 90.92 133.41C90.46 134.36 91.2899 135.43 92.3199 135.22C93.0499 135.07 93.88 134.76 94.73 134.14C94.73 134.14 94.1999 137.04 93.0999 139.27C92.6299 140.22 93.4199 141.29 94.4599 141.12C94.6799 141.08 94.9 141.03 95.13 140.94C95.13 140.94 93.59 158.64 96.93 165.23C100.27 171.81 113.79 173.48 121.98 170.21C122.03 170.19 122.08 170.16 122.13 170.14C121.32 171.9 119.88 173.38 117.65 174.27C109.46 177.54 95.9399 175.87 92.5999 169.29C89.2599 162.71 90.8 145 90.8 145C90.57 145.09 90.35 145.14 90.13 145.18C89.09 145.35 88.3 144.28 88.77 143.33C89.87 141.1 90.4 138.2 90.4 138.2C89.55 138.81 88.72 139.13 87.99 139.28C86.97 139.49 86.1399 138.42 86.5999 137.47Z" fill="#070707"/>
</g>
<path d="M77.38 121.88C77.74 123.63 78.16 125.38 78.62 127.11C79.08 128.84 79.59 130.55 80.17 132.23C80.46 133.07 80.77 133.89 81.11 134.7C81.28 135.1 81.46 135.5 81.64 135.9C81.73 136.1 81.8301 136.28 81.9301 136.48L82.0699 136.77L82.14 136.91L82.1801 136.98L82.24 137.12C82.41 137.5 82.48 137.96 82.42 138.39C82.36 138.82 82.1901 139.23 81.9301 139.57C81.6701 139.91 81.32 140.19 80.9 140.37C80.49 140.55 80.01 140.6 79.58 140.53L79.5 140.52L79.45 140.51L79.35 140.49L79.15 140.45C79.02 140.42 78.88 140.39 78.75 140.35C78.49 140.28 78.23 140.19 77.97 140.08C77.46 139.87 76.98 139.61 76.54 139.32L78.7 137.96C78.83 138.61 78.9999 139.33 79.1899 140C79.3899 140.68 79.61 141.34 79.86 141.97C79.93 142.12 79.9901 142.28 80.0601 142.43C80.1401 142.61 80.17 142.64 80.34 143.07C80.46 143.43 80.5 143.82 80.46 144.21C80.42 144.6 80.29 144.97 80.09 145.29C79.7 145.94 79 146.42 78.23 146.54C78.04 146.57 77.84 146.58 77.66 146.57C77.57 146.56 77.47 146.55 77.38 146.54L77.1899 146.5C76.9399 146.45 76.6899 146.38 76.4399 146.28L78.3 144.88C78.55 148.03 78.66 151.14 78.66 154.29C78.65 157.43 78.5199 160.58 78.0699 163.76C77.8299 165.35 77.5199 166.94 76.9399 168.55C76.6599 169.34 76.27 170.17 75.75 170.93C75.24 171.68 74.62 172.34 73.96 172.91C72.63 174.05 71.12 174.86 69.58 175.48C68.04 176.1 66.45 176.51 64.84 176.81C61.63 177.37 58.37 177.43 55.15 176.99C53.54 176.77 51.94 176.4 50.37 175.86C49.61 175.59 48.77 175.24 48 174.78C47.24 174.31 46.52 173.74 45.9 173.07C44.65 171.72 43.89 169.98 43.59 168.24C43.3 166.49 43.41 164.74 43.8 163.08C44 162.25 44.26 161.44 44.59 160.66C44.92 159.88 45.32 159.12 45.77 158.4C46.68 156.96 47.85 155.66 49.3 154.63L48.8 156.23C48.18 154.49 47.63 152.78 47.11 151.04C46.85 150.17 46.6 149.3 46.35 148.44L45.64 145.82C44.73 142.32 43.94 138.79 43.28 135.23C42.6 131.68 42.11 128.08 41.75 124.48L41.51 121.77C41.45 120.86 41.41 119.96 41.36 119.05L41.29 117.69L41.27 116.33L41.25 113.6L42.64 114.99C42.43 114.99 42.29 114.98 42.12 114.97C41.96 114.96 41.8 114.95 41.64 114.93C41.32 114.9 40.9999 114.85 40.6899 114.79C40.3699 114.73 40.06 114.66 39.74 114.57C39.58 114.53 39.42 114.48 39.27 114.42C39.21 114.4 39.0599 114.34 38.9499 114.29C38.8299 114.24 38.72 114.17 38.61 114.11C37.7 113.56 37.1599 112.51 37.1999 111.46C37.2199 110.94 37.38 110.41 37.66 109.96C37.73 109.85 37.81 109.75 37.89 109.65L37.98 109.54L38.05 109.46L38.3101 109.15C39.0001 108.33 39.6501 107.47 40.1801 106.59C40.7101 105.71 41.14 104.78 41.28 103.95L42.4399 105.54C42.1899 105.5 42.03 105.47 41.84 105.42C41.66 105.38 41.48 105.33 41.3 105.28C40.94 105.17 40.59 105.05 40.25 104.91C39.56 104.63 38.89 104.25 38.26 103.78C38.1 103.67 37.95 103.53 37.8 103.4L37.74 103.35L37.66 103.28L37.51 103.12C37.41 103.01 37.32 102.89 37.24 102.76C36.92 102.25 36.75 101.64 36.77 101.05C36.79 100.46 36.98 99.87 37.34 99.38C37.51 99.13 37.74 98.92 37.97 98.74C38.03 98.69 38.09 98.66 38.16 98.62L38.33 98.52L38.53 98.41C39.61 97.8 40.66 97.14 41.6 96.41C42.06 96.04 42.5 95.6601 42.86 95.2601C43.22 94.8701 43.5 94.45 43.6 94.15L43.61 94.11C43.85 93.39 44.62 92.9901 45.34 93.2301C46.06 93.4701 46.46 94.24 46.22 94.96V94.97C45.91 95.9 45.4 96.54 44.89 97.11C44.38 97.67 43.84 98.1401 43.29 98.5701C42.19 99.4301 41.04 100.14 39.87 100.8L39.65 100.92C39.63 100.93 39.63 100.94 39.62 100.94L39.61 100.95C39.61 100.95 39.6 100.95 39.59 100.96C39.58 100.98 39.55 100.99 39.54 101.01C39.51 101.04 39.5 101.1 39.49 101.15C39.49 101.2 39.51 101.24 39.52 101.28C39.53 101.29 39.53 101.3 39.54 101.31C39.55 101.31 39.55 101.32 39.55 101.32C39.55 101.32 39.5501 101.32 39.5601 101.33L39.6 101.36C39.7 101.44 39.78 101.53 39.89 101.6C40.3 101.91 40.76 102.17 41.26 102.38C41.51 102.49 41.77 102.58 42.03 102.66C42.16 102.7 42.29 102.74 42.42 102.77C42.54 102.8 42.7 102.83 42.77 102.84L42.8101 102.85C43.5501 102.97 44.0599 103.67 43.9399 104.41V104.43C43.6899 105.83 43.11 106.98 42.49 108.04C41.85 109.1 41.13 110.05 40.36 110.96L40.0699 111.3L40 111.38L39.96 111.42C39.95 111.43 39.9499 111.43 39.9499 111.43C39.9499 111.44 39.9301 111.45 39.9301 111.46C39.9101 111.49 39.9 111.52 39.9 111.57C39.89 111.66 39.94 111.75 40.01 111.79C40.02 111.79 40.02 111.81 40.04 111.81C40.06 111.81 40.04 111.82 40.11 111.84C40.22 111.88 40.3299 111.91 40.4499 111.95C40.6799 112.01 40.91 112.07 41.15 112.12C41.39 112.16 41.63 112.2 41.88 112.23C42 112.24 42.12 112.25 42.25 112.26C42.36 112.27 42.51 112.27 42.58 112.27C43.34 112.27 43.96 112.89 43.97 113.65V113.67L43.99 116.31L44.01 117.63L44.08 118.95C44.13 119.83 44.16 120.71 44.22 121.6L44.46 124.24C44.82 127.76 45.3 131.27 45.96 134.76C46.61 138.25 47.38 141.72 48.28 145.15L48.98 147.72C49.23 148.57 49.47 149.43 49.72 150.27C50.23 151.96 50.78 153.67 51.36 155.3C51.57 155.9 51.35 156.55 50.85 156.9C49.77 157.67 48.8199 158.7 48.0699 159.88C47.6999 160.47 47.37 161.09 47.1 161.73C46.83 162.38 46.6099 163.04 46.4499 163.72C46.1299 165.07 46.05 166.47 46.27 167.78C46.5 169.08 47.04 170.29 47.9 171.23C48.33 171.7 48.83 172.1 49.39 172.44C49.96 172.77 50.55 173.03 51.25 173.28C52.61 173.75 54.04 174.08 55.5 174.28C58.42 174.68 61.4299 174.63 64.3199 174.12C65.7599 173.85 67.19 173.49 68.52 172.95C69.85 172.42 71.1 171.73 72.13 170.85C72.65 170.42 73.09 169.93 73.45 169.4L73.59 169.2L73.71 168.99C73.78 168.85 73.8699 168.73 73.9399 168.57L74.15 168.11L74.33 167.63C74.8 166.31 75.0999 164.86 75.3199 163.38C75.7399 160.42 75.87 157.36 75.88 154.31C75.88 151.26 75.77 148.17 75.53 145.15V145.14C75.47 144.38 76.04 143.72 76.79 143.66C77 143.64 77.2 143.68 77.38 143.74C77.48 143.78 77.59 143.81 77.7 143.83L77.78 143.85C77.78 143.85 77.77 143.85 77.76 143.85C77.72 143.85 77.6999 143.88 77.6899 143.89C77.6799 143.9 77.6701 143.95 77.6801 143.97C77.7201 144.06 77.58 143.75 77.5 143.59C77.41 143.4 77.34 143.22 77.26 143.03C76.96 142.28 76.71 141.53 76.49 140.78C76.27 140.02 76.0901 139.29 75.9301 138.48L75.92 138.45C75.78 137.71 76.26 137 76.99 136.86C77.39 136.78 77.78 136.89 78.08 137.12C78.36 137.35 78.66 137.55 78.98 137.71C79.14 137.79 79.3 137.86 79.46 137.93C79.54 137.96 79.63 137.99 79.71 138.02L79.84 138.06L79.9 138.08L79.9301 138.09C79.9401 138.1 79.9299 138.11 79.9399 138.12C79.9399 138.13 79.96 138.13 79.98 138.12C80.02 138.09 80.05 138.08 80.05 138.02V138.01L80.02 137.93L79.95 137.77L79.8199 137.44C79.7299 137.22 79.6401 137 79.5601 136.78C79.4101 136.34 79.25 135.9 79.11 135.46C78.83 134.58 78.58 133.69 78.35 132.8C77.9 131.02 77.53 129.24 77.22 127.45C76.9 125.66 76.63 123.87 76.42 122.06C76.39 121.81 76.5699 121.59 76.8199 121.56C77.1099 121.49 77.33 121.65 77.38 121.88Z" fill="#070707"/>
<path d="M42.5401 112.23C42.7301 112.26 43 112.28 43.24 112.29C43.49 112.3 43.73 112.31 43.98 112.31C44.48 112.31 44.98 112.29 45.47 112.23C46.46 112.12 47.4301 111.89 48.3001 111.4L48.32 111.39C48.47 111.3 48.6701 111.36 48.7601 111.51C48.8301 111.63 48.81 111.78 48.72 111.88C48.35 112.31 47.91 112.68 47.44 113.01C46.97 113.33 46.47 113.61 45.96 113.85C45.45 114.09 44.9201 114.3 44.3801 114.49C44.1101 114.58 43.84 114.67 43.57 114.75C43.29 114.83 43.03 114.9 42.7 114.97L42.6 114.99C41.84 115.14 41.1 114.65 40.94 113.89C40.78 113.13 41.2801 112.39 42.0401 112.23C42.2101 112.21 42.3801 112.21 42.5401 112.23Z" fill="#070707"/>
<path d="M125.05 113.6C125.05 113.6 121.59 113.92 119.16 111.64Z" fill="#070707"/>
<path d="M116.28 163.28C116.71 163.6 117.07 163.93 117.42 164.3C117.78 164.66 118.1 165.06 118.41 165.47C119.02 166.3 119.51 167.24 119.83 168.27C120.01 168.78 120.08 169.32 120.17 169.86C120.19 170.4 120.25 170.96 120.17 171.51L120.13 171.92L120.11 172.13L120.07 172.33L119.88 173.14C119.83 173.42 119.72 173.66 119.62 173.92L119.33 174.69C119.06 175.4 118.26 175.77 117.55 175.5C116.84 175.23 116.47 174.43 116.74 173.72C116.77 173.65 116.8 173.59 116.83 173.52L116.9 173.39L117.21 172.85C117.31 172.67 117.44 172.49 117.5 172.3L117.74 171.73L117.8 171.59L117.84 171.44L117.92 171.14C118.05 170.74 118.07 170.33 118.13 169.92C118.12 169.51 118.15 169.08 118.07 168.66C117.96 167.81 117.69 166.96 117.28 166.15C116.88 165.35 116.34 164.56 115.73 163.91L115.71 163.89C115.55 163.72 115.56 163.46 115.73 163.3C115.89 163.16 116.12 163.16 116.28 163.28Z" fill="#070707"/>
<path d="M103.96 164.86C104.82 165.41 105.58 166.08 106.27 166.85C106.95 167.62 107.56 168.49 107.99 169.49C108.43 170.48 108.68 171.58 108.7 172.71C108.72 173.84 108.5 174.98 108.12 176.04L108.11 176.06C107.86 176.78 107.07 177.16 106.35 176.9C105.63 176.64 105.25 175.86 105.51 175.14C105.54 175.05 105.58 174.97 105.63 174.89C106.06 174.17 106.39 173.39 106.54 172.56C106.69 171.73 106.68 170.86 106.49 169.99C106.31 169.12 105.94 168.26 105.47 167.44C104.99 166.63 104.4 165.85 103.72 165.19L103.71 165.18C103.63 165.1 103.63 164.97 103.71 164.89C103.77 164.81 103.88 164.8 103.96 164.86Z" fill="#070707"/>
<path d="M91.1401 122.01C90.9301 123.82 90.66 125.6 90.35 127.39C90.04 129.18 89.67 130.96 89.23 132.74C89.01 133.63 88.76 134.51 88.48 135.4C88.34 135.84 88.1801 136.28 88.0301 136.72C87.9501 136.94 87.8601 137.16 87.7701 137.38L87.6401 137.71L87.57 137.87L87.5401 137.95V137.96C87.5401 138.02 87.57 138.03 87.61 138.06C87.63 138.07 87.6501 138.07 87.6601 138.06C87.6701 138.05 87.6601 138.04 87.6701 138.03L87.7 138.02L87.7601 138L87.8901 137.96C87.9701 137.93 88.0601 137.9 88.1401 137.87C88.3101 137.81 88.47 137.73 88.62 137.65C88.94 137.49 89.2401 137.29 89.5201 137.06C90.1001 136.59 90.9501 136.68 91.4101 137.26C91.6601 137.56 91.75 137.94 91.69 138.3L91.6701 138.42C91.5101 139.23 91.33 139.96 91.11 140.73C90.89 141.49 90.64 142.24 90.34 142.99C90.26 143.18 90.18 143.37 90.1 143.55C90.02 143.72 89.8901 144.01 89.9301 143.92C89.9401 143.9 89.9301 143.88 89.9301 143.87C89.9301 143.87 89.89 143.82 89.82 143.81C89.81 143.81 89.7901 143.81 89.7901 143.81C89.7701 143.82 89.81 143.81 89.84 143.81L89.9201 143.79C90.0301 143.77 90.14 143.74 90.24 143.7C90.95 143.43 91.7501 143.79 92.0101 144.5C92.0801 144.69 92.11 144.89 92.1 145.09V145.11C91.86 148.13 91.75 151.22 91.75 154.27C91.76 157.32 91.8901 160.38 92.3101 163.34C92.5301 164.81 92.8301 166.27 93.3001 167.59L93.48 168.07L93.69 168.53C93.75 168.69 93.8401 168.81 93.9201 168.95L94.0401 169.16L94.1801 169.36C94.5401 169.89 94.98 170.38 95.5 170.81C96.52 171.69 97.77 172.38 99.11 172.91C100.44 173.45 101.87 173.82 103.31 174.08C106.21 174.59 109.22 174.64 112.13 174.24C113.59 174.04 115.02 173.7 116.38 173.24C117.07 172.99 117.67 172.74 118.24 172.4C118.79 172.06 119.3 171.65 119.73 171.19C120.59 170.26 121.13 169.05 121.36 167.74C121.58 166.43 121.51 165.03 121.18 163.68C121.02 163 120.8 162.34 120.53 161.69C120.25 161.05 119.93 160.43 119.56 159.84C118.82 158.66 117.87 157.63 116.78 156.86C116.26 156.49 116.07 155.83 116.27 155.26C116.85 153.63 117.4 151.92 117.91 150.23C118.17 149.38 118.41 148.53 118.65 147.68L119.35 145.11C120.25 141.67 121.02 138.21 121.67 134.72C122.34 131.23 122.82 127.72 123.17 124.2L123.41 121.56C123.47 120.68 123.5 119.8 123.55 118.91L123.62 117.59L123.64 116.27L123.66 113.63V113.62C123.67 112.86 124.29 112.24 125.05 112.24C125.12 112.24 125.26 112.23 125.38 112.23C125.5 112.22 125.62 112.21 125.75 112.2C125.99 112.17 126.24 112.14 126.48 112.09C126.72 112.05 126.96 111.99 127.18 111.92C127.29 111.89 127.41 111.85 127.52 111.81C127.6 111.79 127.57 111.79 127.59 111.78C127.6 111.78 127.61 111.77 127.62 111.76C127.69 111.73 127.74 111.63 127.73 111.54C127.73 111.5 127.72 111.47 127.7 111.43C127.7 111.42 127.68 111.41 127.68 111.4C127.68 111.39 127.68 111.4 127.67 111.39L127.63 111.35L127.56 111.27L127.27 110.93C126.5 110.02 125.77 109.07 125.14 108.01C124.51 106.95 123.93 105.8 123.69 104.4C123.56 103.67 124.04 102.97 124.77 102.83L124.85 102.81L125.04 102.77L125.27 102.72C125.43 102.68 125.59 102.63 125.74 102.59C126.05 102.49 126.36 102.37 126.65 102.23C126.94 102.09 127.22 101.94 127.48 101.76C127.61 101.68 127.73 101.58 127.85 101.49L128.02 101.34C128.04 101.32 128.09 101.28 128.09 101.28C128.09 101.27 128.1 101.27 128.11 101.26C128.19 101.18 128.18 101.02 128.11 100.95C128.1 100.94 128.09 100.93 128.08 100.92C128.08 100.91 128.07 100.91 128.06 100.91L128.05 100.9L127.99 100.86C127.82 100.75 127.64 100.65 127.47 100.54C127.12 100.33 126.78 100.1 126.45 99.87C125.11 98.95 123.83 97.9 122.68 96.67C122.11 96.04 121.57 95.38 121.11 94.64C120.65 93.9 120.25 93.09 119.97 92.23C119.73 91.51 120.13 90.73 120.85 90.49C121.57 90.25 122.35 90.65 122.59 91.37L122.6 91.4C122.8 92.01 123.09 92.6 123.45 93.17C123.81 93.74 124.25 94.28 124.72 94.81C125.68 95.85 126.81 96.78 128.02 97.61C128.32 97.82 128.63 98.02 128.94 98.21C129.09 98.31 129.25 98.4 129.41 98.5L129.47 98.54L129.58 98.61C129.65 98.66 129.73 98.71 129.8 98.76C129.94 98.87 130.07 98.99 130.19 99.13C130.68 99.67 130.93 100.39 130.93 101.1C130.93 101.81 130.67 102.53 130.19 103.07L130.01 103.26C129.95 103.33 129.92 103.35 129.87 103.39L129.6 103.62C129.41 103.76 129.23 103.91 129.03 104.04C128.65 104.3 128.24 104.52 127.84 104.71C127.43 104.9 127.02 105.06 126.59 105.2C126.38 105.27 126.16 105.33 125.95 105.38L125.62 105.46C125.5 105.49 125.41 105.5 125.24 105.53L126.4 103.94C126.54 104.78 126.97 105.71 127.5 106.58C128.03 107.46 128.68 108.32 129.37 109.14L129.63 109.45L129.7 109.53L129.79 109.64C129.87 109.74 129.95 109.84 130.02 109.95C130.31 110.39 130.47 110.92 130.48 111.45C130.52 112.5 129.98 113.54 129.07 114.1C128.96 114.17 128.84 114.24 128.73 114.28C128.62 114.33 128.47 114.39 128.41 114.41C128.25 114.46 128.09 114.51 127.94 114.56C127.62 114.65 127.31 114.72 126.99 114.78C126.67 114.84 126.36 114.89 126.04 114.92C125.88 114.94 125.72 114.95 125.56 114.96C125.39 114.97 125.25 114.98 125.04 114.98L126.43 113.59L126.41 116.32L126.39 117.68L126.32 119.04C126.27 119.95 126.23 120.85 126.17 121.76L125.93 124.47C125.57 128.08 125.07 131.67 124.4 135.22C123.74 138.78 122.96 142.31 122.04 145.81L121.33 148.43C121.08 149.3 120.84 150.17 120.57 151.03C120.05 152.77 119.5 154.47 118.88 156.22L118.38 154.62C119.82 155.64 121 156.95 121.91 158.39C122.36 159.11 122.76 159.87 123.09 160.65C123.42 161.43 123.68 162.24 123.88 163.07C124.27 164.73 124.38 166.49 124.09 168.23C123.78 169.97 123.03 171.71 121.78 173.06C121.16 173.73 120.44 174.3 119.68 174.77C118.91 175.23 118.08 175.58 117.31 175.85C115.74 176.39 114.14 176.76 112.53 176.98C109.31 177.42 106.05 177.37 102.84 176.8C101.24 176.51 99.65 176.1 98.1 175.47C96.56 174.86 95.05 174.04 93.72 172.9C93.05 172.34 92.4401 171.67 91.9301 170.92C91.4101 170.16 91.01 169.33 90.74 168.54C90.17 166.94 89.85 165.34 89.61 163.75C89.16 160.58 89.0301 157.42 89.0201 154.28C89.0201 151.13 89.13 148.03 89.38 144.87L91.24 146.27C91 146.36 90.75 146.43 90.49 146.49L90.3001 146.53C90.2401 146.54 90.18 146.55 90.07 146.56C89.88 146.58 89.68 146.58 89.48 146.55C89.08 146.5 88.69 146.35 88.36 146.13C88.03 145.91 87.77 145.61 87.58 145.29C87.19 144.64 87.09 143.81 87.33 143.08C87.5 142.64 87.54 142.6 87.61 142.43C87.68 142.28 87.7401 142.12 87.8101 141.97C88.0701 141.34 88.29 140.67 88.49 139.99C88.68 139.32 88.86 138.6 88.99 137.95L91.1501 139.31C90.7001 139.61 90.22 139.87 89.71 140.07C89.46 140.17 89.2001 140.26 88.9301 140.33C88.8001 140.37 88.6601 140.4 88.5301 140.43L88.33 140.47L88.23 140.49L88.1801 140.5L88.1 140.51C87.67 140.58 87.1901 140.52 86.7801 140.35C86.3701 140.18 86.0101 139.89 85.7601 139.55C85.5001 139.21 85.3301 138.8 85.2801 138.37C85.2201 137.94 85.29 137.49 85.46 137.11L85.5201 136.97L85.5601 136.9L85.63 136.76L85.7801 136.47C85.8801 136.28 85.98 136.09 86.07 135.89C86.25 135.49 86.43 135.1 86.6 134.69C86.94 133.88 87.2501 133.05 87.5401 132.22C88.1301 130.54 88.64 128.83 89.1 127.1C89.56 125.37 89.99 123.62 90.35 121.87V121.86C90.4 121.64 90.61 121.5 90.83 121.54C91.03 121.61 91.1601 121.81 91.1401 122.01Z" fill="#070707"/>
<path d="M125 114.98C124.79 114.95 124.65 114.92 124.48 114.88C124.32 114.84 124.16 114.81 124.01 114.76C123.7 114.68 123.39 114.59 123.09 114.48C122.48 114.28 121.89 114.04 121.32 113.76C120.75 113.48 120.2 113.14 119.69 112.77C119.18 112.39 118.71 111.95 118.3 111.47C118.15 111.3 118.17 111.04 118.34 110.89C118.48 110.77 118.68 110.76 118.83 110.86L118.85 110.88C119.32 111.19 119.8 111.45 120.31 111.64C120.83 111.83 121.35 111.98 121.89 112.08C122.43 112.18 122.97 112.24 123.52 112.27C123.79 112.28 124.06 112.29 124.33 112.28C124.46 112.28 124.6 112.27 124.73 112.27C124.85 112.26 125 112.25 125.09 112.24C125.85 112.1 126.59 112.6 126.73 113.36C126.87 114.12 126.37 114.86 125.61 115C125.46 115.03 125.3 115.03 125.16 115.01L125 114.98Z" fill="#070707"/>
<path d="M111.76 102.4C111.59 102.4 111.42 102.37 111.26 102.31C110.91 102.17 110.63 101.9 110.49 101.55L108.74 97.27C108.45 96.57 108.79 95.76 109.49 95.48C110.19 95.19 111 95.53 111.28 96.23L112.38 98.92C113.5 97.92 115.14 95.94 116.08 92.41C116.24 91.8 116.8 91.38 117.42 91.39C118.05 91.4 118.59 91.83 118.74 92.44L119.03 93.6C120.62 90.1 122.99 83.92 124.35 75.79C124.45 75.18 124.94 74.72 125.55 74.65C126.16 74.58 126.74 74.92 126.98 75.49C127.96 77.86 130.14 79.52 132.67 79.83L133.67 79.82C134.99 79.81 136.26 79.45 137.34 78.78C146.66 73 161.24 59.22 163.22 49.41C163.66 47.24 163.4 45.45 162.44 44.1C155.85 34.8 135.09 21.81 134.88 21.68C134.39 21.37 134.14 20.79 134.26 20.23C134.38 19.66 134.84 19.23 135.41 19.15L139.33 18.6C134.03 16.01 127.66 16.11 127.58 16.12C127.07 16.13 126.6 15.86 126.35 15.42C126.1 14.98 126.12 14.43 126.39 14.01L128.36 10.94C118.88 10.72 114.21 15.62 113.32 16.67C112.92 17.14 112.27 17.29 111.71 17.04C111.4 16.9 110.44 16.55 107.49 15.82C93.26 12.27 78.63 11.01 64 12.06C61.11 12.27 60.03 12.43 59.63 12.53C59.04 12.68 58.42 12.42 58.11 11.89C57.41 10.7 53.6501 5.06999 44.2801 3.65999L45.69 7.02999C45.89 7.49999 45.81 8.03998 45.49 8.42998C45.17 8.81998 44.6601 9.00999 44.1601 8.90999C44.0901 8.89999 37.8201 7.70998 32.1601 9.33998L35.9301 10.55C36.4801 10.73 36.86 11.23 36.88 11.81C36.9 12.39 36.5601 12.92 36.0201 13.14C35.7901 13.23 13.1101 22.47 5.02006 30.5C3.83006 31.68 3.26 33.43 3.34 35.69C3.69 45.7 15.81 62.1 24.34 69.45C25.37 70.33 26.6801 70.82 28.0401 70.8C28.0701 70.8 28.09 70.8 28.12 70.8C28.29 70.81 28.46 70.82 28.63 70.81C31.05 70.79 33.2601 69.55 34.5601 67.5C34.8901 66.98 35.52 66.74 36.11 66.91C36.7 67.08 37.1 67.62 37.1 68.24C37.05 76.48 38.3201 82.98 39.2901 86.7L39.7701 85.61C40.0201 85.04 40.63 84.71 41.25 84.81C41.87 84.91 42.3401 85.42 42.4001 86.05C42.7201 89.69 43.9901 91.92 44.9301 93.1L46.47 90.64C46.87 90 47.72 89.8 48.37 90.21C49.01 90.61 49.2101 91.46 48.8001 92.11L46.34 96.03C46.14 96.35 45.82 96.57 45.45 96.65C45.08 96.73 44.7001 96.64 44.3901 96.43C44.2601 96.34 41.9401 94.66 40.5601 90.67L40.3101 91.23C40.0901 91.74 39.5801 92.07 39.0201 92.05C38.4601 92.04 37.9701 91.69 37.7701 91.17C37.6401 90.83 34.8201 83.39 34.4001 71.67C32.7601 72.88 30.7601 73.56 28.6501 73.58C28.4401 73.58 28.2301 73.58 28.0201 73.57C28.0101 73.57 28 73.57 27.99 73.57C25.99 73.57 24.0601 72.85 22.5401 71.55C13.8201 64.04 0.979993 46.99 0.579993 35.81C0.469993 32.75 1.30998 30.31 3.06998 28.57C9.66998 22.02 24.7401 15.02 31.5501 12.06L27.75 10.84C27.23 10.67 26.8601 10.22 26.8001 9.67C26.7401 9.13 27.01 8.59998 27.49 8.32998C32.49 5.47998 38.79 5.56998 42.21 5.89998L40.83 2.59999C40.65 2.15999 40.7 1.65998 40.98 1.26998C41.26 0.879977 41.72 0.660001 42.19 0.700001C53.05 1.45 58.22 7.25998 59.94 9.70998C60.66 9.60998 61.8301 9.47998 63.7901 9.33998C78.7101 8.26998 93.6301 9.55 108.14 13.17C110.05 13.65 111.18 13.97 111.88 14.2C113.99 12.08 120.09 7.23998 130.91 8.36998C131.38 8.41998 131.8 8.71 132.01 9.14C132.22 9.57 132.19 10.08 131.93 10.48L130 13.49C133.42 13.76 139.65 14.75 144.08 18.42C144.5 18.77 144.68 19.33 144.53 19.85C144.38 20.37 143.94 20.76 143.4 20.84L139.46 21.39C145.66 25.48 159.3 34.96 164.68 42.54C166.09 44.53 166.51 47.04 165.91 49.98C163.75 60.68 148.77 74.96 138.78 81.15C137.27 82.09 135.5 82.59 133.68 82.61L132.6 82.62C132.55 82.62 132.49 82.62 132.44 82.61C130.11 82.35 128 81.28 126.43 79.64C124.01 91.11 119.95 97.97 119.77 98.28C119.48 98.76 118.94 99.01 118.39 98.93C117.84 98.85 117.39 98.44 117.26 97.9L117.11 97.3C115.07 101 112.49 102.26 112.35 102.33C112.16 102.36 111.96 102.4 111.76 102.4Z" fill="#070707"/>
<path d="M48.8199 90.65C49.8399 92.72 51.3399 94.6101 53.0999 96.2601C54.8699 97.9201 56.89 99.35 59.03 100.59C59.19 100.68 59.24 100.88 59.15 101.04C59.07 101.19 58.8899 101.24 58.7399 101.18C56.4099 100.23 54.13 99.07 52.02 97.58C49.92 96.09 47.9699 94.2701 46.4499 92.0401L46.4399 92.03C46.0099 91.4 46.17 90.54 46.8 90.11C47.43 89.68 48.2899 89.84 48.7199 90.47C48.7499 90.54 48.7899 90.6 48.8199 90.65Z" fill="#070707"/>
<path d="M94.65 104.55C97.45 103.74 100.17 102.68 102.65 101.25C105.12 99.8301 107.34 98.0301 108.96 95.8501C109.41 95.2401 110.28 95.1101 110.89 95.5701C111.5 96.0201 111.63 96.8901 111.17 97.5001C111.14 97.5401 111.1 97.5801 111.07 97.6201L111.06 97.6301C108.86 99.9301 106.18 101.58 103.4 102.76C100.61 103.95 97.71 104.69 94.78 105.16C94.61 105.19 94.44 105.07 94.41 104.9C94.4 104.75 94.5 104.59 94.65 104.55Z" fill="#070707"/>
<path d="M53.92 18.56C51.41 22.25 49.11 26.08 47.09 30.05C45.07 34.02 43.31 38.11 41.85 42.3C38.91 50.67 37.29 59.48 37.09 68.28V68.3C37.07 69.06 36.4401 69.66 35.6801 69.64C34.9201 69.62 34.32 68.99 34.34 68.23C34.34 68.22 34.34 68.2 34.34 68.18C34.87 59.07 36.87 50.1 40.17 41.68C41.81 37.47 43.7499 33.38 45.9399 29.43C48.1299 25.49 50.59 21.7 53.25 18.08C53.38 17.9 53.64 17.86 53.83 17.99C54.01 18.12 54.05 18.37 53.92 18.56Z" fill="#070707"/>
<path d="M117.4 24.03C119.39 28.02 121.14 32.14 122.6 36.37C124.06 40.6 125.24 44.93 126.11 49.33C126.99 53.73 127.5 58.21 127.67 62.71C127.84 67.21 127.63 71.73 127.07 76.22C126.97 76.97 126.29 77.51 125.53 77.41C124.77 77.31 124.24 76.63 124.34 75.87C124.34 75.86 124.34 75.84 124.35 75.83V75.81C125.04 71.5 125.39 67.14 125.37 62.76C125.35 58.38 125 54 124.29 49.66C123.59 45.32 122.57 41.03 121.27 36.81C119.97 32.6 118.37 28.47 116.54 24.45C116.43 24.21 116.54 23.93 116.77 23.82C117.01 23.7 117.29 23.8 117.4 24.03Z" fill="#070707"/>
<path d="M86.9301 57.4C85.8201 56.87 84.2801 56.45 82.1701 56.28C80.0901 56.04 78.51 56.17 77.32 56.46C74.66 57.13 73.27 59.97 74.35 62.49C74.59 63.05 74.9101 63.57 75.2701 64.05C78.2301 67.94 83.82 68.49 87.45 65.22C87.9 64.82 88.3001 64.37 88.6501 63.87C90.2001 61.61 89.4001 58.56 86.9301 57.4Z" fill="#070707"/>
<path d="M86.0333 58.5496C86.0882 57.8559 84.4009 57.1567 82.2646 56.9879C80.1284 56.819 78.3522 57.2444 78.2974 57.9381C78.2426 58.6318 79.9298 59.3311 82.0661 59.5C84.2023 59.6688 85.9785 59.2433 86.0333 58.5496Z" fill="#1E1E1E"/>
<g opacity="0.3">
<path d="M47.63 83.98L45.17 87.9C45.17 87.9 41.61 85.39 41.02 78.78L39.04 83.27C39.04 83.27 36.4399 76.53 35.8399 65.79C37.5799 42.7 51.67 21.1 51.67 21.1C35.35 31.51 30.89 49.24 29.76 60.39C29.46 63.39 26 64.95 23.55 63.19C23.51 63.16 23.4799 63.14 23.4399 63.11C15.0699 56.96 4.96994 42.28 2.48994 31.96C-1.00006 41.46 13.4299 61.86 23.4399 70.47C24.7199 71.57 26.36 72.17 28.05 72.16C28.25 72.17 28.45 72.18 28.64 72.17C31.6 72.15 34.2299 70.59 35.7199 68.22C35.6299 81.79 39.05 90.64 39.05 90.64L41.03 86.15C41.61 92.76 45.18 95.27 45.18 95.27L47.64 91.35C51.17 97.36 58.6399 101.65 67.3299 104C58.6299 98.97 51.16 90 47.63 83.98Z" fill="black"/>
</g>
<g opacity="0.3">
<path d="M164.07 44.14C160.83 53.92 147.49 66.7299 138.07 72.5699C138.01 72.5999 137.95 72.64 137.89 72.67C135.63 73.82 133.01 71.9399 133.22 69.4099C134.13 58.1799 132.01 40.86 118.68 27.95C118.68 27.95 127.69 48.6899 126.49 70.0699C126.19 69.6199 125.93 69.1299 125.72 68.6299C123.48 82.0099 118.6 90.14 118.6 90.14L117.42 85.3799C115.71 91.7899 111.77 93.6499 111.77 93.6499L110.02 89.3699C105.61 94.5699 97.7801 102.18 89.0601 105.76C97.7801 104.87 105.61 101.94 110.02 96.7399L111.77 101.02C111.77 101.02 115.72 99.1599 117.42 92.7499L118.6 97.5099C118.6 97.5099 123.48 89.3799 125.72 75.9999C126.86 78.7599 129.43 80.8299 132.61 81.1899L133.69 81.1799C135.24 81.1699 136.76 80.7499 138.08 79.9299C150.17 72.4299 168.73 53.44 164.07 44.14Z" fill="black"/>
</g>
<path d="M80.67 75.16C80.64 75.16 80.6099 75.16 80.5799 75.16C79.7499 75.11 79.12 74.4 79.17 73.58L79.5899 66.21C79.6399 65.38 80.34 64.75 81.17 64.8C82 64.85 82.6299 65.56 82.5799 66.38L82.16 73.75C82.12 74.54 81.46 75.16 80.67 75.16Z" fill="#070707"/>
<path d="M62.35 36.53C58.47 35.3 54.1301 39.23 52.6701 45.32C51.2101 51.41 53.1701 57.34 57.0601 58.57C60.9401 59.8 65.28 55.87 66.74 49.78C68.2 43.69 66.23 37.76 62.35 36.53Z" fill="#070707"/>
<path d="M61.6899 39.07C60.3499 39.38 59.5 41.38 59.79 43.54C60.08 45.69 61.4 47.18 62.75 46.87C64.09 46.56 64.94 44.56 64.65 42.4C64.36 40.25 63.0299 38.76 61.6899 39.07Z" fill="white"/>
<path d="M62.3801 47.1099C61.9901 47.1099 61.6101 46.98 61.2401 46.73C60.3901 46.14 59.77 44.96 59.58 43.56C59.28 41.31 60.2001 39.21 61.6401 38.87C62.1601 38.75 62.6901 38.86 63.1801 39.2C64.0301 39.79 64.65 40.97 64.84 42.37C65.14 44.62 64.2201 46.72 62.7801 47.06C62.6501 47.09 62.5201 47.1099 62.3801 47.1099ZM62.0501 39.23C61.9501 39.23 61.8401 39.2399 61.7401 39.2699C60.5001 39.5599 59.7101 41.46 59.9901 43.51C60.1601 44.8 60.72 45.88 61.48 46.4C61.87 46.67 62.3 46.76 62.7 46.67C63.94 46.38 64.73 44.4799 64.45 42.4299C64.28 41.1399 63.72 40.06 62.96 39.54C62.66 39.33 62.3501 39.23 62.0501 39.23Z" fill="white"/>
<path d="M55.5 51.5401C54.83 51.9001 54.59 53.0401 54.96 54.1001C55.32 55.1601 56.16 55.7301 56.83 55.3701C57.5 55.0101 57.74 53.8701 57.37 52.8101C57 51.7501 56.16 51.1801 55.5 51.5401Z" fill="#1E1E1E"/>
<path d="M56.4001 55.68C56.2601 55.68 56.11 55.65 55.96 55.59C55.45 55.39 55 54.86 54.76 54.16C54.36 52.99 54.6401 51.76 55.4001 51.35C55.6901 51.19 56.02 51.18 56.35 51.31C56.86 51.51 57.3101 52.04 57.5501 52.74C57.9501 53.91 57.6701 55.14 56.9101 55.55C56.7501 55.64 56.5801 55.68 56.4001 55.68ZM55.59 51.71C55.02 52.02 54.81 53.08 55.14 54.03C55.34 54.62 55.7 55.06 56.11 55.22C56.33 55.31 56.54 55.3 56.73 55.2C57.3 54.89 57.5101 53.83 57.1801 52.88C56.9801 52.29 56.62 51.85 56.21 51.69C55.99 51.6 55.78 51.61 55.59 51.71Z" fill="#1E1E1E"/>
<path d="M104.58 39.81C108.6 39.14 112.33 43.65 112.91 49.88C113.49 56.11 110.7 61.7 106.68 62.37C102.66 63.04 98.93 58.53 98.35 52.3C97.77 46.07 100.56 40.48 104.58 39.81Z" fill="#070707"/>
<path d="M104.87 42.4201C106.15 42.9201 106.71 45.02 106.12 47.11C105.53 49.2 104.01 50.49 102.72 49.99C101.44 49.49 100.88 47.39 101.47 45.3C102.07 43.2 103.59 41.9201 104.87 42.4201Z" fill="white"/>
<path d="M103.3 50.29C103.08 50.29 102.86 50.25 102.65 50.17C101.28 49.63 100.66 47.42 101.28 45.24C101.67 43.88 102.45 42.8 103.37 42.34C103.9 42.08 104.44 42.04 104.94 42.23C106.31 42.77 106.93 44.98 106.31 47.16C105.92 48.52 105.14 49.6 104.22 50.06C103.91 50.22 103.6 50.29 103.3 50.29ZM104.3 42.51C104.06 42.51 103.8 42.57 103.55 42.7C102.72 43.11 102.02 44.1 101.66 45.35C101.09 47.34 101.6 49.34 102.79 49.8C103.18 49.95 103.61 49.92 104.04 49.71C104.87 49.3 105.57 48.31 105.93 47.06C106.5 45.07 105.99 43.07 104.8 42.61C104.64 42.54 104.47 42.51 104.3 42.51Z" fill="white"/>
<path d="M109.23 55.6401C109.84 56.0901 109.92 57.26 109.4 58.26C108.89 59.26 107.98 59.7 107.37 59.26C106.76 58.81 106.68 57.6401 107.2 56.6401C107.72 55.6401 108.62 55.1901 109.23 55.6401Z" fill="#1E1E1E"/>
<path d="M107.91 59.62C107.67 59.62 107.45 59.55 107.26 59.41C106.57 58.9 106.46 57.64 107.03 56.54C107.37 55.89 107.88 55.42 108.42 55.3C108.76 55.22 109.09 55.2801 109.36 55.4801C110.05 55.9901 110.16 57.25 109.59 58.35C109.25 59 108.74 59.47 108.2 59.59C108.1 59.61 108 59.62 107.91 59.62ZM108.7 55.66C108.64 55.66 108.57 55.67 108.5 55.68C108.08 55.78 107.66 56.17 107.38 56.72C106.92 57.62 106.97 58.7 107.5 59.08C107.67 59.21 107.88 59.25 108.11 59.19C108.53 59.09 108.95 58.7 109.23 58.15C109.69 57.25 109.64 56.17 109.12 55.79C108.99 55.71 108.85 55.66 108.7 55.66Z" fill="#1E1E1E"/>
</svg>
