<svg width="135" height="105" viewBox="0 0 135 105" fill="none" xmlns="http://www.w3.org/2000/svg">
<g opacity="0.3">
<path d="M67.54 104.12C104.598 104.12 134.64 99.5757 134.64 93.97C134.64 88.3643 104.598 83.82 67.54 83.82C30.4817 83.82 0.439941 88.3643 0.439941 93.97C0.439941 99.5757 30.4817 104.12 67.54 104.12Z" fill="#3D3D3D"/>
</g>
<path d="M108.6 41.62C101.82 34.87 90.88 33.41 90.88 33.41C67.72 29.35 46.3 36.14 46.3 36.14C45.03 25.46 51.46 18.37 60.65 16.81C73.87 14 78.1499 6.34998 70.7399 2.41998C71.1899 2.40998 71.6499 2.40998 72.0999 2.41998C90.3299 2.69998 107.99 17.7 95.4899 33.44C101.05 35.28 105.57 38.17 108.6 41.62Z" fill="#4C210F"/>
<path d="M38.59 89.15C28.53 93.13 25.0201 87.01 17.2901 90.07C8.70008 81.06 17.26 66.62 27.23 61.74C24.19 50.3 32.89 38.95 45.85 36.24C46.14 36.18 46.3001 36.15 46.3001 36.15C46.3001 36.15 67.7101 29.36 90.8801 33.42C90.8801 33.42 101.81 34.88 108.6 41.63C109.05 42.15 109.48 42.68 109.86 43.21C112.4 46.76 113.43 50.78 112.52 54.8C112.04 56.93 111.01 59.06 109.37 61.12C109.56 61.17 109.76 61.22 109.95 61.28C119.49 64.22 127 79.18 115.43 89.15C105.7 88.45 101.05 91.09 90.7601 90.07C90.3901 90.06 85.56 89.6 85.22 89.61" fill="#4C210F"/>
<path d="M109.95 61.28C109.92 61.33 109.89 61.38 109.86 61.43L103.3 59.58C79.8401 52.87 54.27 51.73 27.23 61.74C24.19 50.3 32.89 38.95 45.85 36.24C46.14 36.18 46.3001 36.15 46.3001 36.15C46.3001 36.15 67.7101 29.36 90.8801 33.42C90.8801 33.42 101.81 34.88 108.6 41.63C108.91 41.94 109.21 42.25 109.5 42.58C109.63 42.79 109.75 43 109.87 43.21C112.26 47.42 113.19 51.05 112.53 54.8C112.16 56.88 111.31 59 109.95 61.28Z" fill="#4C210F"/>
<g opacity="0.6">
<path d="M77.5501 55.55C63.7101 55.66 48.81 57.9 34.23 62.18C29.38 63.6 25.01 66.41 21.88 70.38C18.4 74.79 15.87 81.18 19.7 89.07C18.89 89.41 18.0901 89.75 17.2901 90.07C8.70008 81.06 17.26 66.62 27.23 61.74C24.16 50.17 33.0901 38.69 46.3001 36.15C45.0301 25.47 51.4601 18.38 60.6501 16.82C73.8701 14.01 78.15 6.35999 70.74 2.42999C71.19 2.41999 71.65 2.41999 72.1 2.42999C75.56 2.47999 79 3.07001 82.21 4.08001C80.21 3.69001 78.15 3.47 76.09 3.44C75.64 3.43 75.18 3.43 74.73 3.44C82.15 7.37 77.8701 15.02 64.6401 17.83C56.4101 19.23 50.4001 25.06 50.1401 33.94C50.1301 34.42 50.04 34.89 49.87 35.32C60.7 32.9 70.8201 31.21 77.3901 33.15C69.2501 33.5 59.0401 35.46 47.9101 38.13C44.0501 39.06 40.43 40.88 37.47 43.52C33.71 46.87 29.9801 52.32 30.7901 60.69C46.6901 55.25 62.3101 52.99 77.5501 55.55Z" fill="#AA6F6F"/>
</g>
<path d="M17.8199 91.41C17.2799 91.63 16.66 91.49 16.25 91.07C12.98 87.64 11.7099 83.24 12.5899 78.33C13.7999 71.57 19.0699 64.59 25.5799 60.99C24.5699 56.02 25.55 50.85 28.39 46.33C31.89 40.75 37.81 36.67 44.76 35.01C44.44 30.07 45.7 25.65 48.43 22.17C51.24 18.6 55.37 16.26 60.38 15.4C68.51 13.67 72.52 10.24 72.89 7.61C73.15 5.75 71.5 4.45002 70.06 3.69002C69.48 3.38002 69.1899 2.73004 69.3399 2.09004C69.4899 1.45004 70.0499 0.999995 70.6999 0.979995C82.9699 0.669995 95.04 6.80001 99.41 15.56C102.16 21.07 101.57 27.11 97.79 32.72C105.92 35.88 111.79 41.36 113.65 47.63C114.94 51.98 114.26 56.35 111.67 60.36C116.71 62.46 120.93 67.5 122.28 73.26C123.78 79.63 121.68 85.65 116.37 90.23C115.93 90.61 115.31 90.68 114.79 90.43M115.19 87.44C119.14 83.69 120.66 78.92 119.49 73.93C118.22 68.53 113.82 63.73 109.02 62.51C108.55 62.39 108.17 62.04 108.01 61.58C107.85 61.12 107.94 60.61 108.25 60.23C111.18 56.55 112.09 52.49 110.9 48.47C109.17 42.64 103.24 37.53 95.04 34.8C94.6 34.65 94.2499 34.3 94.1199 33.85C93.9899 33.4 94.0799 32.91 94.3699 32.55C98.5099 27.34 99.3599 21.92 96.8399 16.86C93.4699 10.11 84.42 4.98003 74.79 4.02003C75.82 5.56003 75.8699 7.05003 75.7299 8.02003C75.0999 12.51 69.4299 16.43 60.9399 18.23C60.9199 18.23 60.9 18.24 60.88 18.24C51.79 19.78 46.6199 26.75 47.7199 35.98C47.8099 36.73 47.3099 37.42 46.5699 37.56C39.8499 38.85 34.11 42.61 30.81 47.86C28.19 52.04 27.3999 56.84 28.6099 61.38C28.7899 62.04 28.4699 62.74 27.8499 63.04C21.7399 66.03 16.51 72.68 15.4 78.84C14.94 81.42 15 85.08 17.68 88.37" fill="#232323"/>
<g opacity="0.3">
<path d="M57.05 32.94C59.16 22.68 72.6899 20.8 70.7299 31.45C63.0799 35.41 59.2399 42.23 61.4799 53.63L49.2199 55.23C46.5399 47.98 47.9 37.63 57.05 32.94Z" fill="#D8A0A0"/>
</g>
<g opacity="0.3">
<path d="M41.53 57.42L53.4201 55.28C53.4201 55.28 48.92 60.72 49.09 67.04C49.18 70.17 47.7201 73.19 45.0601 74.84C42.9901 76.12 41.22 75.96 39.66 74.7C38 73.36 37.2 71.2 37.47 69.08C37.94 65.35 39.21 60.8 41.53 57.42Z" fill="#D8A0A0"/>
</g>
<path d="M26.79 60.56C32.91 58.31 39.2 56.53 45.61 55.28C52.01 54.03 58.52 53.33 65.04 53.18C66.67 53.1 68.3 53.16 69.93 53.17C70.75 53.18 71.56 53.18 72.37 53.23L74.81 53.34L76.03 53.39C76.44 53.41 76.84 53.45 77.25 53.48L79.6899 53.69C80.0999 53.73 80.5 53.76 80.91 53.81L82.12 53.98C82.93 54.09 83.73 54.21 84.54 54.34C90.97 55.4 97.3099 56.95 103.44 59.06C103.72 59.16 103.87 59.46 103.77 59.74C103.68 60 103.4 60.15 103.14 60.09C96.86 58.66 90.5499 57.47 84.1999 56.77C82.6099 56.63 81.03 56.39 79.43 56.28L77.05 56.06C76.65 56.02 76.26 55.98 75.86 55.95L74.66 55.88C73.07 55.8 71.47 55.67 69.88 55.68C68.28 55.67 66.6899 55.61 65.0899 55.69C58.7099 55.84 52.3399 56.53 46.0799 57.75C39.8099 58.97 33.65 60.71 27.65 62.92H27.64C26.99 63.16 26.27 62.83 26.03 62.17C25.81 61.52 26.14 60.8 26.79 60.56Z" fill="#232323"/>
<path d="M45.93 34.95C47.8 34.39 49.6299 33.94 51.4899 33.52C52.4199 33.32 53.35 33.13 54.28 32.94C55.21 32.77 56.1399 32.59 57.0799 32.43L59.89 31.99L62.7099 31.61C64.5899 31.4 66.4799 31.17 68.3799 31.07C70.2699 30.92 72.1799 30.96 74.0699 30.94L76.92 31.04C77.39 31.06 77.8699 31.07 78.3399 31.1L79.76 31.21C83.55 31.46 87.2999 32.1 90.9899 32.88C91.2799 32.94 91.47 33.23 91.4 33.52C91.34 33.79 91.0899 33.97 90.8299 33.94H90.8C89.87 33.86 88.94 33.77 88.02 33.67L86.6299 33.53C86.1699 33.49 85.6999 33.48 85.2399 33.45L82.4599 33.29C81.5299 33.26 80.6 33.26 79.67 33.25L78.28 33.22C77.82 33.22 77.35 33.24 76.89 33.25L74.1099 33.31C72.2599 33.42 70.41 33.5 68.56 33.66C67.64 33.72 66.71 33.77 65.79 33.87C64.87 33.96 63.94 34.03 63.02 34.13L60.26 34.48L57.51 34.91C56.6 35.06 55.69 35.24 54.77 35.4C53.86 35.58 52.95 35.77 52.05 35.97C50.25 36.37 48.4299 36.82 46.7099 37.34L46.67 37.35C46.01 37.55 45.3099 37.17 45.1099 36.51C44.8899 35.85 45.26 35.15 45.93 34.95Z" fill="#232323"/>
<g opacity="0.3">
<path d="M112.1 87.61C107.89 85.79 103.46 84.38 98.85 83.33C95.02 82.46 91.06 81.83 86.98 81.42C86.61 81.41 86.2601 81.4 85.9301 81.41C86.2201 81.23 86.51 81.05 86.78 80.85C96.67 73.86 92.46 57.66 82.48 55.13L80.89 55.02L73.8 54.54C74.27 54.34 74.72 54.13 75.15 53.89C84.69 48.74 82.93 36.12 76.3 32.42L81.14 32.64C93.26 20.05 84.7 5.08999 71.75 2.67999C71.75 2.67999 71.87 2.58998 72.11 2.41998C74.18 2.44998 76.24 2.67 78.25 3.06H78.26C92 7.4 101.69 19.67 91.5601 32.43C106.33 37.34 113.76 49.65 105.43 60.11C115.07 62.56 123.01 77.44 112.1 87.61Z" fill="#280B0B"/>
</g>
<path d="M115.502 87.6744L17.3519 88.6092L17.3805 91.6092L115.53 90.6744L115.502 87.6744Z" fill="#232323"/>
</svg>
