<svg width="230" height="213" viewBox="0 0 230 213" fill="none" xmlns="http://www.w3.org/2000/svg">
<path d="M209.41 106.06L190.07 211.29H41.37L21.37 102.47L29 95.76L113.55 21.31L209.41 106.06Z" fill="#FF0086"/>
<path d="M190.23 211.48H41.21L41.1801 211.33L21.17 102.41L28.87 95.63L113.54 21.07L209.6 106L209.58 106.1L190.23 211.48ZM41.52 211.1H189.91L209.2 106.13L113.54 21.56L21.57 102.55L41.52 211.1Z" fill="#FF0086"/>
<g opacity="0.3">
<path d="M50.95 211.29H41.37L21.37 102.47L29 95.76L50.95 211.29Z" fill="#000072"/>
</g>
<g opacity="0.55">
<path d="M206.88 119.78L190.07 211.29H185.28L202.74 116.27L206.88 119.78Z" fill="white"/>
</g>
<path d="M228.43 103.48L219.61 115.08L209.41 106.06L113.55 21.31L21.37 102.47L12.17 110.58L1.60999 100.52L113.54 1.95001L228.43 103.48Z" fill="#7636FF"/>
<g opacity="0.55">
<path d="M113.27 21.55L21.37 102.47L12.16 110.57L9.17999 107.73L18 99.97L109.26 21.32C110.44 20.31 112.21 20.41 113.27 21.55Z" fill="white"/>
</g>
<g opacity="0.55">
<path d="M228.43 103.48L219.62 115.08L221.79 111.8L223.38 106.59C224.2 105.15 223.88 103.34 222.63 102.25L110.02 5.05L1.60999 100.51L113.55 1.94L228.43 103.48Z" fill="white"/>
</g>
<g opacity="0.3">
<path d="M40.9399 86.36C40.3199 86.36 39.8199 85.86 39.8199 85.24C39.8199 84.62 40.3199 84.12 40.9399 84.12" fill="#000072"/>
</g>
<path d="M190.07 212.6H41.37C40.74 212.6 40.19 212.15 40.08 211.53L20.08 102.71C19.95 102 20.42 101.31 21.13 101.18C21.84 101.05 22.53 101.52 22.66 102.23L42.46 209.97H188.98L208.12 105.82C208.25 105.11 208.93 104.64 209.65 104.77C210.36 104.9 210.83 105.58 210.7 106.3L191.36 211.53C191.25 212.15 190.7 212.6 190.07 212.6Z" fill="#232323"/>
<path d="M219.61 116.4C219.29 116.4 218.98 116.28 218.74 116.07L113.54 23.06L13.03 111.56C12.52 112.01 11.75 111.99 11.26 111.53L0.700012 101.47C0.430012 101.22 0.289978 100.86 0.289978 100.49C0.299978 100.12 0.45998 99.77 0.72998 99.53L112.67 0.960005C113.17 0.520005 113.91 0.520005 114.41 0.960005L229.29 102.48C229.8 102.93 229.88 103.71 229.47 104.26L220.66 115.87C220.44 116.16 220.11 116.35 219.74 116.38C219.7 116.4 219.66 116.4 219.61 116.4ZM113.55 20C113.86 20 114.17 20.11 114.42 20.33L219.43 113.17L226.65 103.66L113.55 3.71L3.56 100.56L12.21 108.8L112.69 20.32C112.93 20.11 113.24 20 113.55 20Z" fill="#232323"/>
<g opacity="0.3">
<path d="M206.89 119.78L102.27 31.24L113.55 21.31L209.41 106.07L206.89 119.78Z" fill="#000072"/>
</g>
<g opacity="0.3">
<path d="M209.41 106.07L206.89 119.78H206.88L209.41 106.07Z" fill="#000072"/>
</g>
<path d="M140.88 212.53H119C118.28 212.53 117.69 211.94 117.69 211.22C117.69 210.5 118.28 209.91 119 209.91H140.88C141.6 209.91 142.19 210.5 142.19 211.22C142.19 211.94 141.6 212.53 140.88 212.53Z" fill="#232323"/>
<g opacity="0.3">
<path d="M106.78 207.06C106.87 207.34 106.99 207.6 107.13 207.85C106.99 207.61 106.88 207.34 106.78 207.06Z" fill="#000072"/>
</g>
<path d="M71.23 210.03V138.94C71.23 115.72 90.05 96.9 113.27 96.9C136.49 96.9 155.31 115.72 155.31 138.94V210.03" fill="#7636FF"/>
<path d="M71.23 210.03V138.94C71.23 115.72 90.05 96.9 113.27 96.9C136.49 96.9 155.31 115.72 155.31 138.94V210.03" stroke="#232323" stroke-width="2.9324" stroke-miterlimit="10"/>
<path d="M84.34 210.03V138.43C84.34 122.46 97.29 109.51 113.26 109.51C129.23 109.51 142.18 122.46 142.18 138.43V210.03" fill="#180E33"/>
<path d="M84.34 210.03V138.43C84.34 122.46 97.29 109.51 113.26 109.51C129.23 109.51 142.18 122.46 142.18 138.43V210.03" stroke="#232323" stroke-width="2.9324" stroke-miterlimit="10"/>
</svg>
