<?xml version="1.0" encoding="UTF-8"?><svg id="Camada_1" xmlns="http://www.w3.org/2000/svg" xmlns:xlink="http://www.w3.org/1999/xlink" viewBox="0 0 141.15 139.97"><defs><style>.cls-1{fill:#b16832;}.cls-1,.cls-2,.cls-3,.cls-4,.cls-5,.cls-6,.cls-7,.cls-8{fill-rule:evenodd;}.cls-2{fill:#bb7038;}.cls-3{fill:#884e24;}.cls-9{clip-path:url(#clippath-2);}.cls-4{fill:#b17448;}.cls-10{fill:#633514;}.cls-5{fill:#bd7139;}.cls-6{fill:#d07e40;}.cls-11{fill:none;}.cls-12{clip-path:url(#clippath-3);}.cls-7{fill:#663512;}.cls-8{fill:#ca783d;}.cls-13{opacity:.3;}</style><clipPath id="clippath"><rect class="cls-11" x="-1151.3" y="-1174.55" width="1920" height="1080"/></clipPath><clipPath id="clippath-1"><rect class="cls-11" x="-1151.3" y="-1331.3" width="1920" height="1280"/></clipPath><clipPath id="clippath-2"><circle class="cls-11" cx="70.57" cy="69.98" r="67.72"/></clipPath><clipPath id="clippath-3"><circle class="cls-11" cx="70.57" cy="69.98" r="62.95"/></clipPath></defs><circle class="cls-10" cx="70.57" cy="69.98" r="67.72"/><g class="cls-13"><g class="cls-9"><path class="cls-3" d="M-63.05,23.96c-.98,6.53,28.99,9.3,79.72,9.8,50.73,.51,203.71-1.02,207.3-7.84,3.59-6.82-9.15-8-19.77-7.84-10.62,.16-273.63,0-267.26,5.88Z"/><path class="cls-3" d="M-86.07,8.16c-.98,6.53,28.99,9.3,79.72,9.8,50.73,.51,203.71-1.02,207.3-7.84,3.59-6.82-9.15-8-19.77-7.84-10.62,.16-273.63,0-267.26,5.88Z"/><path class="cls-3" d="M-70.59,45.39c-.98,6.53,28.99,9.3,79.72,9.8,50.73,.51,203.71-1.02,207.3-7.84,3.59-6.82-9.15-8-19.77-7.84-10.62,.16-273.63,0-267.26,5.88Z"/><path class="cls-3" d="M-76.36,58.86c-.98,6.53,28.99,9.3,79.72,9.8,50.73,.51,203.71-1.02,207.3-7.84,3.59-6.82-9.15-8-19.77-7.84-10.62,.16-273.63,0-267.26,5.88Z"/><path class="cls-3" d="M-97,93.12c-.98,6.53,28.99,9.3,79.72,9.8,50.73,.51,203.71-1.02,207.3-7.84,3.59-6.82-9.15-8-19.77-7.84-10.62,.16-273.63,0-267.26,5.88Z"/><path class="cls-3" d="M-113.67,127.38c-.98,6.53,28.99,9.3,79.72,9.8,50.73,.51,203.71-1.02,207.3-7.84,3.59-6.82-9.15-8-19.77-7.84-10.62,.16-273.63,0-267.26,5.88Z"/><path class="cls-4" d="M-58.5,17.24c-.92,2.68,27.19,3.81,74.77,4.01,47.58,.21,191.06-.42,194.43-3.21,3.37-2.79-8.58-3.28-18.54-3.21-9.96,.07-256.65,0-250.67,2.41Z"/><path class="cls-4" d="M-58.5,36.27c-.92,2.68,27.19,3.81,74.77,4.01,47.58,.21,191.06-.42,194.43-3.21,3.37-2.79-8.58-3.28-18.54-3.21-9.96,.07-256.65,0-250.67,2.41Z"/><path class="cls-4" d="M-70.6,72.15c-.92,2.68,27.19,3.81,74.77,4.01,47.58,.21,191.06-.42,194.43-3.21,3.37-2.79-8.58-3.28-18.54-3.21-9.96,.07-256.65,0-250.67,2.41Z"/><path class="cls-4" d="M-70.6,83.02c-.92,2.68,27.19,3.81,74.77,4.01,47.58,.21,191.06-.42,194.43-3.21,3.37-2.79-8.58-3.28-18.54-3.21-9.96,.07-256.65,0-250.67,2.41Z"/><path class="cls-4" d="M-74.56,104.7c-.92,2.68,27.19,3.81,74.77,4.01,47.58,.21,191.06-.42,194.43-3.21,3.37-2.79-8.58-3.28-18.54-3.21-9.96,.07-256.65,0-250.67,2.41Z"/><path class="cls-4" d="M-79.14,114.68c-.92,2.68,27.19,3.81,74.77,4.01,47.58,.21,191.06-.42,194.43-3.21,3.37-2.79-8.58-3.28-18.54-3.21-9.96,.07-256.65,0-250.67,2.41Z"/></g></g><g class="cls-12"><g><path class="cls-8" d="M-69.72-8.58l-1.82,147.6s-.61,26.73,15.79,27.33c16.4,.61,256.93-8.5,259.36-10.02,2.43-1.52,1.09-60.12,1.09-60.12-4.38-.1-37.64-2.26-37.69-2.29-1.37-.91,39.94-.76,39.94-4.71s.61-122.69-1.82-124.82c-2.43-2.13-274.84,27.03-274.84,27.03Z"/><path class="cls-5" d="M-69.8-2.68l-1.75,141.69s-.61,26.73,15.79,27.33c7.15,.27,56.95-1.32,111.04-3.32-19.92-7.85-93.02-1.67-116.82-39.89-26.7-42.88,38.91-47.6,48.3-60.28C-3.84,50.19-49.47,30.47-38.59,12.62-27.7-5.23,20.54-9.02,20.54-9.02L-69.8-2.68Z"/><g><path class="cls-1" d="M-70.23,32.92l-.03,2.24c13.79-1.82,27.65-4.28,41.7-5.63,11.01-.66,21.92-.87,32.95-.93,32.98-.03,65.76,1.15,98.71,2.05,33.06,1.52,69.38,4.17,103.88,8.22v-.54c-24.72-3.58-54.18-7.73-60.03-8.22-14.51-1.12-29.25-2.21-43.79-2.62-43.97-.85-87.92-2.41-131.85,.4-7.06,.58-13.8,1.48-20.79,2.59-1.3,.21-10.84,1.25-20.77,2.45Z"/><path class="cls-1" d="M-70.1,22.35l-.03,2.08C-43.07,17.77-24.69,11.96,6.9,9.55c.05,0,.1,0,.15,0,46.76-1.04,93.37-2.85,140.07-5.32,18.45-.5,41.04,2.24,59.67,1.49-.02-1.55-.03-3.09-.05-4.6-20.82-1.75-59.57-2.42-59.92-2.42-2.93,.22-5.97,.29-8.91,.43C94.22,1.41,50.6,3.87,6.91,5.99c-17.6,.95-32.69,4.21-49.57,9.03-.95,.27-16.15,4.13-27.45,7.33Z"/><path class="cls-1" d="M206.97,33.13v-2.62c-15.78-2.88-31.51-5.81-47.47-7.55-15.41-1.49-30.7-3.22-46.17-4.11,0,0-1.35-.05-1.91-.09-23.4-.92-46.96,.99-70.56,.71-1.76-.06-16.54-2.71-16.53-2.74-3.04-.6-6.32-1.24-9.27-2.18-.35-.09-.71-.27-1.04-.41-.02,0-.13-.07-.13-.07,.11,.09,.2,.21,.28,.32,.13,.14,.16,.39,.23,.56,.06,.3,.05,.54-.02,.83-.07,.25-.16,.44-.32,.65-.05,.09-.22,.22-.3,.29-.32,.22-.01,.04,.21,0,11.31-2.38,20.99-3.91,32.61-4.02,35.98,.12,71.96,.14,107.94,.4,1.24,0,39.13,.62,52.32,.35v-.85l-.99-.07c-39.26-.51-78.81-1.83-118.13-2.53-13.7-.24-27.43-.38-41.12-.68-11.89-.05-21.81,1.41-33.42,3.71-.63,.13-1.11,.27-1.65,.63-.14,.06-.35,.33-.46,.43-.18,.24-.29,.45-.37,.74-.08,.32-.08,.58-.02,.91,0,.2,.21,.52,.28,.69,.2,.3,.39,.49,.68,.71,.11,.12,.5,.3,.66,.4,.44,.27,1.06,.42,1.52,.62,3.1,1.04,6.53,1.75,9.74,2.4,5.24,1.04,11.88,2.39,17.17,2.97,23.65,.59,46.86-1.16,70.49-.35,16.03,.8,31.93,2.54,47.93,3.84,16.12,1.46,31.88,4.29,47.8,6.11Z"/><path class="cls-1" d="M-69.9,5.57l-.02,1.44c11.49-.99,21.53-3,33.24-4.82,3.78-.52,8.53-1.15,12.32-1.06C-1.37,.94,24.12,2.34,46.55-2.69c.86-.22,1.71-.39,2.58-.57,6.62-1.43-1-1.99-3.01-1.96-9.73,.59-19.25,1.23-29.01,1.61-13.88,.55-27.71,.7-41.6,1.34-11.41,.81-22.81,3.87-34.02,6.2-1.41,.29-7.18,.94-11.39,1.63Z"/><path class="cls-1" d="M207,42.67v-1.23c-13.62-.72-24.35-1.41-39.03-1.03-15.05,.63-29.63,2.2-44.57,3.89-17.43,1.88-37.41,2.94-54.43,6.2-.49,.08-1.05,.23-1.54,.35-6.42,1.74-1.19,1.85,1.81,1.87,11.68-.13,24.02-1.09,35.66-2.12,6.36-.6,12.7-1.33,19.03-2.14,22.41-2.91,44.48-6.18,67.15-6.27,.84,0,9.94,.44,15.93,.47Z"/><path class="cls-1" d="M-70.96,91.73l-.04,3.04c12.16-3.95,24.26-8,37.06-11.3,13.23-2.75,26.42-5,39.75-7.18,17.39-2.83,34.9-5.51,52.18-8.95,47.31-8.92,99.95-17.09,149.02-15.61v-5.9c-16.32-1.17-32.45-.51-49.08,.67-34.06,2.67-67.66,8.5-101.07,15.51-30.5,6.51-61.09,11.35-91.51,18.39-5.15,1.18-10.58,3.01-15.59,4.68-.93,.31-10.54,3.29-20.73,6.65Z"/><path class="cls-1" d="M-70.47,51.96l-.07,5.89c13.87-.2,27.75-.5,41.58-1.06,13.66-.65,26.8-1.75,40.41-3.42,2.16-.23,22.72-.76,22.73-.55,3.85,.04,8.64,.08,12.41,.78,.28,.06,.63,.14,.9,.25-.14-.1-.2-.14-.33-.27-.38-.4-.55-.82-.64-1.36-.04-.33-.03-.6,.05-.92,.01-.19,.18-.45,.26-.63,.07-.12,.17-.26,.29-.36-.21,.19-.85,.48-1.11,.6-.31,1.21-92.07,18.72-98.68,19.99-.04,0-9.2,1.62-18.05,3.43l-.02,1.74c26.42-5.1,58.38-9.23,82.95-13.46,9.89-1.72,26.74-4,36-6.65,.88-.38,1.64-.75,2.4-1.33,.42-.34,.7-.64,.99-1.1,.19-.22,.27-.64,.37-.9,.09-.4,.11-.72,.07-1.13-.12-.74-.37-1.25-.88-1.8-.36-.36-.67-.58-1.12-.81-.74-.38-1.42-.58-2.23-.77-4.21-.93-9.23-1.06-13.54-1.18-7.84-.14-15.76-.04-23.6,.21-27.2,2.82-54.26,3.1-81.12,4.83Z"/><path class="cls-1" d="M-71.13,105.16l-.05,4.02c15.17-6.05,30.52-10.28,46.41-14.18,41.33-10.22,84.34-17.31,126.41-23.63,25.76-3.8,50.69-8.4,76.7-10.84,3.98-.34,17.33-.1,28.67-.02v-2.31c-28.63-.8-53.94,2.83-83.64,6.97-7.39,1.04-14.77,2.08-22.17,3.03-48.48,6.25-126.94,17.82-172.32,36.97Z"/><path class="cls-1" d="M206.98,78.87v-2.77c-.47-.03-.94-.06-1.4-.08-8.62-.65-17.42-.72-26.06-.76-8.03,0-16.05,.07-24.07,.19-5.41,.09-10.82,.2-16.23,.32-23.91-.03-36.62,1.41-60.4,5.57-13.11,2.44-26.04,5.75-39.1,8.48-4.37,.9-35.08,3.94-24.72,4.74,20.08-1.15,39.08-5.71,58.85-9.38,1.82-.31,3.64-.61,5.47-.88,23.3-3.56,36.32-4.52,59.88-4.27,12.88,.33,27.37-.35,40.39-.56,8.66-.11,17.33-.29,25.99-.55,.47-.01,.95-.03,1.42-.04Z"/><path class="cls-1" d="M-71.37,124.61l-.02,1.88c24.08-3.51,47.53-7.92,71.85-12.09,5.8-.94,11.57-1.82,17.39-2.62,77.6-10.34,100.15-7.8,175.75,2.63,3.87,.48,7.58,.83,11.4,1.46l-.03-2.74c-3.63-.81-7.15-1.34-10.88-2.02-20.81-3.55-41.37-6.89-62.39-9.02-41.14-3.86-73.22,.58-114.32,6.57-23.17,3.69-46.05,8.63-69.09,13.04-.69,.13-10.02,1.44-19.67,2.91Z"/><path class="cls-1" d="M204.27,153.96c.13-.97,.24-2.2,.33-3.65-7.04-1.52-13.72-2.8-14.01-2.85-26.79-2.46-53.53-4.45-80.39-5.97-11.23-.6-22.45-1.08-33.69-1.49-14.27-.55-34.84-1.24-48.51-4.97-1.14-.36-2.41-.8-3.43-1.45-.03-.01-.38-.3-.38-.3,.1,.15,.14,.29,.17,.47,.03,.23,.01,.44-.08,.66-.06,.12,.04-.04,.11-.11,.59-.6,1.48-1.09,2.22-1.48,16.79-7.86,49.65-10.7,68.03-11.54,25.74-.88,49.13-2.34,74.83,1.27,9.94,1.55,24.32,6.85,35.57,11.23,0-1.01,.01-2.03,.02-3.07-34.04-14.73-58.72-14.31-100.07-14.02-3.49,.05-6.98,.1-10.46,.15-20.25,.51-51.9,2.87-70.54,10.86-1.42,.73-2.61,1.43-3.76,2.56-.56,.59-.93,1.08-1.28,1.83-.36,.86-.47,1.56-.37,2.49,.15,.92,.43,1.55,.99,2.3,.52,.66,1.02,1.1,1.71,1.58,1.58,1.05,3.15,1.66,4.94,2.25,14.02,4.28,35.43,5.13,50.06,5.77,38.03,1.69,76.04,4.32,114.05,5.76,4.61,.15,9.28,.96,13.94,1.73Z"/><path class="cls-1" d="M204.83,145.53c.03-.75,.05-1.52,.07-2.32-1.86-1.01-3.85-2.04-5.36-2.61-4.77-1.65-9.36-2.77-14.29-3.8-2.46-.5-4.9-.95-7.36-1.41-6.8-1.22-13.84-2.26-20.53-3.95-15.97-3.57-36.68-3.64-53.07-2.36-2.79,.25-5.76,.55-8.48,1.21-.36,.09-1.24,.33-1.54,.54,0,0,.09-.08,.1-.09,.07-.11,.26-.31,.27-.44,.1-.28,.13-.52,.08-.82-.04-.23-.1-.4-.23-.6-.1-.15-.24-.22-.05-.11,.28,.13,.55,.28,.85,.37,1.29,.36,2.58,.8,3.91,1.01,5.44,1.06,11,1.71,16.51,2.32,11.52,1.07,22.55,1.18,33.98,1.9,5.72,.39,11.13,.95,16.8,1.83,9.34,1.3,17.62,.31,26.64,3.16,.45,.15,6.16,1.69,11.79,3.36l.02-.92c-1.53-.81-3.05-1.5-4.97-2.29-4.76-1.86-9.39-3.11-14.36-4.3-9.15-2.1-18.65-3.53-27.63-6.04-5.64-1.54-11.1-2.36-16.91-2.95-12.39-1.17-24.65-1.46-37.07-.74-3.03,.22-6.12,.5-9.1,1.15-.98,.24-1.88,.49-2.75,1.03-.18,.08-.44,.36-.59,.48-.24,.26-.38,.48-.51,.81-.15,.4-.18,.72-.12,1.15,.07,.37,.18,.66,.39,.97,.34,.47,.68,.74,1.18,1.04,.23,.21,1.15,.52,1.46,.67,1.45,.54,2.92,.9,4.43,1.23,5.55,1.21,11.23,1.94,16.86,2.61,17.06,1.82,33.5,1.51,50.6,3.83,8.91,1.1,17.83,.04,26.23,2.26,4.23,.9,8.48,1.94,12.74,2.83Z"/><path class="cls-1" d="M-71.48,134.16l-.02,1.76c2.06-.61,4.14-1.21,6.28-1.71,7.26-1.27,14.87-1.83,22.21-2.42,5.67-.45,11.8-.79,17.4-1.6,22.45-2.93,35.93-5.07,57.56-12.12,5.05-1.63,10.66-2.52,15.74-4.09,8.63-3.36-16,.21-16.92,.38-6.14,1.7-12.27,3.38-18.45,4.94-12.89,3.28-25.3,5.28-38.45,7.4-12.92,2.03-25.95,2.93-38.76,5.62,0,0-.47,.12-.7,.17-.3,.08-2.87,.78-5.89,1.68Z"/></g><path class="cls-6" d="M-49.19,84.94c18.93-9.1,61.92-8.17,64.42-18.96,2.5-10.79-22.41-22.33-34.55-33.26C-31.47,21.78-25.28-2.91,68.48-5.12c93.76-2.2,116.68,14.18,119.36,40.23,2.68,26.05-79.63,25.39-80.92,46.74-1.28,21.36,78.6,30.78,79.05,49.86,1.43,60.87-331.7-.36-235.16-46.78Z"/><g><path class="cls-2" d="M-22.26,29.2c-.32-.54-.6-1.09-.84-1.65,42.07-2.35,84.16-.89,126.27-.07,14.53,.4,29.28,1.5,43.79,2.62,4.38,.37,21.97,2.79,40.91,5.48,.02,.41,.03,.81,.02,1.2-28.59-2.89-57.77-4.89-84.78-6.13-32.96-.9-65.73-2.08-98.71-2.05-8.93,.05-17.77,.2-26.65,.6Z"/><path class="cls-2" d="M-17.72,12.43c1.96-1.62,4.44-3.21,7.52-4.72,5.53-.82,11.18-1.4,17.11-1.72C50.6,3.87,94.22,1.41,137.89-.87c1.54-.08,3.11-.13,4.68-.2,7.73,1.47,14.23,3.29,19.66,5.45-5.23-.19-10.31-.28-15.12-.15C100.41,6.7,53.8,8.51,7.05,9.55c-.04,0-.1,0-.15,0-9.13,.7-17.16,1.68-24.62,2.88Z"/><path class="cls-2" d="M175.82,12.02c.56,.45,1.09,.92,1.61,1.39-11.78-.12-22.24-.29-22.88-.29-35.98-.25-71.96-.28-107.94-.4-9.19,.08-45.6-1.87-23.11,3.83,.3,.07,.59,.11,.86,.19,18.64,6.21,64.86,1.16,87.09,2.03,.56,.04,1.91,.09,1.91,.09,15.47,.88,30.76,2.62,46.17,4.11,8.93,.97,17.79,2.32,26.62,3.82,.4,1.21,.73,2.45,1,3.72-9.26-1.31-18.55-2.63-27.95-3.48-15.99-1.29-31.89-3.04-47.93-3.84-23.64-.8-46.84,.95-70.49,.35-5.28-.58-11.93-1.93-17.17-2.97-3.21-.66-6.63-1.36-9.74-2.4-.46-.21-1.09-.35-1.52-.62-.15-.1-.54-.28-.66-.4-.29-.21-.48-.41-.68-.71-.07-.17-.29-.49-.28-.69-.06-.33-.06-.59,.02-.91,.08-.29,.19-.5,.37-.74,.11-.1,.32-.37,.46-.43,.54-.36,1.03-.5,1.65-.63,11.6-2.31,21.53-3.76,33.42-3.71,13.7,.3,27.42,.44,41.12,.68,29.3,.52,58.73,1.39,88.07,2.01Z"/><path class="cls-2" d="M9.46,1.08C20.23-1.44,34.1-3.39,51.71-4.43c.28,.3-.31,.69-2.59,1.18-.87,.18-1.72,.35-2.58,.57C34.76-.05,22.13,.82,9.46,1.08Z"/><path class="cls-2" d="M187.1,40.48c-.25,.61-.55,1.2-.9,1.78-20.97,.49-41.48,3.5-62.28,6.2-6.33,.81-12.68,1.54-19.03,2.14-11.63,1.03-23.97,1.99-35.66,2.12-3-.03-8.22-.13-1.81-1.87,.49-.12,1.05-.27,1.54-.35,17.02-3.27,37-4.32,54.43-6.2,14.95-1.69,29.53-3.26,44.57-3.89,7.03-.18,13.16-.12,19.13,.08Z"/><path class="cls-2" d="M-49.19,84.94c.58-.28,1.18-.55,1.81-.81,4.19-1.38,8.56-2.77,12.74-3.73,1.38-.32,2.76-.63,4.14-.95,14.31-2.82,30.6-4.43,39.39-8.03,15.99-3.05,31.99-6.01,47.97-9.41,33.41-7.01,67.01-12.84,101.07-15.51,8.73-.62,17.32-1.1,25.87-1.24-2.62,2.6-6.35,4.85-10.78,6.86-38.79,1.89-78.51,8.33-115.04,15.23-17.28,3.44-34.79,6.12-52.18,8.95-13.33,2.18-26.52,4.43-39.75,7.18-8.65,2.23-16.97,4.8-25.22,7.45,2.61-2.01,5.87-4.01,9.97-5.98Z"/><path class="cls-2" d="M15.03,62.12c-.41-1.32-1.15-2.65-2.16-3.99,36.81-7.36,45.79-5.04,21.3-5.31-.01-.21-20.57,.32-22.73,.55-.91,.11-1.82,.22-2.73,.33-2.1-1.9-4.55-3.8-7.17-5.71,3.04-.26,6.07-.54,9.12-.86,7.84-.25,15.77-.35,23.6-.21,4.31,.12,9.33,.25,13.54,1.18,.81,.19,1.49,.39,2.23,.77,.45,.24,.76,.45,1.12,.81,.51,.55,.77,1.06,.88,1.8,.05,.41,.03,.73-.07,1.13-.11,.26-.18,.68-.37,.9-.29,.46-.57,.76-.99,1.1-.77,.59-1.52,.95-2.4,1.33-8.43,2.41-23.13,4.52-33.16,6.17Z"/><path class="cls-2" d="M139.18,62.97c-5.59,1.6-10.97,3.23-15.67,5.02-7.25,1.14-14.53,2.29-21.87,3.37-42.06,6.32-85.07,13.41-126.41,23.63-14.06,3.45-27.68,7.16-41.14,12.16-.49-1.26-.73-2.53-.78-3.8,45.91-18.07,120.95-29.11,167.89-35.17,7.4-.95,14.78-1.99,22.17-3.03,5.4-.75,10.66-1.49,15.81-2.19Z"/><path class="cls-2" d="M108.82,76.99c-.91,1.21-1.52,2.5-1.78,3.9-8.42,.67-16.99,1.76-27.74,3.4-1.83,.27-3.65,.57-5.47,.88-19.77,3.68-38.77,8.24-58.85,9.38-10.36-.8,20.35-3.84,24.72-4.74,13.06-2.72,25.99-6.03,39.1-8.48,11.83-2.07,20.93-3.47,30.02-4.35Z"/><path class="cls-2" d="M131.44,102.06c5.26,2.19,10.93,4.3,16.56,6.4-43.5-4.97-70.64-4.61-130.14,3.32-5.82,.8-11.6,1.68-17.39,2.62-16.63,2.85-32.86,5.82-49.16,8.53-.8-.45-1.57-.91-2.33-1.36,22.81-4.38,45.47-9.26,68.41-12.91,41.01-5.98,73.03-10.4,114.05-6.59Z"/><path class="cls-2" d="M177.85,121.51c2.28,1.46,4.17,2.96,5.55,4.52-5.04-1.57-9.86-2.84-13.93-3.47-25.71-3.61-49.09-2.15-74.83-1.27-18.38,.83-51.25,3.67-68.03,11.54-.74,.39-1.63,.88-2.22,1.48-.06,.07-.16,.23-.11,.11,.09-.21,.1-.43,.08-.66-.03-.18-.07-.32-.17-.47,0,0,.35,.28,.38,.3,1.02,.65,2.29,1.08,3.43,1.45,13.67,3.73,34.24,4.42,48.51,4.97,11.24,.41,22.46,.89,33.69,1.49,22.43,1.28,44.77,2.87,67.13,4.79-2.87,1.91-6.39,3.55-10.46,4.93-30.19-1.46-60.38-3.4-90.59-4.74-14.63-.65-36.04-1.49-50.06-5.77-1.79-.59-3.37-1.2-4.94-2.25-.69-.48-1.19-.92-1.71-1.58-.55-.74-.84-1.38-.99-2.3-.11-.93,0-1.63,.37-2.49,.34-.74,.71-1.24,1.28-1.83,1.15-1.13,2.34-1.83,3.76-2.56,18.64-7.99,50.29-10.35,70.54-10.86,3.49-.05,6.98-.1,10.46-.15,29.67-.21,50.75-.48,72.87,4.82Z"/><path class="cls-2" d="M185.61,135.21c-.11,.53-.23,1.07-.4,1.58-2.45-.5-4.88-.95-7.33-1.41-6.8-1.22-13.84-2.26-20.53-3.95-15.97-3.57-36.68-3.64-53.07-2.36-12.07,1.09-12.66-.1-5.1,1.07,5.44,1.06,11,1.71,16.51,2.32,11.52,1.07,22.55,1.18,33.98,1.9,5.72,.39,11.13,.95,16.8,1.83,6.44,.89,12.38,.7,18.41,1.43-.52,1.3-1.22,2.54-2.11,3.7-5.56-.36-11.25-.18-16.94-.88-17.11-2.32-33.54-2.01-50.6-3.83-5.64-.67-11.32-1.39-16.86-2.61-1.51-.33-2.98-.69-4.43-1.23-.31-.15-1.23-.46-1.46-.67-.49-.3-.84-.57-1.18-1.04-.21-.31-.33-.6-.39-.97-.06-.42-.03-.75,.12-1.15,.13-.33,.28-.55,.51-.81,.15-.13,.41-.41,.59-.48,.87-.53,1.77-.79,2.75-1.03,2.98-.65,6.06-.92,9.1-1.15,12.42-.72,24.69-.42,37.07,.74,5.81,.59,11.28,1.41,16.91,2.95,8.98,2.5,18.48,3.93,27.63,6.04h.01Z"/><path class="cls-2" d="M-31.62,130.89c-2.15-.85-4.22-1.72-6.21-2.59,3.91-.49,7.81-.99,11.71-1.6,13.15-2.11,25.56-4.12,38.45-7.4,6.18-1.56,12.31-3.23,18.45-4.94,.92-.17,25.55-3.74,16.92-.38-5.09,1.57-10.7,2.46-15.74,4.09-21.63,7.05-35.11,9.19-57.56,12.12-1.96,.28-3.97,.51-6.02,.7Z"/></g><path class="cls-7" d="M-70.24,40.04s.66,6.07,15.54,5.16c14.88-.91,248.42-10.33,248.42-10.33,0,0-258.14,14.58-260.42,13.51-2.28-1.06-3.62-2.43-3.62-2.43l.07-5.92Z"/><path class="cls-7" d="M206.98,86.2s.26,4.86-7.02,4.86-265.43,4.86-265.43,4.86c0,0,268.09-.99,269.53-1.59,1.44-.61,2.9-1.82,2.9-1.82l.02-6.3Z"/></g></g></svg>