<svg width="245" height="267" viewBox="0 0 245 267" fill="none" xmlns="http://www.w3.org/2000/svg">
<path d="M199.6 103.52C201.43 103.47 202.83 101.55 203.18 98.64C203.86 92.9 200.82 86.5 199.63 84.26C198.2 86.45 194.42 92.88 195.42 98.5C196.04 102.04 197.97 103.57 199.6 103.52Z" fill="#FFBE1D"/>
<path d="M146.3 42.04C147.77 41.54 148.6 39.56 148.38 37.13C147.99 32.8 145.84 24.86 144.93 21.62C139.46 31.99 139.98 36.79 141.4 39C142.97 41.42 144.8 42.56 146.3 42.04Z" fill="#FFBE1D"/>
<path d="M20.4699 115.87C18.8099 118.37 15.6599 123.8 15.5999 129.18C15.5599 133.16 17.8499 135.73 20.0799 135.92C21.6299 136.05 22.7299 134.98 23.0299 133.06C23.4999 130.11 22.8199 127.52 22.0299 124.51C21.3999 122.04 20.6799 119.29 20.4699 115.87Z" fill="#FFBE1D"/>
<path d="M53.1099 66.82C54.8199 67.27 56.1199 67.07 56.9599 66.24C58.4899 64.74 58.71 60.99 57.55 56.21C56.76 52.93 55.92 50.59 55.3 49.11C55.08 50.06 54.67 51.31 53.91 52.9C53.8 53.14 53.68 53.39 53.55 53.66C52.01 56.85 49.44 62.18 50.76 65.04C51.18 65.94 51.9499 66.52 53.1099 66.82Z" fill="#FFBE1D"/>
<path d="M163.93 144.4C164.17 143 164.41 141.71 164.67 140.34L164.68 140.28C166.44 130.87 167.61 124.66 162.58 113.3C161.81 111.55 159.35 107.55 151.56 100.39C145.47 94.79 138.09 89.04 131.57 83.97C123.08 77.36 115.05 71.11 108.44 64.56C106.79 62.93 105.24 61.2 103.79 59.39C103.65 61.43 103.53 63.67 103.44 66.12C102.73 84.25 97.6197 98.53 88.2397 108.56C82.5497 114.64 76.4997 117.84 71.7397 119.52C69.5797 124.24 66.9798 128.72 64.4298 133.1C58.8898 142.65 53.1597 152.52 50.9497 164.94C50.4697 167.64 50.7397 170.06 51.8197 172.78C52.8597 175.4 54.5897 178.08 56.9597 180.75C60.6097 184.85 64.7297 187.74 66.3497 188.81C83.5497 196.59 102.4 200.7 120.92 200.7C136.58 200.7 151.82 197.7 165.01 192.03C172.33 188.88 176.84 185.89 179.61 183.41C169.51 177.5 160.45 164.6 163.93 144.4Z" fill="#DD3A0E"/>
<path d="M195.08 172.92C193 172.92 190.97 172.53 189.04 171.75C182.28 169.03 175.92 161.06 178.37 146.88C178.59 145.59 178.83 144.34 179.07 143.03L179.08 142.97C181.02 132.64 182.84 122.88 175.98 107.37C170.98 96.07 154.13 82.95 140.58 72.4C132.44 66.06 124.75 60.08 118.76 54.14C109.44 44.91 105.78 33.38 104.49 23.85C104.18 24.12 103.86 24.39 103.54 24.67C93.0199 33.8 89.8098 40.27 88.8298 65.53C88.2698 80.05 84.4798 91.15 77.5698 98.53C71.3398 105.19 64.7398 106.45 62.8698 106.68C62.3798 106.74 61.8698 106.77 61.3598 106.77C61.2398 106.77 61.1098 106.77 60.9898 106.76C59.1298 113.09 55.5199 119.3 51.7899 125.72C45.8999 135.87 39.2199 147.38 36.5599 162.35C35.5999 167.73 36.1498 172.9 38.2298 178.14C39.8998 182.36 42.5299 186.5 46.0499 190.45C51.6499 196.74 57.8499 200.74 59.3799 201.68C78.7299 210.6 100.01 215.32 120.95 215.32C138.58 215.32 155.82 211.91 170.82 205.46C184.05 199.77 192.72 192.97 196.59 185.26C198.47 181.5 199.38 177.42 199.37 172.35C197.96 172.73 196.53 172.92 195.08 172.92ZM120.94 200.69C102.42 200.69 83.5798 196.58 66.3698 188.8C64.7498 187.73 60.6298 184.84 56.9798 180.74C54.6098 178.07 52.8798 175.39 51.8398 172.77C50.7598 170.05 50.4998 167.63 50.9698 164.93C53.1798 152.51 58.9098 142.64 64.4498 133.09C66.9898 128.71 69.5899 124.23 71.7599 119.51C76.5199 117.83 82.5599 114.63 88.2599 108.55C97.6399 98.52 102.76 84.24 103.46 66.11C103.56 63.66 103.67 61.42 103.81 59.38C105.26 61.2 106.81 62.92 108.46 64.55C115.07 71.1 123.09 77.35 131.59 83.96C138.1 89.03 145.49 94.78 151.58 100.38C159.37 107.55 161.83 111.55 162.6 113.29C167.62 124.65 166.46 130.86 164.7 140.27L164.69 140.33C164.43 141.7 164.19 142.99 163.95 144.39C160.47 164.58 169.53 177.49 179.65 183.39C176.88 185.86 172.37 188.86 165.05 192.01C151.84 197.69 136.59 200.69 120.94 200.69Z" fill="#FF7F1F"/>
<path d="M210.48 162.67C208.71 150.03 202.47 146 199.83 144.85C200.87 147.53 202.81 153.85 199.92 158.12C198.65 159.99 196.84 161.05 195.08 161.05C194.53 161.05 193.99 160.95 193.47 160.74C191.01 159.75 188.82 156.12 190.06 148.91C190.27 147.68 190.5 146.46 190.74 145.17C192.82 134.06 195.18 121.46 186.83 102.58C180.63 88.55 163.22 75 147.86 63.05C140.01 56.94 132.59 51.16 127.11 45.73C118.51 37.21 116.22 25.67 115.81 17.5C115.46 10.56 116.38 4.79999 116.8 2.60999C114.35 3.31999 106.83 6.11001 95.7499 15.73C81.8799 27.77 78.0099 37.92 76.9599 65.09C76.3999 79.52 72.26 86.84 68.89 90.44C65.17 94.42 61.57 94.89 61.42 94.91C61.4 94.91 61.3699 94.91 61.3499 94.91C61.0799 94.91 60.85 94.73 60.78 94.47C57.99 83.77 47.39 81.36 42.4 80.82C44.78 82.59 48.27 86.63 50.14 95.58C51.58 102.45 47.14 110.1 41.52 119.79C35.45 130.25 27.8999 143.27 24.8699 160.3C21.8999 177 29.93 190.22 37.18 198.37C44.89 207.03 53.3599 211.95 53.8199 212.22C75.2099 222.19 98.3799 227.22 120.94 227.22C140.02 227.22 158.68 223.63 175.5 216.39C210.83 201.18 213.01 180.7 210.48 162.67ZM196.57 185.27C192.71 192.98 184.04 199.78 170.8 205.47C155.8 211.92 138.56 215.33 120.93 215.33C99.99 215.33 78.7099 210.62 59.3599 201.69C57.8299 200.75 51.63 196.76 46.03 190.46C42.52 186.51 39.8899 182.37 38.2099 178.15C36.1299 172.9 35.59 167.74 36.54 162.36C39.2 147.39 45.88 135.89 51.77 125.73C55.5 119.31 59.0999 113.1 60.9699 106.77C61.0899 106.77 61.2199 106.78 61.3399 106.78C61.8499 106.78 62.3599 106.75 62.8499 106.69C64.7199 106.46 71.32 105.2 77.55 98.54C84.46 91.16 88.25 80.05 88.81 65.54C89.79 40.29 93 33.82 103.52 24.68C103.84 24.4 104.16 24.13 104.47 23.86C105.76 33.38 109.42 44.92 118.74 54.15C124.73 60.08 132.42 66.07 140.56 72.41C154.11 82.96 170.96 96.08 175.96 107.38C182.82 122.89 180.99 132.65 179.06 142.98L179.05 143.04C178.8 144.35 178.57 145.6 178.35 146.89C175.91 161.07 182.26 169.03 189.02 171.76C190.95 172.54 192.98 172.93 195.06 172.93C196.51 172.93 197.95 172.73 199.34 172.36C199.36 177.42 198.46 181.51 196.57 185.27Z" fill="#FFBE1D"/>
<path d="M120.94 229.09C98.0898 229.09 74.6499 224 52.9899 213.91C52.9599 213.9 52.9299 213.88 52.8999 213.86C52.5299 213.65 43.8499 208.71 35.7599 199.61C24.9599 187.48 20.5499 173.77 23.0099 159.96C26.0899 142.6 33.7399 129.42 39.8899 118.83C45.3099 109.5 49.5899 102.12 48.2999 95.96C45.6299 83.15 39.4998 81.34 39.4398 81.32C38.8198 81.15 38.4099 80.55 38.4899 79.91C38.5699 79.27 39.0898 78.78 39.7298 78.77C39.9098 78.76 57.5599 78.48 62.2499 92.74C63.4599 92.32 65.5499 91.3 67.6799 88.97C70.7599 85.59 74.5498 78.68 75.0798 65C76.1598 37.18 80.1599 26.75 94.5199 14.28C108.57 2.07998 117.02 0.559986 117.37 0.499986C117.8 0.429986 118.23 0.58 118.53 0.89C118.83 1.21 118.94 1.64999 118.85 2.06999C118.79 2.33999 112.79 28.83 128.46 44.36C133.87 49.72 141.24 55.46 149.05 61.53C164.58 73.62 182.19 87.33 188.58 101.79C197.17 121.21 194.65 134.67 192.62 145.49C192.38 146.77 192.15 147.99 191.94 149.2C190.89 155.31 192.49 158.28 194.19 158.96C195.56 159.51 197.21 158.76 198.37 157.04C201.43 152.52 197.65 144.47 197.61 144.38C197.4 143.94 197.46 143.41 197.76 143.03C198.06 142.64 198.56 142.46 199.04 142.55C199.48 142.64 209.93 144.92 212.38 162.38C213.47 170.16 214.1 180.42 209.19 190.67C203.82 201.9 193.05 210.87 176.27 218.08C159.19 225.45 140.27 229.09 120.94 229.09ZM54.1399 211.58C93.4399 229.89 138.7 231.44 175.23 215.73C210.13 200.72 212.29 180.53 209.8 162.77C208.34 152.37 203.94 148.02 201.08 146.26C202.1 149.5 203.08 154.73 200.51 158.52C198.66 161.25 195.73 162.41 193.21 161.4C191.89 160.87 187.72 158.39 189.37 148.8C189.58 147.57 189.81 146.35 190.05 145.05C192.11 134.04 194.45 121.55 186.19 102.87C180.06 89 162.73 75.51 147.43 63.61C139.56 57.48 132.13 51.7 126.61 46.23C119.67 39.36 115.7 29.44 115.1 17.53C114.8 11.46 115.43 6.35999 115.89 3.62999C112.76 4.72999 105.86 7.87 96.1998 16.26C82.5098 28.14 78.6999 38.19 77.6499 65.12C76.5499 93.47 62.1099 95.54 61.4999 95.62C60.8499 95.69 60.2498 95.29 60.0898 94.66C57.7298 85.62 49.7499 82.72 44.5099 81.8C46.7599 84.14 49.3198 88.26 50.8198 95.44C52.3098 102.58 47.8099 110.33 42.1199 120.14C36.0799 130.55 28.5599 143.51 25.5599 160.42C23.2199 173.58 27.2899 186.17 37.6499 197.84C45.1799 206.33 53.4899 211.21 54.1399 211.58Z" fill="#232323"/>
<path d="M20.3498 137.82C20.2098 137.82 20.0698 137.81 19.9298 137.8C16.8398 137.54 13.6698 134.23 13.7198 129.16C13.7998 121.23 19.7499 113.6 19.9999 113.28C20.3399 112.85 20.9199 112.68 21.4399 112.86C21.9599 113.04 22.3098 113.53 22.3098 114.08C22.3198 118.12 23.1499 121.26 23.8799 124.04C24.6899 127.12 25.4498 130.02 24.9098 133.36C24.4698 136.11 22.6998 137.82 20.3498 137.82ZM19.9599 118C18.3399 120.76 16.3498 125 16.2998 129.18C16.2598 133.11 18.5199 135.08 20.1399 135.21C21.2999 135.31 22.0899 134.5 22.3399 132.94C22.7899 130.14 22.1298 127.61 21.3598 124.68C20.8498 122.71 20.2799 120.55 19.9599 118Z" fill="#232323"/>
<path d="M199.53 105.41C197.12 105.41 194.36 103.39 193.56 98.83C192.2 91.17 198.38 82.72 198.65 82.36C198.91 82.01 199.32 81.82 199.75 81.84C200.18 81.86 200.58 82.1 200.8 82.47C201.01 82.82 205.97 91.16 205.06 98.87C204.5 103.6 201.8 105.36 199.66 105.42C199.61 105.41 199.57 105.41 199.53 105.41ZM199.57 85.69C197.95 88.39 195.28 93.71 196.11 98.38C196.65 101.44 198.25 102.82 199.53 102.82C199.55 102.82 199.56 102.82 199.58 102.82C201.04 102.78 202.18 101.1 202.48 98.56C203.05 93.76 200.9 88.44 199.57 85.69Z" fill="#232323"/>
<path d="M54.7499 68.94C54.1299 68.94 53.4199 68.85 52.6399 68.65C50.9199 68.2 49.71 67.26 49.06 65.84C47.36 62.16 50.0699 56.55 51.8599 52.84C51.9899 52.58 52.1099 52.33 52.2199 52.09C53.7399 48.89 53.67 47.33 53.65 47.13C53.48 46.51 53.8 45.9 54.4 45.64C55 45.38 55.71 45.65 56.04 46.21C56.11 46.33 57.84 49.31 59.4 55.75C60.18 58.99 61.08 64.84 58.3 67.58C57.61 68.27 56.4899 68.94 54.7499 68.94ZM55.3799 51.27C55.1599 51.86 54.89 52.5 54.55 53.21C54.44 53.45 54.31 53.7 54.18 53.97C52.79 56.84 50.21 62.19 51.4 64.75C51.6 65.19 52.02 65.81 53.28 66.14C55.48 66.71 56.2199 65.98 56.4599 65.74C57.7899 64.43 57.9399 60.85 56.8599 56.37C56.3699 54.3 55.8499 52.6 55.3799 51.27Z" fill="#232323"/>
<path d="M145.56 44.05C143.56 44.05 141.49 42.62 139.82 40.02C137.31 36.12 138.58 29.43 143.58 20.14C143.72 19.88 143.82 19.7 143.87 19.59C144.03 19.14 144.42 18.8 144.91 18.73C145.55 18.64 146.16 19.03 146.34 19.65C146.48 20.12 149.75 31.28 150.27 36.95C150.58 40.32 149.26 43.01 146.92 43.82C146.47 43.98 146.02 44.05 145.56 44.05ZM144.74 23.54C140.29 32.5 140.75 36.68 142 38.62C143.35 40.72 144.91 41.77 146.08 41.37C147.22 40.98 147.88 39.26 147.69 37.19C147.36 33.56 145.77 27.31 144.74 23.54Z" fill="#232323"/>
<path d="M159.74 130.7C159.55 130.62 159.33 130.54 159.11 130.46C159.15 130.36 160.86 126.64 160.16 123.41C160.16 123.41 156.76 122.01 155.37 119.84C155.28 119.7 155.19 119.5 155.08 119.23C154.43 117.53 153.46 113.36 151.93 108.85C149.88 102.8 146.83 96.14 142.19 94.02C142.19 94.02 144.02 92.51 143.43 89.09C143.25 88.05 142.86 86.83 142.12 85.43L142.1 85.42C143 83.75 143.76 81.18 142.79 77.95C142.79 77.95 139.32 79.03 136.89 81.85C139.31 72.63 143.51 66.21 143.65 66.01C143.65 66.01 130.88 67.41 117.33 83.36V83.46C115.41 83.45 113.15 83.56 110.64 83.88C108.95 84.09 107.13 84.41 105.23 84.85C102.32 85.53 99.7302 86.38 97.5002 87.27C96.1202 87.82 94.8703 88.39 93.7603 88.94L93.7202 88.86C74.5202 80.54 62.4502 84.92 62.4502 84.92C62.4502 84.92 69.1803 88.83 75.5203 96.15C72.0903 94.69 68.5002 95.25 68.5002 95.25C69.0502 98.57 70.8803 100.54 72.4203 101.65L72.4103 101.66C72.3903 102.39 72.4202 103.05 72.4802 103.65C73.0202 108.66 76.1403 109.41 76.1403 109.41C72.9103 113.36 73.1202 120.68 73.9502 127.01C74.5202 131.33 75.3803 135.19 75.6503 137.2C75.7203 137.73 75.7502 138.14 75.7202 138.39C75.4302 140.95 73.0002 143.71 73.0002 143.71C73.8202 146.96 77.0603 149.57 77.0603 149.57C76.1803 150.44 75.7202 151.26 75.7202 151.26C79.1902 156.68 84.6103 159.84 90.5603 161.6C105.22 165.92 123.13 161.71 123.13 161.71C123.13 161.71 131.84 159.7 140.92 154.98C149.68 150.43 158.8 143.35 160.79 133.1C160.9 132.54 160.99 131.97 161.05 131.4C161.06 131.39 160.55 131.04 159.74 130.7ZM127.52 150.68C127.43 150.95 127.33 151.23 127.23 151.51C126.89 152.42 126.5 153.36 126.04 154.3C124.41 157.61 120.18 158.59 117.27 156.34C116.19 155.51 115.21 154.63 114.34 153.75L114.14 153.55C110.87 150.22 109.09 147.01 109.09 147.01C113.3 147.07 116.06 144.77 117.45 143.2C118.14 142.42 118.4 141.35 118.17 140.33C118.41 141.35 119.11 142.2 120.08 142.59C122.01 143.38 125.51 144.22 129.26 142.31C129.26 142.32 129.07 146.13 127.52 150.68Z" fill="#2D2D2D"/>
<path d="M158.991 185.84C158.991 186.23 158.961 186.63 158.911 187C158.531 189.55 156.821 191.46 152.131 190.65L151.651 190.6C151.001 192.23 149.741 193.58 147.491 194.04C146.681 194.2 145.731 194.25 144.641 194.15C143.991 195.01 142.951 195.67 141.351 195.94C135.961 196.85 133.161 193.77 132.021 192C132.021 192 129.641 192.19 125.751 192.43C118.211 192.89 105.021 193.55 92.6706 193.36C91.2606 193.34 89.8505 193.31 88.4805 193.26C88.0405 190.95 87.8105 188.51 87.7305 186.06C87.6605 184.03 87.7006 181.98 87.8006 179.99C87.9306 177.57 88.1705 175.21 88.4505 173.05C88.7405 170.83 89.0706 168.8 89.3906 167.09C90.0206 163.73 90.5705 161.6 90.5705 161.6C92.4805 162.16 94.4506 162.58 96.4206 162.88C109.591 164.89 123.141 161.71 123.141 161.71C123.141 161.71 124.86 161.32 127.57 160.46C130.96 159.39 135.89 157.61 140.94 154.98C140.94 154.98 146.611 162.88 148.891 171.71C149.161 172.76 149.391 173.81 149.551 174.87C156.601 176.52 157.19 178.19 157.19 178.19C157.19 178.19 157.55 178.99 157.94 180.19C158.44 181.7 159.001 183.86 158.991 185.84Z" fill="#2D2D2D"/>
<path d="M167.52 160.67C167.52 160.67 167.08 161.05 166.29 161.66L166.28 161.69C164.11 160.94 161.63 162.52 161.63 165.03V165.06C158.13 167.43 153.48 170.18 148.88 171.71C147.99 168.26 146.58 164.97 145.2 162.22C143.03 157.92 140.92 154.98 140.92 154.98C146.27 152.2 151.76 148.47 155.67 143.66C158.16 140.6 160.01 137.09 160.79 133.11C160.79 133.11 169.98 128 170.75 138.17C170.75 138.17 182.33 135.13 177.63 147.2C177.63 147.19 189.39 158.2 167.52 160.67Z" fill="#2D2D2D"/>
<path d="M73.95 127C73.95 127 59.84 112.31 62.45 84.9C62.45 84.9 69.1801 88.81 75.5201 96.13C72.0901 94.67 68.5001 95.23 68.5001 95.23C69.0501 98.55 70.8801 100.52 72.4201 101.63L72.4101 101.64C72.2201 108.44 76.1401 109.38 76.1401 109.38C72.9201 113.35 73.12 120.67 73.95 127Z" fill="white"/>
<path d="M151.93 108.85C149.88 102.8 146.83 96.14 142.19 94.02C142.19 94.02 145.29 91.45 142.12 85.43L142.1 85.42C143 83.75 143.76 81.18 142.79 77.95C142.79 77.95 139.32 79.03 136.89 81.85C139.34 72.48 143.65 66 143.65 66C158.1 89.43 151.93 108.85 151.93 108.85Z" fill="white"/>
<path d="M161.06 131.39C160.99 131.97 160.91 132.53 160.8 133.09C158.81 143.33 149.7 150.41 140.93 154.97C131.85 159.69 123.14 161.7 123.14 161.7C123.14 161.7 105.23 165.91 90.5697 161.59C84.6197 159.84 79.1997 156.67 75.7297 151.25C75.7297 151.25 76.1897 150.43 77.0697 149.56C77.0697 149.56 73.8298 146.95 73.0098 143.7C73.0098 143.7 75.4497 140.94 75.7297 138.38C75.7597 138.13 75.7298 137.73 75.6598 137.19C77.6298 135.43 80.8698 133.2 84.0198 133.98C89.0198 135.21 109.43 137.11 116.33 135.52C123.23 133.94 139.22 124.92 145.62 119.87C147.88 118.09 151.43 118.26 155.09 119.22C155.19 119.49 155.29 119.7 155.38 119.83C156.77 122 160.17 123.4 160.17 123.4C160.86 126.63 159.16 130.36 159.12 130.45C160.28 130.86 161.06 131.39 161.06 131.39Z" fill="white"/>
<path d="M129.26 142.32C129.26 142.32 129.08 146.13 127.53 150.69C127.53 150.69 124.54 149.37 120.49 150.31C116.44 151.25 114.34 153.76 114.34 153.76C110.93 150.36 109.09 147.02 109.09 147.02C113.3 147.08 116.06 144.78 117.45 143.21C118.14 142.43 118.4 141.36 118.17 140.34C118.41 141.36 119.11 142.21 120.08 142.6C122.01 143.38 125.51 144.23 129.26 142.32Z" fill="#232323"/>
<path d="M4.96002 220.22C4.84002 220.1 4.71997 219.96 4.59997 219.82C3.13997 218.1 1.79998 215.14 2.41998 210.16C2.70998 207.84 3.48 205.6 4.82 203.69C7.12 200.44 9.77999 199.67 11.81 199.69C11.81 199.69 13.84 215.4 4.96002 220.22Z" fill="#FFD00D"/>
<path d="M7.48993 221.95C7.48993 221.95 6.23996 221.54 4.95996 220.21C13.83 215.39 11.8099 199.68 11.8099 199.68C13.6999 199.7 15.0499 200.4 15.0499 200.4C15.0499 200.4 17.3699 217.8 7.48993 221.95Z" fill="#3F1AA3"/>
<path d="M183.45 187.36C177.51 189.12 168.62 189.83 168.62 189.83C168.62 189.83 165.85 187.93 161.63 187.25V165.04C161.63 162.53 164.12 160.95 166.28 161.7C166.63 161.82 166.96 162 167.28 162.24C172.43 166.2 179.77 173.91 183.45 187.36Z" fill="#C3B0FF"/>
<path d="M242.93 221.88C241.78 225.78 239.41 228.67 237.82 230.26C236.91 231.19 236.25 231.67 236.25 231.67C220.58 219.21 220.3 203.81 220.3 203.81C220.3 203.81 221.84 203.41 224.13 203.14C225.46 202.99 227.04 202.88 228.72 202.94C228.73 202.94 231.74 214.13 242.93 221.88Z" fill="#C3B0FF"/>
<path d="M242.93 221.88C231.74 214.13 228.73 202.94 228.73 202.94C233.94 203.1 240.07 204.75 242.44 211.14C243.97 215.24 243.82 218.86 242.93 221.88Z" fill="#FFD00D"/>
<path d="M79.8301 192.76C79.8301 192.76 60.5501 199.39 53.9701 185.79C53.9701 185.79 53.6601 170.54 62.3601 167.88C64.6301 167.19 66.9002 168.55 69.0202 170.93C75.0302 177.71 79.8301 192.76 79.8301 192.76Z" fill="#7636FF"/>
<path d="M94.41 249.62C83.82 249.2 76.6899 248.55 76.6899 248.55C77.0499 248.1 77.33 247.58 77.51 247.02C85.89 220.9 51.8 202.6 28.89 214.82C9.58998 225.12 10.1 242.75 10.9 248.73C10.93 248.93 10.97 249.12 11.03 249.3L10.5399 249.42H5.41995C1.42995 237.43 4.60995 219.81 4.60995 219.81C5.99995 221.45 7.49997 221.95 7.49997 221.95C15.4 218.63 15.4999 206.82 15.2199 202.24C15.1499 201.1 15.06 200.4 15.06 200.4C27.17 185.71 53.9699 185.79 53.9699 185.79C54.7299 187.36 55.6599 188.65 56.6999 189.73C64.7399 197.96 79.8299 192.77 79.8299 192.77C82.2899 192.98 84.92 193.13 87.64 193.23C87.92 193.24 88.2 193.25 88.4799 193.26C89.8599 193.31 91.26 193.34 92.67 193.36C92.46 194.69 87.51 226.47 94.41 249.62Z" fill="#7636FF"/>
<path d="M237.83 230.27C236.91 231.19 236.26 231.68 236.26 231.68C220.59 219.22 220.31 203.82 220.31 203.82C220.31 203.82 221.85 203.42 224.14 203.15L224.11 202.91C209.77 189.28 183.46 187.36 183.46 187.36C178.59 188.8 171.73 189.54 169.42 189.76C168.92 189.81 168.63 189.83 168.63 189.83C167.38 196.65 161.81 199.62 155 199.62C148.19 199.62 147.5 194.04 147.5 194.04C146.69 194.2 145.74 194.25 144.65 194.15C144 195.01 142.96 195.67 141.36 195.94C135.97 196.85 133.17 193.77 132.03 192C132.03 192 126.11 192.47 117.73 192.86C110.47 193.2 101.37 193.49 92.6802 193.35C92.4702 194.68 87.5202 226.46 94.4202 249.62C111.99 250.32 139.07 250.4 158.89 245.82C158.57 245.17 158.29 244.4 158.06 243.5C158.06 243.5 152.44 209.49 193.19 209.49C212.83 209.49 221.59 221.05 225.42 232.76C226.65 236.49 227.37 240.23 227.78 243.62C227.84 244.1 227.83 244.56 227.77 245.02L228.11 245.07C236.13 242.55 237.62 235.8 237.84 232.35C237.92 231.09 237.83 230.27 237.83 230.27ZM109.87 204.94L98.7501 205.4C97.3501 205.4 96.2201 204.27 96.2201 202.87C96.2201 202.17 96.5001 201.54 96.9601 201.08C97.4201 200.62 98.0501 200.34 98.7501 200.34L109.98 201.53C110.85 201.62 111.51 202.35 111.51 203.23C111.51 204.15 110.79 204.9 109.87 204.94Z" fill="#7636FF"/>
<path d="M77.5101 247.02C77.3301 247.58 77.05 248.1 76.69 248.55C75.97 249.46 74.9401 250.09 73.7701 250.27C73.5501 250.3 73.3301 250.32 73.1101 250.32C71.8101 250.31 70.6201 249.58 70.4101 247.07C70.3701 246.53 70.3 245.88 70.19 245.15C69.17 238.03 64.4801 223.29 41.7301 223.29C21.5701 223.29 17.7101 240.18 16.9801 246.8C16.8001 248.42 16.8101 249.42 16.8101 249.42C16.8101 249.42 16.2701 251.11 14.5001 251.45C14.0401 251.54 13.5801 251.51 13.1501 251.39C12.1601 251.11 11.3401 250.32 11.0101 249.31C10.9501 249.13 10.9101 248.94 10.8801 248.74C10.0801 242.75 9.5701 225.12 28.8701 214.83C51.8001 202.6 85.8901 220.91 77.5101 247.02Z" fill="#3F1AA3"/>
<path d="M227.76 245.02C227.51 246.71 226.44 248.2 224.9 248.93C224.51 249.11 224.1 249.25 223.65 249.33C223.51 249.36 223.36 249.38 223.21 249.4C220.4 249.73 217.88 247.64 217.57 244.84C217.56 244.8 217.56 244.76 217.56 244.72C216.99 238.09 213.38 221.27 191.56 221.27C170.61 221.27 168.33 236.89 168.38 244.06C168.38 244.54 168.32 245 168.19 245.45C167.51 247.89 165.02 249.57 162.43 248.93C162.4 248.92 162.36 248.91 162.33 248.9C161.04 248.55 159.79 247.66 158.88 245.82C158.56 245.17 158.28 244.4 158.05 243.5C158.05 243.5 152.43 209.49 193.18 209.49C219.06 209.49 226.05 229.58 227.77 243.62C227.83 244.1 227.83 244.57 227.76 245.02Z" fill="#3F1AA3"/>
<path d="M54.91 238.81C54.91 245.21 49.72 250.41 43.31 250.41C36.91 250.41 31.71 245.22 31.71 238.81C31.71 232.4 36.9 227.21 43.31 227.21C49.71 227.21 54.91 232.4 54.91 238.81Z" fill="white"/>
<path d="M204.5 238.81C204.5 245.21 199.31 250.41 192.9 250.41C186.5 250.41 181.3 245.22 181.3 238.81C181.3 232.4 186.49 227.21 192.9 227.21C199.31 227.21 204.5 232.4 204.5 238.81Z" fill="white"/>
<path d="M87.64 193.22C84.92 193.12 82.3 192.97 79.83 192.76C79.83 192.76 75.04 177.71 69.02 170.93C69.02 170.93 69.57 166.46 72.62 165.13C75.66 163.81 82.81 169.4 87.64 193.22Z" fill="#595989"/>
<path d="M41.74 223.29C21.58 223.29 17.72 240.18 16.99 246.8C21.08 257.34 31.32 264.82 43.3 264.82C55.91 264.82 66.58 256.55 70.2 245.15C69.19 238.03 64.5 223.29 41.74 223.29ZM43.3101 250.4C36.9101 250.4 31.71 245.21 31.71 238.8C31.71 232.39 36.9001 227.2 43.3101 227.2C49.7201 227.2 54.91 232.39 54.91 238.8C54.91 245.21 49.7101 250.4 43.3101 250.4Z" fill="#595989"/>
<path d="M168.62 189.82C167.37 196.64 161.8 199.61 154.99 199.61C148.18 199.61 147.49 194.03 147.49 194.03C149.74 193.58 150.99 192.23 151.65 190.59L152.13 190.64C156.81 191.45 158.53 189.54 158.91 186.99C159.87 187 160.79 187.09 161.64 187.23C165.85 187.93 168.62 189.82 168.62 189.82Z" fill="#595989"/>
<path d="M217.56 244.72C216.99 238.09 213.38 221.27 191.56 221.27C170.61 221.27 168.33 236.89 168.38 244.06C168.38 244.54 168.32 245 168.19 245.45C171.27 256.13 181.12 263.94 192.8 263.94C204.7 263.94 214.69 255.83 217.57 244.84C217.57 244.8 217.56 244.76 217.56 244.72ZM192.9 250.4C186.5 250.4 181.3 245.21 181.3 238.8C181.3 232.39 186.49 227.2 192.9 227.2C199.31 227.2 204.5 232.39 204.5 238.8C204.5 245.21 199.31 250.4 192.9 250.4Z" fill="#595989"/>
<path d="M111.51 203.23C111.51 204.14 110.79 204.9 109.88 204.94L98.76 205.4C97.36 205.4 96.23 204.27 96.23 202.87C96.23 202.17 96.51 201.54 96.97 201.08C97.43 200.62 98.06 200.34 98.76 200.34L109.99 201.53C110.85 201.63 111.51 202.36 111.51 203.23Z" fill="#595989"/>
<path d="M159.11 130.47C159.15 130.37 160.86 126.65 160.16 123.42C160.16 123.42 156.76 122.02 155.37 119.85C155.28 119.71 155.19 119.51 155.08 119.24C151.42 118.28 147.87 118.11 145.61 119.89C143.68 121.41 140.88 123.3 137.71 125.23C133.22 127.97 127.48 127.5 123.46 124.12C120 121.22 116.88 118.02 114.73 115.66C113.38 114.19 110.95 114.68 110.28 116.55C109.08 119.91 107.17 124.67 104.7 129.06C102.3 133.33 97.58 135.75 92.71 135.25C88.85 134.85 85.63 134.39 84.01 133.99C80.86 133.21 77.62 135.45 75.65 137.2C75.72 137.73 75.75 138.14 75.72 138.39C75.43 140.95 73 143.71 73 143.71C73.82 146.96 77.0601 149.57 77.0601 149.57C76.1801 150.44 75.72 151.26 75.72 151.26C79.19 156.68 84.6101 159.84 90.5601 161.6C105.22 165.92 123.13 161.71 123.13 161.71C123.13 161.71 131.84 159.7 140.92 154.98C149.68 150.43 158.8 143.35 160.79 133.1C160.9 132.54 160.99 131.97 161.05 131.4C161.06 131.4 160.28 130.87 159.11 130.47ZM116.26 135.55C116.3 135.54 116.32 135.53 116.32 135.53L115.38 130.72L116.33 135.53C116.32 135.53 116.32 135.53 116.31 135.53C116.3 135.54 116.28 135.54 116.26 135.55Z" fill="white"/>
<path d="M149.54 174.87C141.54 173.71 129.88 169.45 127.76 166.78C126.37 165.02 126.98 162.19 127.56 160.45C130.95 159.38 135.88 157.6 140.93 154.97C140.93 154.97 146.6 162.87 148.88 171.7C149.16 172.75 149.38 173.81 149.54 174.87Z" fill="white"/>
<path d="M167.52 160.67C167.52 160.67 158.3 156.58 155.68 143.65C158.17 140.59 160.02 137.08 160.8 133.1C160.8 133.1 169.99 127.99 170.76 138.16C170.76 138.16 182.34 135.12 177.64 147.19C177.63 147.19 189.39 158.2 167.52 160.67Z" fill="white"/>
<path d="M164.44 152.12C166.991 152.12 169.06 150.052 169.06 147.5C169.06 144.948 166.991 142.88 164.44 142.88C161.888 142.88 159.82 144.948 159.82 147.5C159.82 150.052 161.888 152.12 164.44 152.12Z" fill="#FF4D96"/>
<path d="M164.71 140.27C165.919 140.27 166.9 139.289 166.9 138.08C166.9 136.87 165.919 135.89 164.71 135.89C163.5 135.89 162.52 136.87 162.52 138.08C162.52 139.289 163.5 140.27 164.71 140.27Z" fill="#FF4D96"/>
<path d="M172.99 145.41C174.199 145.41 175.18 144.43 175.18 143.22C175.18 142.01 174.199 141.03 172.99 141.03C171.78 141.03 170.8 142.01 170.8 143.22C170.8 144.43 171.78 145.41 172.99 145.41Z" fill="#FF4D96"/>
<path d="M172.99 154.97C174.199 154.97 175.18 153.99 175.18 152.78C175.18 151.57 174.199 150.59 172.99 150.59C171.78 150.59 170.8 151.57 170.8 152.78C170.8 153.99 171.78 154.97 172.99 154.97Z" fill="#FF4D96"/>
<path d="M89.3903 167.08C89.0803 168.79 88.7402 170.81 88.4502 173.04C91.5602 172.76 94.1802 171.93 95.7202 171.34C96.3402 171.1 96.3803 170.25 95.8003 169.94C93.5103 168.71 91.1603 167.74 89.3903 167.08Z" fill="white"/>
<path d="M87.7301 186.05C90.7201 185.61 93.2102 184.69 94.6802 184.06C95.2802 183.8 95.3001 182.95 94.7101 182.66C92.2001 181.46 89.6402 180.56 87.8102 179.98C87.7002 181.97 87.6601 184.02 87.7301 186.05Z" fill="white"/>
<g opacity="0.3">
<path d="M121.15 152.8C123.5 152.25 125.48 152.47 126.74 152.74C127.03 152.04 127.29 151.35 127.52 150.68C127.52 150.68 124.53 149.36 120.48 150.3C116.43 151.24 114.33 153.75 114.33 153.75C114.85 154.27 115.41 154.79 116 155.3C116.99 154.5 118.72 153.37 121.15 152.8Z" fill="#000566"/>
</g>
<g opacity="0.3">
<path d="M161.06 131.39C160.99 131.97 160.91 132.53 160.8 133.09C158.81 143.33 149.7 150.41 140.93 154.97C131.85 159.69 123.14 161.7 123.14 161.7C123.14 161.7 105.23 165.91 90.5697 161.59C84.6197 159.84 79.1997 156.67 75.7297 151.25C75.7297 151.25 76.1897 150.43 77.0697 149.56C77.0697 149.56 73.8298 146.95 73.0098 143.7C73.0098 143.7 75.4497 140.94 75.7297 138.38C75.7597 138.13 75.7298 137.73 75.6598 137.19C75.3898 135.17 74.5297 131.32 73.9597 127C73.1297 120.67 72.9298 113.34 76.1498 109.4C76.1498 109.4 71.0798 156.16 114.13 153.55C116.28 153.42 118.54 153.17 120.93 152.78C123.13 152.42 125.23 152 127.23 151.51C143.93 147.49 153.85 139.3 159.74 130.7C160.55 131.04 161.06 131.39 161.06 131.39Z" fill="black"/>
</g>
<g opacity="0.3">
<path d="M70.5 95.14C71.85 95.16 73.71 95.37 75.52 96.14C69.17 88.82 62.45 84.91 62.45 84.91C62.34 86.03 62.27 87.12 62.21 88.2C64.14 89.53 67.23 91.87 70.5 95.14Z" fill="black"/>
</g>
<g opacity="0.3">
<path d="M76.1399 109.4C76.1399 109.4 72.2199 108.46 72.4099 101.66L72.42 101.65C71.2 100.77 69.8099 99.36 69.0099 97.17C68.9899 97.17 68.9799 97.17 68.9599 97.17C67.4799 97.08 66.4699 98.63 67.1099 99.97C67.9299 101.71 69.1299 102.88 70.1899 103.65L70.18 103.66C69.99 110.46 73.9099 111.4 73.9099 111.4C71.5999 114.23 71.0499 118.79 71.2299 123.48C72.8099 125.82 73.9499 127.01 73.9499 127.01C73.1199 120.67 72.9199 113.35 76.1399 109.4Z" fill="black"/>
</g>
<g opacity="0.3">
<path d="M145.23 68.68C144.73 67.79 144.21 66.9 143.66 66C143.66 66 139.36 72.48 136.9 81.85C138.19 80.36 139.76 79.35 140.96 78.74C142.35 74.42 144.02 70.92 145.23 68.68Z" fill="black"/>
</g>
<g opacity="0.3">
<path d="M145.37 93.95C145.37 93.95 148.47 91.38 145.3 85.36L145.28 85.35C145.85 84.3 146.36 82.88 146.42 81.16C146.48 79.45 144.62 78.33 143.15 79.22L143.1 79.25C143.55 81.87 142.88 83.98 142.1 85.42L142.12 85.43C145.29 91.45 142.19 94.02 142.19 94.02C146.83 96.14 149.88 102.8 151.93 108.85C151.93 108.85 152.57 106.82 152.96 103.28C151.07 99.12 148.61 95.43 145.37 93.95Z" fill="black"/>
</g>
<g opacity="0.3">
<path d="M74.9899 103.6C74.3699 103.81 73.4499 103.97 72.4799 103.64C72.4199 103.04 72.39 102.38 72.41 101.65C72.41 101.65 73.7399 102.53 74.7399 102.87L74.9899 102.96C75.2899 103.07 75.2899 103.5 74.9899 103.6Z" fill="black"/>
</g>
<g opacity="0.3">
<path d="M68.5 95.25C68.5 95.25 70.93 96.14 73.29 97.66C73.92 98.07 74.51 98.54 75.03 99.09C75.81 99.91 77.07 101.33 78.15 103C78.54 103.61 79.4901 103.38 79.5601 102.65C79.6001 102.23 79.6099 101.75 79.5699 101.19L75.53 96.14C75.52 96.14 71.46 94.95 68.5 95.25Z" fill="black"/>
</g>
<g opacity="0.3">
<path d="M87.6897 92.63C87.6897 92.63 87.7098 92.35 87.7998 91.97C88.0398 90.95 87.5397 89.89 86.5797 89.46C82.8197 87.77 73.8497 84.42 62.4497 84.9C62.4497 84.9 74.5297 80.52 93.7197 88.84C93.7297 88.85 89.8097 90.7 87.6897 92.63Z" fill="black"/>
</g>
<g opacity="0.3">
<path d="M143.65 66C130.17 73.45 125.42 78.94 123.92 81.14C123.57 81.65 123.55 82.3 123.86 82.84C124.18 83.39 124.42 84.08 124.42 84.08C121.81 83.31 117.33 83.36 117.33 83.36C130.88 67.4 143.65 66 143.65 66Z" fill="black"/>
</g>
<g opacity="0.3">
<path d="M132.02 192C132.02 192 111.39 193.64 92.6701 193.36C91.2601 193.34 89.85 193.31 88.48 193.26C88.04 190.95 87.81 188.51 87.73 186.06C87.66 184.03 87.7001 181.98 87.8001 179.99C87.9301 177.57 88.17 175.21 88.45 173.05C88.74 170.83 89.0701 168.8 89.3901 167.09C90.0201 163.73 90.57 161.6 90.57 161.6C92.48 162.16 94.4501 162.58 96.4201 162.88C93.5401 174.78 98.5801 181.88 102.67 185.49C103.59 186.3 104.98 185.42 104.66 184.24C103.51 180.01 104.86 175.49 104.86 175.49C109.32 192.29 132.02 192 132.02 192Z" fill="black"/>
</g>
<g opacity="0.3">
<path d="M158.9 187C158.52 189.55 156.81 191.46 152.12 190.65L151.64 190.6C150.99 192.23 149.73 193.58 147.48 194.04C146.67 194.2 145.72 194.25 144.63 194.15C143.98 195.01 142.94 195.67 141.34 195.94C135.95 196.85 133.15 193.77 132.01 192C142.82 194.59 145.22 189.06 145.22 189.06C149.72 189.71 152.28 185.24 152.28 185.24C156.44 183.82 157.6 181.32 157.92 180.19C158.54 182.01 159.23 184.76 158.9 187Z" fill="black"/>
</g>
<g opacity="0.3">
<path d="M167.52 160.67C167.52 160.67 167.08 161.05 166.29 161.66L166.28 161.69C164.11 160.94 161.63 162.52 161.63 165.03V165.06C158.13 167.43 153.48 170.18 148.88 171.71C147.99 168.26 146.58 164.97 145.2 162.22L158.95 156.17C160.59 155.45 162.41 155.19 164.19 155.47C169.21 156.24 179.79 156.8 177.63 147.2C177.63 147.19 189.39 158.2 167.52 160.67Z" fill="black"/>
</g>
<g opacity="0.3">
<path d="M10.93 239.45L10.53 239.55C7.34003 239.55 4.61997 237.23 4.09997 234.08C3.83997 232.49 3.67 230.88 3.56 229.26C3.2 235.29 3.31998 243.13 5.41998 249.42H10.54L11.03 249.3C10.97 249.12 10.93 248.93 10.9 248.73C10.62 246.72 10.39 243.38 10.93 239.45Z" fill="#000566"/>
</g>
<g opacity="0.3">
<path d="M157.94 236.16C138.21 240.53 111.7 240.45 94.41 239.76C87.24 239.47 81.66 239.08 78.8 238.86C78.82 241.47 78.41 244.21 77.51 247.03C77.33 247.59 77.0499 248.11 76.6899 248.56C76.6899 248.56 83.82 249.21 94.41 249.64C111.98 250.34 139.06 250.42 158.88 245.84C158.56 245.19 158.28 244.42 158.05 243.52C158.05 243.51 157.55 240.44 157.94 236.16Z" fill="#000566"/>
</g>
<g opacity="0.3">
<path d="M73.1197 250.33C71.8197 250.32 70.6298 249.59 70.4198 247.08C70.3798 246.54 70.3097 245.89 70.1997 245.16C69.1797 238.04 64.4897 223.3 41.7397 223.3C21.5797 223.3 17.7197 240.19 16.9897 246.81C16.8097 248.43 16.8198 249.43 16.8198 249.43C16.8198 249.43 16.2798 251.12 14.5098 251.46C14.0498 251.55 13.5897 251.52 13.1597 251.4C13.1497 245.36 14.6198 218.68 41.5198 218.68C66.0798 218.67 74.2197 231.97 73.1197 250.33Z" fill="#000566"/>
</g>
<g opacity="0.3">
<path d="M224.9 248.94C224.51 249.12 224.1 249.26 223.65 249.34C223.51 249.37 223.36 249.39 223.21 249.41C220.4 249.74 217.88 247.65 217.57 244.85C217.56 244.81 217.56 244.77 217.56 244.73C216.99 238.1 213.38 221.28 191.56 221.28C170.61 221.28 168.33 236.9 168.38 244.07C168.38 244.55 168.32 245.01 168.19 245.46C167.51 247.9 165.02 249.58 162.43 248.94C162.4 248.93 162.36 248.92 162.33 248.91C161.8 238.94 163.59 215.78 191.63 215.78C216.49 215.77 223.15 236.38 224.9 248.94Z" fill="#000566"/>
</g>
<g opacity="0.3">
<path d="M17.3898 247.78C18.8398 240.14 23.9197 226.95 41.7397 226.95C62.1797 226.95 68.0398 238.85 69.7598 246.43C69.9198 246.01 70.0697 245.59 70.1997 245.16C69.1797 238.04 64.4897 223.3 41.7397 223.3C21.5797 223.3 17.7197 240.19 16.9897 246.81C17.1197 247.13 17.2498 247.46 17.3898 247.78Z" fill="#000566"/>
</g>
<g opacity="0.3">
<path d="M217.56 244.72C216.99 238.09 213.38 221.27 191.56 221.27C170.61 221.27 168.33 236.89 168.38 244.06C168.38 244.54 168.32 245 168.19 245.45C168.27 245.72 168.35 245.98 168.44 246.24C168.92 238.5 172.57 225.66 191.56 225.66C210.65 225.66 215.8 238.53 217.17 246.2C217.31 245.75 217.45 245.3 217.57 244.85C217.57 244.8 217.56 244.76 217.56 244.72Z" fill="#000566"/>
</g>
<g opacity="0.3">
<path d="M43.31 246.01C37.66 246.01 32.9499 241.96 31.9199 236.61C31.7799 237.32 31.71 238.05 31.71 238.8C31.71 245.2 36.9 250.4 43.31 250.4C49.72 250.4 54.91 245.21 54.91 238.8C54.91 238.05 54.8399 237.32 54.6999 236.61C53.6699 241.97 48.96 246.01 43.31 246.01Z" fill="#000566"/>
</g>
<g opacity="0.3">
<path d="M192.9 246.01C187.25 246.01 182.54 241.96 181.51 236.61C181.37 237.32 181.3 238.05 181.3 238.8C181.3 245.2 186.49 250.4 192.9 250.4C199.31 250.4 204.5 245.21 204.5 238.8C204.5 238.05 204.43 237.32 204.29 236.61C203.26 241.97 198.56 246.01 192.9 246.01Z" fill="#000566"/>
</g>
<g opacity="0.3">
<path d="M43.3098 257.51C32.1698 257.51 22.5398 251.05 17.9498 241.67C17.4198 243.66 17.1397 245.45 16.9897 246.81C21.0797 257.35 31.3198 264.83 43.2998 264.83C55.9098 264.83 66.5797 256.56 70.1997 245.16C70.0097 243.85 69.6998 242.27 69.1698 240.58C64.8198 250.54 54.8798 257.51 43.3098 257.51Z" fill="#000566"/>
</g>
<g opacity="0.3">
<path d="M216.74 239.76C213.07 249.41 203.74 256.26 192.8 256.26C181.7 256.26 172.26 249.2 168.7 239.32C168.44 241.09 168.37 242.72 168.38 244.06C168.38 244.54 168.32 245 168.19 245.45C171.27 256.13 181.12 263.94 192.8 263.94C204.7 263.94 214.69 255.83 217.57 244.84C217.56 244.8 217.56 244.76 217.56 244.72C217.45 243.4 217.21 241.67 216.74 239.76Z" fill="#000566"/>
</g>
<g opacity="0.3">
<path d="M62.5402 170.4C63.1102 169.44 63.7901 168.57 64.5901 167.83C63.8501 167.65 63.1001 167.65 62.3601 167.88C53.6601 170.54 53.9701 185.79 53.9701 185.79C60.5501 199.39 79.8301 192.76 79.8301 192.76C79.8301 192.76 79.7501 192.52 79.6101 192.1C78.4601 192.26 77.1901 192.38 75.8701 192.42C64.3301 192.72 56.6302 180.31 62.5402 170.4Z" fill="#000566"/>
</g>
<g opacity="0.3">
<path d="M83.8199 191.94C83.8199 191.94 79.9 179.63 74.7 172.26C73.29 170.26 73.29 167.52 74.87 165.65C74.95 165.55 75.04 165.46 75.12 165.37C74.14 164.89 73.28 164.85 72.62 165.14C69.57 166.47 69.02 170.94 69.02 170.94C75.04 177.71 79.83 192.77 79.83 192.77C82.29 192.98 84.92 193.13 87.64 193.23C87.57 192.88 87.5001 192.54 87.4301 192.21C86.1901 192.12 84.9899 192.04 83.8199 191.94Z" fill="#000566"/>
</g>
<g opacity="0.3">
<path d="M149.25 196.82C151.31 196.41 152.53 195.25 153.22 193.8C153.34 193.55 153.61 193.4 153.88 193.43C158.23 194.18 160.02 192.59 160.55 190.32C160.62 190.01 160.9 189.79 161.21 189.8C161.97 189.83 162.69 189.91 163.38 190.03C165.35 190.35 166.99 190.93 168.2 191.46C168.36 190.94 168.5 190.39 168.61 189.82C168.61 189.82 165.84 187.92 161.62 187.24C160.77 187.1 159.85 187.01 158.89 187C158.51 189.55 156.8 191.46 152.11 190.65L151.63 190.6C150.98 192.23 149.72 193.58 147.47 194.04C147.47 194.04 147.72 196.1 149.45 197.72C149.29 197.18 149.25 196.82 149.25 196.82Z" fill="#000566"/>
</g>
<g opacity="0.3">
<path d="M237.83 232.35C237.61 235.8 236.12 242.55 228.1 245.07L227.76 245.02C227.83 244.57 227.83 244.1 227.77 243.62C227.35 240.23 226.63 236.49 225.41 232.76C229.08 233.5 233.58 233.77 237.83 232.35Z" fill="#000566"/>
</g>
<g opacity="0.3">
<path d="M238.15 225.37C238.14 225.38 238.13 225.39 238.12 225.4C237.28 226.25 235.93 226.28 235.03 225.5C225.89 217.61 222.56 208.82 221.34 203.59C220.69 203.72 220.31 203.82 220.31 203.82C220.31 203.82 220.58 219.22 236.26 231.68C236.26 231.68 236.91 231.19 237.83 230.27C239.42 228.68 241.79 225.79 242.94 221.89C242.48 221.57 242.03 221.24 241.59 220.91C240.46 222.85 239.15 224.37 238.15 225.37Z" fill="#000566"/>
</g>
<g opacity="0.3">
<path d="M11.8099 199.69C11.0299 199.68 10.1699 199.79 9.25989 200.11C9.45989 204.23 9.21989 213.72 3.38989 217.96C3.74989 218.7 4.16985 219.32 4.59985 219.82C4.71985 219.96 4.8399 220.09 4.9599 220.22C13.8399 215.4 11.8099 199.69 11.8099 199.69Z" fill="#000566"/>
</g>
<g opacity="0.3">
<path d="M169.41 189.75C169.32 190.1 169.2 190.47 169.06 190.84C163.24 206.19 150.63 201.96 146.73 200.2C145.96 199.85 145.09 199.79 144.28 200.01C136.58 202.16 132.49 198.84 130.93 197.08C130.38 196.45 129.63 196.04 128.81 195.89C125.5 195.3 120.78 193.85 117.72 192.85C126.1 192.46 132.02 191.99 132.02 191.99C133.16 193.76 135.96 196.84 141.35 195.93C142.96 195.66 143.99 195 144.64 194.14C145.73 194.24 146.68 194.19 147.49 194.03C147.49 194.03 148.17 199.61 154.99 199.61C161.81 199.61 167.37 196.63 168.62 189.82C168.62 189.82 168.91 189.8 169.41 189.75Z" fill="black"/>
</g>
<g opacity="0.3">
<path d="M112.46 205.47C112.46 206.5 111.65 207.35 110.62 207.39L98.11 207.91C96.54 207.91 95.27 206.63 95.27 205.07C95.27 204.28 95.59 203.57 96.1 203.06C96.61 202.55 97.33 202.22 98.11 202.22L110.74 203.56C111.72 203.66 112.46 204.49 112.46 205.47Z" fill="#000566"/>
</g>
<g opacity="0.3">
<path d="M7.48993 221.95C7.48993 221.95 6.23996 221.54 4.95996 220.21C13.83 215.39 11.8099 199.68 11.8099 199.68C13.6999 199.7 15.0499 200.4 15.0499 200.4C15.0499 200.4 17.3699 217.8 7.48993 221.95Z" fill="#000566"/>
</g>
<g opacity="0.7">
<path d="M160.33 123.41C160.33 123.41 154.92 125.79 152.31 119.84C149.7 113.89 150.19 106.61 142.19 94.02C146.87 96.14 149.96 102.8 152.02 108.85C153.56 113.36 154.54 117.53 155.19 119.23C155.29 119.5 155.39 119.71 155.48 119.84C156.89 122.01 160.33 123.41 160.33 123.41Z" fill="white"/>
</g>
<g opacity="0.7">
<path d="M158.99 185.84C156.75 178.25 149.55 177.49 149.55 177.49C131.28 175.03 126.62 165.63 126.62 165.63C133.93 172.24 149.55 174.86 149.55 174.86C156.6 176.51 157.19 178.18 157.19 178.18C157.19 178.18 157.55 178.98 157.94 180.18C158.44 181.7 159 183.86 158.99 185.84Z" fill="white"/>
</g>
<g opacity="0.7">
<path d="M145.97 172.57C146.12 173.14 146.25 173.71 146.37 174.29C147.47 174.53 148.53 174.72 149.54 174.87C149.38 173.81 149.16 172.75 148.88 171.71C146.59 162.88 140.93 154.98 140.93 154.98C140.05 155.44 139.18 155.87 138.31 156.27C139.5 158.01 144 164.94 145.97 172.57Z" fill="white"/>
</g>
<g opacity="0.7">
<path d="M28.89 214.82C27.76 215.43 26.6899 216.06 25.6899 216.71C25.7899 216.66 25.8899 216.6 25.9899 216.55C48.9099 204.33 82.9899 222.64 74.6099 248.75C74.4299 249.31 74.16 249.82 73.8 250.27C74.96 250.09 75.9799 249.45 76.6999 248.55C77.0599 248.1 77.34 247.58 77.52 247.02C85.89 220.91 51.8 202.6 28.89 214.82Z" fill="white"/>
</g>
<g opacity="0.7">
<path d="M227.78 243.63C226.06 229.58 219.07 209.5 193.19 209.5C178.36 209.5 169.68 214 164.63 219.73C169.89 215.09 178.13 211.69 191 211.69C216.88 211.69 223.87 231.78 225.59 245.82C225.65 246.3 225.64 246.76 225.58 247.22C225.49 247.8 225.31 248.36 225.04 248.87C226.51 248.11 227.53 246.67 227.77 245.03C227.83 244.57 227.83 244.1 227.78 243.63Z" fill="white"/>
</g>
<g opacity="0.7">
<path d="M65.5701 171.87C71.4001 178.43 76.0801 192.75 76.3701 193.65C78.4801 193.22 79.8301 192.75 79.8301 192.75C79.8301 192.75 75.0401 177.7 69.0201 170.92C66.9001 168.53 64.6201 167.17 62.3601 167.87C61.7201 168.07 61.1301 168.33 60.5801 168.66C62.2701 168.86 63.9601 170.07 65.5701 171.87Z" fill="white"/>
</g>
<g opacity="0.7">
<path d="M167.28 162.23C166.96 161.98 166.63 161.81 166.28 161.69C165.27 161.34 164.19 161.5 163.32 162.03C163.42 162.09 163.52 162.16 163.62 162.24C168.77 166.2 176.11 173.92 179.79 187.36C176.08 188.46 171.23 189.15 168.1 189.51C168.44 189.7 168.62 189.83 168.62 189.83C168.62 189.83 177.52 189.12 183.45 187.36C179.77 173.91 172.43 166.2 167.28 162.23Z" fill="white"/>
</g>
<g opacity="0.7">
<path d="M224.14 203.15L224.11 202.91C209.77 189.28 183.46 187.36 183.46 187.36C177.52 189.12 168.63 189.83 168.63 189.83C173.36 192.42 183.89 191.24 183.89 191.24C185.46 191.33 187 191.48 188.51 191.69C189.34 191.8 190.09 192.23 190.63 192.87C191.95 194.43 195.76 196.36 200.48 197.71C204.63 198.9 208.42 199.33 210.59 199C211.26 198.9 211.95 199.02 212.56 199.32C217.44 201.78 220.32 203.83 220.32 203.83C220.32 203.83 221.85 203.41 224.14 203.15Z" fill="white"/>
</g>
<g opacity="0.7">
<path d="M242.44 211.14C240.07 204.76 233.94 203.1 228.73 202.94C228.73 202.94 228.9 203.58 229.32 204.66C233.74 205.32 238.21 207.37 240.15 212.6C241.23 215.52 241.47 218.2 241.19 220.59C241.75 221.03 242.32 221.46 242.93 221.87C243.82 218.86 243.97 215.24 242.44 211.14Z" fill="white"/>
</g>
<g opacity="0.7">
<path d="M56.7 189.73C34.53 189.84 20.27 198.55 15.22 202.25C15.15 201.11 15.0601 200.41 15.0601 200.41C27.1701 185.72 53.97 185.8 53.97 185.8C54.72 187.36 55.65 188.65 56.7 189.73Z" fill="white"/>
</g>
<g opacity="0.3">
<path d="M127.01 215.24C127.01 215.24 144.1 218.16 153.03 213.54C161.95 208.91 148.25 231.59 127.56 221.06C110.37 212.31 127.01 215.24 127.01 215.24Z" fill="white"/>
</g>
<g opacity="0.3">
<path d="M109.39 222.34C112.07 221.89 116.56 221.57 121.8 222.93C123.06 223.26 123.12 225.03 121.88 225.42C120.57 225.83 118.68 226.26 115.98 226.63C112.3 227.13 110.05 226.41 108.7 225.48C107.4 224.59 107.85 222.6 109.39 222.34Z" fill="white"/>
</g>
<path d="M127.52 150.68C127.12 151.85 126.63 153.08 126.04 154.3C124.41 157.61 120.18 158.59 117.27 156.34C116.19 155.51 115.21 154.63 114.34 153.75C114.34 153.75 116.44 151.24 120.49 150.3C124.54 149.36 127.52 150.68 127.52 150.68Z" fill="#FF4D96"/>
<path d="M4.96003 221.13C4.64003 221.13 4.31999 220.96 4.15999 220.65C3.91999 220.21 4.08004 219.65 4.53004 219.41C12.75 214.95 10.93 199.95 10.91 199.8C10.85 199.3 11.2 198.84 11.7 198.78C12.2 198.72 12.66 199.07 12.72 199.57C12.81 200.24 14.71 215.96 5.39003 221.02C5.26003 221.09 5.11003 221.13 4.96003 221.13Z" fill="#232323"/>
<path d="M123.43 162.95C121.25 163.43 119.14 163.77 116.98 164.06C114.83 164.34 112.67 164.55 110.5 164.68C108.33 164.81 106.16 164.85 103.98 164.8C101.8 164.74 99.6199 164.58 97.4499 164.31C95.2799 164.05 93.1199 163.6 90.9799 163.03C90.4499 162.87 89.91 162.75 89.3899 162.56L87.8199 162.03C86.7899 161.62 85.7499 161.22 84.7499 160.71L83.9999 160.34L83.27 159.92L82.54 159.5L82.18 159.29L81.8299 159.05L80.4399 158.1L79.1199 157.04C77.4099 155.56 75.91 153.84 74.66 151.95C74.39 151.54 74.3899 151.03 74.6199 150.63V150.62C74.8199 150.29 74.9899 150.08 75.1999 149.84C75.3999 149.61 75.6099 149.39 75.8299 149.18C76.2699 148.76 76.77 148.4 77.29 148.09C77.81 147.77 78.3899 147.54 78.9699 147.39C79.5599 147.23 80.1799 147.21 80.7599 147.27C80.9199 147.29 81.04 147.43 81.02 147.59C81.01 147.69 80.9499 147.77 80.8699 147.81L80.8399 147.83C80.3599 148.1 79.93 148.35 79.54 148.66C79.15 148.96 78.7899 149.28 78.4599 149.64C78.1299 149.99 77.83 150.37 77.56 150.75C77.42 150.95 77.29 151.14 77.16 151.34C77.03 151.52 76.8999 151.76 76.8199 151.9L76.79 150.58C77.9 152.26 79.2299 153.79 80.7599 155.11L81.9399 156.06L83.1999 156.92L83.5099 157.13L83.8399 157.32L84.4999 157.7L85.16 158.08L85.8499 158.41C86.7599 158.88 87.72 159.25 88.67 159.63L90.1399 160.13C90.6299 160.3 91.1299 160.42 91.6299 160.57C93.6299 161.11 95.6699 161.53 97.7499 161.78C99.8199 162.04 101.92 162.19 104.02 162.25C106.12 162.3 108.23 162.25 110.33 162.13C112.43 162.01 114.54 161.81 116.63 161.53C118.71 161.25 120.83 160.91 122.83 160.47L122.86 160.46C123.55 160.31 124.23 160.74 124.39 161.43C124.55 162.11 124.12 162.8 123.43 162.95Z" fill="#232323"/>
<path d="M76.2598 150.57C76.1098 150.45 72.6698 147.65 71.7598 144.02C71.6598 143.61 71.7598 143.18 72.0398 142.86C72.6398 142.17 74.2497 140 74.4497 138.24C74.4997 137.8 74.1497 135.9 73.8397 134.22C72.5797 127.37 70.5198 116.21 74.2598 109.86C72.8398 108.83 70.9898 106.54 71.1198 101.63L73.6798 101.7C73.5298 107.31 76.3998 108.15 76.4298 108.16C76.8598 108.26 77.1998 108.58 77.3498 109C77.4898 109.42 77.4098 109.88 77.1298 110.22C72.9598 115.33 75.1698 127.32 76.3598 133.77C76.8498 136.44 77.0898 137.76 76.9998 138.54C76.7498 140.75 75.2198 142.98 74.4298 144C75.3498 146.52 77.8498 148.57 77.8698 148.59L76.2598 150.57Z" fill="#232323"/>
<path d="M73.9497 128.28C73.6097 128.28 73.2798 128.15 73.0298 127.89C72.4398 127.27 58.5398 112.45 61.1798 84.78C61.2298 84.29 61.5498 83.87 62.0198 83.7C62.5298 83.51 74.7997 79.24 94.2397 87.67C94.8897 87.95 95.1898 88.7 94.9098 89.35C94.6298 90 93.8697 90.3 93.2297 90.02C77.3897 83.15 66.5398 85.14 63.6598 85.88C61.5098 111.78 74.7498 125.97 74.8898 126.11C75.3798 126.62 75.3597 127.43 74.8497 127.92C74.5897 128.17 74.2697 128.28 73.9497 128.28Z" fill="#232323"/>
<path d="M63.0994 83.8C64.9394 84.92 66.5794 86.12 68.2094 87.41C69.8294 88.69 71.3895 90.05 72.8695 91.5C73.6295 92.21 74.3295 92.97 75.0495 93.71C75.7395 94.48 76.4494 95.23 77.0994 96.04C78.4494 97.61 79.6494 99.31 80.8194 101.03L78.6795 101.02C78.9095 100.72 79.1595 100.44 79.4195 100.16C79.6795 99.88 79.9494 99.62 80.2294 99.36C80.5194 99.11 80.7894 98.84 81.0994 98.6C81.3994 98.35 81.7095 98.11 82.0395 97.9C82.1995 97.8 82.4095 97.84 82.5095 98C82.5695 98.09 82.5795 98.2 82.5495 98.29V98.3C82.4295 98.67 82.2995 99.02 82.1695 99.38C82.0395 99.74 81.8895 100.08 81.7595 100.43C81.6195 100.78 81.4695 101.12 81.3095 101.46C81.1495 101.79 80.9895 102.13 80.8095 102.44C80.4695 103.03 79.7195 103.23 79.1295 102.89C78.9695 102.8 78.8395 102.67 78.7395 102.53L78.6695 102.43C77.5595 100.8 76.4195 99.19 75.1295 97.69C74.5095 96.92 73.8295 96.2 73.1695 95.46C72.4795 94.75 71.8094 94.02 71.0794 93.34C69.6594 91.96 68.1694 90.65 66.6094 89.42C65.0694 88.2 63.4195 87.01 61.7995 86.02L61.7595 85.99C61.1595 85.62 60.9694 84.83 61.3294 84.23C61.7094 83.62 62.4894 83.43 63.0994 83.8Z" fill="#232323"/>
<path d="M74.7198 103.1C73.7598 103.07 72.8699 102.78 72.0299 102.34C71.1999 101.9 70.4399 101.3 69.7799 100.6C69.1199 99.9 68.5298 99.1 68.1198 98.22C67.6698 97.35 67.4198 96.4 67.2398 95.46C67.0998 94.79 67.5298 94.14 68.1998 94L68.2698 93.99H68.2999C68.6899 93.94 68.9798 93.91 69.3198 93.89C69.6398 93.87 69.9699 93.86 70.2899 93.86C70.9399 93.86 71.5798 93.9 72.2198 93.98C72.8598 94.05 73.5098 94.17 74.1398 94.34C74.7798 94.49 75.3998 94.72 76.0198 94.97C76.6798 95.23 76.9898 95.98 76.7298 96.63C76.4698 97.28 75.7298 97.6 75.0698 97.34L75.0098 97.32C74.5198 97.13 74.0198 96.94 73.4998 96.82C72.9798 96.69 72.4499 96.59 71.9099 96.52C71.3699 96.45 70.8199 96.42 70.2799 96.42C70.0099 96.42 69.7298 96.43 69.4598 96.44C69.1998 96.45 68.8998 96.48 68.6998 96.51L69.7598 95.04C69.8598 95.41 69.8998 95.79 70.0098 96.16C70.1298 96.52 70.1998 96.9 70.3598 97.24C70.6098 97.96 70.9699 98.63 71.3999 99.27C71.8199 99.92 72.3498 100.5 72.9398 101.05C73.5198 101.61 74.1598 102.14 74.8398 102.67L74.8598 102.69C74.9598 102.77 74.9799 102.92 74.8999 103.02C74.8699 103.07 74.7898 103.1 74.7198 103.1Z" fill="#232323"/>
<path d="M87.4897 92.39C88.5297 91.02 89.8296 89.98 91.2096 89.06C91.5496 88.83 91.9097 88.61 92.2697 88.41C92.6297 88.2 92.9797 87.99 93.3497 87.8C94.0697 87.4 94.8097 87.03 95.5597 86.68C97.0597 85.99 98.5897 85.35 100.16 84.85C101.73 84.32 103.33 83.92 104.95 83.6C105.64 83.47 106.32 83.92 106.45 84.61C106.58 85.26 106.19 85.88 105.58 86.08L105.53 86.1C104.78 86.34 104.02 86.54 103.27 86.77C102.52 87.01 101.76 87.22 101.02 87.48C99.5197 87.95 98.0597 88.51 96.5897 89.08C95.1297 89.66 93.6897 90.3 92.2797 90.98C90.8497 91.64 89.3997 92.3 87.8897 92.89L87.8697 92.9C87.6997 92.97 87.5096 92.88 87.4496 92.72C87.3996 92.59 87.4197 92.47 87.4897 92.39Z" fill="#232323"/>
<path d="M122.85 160.46C124.84 159.97 126.89 159.35 128.88 158.68C130.88 158 132.85 157.26 134.79 156.44C136.73 155.62 138.64 154.73 140.5 153.76C142.36 152.78 144.17 151.72 145.91 150.57C147.66 149.43 149.31 148.15 150.86 146.78C151.24 146.43 151.64 146.1 152 145.73L153.1 144.64C153.79 143.87 154.49 143.12 155.09 142.3L155.56 141.7L155.99 141.07L156.42 140.44L156.63 140.12L156.819 139.79L157.569 138.47L158.21 137.09C159 135.23 159.52 133.27 159.77 131.27L160.319 132.47C160.189 132.38 159.97 132.23 159.77 132.12C159.57 132 159.36 131.88 159.15 131.77C158.73 131.54 158.3 131.34 157.85 131.17C157.4 131 156.939 130.87 156.449 130.77C155.959 130.66 155.46 130.63 154.92 130.6H154.89C154.73 130.59 154.61 130.45 154.62 130.29C154.63 130.19 154.68 130.11 154.76 130.06C155.26 129.75 155.82 129.49 156.42 129.38C157.01 129.26 157.64 129.21 158.24 129.27C158.85 129.31 159.45 129.43 160.03 129.6C160.32 129.69 160.61 129.79 160.89 129.91C161.18 130.04 161.43 130.15 161.75 130.36C162.16 130.63 162.35 131.1 162.3 131.56C162.02 133.81 161.43 136.02 160.55 138.1L159.84 139.64L159.01 141.11L158.8 141.48L158.569 141.83L158.1 142.53L157.63 143.23L157.12 143.89C156.45 144.79 155.699 145.61 154.949 146.43L153.77 147.6C153.38 148 152.95 148.35 152.55 148.72C150.89 150.18 149.15 151.53 147.31 152.72C145.48 153.93 143.6 155.03 141.67 156.05C139.74 157.06 137.76 157.98 135.76 158.82C133.76 159.66 131.73 160.43 129.67 161.13C127.6 161.83 125.56 162.46 123.39 162.98C122.7 163.15 122.01 162.73 121.84 162.04C121.67 161.35 122.09 160.66 122.78 160.49L122.85 160.46Z" fill="#232323"/>
<path d="M160.27 131.01L157.95 129.93C157.96 129.9 159.3 126.96 159.01 124.29C157.85 123.72 155.49 122.4 154.29 120.53C153.87 119.87 153.49 118.58 152.76 115.97C150.98 109.66 147.67 97.92 141.67 95.19C141.27 95.01 140.99 94.63 140.93 94.19C140.87 93.75 141.04 93.32 141.38 93.04C141.45 92.97 143.59 90.96 141 86.03L143.26 84.84C145.55 89.19 144.9 92.06 144.08 93.61C150.25 97.65 153.33 108.58 155.22 115.28C155.68 116.92 156.21 118.78 156.45 119.16C157.41 120.66 159.81 121.89 160.65 122.24C161.04 122.4 161.33 122.74 161.41 123.16C162.19 126.8 160.35 130.84 160.27 131.01Z" fill="#232323"/>
<path d="M151.93 110.13C151.8 110.13 151.67 110.11 151.54 110.07C150.87 109.86 150.49 109.14 150.71 108.46C150.79 108.2 156.35 89.65 143.01 67.41C140.1 68.03 129.44 71.07 118.31 84.18C117.85 84.72 117.04 84.78 116.51 84.33C115.97 83.87 115.91 83.06 116.36 82.53C130.08 66.38 142.97 64.79 143.51 64.73C143.99 64.68 144.48 64.91 144.74 65.33C159.33 88.99 153.41 108.42 153.15 109.24C152.98 109.78 152.48 110.13 151.93 110.13Z" fill="#232323"/>
<path d="M144.72 66.71C143.7 68.31 142.75 70.1 141.91 71.88C141.06 73.67 140.29 75.5 139.63 77.37C139.28 78.3 139 79.25 138.69 80.19C138.43 81.14 138.13 82.09 137.92 83.06C137.43 84.98 137.11 86.93 136.84 88.88L136.82 88.99C136.72 89.66 136.1 90.12 135.43 90.03C135.25 90 135.07 89.93 134.93 89.83C134.63 89.63 134.34 89.4 134.05 89.17C133.76 88.94 133.48 88.7 133.2 88.45C132.92 88.19 132.64 87.95 132.36 87.69C132.08 87.43 131.81 87.17 131.54 86.89C131.41 86.75 131.41 86.54 131.55 86.41C131.63 86.33 131.73 86.3 131.83 86.32C132.23 86.37 132.61 86.45 132.99 86.54C133.37 86.62 133.73 86.74 134.11 86.84C134.48 86.95 134.84 87.07 135.19 87.2C135.54 87.33 135.89 87.47 136.23 87.64L134.31 88.59C134.6 86.53 134.93 84.48 135.45 82.47C135.67 81.46 135.98 80.47 136.26 79.47C136.58 78.49 136.87 77.49 137.24 76.53C137.93 74.58 138.73 72.67 139.61 70.8C140.5 68.92 141.45 67.13 142.6 65.31C142.98 64.71 143.77 64.54 144.37 64.92C144.97 65.3 145.14 66.09 144.76 66.69L144.72 66.71Z" fill="#232323"/>
<path d="M140.37 87.4C140.75 86.63 141.09 85.86 141.36 85.11C141.64 84.36 141.86 83.6 141.95 82.83C142.05 82.07 142.08 81.3 141.99 80.55C141.98 80.17 141.88 79.8 141.83 79.43C141.76 79.06 141.63 78.69 141.56 78.32L143.17 79.17C142.97 79.23 142.69 79.34 142.45 79.44C142.2 79.55 141.95 79.66 141.71 79.78C141.22 80.02 140.74 80.3 140.29 80.59C139.83 80.88 139.4 81.21 138.99 81.56C138.57 81.9 138.21 82.29 137.86 82.68L137.82 82.73C137.34 83.25 136.54 83.29 136.01 82.82C135.49 82.35 135.45 81.54 135.92 81.02C136.36 80.53 136.82 80.04 137.33 79.63C137.83 79.2 138.35 78.81 138.9 78.46C139.44 78.11 140 77.78 140.58 77.5C140.87 77.36 141.16 77.22 141.46 77.09C141.77 76.96 142.04 76.85 142.41 76.73L142.43 76.72C143.08 76.51 143.78 76.86 143.99 77.51C144 77.53 144.01 77.56 144.01 77.58C144.26 78.51 144.45 79.47 144.44 80.45C144.46 81.42 144.29 82.4 144 83.32C143.71 84.24 143.3 85.11 142.75 85.87C142.2 86.63 141.52 87.29 140.68 87.74C140.57 87.8 140.42 87.76 140.36 87.64C140.32 87.57 140.32 87.49 140.36 87.43L140.37 87.4Z" fill="#232323"/>
<path d="M124.36 84.39C122.74 84.53 121.15 84.58 119.58 84.62C118.01 84.63 116.44 84.7 114.87 84.82C113.31 84.96 111.74 85.11 110.19 85.34C109.41 85.43 108.64 85.59 107.86 85.7C107.09 85.83 106.31 85.98 105.53 86.1L105.48 86.11C104.78 86.22 104.13 85.74 104.02 85.04C103.92 84.39 104.33 83.78 104.95 83.61C106.54 83.18 108.16 82.83 109.8 82.61C111.43 82.36 113.09 82.26 114.74 82.22C115.57 82.21 116.39 82.21 117.22 82.25C117.63 82.26 118.05 82.29 118.46 82.32C118.87 82.34 119.28 82.38 119.69 82.43C121.33 82.64 122.96 83 124.5 83.78C124.66 83.86 124.73 84.06 124.64 84.22C124.59 84.32 124.49 84.39 124.38 84.4L124.36 84.39Z" fill="#232323"/>
<path d="M86.8297 129.97C86.6297 129.47 86.5097 128.98 86.4497 128.46C86.3797 127.95 86.3898 127.43 86.4298 126.9C86.5298 125.85 86.8797 124.78 87.4597 123.8C88.0297 122.83 88.8597 121.95 89.8197 121.33C90.7697 120.66 91.8298 120.28 92.8798 120C93.4198 119.88 93.9598 119.81 94.5098 119.74H95.3598H95.7798C95.9198 119.75 96.0697 119.77 96.2097 119.79L97.0598 119.93C97.3398 120.01 97.6198 120.1 97.8998 120.19C98.1798 120.27 98.4397 120.41 98.6997 120.54C98.9597 120.67 99.2097 120.8 99.4497 120.98C100.41 121.62 101.17 122.47 101.67 123.4C101.78 123.64 101.9 123.87 102 124.11C102.08 124.36 102.19 124.59 102.24 124.85C102.38 125.34 102.45 125.85 102.44 126.37C102.44 126.49 102.34 126.59 102.22 126.59C102.16 126.59 102.11 126.57 102.07 126.53L102.05 126.51C100.68 125.2 99.2897 124.25 97.9497 123.91C97.7897 123.85 97.6197 123.83 97.4497 123.8C97.2797 123.77 97.1297 123.72 96.9497 123.72C96.7797 123.71 96.6197 123.7 96.4597 123.67L95.9497 123.69H95.6997L95.4397 123.72L94.9198 123.78C94.5698 123.85 94.2098 123.92 93.8598 124C93.1598 124.2 92.4698 124.4 91.8798 124.72C91.5598 124.85 91.2998 125.06 90.9998 125.22C90.8598 125.31 90.7397 125.43 90.5997 125.53C90.4497 125.62 90.3297 125.75 90.1997 125.87C89.1497 126.8 88.2897 128.23 87.5897 129.92L87.5697 129.97C87.4897 130.17 87.2498 130.27 87.0498 130.18C86.9498 130.15 86.8697 130.07 86.8297 129.97Z" fill="#0C0C0C"/>
<path d="M140.42 118.3C139.04 117.1 137.64 116.19 136.28 115.82C136.11 115.77 135.95 115.71 135.78 115.69C135.61 115.67 135.45 115.61 135.28 115.59C134.94 115.58 134.61 115.5 134.27 115.53C133.6 115.5 132.89 115.63 132.18 115.76C131.83 115.84 131.48 115.94 131.13 116.03L130.64 116.21L130.39 116.29L130.17 116.4L129.71 116.61C129.58 116.7 129.43 116.79 129.29 116.87C129.13 116.94 129.02 117.06 128.88 117.16C128.74 117.26 128.59 117.35 128.48 117.48C127.42 118.38 126.59 119.84 125.94 121.62L125.93 121.64C125.89 121.75 125.76 121.81 125.65 121.77C125.6 121.75 125.55 121.71 125.53 121.66C125.29 121.19 125.13 120.71 125.04 120.2C124.98 119.95 124.97 119.69 124.93 119.43C124.91 119.17 124.92 118.91 124.91 118.64C124.95 117.58 125.25 116.48 125.83 115.49C125.96 115.23 126.13 115 126.31 114.77C126.49 114.54 126.66 114.3 126.87 114.11C127.07 113.9 127.28 113.7 127.5 113.51L128.2 113.01C128.32 112.93 128.44 112.84 128.56 112.77L128.94 112.58L129.7 112.21C130.22 112.03 130.74 111.85 131.27 111.72C132.34 111.51 133.46 111.38 134.6 111.56C135.73 111.69 136.86 112.11 137.81 112.73C138.76 113.35 139.55 114.16 140.1 115.06C140.37 115.52 140.61 115.98 140.77 116.47C140.95 116.96 141.05 117.45 141.1 117.99C141.12 118.21 140.96 118.4 140.74 118.42C140.63 118.43 140.53 118.39 140.45 118.33L140.42 118.3Z" fill="#0C0C0C"/>
<path d="M116.4 132.78C116.4 132.78 113.48 133.46 111.63 134.64C110.94 135.08 110.72 136 111.17 136.69C112.13 138.17 114.26 140.48 118 139.61C121.73 138.74 122.63 135.73 122.83 133.97C122.92 133.15 122.32 132.43 121.51 132.34C119.32 132.1 116.4 132.78 116.4 132.78Z" fill="#232323"/>
<path d="M108.42 147.23L117.03 144.76L118.66 141.7L125.69 143.4L129.18 143.22L128.44 146.6L127.22 149.9L124.49 150.01L118.8 150.33L115.55 152.64L114.33 152.78L111.76 149.97L108.42 147.23Z" fill="#232323"/>
<path d="M118.98 138.19L119.32 139.63L119.4 139.99C119.43 140.1 119.44 140.15 119.46 140.23C119.51 140.37 119.57 140.51 119.65 140.64C119.81 140.9 120.02 141.11 120.27 141.27C120.33 141.31 120.4 141.34 120.46 141.38L120.57 141.43L120.72 141.49C120.93 141.57 121.14 141.64 121.35 141.71C123.04 142.27 124.84 142.35 126.52 141.96C127.36 141.76 128.19 141.47 128.96 141.05L129.54 140.75L130.06 140.39C130.25 140.28 130.39 140.14 130.54 140L130.78 139.8C130.86 139.73 130.91 139.65 130.98 139.58C131.53 138.99 131.88 138.3 132.14 137.51C132.4 136.72 132.49 135.8 132.49 134.78V134.76C132.49 134.68 132.56 134.62 132.63 134.62C132.67 134.62 132.7 134.64 132.73 134.66C133.13 135.05 133.41 135.53 133.61 136.05C133.72 136.31 133.78 136.58 133.85 136.86C133.88 137.14 133.94 137.43 133.92 137.72C133.94 138.89 133.46 140.08 132.75 141.01C132.66 141.13 132.58 141.25 132.48 141.36L132.18 141.67C131.98 141.88 131.78 142.1 131.55 142.26L130.88 142.78L130.17 143.22C129.22 143.78 128.19 144.2 127.1 144.45C124.93 144.97 122.64 144.78 120.57 144.12C120.31 144.04 120.05 143.95 119.8 143.85L119.61 143.78L119.38 143.68C119.22 143.61 119.07 143.52 118.92 143.43C118.33 143.07 117.83 142.56 117.47 141.98C117.29 141.69 117.14 141.37 117.03 141.05C116.97 140.9 116.93 140.7 116.89 140.57L116.8 140.21L116.47 138.76C116.31 138.07 116.74 137.38 117.43 137.23C118.13 137.08 118.81 137.51 118.98 138.19Z" fill="#232323"/>
<path d="M120.81 158.84C119.26 158.84 117.739 158.33 116.479 157.36C111.069 153.19 108.079 147.86 107.959 147.63C107.619 147.01 107.839 146.23 108.459 145.89C109.079 145.55 109.859 145.77 110.199 146.39C110.229 146.44 113.069 151.5 118.039 155.33C119.129 156.17 120.509 156.47 121.839 156.16C123.169 155.85 124.279 154.97 124.879 153.74C127.649 148.1 127.969 142.31 127.969 142.25C128.009 141.54 128.61 140.99 129.31 141.03C130.02 141.06 130.559 141.66 130.529 142.37C130.519 142.63 130.19 148.73 127.18 154.86C126.23 156.78 124.5 158.16 122.42 158.65C121.89 158.78 121.35 158.84 120.81 158.84Z" fill="#232323"/>
<path d="M114.329 154.67C114.119 154.67 113.919 154.6 113.739 154.46C113.349 154.14 113.299 153.56 113.629 153.17C113.719 153.06 115.969 150.42 120.269 149.41C120.759 149.3 121.249 149.6 121.369 150.09C121.479 150.58 121.179 151.07 120.689 151.19C116.979 152.05 115.049 154.31 115.029 154.34C114.849 154.56 114.589 154.67 114.329 154.67Z" fill="#232323"/>
<path d="M127.52 151.6C127.4 151.6 127.27 151.58 127.15 151.52C127.11 151.5 124.35 150.34 120.68 151.19C120.19 151.31 119.7 151 119.58 150.51C119.47 150.02 119.77 149.53 120.26 149.41C124.56 148.41 127.75 149.79 127.88 149.84C128.34 150.04 128.55 150.58 128.35 151.05C128.21 151.4 127.87 151.6 127.52 151.6Z" fill="#232323"/>
<path d="M118.98 138.19L119.32 139.63L119.4 139.99C119.43 140.12 119.47 140.32 119.49 140.48C119.53 140.82 119.54 141.17 119.51 141.51C119.44 142.2 119.22 142.87 118.85 143.46C118.76 143.61 118.66 143.75 118.55 143.88L118.39 144.07L118.25 144.22C118.07 144.42 117.87 144.61 117.68 144.8C116.11 146.3 114.15 147.48 111.97 147.98C110.89 148.23 109.77 148.31 108.67 148.23L107.84 148.15L107.01 147.98C106.73 147.93 106.46 147.83 106.19 147.73L105.78 147.58C105.65 147.53 105.52 147.45 105.38 147.38C104.33 146.87 103.37 146.01 102.87 144.95C102.72 144.7 102.65 144.41 102.56 144.14C102.5 143.86 102.43 143.59 102.41 143.31C102.36 142.75 102.39 142.2 102.58 141.67C102.61 141.59 102.69 141.56 102.76 141.58C102.8 141.59 102.83 141.62 102.84 141.65L102.85 141.67C103.31 142.58 103.79 143.37 104.37 143.97C104.95 144.56 105.57 145.02 106.32 145.31C106.41 145.34 106.5 145.39 106.6 145.42L106.9 145.49C107.1 145.54 107.29 145.6 107.5 145.62L108.13 145.71L108.78 145.73C109.65 145.77 110.53 145.66 111.37 145.47C113.05 145.08 114.63 144.21 115.9 142.96C116.06 142.81 116.22 142.65 116.36 142.48L116.47 142.36L116.55 142.27C116.6 142.21 116.64 142.15 116.68 142.09C116.83 141.84 116.93 141.55 116.96 141.25C116.97 141.1 116.97 140.95 116.95 140.8C116.94 140.72 116.93 140.67 116.9 140.56L116.81 140.2L116.48 138.75C116.32 138.06 116.75 137.37 117.44 137.22C118.13 137.08 118.81 137.51 118.98 138.19Z" fill="#232323"/>
<path d="M87.2698 193.75C84.5398 179.91 89.1298 162.02 89.3298 161.27L91.8099 161.92C91.7599 162.1 87.1698 180 89.7798 193.26L87.2698 193.75Z" fill="#232323"/>
<path d="M126.74 165.5C129.21 166.85 131.59 168.15 134.04 169.35C136.48 170.55 139.07 171.44 141.7 172.07C142.36 172.22 143.02 172.39 143.69 172.49C144.36 172.61 145.01 172.73 145.72 172.84C146.42 172.96 147.12 173.06 147.82 173.2C148.52 173.33 149.22 173.47 149.92 173.63C151.32 173.94 152.71 174.31 154.11 174.81C154.46 174.93 154.81 175.08 155.16 175.21C155.51 175.37 155.86 175.51 156.21 175.71C156.56 175.89 156.91 176.09 157.27 176.35C157.45 176.47 157.63 176.63 157.82 176.79C157.92 176.88 158.01 176.98 158.11 177.1L158.27 177.31C158.3 177.34 158.33 177.41 158.36 177.46L158.41 177.54C158.43 177.58 158.47 177.67 158.49 177.73L158.45 177.62C158.79 178.38 159.04 179.09 159.29 179.84C159.53 180.58 159.75 181.34 159.93 182.11C160.28 183.66 160.52 185.27 160.29 187.03C160.17 187.9 159.91 188.82 159.37 189.67C158.84 190.52 157.99 191.22 157.09 191.59C156.98 191.64 156.87 191.69 156.75 191.73L156.41 191.83C156.18 191.89 155.95 191.97 155.73 191.99L155.06 192.09L154.41 192.11C154.19 192.12 153.98 192.12 153.77 192.1L153.14 192.06C152.73 192.01 152.33 191.94 151.93 191.88C151.23 191.78 150.75 191.13 150.85 190.43C150.95 189.75 151.57 189.27 152.25 189.34L152.37 189.35C152.71 189.39 153.04 189.44 153.37 189.46C153.69 189.46 154.03 189.51 154.34 189.47C154.98 189.46 155.55 189.33 156.02 189.13C156.49 188.92 156.84 188.63 157.09 188.21C157.35 187.8 157.51 187.25 157.59 186.65C157.74 185.44 157.55 184.05 157.25 182.7C156.95 181.35 156.48 179.95 155.96 178.7L155.92 178.59C155.93 178.63 155.96 178.7 155.98 178.72L155.99 178.74L156.01 178.78L155.94 178.71C155.86 178.64 155.79 178.57 155.67 178.49C155.46 178.34 155.21 178.18 154.94 178.04C154.68 177.89 154.38 177.77 154.1 177.63C153.8 177.51 153.51 177.38 153.2 177.27C151.97 176.8 150.66 176.44 149.34 176.11C148.68 175.94 148.01 175.79 147.34 175.65C146.67 175.5 145.99 175.38 145.32 175.25C144.66 175.13 143.93 174.98 143.23 174.83C142.52 174.7 141.83 174.5 141.13 174.32C138.36 173.55 135.66 172.5 133.13 171.14C131.85 170.49 130.64 169.7 129.51 168.81C128.94 168.37 128.41 167.88 127.9 167.38C127.39 166.87 126.91 166.33 126.5 165.72C126.44 165.63 126.47 165.52 126.55 165.46C126.6 165.47 126.67 165.47 126.74 165.5Z" fill="#232323"/>
<path d="M151.92 182.08C152.7 183.4 153.14 184.85 153.36 186.38C153.57 187.91 153.5 189.53 152.91 191.16C152.63 191.97 152.15 192.76 151.54 193.45C150.93 194.14 150.13 194.68 149.3 195.02C147.62 195.69 145.89 195.7 144.36 195.42C143.66 195.29 143.2 194.62 143.33 193.93C143.44 193.31 143.98 192.88 144.58 192.88H144.62C145.93 192.87 147.17 192.75 148.16 192.32C149.15 191.91 149.85 191.18 150.35 190.13C150.85 189.09 151.07 187.79 151.22 186.45C151.38 185.1 151.41 183.69 151.48 182.23V182.22C151.49 182.09 151.6 181.98 151.73 181.99C151.81 181.96 151.88 182.01 151.92 182.08Z" fill="#232323"/>
<path d="M144.34 185C145.04 185.87 145.59 186.84 146.02 187.88C146.45 188.92 146.75 190.05 146.8 191.28C146.82 191.89 146.78 192.54 146.61 193.19C146.44 193.84 146.15 194.5 145.73 195.08C144.87 196.27 143.53 196.97 142.31 197.3C141.68 197.47 141.09 197.53 140.5 197.6C140.35 197.62 140.2 197.64 140.05 197.65H139.59H138.67C137.44 197.54 136.2 197.25 135.06 196.71C133.93 196.14 132.92 195.38 132.11 194.46C131.9 194.24 131.72 193.99 131.53 193.75C131.35 193.51 131.19 193.25 131.02 192.99C130.87 192.73 130.71 192.47 130.58 192.19C130.44 191.91 130.33 191.66 130.2 191.29L131.56 192.09C130.04 192.33 128.63 192.4 127.15 192.4C125.69 192.39 124.23 192.29 122.78 192.09C121.33 191.89 119.88 191.59 118.47 191.16C117.05 190.74 115.67 190.19 114.34 189.5C113.01 188.82 111.74 188.01 110.59 187.03C109.44 186.07 108.37 184.98 107.49 183.77C107.38 183.62 107.26 183.47 107.15 183.32L106.85 182.85C106.65 182.53 106.45 182.22 106.27 181.89C105.94 181.22 105.6 180.56 105.37 179.85C104.85 178.47 104.6 177 104.55 175.55C104.54 175.38 104.68 175.24 104.85 175.23C104.97 175.23 105.08 175.29 105.13 175.39V175.4C106.49 177.9 107.76 180.22 109.45 182.22C110.27 183.24 111.23 184.12 112.26 184.91C113.3 185.69 114.41 186.39 115.59 186.94C116.77 187.5 118.01 187.97 119.28 188.35C120.55 188.73 121.86 188.99 123.18 189.2C124.5 189.4 125.84 189.53 127.19 189.59C127.86 189.61 128.54 189.64 129.21 189.63C129.87 189.62 130.58 189.61 131.18 189.56L131.3 189.55C131.86 189.5 132.37 189.85 132.55 190.36C132.63 190.48 132.76 190.7 132.88 190.88C133.01 191.07 133.14 191.25 133.28 191.43C133.57 191.78 133.87 192.12 134.19 192.42C134.84 193.02 135.56 193.53 136.34 193.88C137.12 194.23 137.97 194.41 138.84 194.5L139.51 194.51L139.85 194.52C139.96 194.52 140.08 194.5 140.19 194.49C140.65 194.45 141.12 194.42 141.51 194.33C141.91 194.24 142.29 194.12 142.6 193.95C142.92 193.79 143.19 193.59 143.41 193.33C143.85 192.83 144.14 192.09 144.26 191.2C144.5 189.41 144.18 187.32 143.81 185.25V185.23C143.78 185.08 143.88 184.93 144.03 184.91C144.17 184.88 144.27 184.92 144.34 185Z" fill="#232323"/>
<path d="M79.8298 194.04C79.2898 194.04 78.7799 193.69 78.6099 193.15C75.3599 182.97 68.1798 167.44 62.7298 169.1C55.0598 171.45 55.2499 185.62 55.2499 185.76C55.2599 186.47 54.6999 187.05 53.9999 187.07C53.9899 187.07 53.9798 187.07 53.9698 187.07C53.2798 187.07 52.6998 186.51 52.6898 185.82C52.6798 185.16 52.4698 169.57 61.9798 166.66C71.6098 163.71 80.1099 189.43 81.0499 192.38C81.2599 193.05 80.8898 193.77 80.2198 193.99C80.0898 194.02 79.9598 194.04 79.8298 194.04Z" fill="#232323"/>
<path d="M86.4399 193.76C82.9599 176.43 78.07 168.35 74.65 166.57C74.03 166.25 73.49 166.16 73.13 166.31C70.79 167.33 70.29 171.06 70.29 171.09L67.75 170.78C67.78 170.57 68.43 165.57 72.11 163.96C72.88 163.63 74.15 163.41 75.84 164.29C78.29 165.57 84.48 170.95 88.96 193.25L86.4399 193.76Z" fill="#232323"/>
<path d="M7.48996 223.23C7.34996 223.23 7.22 223.21 7.09 223.17C6.79 223.07 -0.170007 220.65 1.14999 210C1.47999 207.36 2.39 204.92 3.78 202.95C7.33 197.93 12.02 197.96 14.69 198.86C27.15 184.74 52.35 184.51 53.93 184.51C53.95 184.51 53.9599 184.51 53.9699 184.51C54.4599 184.51 54.9 184.79 55.12 185.23C61.13 197.64 79.23 191.61 79.41 191.55C79.58 191.49 79.7599 191.47 79.9399 191.49C100.05 193.22 131.61 190.75 131.92 190.72C132.63 190.67 133.24 191.19 133.3 191.89C133.36 192.59 132.83 193.21 132.13 193.27C131.81 193.3 100.31 195.77 79.9799 194.06C77.59 194.8 60.0499 199.7 53.1999 187.09C48.8299 187.22 26.99 188.51 16.4 200.81C16.72 204 17.71 219.05 7.99997 223.14C7.82997 223.2 7.65996 223.23 7.48996 223.23ZM11.78 200.97C10.08 200.97 7.82996 201.64 5.86996 204.43C4.71996 206.06 3.96997 208.09 3.68997 210.32C2.80997 217.46 6.23995 219.91 7.47995 220.56C14.7399 216.96 14.14 204.47 13.86 201.31C13.38 201.14 12.65 200.97 11.78 200.97Z" fill="#232323"/>
<path d="M10.5299 250.7H5.41985C4.86985 250.7 4.37989 250.35 4.20989 249.82C0.15989 237.66 3.21984 220.31 3.34984 219.58C3.47984 218.89 4.13989 218.42 4.83989 218.55C5.53989 218.68 5.99986 219.34 5.86986 220.04C5.83986 220.21 2.93985 236.63 6.35985 248.14H10.5299C11.2399 248.14 11.8099 248.71 11.8099 249.42C11.8099 250.13 11.2399 250.7 10.5299 250.7Z" fill="#232323"/>
<path d="M13.9499 252.78C13.0699 252.78 12.1999 252.5 11.4499 251.96C10.4499 251.24 9.77991 250.12 9.61991 248.9C8.87991 243.37 8.03994 224.48 28.2799 213.69C34.7499 210.24 42.3099 208.97 50.1299 210.01C57.4799 210.99 64.4799 214.01 69.8499 218.49C78.9499 226.08 82.1799 236.62 78.7199 247.4C78.0199 249.57 76.1499 251.19 73.9599 251.53C72.3699 251.78 71.3499 251.28 70.7699 250.82C69.8199 250.07 69.2799 248.84 69.1399 247.16C68.5999 240.36 64.8399 224.55 41.7299 224.55C34.8699 224.55 29.3599 226.59 25.3499 230.62C18.1199 237.88 18.0899 249.29 18.0899 249.4C18.0899 249.53 18.0699 249.67 18.0299 249.8C17.7399 250.7 16.7299 252.31 14.7399 252.69C14.4799 252.76 14.2099 252.78 13.9499 252.78ZM44.9499 212.26C39.5099 212.26 34.1499 213.47 29.4899 215.95C11.2199 225.69 11.2799 242 12.1599 248.57C12.2299 249.1 12.5199 249.58 12.9499 249.89C13.3399 250.17 13.8099 250.28 14.2699 250.19C15.0299 250.04 15.4099 249.44 15.5399 249.16C15.5799 247.27 16.1099 236.31 23.5299 228.84C28.0399 224.3 34.1699 222 41.7399 222C66.9799 222 71.0999 239.46 71.6999 246.96C71.7699 247.88 72.0099 248.54 72.3599 248.82C72.6199 249.03 73.0299 249.09 73.5699 249C74.8199 248.81 75.8799 247.87 76.2799 246.62C79.3999 236.88 76.4599 227.34 68.2099 220.45C61.7699 215.08 53.2699 212.26 44.9499 212.26Z" fill="#232323"/>
<path d="M43.3099 266.1C31.2199 266.1 20.1698 258.53 15.7998 247.26L18.1898 246.33C22.1798 256.62 32.2699 263.53 43.3099 263.53C55.1799 263.53 65.5098 255.93 69.0298 244.61L71.4698 245.37C67.6198 257.78 56.2999 266.1 43.3099 266.1Z" fill="#232323"/>
<path d="M43.31 251.68C36.21 251.68 30.4299 245.9 30.4299 238.8C30.4299 231.7 36.21 225.92 43.31 225.92C50.41 225.92 56.1899 231.7 56.1899 238.8C56.1899 245.91 50.41 251.68 43.31 251.68ZM43.31 228.49C37.62 228.49 32.9899 233.12 32.9899 238.81C32.9899 244.5 37.62 249.13 43.31 249.13C49 249.13 53.6299 244.5 53.6299 238.81C53.6299 233.12 49 228.49 43.31 228.49Z" fill="#232323"/>
<path d="M192.9 251.68C185.8 251.68 180.02 245.9 180.02 238.8C180.02 231.7 185.8 225.92 192.9 225.92C200 225.92 205.78 231.7 205.78 238.8C205.78 245.91 200 251.68 192.9 251.68ZM192.9 228.49C187.21 228.49 182.58 233.12 182.58 238.81C182.58 244.5 187.21 249.13 192.9 249.13C198.59 249.13 203.22 244.5 203.22 238.81C203.22 233.12 198.59 228.49 192.9 228.49Z" fill="#232323"/>
<path d="M154.98 200.9C148.69 200.9 146.49 196.51 146.21 194.19C146.12 193.49 146.62 192.85 147.33 192.76C148.03 192.68 148.66 193.17 148.75 193.87C148.81 194.33 149.53 198.34 154.98 198.34C158.84 198.34 165.42 197.29 167.17 190.45C165.84 189.73 162.77 188.33 158.88 188.28C158.17 188.27 157.61 187.69 157.62 186.98C157.63 186.27 158.21 185.69 158.92 185.72C164.95 185.8 169.17 188.64 169.35 188.77C169.77 189.06 169.98 189.56 169.89 190.06C168.61 196.95 163.18 200.9 154.98 200.9Z" fill="#232323"/>
<path d="M224.11 204.19C223.79 204.19 223.48 204.07 223.23 203.84C210.07 191.33 186.16 188.88 183.59 188.65C177.6 190.38 169.09 191.07 168.73 191.1C168.01 191.16 167.41 190.63 167.35 189.93C167.29 189.23 167.82 188.61 168.52 188.55C168.61 188.54 177.35 187.83 183.09 186.13C183.24 186.09 183.39 186.07 183.55 186.08C184.64 186.16 210.49 188.19 224.99 201.99C225.5 202.48 225.52 203.29 225.04 203.8C224.78 204.06 224.44 204.19 224.11 204.19Z" fill="#232323"/>
<path d="M183.45 188.63C182.89 188.63 182.37 188.26 182.22 187.69C178.68 174.76 171.72 167.26 166.51 163.24C165.82 162.71 164.95 162.63 164.17 163.01C163.38 163.4 162.91 164.15 162.91 165.02V187.23C162.91 187.94 162.34 188.51 161.63 188.51C160.92 188.51 160.35 187.94 160.35 187.23V165.02C160.35 163.18 161.38 161.52 163.03 160.71C164.68 159.9 166.61 160.09 168.06 161.21C173.59 165.47 180.96 173.4 184.68 187.01C184.87 187.69 184.47 188.4 183.78 188.58C183.68 188.62 183.56 188.63 183.45 188.63Z" fill="#232323"/>
<path d="M236.25 232.95C235.97 232.95 235.69 232.86 235.45 232.67C219.49 219.98 219.03 204.48 219.02 203.83C219.01 203.24 219.4 202.72 219.98 202.57C220.17 202.52 238.86 197.79 243.64 210.69C248.54 223.9 237.13 232.61 237.01 232.69C236.79 232.87 236.52 232.95 236.25 232.95ZM221.67 204.82C222.07 208.32 224.27 220.06 236.24 230.01C238.51 227.97 244.82 221.21 241.24 211.58C237.85 202.43 225.38 204.11 221.67 204.82Z" fill="#232323"/>
<path d="M242.93 223.16C242.68 223.16 242.42 223.09 242.2 222.93C230.75 215 227.62 203.75 227.49 203.27C227.31 202.59 227.71 201.89 228.39 201.7C229.07 201.52 229.77 201.92 229.96 202.6C230 202.75 233.03 213.46 243.65 220.82C244.23 221.22 244.38 222.02 243.97 222.6C243.73 222.97 243.34 223.16 242.93 223.16Z" fill="#232323"/>
<path d="M228.1 246.35C227.56 246.35 227.05 246 226.88 245.45C226.67 244.78 227.04 244.06 227.72 243.85C237.57 240.75 236.6 230.82 236.55 230.4C236.47 229.7 236.98 229.07 237.68 228.99C238.37 228.91 239.01 229.42 239.09 230.12C239.1 230.24 240.32 242.57 228.48 246.29C228.36 246.34 228.23 246.35 228.1 246.35Z" fill="#232323"/>
<path d="M222.63 250.71C221.18 250.71 219.79 250.21 218.64 249.27C217.29 248.17 216.44 246.55 216.29 244.82C215.71 238.12 212.14 222.54 191.57 222.54C184.42 222.54 178.92 224.43 175.22 228.15C170.32 233.08 169.64 240.22 169.67 244.04C169.68 245.99 168.81 247.81 167.27 249.02C165.8 250.18 163.93 250.6 162.13 250.15C160.32 249.7 157.93 248.24 156.81 243.8C156.8 243.77 156.79 243.73 156.79 243.7C156.7 243.13 154.57 229.56 163.32 219.24C169.54 211.91 179.58 208.19 193.18 208.19C220.62 208.19 227.43 230.28 229.04 243.45C229.46 246.84 227.19 249.97 223.87 250.57C223.7 250.6 223.53 250.63 223.35 250.65C223.12 250.7 222.87 250.71 222.63 250.71ZM191.57 219.99C201.4 219.99 208.81 223.27 213.57 229.75C217.51 235.1 218.56 241.36 218.85 244.61C218.94 245.67 219.45 246.62 220.27 247.3C221.07 247.95 222.07 248.25 223.08 248.13C223.2 248.12 223.32 248.1 223.44 248.08C225.42 247.72 226.78 245.83 226.52 243.78C224.67 228.72 217.4 210.77 193.2 210.77C180.4 210.77 171.02 214.18 165.31 220.89C157.57 230 159.2 242.38 159.33 243.25C159.98 245.79 161.13 247.28 162.76 247.68C163.78 247.93 164.85 247.69 165.7 247.02C166.61 246.3 167.13 245.22 167.12 244.06C167.09 239.85 167.87 231.94 173.42 226.35C177.6 222.13 183.71 219.99 191.57 219.99Z" fill="#232323"/>
<path d="M192.8 265.22C180.89 265.22 170.26 257.23 166.96 245.8L169.42 245.09C172.4 255.43 182.02 262.66 192.8 262.66C203.91 262.66 213.6 255.16 216.36 244.41L218.84 245.05C215.79 256.93 205.08 265.22 192.8 265.22Z" fill="#232323"/>
<path d="M111.64 251.24C92.4301 251.24 76.8601 249.85 76.5801 249.83L76.8102 247.28C77.3102 247.33 127.41 251.78 158.6 244.58L159.18 247.07C145.05 250.33 127.16 251.24 111.64 251.24Z" fill="#232323"/>
<path d="M93.18 249.99C86.13 226.32 91.19 194.45 91.41 193.1L93.9399 193.51C93.8899 193.83 88.75 226.15 95.63 249.25L93.18 249.99Z" fill="#232323"/>
<path d="M98.79 206.31C96.86 206.31 95.3101 204.77 95.3101 202.87C95.3101 200.97 96.85 199.43 98.75 199.43C98.78 199.43 98.81 199.43 98.85 199.43L110.08 200.62C111.42 200.76 112.43 201.88 112.43 203.23C112.43 204.64 111.33 205.79 109.92 205.85L98.79 206.31ZM98.71 201.26C97.84 201.28 97.14 202 97.14 202.87C97.14 203.76 97.86 204.48 98.75 204.48L109.83 204.02C110.26 204 110.59 203.65 110.59 203.23C110.59 202.82 110.28 202.48 109.88 202.44L98.71 201.26Z" fill="#232323"/>
<path d="M148.28 175.06C146.82 165.48 139.96 155.81 139.89 155.72L141.97 154.23C142.27 154.64 149.26 164.48 150.81 174.68L148.28 175.06Z" fill="#232323"/>
<path d="M149.29 172.92L148.48 170.49C153.11 168.95 157.81 166.1 160.94 163.97L162.38 166.09C157.63 169.31 153.22 171.61 149.29 172.92Z" fill="#232323"/>
<path d="M167.08 162.67L165.5 160.66C166.26 160.07 166.68 159.71 166.69 159.7C166.88 159.54 167.12 159.43 167.37 159.41C174.26 158.63 178.51 156.84 179.34 154.37C180.13 152.01 177.74 149.07 176.75 148.14C176.37 147.78 176.24 147.23 176.43 146.74C177.67 143.55 177.8 141.27 176.81 140.15C175.49 138.67 172.22 139.12 171.07 139.41C170.7 139.51 170.31 139.43 170 139.21C169.69 138.99 169.5 138.64 169.47 138.27C169.28 135.79 168.56 134.19 167.31 133.52C165.03 132.29 161.44 134.22 161.41 134.24L160.17 132C160.37 131.89 165 129.37 168.53 131.27C170.3 132.22 171.41 134.04 171.86 136.67C173.72 136.42 176.87 136.37 178.72 138.45C180.32 140.25 180.45 143.09 179.11 146.91C180.35 148.29 182.93 151.71 181.78 155.18C180.59 158.76 176.1 160.96 168.05 161.92C167.83 162.07 167.51 162.34 167.08 162.67Z" fill="#232323"/>
</svg>
