<svg width="518" height="179" viewBox="0 0 518 179" fill="none" xmlns="http://www.w3.org/2000/svg">
<path d="M501.267 3H90.2235C82.8399 3 76.8542 8.98561 76.8542 16.3692V162.521C76.8542 169.905 82.8399 175.89 90.2235 175.89H501.267C508.651 175.89 514.636 169.905 514.636 162.521V16.3692C514.636 8.98561 508.651 3 501.267 3Z" fill="#232323" stroke="#232323" stroke-width="5.06" stroke-linecap="round" stroke-linejoin="round"/>
<path d="M200.796 84.1655L194.165 71.0321H189.86V82.7976C189.86 84.5092 188.492 85.8771 186.847 85.8771H177.548C175.837 85.8771 174.469 84.5092 174.469 82.7976V41.012C174.469 39.3678 175.837 37.9999 177.548 37.9999H194.711C207.979 37.9999 214.954 44.0848 214.954 55.1629C214.954 61.2478 212.494 65.4189 208.182 68.02L216.8 83.1345C217.481 84.3677 216.598 85.8704 215.23 85.8704H203.539C202.373 85.8704 201.281 85.1898 200.803 84.1588L200.796 84.1655ZM189.853 58.795H194.711C197.926 58.795 199.428 57.6292 199.428 55.1696C199.428 52.7101 197.926 51.4769 194.711 51.4769H189.853V58.795Z" fill="#FF0086"/>
<path d="M269.111 61.9419C269.111 76.0996 258.235 86.7667 243.876 86.7667C229.516 86.7667 218.64 76.0996 218.64 61.9419C218.64 47.7843 229.516 37.1846 243.876 37.1846C258.235 37.1846 269.111 47.8517 269.111 61.9419ZM253.727 61.9419C253.727 56.2007 249.556 52.0969 243.882 52.0969C238.209 52.0969 234.037 56.2007 234.037 61.9419C234.037 67.6831 238.209 71.7869 243.882 71.7869C249.556 71.7869 253.727 67.7505 253.727 61.9419Z" fill="#FF0086"/>
<path d="M310.553 70.6279C310.553 79.179 304.327 86.6992 291.267 86.6992C283.127 86.6992 274.583 84.0982 271.571 76.5106C271.025 75.1427 271.705 73.7074 273.073 73.2289L281.416 70.702C282.44 70.3583 283.538 70.7694 284.152 71.6589C285.243 73.2289 287.777 74.3273 290.513 74.3273C293.249 74.3273 295.23 73.2357 295.23 71.4567C295.23 69.0645 292.292 68.9297 287.433 67.764C278.68 65.6413 272.319 62.5686 272.319 52.7169C272.319 42.8651 280.526 37.1239 291.126 37.1239C298.579 37.1239 305.418 40.4729 308.019 47.043C308.565 48.4783 307.817 49.981 306.375 50.3247L298.033 52.3732C297.143 52.5753 296.119 52.3058 295.573 51.4837C294.684 50.3179 293.181 49.57 291.193 49.57C288.457 49.57 287.022 50.7357 287.022 52.3732C287.022 54.6306 290.58 54.9001 294.273 55.9311C305.964 59.1454 310.546 62.5618 310.546 70.6346L310.553 70.6279Z" fill="#FF0086"/>
<path d="M344.879 83.6197L343.444 78.4917H329.906L328.471 83.6197C328.127 84.9877 326.901 85.8771 325.533 85.8771H314.724C313.08 85.8771 311.854 84.2329 312.4 82.6629L326.49 40.4662C327.036 39.0309 328.404 38.0067 329.98 38.0067H343.383C344.953 38.0067 346.395 39.0309 346.874 40.4662L360.964 82.6629C361.51 84.2329 360.351 85.8771 358.707 85.8771H347.831C346.463 85.8771 345.304 84.9877 344.893 83.6197H344.879ZM340.499 67.8246L336.672 53.9433L332.844 67.8246H340.506H340.499Z" fill="#FF0086"/>
<path d="M199.765 112.198H218.437C220.149 112.198 221.517 113.566 221.517 115.21V137.434C221.517 138.802 220.425 139.893 219.057 139.893H216.53C215.439 139.893 214.482 139.139 214.206 138.047L213.316 134.765C209.758 138.458 204.63 140.715 197.999 140.715C183.64 140.715 172.764 130.048 172.764 115.958C172.764 101.868 183.64 91.1332 197.999 91.1332C205.661 91.1332 212.359 94.2127 216.874 99.206C217.898 100.298 217.629 102.077 216.396 102.831L207.575 108.714C206.618 109.327 205.452 109.192 204.637 108.438C202.858 106.935 200.601 106.113 198.006 106.113C192.332 106.113 188.094 110.217 188.094 115.958C188.094 122.043 192.332 126.423 198.006 126.423C202.11 126.423 205.115 125.055 206.692 122.043H199.785C198.141 122.043 196.78 120.742 196.78 119.031V115.203C196.78 113.559 198.148 112.191 199.785 112.191L199.765 112.198Z" fill="white"/>
<path d="M257.824 137.636L256.389 132.508H242.851L241.416 137.636C241.072 139.004 239.846 139.893 238.478 139.893H227.669C226.025 139.893 224.799 138.249 225.344 136.679L239.435 94.4822C239.98 93.0469 241.348 92.0226 242.925 92.0226H256.328C257.898 92.0226 259.34 93.0469 259.819 94.4822L273.909 136.679C274.455 138.249 273.296 139.893 271.652 139.893H260.776C259.408 139.893 258.249 139.004 257.838 137.636H257.824ZM253.444 121.841L249.617 107.959L245.789 121.841H253.451H253.444Z" fill="white"/>
<path d="M310.344 92.0226H319.643C321.355 92.0226 322.723 93.3906 322.723 95.0348V136.82C322.723 138.532 321.355 139.9 319.643 139.9H310.823C309.589 139.9 308.43 139.219 307.743 138.188L293.794 115.688V136.82C293.794 138.532 292.426 139.9 290.715 139.9H281.416C279.704 139.9 278.404 138.532 278.404 136.82V95.0348C278.404 93.3906 279.704 92.0226 281.416 92.0226H290.236C291.47 92.0226 292.629 92.6358 293.316 93.7342L307.332 116.234V95.0348C307.332 93.3906 308.633 92.0226 310.344 92.0226Z" fill="white"/>
<path d="M361.699 92.0226H370.998C372.642 92.0226 374.003 93.3906 374.003 95.0348V136.82C374.003 138.532 372.635 139.9 370.998 139.9H361.699C359.987 139.9 358.619 138.532 358.619 136.82V122.663H344.94V136.82C344.94 138.532 343.572 139.9 341.86 139.9H332.629C330.917 139.9 329.549 138.532 329.549 136.82V95.0348C329.549 93.3906 330.917 92.0226 332.629 92.0226H341.86C343.572 92.0226 344.94 93.3906 344.94 95.0348V108.781H358.619V95.0348C358.619 93.3906 359.987 92.0226 361.699 92.0226Z" fill="white"/>
<path d="M429.603 115.958C429.603 130.116 418.727 140.783 404.367 140.783C390.007 140.783 379.131 130.116 379.131 115.958C379.131 101.8 390.007 91.2006 404.367 91.2006C418.727 91.2006 429.603 101.868 429.603 115.958ZM414.219 115.958C414.219 110.217 410.048 106.113 404.374 106.113C398.7 106.113 394.529 110.217 394.529 115.958C394.529 121.699 398.7 125.803 404.374 125.803C410.048 125.803 414.219 121.767 414.219 115.958Z" fill="white"/>
<path d="M475.351 92.0226C477.062 92.0226 478.43 93.3906 478.43 95.0348V120.54C478.43 134.765 469.61 140.715 456.544 140.715C443.478 140.715 434.731 134.765 434.731 120.54V95.0348C434.731 93.3906 436.099 92.0226 437.81 92.0226H447.11C448.754 92.0226 450.122 93.3906 450.122 95.0348V118.903C450.122 123.283 452.447 125.81 456.55 125.81C460.654 125.81 463.046 123.283 463.046 118.903V95.0348C463.046 93.3906 464.414 92.0226 466.052 92.0226H475.351Z" fill="white"/>
<path d="M76.8542 163.303C117.643 163.303 150.708 130.237 150.708 89.4485C150.708 48.66 117.643 15.5943 76.8542 15.5943C36.0657 15.5943 3 48.66 3 89.4485C3 130.237 36.0657 163.303 76.8542 163.303Z" fill="#FF0086" stroke="#232323" stroke-width="6" stroke-linecap="round" stroke-linejoin="round"/>
<mask id="mask0_69_1948" style="mask-type:luminance" maskUnits="userSpaceOnUse" x="3" y="15" width="148" height="149">
<path d="M76.8542 163.303C117.643 163.303 150.708 130.237 150.708 89.4485C150.708 48.66 117.643 15.5943 76.8542 15.5943C36.0657 15.5943 3 48.66 3 89.4485C3 130.237 36.0657 163.303 76.8542 163.303Z" fill="white"/>
</mask>
<g mask="url(#mask0_69_1948)">
<path d="M123.141 113.707C122.939 113.626 122.723 113.539 122.494 113.465C122.541 113.364 124.293 109.536 123.579 106.214C123.579 106.214 120.082 104.772 118.653 102.548C118.566 102.407 118.465 102.198 118.357 101.915C117.69 100.163 116.692 95.877 115.122 91.2477C113.02 85.028 109.88 78.1884 105.109 76.0119C105.109 76.0119 106.982 74.4553 106.389 70.9445C106.207 69.8731 105.796 68.6264 105.041 67.1844L105.021 67.1709C105.944 65.4593 106.733 62.8111 105.729 59.4957C105.729 59.4957 102.164 60.6076 99.664 63.5052C102.151 54.0308 106.47 47.427 106.605 47.2249C106.605 47.2249 93.4781 48.6669 79.5563 65.0618V65.1628C77.5819 65.1561 75.2571 65.2639 72.683 65.6008C70.9444 65.8165 69.0778 66.1399 67.1237 66.5981C64.125 67.2922 61.4701 68.175 59.179 69.0914C57.7571 69.6574 56.4701 70.2437 55.338 70.803L55.2908 70.7154C35.5604 62.1642 23.1548 66.6655 23.1548 66.6655C23.1548 66.6655 30.0685 70.6884 36.5847 78.2086C33.0604 76.7059 29.3744 77.2922 29.3744 77.2922C29.9405 80.7019 31.8205 82.7302 33.3973 83.869L33.3839 83.8825C33.3637 84.6304 33.3906 85.311 33.458 85.9242C34.0106 91.0725 37.2248 91.8407 37.2248 91.8407C33.9095 95.8973 34.1184 103.424 34.9742 109.934C35.5604 114.374 36.4499 118.337 36.7262 120.405C36.8003 120.951 36.834 121.369 36.8003 121.625C36.5038 124.253 33.9971 127.097 33.9971 127.097C34.8394 130.432 38.175 133.121 38.175 133.121C37.272 134.017 36.7936 134.859 36.7936 134.859C40.3582 140.432 45.931 143.68 52.0496 145.479C67.1169 149.92 85.5199 145.594 85.5199 145.594C85.5199 145.594 94.4686 143.532 103.808 138.68C112.811 134.004 122.177 126.726 124.226 116.194C124.34 115.621 124.428 115.035 124.495 114.442C124.495 114.442 123.977 114.085 123.141 113.734V113.707ZM90.0347 134.239C89.9403 134.522 89.8392 134.806 89.7314 135.095C89.3878 136.032 88.9767 137.002 88.505 137.966C86.8339 141.369 82.4875 142.38 79.4889 140.062C78.377 139.206 77.3797 138.303 76.4767 137.4L76.2679 137.191C72.9053 133.768 71.0792 130.473 71.0792 130.473C75.4053 130.533 78.249 128.168 79.6776 126.558C80.3918 125.756 80.6614 124.651 80.412 123.606C80.6546 124.651 81.3824 125.52 82.3797 125.931C84.3676 126.74 87.9659 127.609 91.8204 125.648C91.8204 125.648 91.6317 129.563 90.0414 134.246L90.0347 134.239Z" fill="#2D2D2D"/>
<path d="M49.1383 170.587C49.0642 168.498 49.1046 166.396 49.2125 164.347C49.3472 161.854 49.5898 159.442 49.8796 157.218C50.1761 154.933 50.5197 152.851 50.8432 151.092C51.4833 147.642 52.0561 145.452 52.0561 145.452C54.017 146.032 56.0386 146.456 58.0669 146.766C71.6046 148.835 85.5196 145.567 85.5196 145.567C85.5196 145.567 87.2851 145.163 90.0682 144.28C93.5452 143.181 98.6126 141.349 103.808 138.646C103.808 138.646 109.637 146.766 111.982 155.843C112.265 156.921 112.494 158.006 112.656 159.091C119.906 160.789 120.506 162.501 120.506 162.501C120.506 162.501 120.877 163.323 121.281 164.556C121.8 166.113 122.379 168.336 122.366 170.365C122.366 170.769 122.339 171.173 122.278 171.557" fill="#2D2D2D"/>
<path d="M131.14 144.502C131.14 144.502 130.688 144.886 129.88 145.526L129.866 145.553C127.642 144.785 125.088 146.409 125.088 148.99V149.017C121.49 151.456 116.712 154.273 111.989 155.85C111.072 152.312 109.63 148.916 108.208 146.099C105.985 141.679 103.815 138.66 103.815 138.66C109.32 135.803 114.954 131.969 118.97 127.023C121.531 123.876 123.431 120.27 124.226 116.173C124.226 116.173 133.673 110.924 134.462 121.376C134.462 121.376 146.362 118.256 141.53 130.661C141.53 130.661 153.613 141.975 131.14 144.509V144.502Z" fill="#2D2D2D"/>
<path d="M34.974 109.907C34.974 109.907 20.4727 94.8056 23.1546 66.6453C23.1546 66.6453 30.0684 70.6682 36.5845 78.1884C33.0603 76.6857 29.3743 77.2719 29.3743 77.2719C29.9403 80.6816 31.8204 82.7099 33.3972 83.8488L33.3837 83.8622C33.195 90.8501 37.2179 91.8204 37.2179 91.8204C33.9026 95.877 34.1115 103.404 34.9673 109.913L34.974 109.907Z" fill="white"/>
<path d="M115.115 91.2476C113.013 85.028 109.873 78.1884 105.102 76.0118C105.102 76.0118 108.289 73.3636 105.028 67.1776L105.008 67.1641C105.931 65.4526 106.719 62.8043 105.715 59.489C105.715 59.489 102.15 60.6008 99.6504 63.4984C102.171 53.8758 106.598 47.2114 106.598 47.2114C121.443 71.2949 115.109 91.2476 115.109 91.2476H115.115Z" fill="white"/>
<path d="M124.495 114.415C124.428 115.008 124.34 115.594 124.226 116.167C122.184 126.692 112.818 133.97 103.808 138.653C94.4753 143.505 85.5198 145.567 85.5198 145.567C85.5198 145.567 67.1169 149.893 52.0496 145.452C45.931 143.653 40.3582 140.398 36.7936 134.832C36.7936 134.832 37.272 133.997 38.175 133.094C38.175 133.094 34.8394 130.405 33.9971 127.07C33.9971 127.07 36.4971 124.233 36.8003 121.598C36.8273 121.342 36.8003 120.924 36.7262 120.378C38.7477 118.572 42.0766 116.275 45.3111 117.076C50.4458 118.343 71.4296 120.291 78.5118 118.66C85.6007 117.029 102.029 107.771 108.613 102.575C110.931 100.742 114.583 100.917 118.343 101.908C118.451 102.184 118.545 102.4 118.64 102.541C120.068 104.772 123.566 106.207 123.566 106.207C124.28 109.529 122.528 113.357 122.481 113.451C123.694 113.862 124.489 114.408 124.489 114.408L124.495 114.415Z" fill="white"/>
<path d="M91.8136 125.641C91.8136 125.641 91.6249 129.556 90.0346 134.239C90.0346 134.239 86.9618 132.885 82.7974 133.855C78.633 134.826 76.4767 137.4 76.4767 137.4C72.9794 133.903 71.0791 130.466 71.0791 130.466C75.4052 130.527 78.2489 128.161 79.6775 126.551C80.3917 125.749 80.6613 124.644 80.412 123.599C80.6545 124.644 81.3823 125.513 82.3796 125.924C84.3675 126.733 87.9658 127.602 91.8203 125.641H91.8136Z" fill="#232323"/>
<path d="M122.487 113.471C122.535 113.37 124.287 109.543 123.572 106.221C123.572 106.221 120.075 104.779 118.646 102.555C118.559 102.413 118.458 102.205 118.35 101.922C114.59 100.931 110.938 100.762 108.62 102.589C106.632 104.152 103.754 106.093 100.506 108.074C95.8972 110.89 89.9942 110.405 85.8568 106.935C82.2988 103.95 79.098 100.661 76.8878 98.2423C75.5064 96.7328 72.9997 97.2315 72.3123 99.1587C71.0724 102.616 69.1115 107.508 66.5778 112.023C64.0442 116.537 59.2598 118.896 54.2531 118.384C50.2908 117.979 46.9755 117.494 45.3178 117.09C42.0833 116.288 38.7545 118.586 36.7262 120.392C36.8003 120.938 36.834 121.355 36.8003 121.611C36.5038 124.24 33.9971 127.083 33.9971 127.083C34.8394 130.419 38.175 133.107 38.175 133.107C37.272 134.004 36.7936 134.846 36.7936 134.846C40.3582 140.419 45.931 143.667 52.0496 145.466C67.1169 149.907 85.5198 145.58 85.5198 145.58C85.5198 145.58 94.4686 143.518 103.801 138.667C112.804 133.99 122.171 126.713 124.219 116.18C124.334 115.607 124.421 115.021 124.489 114.428C124.489 114.428 123.694 113.882 122.481 113.478L122.487 113.471ZM78.4511 118.687C78.4916 118.673 78.5118 118.667 78.5118 118.667L77.5482 113.721L78.5253 118.667H78.5118C78.4916 118.667 78.4713 118.673 78.4511 118.68V118.687Z" fill="white"/>
<path d="M112.663 159.098C104.442 157.905 92.4538 153.525 90.284 150.789C88.8487 148.983 89.4821 146.066 90.0751 144.287C93.5522 143.188 98.6196 141.355 103.815 138.653C103.815 138.653 109.644 146.773 111.989 155.85C112.272 156.928 112.501 158.013 112.663 159.098Z" fill="white"/>
<path d="M131.14 144.502C131.14 144.502 121.665 140.297 118.97 127.016C121.531 123.869 123.431 120.264 124.226 116.167C124.226 116.167 133.673 110.917 134.462 121.369C134.462 121.369 146.362 118.249 141.531 130.655C141.531 130.655 153.613 141.969 131.14 144.502Z" fill="white"/>
<path d="M127.973 135.722C130.597 135.722 132.723 133.595 132.723 130.971C132.723 128.348 130.597 126.221 127.973 126.221C125.349 126.221 123.222 128.348 123.222 130.971C123.222 133.595 125.349 135.722 127.973 135.722Z" fill="#FF4D96"/>
<path d="M128.249 123.545C129.496 123.545 130.507 122.535 130.507 121.288C130.507 120.041 129.496 119.031 128.249 119.031C127.002 119.031 125.992 120.041 125.992 121.288C125.992 122.535 127.002 123.545 128.249 123.545Z" fill="#FF4D96"/>
<path d="M138.945 127.087C139.231 125.873 138.48 124.657 137.267 124.371C136.053 124.085 134.837 124.836 134.551 126.05C134.265 127.263 135.016 128.479 136.23 128.765C137.443 129.052 138.659 128.3 138.945 127.087Z" fill="#FF4D96"/>
<path d="M136.753 138.653C138 138.653 139.01 137.643 139.01 136.396C139.01 135.149 138 134.138 136.753 134.138C135.506 134.138 134.496 135.149 134.496 136.396C134.496 137.643 135.506 138.653 136.753 138.653Z" fill="#FF4D96"/>
<path d="M50.8435 151.092C50.52 152.844 50.1764 154.927 49.8799 157.218C53.0807 156.928 55.7761 156.072 57.3529 155.473C57.9863 155.23 58.0335 154.354 57.4338 154.03C55.0753 152.764 52.6629 151.773 50.8435 151.092Z" fill="white"/>
<g opacity="0.3">
<path d="M83.478 136.423C85.8904 135.863 87.9322 136.079 89.226 136.362C89.5292 135.648 89.7988 134.934 90.0279 134.246C90.0279 134.246 86.9551 132.892 82.7907 133.862C78.6263 134.832 76.47 137.407 76.47 137.407C77.0023 137.939 77.5818 138.478 78.1883 139.004C79.2126 138.168 80.978 137.009 83.478 136.429V136.423Z" fill="#000566"/>
</g>
<g opacity="0.7">
<path d="M123.741 106.214C123.741 106.214 118.182 108.667 115.5 102.541C112.818 96.4161 113.317 88.9431 105.102 76.0118C109.914 78.1884 113.081 85.0347 115.21 91.2477C116.794 95.877 117.798 100.163 118.472 101.915C118.579 102.191 118.674 102.407 118.768 102.548C120.21 104.779 123.741 106.214 123.741 106.214Z" fill="white"/>
</g>
<g opacity="0.7">
<path d="M122.366 170.371C120.062 162.575 112.663 161.793 112.663 161.793C93.8892 159.266 89.0981 149.61 89.0981 149.61C96.6183 156.402 112.663 159.098 112.663 159.098C119.913 160.796 120.513 162.508 120.513 162.508C120.513 162.508 120.884 163.33 121.288 164.563C121.807 166.119 122.386 168.343 122.373 170.371H122.366Z" fill="white"/>
</g>
<g opacity="0.7">
<path d="M108.99 156.739C109.145 157.326 109.28 157.912 109.401 158.505C110.527 158.747 111.625 158.95 112.663 159.098C112.494 158.006 112.265 156.921 111.989 155.85C109.637 146.773 103.815 138.653 103.815 138.653C102.912 139.125 102.016 139.563 101.126 139.981C102.346 141.773 106.969 148.896 108.997 156.739H108.99Z" fill="white"/>
</g>
<path d="M90.0277 134.239C89.6234 135.446 89.118 136.706 88.5048 137.959C86.8337 141.362 82.4873 142.373 79.4887 140.055C78.3768 139.199 77.3795 138.296 76.4766 137.393C76.4766 137.393 78.6329 134.819 82.7973 133.849C86.9617 132.878 90.0345 134.233 90.0345 134.233L90.0277 134.239Z" fill="#FF4D96"/>
<path d="M85.8233 146.847C83.5861 147.339 81.4163 147.69 79.1926 147.986C76.9824 148.276 74.7587 148.491 72.5282 148.619C70.2978 148.748 68.0606 148.795 65.8234 148.748C63.5862 148.687 61.3423 148.525 59.1118 148.242C56.8746 147.973 54.6576 147.514 52.4676 146.928C51.9218 146.766 51.3692 146.638 50.8302 146.45L49.2129 145.904C48.155 145.479 47.0835 145.068 46.0593 144.543L45.2843 144.165L44.5364 143.741L43.7884 143.31L43.411 143.094L43.0539 142.851L41.6186 141.874L40.2641 140.783C38.5054 139.266 36.9623 137.494 35.6752 135.547C35.3989 135.129 35.3989 134.603 35.6348 134.192V134.186C35.8369 133.849 36.0189 133.633 36.2278 133.377C36.4299 133.134 36.6456 132.912 36.8747 132.696C37.3329 132.272 37.8383 131.894 38.3774 131.578C38.9097 131.254 39.5094 131.018 40.1092 130.857C40.7089 130.688 41.349 130.675 41.9488 130.729C42.1105 130.742 42.2318 130.89 42.2183 131.059C42.2048 131.16 42.1509 131.241 42.0701 131.288L42.0431 131.301C41.5512 131.578 41.1065 131.834 40.7089 132.157C40.3046 132.467 39.9407 132.797 39.6038 133.161C39.2668 133.525 38.9636 133.909 38.6739 134.307C38.5323 134.509 38.3976 134.711 38.2695 134.913C38.1415 135.102 38.0067 135.345 37.9259 135.486L37.8922 134.125C39.031 135.85 40.4057 137.42 41.969 138.781L43.1819 139.758L44.4757 140.641L44.7992 140.863L45.1428 141.059L45.8234 141.45L46.504 141.841L47.2116 142.184C48.1482 142.669 49.132 143.047 50.1159 143.438L51.6186 143.95C52.1172 144.125 52.6428 144.246 53.1482 144.394C55.2035 144.947 57.3059 145.378 59.4353 145.634C61.5646 145.904 63.7142 146.059 65.8773 146.119C68.0336 146.167 70.2034 146.12 72.3597 145.998C74.5228 145.87 76.6791 145.661 78.8287 145.385C80.9648 145.102 83.1414 144.752 85.2034 144.293H85.2371C85.9446 144.132 86.6454 144.576 86.8072 145.284C86.9621 145.991 86.5174 146.692 85.8098 146.854L85.8233 146.847Z" fill="#232323"/>
<path d="M37.353 134.118C37.2047 133.997 33.667 131.113 32.7303 127.386C32.6225 126.969 32.7303 126.517 33.0201 126.194C33.64 125.486 35.2977 123.256 35.4999 121.45C35.547 120.998 35.1899 119.044 34.8732 117.319C33.5727 110.277 31.4568 98.8083 35.3112 92.2786C33.8489 91.2207 31.9487 88.8689 32.0834 83.815L34.7115 83.8892C34.5565 89.6506 37.508 90.5199 37.5417 90.5266C37.9797 90.6344 38.3368 90.9579 38.485 91.3824C38.6266 91.8137 38.5457 92.2854 38.2559 92.6358C33.9635 97.8851 36.2411 110.21 37.4608 116.834C37.9662 119.583 38.2088 120.938 38.1144 121.733C37.8584 124.004 36.2815 126.295 35.4729 127.339C36.4163 129.927 38.9837 132.036 39.0107 132.056L37.3597 134.105L37.353 134.118Z" fill="#232323"/>
<path d="M34.9742 111.221C34.6306 111.221 34.2869 111.086 34.0241 110.816C33.4176 110.183 19.1387 94.9538 21.8476 66.5172C21.8948 66.0118 22.2317 65.5806 22.7101 65.4054C23.2357 65.2167 35.8435 60.8232 55.8232 69.4889C56.4903 69.7787 56.7936 70.5536 56.5038 71.2207C56.2141 71.8878 55.4391 72.1911 54.772 71.9013C38.4917 64.8461 27.3462 66.8879 24.388 67.6493C22.1778 94.2597 35.7829 108.849 35.9244 108.997C36.423 109.523 36.4095 110.351 35.8839 110.857C35.6279 111.099 35.3044 111.221 34.9742 111.221Z" fill="#232323"/>
<path d="M23.8219 65.5065C25.7087 66.6588 27.3933 67.8852 29.0712 69.2127C30.7356 70.5334 32.3394 71.9283 33.8623 73.4108C34.6372 74.1385 35.3582 74.9202 36.0995 75.6817C36.807 76.4768 37.5415 77.245 38.2086 78.0806C39.5968 79.6978 40.8367 81.4364 42.0361 83.2019L39.8394 83.1951C40.0752 82.8852 40.338 82.6021 40.6008 82.3124C40.8704 82.0294 41.1466 81.7531 41.4364 81.4903C41.7329 81.2275 42.0159 80.9579 42.3326 80.7086C42.6426 80.4593 42.9593 80.21 43.303 79.9876C43.4647 79.8798 43.6871 79.9269 43.7881 80.0887C43.8488 80.183 43.8623 80.2908 43.8286 80.3919C43.7073 80.776 43.5725 81.1399 43.431 81.5038C43.2962 81.8676 43.148 82.2248 43.0065 82.5819C42.8582 82.9391 42.71 83.2895 42.5482 83.6399C42.3865 83.9835 42.2181 84.3272 42.0361 84.6506C41.6857 85.2571 40.9175 85.4593 40.3111 85.1156C40.1426 85.0213 40.0078 84.8932 39.9067 84.745L39.8394 84.6439C38.7006 82.966 37.528 81.3083 36.2006 79.772C35.5671 78.9768 34.8596 78.2423 34.1857 77.4809C33.4782 76.7531 32.7841 76.0051 32.0429 75.3043C30.5874 73.8825 29.051 72.5348 27.4472 71.2747C25.8637 70.0146 24.1723 68.7949 22.5079 67.7841L22.4607 67.7572C21.8408 67.3798 21.6453 66.5712 22.0227 65.9512C22.4001 65.3313 23.2087 65.1359 23.8286 65.5132L23.8219 65.5065Z" fill="#232323"/>
<path d="M35.7693 85.338C34.7854 85.3043 33.8623 85.0078 33.0065 84.5563C32.1507 84.1048 31.3757 83.4916 30.6884 82.7706C30.0146 82.0496 29.4081 81.2342 28.9836 80.3245C28.5253 79.4283 28.2625 78.4579 28.0739 77.4876C27.9324 76.8003 28.3771 76.1331 29.0644 75.9916L29.1386 75.9782H29.1655C29.5631 75.9175 29.8663 75.8973 30.21 75.8771C30.5402 75.8569 30.8771 75.8501 31.2073 75.8501C31.8677 75.8501 32.5348 75.8906 33.1951 75.9714C33.8555 76.0455 34.5159 76.1668 35.1695 76.3353C35.8232 76.4903 36.4701 76.7261 37.1035 76.9822C37.7773 77.2517 38.1075 78.0199 37.8313 78.6938C37.5617 79.3676 36.8003 79.6911 36.1264 79.4283L36.0658 79.4013C35.5604 79.2059 35.055 79.0105 34.5159 78.8825C33.9836 78.7477 33.4377 78.6399 32.8784 78.5792C32.3259 78.5118 31.7598 78.4782 31.2005 78.4782C30.9175 78.4782 30.6412 78.4782 30.3582 78.4984C30.0887 78.5118 29.7854 78.5388 29.5766 78.5725L30.6682 77.0563C30.7693 77.4337 30.8164 77.8313 30.9243 78.2019C31.0456 78.5725 31.1264 78.9566 31.2814 79.3137C31.5375 80.0482 31.9148 80.7356 32.3528 81.3959C32.7841 82.0631 33.3299 82.6628 33.9364 83.2288C34.5294 83.8016 35.1965 84.3474 35.8906 84.8932L35.9108 84.9134C36.0186 84.9943 36.0388 85.1493 35.9512 85.2504C35.904 85.311 35.8299 85.3447 35.749 85.3447L35.7693 85.338Z" fill="#232323"/>
<path d="M48.8893 74.3272C49.954 72.9189 51.2949 71.8475 52.71 70.9041C53.0672 70.6682 53.4243 70.4459 53.7949 70.237C54.1655 70.0213 54.5294 69.8124 54.9068 69.6103C55.648 69.1992 56.4095 68.8151 57.1777 68.4513C58.7208 67.7437 60.2909 67.0833 61.9081 66.5712C63.5186 66.0254 65.1695 65.6143 66.834 65.2909C67.5483 65.1494 68.2356 65.6211 68.3771 66.3286C68.5051 66.989 68.1143 67.6359 67.4809 67.8313L67.427 67.8448C66.652 68.0874 65.8771 68.2963 65.1022 68.5321C64.334 68.7814 63.5523 68.9903 62.7976 69.2599C61.2612 69.745 59.7518 70.3178 58.2423 70.8973C56.7464 71.4971 55.2639 72.1507 53.8084 72.8515C52.3394 73.5321 50.8502 74.206 49.2936 74.8124H49.2734C49.0982 74.8865 48.9095 74.8057 48.8421 74.6305C48.7949 74.5159 48.8219 74.3946 48.8893 74.307V74.3272Z" fill="#232323"/>
<path d="M85.2234 144.287C87.2719 143.788 89.3811 143.141 91.4229 142.454C93.4781 141.76 95.5064 140.991 97.501 140.149C99.4956 139.307 101.457 138.39 103.37 137.393C105.277 136.389 107.137 135.297 108.93 134.111C110.729 132.939 112.42 131.625 114.024 130.217C114.415 129.853 114.833 129.522 115.196 129.138L116.322 128.013C117.029 127.225 117.75 126.45 118.37 125.607L118.855 124.987L119.293 124.334L119.731 123.68L119.954 123.357L120.149 123.013L120.917 121.652L121.571 120.237C122.38 118.323 122.912 116.315 123.175 114.26L123.741 115.493C123.606 115.405 123.377 115.244 123.182 115.136C122.973 115.008 122.764 114.893 122.548 114.772C122.117 114.543 121.672 114.334 121.207 114.152C120.742 113.97 120.271 113.842 119.772 113.741C119.273 113.626 118.761 113.593 118.202 113.566H118.175C118.006 113.552 117.885 113.411 117.892 113.249C117.892 113.148 117.952 113.06 118.033 113.013C118.545 112.696 119.125 112.434 119.738 112.312C120.351 112.191 120.985 112.137 121.611 112.198C122.238 112.245 122.858 112.359 123.458 112.541C123.754 112.629 124.051 112.737 124.341 112.865C124.637 113 124.893 113.114 125.223 113.33C125.641 113.606 125.843 114.091 125.789 114.563C125.5 116.874 124.893 119.145 123.99 121.281L123.256 122.858L122.4 124.367L122.184 124.745L121.942 125.102L121.456 125.816L120.971 126.531L120.446 127.211C119.758 128.134 118.983 128.977 118.222 129.826L117.016 131.032C116.618 131.443 116.18 131.8 115.762 132.184C114.058 133.68 112.265 135.068 110.385 136.301C108.505 137.541 106.571 138.68 104.59 139.718C102.602 140.756 100.574 141.699 98.5185 142.568C96.4633 143.438 94.3744 144.226 92.2652 144.94C90.1426 145.654 88.0401 146.301 85.8164 146.847C85.1089 147.022 84.4013 146.584 84.2261 145.884C84.0509 145.176 84.4889 144.469 85.1897 144.293H85.2234V144.287Z" fill="#232323"/>
<path d="M123.68 114.017L121.295 112.912C121.295 112.912 122.683 109.859 122.386 107.117C121.194 106.537 118.768 105.176 117.535 103.256C117.103 102.582 116.719 101.254 115.958 98.5657C114.132 92.0832 110.722 80.0213 104.556 77.2046C104.145 77.0159 103.855 76.6318 103.795 76.1803C103.734 75.7288 103.909 75.2841 104.26 74.9943C104.334 74.9269 106.531 72.8515 103.862 67.7908L106.187 66.5644C108.545 71.0321 107.878 73.9835 107.029 75.5806C113.37 79.7315 116.537 90.9579 118.478 97.8514C118.956 99.536 119.496 101.45 119.738 101.834C120.729 103.377 123.188 104.637 124.058 104.994C124.462 105.156 124.752 105.513 124.846 105.938C125.655 109.691 123.748 113.842 123.667 114.017H123.68Z" fill="#232323"/>
<path d="M115.115 92.5617C114.981 92.5617 114.846 92.5415 114.718 92.501C114.024 92.2787 113.64 91.5441 113.862 90.8501C113.943 90.5873 119.657 71.524 105.951 48.6669C102.959 49.3003 92.009 52.4337 80.567 65.8973C80.0953 66.4499 79.2665 66.5173 78.7139 66.0456C78.1614 65.5739 78.094 64.745 78.5657 64.1925C92.6627 47.5955 105.911 45.9648 106.47 45.9041C106.969 45.8502 107.467 46.0861 107.737 46.5241C122.73 70.8367 116.645 90.8097 116.382 91.6452C116.207 92.2045 115.688 92.5617 115.129 92.5617H115.115Z" fill="#232323"/>
<path d="M107.703 47.9459C106.659 49.5901 105.682 51.4365 104.812 53.2626C103.936 55.1022 103.155 56.989 102.474 58.9095C102.11 59.8596 101.827 60.8367 101.51 61.8071C101.241 62.7841 100.938 63.7612 100.715 64.7518C100.21 66.7194 99.8865 68.7275 99.6035 70.7356L99.5833 70.8502C99.4822 71.5375 98.842 72.0159 98.148 71.9149C97.9593 71.8879 97.7773 71.8138 97.6291 71.7127C97.3191 71.5038 97.0226 71.268 96.7194 71.0321C96.4229 70.7963 96.1331 70.5469 95.8434 70.2909C95.5604 70.0281 95.2639 69.7787 94.9876 69.5092C94.7046 69.2464 94.4215 68.9769 94.1453 68.6938C94.0105 68.5523 94.0105 68.33 94.1453 68.1952C94.2261 68.1211 94.334 68.0874 94.435 68.1008C94.8393 68.148 95.2369 68.2356 95.621 68.3232C96.0118 68.4108 96.3825 68.5254 96.7666 68.6332C97.1439 68.741 97.5145 68.869 97.8784 69.0038C98.2423 69.1453 98.5994 69.2801 98.9498 69.4553L96.9822 70.4324C97.2787 68.3165 97.6223 66.2073 98.148 64.1453C98.3771 63.1076 98.6938 62.0901 98.9768 61.0658C99.307 60.055 99.6102 59.0375 99.9808 58.0402C100.688 56.0389 101.51 54.078 102.42 52.1575C103.337 50.2303 104.307 48.3839 105.493 46.5106C105.884 45.8974 106.692 45.7155 107.306 46.1063C107.919 46.4971 108.101 47.3058 107.71 47.919L107.683 47.9661L107.703 47.9459Z" fill="#232323"/>
<path d="M103.236 69.2059C103.627 68.4108 103.977 67.6291 104.26 66.8474C104.55 66.0725 104.779 65.2976 104.873 64.5092C104.974 63.7275 105.008 62.9391 104.914 62.1709C104.9 61.7801 104.799 61.4027 104.745 61.0186C104.678 60.6345 104.543 60.2639 104.469 59.8731L106.12 60.7491C105.918 60.8165 105.628 60.9243 105.385 61.0321C105.129 61.1399 104.873 61.2612 104.624 61.3825C104.119 61.6318 103.633 61.9148 103.162 62.2181C102.69 62.5213 102.245 62.8515 101.827 63.2154C101.403 63.5658 101.026 63.9634 100.662 64.3677L100.621 64.4148C100.136 64.9539 99.3005 64.9943 98.7614 64.5024C98.229 64.0173 98.1819 63.1884 98.6671 62.6493C99.1253 62.144 99.597 61.6453 100.116 61.214C100.628 60.776 101.167 60.3717 101.726 60.0146C102.286 59.6507 102.858 59.3205 103.451 59.024C103.748 58.8758 104.051 58.741 104.354 58.6062C104.671 58.4715 104.954 58.3569 105.338 58.2356H105.365C106.032 58.0065 106.747 58.3704 106.969 59.0375C106.976 59.0644 106.982 59.0914 106.989 59.1116C107.252 60.0685 107.447 61.0523 107.427 62.0563C107.447 63.0604 107.265 64.0577 106.982 65.0011C106.686 65.9445 106.261 66.8407 105.695 67.6224C105.123 68.404 104.435 69.0779 103.566 69.5429C103.445 69.6035 103.303 69.5631 103.236 69.4418C103.195 69.3676 103.202 69.2868 103.236 69.2261L103.249 69.1992L103.236 69.2059Z" fill="#232323"/>
<path d="M86.7733 66.1062C85.1022 66.2477 83.4782 66.3016 81.8542 66.3421C80.237 66.3556 78.6197 66.4229 77.0092 66.5442C75.3987 66.6925 73.7949 66.8407 72.1979 67.0833C71.396 67.1777 70.6076 67.3326 69.8057 67.4472C69.0106 67.582 68.2154 67.737 67.4135 67.8582H67.3596C66.6386 67.9728 65.9715 67.4809 65.8637 66.7666C65.7626 66.0995 66.1804 65.4728 66.8206 65.2976C68.458 64.8529 70.1224 64.489 71.8071 64.2733C73.485 64.0173 75.1898 63.9162 76.8812 63.869C77.7302 63.8556 78.5793 63.8623 79.4283 63.9027C79.8529 63.9162 80.2774 63.9432 80.7019 63.9701C81.1264 63.9903 81.551 64.0308 81.9688 64.0914C83.6534 64.3138 85.3313 64.6777 86.9081 65.4728C87.0766 65.5537 87.1372 65.7558 87.0564 65.9243C87.0024 66.0321 86.8946 66.0995 86.7868 66.1062H86.7666H86.7733Z" fill="#232323"/>
<path d="M78.5995 115.837C78.5995 115.837 75.6009 116.537 73.6939 117.75C72.9796 118.202 72.7572 119.145 73.2154 119.859C74.1993 121.382 76.396 123.754 80.2303 122.858C84.0712 121.962 84.9944 118.869 85.1966 117.063C85.2909 116.221 84.6777 115.479 83.8354 115.385C81.5914 115.136 78.5928 115.837 78.5928 115.837H78.5995Z" fill="#232323"/>
<path d="M70.3987 130.695L79.2464 128.155L80.9243 125.008L88.1412 126.76L91.7329 126.578L90.9714 130.048L89.718 133.431L86.9148 133.552L81.0658 133.876L77.7302 136.248L76.4768 136.396L73.8286 133.505L70.3987 130.695Z" fill="#232323"/>
<path d="M81.2478 121.403L81.5982 122.885L81.6858 123.256C81.7128 123.37 81.7262 123.417 81.7532 123.498C81.8004 123.647 81.8678 123.788 81.9486 123.916C82.1103 124.179 82.3327 124.401 82.5888 124.563C82.6494 124.603 82.7168 124.637 82.7842 124.671L82.8987 124.718L83.0605 124.779C83.2694 124.866 83.485 124.934 83.7006 125.008C85.4324 125.581 87.2855 125.668 89.0173 125.264C89.8799 125.062 90.7357 124.758 91.5173 124.327L92.1103 124.017L92.6427 123.647C92.8313 123.532 92.9796 123.384 93.1413 123.249L93.3839 123.047C93.4648 122.979 93.5187 122.899 93.5928 122.818C94.1588 122.211 94.516 121.504 94.7855 120.695C95.0551 119.88 95.1426 118.936 95.1494 117.885V117.865C95.1494 117.784 95.2168 117.717 95.2976 117.717C95.3381 117.717 95.3718 117.73 95.3987 117.757C95.8098 118.161 96.0928 118.653 96.2949 119.192C96.4095 119.462 96.4701 119.738 96.5375 120.028C96.5712 120.318 96.6319 120.614 96.6116 120.911C96.6319 122.117 96.14 123.343 95.4055 124.293C95.3111 124.415 95.2302 124.543 95.1292 124.657L94.8192 124.981C94.617 125.196 94.4082 125.419 94.1723 125.587L93.485 126.126L92.7572 126.578C91.7801 127.151 90.7154 127.582 89.6036 127.845C87.3731 128.377 85.0214 128.182 82.892 127.508C82.6225 127.42 82.3597 127.333 82.0969 127.231L81.9014 127.157L81.6656 127.056C81.5039 126.982 81.3489 126.895 81.1939 126.8C80.5874 126.423 80.0753 125.911 79.6979 125.304C79.5093 125.001 79.361 124.684 79.2465 124.347C79.1926 124.186 79.1386 123.99 79.105 123.855L79.0174 123.485L78.6804 122.002C78.5187 121.295 78.9634 120.587 79.671 120.426C80.3785 120.264 81.0793 120.702 81.2411 121.403H81.2478Z" fill="#232323"/>
<path d="M83.1346 142.629C81.5443 142.629 79.9809 142.103 78.6871 141.106C73.1279 136.82 70.0551 131.342 69.9271 131.106C69.5766 130.473 69.8058 129.671 70.4392 129.32C71.0726 128.97 71.8745 129.199 72.2249 129.832C72.2518 129.886 75.1764 135.082 80.2842 139.017C81.4028 139.88 82.8246 140.19 84.1925 139.873C85.5604 139.556 86.6992 138.646 87.3192 137.38C90.1628 131.591 90.493 125.634 90.493 125.574C90.5267 124.846 91.1467 124.273 91.8744 124.327C92.6022 124.361 93.1615 124.981 93.1211 125.702C93.1076 125.965 92.7774 132.238 89.6777 138.539C88.7073 140.513 86.9216 141.935 84.7855 142.433C84.2329 142.562 83.6804 142.622 83.1278 142.622L83.1346 142.629Z" fill="#232323"/>
<path d="M76.4768 138.343C76.2612 138.343 76.0523 138.269 75.8771 138.128C75.4795 137.797 75.4256 137.204 75.7625 136.807C75.8569 136.692 78.1749 133.977 82.5887 132.946C83.0941 132.831 83.5994 133.141 83.714 133.646C83.8286 134.152 83.5186 134.657 83.0132 134.772C79.1992 135.661 77.2181 137.986 77.1978 138.006C77.0092 138.229 76.7464 138.343 76.4768 138.343Z" fill="#232323"/>
<path d="M90.0349 135.183C89.9069 135.183 89.7789 135.156 89.6576 135.102C89.6171 135.089 86.7802 133.889 83.0134 134.765C82.508 134.886 82.0026 134.57 81.888 134.064C81.7735 133.559 82.0835 133.054 82.5888 132.939C87.0093 131.915 90.2842 133.323 90.419 133.384C90.8907 133.593 91.1063 134.152 90.8974 134.624C90.7425 134.974 90.3988 135.183 90.0349 135.183Z" fill="#232323"/>
<path d="M81.2477 121.403L81.5981 122.885L81.6857 123.256C81.7127 123.39 81.7599 123.593 81.7734 123.754C81.8205 124.105 81.8273 124.462 81.7868 124.812C81.7194 125.513 81.4836 126.207 81.1062 126.814C81.0119 126.962 80.9108 127.11 80.7963 127.252L80.6278 127.447L80.4863 127.602C80.2976 127.811 80.1022 128.006 79.9 128.202C78.2895 129.745 76.268 130.958 74.0308 131.47C72.9189 131.726 71.7734 131.814 70.6413 131.726L69.7923 131.645L68.9365 131.47C68.6534 131.423 68.3704 131.315 68.0874 131.214L67.6696 131.059C67.5281 131.005 67.4001 130.924 67.2653 130.857C66.1871 130.324 65.2033 129.448 64.6912 128.357C64.5429 128.094 64.4688 127.804 64.3677 127.528C64.3004 127.238 64.233 126.962 64.2195 126.672C64.1656 126.099 64.206 125.533 64.3947 124.987C64.4216 124.913 64.5092 124.866 64.5834 124.893C64.6238 124.907 64.6508 124.934 64.6642 124.967V124.981C65.1427 125.917 65.6346 126.726 66.2343 127.339C66.8273 127.946 67.4675 128.424 68.2424 128.721C68.3367 128.754 68.4243 128.801 68.5321 128.835L68.8421 128.909C69.0443 128.956 69.2397 129.024 69.4621 129.044L70.1022 129.138L70.7693 129.159C71.6656 129.192 72.5685 129.091 73.4311 128.896C75.1629 128.498 76.7801 127.595 78.0874 126.322C78.2491 126.16 78.4108 126.005 78.5658 125.83L78.6804 125.702L78.7612 125.607C78.8084 125.547 78.8488 125.486 78.8893 125.425C79.051 125.169 79.1453 124.873 79.1723 124.563C79.1858 124.408 79.1858 124.253 79.1588 124.105C79.1453 124.017 79.1386 123.97 79.1116 123.855L79.024 123.485L78.6871 122.002C78.5254 121.295 78.9701 120.587 79.6777 120.425C80.3852 120.264 81.086 120.702 81.2477 121.403Z" fill="#232323"/>
<path d="M50.7827 145.122L53.3299 145.789L50.7827 145.122Z" fill="#232323"/>
<path d="M115.412 174.003L115.533 174.017C115.877 174.051 116.227 174.105 116.564 174.131C116.894 174.131 117.245 174.179 117.562 174.145C118.222 174.138 118.801 173.997 119.287 173.795C119.772 173.579 120.122 173.276 120.392 172.851C120.655 172.427 120.823 171.867 120.904 171.247C121.059 170.001 120.863 168.572 120.56 167.184C120.25 165.796 119.772 164.361 119.233 163.074L119.192 162.966C119.206 163.013 119.239 163.08 119.253 163.101L119.266 163.127L119.293 163.168L119.219 163.087C119.145 163.02 119.057 162.946 118.943 162.865C118.734 162.71 118.471 162.548 118.195 162.4C117.932 162.245 117.622 162.117 117.332 161.975C117.022 161.854 116.719 161.712 116.403 161.598C115.136 161.119 113.795 160.749 112.434 160.412C111.753 160.237 111.072 160.082 110.378 159.94C109.691 159.785 108.997 159.664 108.296 159.529C107.615 159.408 106.867 159.246 106.146 159.098C105.419 158.97 104.704 158.761 103.99 158.572C101.14 157.777 98.3702 156.699 95.7691 155.304C94.4551 154.63 93.2152 153.822 92.0562 152.912C91.4767 152.46 90.9241 151.962 90.4053 151.436C89.8864 150.911 89.3878 150.358 88.97 149.731C88.9093 149.644 88.9363 149.522 89.0239 149.468C89.0845 149.428 89.1586 149.428 89.2193 149.462H89.226C91.7665 150.857 94.2125 152.191 96.726 153.424C99.2395 154.657 101.894 155.574 104.597 156.22C105.277 156.369 105.951 156.551 106.638 156.652C107.326 156.773 107.993 156.901 108.727 157.016C109.448 157.137 110.169 157.238 110.884 157.386C111.605 157.514 112.319 157.656 113.04 157.824C114.475 158.141 115.911 158.518 117.339 159.03C117.696 159.152 118.053 159.307 118.411 159.448C118.768 159.617 119.125 159.758 119.489 159.96C119.846 160.149 120.21 160.358 120.58 160.621C120.762 160.749 120.951 160.904 121.14 161.079C121.241 161.173 121.335 161.281 121.436 161.396L121.598 161.611C121.625 161.645 121.665 161.712 121.692 161.766L121.739 161.847C121.76 161.888 121.8 161.982 121.827 162.049L121.787 161.941C122.13 162.73 122.393 163.458 122.649 164.226C122.898 164.987 123.121 165.769 123.303 166.564C123.66 168.154 123.916 169.819 123.673 171.618C123.552 172.514 123.283 173.464 122.73 174.334" fill="#232323"/>
<path d="M76.497 174.138C75.1291 173.444 73.8218 172.602 72.6426 171.605C71.4633 170.614 70.3649 169.502 69.4552 168.256C69.3407 168.101 69.2194 167.952 69.1048 167.797L68.7949 167.312C68.5927 166.989 68.3838 166.665 68.2019 166.322C67.8649 165.634 67.5145 164.954 67.2854 164.226C66.7531 162.804 66.497 161.295 66.4431 159.805C66.4431 159.63 66.5711 159.482 66.7531 159.475C66.8744 159.475 66.9889 159.536 67.0428 159.644C68.4445 162.218 69.745 164.61 71.4835 166.659C72.3191 167.703 73.3164 168.613 74.3744 169.421C75.439 170.223 76.5779 170.937 77.7975 171.51C79.0105 172.09 80.284 172.561 81.5846 172.952C82.8919 173.336 84.2328 173.613 85.594 173.828C86.9552 174.03 88.3298 174.172 89.7112 174.226C90.4053 174.246 91.0926 174.273 91.7867 174.266C92.4673 174.26 93.1883 174.246 93.815 174.192H93.9363" fill="#232323"/>
<path d="M111.362 159.3C109.866 149.448 102.811 139.522 102.744 139.421L104.88 137.885C105.183 138.31 112.373 148.417 113.963 158.902L111.362 159.3Z" fill="#232323"/>
<path d="M112.4 157.097L111.571 154.603C116.322 153.02 121.16 150.088 124.381 147.905L125.857 150.082C120.972 153.39 116.45 155.749 112.4 157.097Z" fill="#232323"/>
<path d="M130.688 146.557L129.064 144.489C129.839 143.882 130.284 143.505 130.291 143.498C130.493 143.33 130.736 143.222 130.992 143.195C138.074 142.4 142.44 140.553 143.289 138.013C144.098 135.587 141.638 132.568 140.628 131.605C140.237 131.234 140.109 130.668 140.304 130.169C141.585 126.888 141.713 124.549 140.695 123.397C139.341 121.874 135.978 122.332 134.799 122.642C134.421 122.744 134.017 122.663 133.7 122.44C133.384 122.211 133.182 121.861 133.155 121.47C132.966 118.923 132.218 117.279 130.931 116.585C128.593 115.324 124.907 117.299 124.866 117.319L123.586 115.021C123.788 114.907 128.545 112.312 132.178 114.266C133.99 115.244 135.143 117.11 135.601 119.812C137.508 119.556 140.756 119.509 142.656 121.645C144.3 123.492 144.435 126.409 143.054 130.338C144.32 131.753 146.982 135.27 145.796 138.842C144.576 142.514 139.961 144.785 131.686 145.769C131.463 145.951 131.126 146.221 130.695 146.564L130.688 146.557Z" fill="#232323"/>
<mask id="mask1_69_1948" style="mask-type:luminance" maskUnits="userSpaceOnUse" x="32" y="29" width="71" height="63">
<path d="M40.7223 46.8341C39.2802 52.9459 36.6118 54.6844 32.2182 51.9419C32.1037 62.1642 34.0174 72.3124 37.8449 81.7935C40.6886 86.3555 46.9352 90.9916 56.9688 91.059C88.431 91.2612 103.66 81.2747 102.454 65.7558C101.881 58.4311 100.628 50.6144 98.9701 42.2856C97.9526 40.7694 96.8474 40.4055 95.6682 41.1804C93.4378 45.4055 90.3919 43.3368 85.4122 35.6414C79.024 25.7694 73.2761 27.8988 69.2532 41.3085C66.6521 46.9351 63.33 47.8516 59.8462 43.5861C50.3718 31.9891 44.0241 32.8853 40.729 46.8408" fill="white"/>
</mask>
<g mask="url(#mask1_69_1948)">
<path d="M86.2464 13.9266L20.6125 43.3823L49.8641 108.561L115.498 79.1055L86.2464 13.9266Z" fill="url(#paint0_linear_69_1948)"/>
</g>
<path d="M89.1385 86.7126C81.2948 90.2301 70.4121 92.0159 56.962 91.9283C48.2693 91.8743 40.8502 88.2558 37.1036 82.2517C37.0766 82.2113 37.0564 82.1641 37.0362 82.117C33.1413 72.4809 31.2343 62.3192 31.3489 51.9284C31.3489 51.6116 31.5241 51.3219 31.8003 51.1736C32.0766 51.0254 32.4136 51.0321 32.6831 51.2006C34.361 52.2518 35.7356 52.5685 36.7666 52.144C38.0941 51.5982 39.1386 49.7451 39.8731 46.6319C41.5577 39.4823 44.0443 35.6211 47.4607 34.8327C51.0591 34.0039 55.3313 36.6791 60.5132 43.0268C61.9013 44.7181 63.2019 45.5065 64.3811 45.3516C65.776 45.1764 67.1776 43.6669 68.4242 40.985C70.7423 33.3031 73.6735 29.1521 77.1371 28.6602C80.0549 28.2424 83.0805 30.4325 86.1398 35.1494C89.3137 40.0551 91.6587 42.5079 93.1007 42.4473C93.7139 42.4203 94.3137 41.8543 94.8932 40.7626C94.9606 40.6346 95.0616 40.52 95.1897 40.4392C95.9376 39.9473 97.8783 39.0982 99.6977 41.7869C99.7651 41.8812 99.8056 41.989 99.8325 42.1036C101.692 51.4634 102.804 58.9566 103.33 65.6817C103.775 71.4162 102.083 76.3757 98.3096 80.4323C95.9983 82.9188 92.9255 85.0145 89.152 86.7059L89.1385 86.7126ZM38.6265 81.3959C39.9742 83.5253 45.1022 90.1089 56.9755 90.183C76.3959 90.311 90.2436 86.524 97.0225 79.2463C100.452 75.5604 101.989 71.0456 101.585 65.8165C101.072 59.206 99.9808 51.8273 98.1546 42.6225C97.3056 41.4297 96.7193 41.5645 96.3285 41.7869C95.4525 43.3502 94.4282 44.1386 93.1883 44.1925C90.9309 44.2936 88.4646 41.9486 84.6843 36.0996C82.0698 32.0564 79.5495 30.0821 77.3932 30.3853C74.6911 30.7694 72.1641 34.6306 70.0887 41.5443C70.0752 41.5847 70.0617 41.6252 70.0482 41.6588C68.5051 44.9944 66.679 46.8206 64.617 47.0766C62.7976 47.3057 60.9647 46.3152 59.179 44.1251C54.5227 38.4311 50.7154 35.8705 47.8717 36.5308C45.2033 37.1508 43.0874 40.6818 41.5914 47.0295C40.7087 50.7761 39.3542 52.9728 37.4472 53.7545C36.1804 54.2734 34.7518 54.1656 33.1076 53.4041C33.1817 63.0335 35.0416 72.4337 38.6399 81.3892L38.6265 81.3959Z" fill="#3B1942"/>
<g opacity="0.6">
<path fill-rule="evenodd" clip-rule="evenodd" d="M69.9674 66.9485L66.4836 56.7868L61.0254 67.8717L68.9769 76.6049L69.9674 66.9485ZM49.4419 90.028C51.6589 90.6547 54.1656 91.032 56.9621 91.0455C59.4755 91.059 61.8879 91.0118 64.1925 90.8973C64.3071 90.5738 64.4149 90.2436 64.516 89.9134C54.361 90.7692 49.5497 83.2423 50.0686 67.3326C53.2559 64.6305 54.8866 61.7599 56.113 59.1521C62.0227 46.6049 69.3071 46.3017 77.7976 56.9755C81.4634 61.5847 85.7019 62.5146 89.6035 60.5267C84.0981 60.055 78.7679 56.4836 73.6062 49.8259C67.4674 46.113 62.2249 46.7464 57.8852 51.7329C52.6764 62.5685 48.2829 67.1305 44.6912 65.4122L33.8354 53.9432C35.0551 62.4742 35.9042 70.4458 37.764 76.4499C40.136 83.431 45.1831 87.4471 50.7761 89.1857C50.3246 89.4754 49.8799 89.7517 49.4419 90.0145V90.028Z" fill="white"/>
</g>
<path d="M89.1385 86.7126C81.2948 90.2301 70.4121 92.0159 56.962 91.9283C48.2693 91.8743 40.8502 88.2558 37.1036 82.2517C37.0766 82.2113 37.0564 82.1641 37.0362 82.117C33.1413 72.4809 31.2343 62.3192 31.3489 51.9284C31.3489 51.6116 31.5241 51.3219 31.8003 51.1736C32.0766 51.0254 32.4136 51.0321 32.6831 51.2006C34.361 52.2518 35.7356 52.5685 36.7666 52.144C38.0941 51.5982 39.1386 49.7451 39.8731 46.6319C41.5577 39.4823 44.0443 35.6211 47.4607 34.8327C51.0591 34.0039 55.3313 36.6791 60.5132 43.0268C61.9013 44.7181 63.2019 45.5065 64.3811 45.3516C65.776 45.1764 67.1776 43.6669 68.4242 40.985C70.7423 33.3031 73.6735 29.1521 77.1371 28.6602C80.0549 28.2424 83.0805 30.4325 86.1398 35.1494C89.3137 40.0551 91.6587 42.5079 93.1007 42.4473C93.7139 42.4203 94.3137 41.8543 94.8932 40.7626C94.9606 40.6346 95.0616 40.52 95.1897 40.4392C95.9376 39.9473 97.8783 39.0982 99.6977 41.7869C99.7651 41.8812 99.8056 41.989 99.8325 42.1036C101.692 51.4634 102.804 58.9566 103.33 65.6817C103.775 71.4162 102.083 76.3757 98.3096 80.4323C95.9983 82.9188 92.9255 85.0145 89.152 86.7059L89.1385 86.7126ZM38.6265 81.3959C39.9742 83.5253 45.1022 90.1089 56.9755 90.183C76.3959 90.311 90.2436 86.524 97.0225 79.2463C100.452 75.5604 101.989 71.0456 101.585 65.8165C101.072 59.206 99.9808 51.8273 98.1546 42.6225C97.3056 41.4297 96.7193 41.5645 96.3285 41.7869C95.4525 43.3502 94.4282 44.1386 93.1883 44.1925C90.9309 44.2936 88.4646 41.9486 84.6843 36.0996C82.0698 32.0564 79.5495 30.0821 77.3932 30.3853C74.6911 30.7694 72.1641 34.6306 70.0887 41.5443C70.0752 41.5847 70.0617 41.6252 70.0482 41.6588C68.5051 44.9944 66.679 46.8206 64.617 47.0766C62.7976 47.3057 60.9647 46.3152 59.179 44.1251C54.5227 38.4311 50.7154 35.8705 47.8717 36.5308C45.2033 37.1508 43.0874 40.6818 41.5914 47.0295C40.7087 50.7761 39.3542 52.9728 37.4472 53.7545C36.1804 54.2734 34.7518 54.1656 33.1076 53.4041C33.1817 63.0335 35.0416 72.4337 38.6399 81.3892L38.6265 81.3959Z" fill="#232323"/>
<g opacity="0.2">
<path fill-rule="evenodd" clip-rule="evenodd" d="M74.9473 66.6587L67.5618 56.4499L66.0052 67.5819L70.0888 76.6857L74.9473 66.6655V66.6587ZM50.7829 89.2059C50.3651 89.1789 49.9406 89.1452 49.5093 89.1115C49.9338 89.1452 50.3584 89.1789 50.7829 89.2059ZM37.097 53.9768L36.8476 53.0469H36.8341C36.7465 53.0806 36.6522 53.1008 36.5579 53.1278C33.5794 53.997 34.4285 56.3353 39.105 60.1426C43.0201 66.497 47.1913 67.3596 51.632 62.7234C53.7479 60.4728 56.0255 56.3623 58.4648 50.3785C60.8907 47.737 64.1926 46.5847 68.3637 46.9418C70.2909 47.1035 75.4055 50.8434 83.7073 58.1615C83.7949 58.4714 83.8758 58.7814 83.9567 59.0914V59.0509C86.7801 59.8865 89.1656 59.6372 91.0995 58.303C93.175 56.4836 94.7383 52.7909 95.7895 47.2248C96.1467 46.6184 96.4297 46.0793 96.6521 45.6076C95.4054 51.8542 93.6669 56.0051 91.4432 58.0536C94.1992 55.9108 95.9917 51.4566 96.834 44.6777C98.1345 56.9553 92.2451 65.0145 84.7316 62.4809V62.4472C88.2019 80.2773 79.2734 89.2732 57.9325 89.4484C58.3031 89.4484 58.6737 89.4417 59.0376 89.4282C60.6481 89.9336 62.4742 90.1021 64.5228 89.9269L64.2397 90.7827C67.7707 90.7557 71.3152 90.4323 74.8597 89.7988C74.6642 89.563 74.4756 89.3204 74.2869 89.0778C93.5389 85.1493 101.605 75.9781 99.772 61.3825C98.2289 49.0577 98.1008 42.8178 98.1008 42.8111C97.4809 42.4472 97.0833 42.555 96.9081 43.1278C96.5712 42.9324 95.9445 43.02 95.0348 43.3906C92.3461 45.803 89.5429 44.9 86.6251 40.6885C79.9203 29.3879 74.4688 29.4149 70.2572 40.7693C69.3543 42.4607 68.3637 43.7006 67.2856 44.4957C65.2775 46.8205 62.9998 46.861 60.6144 44.4553C59.5026 43.8017 60.2505 44.9539 59.0241 43.7208C49.1185 34.0982 44.6172 38.5321 41.8476 49.772C41.5309 51.1534 38.4514 53.5456 37.0835 53.9836L37.097 53.9768Z" fill="#000072"/>
</g>
<path fill-rule="evenodd" clip-rule="evenodd" d="M32.4541 58.869C30.857 63.1076 29.8395 66.0186 29.3948 67.6022C31.5848 71.6386 33.7546 74.59 35.9177 76.4566C34.0848 70.7491 32.9258 64.8461 32.4541 58.869Z" fill="#FF0086"/>
<path d="M36.1806 77.0496C35.9515 77.1507 35.682 77.117 35.4865 76.9485C33.2763 75.0415 31.0324 72.0024 28.8221 67.9122C28.7413 67.7639 28.7211 67.5887 28.7682 67.4202C29.213 65.8232 30.2507 62.8717 31.841 58.6332C31.9488 58.3435 32.2453 58.175 32.5485 58.2154C32.8518 58.2559 33.0876 58.5052 33.1078 58.8152C33.5728 64.7316 34.7251 70.6008 36.5377 76.2477C36.6253 76.524 36.5175 76.834 36.2749 76.9957C36.248 77.0159 36.2143 77.0294 36.1806 77.0496ZM30.0957 67.5213C31.5782 70.2302 33.0607 72.4337 34.5229 74.1251C33.3774 70.0752 32.5553 65.9378 32.0701 61.7599C31.1132 64.3677 30.4529 66.2949 30.0957 67.5213Z" fill="#232323"/>
<path fill-rule="evenodd" clip-rule="evenodd" d="M105.082 54.9338L100.015 47.7842C100.965 53.0335 101.713 58.0739 102.198 62.8987L105.082 54.9338Z" fill="#FF0086"/>
<path d="M102.468 63.4984C102.36 63.5455 102.238 63.5657 102.117 63.5523C101.814 63.5118 101.578 63.2692 101.544 62.966C101.093 58.4242 100.379 53.4984 99.3678 47.8987C99.3139 47.6022 99.4689 47.3057 99.7452 47.1844C99.7452 47.1844 99.7519 47.1844 99.7586 47.1844C100.042 47.0631 100.372 47.1574 100.547 47.4068L105.614 54.5563C105.736 54.7315 105.769 54.9539 105.695 55.1561L102.811 63.121C102.751 63.2895 102.623 63.4242 102.461 63.4984H102.468ZM101.167 50.5334C101.74 53.9162 102.198 57.0563 102.548 60.0213L104.354 55.028L101.167 50.5267V50.5334Z" fill="#232323"/>
<path d="M97.0161 45.0686C97.6765 45.0686 95.4595 58.4782 89.7924 60.9378C86.3557 62.2518 82.4204 59.9944 77.6361 54.9203C72.5889 49.5632 68.5863 47.1845 65.0485 47.9594C61.4501 48.7411 58.0944 52.7572 54.3814 60.1696C50.8504 67.2248 47.3532 68.1952 44.0378 66.5308C41.8882 65.4526 34.1726 55.985 34.3747 54.5766C34.8532 54.3071 42.5755 63.5523 44.9408 64.7316C47.2116 65.8704 49.7386 64.9405 52.589 59.2599C56.5849 51.2815 60.3585 46.9217 64.6173 45.9917C68.9367 45.0483 73.5256 47.6292 79.0984 53.5456C83.2762 57.9796 86.5377 60.0213 89.0646 59.0577C94.6441 56.9284 96.194 44.7316 97.0093 45.0618L97.0161 45.0686Z" fill="#232323"/>
<path fill-rule="evenodd" clip-rule="evenodd" d="M72.6898 66.5981L67.2586 57.3798L63.7478 67.5145L69.4284 75.6816L72.6898 66.5981Z" fill="#FF0086"/>
<g opacity="0.3">
<path fill-rule="evenodd" clip-rule="evenodd" d="M69.0509 71.7396C67.3596 70.1021 65.6749 68.4579 63.9836 66.8205L63.741 67.5145L69.4215 75.6884L72.683 66.5981L72.3258 65.9916C71.2342 67.9054 70.1426 69.8259 69.0442 71.7396H69.0509Z" fill="#000072"/>
</g>
<g opacity="0.45">
<path fill-rule="evenodd" clip-rule="evenodd" d="M66.3689 66.9889L68.6735 66.7531L67.5414 58.6264L67.3999 57.6157L67.2921 57.9122L64.071 67.2248L66.3689 66.9889Z" fill="white"/>
</g>
<g opacity="0.3">
<path fill-rule="evenodd" clip-rule="evenodd" d="M68.6738 66.7531L69.6037 73.3838L69.8463 75.1291L73.0067 66.3083L70.2641 66.5914L68.6738 66.7531Z" fill="white"/>
</g>
<path d="M69.698 76.2814C69.6441 76.3083 69.5767 76.3218 69.516 76.3353C69.2734 76.369 69.0308 76.2612 68.8893 76.059L63.2088 67.8852C63.0875 67.71 63.0605 67.4943 63.1279 67.2989L66.6387 57.1642C66.7195 56.9216 66.9419 56.7531 67.1912 56.7262C67.4473 56.6992 67.6899 56.8273 67.8179 57.0429L73.2492 66.2612C73.3502 66.4297 73.3637 66.6318 73.3031 66.8138L70.0416 75.904C69.981 76.0725 69.8529 76.2073 69.6912 76.2814H69.698ZM64.4756 67.4135L69.2397 74.2666L71.9688 66.6588L67.4136 58.9229L64.4756 67.4068V67.4135Z" fill="#232323"/>
<path d="M77.7031 54.9944C77.2853 54.6305 77.2382 53.9904 77.6088 53.5726C77.9727 53.1548 78.6061 53.1076 79.0306 53.4783C79.536 53.9163 80.0279 54.2936 80.5063 54.6036L80.5602 54.6373C81.8877 55.4863 83.1007 55.8367 84.2058 55.6952C85.3176 55.5537 86.3756 54.9001 87.3796 53.7411C87.7166 53.3502 88.0467 52.9122 88.3635 52.427C90.7354 48.7478 88.2152 61.9216 79.4753 56.3219L79.4214 56.2882C78.8554 55.9243 78.2894 55.4931 77.7098 54.9944H77.7031Z" fill="#232323"/>
<path d="M54.3073 56.0321C54.5701 55.5402 55.1766 55.3583 55.6685 55.6211C56.1604 55.8839 56.3424 56.4903 56.0796 56.9822C55.5607 57.9458 55.0283 58.7747 54.469 59.4485C53.3909 60.7626 52.2184 61.5712 50.9448 61.8879C46.7737 62.4135 43.6874 56.241 46.4974 58.5523C46.9691 58.9364 47.4138 59.2464 47.8451 59.4755C48.7885 59.9809 49.6577 60.1359 50.4596 59.9337C51.2952 59.7316 52.1106 59.1386 52.9057 58.175C53.3841 57.5887 53.8491 56.8744 54.3006 56.0388L54.3073 56.0321Z" fill="#232323"/>
<path fill-rule="evenodd" clip-rule="evenodd" d="M62.4403 38.3166C64.8864 37.2182 67.7637 38.3166 68.8621 40.7627C69.9605 43.2087 68.8621 46.0861 66.416 47.1845C63.97 48.2829 61.0926 47.1845 59.9942 44.7384C58.8958 42.2923 59.9942 39.415 62.4336 38.3166H62.4403Z" fill="url(#paint1_linear_69_1948)"/>
<path d="M66.7734 47.9729C63.8893 49.2667 60.4931 47.9729 59.1993 45.0888C57.9055 42.2047 59.1993 38.8085 62.0834 37.5147C64.9674 36.2209 68.3637 37.5147 69.6575 40.3988C70.9513 43.2828 69.6575 46.6791 66.7734 47.9729ZM62.7976 39.1117C60.7963 40.0079 59.8933 42.3731 60.7963 44.3812C61.6925 46.3826 64.0577 47.2855 66.0591 46.3826C68.0604 45.4796 68.9634 43.1211 68.0604 41.113C67.1642 39.1117 64.799 38.2087 62.7909 39.1117H62.7976Z" fill="#232323"/>
<g opacity="0.3">
<path fill-rule="evenodd" clip-rule="evenodd" d="M61.1469 44.9472C61.7938 46.4836 63.3167 47.4742 64.9811 47.4472C66.6523 47.4203 68.1347 46.3825 68.7345 44.8192C69.3342 43.2626 68.9231 41.4971 67.6967 40.3583C68.1819 42.0901 67.5215 43.9432 66.0458 44.9742C64.57 46.0052 62.6091 45.9917 61.1401 44.9472" fill="#000072"/>
</g>
<g opacity="0.65">
<path fill-rule="evenodd" clip-rule="evenodd" d="M62.3935 39.7114C63.5323 38.9162 64.853 38.8421 65.345 39.5497C65.8369 40.2572 65.318 41.4701 64.1792 42.2653C63.0404 43.0604 61.7196 43.1345 61.2277 42.427C60.7358 41.7195 61.2547 40.5065 62.3867 39.7114" fill="white"/>
</g>
<path fill-rule="evenodd" clip-rule="evenodd" d="M29.2062 45.4594C31.2075 44.5632 33.5593 45.4594 34.4555 47.454C35.3517 49.4553 34.4555 51.8071 32.4609 52.7033C30.4595 53.5995 28.1078 52.7033 27.2116 50.7087C26.3153 48.7141 27.2116 46.3556 29.2062 45.4594Z" fill="url(#paint2_linear_69_1948)"/>
<path d="M32.8111 53.4984C30.3718 54.5901 27.5012 53.4984 26.4095 51.0591C25.3179 48.6197 26.4095 45.7491 28.8489 44.6575C31.2882 43.5658 34.1588 44.6575 35.2505 47.0901C36.3421 49.5294 35.2505 52.4 32.8111 53.4917V53.4984ZM29.5632 46.2545C28.0066 46.9553 27.3058 48.7882 28.0066 50.3515C28.7074 51.9081 30.5403 52.6089 32.1036 51.9081C33.6602 51.2073 34.361 49.3744 33.6602 47.8111C32.9594 46.2545 31.1265 45.5537 29.5632 46.2545Z" fill="#232323"/>
<g opacity="0.3">
<path fill-rule="evenodd" clip-rule="evenodd" d="M28.1885 50.5807C28.6737 51.7329 29.8125 52.4742 31.0591 52.454C32.3057 52.4338 33.4176 51.6521 33.8691 50.4863C34.3138 49.3206 34.0106 47.9998 33.0941 47.144C33.458 48.4445 32.9594 49.8259 31.861 50.6009C30.7559 51.3758 29.2869 51.3623 28.1952 50.5807" fill="#000072"/>
</g>
<g opacity="0.65">
<path fill-rule="evenodd" clip-rule="evenodd" d="M29.1184 46.6656C29.9675 46.0726 30.958 46.0119 31.3287 46.5443C31.6993 47.0699 31.3084 47.9796 30.4594 48.5793C29.6103 49.1723 28.6198 49.2262 28.2491 48.7006C27.8785 48.175 28.2694 47.2653 29.1184 46.6656Z" fill="white"/>
</g>
<path fill-rule="evenodd" clip-rule="evenodd" d="M75.6076 22.2991C73.6062 23.1953 72.71 25.547 73.613 27.5484C74.5159 29.5497 76.8609 30.4459 78.8623 29.543C80.8636 28.64 81.7598 26.295 80.8569 24.2937C79.9539 22.2923 77.6089 21.3961 75.6076 22.2991Z" fill="url(#paint3_linear_69_1948)"/>
<path d="M79.2193 30.3381C76.78 31.4297 73.9094 30.3381 72.8177 27.9055C71.7261 25.4729 72.8177 22.5955 75.2571 21.5039C77.6964 20.4122 80.5671 21.5039 81.6587 23.9432C82.7503 26.3826 81.6587 29.2532 79.2193 30.3448V30.3381ZM75.9714 23.0942C74.4148 23.795 73.714 25.6279 74.4148 27.1912C75.1156 28.7545 76.9485 29.4486 78.5118 28.7478C80.0751 28.047 80.7692 26.2141 80.0684 24.6508C79.3676 23.0874 77.5347 22.3934 75.9714 23.0942Z" fill="#232323"/>
<g opacity="0.3">
<path fill-rule="evenodd" clip-rule="evenodd" d="M80.1157 24.9405C80.6548 26.0659 80.4526 27.4136 79.6036 28.33C78.7545 29.2464 77.4338 29.5632 76.268 29.1184C75.0955 28.6737 74.3138 27.5685 74.2869 26.3219C75.0146 27.454 76.3758 28.0066 77.6898 27.6966C79.0038 27.3866 79.9742 26.2815 80.1157 24.9405Z" fill="#000072"/>
</g>
<g opacity="0.65">
<path fill-rule="evenodd" clip-rule="evenodd" d="M76.5712 23.0335C75.5604 23.2694 74.8596 23.9769 75.0078 24.6036C75.1561 25.2303 76.0995 25.547 77.1035 25.3044C78.1143 25.0686 78.8151 24.361 78.6668 23.7343C78.5186 23.1077 77.5752 22.7909 76.5712 23.0335Z" fill="white"/>
</g>
<path fill-rule="evenodd" clip-rule="evenodd" d="M95.4322 35.6346C97.4336 34.7384 99.7853 35.6346 100.682 37.6292C101.578 39.6238 100.682 41.9823 98.687 42.8785C96.6924 43.7747 94.3339 42.8785 93.4376 40.8839C92.5414 38.8825 93.4376 36.5308 95.4322 35.6346Z" fill="url(#paint4_linear_69_1948)"/>
<path d="M99.0376 43.6804C96.5982 44.772 93.7276 43.6804 92.636 41.241C91.5443 38.8017 92.636 35.9311 95.0686 34.8394C97.5079 33.7478 100.379 34.8394 101.47 37.2788C102.562 39.7181 101.47 42.5888 99.0308 43.6804H99.0376ZM95.7896 36.4365C94.233 37.1373 93.5322 38.9702 94.233 40.5335C94.9338 42.0968 96.7667 42.7909 98.33 42.0901C99.8866 41.3893 100.587 39.5564 99.8866 37.9931C99.1858 36.4297 97.3529 35.7357 95.7896 36.4365Z" fill="#232323"/>
<g opacity="0.3">
<path fill-rule="evenodd" clip-rule="evenodd" d="M94.408 40.7626C94.8931 41.9149 96.032 42.6561 97.2786 42.6359C98.5319 42.6157 99.6438 41.8407 100.089 40.6682C100.533 39.5025 100.23 38.1817 99.3136 37.3259C99.6775 38.6197 99.1788 40.0079 98.0805 40.7828C96.9753 41.5577 95.5063 41.5442 94.408 40.7626Z" fill="#000072"/>
</g>
<g opacity="0.65">
<path fill-rule="evenodd" clip-rule="evenodd" d="M95.3447 36.8476C96.1938 36.2546 97.1844 36.1939 97.555 36.7263C97.9256 37.2519 97.5348 38.1616 96.6857 38.7613C95.8366 39.361 94.8461 39.4149 94.4755 38.8826C94.1048 38.357 94.4957 37.4473 95.3447 36.8476Z" fill="white"/>
</g>
<path fill-rule="evenodd" clip-rule="evenodd" d="M45.702 28.8017C47.7034 27.9055 50.0551 28.8017 50.9513 30.7963C51.8476 32.7977 50.9513 35.1494 48.9567 36.0456C46.9554 36.9419 44.6036 36.0456 43.7074 34.051C42.8112 32.0564 43.7074 29.6979 45.702 28.8017Z" fill="url(#paint5_linear_69_1948)"/>
<path d="M49.3072 36.8475C46.8679 37.9392 43.9973 36.8475 42.9056 34.4082C41.814 31.9688 42.9056 29.0982 45.345 28.0066C47.7843 26.9149 50.6549 28.0066 51.7466 30.4459C52.8382 32.8853 51.7466 35.7559 49.3072 36.8475ZM46.0525 29.6036C44.4959 30.3044 43.7951 32.1373 44.4959 33.7006C45.1967 35.2572 47.0296 35.9581 48.593 35.2572C50.1496 34.5564 50.8504 32.7236 50.1496 31.1602C49.4487 29.6036 47.6159 28.9028 46.0525 29.6036Z" fill="#232323"/>
<g opacity="0.3">
<path fill-rule="evenodd" clip-rule="evenodd" d="M44.678 33.9298C45.1632 35.0821 46.302 35.8233 47.5486 35.8031C48.7952 35.7829 49.9071 35.0012 50.3586 33.8354C50.8033 32.6697 50.5001 31.3489 49.5836 30.4931C49.9475 31.7869 49.4556 33.1751 48.3505 33.95C47.2454 34.7249 45.7764 34.7115 44.6847 33.9298" fill="#000072"/>
</g>
<g opacity="0.65">
<path fill-rule="evenodd" clip-rule="evenodd" d="M45.6143 30.0079C46.4633 29.4149 47.4539 29.3543 47.8245 29.8866C48.1951 30.4122 47.8043 31.3219 46.9552 31.9217C46.1062 32.5214 45.1156 32.5753 44.745 32.043C44.3744 31.5174 44.7652 30.6077 45.6143 30.0079Z" fill="white"/>
</g>
<path d="M58.3031 114.233C50.547 115.527 44.5161 109.873 43.7142 105.506C42.4945 98.8757 49.5767 95.4997 53.7209 100.102C54.3813 93.9499 62.1036 92.528 65.0012 98.6129C66.9149 102.622 65.3448 110.736 58.3031 114.233Z" fill="#FF0086"/>
<g opacity="0.3">
<path d="M58.3032 114.233C52.8989 115.129 48.337 112.663 45.7898 109.603C48.2696 111.51 51.7938 112.73 55.8369 112.036C62.5553 108.741 64.1388 101.281 62.3733 97.6291C61.6995 96.2275 60.7224 95.2639 59.6307 94.7046C61.686 94.7989 63.7749 96.0321 65.0013 98.6062C66.9151 102.616 65.345 110.729 58.3032 114.226V114.233Z" fill="#262F6A"/>
</g>
<g opacity="0.6">
<path d="M53.5525 99.9135C49.4218 96.7396 43.8153 99.927 44.9406 106.052C45.4191 108.674 47.7776 111.753 51.2681 113.519C47.1172 111.908 44.2533 108.417 43.721 105.506C42.5215 98.9701 49.3948 95.5941 53.5592 99.9135H53.5525Z" fill="white"/>
</g>
<g opacity="0.6">
<path d="M62.5281 95.6614C59.1049 94.4485 54.9944 96.5307 54.5362 100.83C54.2801 100.54 54.0106 100.284 53.7275 100.055C54.2666 95.2773 59.0712 93.3771 62.5281 95.6614Z" fill="white"/>
</g>
<path d="M46.5646 111.403C44.6373 109.651 43.3638 107.535 43.0134 105.628C42.4002 102.279 43.7546 99.2463 46.477 97.9054C48.7141 96.8003 51.2681 97.1304 53.2761 98.7005C53.9837 96.2544 55.857 94.4889 58.3165 94.0711C61.3017 93.5658 64.1791 95.2234 65.6481 98.2962C67.7033 102.602 65.985 111.2 58.6198 114.86C58.5591 114.893 58.4917 114.913 58.4176 114.927C53.5996 115.729 49.3813 113.957 46.5646 111.396V111.403ZM52.7438 100.116C51.1131 98.6399 48.9635 98.2625 47.1036 99.1789C45.4055 100.015 43.8085 102.083 44.4082 105.372C45.1629 109.482 50.857 114.684 58.0807 113.545C64.5969 110.237 66.1602 102.683 64.361 98.9094C62.9257 95.8906 60.419 95.156 58.5524 95.4728C56.3152 95.8569 54.698 97.6965 54.4284 100.17C54.4015 100.446 54.206 100.682 53.9432 100.769C53.6804 100.857 53.3839 100.776 53.1953 100.567C53.0538 100.405 52.8988 100.257 52.7438 100.116Z" fill="#232323"/>
<g opacity="0.25">
<path d="M49.0356 108.456C49.9951 108.145 50.3889 106.708 49.9152 105.245C49.4415 103.783 48.2797 102.85 47.3203 103.161C46.3608 103.471 45.967 104.909 46.4407 106.371C46.9144 107.833 48.0762 108.767 49.0356 108.456Z" fill="white"/>
</g>
<g opacity="0.25">
<path d="M52.5974 110.033C52.7811 109.474 52.3568 108.833 51.6497 108.6C50.9426 108.368 50.2205 108.632 50.0369 109.191C49.8532 109.749 50.2775 110.391 50.9846 110.623C51.6917 110.856 52.4138 110.591 52.5974 110.033Z" fill="white"/>
</g>
<path d="M97.5951 105.082C89.839 106.376 83.808 100.722 83.0062 96.3555C81.7865 89.7248 88.8687 86.3488 93.0129 90.9512C93.6732 84.799 101.396 83.3771 104.293 89.462C106.207 93.4714 104.637 101.585 97.5951 105.082Z" fill="#FF0086"/>
<g opacity="0.3">
<path d="M97.5952 105.082C92.1909 105.978 87.629 103.512 85.0818 100.453C87.5616 102.36 91.0858 103.579 95.1289 102.885C101.847 99.59 103.431 92.1305 101.665 88.4782C100.991 87.0766 100.014 86.113 98.9227 85.5537C100.978 85.648 103.067 86.8812 104.293 89.4553C106.207 93.4647 104.637 101.578 97.5952 105.075V105.082Z" fill="#262F6A"/>
</g>
<g opacity="0.6">
<path d="M92.8447 90.7625C88.714 87.5887 83.1075 90.776 84.2329 96.9013C84.7113 99.5226 87.0698 102.602 90.5604 104.368C86.4094 102.757 83.5455 99.2665 83.0132 96.3555C81.8137 89.8191 88.687 86.4431 92.8515 90.7625H92.8447Z" fill="white"/>
</g>
<g opacity="0.6">
<path d="M101.827 86.5105C98.404 85.2976 94.2935 87.3798 93.8352 91.679C93.5792 91.3892 93.3096 91.1331 93.0266 90.904C93.5657 86.1264 98.3703 84.2262 101.827 86.5105Z" fill="white"/>
</g>
<path d="M85.8568 102.252C83.9296 100.5 82.656 98.3838 82.3056 96.4768C81.6924 93.1278 83.0468 90.0954 85.7692 88.7545C88.0064 87.6493 90.5603 87.9795 92.5684 89.5496C93.2759 87.1035 95.1492 85.338 97.6088 84.9202C100.594 84.4148 103.471 86.0725 104.94 89.1453C106.996 93.4512 105.277 102.05 97.912 105.709C97.8514 105.742 97.784 105.763 97.7099 105.776C92.8918 106.578 88.6735 104.806 85.8568 102.245V102.252ZM92.036 90.9647C90.4053 89.489 88.2557 89.1116 86.3959 90.028C84.6978 90.8636 83.1007 92.9323 83.7005 96.2207C84.4552 100.331 90.1492 105.533 97.3729 104.395C103.889 101.086 105.452 93.5321 103.653 89.7585C102.218 86.7396 99.7112 86.0051 97.8446 86.3219C95.6074 86.7059 93.9902 88.5456 93.7207 91.0186C93.6937 91.2949 93.4983 91.5307 93.2355 91.6183C92.9727 91.7059 92.6762 91.6251 92.4875 91.4162C92.346 91.2545 92.191 91.1062 92.036 90.9647Z" fill="#232323"/>
<g opacity="0.25">
<path d="M88.3257 99.3053C89.2851 98.9944 89.6789 97.5571 89.2052 96.0949C88.7316 94.6327 87.5698 93.6993 86.6103 94.0101C85.6508 94.321 85.257 95.7583 85.7307 97.2205C86.2044 98.6827 87.3662 99.6161 88.3257 99.3053Z" fill="white"/>
</g>
<g opacity="0.25">
<path d="M91.8973 100.888C92.0809 100.329 91.6566 99.6878 90.9495 99.4553C90.2424 99.2228 89.5203 99.4872 89.3367 100.046C89.153 100.604 89.5774 101.246 90.2844 101.478C90.9915 101.711 91.7136 101.446 91.8973 100.888Z" fill="white"/>
</g>
</g>
<path d="M76.8542 163.303C117.643 163.303 150.708 130.237 150.708 89.4485C150.708 48.66 117.643 15.5943 76.8542 15.5943C36.0657 15.5943 3 48.66 3 89.4485C3 130.237 36.0657 163.303 76.8542 163.303Z" stroke="#232323" stroke-width="5.06" stroke-linecap="round" stroke-linejoin="round"/>
<defs>
<linearGradient id="paint0_linear_69_1948" x1="64.2898" y1="28.1013" x2="72.2802" y2="98.4716" gradientUnits="userSpaceOnUse">
<stop stop-color="#FFCC00"/>
<stop offset="1" stop-color="#FF9966"/>
</linearGradient>
<linearGradient id="paint1_linear_69_1948" x1="62.2681" y1="38.2815" x2="67.6169" y2="49.3605" gradientUnits="userSpaceOnUse">
<stop stop-color="#FFCC00"/>
<stop offset="1" stop-color="#FF9966"/>
</linearGradient>
<linearGradient id="paint2_linear_69_1948" x1="28.1015" y1="45.6235" x2="34.8877" y2="54.2109" gradientUnits="userSpaceOnUse">
<stop stop-color="#FFCC00"/>
<stop offset="1" stop-color="#FF9966"/>
</linearGradient>
<linearGradient id="paint3_linear_69_1948" x1="75.7124" y1="22.683" x2="79.0883" y2="29.876" gradientUnits="userSpaceOnUse">
<stop stop-color="#FFCC00"/>
<stop offset="1" stop-color="#FF9966"/>
</linearGradient>
<linearGradient id="paint4_linear_69_1948" x1="95.5712" y1="35.7292" x2="98.6492" y2="43.0485" gradientUnits="userSpaceOnUse">
<stop stop-color="#FFCC00"/>
<stop offset="1" stop-color="#FF9966"/>
</linearGradient>
<linearGradient id="paint5_linear_69_1948" x1="45.3309" y1="29.013" x2="50.5151" y2="37.8984" gradientUnits="userSpaceOnUse">
<stop stop-color="#FFCC00"/>
<stop offset="1" stop-color="#FF9966"/>
</linearGradient>
</defs>
</svg>
