<svg width="244" height="266" viewBox="0 0 244 266" fill="none" xmlns="http://www.w3.org/2000/svg">
<g clip-path="url(#clip0_69_400)">
<path d="M158.76 130.21C158.57 130.13 158.35 130.05 158.13 129.97C158.17 129.87 159.88 126.15 159.18 122.92C159.18 122.92 155.78 121.52 154.39 119.35C154.3 119.21 154.21 119.01 154.1 118.74C153.45 117.04 152.48 112.87 150.95 108.36C148.9 102.31 145.85 95.65 141.21 93.53C141.21 93.53 143.03 92.02 142.45 88.6C142.27 87.56 141.88 86.34 141.14 84.94H141.12C142.02 83.26 142.78 80.69 141.81 77.46C141.81 77.46 138.34 78.54 135.91 81.36C138.33 72.14 142.53 65.72 142.66 65.52C142.66 65.52 129.89 66.92 116.34 82.87V82.97C114.42 82.97 112.16 83.07 109.65 83.39C107.96 83.6 106.14 83.92 104.24 84.36C101.33 85.04 98.74 85.89 96.51 86.78C95.13 87.33 93.88 87.9 92.77 88.45L92.73 88.37C73.53 80.05 61.46 84.43 61.46 84.43C61.46 84.43 68.19 88.34 74.53 95.66C71.1 94.2 67.51 94.77 67.51 94.77C68.06 98.09 69.89 100.06 71.43 101.17H71.42C71.4 101.91 71.42 102.57 71.49 103.17C72.03 108.18 75.15 108.93 75.15 108.93C71.92 112.88 72.13 120.2 72.96 126.53C73.53 130.85 74.39 134.71 74.66 136.72C74.73 137.25 74.76 137.66 74.73 137.91C74.44 140.47 72.01 143.23 72.01 143.23C72.83 146.48 76.07 149.09 76.07 149.09C75.19 149.96 74.73 150.78 74.73 150.78C78.2 156.2 83.62 159.36 89.57 161.12C104.23 165.44 122.14 161.23 122.14 161.23C122.14 161.23 130.85 159.22 139.93 154.5C148.69 149.95 157.81 142.87 159.8 132.62C159.91 132.06 160 131.49 160.06 130.92C160.06 130.92 159.56 130.57 158.74 130.23L158.76 130.21ZM126.54 150.19C126.45 150.46 126.35 150.74 126.25 151.02C125.91 151.93 125.52 152.87 125.06 153.81C123.43 157.12 119.2 158.1 116.29 155.85C115.21 155.02 114.23 154.14 113.36 153.26L113.16 153.06C109.89 149.73 108.11 146.52 108.11 146.52C112.32 146.58 115.08 144.28 116.47 142.71C117.16 141.93 117.42 140.86 117.19 139.84C117.43 140.86 118.13 141.71 119.1 142.1C121.03 142.89 124.53 143.73 128.28 141.82C128.28 141.82 128.1 145.63 126.55 150.19H126.54Z" fill="#2D2D2D"/>
<path d="M158 185.34C158 185.73 157.97 186.13 157.92 186.5C157.54 189.05 155.83 190.96 151.14 190.15L150.66 190.1C150.01 191.73 148.75 193.08 146.5 193.54C145.69 193.7 144.74 193.75 143.65 193.65C143 194.51 141.96 195.17 140.36 195.44C134.97 196.35 132.17 193.27 131.03 191.5C131.03 191.5 128.65 191.69 124.76 191.93C117.22 192.39 104.03 193.05 91.6798 192.86C90.2698 192.84 88.8598 192.81 87.4898 192.76C87.0498 190.45 86.8198 188.01 86.7398 185.56C86.6698 183.53 86.7098 181.48 86.8098 179.49C86.9398 177.07 87.1798 174.71 87.4598 172.55C87.7498 170.33 88.0798 168.3 88.3998 166.59C89.0298 163.23 89.5798 161.1 89.5798 161.1C91.4898 161.66 93.4598 162.08 95.4298 162.38C108.6 164.39 122.15 161.21 122.15 161.21C122.15 161.21 123.87 160.82 126.58 159.96C129.97 158.89 134.9 157.11 139.95 154.48C139.95 154.48 145.62 162.38 147.9 171.21C148.17 172.26 148.4 173.31 148.56 174.37C155.61 176.02 156.2 177.69 156.2 177.69C156.2 177.69 156.56 178.49 156.95 179.69C157.45 181.21 158.02 183.37 158 185.34Z" fill="#2D2D2D"/>
<path d="M166.54 160.17C166.54 160.17 166.1 160.55 165.31 161.16V161.19C163.13 160.44 160.65 162.02 160.65 164.53V164.56C157.15 166.93 152.5 169.68 147.9 171.21C147.01 167.76 145.6 164.47 144.22 161.72C142.05 157.42 139.94 154.48 139.94 154.48C145.29 151.7 150.78 147.97 154.69 143.16C157.18 140.1 159.03 136.59 159.81 132.61C159.81 132.61 169 127.5 169.77 137.67C169.77 137.67 181.35 134.63 176.65 146.7C176.65 146.7 188.4 157.71 166.54 160.18V160.17Z" fill="#2D2D2D"/>
<path d="M72.97 126.51C72.97 126.51 58.86 111.82 61.47 84.41C61.47 84.41 68.2 88.32 74.54 95.64C71.11 94.18 67.52 94.75 67.52 94.75C68.07 98.07 69.9 100.04 71.44 101.15H71.43C71.24 107.97 75.16 108.91 75.16 108.91C71.93 112.86 72.14 120.18 72.97 126.51Z" fill="white"/>
<path d="M150.95 108.35C148.9 102.3 145.85 95.64 141.21 93.52C141.21 93.52 144.31 90.95 141.14 84.93H141.12C142.02 83.25 142.78 80.68 141.81 77.45C141.81 77.45 138.34 78.53 135.91 81.35C138.36 71.98 142.67 65.5 142.67 65.5C157.12 88.93 150.95 108.35 150.95 108.35Z" fill="white"/>
<path d="M160.08 130.9C160.01 131.48 159.93 132.04 159.82 132.6C157.83 142.84 148.72 149.92 139.95 154.48C130.87 159.2 122.16 161.21 122.16 161.21C122.16 161.21 104.25 165.42 89.5898 161.1C83.6398 159.35 78.2198 156.18 74.7498 150.76C74.7498 150.76 75.2098 149.94 76.0898 149.07C76.0898 149.07 72.8498 146.46 72.0298 143.21C72.0298 143.21 74.4698 140.45 74.7498 137.89C74.7798 137.64 74.7498 137.24 74.6798 136.7C76.6498 134.94 79.8898 132.71 83.0398 133.49C88.0398 134.72 108.45 136.62 115.35 135.03C122.25 133.45 138.24 124.43 144.64 119.38C146.9 117.6 150.45 117.77 154.11 118.73C154.21 119 154.31 119.21 154.4 119.34C155.79 121.51 159.19 122.91 159.19 122.91C159.88 126.14 158.18 129.87 158.14 129.96C159.32 130.36 160.09 130.89 160.09 130.89L160.08 130.9Z" fill="white"/>
<path d="M128.27 141.82C128.27 141.82 128.09 145.63 126.54 150.19C126.54 150.19 123.55 148.87 119.5 149.81C115.45 150.75 113.35 153.26 113.35 153.26C109.95 149.86 108.1 146.52 108.1 146.52C112.31 146.58 115.07 144.28 116.46 142.71C117.15 141.93 117.41 140.86 117.18 139.84C117.42 140.86 118.12 141.71 119.09 142.1C121.02 142.89 124.52 143.73 128.27 141.82Z" fill="#232323"/>
<path d="M3.98 219.72C3.86 219.6 3.74 219.46 3.62 219.32C2.16 217.6 0.819997 214.64 1.44 209.66C1.73 207.34 2.5 205.1 3.84 203.19C6.14 199.94 8.8 199.17 10.83 199.19C10.83 199.19 12.85 214.9 3.98 219.72Z" fill="#FFD00D"/>
<path d="M6.50998 221.46C6.50998 221.46 5.25998 221.05 3.97998 219.72C12.85 214.9 10.83 199.19 10.83 199.19C12.72 199.21 14.07 199.91 14.07 199.91C14.07 199.91 16.38 217.31 6.50998 221.46Z" fill="#3F1AA3"/>
<path d="M182.47 186.86C176.53 188.62 167.64 189.33 167.64 189.33C167.64 189.33 164.87 187.43 160.65 186.75V164.54C160.65 162.03 163.14 160.45 165.3 161.2C165.65 161.32 165.98 161.5 166.3 161.74C171.45 165.7 178.79 173.42 182.47 186.86Z" fill="#B99FFF"/>
<path d="M241.95 221.38C240.8 225.28 238.43 228.17 236.84 229.76C235.93 230.69 235.27 231.17 235.27 231.17C219.6 218.71 219.32 203.31 219.32 203.31C219.32 203.31 220.86 202.91 223.15 202.64C224.48 202.49 226.06 202.38 227.74 202.44C227.74 202.44 230.75 213.62 241.94 221.38H241.95Z" fill="#3F1AA3"/>
<path d="M241.95 221.38C230.76 213.63 227.75 202.44 227.75 202.44C232.96 202.6 239.09 204.25 241.46 210.64C242.98 214.74 242.83 218.36 241.95 221.38Z" fill="#FFD00D"/>
<path d="M78.8399 192.26C78.8399 192.26 59.5599 198.89 52.9799 185.29C52.9799 185.29 52.6699 170.04 61.3699 167.38C63.6399 166.69 65.9099 168.05 68.0299 170.43C74.0499 177.2 78.8399 192.26 78.8399 192.26Z" fill="#7636FF"/>
<path d="M93.43 249.13C82.84 248.71 75.71 248.06 75.71 248.06C76.07 247.61 76.35 247.09 76.53 246.53C84.91 220.41 50.82 202.11 27.91 214.33C8.60997 224.63 9.11997 242.26 9.91997 248.24C9.94997 248.44 9.98997 248.63 10.05 248.81L9.55997 248.93H4.43997C0.449971 236.94 3.62997 219.32 3.62997 219.32C5.01997 220.96 6.51997 221.46 6.51997 221.46C14.42 218.14 14.52 206.33 14.24 201.75C14.17 200.61 14.08 199.91 14.08 199.91C26.19 185.22 52.99 185.3 52.99 185.3C53.75 186.87 54.68 188.16 55.72 189.24C63.76 197.47 78.85 192.28 78.85 192.28C81.31 192.49 83.94 192.64 86.66 192.74C86.94 192.75 87.22 192.76 87.5 192.77C88.88 192.82 90.28 192.85 91.69 192.87C91.48 194.2 86.53 225.98 93.43 249.14V249.13Z" fill="#7636FF"/>
<path d="M236.84 229.77C235.93 230.69 235.27 231.18 235.27 231.18C219.6 218.72 219.32 203.32 219.32 203.32C219.32 203.32 220.86 202.92 223.15 202.65L223.12 202.41C208.78 188.78 182.47 186.86 182.47 186.86C177.6 188.3 170.74 189.04 168.43 189.26C167.93 189.31 167.64 189.33 167.64 189.33C166.39 196.15 160.82 199.12 154.01 199.12C147.2 199.12 146.51 193.54 146.51 193.54C145.7 193.7 144.75 193.75 143.66 193.65C143.01 194.51 141.97 195.17 140.37 195.44C134.98 196.35 132.18 193.27 131.04 191.5C131.04 191.5 125.12 191.97 116.74 192.36C109.48 192.7 100.38 192.99 91.69 192.85C91.48 194.18 86.53 225.96 93.43 249.12C111 249.83 138.08 249.9 157.9 245.32C157.58 244.67 157.3 243.9 157.07 243C157.07 243 151.45 208.99 192.2 208.99C211.84 208.99 220.6 220.55 224.43 232.26C225.66 235.99 226.38 239.73 226.79 243.12C226.85 243.6 226.84 244.06 226.78 244.52L227.12 244.57C235.14 242.05 236.63 235.3 236.85 231.85C236.93 230.58 236.85 229.76 236.85 229.76L236.84 229.77ZM108.89 204.44L97.7699 204.9C96.3699 204.9 95.2399 203.77 95.2399 202.37C95.2399 201.67 95.52 201.04 95.98 200.58C96.44 200.12 97.0699 199.84 97.7699 199.84L109 201.03C109.87 201.12 110.53 201.85 110.53 202.73C110.53 203.61 109.81 204.4 108.9 204.44H108.89Z" fill="#7636FF"/>
<path d="M76.5301 246.53C76.3501 247.09 76.0701 247.61 75.7101 248.06C74.9901 248.97 73.9601 249.6 72.7901 249.78C72.5701 249.81 72.3501 249.83 72.1301 249.83C70.8301 249.82 69.6401 249.09 69.4301 246.58C69.3901 246.04 69.3201 245.39 69.2101 244.66C68.1901 237.54 63.5001 222.8 40.7501 222.8C20.5901 222.8 16.7301 239.69 16.0001 246.31C15.8201 247.93 15.8301 248.93 15.8301 248.93C15.8301 248.93 15.2901 250.62 13.5201 250.96C13.0601 251.05 12.6001 251.02 12.1701 250.9C11.1801 250.62 10.3601 249.83 10.0301 248.82C9.97012 248.64 9.93012 248.45 9.90012 248.25C9.10012 242.26 8.59012 224.63 27.8901 214.34C50.8101 202.12 84.8901 220.43 76.5101 246.54L76.5301 246.53Z" fill="#3F1AA3"/>
<path d="M226.78 244.53C226.53 246.22 225.46 247.71 223.92 248.44C223.53 248.62 223.12 248.76 222.67 248.84C222.53 248.87 222.38 248.89 222.23 248.91C219.42 249.24 216.9 247.15 216.59 244.35C216.59 244.35 216.58 244.27 216.58 244.23C216.01 237.6 212.4 220.78 190.58 220.78C168.76 220.78 167.35 236.4 167.4 243.57C167.4 244.05 167.34 244.51 167.21 244.96C166.53 247.4 164.04 249.08 161.45 248.44C161.42 248.44 161.38 248.42 161.35 248.41C160.06 248.06 158.81 247.17 157.9 245.33C157.58 244.68 157.3 243.91 157.07 243.01C157.07 243.01 151.45 209 192.2 209C218.08 209 225.07 229.09 226.79 243.13C226.85 243.61 226.84 244.07 226.78 244.53Z" fill="#3F1AA3"/>
<path d="M53.9202 238.31C53.9202 244.71 48.7302 249.91 42.3202 249.91C35.9102 249.91 30.7202 244.72 30.7202 238.31C30.7202 231.9 35.9102 226.71 42.3202 226.71C48.7302 226.71 53.9202 231.9 53.9202 238.31Z" fill="white"/>
<path d="M203.52 238.31C203.52 244.71 198.33 249.91 191.92 249.91C185.51 249.91 180.32 244.72 180.32 238.31C180.32 231.9 185.51 226.71 191.92 226.71C198.33 226.71 203.52 231.9 203.52 238.31Z" fill="white"/>
<path d="M86.6498 192.73C83.9298 192.63 81.3098 192.48 78.8398 192.27C78.8398 192.27 74.0498 177.22 68.0298 170.44C68.0298 170.44 68.5798 165.97 71.6298 164.64C74.6798 163.31 81.8198 168.9 86.6498 192.72V192.73Z" fill="#595989"/>
<path d="M40.7598 222.79C20.5998 222.79 16.7398 239.68 16.0098 246.3C20.0998 256.84 30.3398 264.32 42.3198 264.32C54.9298 264.32 65.5998 256.05 69.2198 244.65C68.1998 237.53 63.5098 222.79 40.7598 222.79ZM42.3298 249.9C35.9298 249.9 30.7298 244.71 30.7298 238.3C30.7298 231.89 35.9198 226.7 42.3298 226.7C48.7398 226.7 53.9298 231.89 53.9298 238.3C53.9298 244.71 48.7398 249.9 42.3298 249.9Z" fill="#595989"/>
<path d="M167.63 189.33C166.38 196.15 160.81 199.12 154 199.12C147.19 199.12 146.5 193.54 146.5 193.54C148.75 193.09 150 191.74 150.66 190.1L151.14 190.15C155.82 190.96 157.54 189.05 157.92 186.5C158.88 186.51 159.8 186.6 160.65 186.74C164.87 187.42 167.64 189.32 167.64 189.32L167.63 189.33Z" fill="#595989"/>
<path d="M216.58 244.22C216.01 237.59 212.4 220.77 190.58 220.77C168.76 220.77 167.35 236.39 167.4 243.56C167.4 244.04 167.34 244.5 167.21 244.95C170.29 255.63 180.14 263.44 191.82 263.44C203.5 263.44 213.71 255.33 216.59 244.34C216.59 244.34 216.58 244.26 216.58 244.22ZM191.92 249.9C185.52 249.9 180.32 244.71 180.32 238.3C180.32 231.89 185.51 226.7 191.92 226.7C198.33 226.7 203.52 231.89 203.52 238.3C203.52 244.71 198.33 249.9 191.92 249.9Z" fill="#595989"/>
<path d="M110.52 202.74C110.52 203.65 109.8 204.41 108.89 204.45L97.7697 204.91C96.3697 204.91 95.2397 203.78 95.2397 202.38C95.2397 201.68 95.5198 201.05 95.9798 200.59C96.4398 200.13 97.0697 199.85 97.7697 199.85L109 201.04C109.87 201.13 110.53 201.86 110.53 202.74H110.52Z" fill="#595989"/>
<path d="M158.12 129.98C158.16 129.88 159.87 126.16 159.17 122.93C159.17 122.93 155.77 121.53 154.38 119.36C154.29 119.22 154.2 119.02 154.09 118.75C150.43 117.79 146.88 117.62 144.62 119.4C142.69 120.92 139.89 122.81 136.72 124.74C132.23 127.48 126.49 127.01 122.47 123.63C119.01 120.73 115.89 117.53 113.74 115.17C112.39 113.7 109.96 114.19 109.29 116.06C108.09 119.42 106.18 124.18 103.71 128.57C101.24 132.96 96.5898 135.26 91.7198 134.76C87.8598 134.36 84.6398 133.9 83.0198 133.5C79.8698 132.72 76.6298 134.96 74.6598 136.71C74.7298 137.24 74.7598 137.65 74.7298 137.9C74.4398 140.46 72.0098 143.22 72.0098 143.22C72.8298 146.47 76.0698 149.08 76.0698 149.08C75.1898 149.95 74.7298 150.77 74.7298 150.77C78.1998 156.19 83.6198 159.35 89.5698 161.11C104.23 165.43 122.14 161.22 122.14 161.22C122.14 161.22 130.85 159.21 139.93 154.49C148.69 149.94 157.81 142.86 159.8 132.61C159.91 132.05 160 131.48 160.06 130.91C160.06 130.91 159.28 130.38 158.11 129.98H158.12ZM115.27 135.05L115.33 135.03L114.39 130.22L115.34 135.03C115.34 135.03 115.33 135.03 115.32 135.03C115.3 135.03 115.28 135.03 115.26 135.04L115.27 135.05Z" fill="white"/>
<path d="M148.56 174.37C140.56 173.21 128.9 168.95 126.78 166.28C125.39 164.52 126 161.69 126.58 159.95C129.97 158.88 134.9 157.1 139.95 154.47C139.95 154.47 145.62 162.37 147.9 171.2C148.17 172.25 148.4 173.3 148.56 174.36V174.37Z" fill="white"/>
<path d="M166.54 160.17C166.54 160.17 157.32 156.08 154.7 143.15C157.19 140.09 159.04 136.58 159.82 132.6C159.82 132.6 169.01 127.49 169.78 137.66C169.78 137.66 181.36 134.62 176.66 146.69C176.66 146.69 188.41 157.7 166.55 160.17H166.54Z" fill="white"/>
<path d="M163.46 151.63C166.011 151.63 168.08 149.562 168.08 147.01C168.08 144.458 166.011 142.39 163.46 142.39C160.908 142.39 158.84 144.458 158.84 147.01C158.84 149.562 160.908 151.63 163.46 151.63Z" fill="#FF4D96"/>
<path d="M163.73 139.77C164.94 139.77 165.92 138.79 165.92 137.58C165.92 136.371 164.94 135.39 163.73 135.39C162.521 135.39 161.54 136.371 161.54 137.58C161.54 138.79 162.521 139.77 163.73 139.77Z" fill="#FF4D96"/>
<path d="M172 144.92C173.21 144.92 174.19 143.94 174.19 142.73C174.19 141.521 173.21 140.54 172 140.54C170.791 140.54 169.81 141.521 169.81 142.73C169.81 143.94 170.791 144.92 172 144.92Z" fill="#FF4D96"/>
<path d="M172 154.47C173.21 154.47 174.19 153.49 174.19 152.28C174.19 151.071 173.21 150.09 172 150.09C170.791 150.09 169.81 151.071 169.81 152.28C169.81 153.49 170.791 154.47 172 154.47Z" fill="#FF4D96"/>
<path d="M88.4 166.59C88.09 168.3 87.75 170.32 87.46 172.55C90.57 172.27 93.19 171.44 94.73 170.85C95.35 170.61 95.39 169.76 94.81 169.45C92.52 168.22 90.17 167.25 88.4 166.59Z" fill="white"/>
<path d="M86.7498 185.55C89.7398 185.11 92.2298 184.19 93.6998 183.56C94.2998 183.3 94.3198 182.45 93.7298 182.16C91.2198 180.96 88.6598 180.06 86.8298 179.48C86.7198 181.47 86.6898 183.52 86.7598 185.55H86.7498Z" fill="white"/>
<g opacity="0.3">
<path d="M9.94952 238.96L9.54953 239.06C6.35953 239.06 3.63952 236.74 3.11952 233.59C2.85952 232 2.68952 230.39 2.57952 228.77C2.21952 234.8 2.33952 242.64 4.43952 248.93H9.55953L10.0495 248.81C9.98953 248.63 9.94953 248.44 9.91953 248.24C9.64953 246.22 9.41953 242.89 9.95953 238.96H9.94952Z" fill="#000566"/>
</g>
<g opacity="0.3">
<path d="M156.959 235.66C137.229 240.03 110.719 239.95 93.4295 239.26C86.2595 238.97 80.6795 238.58 77.8195 238.36C77.8395 240.97 77.4295 243.71 76.5295 246.53C76.3495 247.09 76.0695 247.61 75.7095 248.06C75.7095 248.06 82.8395 248.71 93.4295 249.14C110.999 249.84 138.079 249.92 157.899 245.34C157.579 244.69 157.299 243.92 157.069 243.02C157.069 243.02 156.569 239.96 156.959 235.67V235.66Z" fill="#000566"/>
</g>
<g opacity="0.3">
<path d="M72.1295 249.83C70.8295 249.82 69.6395 249.09 69.4295 246.58C69.3895 246.04 69.3195 245.39 69.2095 244.66C68.1895 237.54 63.4995 222.8 40.7495 222.8C20.5895 222.8 16.7295 239.69 15.9995 246.31C15.8195 247.93 15.8295 248.93 15.8295 248.93C15.8295 248.93 15.2895 250.62 13.5195 250.96C13.0595 251.05 12.5995 251.02 12.1695 250.9C12.1595 244.86 13.6295 218.18 40.5295 218.18C65.0895 218.18 73.2295 231.48 72.1295 249.84V249.83Z" fill="#000566"/>
</g>
<g opacity="0.3">
<path d="M223.909 248.44C223.519 248.62 223.109 248.76 222.659 248.84C222.519 248.87 222.369 248.89 222.219 248.91C219.409 249.24 216.889 247.15 216.579 244.35C216.579 244.35 216.569 244.27 216.569 244.23C215.999 237.6 212.389 220.78 190.569 220.78C168.749 220.78 167.339 236.4 167.389 243.57C167.389 244.05 167.329 244.51 167.199 244.96C166.519 247.4 164.029 249.08 161.439 248.44C161.409 248.44 161.369 248.42 161.339 248.41C160.809 238.44 162.599 215.28 190.639 215.28C215.489 215.28 222.149 235.89 223.899 248.45L223.909 248.44Z" fill="#000566"/>
</g>
<g opacity="0.3">
<path d="M16.4098 247.28C17.8598 239.64 22.9398 226.45 40.7598 226.45C61.1998 226.45 67.0598 238.35 68.7798 245.93C68.9398 245.51 69.0898 245.09 69.2198 244.66C68.1998 237.54 63.5098 222.8 40.7598 222.8C20.5998 222.8 16.7398 239.69 16.0098 246.31C16.1398 246.64 16.2698 246.96 16.4098 247.29V247.28Z" fill="#000566"/>
</g>
<g opacity="0.3">
<path d="M216.579 244.22C216.009 237.59 212.399 220.77 190.579 220.77C168.759 220.77 167.349 236.39 167.399 243.56C167.399 244.04 167.339 244.5 167.209 244.95C167.289 245.22 167.369 245.48 167.459 245.74C167.939 238 171.589 225.16 190.579 225.16C209.569 225.16 214.819 238.03 216.189 245.7C216.329 245.25 216.469 244.8 216.589 244.35C216.589 244.35 216.579 244.27 216.579 244.23V244.22Z" fill="#000566"/>
</g>
<g opacity="0.3">
<path d="M42.3197 245.52C36.6697 245.52 31.9597 241.47 30.9297 236.12C30.7897 236.83 30.7197 237.56 30.7197 238.31C30.7197 244.71 35.9097 249.91 42.3197 249.91C48.7297 249.91 53.9197 244.72 53.9197 238.31C53.9197 237.56 53.8497 236.83 53.7097 236.12C52.6797 241.47 47.9797 245.52 42.3197 245.52Z" fill="#000566"/>
</g>
<g opacity="0.3">
<path d="M191.92 245.52C186.27 245.52 181.56 241.47 180.53 236.12C180.39 236.83 180.32 237.56 180.32 238.31C180.32 244.71 185.51 249.91 191.92 249.91C198.33 249.91 203.52 244.72 203.52 238.31C203.52 237.56 203.45 236.83 203.31 236.12C202.28 241.47 197.58 245.52 191.92 245.52Z" fill="#000566"/>
</g>
<g opacity="0.3">
<path d="M42.3195 257.01C31.1795 257.01 21.5495 250.55 16.9595 241.17C16.4295 243.16 16.1495 244.95 15.9995 246.31C20.0895 256.85 30.3295 264.33 42.3095 264.33C54.9195 264.33 65.5895 256.06 69.2095 244.66C69.0195 243.35 68.7095 241.77 68.1795 240.08C63.8295 250.05 53.8895 257.02 42.3095 257.02L42.3195 257.01Z" fill="#000566"/>
</g>
<g opacity="0.3">
<path d="M215.75 239.26C212.08 248.91 202.75 255.76 191.81 255.76C180.87 255.76 171.27 248.7 167.71 238.82C167.45 240.59 167.38 242.22 167.39 243.56C167.39 244.04 167.33 244.5 167.2 244.95C170.28 255.63 180.13 263.44 191.81 263.44C203.49 263.44 213.7 255.33 216.58 244.34C216.58 244.34 216.57 244.26 216.57 244.22C216.46 242.9 216.22 241.17 215.75 239.26Z" fill="#000566"/>
</g>
<g opacity="0.3">
<path d="M61.5499 169.9C62.1199 168.94 62.7999 168.07 63.5999 167.33C62.8599 167.15 62.1099 167.15 61.3699 167.38C52.6699 170.04 52.9799 185.29 52.9799 185.29C59.5599 198.89 78.8399 192.26 78.8399 192.26C78.8399 192.26 78.7599 192.02 78.6199 191.6C77.4699 191.76 76.1999 191.88 74.8799 191.92C63.3499 192.23 55.6499 179.82 61.5499 169.9Z" fill="#000566"/>
</g>
<g opacity="0.3">
<path d="M82.8298 191.44C82.8298 191.44 78.9098 179.13 73.7098 171.76C72.2998 169.76 72.2998 167.02 73.8798 165.15C73.9598 165.05 74.0498 164.96 74.1298 164.87C73.1498 164.39 72.2898 164.35 71.6298 164.64C68.5798 165.97 68.0298 170.44 68.0298 170.44C74.0498 177.21 78.8398 192.27 78.8398 192.27C81.2998 192.48 83.9298 192.63 86.6498 192.73C86.5798 192.38 86.5098 192.04 86.4398 191.71C85.2098 191.64 83.9998 191.55 82.8298 191.45V191.44Z" fill="#000566"/>
</g>
<g opacity="0.3">
<path d="M148.27 196.33C150.33 195.92 151.55 194.76 152.24 193.31C152.36 193.06 152.63 192.91 152.9 192.94C157.25 193.69 159.04 192.1 159.57 189.83C159.64 189.52 159.92 189.3 160.23 189.31C160.99 189.34 161.71 189.42 162.4 189.54C164.37 189.86 166.01 190.44 167.22 190.97C167.38 190.45 167.52 189.9 167.63 189.33C167.63 189.33 164.86 187.43 160.64 186.75C159.79 186.61 158.87 186.52 157.91 186.51C157.53 189.06 155.82 190.97 151.13 190.16L150.65 190.11C150 191.74 148.74 193.09 146.49 193.55C146.49 193.55 146.74 195.61 148.47 197.23C148.29 196.7 148.25 196.34 148.25 196.34L148.27 196.33Z" fill="#000566"/>
</g>
<g opacity="0.3">
<path d="M236.85 231.86C236.63 235.31 235.14 242.06 227.12 244.58L226.78 244.53C226.85 244.08 226.85 243.61 226.79 243.13C226.37 239.74 225.65 236 224.43 232.27C228.1 233 232.59 233.27 236.85 231.86Z" fill="#000566"/>
</g>
<g opacity="0.3">
<path d="M237.17 224.88C237.17 224.88 237.15 224.9 237.14 224.91C236.3 225.76 234.95 225.79 234.04 225.01C224.9 217.12 221.57 208.33 220.35 203.1C219.7 203.23 219.32 203.33 219.32 203.33C219.32 203.33 219.59 218.73 235.27 231.19C235.27 231.19 235.92 230.7 236.84 229.78C238.43 228.19 240.8 225.3 241.95 221.4C241.48 221.08 241.04 220.75 240.6 220.42C239.48 222.38 238.17 223.9 237.17 224.9V224.88Z" fill="#000566"/>
</g>
<g opacity="0.3">
<path d="M10.8297 199.19C10.0497 199.19 9.18967 199.29 8.27967 199.61C8.47967 203.73 8.23967 213.22 2.40967 217.46C2.76967 218.2 3.18967 218.82 3.61967 219.32C3.73967 219.46 3.85967 219.59 3.97967 219.72C12.8497 214.9 10.8297 199.19 10.8297 199.19Z" fill="#000566"/>
</g>
<g opacity="0.3">
<path d="M111.48 204.97C111.48 206 110.67 206.85 109.64 206.89L97.1295 207.41C95.5595 207.41 94.2896 206.13 94.2896 204.57C94.2896 203.78 94.6096 203.07 95.1196 202.56C95.6296 202.05 96.3495 201.72 97.1295 201.72L109.76 203.06C110.74 203.16 111.48 203.99 111.48 204.97Z" fill="#000566"/>
</g>
<g opacity="0.3">
<path d="M6.50949 221.46C6.50949 221.46 5.25949 221.05 3.97949 219.72C12.8495 214.9 10.8295 199.19 10.8295 199.19C12.7195 199.21 14.0695 199.91 14.0695 199.91C14.0695 199.91 16.3795 217.31 6.50949 221.46Z" fill="#000566"/>
</g>
<g opacity="0.7">
<path d="M159.34 122.92C159.34 122.92 153.93 125.3 151.32 119.35C148.71 113.39 149.2 106.12 141.2 93.53C145.88 95.65 148.97 102.31 151.03 108.36C152.57 112.87 153.55 117.04 154.2 118.74C154.3 119.01 154.4 119.22 154.49 119.35C155.89 121.52 159.33 122.92 159.33 122.92H159.34Z" fill="white"/>
</g>
<g opacity="0.7">
<path d="M158 185.34C155.76 177.75 148.56 176.99 148.56 176.99C130.29 174.53 125.63 165.13 125.63 165.13C132.94 171.74 148.56 174.36 148.56 174.36C155.61 176.01 156.2 177.68 156.2 177.68C156.2 177.68 156.56 178.48 156.95 179.68C157.45 181.2 158.02 183.36 158 185.33V185.34Z" fill="white"/>
</g>
<g opacity="0.7">
<path d="M144.99 172.08C145.14 172.65 145.27 173.22 145.39 173.8C146.49 174.04 147.55 174.23 148.56 174.38C148.4 173.32 148.18 172.26 147.9 171.22C145.61 162.39 139.95 154.49 139.95 154.49C139.07 154.95 138.2 155.38 137.33 155.78C138.52 157.52 143.02 164.46 144.99 172.09V172.08Z" fill="white"/>
</g>
<g opacity="0.7">
<path d="M27.8997 214.33C26.7697 214.94 25.6997 215.57 24.6997 216.22C24.7997 216.17 24.8997 216.11 24.9997 216.06C47.9197 203.84 81.9997 222.15 73.6197 248.26C73.4397 248.82 73.1697 249.33 72.8097 249.78C73.9697 249.6 74.9897 248.96 75.7097 248.06C76.0697 247.61 76.3497 247.09 76.5297 246.53C84.9097 220.41 50.8197 202.11 27.9097 214.33H27.8997Z" fill="white"/>
</g>
<g opacity="0.7">
<path d="M226.79 243.13C225.07 229.08 218.08 209 192.2 209C177.37 209 168.69 213.5 163.64 219.23C168.9 214.59 177.14 211.19 190.01 211.19C215.89 211.19 222.88 231.28 224.6 245.32C224.66 245.8 224.65 246.26 224.59 246.72C224.5 247.3 224.32 247.86 224.05 248.37C225.52 247.61 226.54 246.17 226.78 244.53C226.85 244.08 226.85 243.61 226.79 243.13Z" fill="white"/>
</g>
<g opacity="0.7">
<path d="M64.5798 171.38C70.4098 177.94 75.0898 192.26 75.3798 193.16C77.4898 192.73 78.8398 192.26 78.8398 192.26C78.8398 192.26 74.0498 177.21 68.0298 170.43C65.9098 168.04 63.6298 166.68 61.3698 167.38C60.7298 167.58 60.1398 167.84 59.5898 168.17C61.2998 168.36 62.9898 169.58 64.5898 171.38H64.5798Z" fill="white"/>
</g>
<g opacity="0.7">
<path d="M166.3 161.74C165.98 161.49 165.65 161.32 165.3 161.2C164.29 160.85 163.21 161.01 162.34 161.54C162.44 161.6 162.54 161.67 162.64 161.75C167.79 165.71 175.13 173.43 178.81 186.87C175.1 187.97 170.25 188.66 167.12 189.02C167.46 189.21 167.64 189.34 167.64 189.34C167.64 189.34 176.54 188.63 182.47 186.87C178.79 173.43 171.45 165.71 166.3 161.75V161.74Z" fill="white"/>
</g>
<g opacity="0.7">
<path d="M223.15 202.65L223.12 202.41C208.78 188.78 182.47 186.86 182.47 186.86C176.53 188.62 167.64 189.33 167.64 189.33C172.37 191.92 182.9 190.74 182.9 190.74C184.47 190.83 186.01 190.98 187.52 191.19C188.35 191.3 189.1 191.73 189.64 192.37C190.96 193.93 194.77 195.86 199.49 197.21C203.64 198.4 207.43 198.83 209.6 198.5C210.27 198.4 210.96 198.52 211.57 198.82C216.45 201.28 219.33 203.33 219.33 203.33C219.33 203.33 220.87 202.93 223.16 202.66L223.15 202.65Z" fill="white"/>
</g>
<g opacity="0.7">
<path d="M241.46 210.64C239.09 204.26 232.96 202.6 227.75 202.44C227.75 202.44 227.92 203.08 228.34 204.16C232.76 204.82 237.23 206.87 239.17 212.1C240.25 215.02 240.49 217.7 240.21 220.09C240.77 220.53 241.34 220.96 241.95 221.37C242.84 218.35 242.98 214.73 241.46 210.63V210.64Z" fill="white"/>
</g>
<g opacity="0.7">
<path d="M55.7098 189.23C33.5398 189.34 19.2798 198.05 14.2298 201.75C14.1598 200.61 14.0698 199.91 14.0698 199.91C26.1798 185.22 52.9798 185.3 52.9798 185.3C53.7398 186.87 54.6698 188.16 55.7098 189.24V189.23Z" fill="white"/>
</g>
<g opacity="0.3">
<path d="M126.03 214.75C126.03 214.75 143.12 217.67 152.05 213.05C160.97 208.42 147.27 231.1 126.58 220.57C109.38 211.82 126.03 214.75 126.03 214.75Z" fill="white"/>
</g>
<g opacity="0.3">
<path d="M108.4 221.84C111.08 221.39 115.57 221.07 120.81 222.43C122.07 222.76 122.13 224.53 120.89 224.92C119.58 225.33 117.69 225.76 114.99 226.13C111.31 226.63 109.06 225.91 107.71 224.98C106.43 224.1 106.87 222.1 108.41 221.84H108.4Z" fill="white"/>
</g>
<path d="M3.97953 220.63C3.65953 220.63 3.33953 220.46 3.17953 220.15C2.93953 219.71 3.09953 219.15 3.54953 218.91C11.7695 214.45 9.94953 199.45 9.92953 199.3C9.86953 198.8 10.2195 198.34 10.7195 198.28C11.2195 198.22 11.6795 198.57 11.7395 199.07C11.8295 199.74 13.7295 215.46 4.40953 220.52C4.26953 220.6 4.11953 220.63 3.96953 220.63H3.97953Z" fill="#232323"/>
<path d="M122.44 162.45C120.26 162.93 118.15 163.27 115.99 163.56C113.84 163.84 111.68 164.05 109.51 164.18C107.34 164.31 105.17 164.35 102.99 164.3C100.81 164.24 98.6297 164.08 96.4597 163.81C94.2897 163.55 92.1197 163.1 89.9897 162.53C89.4597 162.37 88.9197 162.25 88.3997 162.06L86.8297 161.53C85.7997 161.12 84.7597 160.72 83.7597 160.21L83.0097 159.84L82.2797 159.42L81.5497 159L81.1897 158.79L80.8397 158.55L79.4497 157.6L78.1297 156.54C76.4197 155.06 74.9197 153.34 73.6697 151.45C73.3997 151.04 73.3997 150.53 73.6297 150.13C73.8297 149.8 73.9997 149.59 74.1997 149.35C74.3997 149.12 74.6097 148.9 74.8297 148.69C75.2697 148.27 75.7697 147.91 76.2897 147.6C76.8097 147.28 77.3897 147.05 77.9697 146.9C78.5597 146.74 79.1797 146.72 79.7597 146.78C79.9197 146.8 80.0397 146.94 80.0197 147.1C80.0197 147.2 79.9497 147.28 79.8697 147.32L79.8397 147.34C79.3597 147.61 78.9297 147.86 78.5397 148.17C78.1497 148.47 77.7897 148.79 77.4597 149.15C77.1297 149.5 76.8297 149.88 76.5597 150.26C76.4197 150.46 76.2897 150.65 76.1597 150.85C76.0297 151.03 75.8997 151.27 75.8197 151.41L75.7897 150.09C76.8997 151.77 78.2297 153.3 79.7597 154.62L80.9397 155.57L82.1997 156.43L82.5097 156.64L82.8397 156.83L83.4997 157.21L84.1597 157.59L84.8497 157.92C85.7597 158.39 86.7197 158.76 87.6697 159.14L89.1397 159.64C89.6297 159.81 90.1297 159.93 90.6297 160.08C92.6297 160.62 94.6697 161.04 96.7497 161.29C98.8197 161.55 100.92 161.7 103.02 161.76C105.12 161.81 107.23 161.76 109.33 161.64C111.43 161.52 113.54 161.32 115.63 161.04C117.71 160.76 119.83 160.42 121.83 159.98H121.86C122.55 159.82 123.23 160.26 123.39 160.95C123.54 161.64 123.11 162.32 122.42 162.48L122.44 162.45Z" fill="#232323"/>
<path d="M75.2798 150.07C75.1298 149.95 71.6898 147.15 70.7798 143.52C70.6798 143.11 70.7798 142.68 71.0598 142.36C71.6598 141.67 73.2698 139.5 73.4698 137.74C73.5198 137.3 73.1698 135.4 72.8598 133.72C71.5998 126.87 69.5398 115.71 73.2798 109.36C71.8598 108.33 70.0098 106.04 70.1398 101.13L72.6998 101.2C72.5498 106.81 75.4198 107.65 75.4498 107.66C75.8798 107.76 76.2198 108.08 76.3698 108.5C76.5098 108.92 76.4298 109.38 76.1498 109.72C71.9798 114.83 74.1898 126.82 75.3798 133.27C75.8698 135.94 76.1098 137.26 76.0198 138.04C75.7698 140.25 74.2398 142.48 73.4498 143.5C74.3698 146.02 76.8698 148.07 76.8898 148.09L75.2798 150.08V150.07Z" fill="#232323"/>
<path d="M72.9698 127.79C72.6298 127.79 72.2998 127.66 72.0498 127.4C71.4598 126.78 57.5598 111.96 60.1998 84.29C60.2498 83.8 60.5698 83.38 61.0398 83.21C61.5498 83.02 73.8198 78.75 93.2598 87.18C93.9098 87.46 94.2098 88.21 93.9298 88.86C93.6498 89.51 92.8898 89.81 92.2498 89.53C76.4098 82.66 65.5598 84.65 62.6798 85.39C60.5298 111.29 73.7698 125.48 73.9098 125.62C74.3998 126.13 74.3798 126.94 73.8698 127.43C73.6198 127.67 73.2998 127.79 72.9798 127.79H72.9698Z" fill="#232323"/>
<path d="M62.1097 83.3C63.9497 84.42 65.5897 85.62 67.2197 86.91C68.8397 88.19 70.3997 89.55 71.8797 91C72.6397 91.71 73.3397 92.47 74.0597 93.21C74.7497 93.98 75.4597 94.73 76.1097 95.54C77.4597 97.11 78.6597 98.81 79.8297 100.53H77.6897C77.9197 100.23 78.1697 99.95 78.4297 99.67C78.6897 99.39 78.9597 99.13 79.2397 98.87C79.5297 98.62 79.7997 98.35 80.1097 98.11C80.4097 97.86 80.7197 97.62 81.0497 97.41C81.2097 97.31 81.4197 97.35 81.5197 97.51C81.5797 97.6 81.5897 97.71 81.5597 97.8C81.4397 98.17 81.3097 98.53 81.1797 98.88C81.0497 99.24 80.8997 99.58 80.7697 99.93C80.6297 100.28 80.4797 100.62 80.3197 100.96C80.1597 101.29 79.9997 101.63 79.8197 101.94C79.4797 102.53 78.7297 102.73 78.1397 102.39C77.9797 102.3 77.8497 102.17 77.7497 102.03L77.6797 101.93C76.5697 100.3 75.4297 98.69 74.1397 97.19C73.5197 96.42 72.8397 95.7 72.1797 94.96C71.4897 94.25 70.8197 93.52 70.0897 92.84C68.6697 91.46 67.1797 90.15 65.6197 88.92C64.0797 87.7 62.4297 86.51 60.8097 85.52L60.7697 85.49C60.1697 85.12 59.9797 84.33 60.3397 83.73C60.7097 83.13 61.4997 82.94 62.0997 83.3H62.1097Z" fill="#232323"/>
<path d="M73.7398 102.6C72.7798 102.57 71.8898 102.28 71.0498 101.84C70.2198 101.4 69.4598 100.8 68.7998 100.1C68.1398 99.4 67.5498 98.6 67.1398 97.72C66.6898 96.85 66.4398 95.9 66.2598 94.96C66.1198 94.29 66.5498 93.64 67.2198 93.5H67.2898L67.3198 93.48C67.7098 93.43 67.9998 93.4 68.3398 93.38C68.6598 93.36 68.9898 93.35 69.3098 93.35C69.9598 93.35 70.5998 93.39 71.2398 93.47C71.8798 93.54 72.5298 93.66 73.1598 93.83C73.7998 93.98 74.4198 94.21 75.0398 94.46C75.6998 94.72 76.0098 95.47 75.7498 96.12C75.4898 96.77 74.7498 97.09 74.0898 96.83L74.0298 96.81C73.5398 96.62 73.0398 96.43 72.5198 96.31C71.9998 96.18 71.4698 96.08 70.9298 96.01C70.3898 95.94 69.8398 95.91 69.2998 95.91C69.0298 95.91 68.7498 95.91 68.4798 95.93C68.2198 95.94 67.9198 95.97 67.7198 96L68.7798 94.53C68.8798 94.9 68.9198 95.28 69.0298 95.65C69.1498 96.01 69.2198 96.39 69.3798 96.73C69.6298 97.45 69.9898 98.12 70.4198 98.76C70.8398 99.41 71.3698 99.99 71.9598 100.54C72.5398 101.1 73.1798 101.63 73.8598 102.16L73.8798 102.18C73.9798 102.26 73.9998 102.41 73.9198 102.51C73.8698 102.57 73.7998 102.6 73.7298 102.6H73.7398Z" fill="#232323"/>
<path d="M86.4998 91.89C87.5398 90.52 88.8398 89.48 90.2198 88.56C90.5598 88.33 90.9198 88.11 91.2798 87.91C91.6398 87.7 91.9898 87.49 92.3598 87.3C93.0798 86.9 93.8198 86.53 94.5698 86.18C96.0698 85.49 97.5998 84.85 99.1698 84.35C100.74 83.82 102.34 83.42 103.96 83.1C104.65 82.97 105.33 83.42 105.46 84.11C105.59 84.76 105.2 85.38 104.59 85.58L104.54 85.6C103.79 85.84 103.03 86.04 102.28 86.27C101.53 86.51 100.77 86.72 100.03 86.98C98.5298 87.45 97.0698 88.01 95.5998 88.58C94.1398 89.16 92.6998 89.8 91.2898 90.48C89.8598 91.14 88.4098 91.8 86.8998 92.39H86.8798C86.7098 92.46 86.5198 92.39 86.4598 92.21C86.4198 92.1 86.4398 91.98 86.4998 91.89Z" fill="#232323"/>
<path d="M121.86 159.96C123.85 159.47 125.9 158.85 127.89 158.18C129.89 157.5 131.86 156.76 133.8 155.94C135.74 155.12 137.65 154.23 139.51 153.26C141.37 152.28 143.18 151.22 144.92 150.07C146.67 148.93 148.32 147.65 149.87 146.28C150.25 145.93 150.65 145.6 151.01 145.23L152.11 144.14C152.8 143.37 153.5 142.62 154.1 141.8L154.57 141.2L155 140.57L155.43 139.94L155.64 139.62L155.83 139.29L156.58 137.97L157.22 136.59C158.01 134.73 158.53 132.77 158.78 130.77L159.33 131.97C159.2 131.88 158.98 131.73 158.78 131.62C158.58 131.5 158.37 131.38 158.16 131.27C157.74 131.04 157.31 130.84 156.86 130.67C156.41 130.5 155.95 130.37 155.46 130.27C154.97 130.16 154.47 130.13 153.93 130.1H153.9C153.74 130.09 153.62 129.95 153.63 129.79C153.63 129.69 153.69 129.61 153.77 129.56C154.27 129.25 154.83 128.99 155.43 128.88C156.02 128.76 156.65 128.71 157.25 128.77C157.86 128.81 158.46 128.93 159.04 129.1C159.33 129.19 159.62 129.29 159.9 129.41C160.19 129.54 160.44 129.65 160.76 129.86C161.17 130.13 161.36 130.6 161.31 131.06C161.03 133.31 160.44 135.52 159.56 137.6L158.85 139.14L158.02 140.61L157.81 140.98L157.58 141.33L157.11 142.03L156.64 142.73L156.13 143.39C155.46 144.29 154.71 145.11 153.96 145.93L152.78 147.1C152.39 147.5 151.96 147.85 151.56 148.22C149.9 149.68 148.16 151.03 146.32 152.22C144.49 153.43 142.61 154.53 140.68 155.55C138.75 156.56 136.77 157.48 134.77 158.32C132.77 159.16 130.74 159.93 128.68 160.63C126.61 161.33 124.57 161.96 122.4 162.48C121.71 162.65 121.02 162.23 120.85 161.54C120.68 160.85 121.1 160.16 121.79 159.99H121.82L121.86 159.96Z" fill="#232323"/>
<path d="M159.28 130.51L156.96 129.43C156.96 129.43 158.31 126.46 158.02 123.79C156.86 123.22 154.5 121.9 153.3 120.03C152.88 119.37 152.5 118.08 151.77 115.47C149.99 109.16 146.68 97.42 140.68 94.69C140.28 94.51 140 94.13 139.94 93.69C139.88 93.25 140.05 92.82 140.39 92.54C140.46 92.47 142.6 90.46 140.01 85.53L142.27 84.34C144.56 88.69 143.91 91.56 143.09 93.11C149.26 97.15 152.34 108.08 154.23 114.78C154.69 116.42 155.22 118.28 155.46 118.66C156.42 120.16 158.82 121.39 159.66 121.74C160.05 121.9 160.34 122.24 160.42 122.66C161.2 126.31 159.35 130.35 159.27 130.52L159.28 130.51Z" fill="#232323"/>
<path d="M150.95 109.63C150.82 109.63 150.69 109.61 150.56 109.57C149.89 109.36 149.51 108.64 149.73 107.96C149.81 107.7 155.37 89.15 142.03 66.91C139.12 67.53 128.46 70.57 117.33 83.68C116.87 84.22 116.06 84.28 115.53 83.83C114.99 83.37 114.93 82.56 115.38 82.03C129.1 65.88 141.99 64.29 142.53 64.23C143.01 64.18 143.5 64.41 143.76 64.83C158.35 88.49 152.43 107.92 152.17 108.74C152 109.29 151.49 109.63 150.95 109.63Z" fill="#232323"/>
<path d="M143.74 66.21C142.72 67.81 141.77 69.6 140.93 71.38C140.08 73.17 139.31 75 138.65 76.87C138.3 77.8 138.02 78.75 137.71 79.69C137.45 80.64 137.15 81.59 136.94 82.56C136.45 84.48 136.13 86.43 135.86 88.38L135.84 88.49C135.74 89.16 135.12 89.62 134.45 89.53C134.27 89.5 134.09 89.43 133.95 89.33C133.65 89.13 133.36 88.9 133.07 88.67C132.78 88.44 132.5 88.2 132.22 87.95C131.94 87.69 131.66 87.45 131.38 87.19C131.1 86.93 130.83 86.67 130.56 86.39C130.43 86.25 130.43 86.03 130.56 85.9C130.64 85.82 130.74 85.79 130.84 85.81C131.24 85.86 131.62 85.94 132 86.03C132.38 86.11 132.74 86.23 133.12 86.33C133.49 86.44 133.85 86.56 134.2 86.69C134.55 86.82 134.9 86.96 135.24 87.13L133.32 88.08C133.61 86.02 133.94 83.97 134.46 81.96C134.68 80.95 134.99 79.96 135.27 78.96C135.59 77.98 135.88 76.98 136.25 76.02C136.94 74.07 137.74 72.16 138.62 70.29C139.51 68.41 140.46 66.62 141.61 64.8C141.99 64.2 142.78 64.03 143.38 64.41C143.98 64.79 144.15 65.58 143.77 66.18L143.74 66.22V66.21Z" fill="#232323"/>
<path d="M139.39 86.9C139.77 86.13 140.11 85.36 140.38 84.61C140.66 83.86 140.88 83.1 140.97 82.33C141.07 81.57 141.1 80.8 141.01 80.05C141 79.67 140.9 79.3 140.85 78.93C140.78 78.56 140.65 78.19 140.58 77.82L142.19 78.67C141.99 78.73 141.71 78.84 141.47 78.94C141.22 79.05 140.97 79.16 140.73 79.28C140.24 79.52 139.76 79.8 139.31 80.09C138.85 80.38 138.42 80.71 138.01 81.06C137.59 81.4 137.23 81.79 136.88 82.18L136.84 82.23C136.36 82.75 135.56 82.79 135.03 82.32C134.51 81.85 134.47 81.04 134.94 80.52C135.38 80.03 135.84 79.54 136.35 79.13C136.85 78.7 137.37 78.31 137.92 77.96C138.46 77.61 139.02 77.28 139.6 77C139.89 76.86 140.18 76.72 140.48 76.59C140.79 76.46 141.06 76.35 141.43 76.23H141.45C142.1 76.01 142.8 76.36 143.01 77.01C143.01 77.03 143.03 77.06 143.03 77.08C143.28 78.01 143.47 78.97 143.46 79.95C143.48 80.92 143.31 81.9 143.02 82.82C142.73 83.74 142.32 84.61 141.77 85.37C141.22 86.13 140.54 86.79 139.7 87.24C139.59 87.3 139.44 87.26 139.38 87.14C139.34 87.07 139.34 86.99 139.38 86.93V86.9H139.39Z" fill="#232323"/>
<path d="M123.37 83.89C121.75 84.03 120.16 84.08 118.59 84.12C117.02 84.13 115.45 84.2 113.88 84.32C112.32 84.46 110.75 84.61 109.2 84.84C108.42 84.93 107.65 85.09 106.87 85.2C106.1 85.33 105.32 85.48 104.54 85.6H104.49C103.79 85.71 103.14 85.23 103.03 84.53C102.93 83.88 103.34 83.27 103.96 83.1C105.55 82.67 107.17 82.32 108.81 82.1C110.44 81.85 112.1 81.75 113.75 81.71C114.58 81.7 115.4 81.71 116.23 81.74C116.64 81.75 117.06 81.78 117.47 81.81C117.88 81.83 118.29 81.87 118.7 81.92C120.34 82.13 121.97 82.49 123.51 83.27C123.67 83.35 123.74 83.55 123.65 83.71C123.6 83.81 123.5 83.88 123.39 83.89H123.37Z" fill="#232323"/>
<path d="M115.42 132.28C115.42 132.28 112.5 132.96 110.65 134.14C109.96 134.58 109.74 135.5 110.19 136.19C111.15 137.67 113.28 139.98 117.02 139.11C120.75 138.24 121.65 135.23 121.85 133.47C121.94 132.65 121.34 131.93 120.53 131.84C118.34 131.6 115.43 132.28 115.43 132.28H115.42Z" fill="#232323"/>
<path d="M117.99 137.7L118.33 139.14L118.41 139.5C118.44 139.61 118.45 139.66 118.47 139.74C118.52 139.88 118.58 140.02 118.66 140.15C118.82 140.41 119.03 140.62 119.28 140.78C119.34 140.82 119.41 140.85 119.47 140.89L119.58 140.94L119.73 141C119.94 141.08 120.15 141.15 120.36 141.22C122.05 141.78 123.85 141.86 125.53 141.47C126.37 141.27 127.2 140.98 127.97 140.56L128.55 140.26L129.07 139.9C129.26 139.79 129.4 139.65 129.55 139.51L129.79 139.31C129.87 139.24 129.92 139.16 129.99 139.09C130.54 138.5 130.89 137.81 131.15 137.02C131.41 136.23 131.5 135.31 131.5 134.29V134.27C131.5 134.19 131.57 134.13 131.64 134.13C131.68 134.13 131.71 134.15 131.74 134.17C132.14 134.56 132.42 135.04 132.61 135.56C132.72 135.82 132.78 136.09 132.85 136.37C132.88 136.65 132.94 136.94 132.92 137.23C132.94 138.4 132.46 139.59 131.75 140.52C131.66 140.64 131.58 140.76 131.48 140.87L131.18 141.18C130.98 141.39 130.78 141.61 130.55 141.77L129.88 142.29L129.17 142.73C128.22 143.29 127.19 143.71 126.1 143.96C123.93 144.48 121.64 144.29 119.57 143.63C119.31 143.55 119.05 143.46 118.8 143.36L118.61 143.29L118.38 143.19C118.22 143.12 118.07 143.03 117.92 142.94C117.33 142.58 116.83 142.07 116.47 141.49C116.29 141.2 116.14 140.88 116.03 140.56C115.97 140.41 115.93 140.21 115.89 140.08L115.8 139.72L115.47 138.27C115.31 137.58 115.74 136.89 116.43 136.74C117.12 136.58 117.8 137.01 117.96 137.69L117.99 137.7Z" fill="#232323"/>
<path d="M117.99 137.7L118.33 139.14L118.41 139.5C118.44 139.63 118.48 139.83 118.5 139.99C118.54 140.33 118.55 140.68 118.52 141.02C118.45 141.71 118.23 142.38 117.86 142.97C117.77 143.12 117.67 143.26 117.56 143.39L117.4 143.58L117.26 143.73C117.08 143.93 116.88 144.12 116.69 144.31C115.12 145.81 113.16 146.99 110.98 147.49C109.9 147.74 108.78 147.82 107.68 147.74L106.85 147.66L106.02 147.49C105.74 147.44 105.47 147.34 105.2 147.24L104.79 147.09C104.66 147.04 104.53 146.96 104.39 146.89C103.34 146.38 102.38 145.52 101.88 144.46C101.73 144.21 101.66 143.92 101.57 143.65C101.51 143.37 101.44 143.1 101.42 142.82C101.37 142.26 101.4 141.71 101.59 141.18C101.62 141.1 101.7 141.06 101.77 141.09C101.81 141.1 101.84 141.13 101.85 141.16V141.18C102.31 142.09 102.8 142.88 103.38 143.48C103.96 144.07 104.58 144.53 105.33 144.82C105.42 144.85 105.51 144.9 105.61 144.93L105.91 145C106.11 145.05 106.3 145.11 106.51 145.13L107.14 145.22L107.79 145.24C108.66 145.28 109.54 145.17 110.38 144.98C112.06 144.59 113.64 143.72 114.91 142.47C115.07 142.32 115.23 142.16 115.37 141.99L115.48 141.87L115.56 141.78C115.61 141.72 115.65 141.66 115.69 141.6C115.84 141.35 115.94 141.06 115.97 140.76C115.98 140.61 115.98 140.46 115.96 140.31C115.95 140.23 115.94 140.18 115.91 140.07L115.82 139.71L115.49 138.26C115.33 137.57 115.76 136.88 116.45 136.73C117.14 136.57 117.82 137 117.98 137.68L117.99 137.7Z" fill="#232323"/>
<path d="M86.9899 123.69C88.2999 127.79 92.6699 130.05 96.7699 128.75C100.39 127.6 102.58 124.05 102.14 120.41C97.9999 121.24 92.2799 121.66 86.8099 119.62C86.5099 120.93 86.5499 122.32 86.9899 123.69Z" fill="#FF1B40"/>
<path d="M88.5299 123.2C90.7499 130.65 101.79 128.31 101.32 120.51L102.3 121.22C97.1699 122.42 91.5999 122.63 86.3399 120.87L88.0999 119.92C88.1199 121.08 88.1799 122.15 88.5299 123.2ZM85.4399 124.18C84.8699 122.57 84.5999 117.74 87.3099 118.38C91.8299 120.23 97.0299 120.43 102.01 119.6C102.48 119.52 102.92 119.87 102.96 120.34C104.52 131.14 88.9399 134.38 85.4499 124.18H85.4399Z" fill="#0C0C0C"/>
<path d="M108.64 119.69C98.5597 124.21 85.3897 124.6 77.0097 116.13C74.5197 113.75 78.1797 109.97 80.6397 112.4C86.9097 120.28 98.6797 120.69 107.75 117.6C109.09 117.02 110 119.12 108.65 119.69H108.64Z" fill="#0C0C0C"/>
<path d="M96.8799 123.88C96.8799 123.88 96.8799 123.82 96.8599 123.81C96.5599 123.66 96.2899 123.45 96.0399 123.19C94.9899 122.06 95.3599 120.6 95.6399 119.53C95.6999 119.3 95.8499 118.72 95.8599 118.49C95.8599 118.49 95.8599 118.48 95.8599 118.47C95.5999 117.55 95.3499 117.18 94.7299 116.8C94.7299 116.8 94.6499 116.8 94.6499 116.85C94.7799 117.92 94.6599 119.25 93.3599 120.38C93.0799 120.63 92.7799 120.82 92.4699 120.97C92.4499 120.98 92.4299 121.01 92.4399 121.04C92.8499 122.18 92.9899 123.19 92.1599 124.63C92.1599 124.63 92.1599 124.64 92.1599 124.65C92.1499 124.76 92.1599 124.99 92.2499 125.26C92.3399 125.53 92.5399 125.89 92.9399 126.04C93.2599 126.16 93.7099 126.23 94.1799 126.23C94.8599 126.23 95.5299 126.09 95.9799 125.85C96.1099 125.78 96.1899 125.72 96.2299 125.68C96.2299 125.68 96.2399 125.66 96.2399 125.65C96.4299 124.89 96.6599 124.32 96.8899 123.88H96.8799Z" fill="#FFD432"/>
<path d="M98.5298 122.94C98.3498 123.02 98.1498 123.06 97.9498 123.06C97.6498 123.06 97.1998 122.96 96.7598 122.5C96.0898 121.78 96.3498 120.76 96.5998 119.78C96.7198 119.3 96.9098 118.57 96.8298 118.27C96.5498 117.21 96.2098 116.53 95.2398 115.93C94.5898 115.53 93.7598 114.94 93.3598 114.1C93.3398 114.06 93.2798 114.06 93.2598 114.1C93.2098 114.24 93.2098 114.35 93.2098 114.41C93.2098 114.98 93.3298 115.5 93.4398 116.01C93.6798 117.1 93.9898 118.46 92.6698 119.6C92.1698 120.04 91.6198 120.27 91.0898 120.27C91.0698 120.27 91.0498 120.27 91.0298 120.27C91.0698 120.35 91.0998 120.43 91.1298 120.51C91.7498 122.01 92.0598 122.77 91.2298 124.17C91.0898 124.4 91.0598 124.98 91.2698 125.58C91.3998 125.97 91.7498 126.66 92.5598 126.97C92.9998 127.14 93.5698 127.23 94.1598 127.23C95.0098 127.23 95.8398 127.05 96.4298 126.74C96.7298 126.58 97.1098 126.32 97.1898 125.95C97.5398 124.52 98.0198 123.87 98.3798 123.4C98.5298 123.2 98.5998 123.1 98.6298 123.02C98.6298 123.01 98.6298 122.99 98.6298 122.98C98.6298 122.94 98.5898 122.91 98.5598 122.92C98.5498 122.92 98.5398 122.92 98.5298 122.93V122.94ZM94.1498 126.23C93.6798 126.23 93.2298 126.16 92.9098 126.04C92.5098 125.89 92.3098 125.53 92.2198 125.26C92.1298 124.99 92.1198 124.75 92.1298 124.65C92.1298 124.65 92.1298 124.64 92.1298 124.63C92.9598 123.2 92.8298 122.18 92.4098 121.04C92.4098 121.01 92.4098 120.99 92.4398 120.97C92.7498 120.82 93.0398 120.62 93.3298 120.38C94.6298 119.25 94.7498 117.93 94.6198 116.85C94.6198 116.81 94.6598 116.78 94.6998 116.8C95.3198 117.18 95.5698 117.55 95.8298 118.47C95.8298 118.47 95.8298 118.48 95.8298 118.49C95.8298 118.72 95.6698 119.31 95.6098 119.53C95.3398 120.6 94.9698 122.06 96.0098 123.19C96.2498 123.45 96.5298 123.66 96.8298 123.81C96.8598 123.82 96.8698 123.85 96.8498 123.88C96.6198 124.32 96.3898 124.89 96.1998 125.65C96.1998 125.65 96.1998 125.67 96.1898 125.68C96.1498 125.72 96.0698 125.78 95.9398 125.85C95.4898 126.09 94.8198 126.23 94.1398 126.23H94.1498Z" fill="#FF8B22"/>
<path d="M98.9496 120.86C98.7896 120.62 98.6996 120.33 98.6496 120.06C98.6396 120 98.5596 120 98.5496 120.06C98.5096 120.3 98.4796 120.6 98.5096 120.93C98.5596 121.44 98.3996 121.89 98.1196 122.01C98.0796 122.03 98.0296 122.04 97.9596 122.04C97.8396 122.04 97.6896 121.99 97.5196 121.8C97.2296 121.48 97.3996 120.81 97.5996 120.02C97.7796 119.33 97.9696 118.55 97.8196 118C97.4796 116.75 97.0296 115.83 95.7796 115.06C94.7396 114.42 94.2296 113.84 94.1596 113.21C94.1196 112.81 94.2696 112.41 94.6096 112C94.6396 111.96 94.6096 111.9 94.5496 111.92C93.7996 112.19 92.1996 112.94 92.2096 114.42C92.2096 115.1 92.3496 115.7 92.4696 116.23C92.6996 117.27 92.8796 118.09 92.0196 118.83C91.6996 119.11 91.3796 119.25 91.0996 119.25C91.0096 119.25 90.9196 119.23 90.8396 119.2C90.6296 119.11 90.4896 118.92 90.4696 118.68C90.4596 118.5 90.4996 118.32 90.5996 118.15C90.6296 118.1 90.5696 118.05 90.5196 118.08C90.2896 118.25 90.0696 118.49 89.9196 118.8C89.7196 119.24 89.7296 119.75 89.9596 120.3C90.0396 120.51 90.1196 120.7 90.1896 120.87C90.7896 122.31 90.9296 122.66 90.3596 123.63C90.0396 124.17 90.0196 125.06 90.3096 125.89C90.4996 126.44 90.9996 127.44 92.1896 127.89C92.7596 128.11 93.4496 128.22 94.1496 128.22C95.1296 128.22 96.1296 128.01 96.8896 127.61C97.5896 127.24 98.0296 126.74 98.1696 126.16C98.4696 124.93 98.8596 124.4 99.1796 123.98C99.3696 123.73 99.5196 123.53 99.5896 123.26C99.7996 122.5 99.2996 121.37 98.9296 120.83L98.9496 120.86ZM98.6296 123.02C98.6096 123.11 98.5296 123.21 98.3796 123.4C98.0196 123.87 97.5396 124.52 97.1896 125.95C97.0996 126.32 96.7296 126.58 96.4296 126.74C95.8296 127.05 95.0096 127.23 94.1596 127.23C93.5696 127.23 92.9996 127.14 92.5596 126.97C91.7596 126.66 91.4096 125.97 91.2696 125.58C91.0596 124.98 91.0896 124.4 91.2296 124.17C92.0596 122.77 91.7496 122.01 91.1296 120.51C91.0996 120.44 91.0696 120.36 91.0296 120.27C91.0496 120.27 91.0696 120.27 91.0896 120.27C91.6196 120.27 92.1696 120.04 92.6696 119.6C93.9896 118.46 93.6796 117.1 93.4396 116.01C93.3296 115.5 93.2096 114.98 93.2096 114.41C93.2096 114.35 93.2096 114.24 93.2596 114.1C93.2796 114.06 93.3396 114.05 93.3596 114.1C93.7596 114.94 94.5896 115.53 95.2396 115.93C96.2096 116.53 96.5496 117.21 96.8296 118.27C96.9096 118.57 96.7196 119.3 96.5996 119.78C96.3496 120.76 96.0896 121.78 96.7596 122.5C97.1896 122.96 97.6396 123.06 97.9496 123.06C98.1496 123.06 98.3396 123.02 98.5296 122.94C98.5396 122.94 98.5496 122.94 98.5596 122.93C98.5996 122.91 98.6396 122.94 98.6296 122.99C98.6296 123.01 98.6296 123.02 98.6296 123.03V123.02Z" fill="#FC3515"/>
<path d="M94.3796 125.32C94.3796 125.32 94.3796 125.32 94.3896 125.32C94.4496 125.32 94.9796 125.31 95.0896 125.02C95.2096 124.71 95.6096 124.36 94.9796 123.31C94.3496 122.26 94.2996 122.7 94.3796 123.2C94.4596 123.7 94.3096 124.39 93.9696 123.87C93.8196 123.64 93.7596 123.35 93.7396 123.1C93.7396 122.98 93.5496 122.96 93.5196 123.08C93.4396 123.36 93.3896 123.75 93.4596 124.21C93.6296 125.24 93.9996 125.37 94.3696 125.32H94.3796Z" fill="#FFEF2C"/>
<g opacity="0.4">
<path d="M99.6099 123.29C99.8199 122.53 99.3199 121.4 98.9499 120.86C98.8699 120.74 98.7999 120.6 98.7499 120.46C98.6999 120.32 98.4999 120.35 98.4899 120.5C98.4799 120.65 98.4899 120.78 98.4999 120.94C98.5499 121.45 98.3899 121.9 98.1099 122.02C97.9999 122.07 97.7799 122.11 97.5099 121.81C97.2199 121.49 97.3899 120.82 97.5899 120.03C97.7699 119.34 97.9599 118.56 97.8099 118.01C97.4699 116.76 97.0199 115.84 95.7699 115.07C94.7299 114.43 94.2199 113.85 94.1499 113.22C94.1199 112.89 94.2099 112.56 94.4399 112.22C94.5099 112.11 94.3999 111.98 94.2799 112.03C93.4699 112.37 92.1899 113.11 92.1999 114.42C92.1999 115.1 92.3399 115.7 92.4599 116.23C92.6899 117.27 92.8699 118.09 92.0099 118.83C91.5899 119.2 91.1599 119.33 90.8299 119.2C90.6199 119.11 90.4799 118.92 90.4599 118.68C90.4599 118.6 90.4599 118.52 90.4799 118.44C90.5099 118.31 90.3499 118.22 90.2599 118.32C90.1299 118.46 90.0099 118.62 89.9299 118.81C89.7299 119.25 89.7399 119.76 89.9699 120.31C90.0499 120.52 90.1299 120.71 90.1999 120.88C90.2999 121.12 90.3899 121.33 90.4599 121.52C90.5199 121.68 90.7599 121.6 90.7099 121.44C90.6899 121.36 90.6599 121.28 90.6299 121.2C90.4099 120.62 90.3199 120.13 90.2799 119.82C90.2699 119.7 90.3999 119.63 90.4899 119.7C90.6499 119.82 90.8699 119.95 91.0599 119.9C91.4199 119.82 92.4499 119.74 92.7599 118.49C93.0699 117.24 92.9799 117.03 92.8999 116.14C92.8199 115.25 93.0599 114.74 93.5199 114.89C93.9799 115.05 95.4299 114.78 96.1599 116.26C96.8899 117.73 96.8299 118.47 96.8599 118.47C96.8899 118.47 97.2499 117.99 97.2899 118.23C97.3299 118.48 97.4199 119.39 97.1799 120.49C96.9399 121.59 96.9499 122.82 97.2199 123.19C97.4899 123.55 98.5699 122.68 98.7599 122.88C98.9499 123.08 98.9599 123.8 98.5699 124.44C98.5299 124.5 98.4999 124.56 98.4799 124.62C98.4099 124.77 98.6299 124.88 98.7199 124.74C98.8799 124.44 99.0499 124.22 99.1999 124.02C99.3899 123.77 99.5399 123.57 99.6099 123.3V123.29Z" fill="#DD7F0E"/>
</g>
<g opacity="0.4">
<path d="M91.1599 119.16C91.0399 119.15 90.9399 119.13 90.8599 119.11C90.8599 119.11 90.8699 119.11 90.8799 119.11C90.9699 119.14 91.0599 119.16 91.1599 119.15V119.16Z" fill="white"/>
</g>
<g opacity="0.4">
<path d="M90.6301 122.54C90.6301 122.54 90.6301 122.46 90.6201 122.42V122.54H90.6301Z" fill="white"/>
</g>
<g opacity="0.2">
<path d="M97.95 124.86C97.89 124.73 97.69 124.78 97.7 124.93C97.71 125.17 97.7 125.49 97.62 125.84C97.43 126.66 95.37 127.35 93.85 127.16C92.78 127.03 92.15 126 91.87 125.41C91.81 125.29 91.63 125.32 91.62 125.46C91.6 125.74 91.65 125.97 91.7 126.13C91.73 126.24 91.62 126.34 91.52 126.29C91.3 126.19 91.02 126.03 90.91 125.84C90.72 125.51 90.76 124.26 90.95 123.7C91.04 123.44 90.99 123.19 90.91 123C90.86 122.88 90.7 122.9 90.66 123.02C90.6 123.21 90.5 123.42 90.36 123.66C90.04 124.2 90.02 125.09 90.31 125.92C90.5 126.47 91 127.47 92.19 127.92C93.57 128.45 95.59 128.33 96.9 127.64C97.54 127.31 97.96 126.86 98.13 126.34C98.13 126.34 98.13 126.32 98.13 126.31C98.23 125.66 98.09 125.17 97.94 124.86H97.95Z" fill="#371A45"/>
</g>
<g opacity="0.25">
<path d="M97.5 127.38C97.7 127.24 97.86 127.08 97.97 126.9C97.84 127.07 97.69 127.24 97.5 127.38Z" fill="#261C1C"/>
</g>
<path d="M94.1598 128.45C93.4298 128.45 92.7198 128.34 92.1298 128.11C91.1898 127.75 90.4898 127 90.1298 125.98C89.8198 125.09 89.8498 124.14 90.1998 123.55C90.7198 122.67 90.6198 122.41 90.0198 120.97C89.9498 120.8 89.8698 120.61 89.7798 120.4C89.5298 119.79 89.5198 119.23 89.7398 118.74C90.1298 117.89 91.0798 117.55 91.1198 117.54C91.2098 117.51 91.3098 117.57 91.3198 117.67C91.3198 117.73 91.2998 117.78 91.2498 117.81C90.8598 118.05 90.6398 118.38 90.6698 118.68C90.6798 118.84 90.7698 118.97 90.9098 119.03C91.1598 119.13 91.5198 119.01 91.8798 118.69C92.6498 118.02 92.4898 117.29 92.2598 116.28C92.1398 115.74 91.9998 115.12 91.9998 114.42C91.9898 112.35 94.7498 111.64 94.8698 111.61C94.9498 111.59 95.0398 111.64 95.0498 111.73C95.0498 111.78 95.0398 111.83 94.9998 111.87C94.5198 112.33 94.2998 112.78 94.3398 113.2C94.3998 113.75 94.8998 114.3 95.8698 114.9C97.1698 115.7 97.6498 116.66 97.9998 117.96C98.1598 118.56 97.9598 119.37 97.7798 120.08C97.6098 120.75 97.4398 121.43 97.6598 121.67C97.7598 121.78 97.8998 121.89 98.0298 121.83C98.1998 121.75 98.3498 121.4 98.2998 120.95C98.2398 120.3 98.3898 119.76 98.4598 119.53C98.4698 119.49 98.4798 119.45 98.4798 119.44C98.4798 119.44 98.4798 119.44 98.4798 119.45C98.4798 119.45 98.4898 119.37 98.5098 119.35C98.5598 119.29 98.6398 119.27 98.7098 119.31C98.7598 119.34 98.7798 119.39 98.7798 119.44C98.7798 119.44 98.7798 119.45 98.7798 119.46C98.7798 119.56 98.7798 120.27 99.1098 120.74C99.5098 121.33 100.03 122.51 99.7998 123.33C99.7098 123.64 99.5498 123.86 99.3598 124.12C99.0498 124.53 98.6698 125.04 98.3798 126.23C98.2298 126.87 97.7498 127.41 96.9998 127.81C96.2098 128.22 95.1698 128.44 94.1598 128.44V128.45ZM90.4198 118.32C90.2598 118.47 90.1198 118.65 90.0198 118.87C89.8298 119.28 89.8498 119.76 90.0598 120.29C90.1398 120.5 90.2198 120.69 90.2898 120.86C90.8998 122.34 91.0498 122.69 90.4498 123.7C90.1498 124.21 90.1298 125.08 90.4098 125.88C90.5998 126.42 91.0798 127.38 92.2298 127.82C93.5798 128.34 95.5698 128.22 96.8598 127.54C97.5298 127.19 97.9498 126.71 98.0898 126.16C98.3898 124.91 98.8098 124.35 99.1198 123.94C99.2998 123.7 99.4398 123.51 99.5198 123.25C99.7098 122.56 99.2598 121.46 98.8698 120.9C98.7598 120.74 98.6698 120.54 98.6098 120.32C98.5898 120.5 98.5898 120.7 98.6098 120.91C98.6698 121.46 98.4798 121.95 98.1598 122.09C98.0298 122.15 97.7598 122.2 97.4398 121.86C97.1098 121.5 97.2898 120.8 97.4898 119.99C97.6598 119.31 97.8598 118.55 97.7198 118.02C97.3898 116.8 96.9398 115.89 95.7198 115.14C94.6498 114.48 94.1198 113.87 94.0498 113.22C94.0098 112.84 94.1298 112.45 94.4198 112.07C93.6498 112.37 92.2898 113.1 92.2998 114.41C92.2998 115.08 92.4398 115.68 92.5598 116.2C92.7898 117.23 92.9898 118.11 92.0798 118.9C91.6298 119.29 91.1598 119.43 90.7998 119.29C90.5498 119.19 90.3898 118.97 90.3698 118.69C90.3598 118.56 90.3698 118.43 90.4198 118.3V118.32Z" fill="#0C0C0C"/>
<path d="M136.75 112.92C137.24 117.19 134.18 121.05 129.9 121.55C126.13 121.98 122.67 119.65 121.58 116.15C125.7 115.21 131.08 113.24 135.23 109.14C136.04 110.21 136.57 111.5 136.74 112.92H136.75Z" fill="#FF1B40"/>
<path d="M135.14 113.11C135.03 112.01 134.64 111.01 134.18 109.94L136.18 110.08C132.11 113.84 126.95 115.93 121.77 116.95L122.37 115.91C125.14 123.21 136.17 120.81 135.14 113.11ZM138.36 112.74C139.36 123.48 123.82 126.91 120.81 116.43C120.65 115.98 120.91 115.48 121.37 115.36C126.25 114.07 130.91 111.76 134.27 108.22C136.47 106.53 138.21 111.03 138.35 112.74H138.36Z" fill="#0C0C0C"/>
<path d="M115.36 118.16C126.41 118.14 138.58 113.1 142.74 101.93C144.03 98.73 139.15 96.79 137.9 100.02C135.42 109.78 124.85 114.99 115.32 115.89C113.86 115.91 113.89 118.2 115.36 118.16Z" fill="#0C0C0C"/>
<path d="M127.809 117.15C127.809 117.15 127.779 117.1 127.809 117.08C128.019 116.82 128.189 116.52 128.299 116.18C128.789 114.72 127.849 113.54 127.169 112.68C127.019 112.5 126.649 112.02 126.539 111.82C126.539 111.82 126.539 111.81 126.539 111.8C126.389 110.85 126.469 110.42 126.879 109.81C126.879 109.81 126.959 109.78 126.969 109.82C127.289 110.85 127.939 112.01 129.589 112.51C129.949 112.62 130.299 112.68 130.639 112.69C130.669 112.69 130.689 112.71 130.689 112.74C130.779 113.95 131.079 114.93 132.419 115.9C132.419 115.9 132.429 115.9 132.429 115.91C132.479 116 132.579 116.22 132.599 116.51C132.629 116.8 132.599 117.2 132.289 117.5C132.049 117.74 131.669 117.99 131.239 118.18C130.619 118.46 129.949 118.61 129.439 118.58C129.289 118.58 129.189 118.55 129.139 118.53C129.139 118.53 129.119 118.53 129.119 118.51C128.639 117.9 128.189 117.47 127.799 117.16L127.809 117.15Z" fill="#FFD432"/>
<path d="M125.88 116.97C125.88 116.97 125.81 117.02 125.83 117.05C125.83 117.06 125.85 117.07 125.86 117.08C125.92 117.15 126.02 117.21 126.24 117.33C126.76 117.62 127.47 118.01 128.37 119.17C128.6 119.47 129.05 119.55 129.39 119.58C130.06 119.62 130.89 119.44 131.67 119.1C132.21 118.86 132.69 118.54 133.02 118.21C133.63 117.6 133.66 116.82 133.62 116.41C133.56 115.77 133.3 115.26 133.07 115.11C131.74 114.17 131.71 113.36 131.66 111.73C131.66 111.65 131.66 111.57 131.66 111.48C131.64 111.48 131.62 111.5 131.6 111.51C131.12 111.73 130.52 111.74 129.88 111.55C128.21 111.05 127.93 109.69 127.7 108.59C127.6 108.08 127.49 107.56 127.26 107.04C127.24 106.99 127.19 106.89 127.09 106.78C127.06 106.75 127 106.77 127 106.82C126.98 107.75 126.47 108.63 126.04 109.26C125.4 110.2 125.37 110.97 125.55 112.05C125.6 112.35 126.07 112.94 126.38 113.33C127.01 114.12 127.66 114.94 127.35 115.87C127.15 116.47 126.77 116.74 126.5 116.87C126.32 116.95 126.12 116.99 125.92 116.99C125.91 116.99 125.9 116.99 125.89 116.99L125.88 116.97ZM129.45 118.57C129.3 118.57 129.2 118.54 129.15 118.52C129.15 118.52 129.13 118.52 129.13 118.5C128.65 117.89 128.2 117.46 127.81 117.15C127.79 117.13 127.78 117.1 127.81 117.08C128.02 116.82 128.19 116.52 128.3 116.18C128.79 114.72 127.85 113.54 127.17 112.68C127.02 112.5 126.65 112.02 126.54 111.82C126.54 111.82 126.54 111.81 126.54 111.8C126.39 110.85 126.47 110.42 126.88 109.81C126.88 109.81 126.96 109.78 126.97 109.82C127.29 110.85 127.94 112.01 129.59 112.51C129.95 112.62 130.3 112.68 130.64 112.69C130.67 112.69 130.69 112.71 130.69 112.74C130.78 113.95 131.08 114.93 132.42 115.9C132.42 115.9 132.43 115.9 132.43 115.91C132.48 116 132.58 116.22 132.6 116.51C132.63 116.8 132.6 117.2 132.29 117.5C132.05 117.74 131.67 117.99 131.24 118.18C130.62 118.46 129.95 118.61 129.44 118.58L129.45 118.57Z" fill="#FF8B22"/>
<path d="M125.079 117.74C125.259 117.96 125.479 118.08 125.749 118.23C126.219 118.49 126.799 118.81 127.569 119.8C127.939 120.27 128.549 120.55 129.329 120.6C130.189 120.65 131.189 120.43 132.079 120.03C132.719 119.74 133.299 119.36 133.739 118.93C134.639 118.03 134.679 116.91 134.629 116.33C134.549 115.45 134.169 114.65 133.659 114.29C132.739 113.64 132.729 113.27 132.679 111.71C132.679 111.52 132.669 111.32 132.659 111.09C132.639 110.49 132.439 110.02 132.079 109.7C131.819 109.47 131.519 109.35 131.239 109.29C131.179 109.28 131.149 109.35 131.199 109.38C131.359 109.49 131.479 109.64 131.539 109.81C131.619 110.04 131.569 110.27 131.419 110.43C131.359 110.49 131.289 110.55 131.199 110.58C130.949 110.69 130.589 110.69 130.189 110.58C129.099 110.25 128.929 109.43 128.709 108.39C128.599 107.86 128.469 107.25 128.199 106.63C127.599 105.28 125.829 105.25 125.039 105.31C124.989 105.31 124.969 105.39 125.019 105.41C125.499 105.64 125.809 105.95 125.929 106.33C126.119 106.92 125.899 107.67 125.209 108.68C124.389 109.89 124.349 110.92 124.549 112.2C124.639 112.77 125.139 113.4 125.579 113.95C126.079 114.58 126.519 115.13 126.379 115.54C126.299 115.78 126.179 115.89 126.069 115.94C126.009 115.97 125.959 115.97 125.909 115.97C125.599 115.97 125.279 115.63 125.109 115.14C125.009 114.83 124.859 114.57 124.719 114.37C124.689 114.32 124.609 114.35 124.629 114.41C124.689 114.67 124.729 114.98 124.679 115.26C124.569 115.9 124.569 117.14 125.079 117.75V117.74ZM125.829 117.06C125.829 117.06 125.829 116.98 125.869 116.98C125.879 116.98 125.889 116.98 125.899 116.98C126.099 116.98 126.289 116.94 126.479 116.86C126.759 116.74 127.129 116.46 127.329 115.86C127.649 114.93 126.989 114.11 126.359 113.32C126.049 112.93 125.579 112.34 125.529 112.04C125.359 110.96 125.379 110.2 126.019 109.25C126.449 108.62 126.959 107.74 126.979 106.81C126.979 106.76 127.039 106.74 127.069 106.78C127.179 106.89 127.219 106.99 127.249 107.04C127.479 107.56 127.589 108.09 127.689 108.59C127.919 109.68 128.199 111.05 129.869 111.55C130.509 111.74 131.099 111.73 131.589 111.51C131.609 111.51 131.629 111.49 131.649 111.48C131.649 111.57 131.649 111.66 131.649 111.73C131.699 113.35 131.719 114.17 133.059 115.11C133.279 115.27 133.549 115.78 133.609 116.41C133.649 116.82 133.609 117.6 133.009 118.21C132.679 118.54 132.199 118.86 131.659 119.1C130.889 119.45 130.059 119.62 129.379 119.58C129.039 119.56 128.589 119.47 128.359 119.17C127.459 118.01 126.749 117.62 126.229 117.33C126.009 117.21 125.909 117.15 125.849 117.08C125.849 117.07 125.829 117.06 125.819 117.04L125.829 117.06Z" fill="#FC3515"/>
<path d="M130.68 117.44C130.68 117.44 130.68 117.44 130.67 117.44C130.61 117.46 130.12 117.67 129.9 117.45C129.67 117.22 129.15 117.06 129.3 115.85C129.45 114.64 129.67 115.02 129.8 115.51C129.93 116 130.36 116.56 130.45 115.95C130.49 115.68 130.43 115.39 130.34 115.15C130.3 115.03 130.45 114.94 130.53 115.04C130.72 115.26 130.93 115.59 131.05 116.05C131.32 117.05 131.03 117.33 130.67 117.44H130.68Z" fill="#FFEF2C"/>
<g opacity="0.4">
<path d="M125.08 117.74C124.58 117.13 124.57 115.89 124.68 115.25C124.71 115.1 124.71 114.95 124.7 114.8C124.69 114.65 124.88 114.6 124.95 114.73C125.02 114.86 125.07 114.99 125.12 115.13C125.28 115.62 125.61 115.96 125.92 115.96C126.04 115.96 126.26 115.9 126.39 115.53C126.53 115.12 126.09 114.57 125.59 113.94C125.15 113.38 124.65 112.75 124.56 112.19C124.36 110.92 124.39 109.88 125.22 108.67C125.91 107.66 126.14 106.92 125.94 106.32C125.84 106.01 125.61 105.74 125.27 105.53C125.16 105.46 125.21 105.29 125.34 105.29C126.21 105.27 127.69 105.42 128.22 106.62C128.49 107.24 128.62 107.85 128.73 108.38C128.94 109.42 129.11 110.24 130.21 110.57C130.75 110.73 131.2 110.68 131.44 110.42C131.6 110.26 131.64 110.02 131.56 109.8C131.53 109.73 131.5 109.65 131.45 109.59C131.37 109.48 131.48 109.34 131.61 109.39C131.78 109.46 131.96 109.56 132.11 109.7C132.47 110.02 132.67 110.49 132.69 111.09C132.69 111.31 132.7 111.52 132.71 111.71C132.71 111.97 132.72 112.2 132.73 112.4C132.73 112.57 132.49 112.59 132.47 112.42C132.46 112.34 132.45 112.26 132.44 112.17C132.4 111.55 132.28 111.06 132.19 110.77C132.16 110.66 132 110.64 131.95 110.75C131.85 110.93 131.7 111.13 131.51 111.17C131.15 111.24 130.18 111.6 129.38 110.58C128.58 109.56 128.59 109.34 128.28 108.49C127.97 107.64 127.56 107.28 127.2 107.61C126.84 107.94 125.41 108.3 125.36 109.94C125.3 111.58 125.66 112.23 125.63 112.24C125.6 112.25 125.08 111.96 125.14 112.2C125.2 112.44 125.5 113.31 126.16 114.21C126.83 115.11 127.33 116.24 127.23 116.69C127.13 117.13 125.79 116.78 125.7 117.03C125.61 117.29 125.9 117.95 126.51 118.37C126.57 118.41 126.62 118.45 126.67 118.49C126.8 118.6 126.64 118.8 126.5 118.69C126.23 118.48 125.99 118.35 125.77 118.23C125.5 118.08 125.28 117.96 125.1 117.74H125.08Z" fill="#DD7F0E"/>
</g>
<g opacity="0.4">
<path d="M131.09 110.5C131.19 110.44 131.28 110.38 131.35 110.33C131.35 110.33 131.35 110.34 131.34 110.35C131.28 110.42 131.19 110.47 131.1 110.5H131.09Z" fill="white"/>
</g>
<g opacity="0.4">
<path d="M127.67 105.79C127.67 105.79 127.66 105.79 127.65 105.78C127.65 105.78 127.65 105.78 127.66 105.78L127.67 105.79Z" fill="white"/>
</g>
<g opacity="0.4">
<path d="M132.96 113.37C132.96 113.37 132.93 113.29 132.92 113.25L132.96 113.37Z" fill="white"/>
</g>
<g opacity="0.2">
<path d="M127.23 118.49C127.23 118.35 127.43 118.31 127.48 118.45C127.57 118.68 127.71 118.96 127.93 119.24C128.44 119.91 130.61 119.69 131.91 118.9C132.83 118.34 132.98 117.15 132.99 116.49C132.99 116.35 133.17 116.31 133.24 116.43C133.37 116.68 133.42 116.9 133.44 117.07C133.45 117.18 133.59 117.23 133.67 117.14C133.83 116.96 134.02 116.7 134.04 116.49C134.08 116.12 133.53 114.99 133.13 114.55C132.94 114.35 132.89 114.1 132.88 113.9C132.88 113.78 133.03 113.72 133.11 113.81C133.24 113.96 133.42 114.11 133.65 114.27C134.16 114.63 134.55 115.43 134.62 116.31C134.67 116.89 134.62 118.01 133.73 118.91C132.69 119.95 130.8 120.67 129.32 120.58C128.6 120.54 128.03 120.3 127.66 119.9C127.66 119.9 127.65 119.89 127.64 119.88C127.28 119.33 127.21 118.83 127.22 118.47L127.23 118.49Z" fill="#371A45"/>
</g>
<g opacity="0.25">
<path d="M128.68 120.6C128.44 120.55 128.23 120.47 128.05 120.35C128.24 120.46 128.45 120.54 128.68 120.6Z" fill="#261C1C"/>
</g>
<path d="M129.32 120.79C128.48 120.74 127.82 120.44 127.41 119.92C126.66 118.96 126.1 118.65 125.65 118.4C125.37 118.25 125.13 118.11 124.92 117.86C124.37 117.2 124.36 115.91 124.48 115.21C124.58 114.65 124.29 114 124.25 113.91C124.25 113.91 124.25 113.9 124.25 113.89C124.23 113.84 124.23 113.78 124.26 113.74C124.31 113.68 124.39 113.66 124.46 113.69C124.48 113.7 124.5 113.73 124.52 113.77C124.52 113.77 124.52 113.77 124.52 113.76C124.52 113.77 124.56 113.8 124.58 113.83C124.74 114.02 125.1 114.45 125.31 115.06C125.45 115.49 125.73 115.75 125.92 115.75C126.06 115.75 126.15 115.59 126.19 115.45C126.29 115.14 125.85 114.59 125.42 114.05C124.96 113.47 124.44 112.82 124.34 112.21C124.13 110.89 124.17 109.81 125.03 108.55C125.67 107.61 125.9 106.9 125.73 106.38C125.6 105.98 125.21 105.66 124.58 105.43C124.53 105.41 124.49 105.37 124.48 105.32C124.46 105.23 124.52 105.15 124.6 105.14C124.72 105.12 127.54 104.64 128.37 106.53C128.65 107.17 128.78 107.79 128.89 108.33C129.1 109.34 129.25 110.08 130.23 110.37C130.69 110.51 131.07 110.47 131.26 110.28C131.37 110.17 131.39 110.02 131.34 109.86C131.24 109.57 130.91 109.37 130.45 109.31C130.39 109.31 130.34 109.26 130.33 109.21C130.3 109.11 130.37 109.02 130.46 109.01C130.5 109.01 131.51 108.92 132.21 109.54C132.62 109.9 132.84 110.41 132.86 111.07C132.86 111.3 132.87 111.5 132.88 111.69C132.93 113.24 132.94 113.52 133.77 114.11C134.33 114.5 134.74 115.36 134.83 116.3C134.92 117.37 134.59 118.35 133.88 119.06C133.43 119.51 132.83 119.9 132.17 120.2C131.25 120.62 130.21 120.85 129.32 120.79ZM131.63 109.76C131.72 110.02 131.67 110.29 131.48 110.49C131.21 110.77 130.73 110.84 130.15 110.66C129 110.32 128.82 109.43 128.61 108.39C128.5 107.86 128.38 107.26 128.11 106.65C127.58 105.45 126.05 105.34 125.21 105.38C125.63 105.62 125.9 105.92 126.02 106.28C126.22 106.9 125.99 107.68 125.29 108.71C124.48 109.89 124.45 110.91 124.65 112.16C124.74 112.7 125.23 113.32 125.66 113.87C126.18 114.53 126.63 115.09 126.48 115.55C126.33 115.99 126.07 116.05 125.92 116.05C125.57 116.05 125.21 115.68 125.03 115.15C124.96 114.95 124.88 114.77 124.79 114.61C124.82 114.84 124.82 115.06 124.79 115.25C124.67 115.92 124.71 117.11 125.16 117.65C125.33 117.86 125.54 117.97 125.8 118.12C126.25 118.37 126.86 118.71 127.65 119.72C128 120.17 128.58 120.43 129.34 120.48C130.79 120.57 132.65 119.86 133.67 118.83C134.54 117.96 134.58 116.88 134.53 116.31C134.46 115.47 134.08 114.68 133.6 114.34C132.64 113.66 132.63 113.28 132.58 111.68C132.58 111.49 132.57 111.29 132.56 111.06C132.54 110.49 132.36 110.05 132.01 109.75C131.83 109.59 131.62 109.48 131.42 109.42C131.51 109.52 131.58 109.63 131.63 109.75V109.76Z" fill="#0C0C0C"/>
<path d="M86.2898 193.26C83.5598 179.42 88.1498 161.53 88.3498 160.78L90.8298 161.43C90.7798 161.61 86.1898 179.51 88.7998 192.77L86.2898 193.27V193.26Z" fill="#232323"/>
<path d="M125.76 165.01C128.23 166.36 130.61 167.66 133.06 168.86C135.5 170.06 138.09 170.95 140.72 171.58C141.38 171.73 142.04 171.9 142.71 172C143.38 172.12 144.03 172.24 144.74 172.35C145.44 172.47 146.14 172.57 146.84 172.71C147.54 172.84 148.24 172.98 148.94 173.14C150.34 173.45 151.73 173.82 153.13 174.32C153.48 174.44 153.83 174.59 154.18 174.72C154.53 174.88 154.88 175.02 155.23 175.22C155.58 175.4 155.93 175.6 156.29 175.86C156.47 175.98 156.65 176.14 156.84 176.3C156.94 176.39 157.03 176.49 157.13 176.61L157.29 176.82C157.29 176.82 157.35 176.92 157.38 176.97L157.43 177.05C157.43 177.05 157.49 177.18 157.51 177.24L157.47 177.13C157.81 177.89 158.06 178.6 158.31 179.35C158.55 180.09 158.77 180.85 158.95 181.62C159.29 183.17 159.54 184.78 159.31 186.54C159.19 187.41 158.93 188.33 158.39 189.18C157.86 190.03 157.01 190.73 156.11 191.1C156 191.15 155.89 191.2 155.77 191.24L155.43 191.34C155.2 191.4 154.97 191.48 154.75 191.5L154.08 191.6L153.43 191.62C153.21 191.63 153 191.62 152.79 191.61L152.16 191.57C151.75 191.52 151.35 191.45 150.95 191.39C150.25 191.29 149.77 190.64 149.87 189.94C149.97 189.26 150.59 188.78 151.27 188.85H151.39C151.73 188.9 152.06 188.95 152.39 188.98C152.71 188.98 153.05 189.03 153.36 188.99C154 188.99 154.57 188.85 155.04 188.65C155.51 188.44 155.86 188.15 156.11 187.73C156.37 187.32 156.53 186.77 156.61 186.17C156.76 184.96 156.57 183.57 156.27 182.22C155.97 180.87 155.5 179.47 154.98 178.22L154.94 178.11C154.94 178.11 154.98 178.22 155 178.24V178.26L155.04 178.3L154.97 178.22C154.89 178.15 154.82 178.08 154.7 178C154.49 177.85 154.24 177.69 153.97 177.55C153.71 177.4 153.41 177.28 153.13 177.14C152.83 177.02 152.54 176.89 152.23 176.78C151 176.31 149.69 175.95 148.37 175.62C147.71 175.45 147.04 175.3 146.37 175.16C145.7 175.01 145.02 174.89 144.35 174.76C143.69 174.64 142.96 174.49 142.26 174.34C141.55 174.21 140.86 174.01 140.16 173.83C137.39 173.06 134.69 172.01 132.16 170.65C130.88 170 129.67 169.21 128.54 168.32C127.97 167.88 127.44 167.39 126.93 166.89C126.42 166.38 125.94 165.84 125.53 165.23C125.47 165.14 125.5 165.03 125.58 164.97C125.64 164.93 125.71 164.93 125.77 164.97L125.76 165.01Z" fill="#232323"/>
<path d="M150.93 181.58C151.71 182.9 152.15 184.35 152.37 185.88C152.58 187.41 152.51 189.03 151.92 190.66C151.64 191.47 151.16 192.26 150.55 192.95C149.94 193.64 149.14 194.18 148.31 194.52C146.63 195.19 144.9 195.2 143.37 194.92C142.67 194.79 142.21 194.12 142.34 193.43C142.45 192.81 142.99 192.38 143.59 192.38H143.63C144.94 192.37 146.18 192.25 147.17 191.82C148.16 191.41 148.86 190.68 149.36 189.63C149.86 188.59 150.08 187.29 150.23 185.95C150.39 184.6 150.42 183.19 150.49 181.73C150.49 181.58 150.61 181.48 150.74 181.48C150.82 181.48 150.9 181.53 150.94 181.6L150.93 181.58Z" fill="#232323"/>
<path d="M143.35 184.5C144.05 185.37 144.6 186.34 145.03 187.38C145.46 188.42 145.76 189.55 145.81 190.78C145.83 191.39 145.79 192.04 145.62 192.69C145.45 193.34 145.16 194 144.74 194.58C143.88 195.77 142.54 196.47 141.32 196.8C140.69 196.97 140.1 197.03 139.51 197.1C139.36 197.12 139.21 197.14 139.06 197.15H138.6H137.68C136.45 197.04 135.21 196.75 134.07 196.21C132.94 195.64 131.93 194.88 131.12 193.96C130.91 193.74 130.73 193.49 130.54 193.25C130.36 193.01 130.2 192.75 130.03 192.49C129.88 192.23 129.72 191.97 129.59 191.69C129.45 191.41 129.34 191.16 129.21 190.79L130.57 191.59C129.05 191.83 127.64 191.9 126.17 191.9C124.71 191.9 123.25 191.79 121.8 191.59C120.35 191.39 118.9 191.09 117.49 190.66C116.07 190.24 114.69 189.69 113.36 189C112.03 188.32 110.76 187.51 109.61 186.53C108.46 185.57 107.39 184.48 106.51 183.27C106.4 183.12 106.28 182.97 106.17 182.82L105.87 182.35C105.67 182.03 105.47 181.72 105.29 181.39C104.96 180.72 104.62 180.06 104.4 179.35C103.88 177.97 103.63 176.5 103.58 175.05C103.58 174.88 103.71 174.74 103.88 174.73C104 174.73 104.11 174.79 104.16 174.89C105.52 177.4 106.79 179.72 108.48 181.72C109.3 182.74 110.26 183.62 111.29 184.41C112.33 185.19 113.44 185.89 114.62 186.44C115.8 187 117.04 187.47 118.31 187.85C119.58 188.23 120.89 188.49 122.21 188.7C123.53 188.9 124.87 189.03 126.22 189.09C126.89 189.11 127.57 189.14 128.24 189.13C128.9 189.13 129.61 189.11 130.21 189.06H130.33C130.89 189 131.4 189.35 131.58 189.86C131.66 189.98 131.79 190.2 131.91 190.38C132.04 190.57 132.17 190.75 132.31 190.93C132.6 191.28 132.9 191.62 133.22 191.92C133.87 192.52 134.59 193.03 135.37 193.38C136.15 193.73 137 193.91 137.87 194H138.54L138.88 194.02C138.99 194.02 139.11 194 139.22 193.99C139.68 193.95 140.15 193.92 140.54 193.83C140.94 193.74 141.32 193.62 141.63 193.45C141.95 193.29 142.22 193.09 142.44 192.83C142.88 192.33 143.17 191.59 143.29 190.7C143.53 188.91 143.21 186.82 142.84 184.75V184.73C142.81 184.58 142.91 184.43 143.06 184.41C143.16 184.39 143.26 184.43 143.33 184.51L143.35 184.5Z" fill="#232323"/>
<path d="M78.8396 193.55C78.2996 193.55 77.7896 193.2 77.6196 192.66C74.3696 182.48 67.1896 166.95 61.7396 168.61C54.0696 170.96 54.2596 185.13 54.2596 185.27C54.2696 185.98 53.7096 186.56 53.0096 186.58H52.9796C52.2896 186.58 51.7096 186.02 51.6996 185.33C51.6896 184.67 51.4796 169.08 60.9896 166.17C70.6196 163.22 79.1196 188.94 80.0596 191.89C80.2696 192.56 79.8996 193.28 79.2296 193.5C79.0996 193.54 78.9696 193.56 78.8396 193.56V193.55Z" fill="#232323"/>
<path d="M85.4498 193.26C81.9698 175.93 77.0798 167.85 73.6598 166.07C73.0398 165.75 72.4998 165.66 72.1398 165.81C69.7998 166.83 69.2998 170.56 69.2998 170.59L66.7598 170.28C66.7898 170.07 67.4398 165.07 71.1198 163.46C71.8898 163.13 73.1598 162.91 74.8498 163.79C77.2998 165.07 83.4898 170.45 87.9698 192.75L85.4598 193.25L85.4498 193.26Z" fill="#232323"/>
<path d="M6.50977 222.74C6.36977 222.74 6.23977 222.72 6.10977 222.68C5.80977 222.58 -1.15023 220.16 0.169768 209.51C0.499768 206.87 1.40977 204.43 2.79977 202.46C6.34977 197.44 11.0398 197.47 13.7098 198.37C26.1698 184.25 51.3698 184.02 52.9498 184.02H52.9898C53.4798 184.02 53.9198 184.3 54.1398 184.74C60.1498 197.15 78.2498 191.12 78.4298 191.06C78.5998 191 78.7798 190.98 78.9598 191C99.0698 192.73 130.63 190.26 130.94 190.23C131.65 190.18 132.26 190.7 132.32 191.4C132.38 192.1 131.85 192.72 131.15 192.78C130.83 192.81 99.3298 195.28 78.9998 193.57C76.6098 194.31 59.0698 199.21 52.2198 186.6C47.8498 186.73 26.0098 188.02 15.4198 200.32C15.7398 203.51 16.7298 218.56 7.01977 222.65C6.85977 222.72 6.68977 222.75 6.51977 222.75L6.50977 222.74ZM10.7998 200.47C9.09977 200.47 6.85977 201.14 4.88977 203.93C3.73977 205.56 2.98977 207.59 2.70977 209.82C1.82977 216.96 5.25977 219.41 6.49977 220.06C13.7598 216.46 13.1598 203.97 12.8798 200.81C12.3998 200.65 11.6698 200.48 10.7998 200.48V200.47Z" fill="#232323"/>
<path d="M9.53988 250.21H4.42988C3.87988 250.21 3.38988 249.86 3.21988 249.33C-0.830117 237.17 2.22988 219.82 2.35988 219.09C2.48988 218.4 3.14988 217.93 3.84988 218.06C4.54988 218.19 5.00988 218.85 4.87988 219.55C4.84988 219.72 1.94988 236.14 5.36988 247.65H9.53988C10.2499 247.65 10.8199 248.22 10.8199 248.93C10.8199 249.64 10.2499 250.21 9.53988 250.21Z" fill="#232323"/>
<path d="M12.9597 252.29C12.0797 252.29 11.2097 252.01 10.4597 251.47C9.45968 250.75 8.78968 249.63 8.62968 248.41C7.88968 242.88 7.04968 223.99 27.2897 213.2C33.7597 209.75 41.3197 208.48 49.1397 209.52C56.4897 210.5 63.4897 213.52 68.8597 218C77.9597 225.59 81.1897 236.13 77.7297 246.91C77.0297 249.08 75.1597 250.7 72.9697 251.04C71.3797 251.29 70.3597 250.79 69.7797 250.33C68.8297 249.58 68.2897 248.35 68.1497 246.67C67.6097 239.87 63.8497 224.06 40.7397 224.06C33.8797 224.06 28.3697 226.1 24.3597 230.13C17.1297 237.39 17.0997 248.8 17.0997 248.91C17.0997 249.04 17.0797 249.18 17.0397 249.31C16.7497 250.21 15.7397 251.82 13.7497 252.2C13.4797 252.25 13.2197 252.28 12.9497 252.28L12.9597 252.29ZM43.9597 211.77C38.5197 211.77 33.1597 212.98 28.4997 215.46C10.2297 225.2 10.2897 241.51 11.1697 248.08C11.2397 248.61 11.5297 249.09 11.9597 249.4C12.3497 249.68 12.8197 249.79 13.2797 249.7C14.0397 249.55 14.4197 248.95 14.5497 248.67C14.5897 246.78 15.1197 235.82 22.5397 228.35C27.0497 223.81 33.1797 221.51 40.7497 221.51C65.9897 221.51 70.1097 238.97 70.7097 246.47C70.7797 247.39 71.0197 248.05 71.3697 248.33C71.6297 248.54 72.0397 248.6 72.5797 248.51C73.8297 248.32 74.8897 247.38 75.2897 246.13C78.4097 236.39 75.4697 226.85 67.2197 219.96C60.7697 214.58 52.2697 211.76 43.9497 211.76L43.9597 211.77Z" fill="#232323"/>
<path d="M42.3196 265.61C30.2296 265.61 19.1796 258.04 14.8096 246.77L17.1996 245.84C21.1896 256.13 31.2796 263.04 42.3196 263.04C54.1896 263.04 64.5196 255.44 68.0396 244.12L70.4796 244.88C66.6296 257.28 55.3096 265.6 42.3096 265.6L42.3196 265.61Z" fill="#232323"/>
<path d="M42.3199 251.19C35.2199 251.19 29.4399 245.41 29.4399 238.31C29.4399 231.21 35.2199 225.43 42.3199 225.43C49.4199 225.43 55.1999 231.21 55.1999 238.31C55.1999 245.41 49.4199 251.19 42.3199 251.19ZM42.3199 227.99C36.6299 227.99 31.9999 232.62 31.9999 238.31C31.9999 244 36.6299 248.63 42.3199 248.63C48.0099 248.63 52.6399 244 52.6399 238.31C52.6399 232.62 48.0099 227.99 42.3199 227.99Z" fill="#232323"/>
<path d="M191.92 251.19C184.82 251.19 179.04 245.41 179.04 238.31C179.04 231.21 184.82 225.43 191.92 225.43C199.02 225.43 204.8 231.21 204.8 238.31C204.8 245.41 199.02 251.19 191.92 251.19ZM191.92 227.99C186.23 227.99 181.6 232.62 181.6 238.31C181.6 244 186.23 248.63 191.92 248.63C197.61 248.63 202.24 244 202.24 238.31C202.24 232.62 197.61 227.99 191.92 227.99Z" fill="#232323"/>
<path d="M154 200.4C147.71 200.4 145.51 196.01 145.23 193.69C145.14 192.99 145.64 192.35 146.35 192.26C147.05 192.18 147.68 192.67 147.77 193.37C147.83 193.83 148.55 197.84 154 197.84C157.86 197.84 164.44 196.79 166.19 189.95C164.86 189.23 161.79 187.83 157.9 187.78C157.19 187.78 156.63 187.19 156.64 186.48C156.64 185.77 157.23 185.19 157.94 185.22C163.97 185.3 168.19 188.14 168.37 188.27C168.79 188.56 169 189.06 168.91 189.56C167.64 196.45 162.21 200.41 154.01 200.41L154 200.4Z" fill="#232323"/>
<path d="M223.12 203.69C222.8 203.69 222.49 203.57 222.24 203.34C209.08 190.83 185.17 188.38 182.6 188.15C176.61 189.88 168.1 190.57 167.74 190.6C167.02 190.66 166.42 190.13 166.36 189.43C166.3 188.73 166.83 188.11 167.53 188.05C167.62 188.05 176.36 187.33 182.1 185.63C182.25 185.59 182.4 185.57 182.56 185.58C183.65 185.66 209.5 187.69 224 201.49C224.51 201.98 224.53 202.79 224.05 203.3C223.8 203.56 223.46 203.7 223.12 203.7V203.69Z" fill="#232323"/>
<path d="M182.47 188.14C181.91 188.14 181.39 187.77 181.24 187.2C177.7 174.27 170.74 166.77 165.53 162.75C164.84 162.22 163.97 162.14 163.19 162.52C162.4 162.91 161.93 163.66 161.93 164.53V186.74C161.93 187.45 161.36 188.02 160.65 188.02C159.94 188.02 159.37 187.45 159.37 186.74V164.53C159.37 162.69 160.4 161.03 162.05 160.22C163.7 159.41 165.63 159.6 167.08 160.72C172.61 164.98 179.98 172.91 183.7 186.52C183.89 187.2 183.49 187.91 182.8 188.09C182.69 188.12 182.57 188.14 182.46 188.14H182.47Z" fill="#232323"/>
<path d="M235.27 232.46C234.99 232.46 234.71 232.37 234.47 232.18C218.51 219.49 218.05 203.99 218.04 203.34C218.03 202.75 218.42 202.23 219 202.08C219.19 202.03 237.88 197.3 242.66 210.2C247.56 223.41 236.15 232.12 236.03 232.2C235.8 232.37 235.53 232.45 235.26 232.45L235.27 232.46ZM220.69 204.33C221.09 207.83 223.29 219.57 235.26 229.52C237.53 227.48 243.84 220.72 240.26 211.09C236.86 201.94 224.39 203.61 220.69 204.33Z" fill="#232323"/>
<path d="M241.95 222.66C241.7 222.66 241.44 222.59 241.22 222.43C229.77 214.5 226.64 203.25 226.51 202.77C226.33 202.09 226.73 201.39 227.41 201.2C228.09 201.02 228.79 201.42 228.98 202.1C229.02 202.25 232.05 212.96 242.67 220.32C243.25 220.72 243.4 221.52 242.99 222.1C242.74 222.46 242.34 222.65 241.94 222.65L241.95 222.66Z" fill="#232323"/>
<path d="M227.12 245.86C226.58 245.86 226.07 245.51 225.9 244.96C225.69 244.29 226.06 243.57 226.74 243.35C236.59 240.25 235.62 230.32 235.57 229.9C235.49 229.2 236 228.57 236.7 228.49C237.39 228.41 238.03 228.92 238.11 229.62C238.12 229.74 239.34 242.07 227.5 245.79C227.37 245.83 227.24 245.85 227.12 245.85V245.86Z" fill="#232323"/>
<path d="M221.65 250.22C220.2 250.22 218.81 249.72 217.66 248.78C216.31 247.68 215.46 246.06 215.31 244.33C214.73 237.63 211.16 222.05 190.59 222.05C183.44 222.05 177.94 223.94 174.24 227.66C169.34 232.59 168.66 239.73 168.69 243.55C168.7 245.5 167.83 247.32 166.29 248.53C164.82 249.69 162.95 250.11 161.15 249.66C159.34 249.21 156.95 247.75 155.83 243.31C155.83 243.28 155.81 243.24 155.81 243.21C155.72 242.64 153.59 229.07 162.34 218.75C168.56 211.42 178.6 207.7 192.2 207.7C219.64 207.7 226.45 229.79 228.06 242.96C228.48 246.35 226.21 249.48 222.89 250.08C222.72 250.11 222.55 250.14 222.37 250.16C222.13 250.19 221.88 250.2 221.64 250.2L221.65 250.22ZM190.59 219.5C200.42 219.5 207.83 222.78 212.59 229.26C216.53 234.61 217.58 240.87 217.87 244.12C217.96 245.18 218.47 246.13 219.29 246.81C220.09 247.46 221.09 247.76 222.1 247.64C222.22 247.63 222.34 247.61 222.46 247.59C224.44 247.23 225.8 245.34 225.54 243.29C223.69 228.23 216.42 210.28 192.22 210.28C179.42 210.28 170.04 213.69 164.33 220.4C156.59 229.51 158.22 241.89 158.35 242.76C159 245.3 160.15 246.79 161.78 247.19C162.8 247.44 163.87 247.2 164.72 246.53C165.63 245.81 166.15 244.73 166.14 243.57C166.11 239.36 166.89 231.45 172.44 225.86C176.64 221.63 182.75 219.49 190.61 219.49L190.59 219.5Z" fill="#232323"/>
<path d="M191.82 264.73C179.91 264.73 169.28 256.74 165.98 245.31L168.44 244.6C171.42 254.94 181.04 262.17 191.82 262.17C202.6 262.17 212.62 254.67 215.38 243.92L217.86 244.56C214.81 256.44 204.1 264.73 191.82 264.73Z" fill="#232323"/>
<path d="M110.65 250.74C91.4398 250.74 75.8698 249.35 75.5898 249.33L75.8198 246.78C76.3198 246.83 126.42 251.28 157.61 244.08L158.19 246.57C144.07 249.83 126.18 250.74 110.65 250.74Z" fill="#232323"/>
<path d="M92.1996 249.49C85.1496 225.82 90.2096 193.95 90.4296 192.6L92.9596 193.01C92.9096 193.33 87.7696 225.65 94.6496 248.75L92.1996 249.48V249.49Z" fill="#232323"/>
<path d="M97.8096 205.82C95.8796 205.82 94.3296 204.28 94.3296 202.38C94.3296 200.48 95.8696 198.94 97.7696 198.94C97.7996 198.94 97.8296 198.94 97.8696 198.94L109.1 200.13C110.44 200.27 111.45 201.39 111.45 202.74C111.45 204.09 110.35 205.3 108.94 205.36L97.8196 205.82H97.8096ZM97.7296 200.77C96.8596 200.79 96.1596 201.51 96.1596 202.38C96.1596 203.25 96.8796 203.99 97.7696 203.99L108.85 203.53C109.28 203.51 109.61 203.16 109.61 202.74C109.61 202.32 109.3 201.99 108.9 201.95L97.7296 200.77Z" fill="#232323"/>
<path d="M147.29 174.57C145.83 164.99 138.97 155.32 138.9 155.23L140.98 153.74C141.28 154.15 148.27 163.99 149.82 174.19L147.29 174.58V174.57Z" fill="#232323"/>
<path d="M148.3 172.42L147.49 169.99C152.12 168.45 156.82 165.6 159.95 163.47L161.39 165.59C156.64 168.81 152.23 171.1 148.3 172.41V172.42Z" fill="#232323"/>
<path d="M166.1 162.17L164.52 160.16C165.28 159.57 165.7 159.21 165.71 159.2C165.9 159.04 166.14 158.93 166.39 158.91C173.28 158.13 177.53 156.34 178.36 153.87C179.15 151.51 176.76 148.57 175.77 147.64C175.39 147.28 175.27 146.73 175.45 146.24C176.69 143.05 176.82 140.77 175.83 139.65C174.51 138.17 171.24 138.62 170.09 138.91C169.72 139.01 169.33 138.93 169.02 138.71C168.71 138.49 168.52 138.14 168.49 137.77C168.3 135.29 167.58 133.69 166.33 133.02C164.05 131.79 160.46 133.72 160.43 133.74L159.19 131.5C159.39 131.39 164.02 128.87 167.55 130.77C169.32 131.72 170.43 133.54 170.88 136.17C172.74 135.92 175.89 135.87 177.74 137.95C179.34 139.75 179.47 142.59 178.13 146.41C179.37 147.79 181.95 151.21 180.8 154.68C179.61 158.26 175.12 160.46 167.07 161.42C166.85 161.6 166.53 161.86 166.11 162.19L166.1 162.17Z" fill="#232323"/>
</g>
<defs>
<clipPath id="clip0_69_400">
<rect width="243.88" height="265.61" fill="white"/>
</clipPath>
</defs>
</svg>
