<svg width="244" height="233" viewBox="0 0 244 233" fill="none" xmlns="http://www.w3.org/2000/svg">
<g clip-path="url(#clip0_69_2142)">
<path d="M158.76 96.77C158.57 96.69 158.35 96.61 158.13 96.53C158.17 96.43 159.88 92.71 159.18 89.48C159.18 89.48 155.78 88.08 154.39 85.91C154.3 85.77 154.21 85.57 154.1 85.3C153.45 83.6 152.48 79.43 150.95 74.92C148.9 68.87 145.85 62.21 141.21 60.09C141.21 60.09 143.03 58.58 142.45 55.16C142.27 54.12 141.88 52.9 141.14 51.5H141.12C142.02 49.82 142.78 47.25 141.81 44.02C141.81 44.02 138.34 45.1 135.91 47.92C138.33 38.7 142.53 32.28 142.66 32.08C142.66 32.08 129.89 33.48 116.34 49.43V49.53C114.42 49.53 112.16 49.63 109.65 49.95C107.96 50.16 106.14 50.48 104.24 50.92C101.33 51.6 98.74 52.45 96.51 53.34C95.13 53.89 93.88 54.46 92.77 55.01L92.73 54.93C73.53 46.61 61.46 50.99 61.46 50.99C61.46 50.99 68.19 54.9 74.53 62.22C71.1 60.76 67.51 61.33 67.51 61.33C68.06 64.65 69.89 66.62 71.43 67.73H71.42C71.4 68.47 71.42 69.13 71.49 69.73C72.03 74.74 75.15 75.49 75.15 75.49C71.92 79.44 72.13 86.76 72.96 93.09C73.53 97.41 74.39 101.27 74.66 103.28C74.73 103.81 74.76 104.22 74.73 104.47C74.44 107.03 72.01 109.79 72.01 109.79C72.83 113.04 76.07 115.65 76.07 115.65C75.19 116.52 74.73 117.34 74.73 117.34C78.2 122.76 83.62 125.92 89.57 127.68C104.23 132 122.14 127.79 122.14 127.79C122.14 127.79 130.85 125.78 139.93 121.06C148.69 116.51 157.81 109.43 159.8 99.18C159.91 98.62 160 98.05 160.06 97.48C160.06 97.48 159.56 97.13 158.74 96.79L158.76 96.77ZM126.54 116.75C126.45 117.02 126.35 117.3 126.25 117.58C125.91 118.49 125.52 119.43 125.06 120.37C123.43 123.68 119.2 124.66 116.29 122.41C115.21 121.58 114.23 120.7 113.36 119.82L113.16 119.62C109.89 116.29 108.11 113.08 108.11 113.08C112.32 113.14 115.08 110.84 116.47 109.27C117.16 108.49 117.42 107.42 117.19 106.4C117.43 107.42 118.13 108.27 119.1 108.66C121.03 109.45 124.53 110.29 128.28 108.38C128.28 108.38 128.1 112.19 126.55 116.75H126.54Z" fill="#2D2D2D"/>
<path d="M158 151.91C158 152.3 157.97 152.7 157.92 153.07C157.54 155.62 155.83 157.53 151.14 156.72L150.66 156.67C150.01 158.3 148.75 159.65 146.5 160.11C145.69 160.27 144.74 160.32 143.65 160.22C143 161.08 141.96 161.74 140.36 162.01C134.97 162.92 132.17 159.84 131.03 158.07C131.03 158.07 128.65 158.26 124.76 158.5C117.22 158.96 104.03 159.62 91.6798 159.43C90.2698 159.41 88.8598 159.38 87.4898 159.33C87.0498 157.02 86.8198 154.58 86.7398 152.13C86.6698 150.1 86.7098 148.05 86.8098 146.06C86.9398 143.64 87.1798 141.28 87.4598 139.12C87.7498 136.9 88.0798 134.87 88.3998 133.16C89.0298 129.8 89.5798 127.67 89.5798 127.67C91.4898 128.23 93.4598 128.65 95.4298 128.95C108.6 130.96 122.15 127.78 122.15 127.78C122.15 127.78 123.87 127.39 126.58 126.53C129.97 125.46 134.9 123.68 139.95 121.05C139.95 121.05 145.62 128.95 147.9 137.78C148.17 138.83 148.4 139.88 148.56 140.94C155.61 142.59 156.2 144.26 156.2 144.26C156.2 144.26 156.56 145.06 156.95 146.26C157.45 147.78 158.02 149.94 158 151.91Z" fill="#2D2D2D"/>
<path d="M166.54 126.73C166.54 126.73 166.1 127.11 165.31 127.72V127.75C163.13 127 160.65 128.58 160.65 131.09V131.12C157.15 133.49 152.5 136.24 147.9 137.77C147.01 134.32 145.6 131.03 144.22 128.28C142.05 123.98 139.94 121.04 139.94 121.04C145.29 118.26 150.78 114.53 154.69 109.72C157.18 106.66 159.03 103.15 159.81 99.17C159.81 99.17 169 94.06 169.77 104.23C169.77 104.23 181.35 101.19 176.65 113.26C176.65 113.26 188.4 124.27 166.54 126.74V126.73Z" fill="#2D2D2D"/>
<path d="M72.97 93.07C72.97 93.07 58.86 78.38 61.47 50.97C61.47 50.97 68.2 54.88 74.54 62.2C71.11 60.74 67.52 61.31 67.52 61.31C68.07 64.63 69.9 66.6 71.44 67.71H71.43C71.24 74.53 75.16 75.47 75.16 75.47C71.93 79.42 72.14 86.74 72.97 93.07Z" fill="white"/>
<path d="M150.95 74.92C148.9 68.87 145.85 62.21 141.21 60.09C141.21 60.09 144.31 57.52 141.14 51.5H141.12C142.02 49.82 142.78 47.25 141.81 44.02C141.81 44.02 138.34 45.1 135.91 47.92C138.36 38.55 142.67 32.07 142.67 32.07C157.12 55.5 150.95 74.92 150.95 74.92Z" fill="white"/>
<path d="M160.08 97.46C160.01 98.04 159.93 98.6 159.82 99.16C157.83 109.4 148.72 116.48 139.95 121.04C130.87 125.76 122.16 127.77 122.16 127.77C122.16 127.77 104.25 131.98 89.5898 127.66C83.6398 125.91 78.2198 122.74 74.7498 117.32C74.7498 117.32 75.2098 116.5 76.0898 115.63C76.0898 115.63 72.8498 113.02 72.0298 109.77C72.0298 109.77 74.4698 107.01 74.7498 104.45C74.7798 104.2 74.7498 103.8 74.6798 103.26C76.6498 101.5 79.8898 99.27 83.0398 100.05C88.0398 101.28 108.45 103.18 115.35 101.59C122.25 100.01 138.24 90.99 144.64 85.94C146.9 84.16 150.45 84.33 154.11 85.29C154.21 85.56 154.31 85.77 154.4 85.9C155.79 88.07 159.19 89.47 159.19 89.47C159.88 92.7 158.18 96.43 158.14 96.52C159.32 96.92 160.09 97.45 160.09 97.45L160.08 97.46Z" fill="white"/>
<path d="M128.27 108.38C128.27 108.38 128.09 112.19 126.54 116.75C126.54 116.75 123.55 115.43 119.5 116.37C115.45 117.31 113.35 119.82 113.35 119.82C109.95 116.42 108.1 113.08 108.1 113.08C112.31 113.14 115.07 110.84 116.46 109.27C117.15 108.49 117.41 107.42 117.18 106.4C117.42 107.42 118.12 108.27 119.09 108.66C121.02 109.45 124.52 110.29 128.27 108.38Z" fill="#232323"/>
<path d="M3.98 186.28C3.86 186.16 3.74 186.02 3.62 185.88C2.16 184.16 0.819997 181.2 1.44 176.22C1.73 173.9 2.5 171.66 3.84 169.75C6.14 166.5 8.8 165.73 10.83 165.75C10.83 165.75 12.85 181.46 3.98 186.28Z" fill="#FFD00D"/>
<path d="M6.50998 188.02C6.50998 188.02 5.25998 187.61 3.97998 186.28C12.85 181.46 10.83 165.75 10.83 165.75C12.72 165.77 14.07 166.47 14.07 166.47C14.07 166.47 16.38 183.87 6.50998 188.02Z" fill="#A50862"/>
<path d="M182.47 153.42C176.53 155.18 167.64 155.89 167.64 155.89C167.64 155.89 164.87 153.99 160.65 153.31V131.1C160.65 128.59 163.14 127.01 165.3 127.76C165.65 127.88 165.98 128.06 166.3 128.3C171.45 132.26 178.79 139.98 182.47 153.42Z" fill="#FF97B5"/>
<path d="M241.95 187.95C240.8 191.85 238.43 194.74 236.84 196.33C235.93 197.26 235.27 197.74 235.27 197.74C219.6 185.28 219.32 169.88 219.32 169.88C219.32 169.88 220.86 169.48 223.15 169.21C224.48 169.06 226.06 168.95 227.74 169.01C227.74 169.01 230.75 180.19 241.94 187.95H241.95Z" fill="#A50862"/>
<path d="M241.95 187.95C230.76 180.2 227.75 169.01 227.75 169.01C232.96 169.17 239.09 170.82 241.46 177.21C242.98 181.31 242.83 184.93 241.95 187.95Z" fill="#FFD00D"/>
<path d="M78.8399 158.83C78.8399 158.83 59.5599 165.46 52.9799 151.86C52.9799 151.86 52.6699 136.61 61.3699 133.95C63.6399 133.26 65.9099 134.62 68.0299 137C74.0499 143.77 78.8399 158.83 78.8399 158.83Z" fill="#FF0086"/>
<path d="M93.43 215.69C82.84 215.27 75.71 214.62 75.71 214.62C76.07 214.17 76.35 213.65 76.53 213.09C84.91 186.97 50.82 168.67 27.91 180.89C8.60997 191.19 9.11997 208.82 9.91997 214.8C9.94997 215 9.98997 215.19 10.05 215.37L9.55997 215.49H4.43997C0.449971 203.5 3.62997 185.88 3.62997 185.88C5.01997 187.52 6.51997 188.02 6.51997 188.02C14.42 184.7 14.52 172.89 14.24 168.31C14.17 167.17 14.08 166.47 14.08 166.47C26.19 151.78 52.99 151.86 52.99 151.86C53.75 153.43 54.68 154.72 55.72 155.8C63.76 164.03 78.85 158.84 78.85 158.84C81.31 159.05 83.94 159.2 86.66 159.3C86.94 159.31 87.22 159.32 87.5 159.33C88.88 159.38 90.28 159.41 91.69 159.43C91.48 160.76 86.53 192.54 93.43 215.7V215.69Z" fill="#FF0086"/>
<path d="M236.84 196.33C235.93 197.25 235.27 197.74 235.27 197.74C219.6 185.28 219.32 169.88 219.32 169.88C219.32 169.88 220.86 169.48 223.15 169.21L223.12 168.97C208.78 155.34 182.47 153.42 182.47 153.42C177.6 154.86 170.74 155.6 168.43 155.82C167.93 155.87 167.64 155.89 167.64 155.89C166.39 162.71 160.82 165.68 154.01 165.68C147.2 165.68 146.51 160.1 146.51 160.1C145.7 160.26 144.75 160.31 143.66 160.21C143.01 161.07 141.97 161.73 140.37 162C134.98 162.91 132.18 159.83 131.04 158.06C131.04 158.06 125.12 158.53 116.74 158.92C109.48 159.26 100.38 159.55 91.69 159.41C91.48 160.74 86.53 192.52 93.43 215.68C111 216.39 138.08 216.46 157.9 211.88C157.58 211.23 157.3 210.46 157.07 209.56C157.07 209.56 151.45 175.55 192.2 175.55C211.84 175.55 220.6 187.11 224.43 198.82C225.66 202.55 226.38 206.29 226.79 209.68C226.85 210.16 226.84 210.62 226.78 211.08L227.12 211.13C235.14 208.61 236.63 201.86 236.85 198.41C236.93 197.14 236.85 196.32 236.85 196.32L236.84 196.33ZM108.89 171L97.7699 171.46C96.3699 171.46 95.2399 170.33 95.2399 168.93C95.2399 168.23 95.52 167.6 95.98 167.14C96.44 166.68 97.0699 166.4 97.7699 166.4L109 167.59C109.87 167.68 110.53 168.41 110.53 169.29C110.53 170.17 109.81 170.96 108.9 171H108.89Z" fill="#FF0086"/>
<path d="M76.5301 213.09C76.3501 213.65 76.0701 214.17 75.7101 214.62C74.9901 215.53 73.9601 216.16 72.7901 216.34C72.5701 216.37 72.3501 216.39 72.1301 216.39C70.8301 216.38 69.6401 215.65 69.4301 213.14C69.3901 212.6 69.3201 211.95 69.2101 211.22C68.1901 204.1 63.5001 189.36 40.7501 189.36C20.5901 189.36 16.7301 206.25 16.0001 212.87C15.8201 214.49 15.8301 215.49 15.8301 215.49C15.8301 215.49 15.2901 217.18 13.5201 217.52C13.0601 217.61 12.6001 217.58 12.1701 217.46C11.1801 217.18 10.3601 216.39 10.0301 215.38C9.97012 215.2 9.93012 215.01 9.90012 214.81C9.10012 208.82 8.59012 191.19 27.8901 180.9C50.8101 168.68 84.8901 186.99 76.5101 213.1L76.5301 213.09Z" fill="#A50862"/>
<path d="M226.78 211.09C226.53 212.78 225.46 214.27 223.92 215C223.53 215.18 223.12 215.32 222.67 215.4C222.53 215.43 222.38 215.45 222.23 215.47C219.42 215.8 216.9 213.71 216.59 210.91C216.59 210.91 216.58 210.83 216.58 210.79C216.01 204.16 212.4 187.34 190.58 187.34C168.76 187.34 167.35 202.96 167.4 210.13C167.4 210.61 167.34 211.07 167.21 211.52C166.53 213.96 164.04 215.64 161.45 215C161.42 215 161.38 214.98 161.35 214.97C160.06 214.62 158.81 213.73 157.9 211.89C157.58 211.24 157.3 210.47 157.07 209.57C157.07 209.57 151.45 175.56 192.2 175.56C218.08 175.56 225.07 195.65 226.79 209.69C226.85 210.17 226.84 210.63 226.78 211.09Z" fill="#A50862"/>
<path d="M53.9202 204.87C53.9202 211.27 48.7302 216.47 42.3202 216.47C35.9102 216.47 30.7202 211.28 30.7202 204.87C30.7202 198.46 35.9102 193.27 42.3202 193.27C48.7302 193.27 53.9202 198.46 53.9202 204.87Z" fill="white"/>
<path d="M203.52 204.87C203.52 211.27 198.33 216.47 191.92 216.47C185.51 216.47 180.32 211.28 180.32 204.87C180.32 198.46 185.51 193.27 191.92 193.27C198.33 193.27 203.52 198.46 203.52 204.87Z" fill="white"/>
<path d="M86.6498 159.29C83.9298 159.19 81.3098 159.04 78.8398 158.83C78.8398 158.83 74.0498 143.78 68.0298 137C68.0298 137 68.5798 132.53 71.6298 131.2C74.6798 129.87 81.8198 135.46 86.6498 159.28V159.29Z" fill="#595989"/>
<path d="M40.7598 189.35C20.5998 189.35 16.7398 206.24 16.0098 212.86C20.0998 223.4 30.3398 230.88 42.3198 230.88C54.9298 230.88 65.5998 222.61 69.2198 211.21C68.1998 204.09 63.5098 189.35 40.7598 189.35ZM42.3298 216.46C35.9298 216.46 30.7298 211.27 30.7298 204.86C30.7298 198.45 35.9198 193.26 42.3298 193.26C48.7398 193.26 53.9298 198.45 53.9298 204.86C53.9298 211.27 48.7398 216.46 42.3298 216.46Z" fill="#595989"/>
<path d="M167.63 155.89C166.38 162.71 160.81 165.68 154 165.68C147.19 165.68 146.5 160.1 146.5 160.1C148.75 159.65 150 158.3 150.66 156.66L151.14 156.71C155.82 157.52 157.54 155.61 157.92 153.06C158.88 153.07 159.8 153.16 160.65 153.3C164.87 153.98 167.64 155.88 167.64 155.88L167.63 155.89Z" fill="#595989"/>
<path d="M216.58 210.79C216.01 204.16 212.4 187.34 190.58 187.34C168.76 187.34 167.35 202.96 167.4 210.13C167.4 210.61 167.34 211.07 167.21 211.52C170.29 222.2 180.14 230.01 191.82 230.01C203.5 230.01 213.71 221.9 216.59 210.91C216.59 210.91 216.58 210.83 216.58 210.79ZM191.92 216.47C185.52 216.47 180.32 211.28 180.32 204.87C180.32 198.46 185.51 193.27 191.92 193.27C198.33 193.27 203.52 198.46 203.52 204.87C203.52 211.28 198.33 216.47 191.92 216.47Z" fill="#595989"/>
<path d="M110.52 169.3C110.52 170.21 109.8 170.97 108.89 171.01L97.7697 171.47C96.3697 171.47 95.2397 170.34 95.2397 168.94C95.2397 168.24 95.5198 167.61 95.9798 167.15C96.4398 166.69 97.0697 166.41 97.7697 166.41L109 167.6C109.87 167.69 110.53 168.42 110.53 169.3H110.52Z" fill="#595989"/>
<path d="M158.12 96.54C158.16 96.44 159.87 92.72 159.17 89.49C159.17 89.49 155.77 88.09 154.38 85.92C154.29 85.78 154.2 85.58 154.09 85.31C150.43 84.35 146.88 84.18 144.62 85.96C142.69 87.48 139.89 89.37 136.72 91.3C132.23 94.04 126.49 93.57 122.47 90.19C119.01 87.29 115.89 84.09 113.74 81.73C112.39 80.26 109.96 80.75 109.29 82.62C108.09 85.98 106.18 90.74 103.71 95.13C101.31 99.4 96.5898 101.82 91.7198 101.32C87.8598 100.92 84.6398 100.46 83.0198 100.06C79.8698 99.28 76.6298 101.52 74.6598 103.27C74.7298 103.8 74.7598 104.21 74.7298 104.46C74.4398 107.02 72.0098 109.78 72.0098 109.78C72.8298 113.03 76.0698 115.64 76.0698 115.64C75.1898 116.51 74.7298 117.33 74.7298 117.33C78.1998 122.75 83.6198 125.91 89.5698 127.67C104.23 131.99 122.14 127.78 122.14 127.78C122.14 127.78 130.85 125.77 139.93 121.05C148.69 116.5 157.81 109.42 159.8 99.17C159.91 98.61 160 98.04 160.06 97.47C160.06 97.47 159.28 96.94 158.11 96.54H158.12ZM115.27 101.61L115.33 101.59L114.39 96.78L115.34 101.59C115.34 101.59 115.33 101.59 115.32 101.59C115.3 101.59 115.28 101.59 115.26 101.6L115.27 101.61Z" fill="white"/>
<path d="M148.56 140.94C140.56 139.78 128.9 135.52 126.78 132.85C125.39 131.09 126 128.26 126.58 126.52C129.97 125.45 134.9 123.67 139.95 121.04C139.95 121.04 145.62 128.94 147.9 137.77C148.17 138.82 148.4 139.87 148.56 140.93V140.94Z" fill="white"/>
<path d="M166.54 126.73C166.54 126.73 157.32 122.64 154.7 109.71C157.19 106.65 159.04 103.14 159.82 99.16C159.82 99.16 169.01 94.05 169.78 104.22C169.78 104.22 181.36 101.18 176.66 113.25C176.66 113.25 188.41 124.26 166.55 126.73H166.54Z" fill="white"/>
<path d="M163.46 118.19C166.011 118.19 168.08 116.122 168.08 113.57C168.08 111.018 166.011 108.95 163.46 108.95C160.908 108.95 158.84 111.018 158.84 113.57C158.84 116.122 160.908 118.19 163.46 118.19Z" fill="#FF4D96"/>
<path d="M163.73 106.34C164.94 106.34 165.92 105.36 165.92 104.15C165.92 102.94 164.94 101.96 163.73 101.96C162.521 101.96 161.54 102.94 161.54 104.15C161.54 105.36 162.521 106.34 163.73 106.34Z" fill="#FF4D96"/>
<path d="M172 111.48C173.21 111.48 174.19 110.5 174.19 109.29C174.19 108.08 173.21 107.1 172 107.1C170.791 107.1 169.81 108.08 169.81 109.29C169.81 110.5 170.791 111.48 172 111.48Z" fill="#FF4D96"/>
<path d="M172 121.04C173.21 121.04 174.19 120.06 174.19 118.85C174.19 117.64 173.21 116.66 172 116.66C170.791 116.66 169.81 117.64 169.81 118.85C169.81 120.06 170.791 121.04 172 121.04Z" fill="#FF4D96"/>
<path d="M88.4 133.15C88.09 134.86 87.75 136.88 87.46 139.11C90.57 138.83 93.19 138 94.73 137.41C95.35 137.17 95.39 136.32 94.81 136.01C92.52 134.78 90.17 133.81 88.4 133.15Z" fill="white"/>
<path d="M86.7498 152.12C89.7398 151.68 92.2298 150.76 93.6998 150.13C94.2998 149.87 94.3198 149.02 93.7298 148.73C91.2198 147.53 88.6598 146.63 86.8298 146.05C86.7198 148.04 86.6898 150.09 86.7598 152.12H86.7498Z" fill="white"/>
<g opacity="0.3">
<path d="M120.16 118.87C122.51 118.32 124.49 118.54 125.75 118.81C126.04 118.11 126.3 117.42 126.53 116.75C126.53 116.75 123.54 115.43 119.49 116.37C115.44 117.31 113.34 119.82 113.34 119.82C113.86 120.34 114.42 120.86 115.01 121.37C116 120.56 117.73 119.43 120.16 118.87Z" fill="#000566"/>
</g>
<g opacity="0.3">
<path d="M9.95001 205.52L9.55001 205.62C6.36001 205.62 3.64001 203.3 3.12001 200.15C2.86001 198.56 2.69001 196.95 2.58001 195.33C2.22001 201.36 2.34001 209.2 4.44001 215.49H9.56001L10.05 215.37C9.99001 215.19 9.95001 215 9.92001 214.8C9.65001 212.78 9.42001 209.45 9.96001 205.52H9.95001Z" fill="#000566"/>
</g>
<g opacity="0.3">
<path d="M156.96 202.22C137.23 206.59 110.72 206.51 93.43 205.82C86.26 205.53 80.68 205.14 77.82 204.92C77.84 207.53 77.43 210.27 76.53 213.09C76.35 213.65 76.07 214.17 75.71 214.62C75.71 214.62 82.84 215.27 93.43 215.7C111 216.4 138.08 216.48 157.9 211.9C157.58 211.25 157.3 210.48 157.07 209.58C157.07 209.58 156.57 206.52 156.96 202.23V202.22Z" fill="#000566"/>
</g>
<g opacity="0.3">
<path d="M72.13 216.39C70.83 216.38 69.64 215.65 69.43 213.14C69.39 212.6 69.32 211.95 69.21 211.22C68.19 204.1 63.5 189.36 40.75 189.36C20.59 189.36 16.73 206.25 16 212.87C15.82 214.49 15.83 215.49 15.83 215.49C15.83 215.49 15.29 217.18 13.52 217.52C13.06 217.61 12.6 217.58 12.17 217.46C12.16 211.42 13.63 184.74 40.53 184.74C65.09 184.74 73.23 198.04 72.13 216.4V216.39Z" fill="#000566"/>
</g>
<g opacity="0.3">
<path d="M223.91 215C223.52 215.18 223.11 215.32 222.66 215.4C222.52 215.43 222.37 215.45 222.22 215.47C219.41 215.8 216.89 213.71 216.58 210.91C216.58 210.91 216.57 210.83 216.57 210.79C216 204.16 212.39 187.34 190.57 187.34C168.75 187.34 167.34 202.96 167.39 210.13C167.39 210.61 167.33 211.07 167.2 211.52C166.52 213.96 164.03 215.64 161.44 215C161.41 215 161.37 214.98 161.34 214.97C160.81 205 162.6 181.84 190.64 181.84C215.49 181.84 222.15 202.45 223.9 215.01L223.91 215Z" fill="#000566"/>
</g>
<g opacity="0.3">
<path d="M16.4103 213.84C17.8603 206.2 22.9403 193.01 40.7603 193.01C61.2003 193.01 67.0602 204.91 68.7803 212.49C68.9403 212.07 69.0903 211.65 69.2203 211.22C68.2003 204.1 63.5103 189.36 40.7603 189.36C20.6003 189.36 16.7403 206.25 16.0103 212.87C16.1403 213.2 16.2703 213.52 16.4103 213.85V213.84Z" fill="#000566"/>
</g>
<g opacity="0.3">
<path d="M216.58 210.79C216.01 204.16 212.4 187.34 190.58 187.34C168.76 187.34 167.35 202.96 167.4 210.13C167.4 210.61 167.34 211.07 167.21 211.52C167.29 211.79 167.37 212.05 167.46 212.31C167.94 204.57 171.59 191.73 190.58 191.73C209.57 191.73 214.82 204.6 216.19 212.27C216.33 211.82 216.47 211.37 216.59 210.92C216.59 210.92 216.58 210.84 216.58 210.8V210.79Z" fill="#000566"/>
</g>
<g opacity="0.3">
<path d="M42.3202 212.08C36.6702 212.08 31.9602 208.03 30.9302 202.68C30.7902 203.39 30.7202 204.12 30.7202 204.87C30.7202 211.27 35.9102 216.47 42.3202 216.47C48.7302 216.47 53.9202 211.28 53.9202 204.87C53.9202 204.12 53.8502 203.39 53.7102 202.68C52.6802 208.03 47.9802 212.08 42.3202 212.08Z" fill="#000566"/>
</g>
<g opacity="0.3">
<path d="M191.92 212.08C186.27 212.08 181.56 208.03 180.53 202.68C180.39 203.39 180.32 204.12 180.32 204.87C180.32 211.27 185.51 216.47 191.92 216.47C198.33 216.47 203.52 211.28 203.52 204.87C203.52 204.12 203.45 203.39 203.31 202.68C202.28 208.03 197.58 212.08 191.92 212.08Z" fill="#000566"/>
</g>
<g opacity="0.3">
<path d="M42.32 223.58C31.18 223.58 21.55 217.12 16.96 207.74C16.43 209.73 16.15 211.52 16 212.88C20.09 223.42 30.33 230.9 42.31 230.9C54.92 230.9 65.59 222.63 69.21 211.23C69.02 209.92 68.71 208.34 68.18 206.65C63.83 216.62 53.89 223.59 42.31 223.59L42.32 223.58Z" fill="#000566"/>
</g>
<g opacity="0.3">
<path d="M215.75 205.83C212.08 215.48 202.75 222.33 191.81 222.33C180.87 222.33 171.27 215.27 167.71 205.39C167.45 207.16 167.38 208.79 167.39 210.13C167.39 210.61 167.33 211.07 167.2 211.52C170.28 222.2 180.13 230.01 191.81 230.01C203.49 230.01 213.7 221.9 216.58 210.91C216.58 210.91 216.57 210.83 216.57 210.79C216.46 209.47 216.22 207.74 215.75 205.83Z" fill="#000566"/>
</g>
<g opacity="0.3">
<path d="M61.5504 136.47C62.1204 135.51 62.8004 134.64 63.6004 133.9C62.8604 133.72 62.1104 133.72 61.3704 133.95C52.6704 136.61 52.9804 151.86 52.9804 151.86C59.5604 165.46 78.8404 158.83 78.8404 158.83C78.8404 158.83 78.7604 158.59 78.6204 158.17C77.4704 158.33 76.2004 158.45 74.8804 158.49C63.3504 158.8 55.6504 146.39 61.5504 136.47Z" fill="#000566"/>
</g>
<g opacity="0.3">
<path d="M82.8303 158C82.8303 158 78.9103 145.69 73.7103 138.32C72.3003 136.32 72.3003 133.58 73.8803 131.71C73.9603 131.61 74.0503 131.52 74.1303 131.43C73.1503 130.95 72.2903 130.91 71.6303 131.2C68.5803 132.53 68.0303 137 68.0303 137C74.0503 143.77 78.8403 158.83 78.8403 158.83C81.3003 159.04 83.9303 159.19 86.6503 159.29C86.5803 158.94 86.5103 158.6 86.4403 158.27C85.2103 158.2 84.0003 158.11 82.8303 158.01V158Z" fill="#000566"/>
</g>
<g opacity="0.3">
<path d="M148.27 162.89C150.33 162.48 151.55 161.32 152.24 159.87C152.36 159.62 152.63 159.47 152.9 159.5C157.25 160.25 159.04 158.66 159.57 156.39C159.64 156.08 159.92 155.86 160.23 155.87C160.99 155.9 161.71 155.98 162.4 156.1C164.37 156.42 166.01 157 167.22 157.53C167.38 157.01 167.52 156.46 167.63 155.89C167.63 155.89 164.86 153.99 160.64 153.31C159.79 153.17 158.87 153.08 157.91 153.07C157.53 155.62 155.82 157.53 151.13 156.72L150.65 156.67C150 158.3 148.74 159.65 146.49 160.11C146.49 160.11 146.74 162.17 148.47 163.79C148.29 163.26 148.25 162.9 148.25 162.9L148.27 162.89Z" fill="#000566"/>
</g>
<g opacity="0.3">
<path d="M236.85 198.42C236.63 201.87 235.14 208.62 227.12 211.14L226.78 211.09C226.85 210.64 226.85 210.17 226.79 209.69C226.37 206.3 225.65 202.56 224.43 198.83C228.1 199.56 232.59 199.83 236.85 198.42Z" fill="#000566"/>
</g>
<g opacity="0.3">
<path d="M237.17 191.44C237.17 191.44 237.15 191.46 237.14 191.47C236.3 192.32 234.95 192.35 234.04 191.57C224.9 183.68 221.57 174.89 220.35 169.66C219.7 169.79 219.32 169.89 219.32 169.89C219.32 169.89 219.59 185.29 235.27 197.75C235.27 197.75 235.92 197.26 236.84 196.34C238.43 194.75 240.8 191.86 241.95 187.96C241.48 187.64 241.04 187.31 240.6 186.98C239.48 188.94 238.17 190.46 237.17 191.46V191.44Z" fill="#000566"/>
</g>
<g opacity="0.3">
<path d="M10.8302 165.75C10.0502 165.75 9.19016 165.85 8.28016 166.17C8.48016 170.29 8.24016 179.78 2.41016 184.02C2.77016 184.76 3.19016 185.38 3.62016 185.88C3.74016 186.02 3.86016 186.15 3.98016 186.28C12.8502 181.46 10.8302 165.75 10.8302 165.75Z" fill="#000566"/>
</g>
<g opacity="0.3">
<path d="M111.48 171.54C111.48 172.57 110.67 173.42 109.64 173.46L97.13 173.98C95.56 173.98 94.29 172.7 94.29 171.14C94.29 170.35 94.61 169.64 95.12 169.13C95.63 168.62 96.35 168.29 97.13 168.29L109.76 169.63C110.74 169.73 111.48 170.56 111.48 171.54Z" fill="#000566"/>
</g>
<g opacity="0.3">
<path d="M6.50998 188.02C6.50998 188.02 5.25998 187.61 3.97998 186.28C12.85 181.46 10.83 165.75 10.83 165.75C12.72 165.77 14.07 166.47 14.07 166.47C14.07 166.47 16.38 183.87 6.50998 188.02Z" fill="#000566"/>
</g>
<g opacity="0.7">
<path d="M159.34 89.48C159.34 89.48 153.93 91.86 151.32 85.91C148.71 79.95 149.2 72.68 141.2 60.09C145.88 62.21 148.97 68.87 151.03 74.92C152.57 79.43 153.55 83.6 154.2 85.3C154.3 85.57 154.4 85.78 154.49 85.91C155.89 88.08 159.33 89.48 159.33 89.48H159.34Z" fill="white"/>
</g>
<g opacity="0.7">
<path d="M158 151.91C155.76 144.32 148.56 143.56 148.56 143.56C130.29 141.1 125.63 131.7 125.63 131.7C132.94 138.31 148.56 140.93 148.56 140.93C155.61 142.58 156.2 144.25 156.2 144.25C156.2 144.25 156.56 145.05 156.95 146.25C157.45 147.77 158.02 149.93 158 151.9V151.91Z" fill="white"/>
</g>
<g opacity="0.7">
<path d="M144.99 138.64C145.14 139.21 145.27 139.78 145.39 140.36C146.49 140.6 147.55 140.79 148.56 140.94C148.4 139.88 148.18 138.82 147.9 137.78C145.61 128.95 139.95 121.05 139.95 121.05C139.07 121.51 138.2 121.94 137.33 122.34C138.52 124.08 143.02 131.02 144.99 138.65V138.64Z" fill="white"/>
</g>
<g opacity="0.7">
<path d="M27.9002 180.89C26.7702 181.5 25.7002 182.13 24.7002 182.78C24.8002 182.73 24.9002 182.67 25.0002 182.62C47.9202 170.4 82.0002 188.71 73.6202 214.82C73.4402 215.38 73.1702 215.89 72.8102 216.34C73.9702 216.16 74.9902 215.52 75.7102 214.62C76.0702 214.17 76.3502 213.65 76.5302 213.09C84.9102 186.97 50.8202 168.67 27.9102 180.89H27.9002Z" fill="white"/>
</g>
<g opacity="0.7">
<path d="M226.79 209.69C225.07 195.64 218.08 175.56 192.2 175.56C177.37 175.56 168.69 180.06 163.64 185.79C168.9 181.15 177.14 177.75 190.01 177.75C215.89 177.75 222.88 197.84 224.6 211.88C224.66 212.36 224.65 212.82 224.59 213.28C224.5 213.86 224.32 214.42 224.05 214.93C225.52 214.17 226.54 212.73 226.78 211.09C226.85 210.64 226.85 210.17 226.79 209.69Z" fill="white"/>
</g>
<g opacity="0.7">
<path d="M64.5798 137.94C70.4098 144.5 75.0898 158.82 75.3798 159.72C77.4898 159.29 78.8398 158.82 78.8398 158.82C78.8398 158.82 74.0498 143.77 68.0298 136.99C65.9098 134.6 63.6298 133.24 61.3698 133.94C60.7298 134.14 60.1398 134.4 59.5898 134.73C61.2998 134.92 62.9898 136.14 64.5898 137.94H64.5798Z" fill="white"/>
</g>
<g opacity="0.7">
<path d="M166.3 128.3C165.98 128.05 165.65 127.88 165.3 127.76C164.29 127.41 163.21 127.57 162.34 128.1C162.44 128.16 162.54 128.23 162.64 128.31C167.79 132.27 175.13 139.99 178.81 153.43C175.1 154.53 170.25 155.22 167.12 155.58C167.46 155.77 167.64 155.9 167.64 155.9C167.64 155.9 176.54 155.19 182.47 153.43C178.79 139.99 171.45 132.27 166.3 128.31V128.3Z" fill="white"/>
</g>
<g opacity="0.7">
<path d="M223.15 169.21L223.12 168.97C208.78 155.34 182.47 153.42 182.47 153.42C176.53 155.18 167.64 155.89 167.64 155.89C172.37 158.48 182.9 157.3 182.9 157.3C184.47 157.39 186.01 157.54 187.52 157.75C188.35 157.86 189.1 158.29 189.64 158.93C190.96 160.49 194.77 162.42 199.49 163.77C203.64 164.96 207.43 165.39 209.6 165.06C210.27 164.96 210.96 165.08 211.57 165.38C216.45 167.84 219.33 169.89 219.33 169.89C219.33 169.89 220.87 169.49 223.16 169.22L223.15 169.21Z" fill="white"/>
</g>
<g opacity="0.7">
<path d="M241.46 177.21C239.09 170.83 232.96 169.17 227.75 169.01C227.75 169.01 227.92 169.65 228.34 170.73C232.76 171.39 237.23 173.44 239.17 178.67C240.25 181.59 240.49 184.27 240.21 186.66C240.77 187.1 241.34 187.53 241.95 187.94C242.84 184.92 242.98 181.3 241.46 177.2V177.21Z" fill="white"/>
</g>
<g opacity="0.7">
<path d="M55.7098 155.79C33.5398 155.9 19.2798 164.61 14.2298 168.31C14.1598 167.17 14.0698 166.47 14.0698 166.47C26.1798 151.78 52.9798 151.86 52.9798 151.86C53.7398 153.43 54.6698 154.72 55.7098 155.8V155.79Z" fill="white"/>
</g>
<g opacity="0.3">
<path d="M126.03 181.31C126.03 181.31 143.12 184.23 152.05 179.61C160.97 174.98 147.27 197.66 126.58 187.13C109.38 178.38 126.03 181.31 126.03 181.31Z" fill="white"/>
</g>
<g opacity="0.3">
<path d="M108.4 188.4C111.08 187.95 115.57 187.63 120.81 188.99C122.07 189.32 122.13 191.09 120.89 191.48C119.58 191.89 117.69 192.32 114.99 192.69C111.31 193.19 109.06 192.47 107.71 191.54C106.43 190.66 106.87 188.66 108.41 188.4H108.4Z" fill="white"/>
</g>
<path d="M126.54 116.75C126.15 117.92 125.65 119.15 125.06 120.37C123.43 123.68 119.2 124.66 116.29 122.41C115.21 121.58 114.23 120.7 113.36 119.82C113.36 119.82 115.46 117.31 119.51 116.37C123.56 115.43 126.55 116.75 126.55 116.75H126.54Z" fill="#FF4D96"/>
<path d="M3.97953 187.2C3.65953 187.2 3.33953 187.03 3.17953 186.72C2.93953 186.28 3.09953 185.72 3.54953 185.48C11.7695 181.02 9.94953 166.02 9.92953 165.87C9.86953 165.37 10.2195 164.91 10.7195 164.85C11.2195 164.79 11.6795 165.14 11.7395 165.64C11.8295 166.31 13.7295 182.03 4.40953 187.09C4.26953 187.17 4.11953 187.2 3.96953 187.2H3.97953Z" fill="#232323"/>
<path d="M122.44 129.02C120.26 129.5 118.15 129.84 115.99 130.13C113.84 130.41 111.68 130.62 109.51 130.75C107.34 130.88 105.17 130.92 102.99 130.87C100.81 130.81 98.6297 130.65 96.4597 130.38C94.2897 130.12 92.1197 129.67 89.9897 129.1C89.4597 128.94 88.9197 128.82 88.3997 128.63L86.8297 128.1C85.7997 127.69 84.7597 127.29 83.7597 126.78L83.0097 126.41L82.2797 125.99L81.5497 125.57L81.1897 125.36L80.8397 125.12L79.4497 124.17L78.1297 123.11C76.4197 121.63 74.9197 119.91 73.6697 118.02C73.3997 117.61 73.3997 117.1 73.6297 116.7C73.8297 116.37 73.9997 116.16 74.1997 115.92C74.3997 115.69 74.6097 115.47 74.8297 115.26C75.2697 114.84 75.7697 114.48 76.2897 114.17C76.8097 113.85 77.3897 113.62 77.9697 113.47C78.5597 113.31 79.1797 113.29 79.7597 113.35C79.9197 113.37 80.0397 113.51 80.0197 113.67C80.0197 113.77 79.9497 113.85 79.8697 113.89L79.8397 113.91C79.3597 114.18 78.9297 114.43 78.5397 114.74C78.1497 115.04 77.7897 115.36 77.4597 115.72C77.1297 116.07 76.8297 116.45 76.5597 116.83C76.4197 117.03 76.2897 117.22 76.1597 117.42C76.0297 117.6 75.8997 117.84 75.8197 117.98L75.7897 116.66C76.8997 118.34 78.2297 119.87 79.7597 121.19L80.9397 122.14L82.1997 123L82.5097 123.21L82.8397 123.4L83.4997 123.78L84.1597 124.16L84.8497 124.49C85.7597 124.96 86.7197 125.33 87.6697 125.71L89.1397 126.21C89.6297 126.38 90.1297 126.5 90.6297 126.65C92.6297 127.19 94.6697 127.61 96.7497 127.86C98.8197 128.12 100.92 128.27 103.02 128.33C105.12 128.38 107.23 128.33 109.33 128.21C111.43 128.09 113.54 127.89 115.63 127.61C117.71 127.33 119.83 126.99 121.83 126.55H121.86C122.55 126.39 123.23 126.83 123.39 127.52C123.54 128.21 123.11 128.89 122.42 129.05L122.44 129.02Z" fill="#232323"/>
<path d="M75.2798 116.63C75.1298 116.51 71.6898 113.71 70.7798 110.08C70.6798 109.67 70.7798 109.24 71.0598 108.92C71.6598 108.23 73.2698 106.06 73.4698 104.3C73.5198 103.86 73.1698 101.96 72.8598 100.28C71.5998 93.43 69.5398 82.27 73.2798 75.92C71.8598 74.89 70.0098 72.6 70.1398 67.69L72.6998 67.76C72.5498 73.37 75.4198 74.21 75.4498 74.22C75.8798 74.32 76.2198 74.64 76.3698 75.06C76.5098 75.48 76.4298 75.94 76.1498 76.28C71.9798 81.39 74.1898 93.38 75.3798 99.83C75.8698 102.5 76.1098 103.82 76.0198 104.6C75.7698 106.81 74.2398 109.04 73.4498 110.06C74.3698 112.58 76.8698 114.63 76.8898 114.65L75.2798 116.64V116.63Z" fill="#232323"/>
<path d="M72.9698 94.35C72.6298 94.35 72.2998 94.22 72.0498 93.96C71.4598 93.34 57.5598 78.52 60.1998 50.85C60.2498 50.36 60.5698 49.94 61.0398 49.77C61.5498 49.58 73.8198 45.31 93.2598 53.74C93.9098 54.02 94.2098 54.77 93.9298 55.42C93.6498 56.07 92.8898 56.37 92.2498 56.09C76.4098 49.22 65.5598 51.21 62.6798 51.95C60.5298 77.85 73.7698 92.04 73.9098 92.18C74.3998 92.69 74.3798 93.5 73.8698 93.99C73.6198 94.23 73.2998 94.35 72.9798 94.35H72.9698Z" fill="#232323"/>
<path d="M62.1097 49.87C63.9497 50.99 65.5897 52.19 67.2197 53.48C68.8397 54.76 70.3997 56.12 71.8797 57.57C72.6397 58.28 73.3397 59.04 74.0597 59.78C74.7497 60.55 75.4597 61.3 76.1097 62.11C77.4597 63.68 78.6597 65.38 79.8297 67.1H77.6897C77.9197 66.8 78.1697 66.52 78.4297 66.24C78.6897 65.96 78.9597 65.7 79.2397 65.44C79.5297 65.19 79.7997 64.92 80.1097 64.68C80.4097 64.43 80.7197 64.19 81.0497 63.98C81.2097 63.88 81.4197 63.92 81.5197 64.08C81.5797 64.17 81.5897 64.28 81.5597 64.37C81.4397 64.74 81.3097 65.1 81.1797 65.45C81.0497 65.81 80.8997 66.15 80.7697 66.5C80.6297 66.85 80.4797 67.19 80.3197 67.53C80.1597 67.86 79.9997 68.2 79.8197 68.51C79.4797 69.1 78.7297 69.3 78.1397 68.96C77.9797 68.87 77.8497 68.74 77.7497 68.6L77.6797 68.5C76.5697 66.87 75.4297 65.26 74.1397 63.76C73.5197 62.99 72.8397 62.27 72.1797 61.53C71.4897 60.82 70.8197 60.09 70.0897 59.41C68.6697 58.03 67.1797 56.72 65.6197 55.49C64.0797 54.27 62.4297 53.08 60.8097 52.09L60.7697 52.06C60.1697 51.69 59.9797 50.9 60.3397 50.3C60.7097 49.7 61.4997 49.51 62.0997 49.87H62.1097Z" fill="#232323"/>
<path d="M73.7398 69.16C72.7798 69.13 71.8898 68.84 71.0498 68.4C70.2198 67.96 69.4598 67.36 68.7998 66.66C68.1398 65.96 67.5498 65.16 67.1398 64.28C66.6898 63.41 66.4398 62.46 66.2598 61.52C66.1198 60.85 66.5498 60.2 67.2198 60.06H67.2898L67.3198 60.04C67.7098 59.99 67.9998 59.96 68.3398 59.94C68.6598 59.92 68.9898 59.91 69.3098 59.91C69.9598 59.91 70.5998 59.95 71.2398 60.03C71.8798 60.1 72.5298 60.22 73.1598 60.39C73.7998 60.54 74.4198 60.77 75.0398 61.02C75.6998 61.28 76.0098 62.03 75.7498 62.68C75.4898 63.33 74.7498 63.65 74.0898 63.39L74.0298 63.37C73.5398 63.18 73.0398 62.99 72.5198 62.87C71.9998 62.74 71.4698 62.64 70.9298 62.57C70.3898 62.5 69.8398 62.47 69.2998 62.47C69.0298 62.47 68.7498 62.47 68.4798 62.49C68.2198 62.5 67.9198 62.53 67.7198 62.56L68.7798 61.09C68.8798 61.46 68.9198 61.84 69.0298 62.21C69.1498 62.57 69.2198 62.95 69.3798 63.29C69.6298 64.01 69.9898 64.68 70.4198 65.32C70.8398 65.97 71.3698 66.55 71.9598 67.1C72.5398 67.66 73.1798 68.19 73.8598 68.72L73.8798 68.74C73.9798 68.82 73.9998 68.97 73.9198 69.07C73.8698 69.13 73.7998 69.16 73.7298 69.16H73.7398Z" fill="#232323"/>
<path d="M86.4998 58.45C87.5398 57.08 88.8398 56.04 90.2198 55.12C90.5598 54.89 90.9198 54.67 91.2798 54.47C91.6398 54.26 91.9898 54.05 92.3598 53.86C93.0798 53.46 93.8198 53.09 94.5698 52.74C96.0698 52.05 97.5998 51.41 99.1698 50.91C100.74 50.38 102.34 49.98 103.96 49.66C104.65 49.53 105.33 49.98 105.46 50.67C105.59 51.32 105.2 51.94 104.59 52.14L104.54 52.16C103.79 52.4 103.03 52.6 102.28 52.83C101.53 53.07 100.77 53.28 100.03 53.54C98.5298 54.01 97.0698 54.57 95.5998 55.14C94.1398 55.72 92.6998 56.36 91.2898 57.04C89.8598 57.7 88.4098 58.36 86.8998 58.95H86.8798C86.7098 59.02 86.5198 58.95 86.4598 58.77C86.4198 58.66 86.4398 58.54 86.4998 58.45Z" fill="#232323"/>
<path d="M121.86 126.52C123.85 126.03 125.9 125.41 127.89 124.74C129.89 124.06 131.86 123.32 133.8 122.5C135.74 121.68 137.65 120.79 139.51 119.82C141.37 118.84 143.18 117.78 144.92 116.63C146.67 115.49 148.32 114.21 149.87 112.84C150.25 112.49 150.65 112.16 151.01 111.79L152.11 110.7C152.8 109.93 153.5 109.18 154.1 108.36L154.57 107.76L155 107.13L155.43 106.5L155.64 106.18L155.83 105.85L156.58 104.53L157.22 103.15C158.01 101.29 158.53 99.33 158.78 97.33L159.33 98.53C159.2 98.44 158.98 98.29 158.78 98.18C158.58 98.06 158.37 97.94 158.16 97.83C157.74 97.6 157.31 97.4 156.86 97.23C156.41 97.06 155.95 96.93 155.46 96.83C154.97 96.72 154.47 96.69 153.93 96.66H153.9C153.74 96.65 153.62 96.51 153.63 96.35C153.63 96.25 153.69 96.17 153.77 96.12C154.27 95.81 154.83 95.55 155.43 95.44C156.02 95.32 156.65 95.27 157.25 95.33C157.86 95.37 158.46 95.49 159.04 95.66C159.33 95.75 159.62 95.85 159.9 95.97C160.19 96.1 160.44 96.21 160.76 96.42C161.17 96.69 161.36 97.16 161.31 97.62C161.03 99.87 160.44 102.08 159.56 104.16L158.85 105.7L158.02 107.17L157.81 107.54L157.58 107.89L157.11 108.59L156.64 109.29L156.13 109.95C155.46 110.85 154.71 111.67 153.96 112.49L152.78 113.66C152.39 114.06 151.96 114.41 151.56 114.78C149.9 116.24 148.16 117.59 146.32 118.78C144.49 119.99 142.61 121.09 140.68 122.11C138.75 123.12 136.77 124.04 134.77 124.88C132.77 125.72 130.74 126.49 128.68 127.19C126.61 127.89 124.57 128.52 122.4 129.04C121.71 129.21 121.02 128.79 120.85 128.1C120.68 127.41 121.1 126.72 121.79 126.55H121.82L121.86 126.52Z" fill="#232323"/>
<path d="M159.28 97.07L156.96 95.99C156.96 95.99 158.31 93.02 158.02 90.35C156.86 89.78 154.5 88.46 153.3 86.59C152.88 85.93 152.5 84.64 151.77 82.03C149.99 75.72 146.68 63.98 140.68 61.25C140.28 61.07 140 60.69 139.94 60.25C139.88 59.81 140.05 59.38 140.39 59.1C140.46 59.03 142.6 57.02 140.01 52.09L142.27 50.9C144.56 55.25 143.91 58.12 143.09 59.67C149.26 63.71 152.34 74.64 154.23 81.34C154.69 82.98 155.22 84.84 155.46 85.22C156.42 86.72 158.82 87.95 159.66 88.3C160.05 88.46 160.34 88.8 160.42 89.22C161.2 92.87 159.35 96.91 159.27 97.08L159.28 97.07Z" fill="#232323"/>
<path d="M150.95 76.19C150.82 76.19 150.69 76.17 150.56 76.13C149.89 75.92 149.51 75.2 149.73 74.52C149.81 74.26 155.37 55.71 142.03 33.47C139.12 34.09 128.46 37.13 117.33 50.24C116.87 50.78 116.06 50.84 115.53 50.39C114.99 49.93 114.93 49.12 115.38 48.59C129.1 32.44 141.99 30.85 142.53 30.79C143.01 30.74 143.5 30.97 143.76 31.39C158.35 55.05 152.43 74.48 152.17 75.3C152 75.85 151.49 76.19 150.95 76.19Z" fill="#232323"/>
<path d="M143.74 32.78C142.72 34.38 141.77 36.17 140.93 37.95C140.08 39.74 139.31 41.57 138.65 43.44C138.3 44.37 138.02 45.32 137.71 46.26C137.45 47.21 137.15 48.16 136.94 49.13C136.45 51.05 136.13 53 135.86 54.95L135.84 55.06C135.74 55.73 135.12 56.19 134.45 56.1C134.27 56.07 134.09 56 133.95 55.9C133.65 55.7 133.36 55.47 133.07 55.24C132.78 55.01 132.5 54.77 132.22 54.52C131.94 54.26 131.66 54.02 131.38 53.76C131.1 53.5 130.83 53.24 130.56 52.96C130.43 52.82 130.43 52.6 130.56 52.47C130.64 52.39 130.74 52.36 130.84 52.38C131.24 52.43 131.62 52.51 132 52.6C132.38 52.68 132.74 52.8 133.12 52.9C133.49 53.01 133.85 53.13 134.2 53.26C134.55 53.39 134.9 53.53 135.24 53.7L133.32 54.65C133.61 52.59 133.94 50.54 134.46 48.53C134.68 47.52 134.99 46.53 135.27 45.53C135.59 44.55 135.88 43.55 136.25 42.59C136.94 40.64 137.74 38.73 138.62 36.86C139.51 34.98 140.46 33.19 141.61 31.37C141.99 30.77 142.78 30.6 143.38 30.98C143.98 31.36 144.15 32.15 143.77 32.75L143.74 32.79V32.78Z" fill="#232323"/>
<path d="M139.39 53.47C139.77 52.7 140.11 51.93 140.38 51.18C140.66 50.43 140.88 49.67 140.97 48.9C141.07 48.14 141.1 47.37 141.01 46.62C141 46.24 140.9 45.87 140.85 45.5C140.78 45.13 140.65 44.76 140.58 44.39L142.19 45.24C141.99 45.3 141.71 45.41 141.47 45.51C141.22 45.62 140.97 45.73 140.73 45.85C140.24 46.09 139.76 46.37 139.31 46.66C138.85 46.95 138.42 47.28 138.01 47.63C137.59 47.97 137.23 48.36 136.88 48.75L136.84 48.8C136.36 49.32 135.56 49.36 135.03 48.89C134.51 48.42 134.47 47.61 134.94 47.09C135.38 46.6 135.84 46.11 136.35 45.7C136.85 45.27 137.37 44.88 137.92 44.53C138.46 44.18 139.02 43.85 139.6 43.57C139.89 43.43 140.18 43.29 140.48 43.16C140.79 43.03 141.06 42.92 141.43 42.8H141.45C142.1 42.58 142.8 42.93 143.01 43.58C143.01 43.6 143.03 43.63 143.03 43.65C143.28 44.58 143.47 45.54 143.46 46.52C143.48 47.49 143.31 48.47 143.02 49.39C142.73 50.31 142.32 51.18 141.77 51.94C141.22 52.7 140.54 53.36 139.7 53.81C139.59 53.87 139.44 53.83 139.38 53.71C139.34 53.64 139.34 53.56 139.38 53.5V53.47H139.39Z" fill="#232323"/>
<path d="M123.37 50.45C121.75 50.59 120.16 50.64 118.59 50.68C117.02 50.69 115.45 50.76 113.88 50.88C112.32 51.02 110.75 51.17 109.2 51.4C108.42 51.49 107.65 51.65 106.87 51.76C106.1 51.89 105.32 52.04 104.54 52.16H104.49C103.79 52.27 103.14 51.79 103.03 51.09C102.93 50.44 103.34 49.83 103.96 49.66C105.55 49.23 107.17 48.88 108.81 48.66C110.44 48.41 112.1 48.31 113.75 48.27C114.58 48.26 115.4 48.27 116.23 48.3C116.64 48.31 117.06 48.34 117.47 48.37C117.88 48.39 118.29 48.43 118.7 48.48C120.34 48.69 121.97 49.05 123.51 49.83C123.67 49.91 123.74 50.11 123.65 50.27C123.6 50.37 123.5 50.44 123.39 50.45H123.37Z" fill="#232323"/>
<path d="M115.42 98.84C115.42 98.84 112.5 99.52 110.65 100.7C109.96 101.14 109.74 102.06 110.19 102.75C111.15 104.23 113.28 106.54 117.02 105.67C120.75 104.8 121.65 101.79 121.85 100.03C121.94 99.21 121.34 98.49 120.53 98.4C118.34 98.16 115.43 98.84 115.43 98.84H115.42Z" fill="#232323"/>
<path d="M107.43 113.3L116.05 110.82L117.68 107.76L124.7 109.47L128.19 109.29L127.45 112.67L126.23 115.96L123.51 116.08L117.81 116.39L114.57 118.7L113.35 118.85L110.77 116.03L107.43 113.3Z" fill="#232323"/>
<path d="M117.989 104.26L118.329 105.7L118.409 106.06C118.439 106.17 118.449 106.22 118.469 106.3C118.519 106.44 118.579 106.58 118.659 106.71C118.819 106.97 119.029 107.18 119.279 107.34C119.339 107.38 119.409 107.41 119.469 107.45L119.579 107.5L119.729 107.56C119.939 107.64 120.149 107.71 120.359 107.78C122.049 108.34 123.849 108.42 125.529 108.03C126.369 107.83 127.199 107.54 127.969 107.12L128.549 106.82L129.069 106.46C129.259 106.35 129.399 106.21 129.549 106.07L129.789 105.87C129.869 105.8 129.919 105.72 129.989 105.65C130.539 105.06 130.889 104.37 131.149 103.58C131.409 102.79 131.499 101.87 131.499 100.85V100.83C131.499 100.75 131.569 100.69 131.639 100.69C131.679 100.69 131.709 100.71 131.739 100.73C132.139 101.12 132.419 101.6 132.609 102.12C132.719 102.38 132.779 102.65 132.849 102.93C132.879 103.21 132.939 103.5 132.919 103.79C132.939 104.96 132.459 106.15 131.749 107.08C131.659 107.2 131.579 107.32 131.479 107.43L131.179 107.74C130.979 107.95 130.779 108.17 130.549 108.33L129.879 108.85L129.169 109.29C128.219 109.85 127.189 110.27 126.099 110.52C123.929 111.04 121.639 110.85 119.569 110.19C119.309 110.11 119.049 110.02 118.799 109.92L118.609 109.85L118.379 109.75C118.219 109.68 118.069 109.59 117.919 109.5C117.329 109.14 116.829 108.63 116.469 108.05C116.289 107.76 116.139 107.44 116.029 107.12C115.969 106.97 115.929 106.77 115.889 106.64L115.799 106.28L115.469 104.83C115.309 104.14 115.739 103.45 116.429 103.3C117.119 103.14 117.799 103.57 117.959 104.25L117.989 104.26Z" fill="#232323"/>
<path d="M119.83 124.91C118.28 124.91 116.76 124.4 115.5 123.43C110.09 119.26 107.1 113.93 106.98 113.7C106.64 113.08 106.86 112.3 107.48 111.96C108.1 111.62 108.88 111.84 109.22 112.46C109.25 112.51 112.09 117.57 117.06 121.4C118.15 122.24 119.53 122.54 120.86 122.23C122.19 121.92 123.3 121.04 123.9 119.81C126.67 114.17 126.99 108.38 126.99 108.32C127.03 107.61 127.63 107.06 128.33 107.1C129.04 107.13 129.58 107.73 129.55 108.44C129.54 108.7 129.21 114.8 126.2 120.93C125.25 122.85 123.52 124.23 121.44 124.72C120.9 124.84 120.36 124.91 119.83 124.91Z" fill="#232323"/>
<path d="M113.35 120.74C113.14 120.74 112.94 120.67 112.76 120.53C112.37 120.21 112.32 119.63 112.65 119.24C112.74 119.13 114.99 116.49 119.29 115.48C119.78 115.37 120.27 115.67 120.39 116.16C120.5 116.65 120.2 117.14 119.71 117.26C116 118.12 114.07 120.38 114.05 120.41C113.87 120.63 113.61 120.74 113.35 120.74Z" fill="#232323"/>
<path d="M126.54 117.67C126.42 117.67 126.29 117.65 126.17 117.59C126.13 117.57 123.37 116.41 119.7 117.26C119.21 117.38 118.72 117.07 118.6 116.58C118.49 116.09 118.79 115.6 119.28 115.48C123.58 114.48 126.77 115.86 126.9 115.91C127.36 116.11 127.57 116.65 127.37 117.12C127.22 117.46 126.88 117.66 126.53 117.66L126.54 117.67Z" fill="#232323"/>
<path d="M117.99 104.26L118.33 105.7L118.41 106.06C118.44 106.19 118.48 106.39 118.5 106.55C118.54 106.89 118.55 107.24 118.52 107.58C118.45 108.27 118.23 108.94 117.86 109.53C117.77 109.68 117.67 109.82 117.56 109.95L117.4 110.14L117.26 110.29C117.08 110.49 116.88 110.68 116.69 110.87C115.12 112.37 113.16 113.55 110.98 114.05C109.9 114.3 108.78 114.38 107.68 114.3L106.85 114.22L106.02 114.05C105.74 114 105.47 113.9 105.2 113.8L104.79 113.65C104.66 113.6 104.53 113.52 104.39 113.45C103.34 112.94 102.38 112.08 101.88 111.02C101.73 110.77 101.66 110.48 101.57 110.21C101.51 109.93 101.44 109.66 101.42 109.38C101.37 108.82 101.4 108.27 101.59 107.74C101.62 107.66 101.7 107.62 101.77 107.65C101.81 107.66 101.84 107.69 101.85 107.72V107.74C102.31 108.65 102.8 109.44 103.38 110.04C103.96 110.63 104.58 111.09 105.33 111.38C105.42 111.41 105.51 111.46 105.61 111.49L105.91 111.56C106.11 111.61 106.3 111.67 106.51 111.69L107.14 111.78L107.79 111.8C108.66 111.84 109.54 111.73 110.38 111.54C112.06 111.15 113.64 110.28 114.91 109.03C115.07 108.88 115.23 108.72 115.37 108.55L115.48 108.43L115.56 108.34C115.61 108.28 115.65 108.22 115.69 108.16C115.84 107.91 115.94 107.62 115.97 107.32C115.98 107.17 115.98 107.02 115.96 106.87C115.95 106.79 115.94 106.74 115.91 106.63L115.82 106.27L115.49 104.82C115.33 104.13 115.76 103.44 116.45 103.29C117.14 103.13 117.82 103.56 117.98 104.24L117.99 104.26Z" fill="#232323"/>
<mask id="mask0_69_2142" style="mask-type:luminance" maskUnits="userSpaceOnUse" x="70" y="15" width="69" height="60">
<path d="M78.5396 31.82C77.1496 37.73 74.5696 39.41 70.3196 36.76C70.2096 46.65 72.0596 56.46 75.7596 65.63C78.5096 70.04 84.5496 74.52 94.2496 74.59C124.68 74.79 139.4 65.13 138.23 50.12C137.68 43.04 136.47 35.48 134.86 27.42C133.87 25.96 132.81 25.6 131.67 26.35C129.52 30.44 126.57 28.43 121.75 20.99C115.57 11.44 110.01 13.5 106.12 26.47C103.6 31.91 100.39 32.8 97.0196 28.67C87.8596 17.46 81.7196 18.32 78.5296 31.82" fill="white"/>
</mask>
<g mask="url(#mask0_69_2142)">
<path d="M122.567 -0.0168213L59.0962 28.4683L87.3848 91.5015L150.856 63.0164L122.567 -0.0168213Z" fill="url(#paint0_linear_69_2142)"/>
</g>
<path d="M125.359 70.38C117.779 73.78 107.249 75.51 94.2395 75.42C85.8295 75.37 78.6595 71.87 75.0395 66.07C75.0095 66.03 74.9895 65.98 74.9695 65.94C71.2095 56.62 69.3595 46.8 69.4695 36.75C69.4695 36.44 69.6395 36.17 69.9095 36.02C70.1795 35.87 70.4995 35.88 70.7595 36.04C72.3795 37.06 73.7095 37.36 74.7095 36.95C75.9995 36.42 77.0095 34.63 77.7195 31.62C79.3495 24.71 81.7495 20.98 85.0595 20.21C88.5395 19.41 92.6695 22 97.6795 28.13C99.0195 29.77 100.279 30.53 101.419 30.38C102.769 30.21 104.119 28.75 105.329 26.16C107.569 18.73 110.399 14.72 113.749 14.24C116.569 13.84 119.499 15.95 122.449 20.52C125.519 25.26 127.779 27.64 129.179 27.57C129.769 27.54 130.359 26.99 130.909 25.94C130.979 25.81 131.069 25.71 131.189 25.63C131.909 25.16 133.789 24.33 135.549 26.94C135.609 27.03 135.659 27.14 135.679 27.25C137.479 36.3 138.549 43.54 139.059 50.05C139.489 55.59 137.859 60.39 134.199 64.32C131.959 66.72 128.989 68.75 125.339 70.39L125.359 70.38ZM76.5095 65.24C77.8095 67.3 82.7695 73.66 94.2495 73.74C113.029 73.86 126.419 70.2 132.979 63.17C136.299 59.61 137.779 55.24 137.389 50.19C136.889 43.8 135.839 36.66 134.069 27.76C133.249 26.61 132.679 26.74 132.299 26.95C131.459 28.46 130.459 29.22 129.259 29.28C127.079 29.38 124.689 27.11 121.039 21.46C118.509 17.55 116.069 15.64 113.989 15.94C111.379 16.31 108.929 20.04 106.929 26.73C106.919 26.77 106.899 26.81 106.889 26.84C105.399 30.07 103.629 31.83 101.639 32.08C99.8795 32.3 98.1095 31.34 96.3795 29.22C91.8795 23.71 88.1995 21.24 85.4395 21.88C82.8595 22.48 80.8095 25.89 79.3595 32.03C78.5095 35.65 77.1995 37.78 75.3495 38.54C74.1195 39.04 72.7395 38.93 71.1595 38.2C71.2295 47.51 73.0295 56.6 76.5095 65.26V65.24Z" fill="#3B1942"/>
<g opacity="0.6">
<path fill-rule="evenodd" clip-rule="evenodd" d="M106.83 51.27L103.46 41.44L98.1799 52.16L105.87 60.61L106.83 51.27ZM86.9799 73.59C89.1199 74.2 91.5499 74.56 94.2499 74.58C96.6799 74.6 99.0099 74.55 101.24 74.44C101.35 74.13 101.45 73.81 101.55 73.49C91.7299 74.32 87.0699 67.04 87.5799 51.65C90.6599 49.04 92.2399 46.26 93.4199 43.74C99.1299 31.61 106.18 31.31 114.39 41.64C117.94 46.1 122.03 47 125.81 45.08C120.49 44.62 115.33 41.17 110.34 34.73C104.4 31.14 99.3299 31.75 95.1399 36.58C90.0999 47.06 85.8499 51.47 82.3799 49.81L71.8799 38.72C73.0599 46.97 73.8799 54.68 75.6799 60.48C77.9699 67.23 82.8599 71.12 88.2699 72.79C87.8299 73.07 87.3999 73.34 86.9799 73.59Z" fill="white"/>
</g>
<path d="M125.359 70.38C117.779 73.78 107.249 75.51 94.2395 75.42C85.8295 75.37 78.6595 71.87 75.0395 66.07C75.0095 66.03 74.9895 65.98 74.9695 65.94C71.2095 56.62 69.3595 46.8 69.4695 36.75C69.4695 36.44 69.6395 36.17 69.9095 36.02C70.1795 35.87 70.4995 35.88 70.7595 36.04C72.3795 37.06 73.7095 37.36 74.7095 36.95C75.9995 36.42 77.0095 34.63 77.7195 31.62C79.3495 24.71 81.7495 20.98 85.0595 20.21C88.5395 19.41 92.6695 22 97.6795 28.13C99.0195 29.77 100.279 30.53 101.419 30.38C102.769 30.21 104.119 28.75 105.329 26.16C107.569 18.73 110.399 14.72 113.749 14.24C116.569 13.84 119.499 15.95 122.449 20.52C125.519 25.26 127.779 27.64 129.179 27.57C129.769 27.54 130.359 26.99 130.909 25.94C130.979 25.81 131.069 25.71 131.189 25.63C131.909 25.16 133.789 24.33 135.549 26.94C135.609 27.03 135.659 27.14 135.679 27.25C137.479 36.3 138.549 43.54 139.059 50.05C139.489 55.59 137.859 60.39 134.199 64.32C131.959 66.72 128.989 68.75 125.339 70.39L125.359 70.38ZM76.5095 65.24C77.8095 67.3 82.7695 73.66 94.2495 73.74C113.029 73.86 126.419 70.2 132.979 63.17C136.299 59.61 137.779 55.24 137.389 50.19C136.889 43.8 135.839 36.66 134.069 27.76C133.249 26.61 132.679 26.74 132.299 26.95C131.459 28.46 130.459 29.22 129.259 29.28C127.079 29.38 124.689 27.11 121.039 21.46C118.509 17.55 116.069 15.64 113.989 15.94C111.379 16.31 108.929 20.04 106.929 26.73C106.919 26.77 106.899 26.81 106.889 26.84C105.399 30.07 103.629 31.83 101.639 32.08C99.8795 32.3 98.1095 31.34 96.3795 29.22C91.8795 23.71 88.1995 21.24 85.4395 21.88C82.8595 22.48 80.8095 25.89 79.3595 32.03C78.5095 35.65 77.1995 37.78 75.3495 38.54C74.1195 39.04 72.7395 38.93 71.1595 38.2C71.2295 47.51 73.0295 56.6 76.5095 65.26V65.24Z" fill="#232323"/>
<g opacity="0.2">
<path fill-rule="evenodd" clip-rule="evenodd" d="M111.64 50.99L104.5 41.12L103 51.88L106.95 60.68L111.65 50.99H111.64ZM75.0296 38.73L74.7896 37.83H74.7696C74.6796 37.86 74.5896 37.88 74.4996 37.9C71.6196 38.74 72.4396 41 76.9696 44.69C80.7496 50.83 84.7896 51.67 89.0796 47.19C91.1296 45.02 93.3296 41.04 95.6896 35.25C98.0396 32.69 101.23 31.58 105.26 31.93C107.12 32.09 112.07 35.7 120.1 42.78C120.18 43.08 120.27 43.38 120.34 43.68V43.64C123.07 44.45 125.38 44.21 127.25 42.91C129.26 41.15 130.77 37.58 131.79 32.2C132.13 31.61 132.41 31.09 132.63 30.63C131.42 36.67 129.74 40.68 127.59 42.66C130.25 40.59 131.99 36.28 132.8 29.73C134.05 41.6 128.36 49.4 121.1 46.95V46.92C124.46 64.16 115.82 72.86 95.1796 73.03C95.5396 73.03 95.8996 73.03 96.2496 73.01C97.8096 73.5 99.5796 73.66 101.55 73.5L101.28 74.33C104.7 74.31 108.12 73.99 111.55 73.38C111.36 73.15 111.18 72.92 110.99 72.68C129.61 68.88 137.41 60.01 135.64 45.9C134.15 33.98 134.02 27.95 134.02 27.94C133.42 27.59 133.03 27.69 132.87 28.25C132.54 28.06 131.94 28.15 131.06 28.5C128.46 30.83 125.75 29.96 122.93 25.89C116.45 14.96 111.17 14.99 107.1 25.97C106.22 27.6 105.27 28.8 104.23 29.58C102.29 31.83 100.08 31.87 97.7796 29.54C96.7096 28.91 97.4296 30.02 96.2396 28.83C86.6596 19.52 82.3096 23.81 79.6296 34.68C79.3196 36.02 76.3396 38.33 75.0196 38.75L75.0296 38.73Z" fill="#000072"/>
</g>
<path fill-rule="evenodd" clip-rule="evenodd" d="M70.5499 43.46C69.0099 47.56 68.0198 50.37 67.5898 51.9C69.7098 55.81 71.8098 58.66 73.8898 60.46C72.1198 54.94 70.9998 49.23 70.5398 43.46H70.5499Z" fill="#FF0086"/>
<path d="M74.1499 61.04C73.9299 61.14 73.6699 61.1 73.4799 60.94C71.3399 59.1 69.1799 56.16 67.0299 52.2C66.9499 52.06 66.9299 51.89 66.9799 51.73C67.4099 50.19 68.4099 47.33 69.9499 43.23C70.0499 42.95 70.3399 42.78 70.6299 42.83C70.9199 42.87 71.1499 43.11 71.1699 43.41C71.6199 49.13 72.7399 54.8 74.4899 60.27C74.5799 60.54 74.4699 60.83 74.2399 60.99C74.2099 61.01 74.1799 61.03 74.1499 61.04ZM68.2699 51.83C69.6999 54.45 71.1399 56.58 72.5499 58.22C71.4399 54.31 70.6499 50.3 70.1799 46.26C69.2599 48.78 68.6099 50.65 68.2699 51.83Z" fill="#232323"/>
<path fill-rule="evenodd" clip-rule="evenodd" d="M140.78 39.65L135.88 32.74C136.8 37.82 137.53 42.69 137.99 47.36L140.78 39.66V39.65Z" fill="#FF0086"/>
<path d="M138.25 47.94C138.15 47.99 138.03 48.01 137.91 47.99C137.62 47.95 137.39 47.72 137.36 47.42C136.92 43.03 136.24 38.27 135.26 32.85C135.21 32.56 135.36 32.28 135.62 32.16C135.62 32.16 135.62 32.16 135.63 32.16C135.9 32.05 136.22 32.14 136.39 32.38L141.29 39.29C141.41 39.46 141.44 39.68 141.37 39.87L138.58 47.57C138.52 47.74 138.4 47.86 138.24 47.93L138.25 47.94ZM136.99 35.4C137.54 38.67 137.99 41.71 138.32 44.58L140.07 39.75L136.99 35.4Z" fill="#232323"/>
<path d="M132.979 30.11C133.619 30.11 131.479 43.08 125.989 45.46C122.669 46.73 118.859 44.55 114.239 39.64C109.359 34.46 105.489 32.16 102.069 32.91C98.5895 33.67 95.3395 37.55 91.7595 44.72C88.3395 51.54 84.9595 52.48 81.7595 50.87C79.6795 49.83 72.2195 40.67 72.4195 39.31C72.8795 39.05 80.3495 47.99 82.6395 49.13C84.8395 50.23 87.2795 49.33 90.0295 43.84C93.8995 36.12 97.5395 31.91 101.659 31.01C105.839 30.1 110.279 32.6 115.659 38.31C119.699 42.6 122.849 44.58 125.299 43.64C130.689 41.58 132.199 29.79 132.989 30.11H132.979Z" fill="#232323"/>
<path fill-rule="evenodd" clip-rule="evenodd" d="M109.46 50.93L104.2 42.01L100.81 51.82L106.3 59.72L109.46 50.93Z" fill="#FF0086"/>
<g opacity="0.3">
<path fill-rule="evenodd" clip-rule="evenodd" d="M105.94 55.9C104.31 54.31 102.67 52.73 101.04 51.14L100.81 51.81L106.3 59.71L109.45 50.92L109.11 50.34C108.05 52.19 107 54.05 105.94 55.9Z" fill="#000072"/>
</g>
<g opacity="0.45">
<path fill-rule="evenodd" clip-rule="evenodd" d="M103.35 51.31L105.57 51.08L104.47 43.22L104.34 42.24L104.24 42.53L101.12 51.54L103.35 51.31Z" fill="white"/>
</g>
<g opacity="0.3">
<path fill-rule="evenodd" clip-rule="evenodd" d="M105.57 51.08L106.47 57.49L106.71 59.18L109.77 50.65L107.11 50.92L105.57 51.08Z" fill="white"/>
</g>
<path d="M106.56 60.29C106.5 60.31 106.45 60.33 106.38 60.34C106.15 60.37 105.91 60.27 105.78 60.07L100.29 52.17C100.17 52 100.15 51.79 100.21 51.6L103.6 41.8C103.68 41.57 103.89 41.4 104.14 41.38C104.39 41.36 104.62 41.48 104.75 41.69L110 50.6C110.1 50.76 110.11 50.96 110.05 51.14L106.9 59.93C106.84 60.09 106.72 60.22 106.56 60.29ZM101.51 51.71L106.12 58.34L108.76 50.99L104.35 43.51L101.51 51.71Z" fill="#232323"/>
<path d="M114.3 39.71C113.9 39.36 113.85 38.74 114.21 38.34C114.56 37.93 115.18 37.89 115.58 38.25C116.07 38.68 116.55 39.04 117.01 39.34L117.06 39.38C118.34 40.2 119.52 40.54 120.59 40.41C121.66 40.27 122.69 39.64 123.66 38.52C123.99 38.14 124.3 37.72 124.61 37.25C126.9 33.7 124.46 46.43 116.01 41.02L115.96 40.99C115.41 40.64 114.86 40.22 114.31 39.74L114.3 39.71Z" fill="#232323"/>
<path d="M91.6794 40.71C91.9294 40.24 92.5194 40.06 92.9994 40.31C93.4694 40.56 93.6494 41.15 93.3994 41.62C92.8994 42.56 92.3794 43.35 91.8394 44C90.7994 45.27 89.6594 46.05 88.4294 46.36C84.3994 46.87 81.4094 40.9 84.1294 43.13C84.5794 43.5 85.0194 43.8 85.4294 44.02C86.3394 44.51 87.1794 44.66 87.9594 44.47C88.7694 44.27 89.5494 43.7 90.3194 42.77C90.7794 42.2 91.2394 41.51 91.6694 40.7L91.6794 40.71Z" fill="#232323"/>
<path fill-rule="evenodd" clip-rule="evenodd" d="M99.5399 23.58C101.91 22.52 104.69 23.58 105.75 25.94C106.81 28.31 105.75 31.09 103.39 32.15C101.03 33.21 98.2399 32.15 97.1799 29.79C96.1199 27.42 97.1799 24.64 99.5399 23.58Z" fill="url(#paint1_linear_69_2142)"/>
<path d="M103.74 32.92C100.95 34.17 97.6695 32.92 96.4195 30.13C95.1695 27.34 96.4195 24.06 99.2095 22.81C102 21.56 105.28 22.81 106.53 25.6C107.78 28.39 106.53 31.67 103.74 32.92ZM99.8895 24.35C97.9495 25.22 97.0795 27.5 97.9495 29.44C98.8195 31.38 101.1 32.25 103.04 31.38C104.98 30.51 105.85 28.23 104.98 26.29C104.11 24.35 101.83 23.48 99.8895 24.35Z" fill="#232323"/>
<g opacity="0.3">
<path fill-rule="evenodd" clip-rule="evenodd" d="M98.2998 29.99C98.9298 31.48 100.4 32.44 102.01 32.41C103.62 32.38 105.06 31.38 105.64 29.87C106.22 28.36 105.82 26.65 104.64 25.56C105.11 27.24 104.47 29.03 103.04 30.02C101.61 31.02 99.7098 31.01 98.2998 29.99Z" fill="#000072"/>
</g>
<g opacity="0.65">
<path fill-rule="evenodd" clip-rule="evenodd" d="M99.4996 24.93C100.6 24.16 101.88 24.09 102.35 24.77C102.83 25.45 102.32 26.63 101.23 27.4C100.13 28.17 98.8496 28.24 98.3796 27.56C97.8996 26.88 98.3996 25.7 99.4996 24.93Z" fill="white"/>
</g>
<path fill-rule="evenodd" clip-rule="evenodd" d="M67.4098 30.49C69.3498 29.62 71.6198 30.49 72.4898 32.42C73.3598 34.36 72.4898 36.63 70.5598 37.5C68.6198 38.37 66.3498 37.5 65.4798 35.57C64.6098 33.64 65.4798 31.36 67.4098 30.49Z" fill="url(#paint2_linear_69_2142)"/>
<path d="M70.8997 38.26C68.5397 39.32 65.7697 38.26 64.7097 35.9C63.6497 33.54 64.7097 30.77 67.0697 29.71C69.4297 28.65 72.1997 29.71 73.2597 32.07C74.3197 34.43 73.2597 37.2 70.8997 38.26ZM67.7597 31.25C66.2497 31.93 65.5797 33.7 66.2497 35.21C66.9197 36.72 68.6997 37.39 70.2097 36.72C71.7197 36.05 72.3897 34.27 71.7197 32.76C71.0497 31.25 69.2697 30.58 67.7597 31.25Z" fill="#232323"/>
<g opacity="0.3">
<path fill-rule="evenodd" clip-rule="evenodd" d="M66.4199 35.44C66.8899 36.55 67.9899 37.27 69.1999 37.25C70.4099 37.23 71.4799 36.48 71.9199 35.35C72.3499 34.22 72.0599 32.94 71.1699 32.12C71.5199 33.38 71.0399 34.71 69.9799 35.46C68.9099 36.21 67.4899 36.2 66.4299 35.44" fill="#000072"/>
</g>
<g opacity="0.65">
<path fill-rule="evenodd" clip-rule="evenodd" d="M67.3198 31.65C68.1398 31.07 69.0998 31.02 69.4598 31.53C69.8198 32.04 69.4398 32.92 68.6198 33.5C67.7998 34.08 66.8398 34.13 66.4798 33.62C66.1198 33.11 66.4998 32.23 67.3198 31.65Z" fill="white"/>
</g>
<path fill-rule="evenodd" clip-rule="evenodd" d="M112.28 8.09001C110.34 8.96001 109.48 11.23 110.35 13.17C111.22 15.1 113.49 15.97 115.43 15.1C117.37 14.23 118.23 11.96 117.36 10.02C116.49 8.08001 114.22 7.22001 112.28 8.09001Z" fill="url(#paint3_linear_69_2142)"/>
<path d="M115.77 15.87C113.41 16.93 110.64 15.87 109.58 13.51C108.52 11.15 109.58 8.38 111.94 7.32C114.3 6.26 117.07 7.32 118.13 9.68C119.19 12.04 118.13 14.81 115.77 15.87ZM112.63 8.86C111.12 9.54 110.45 11.31 111.12 12.82C111.79 14.33 113.57 15 115.08 14.33C116.59 13.66 117.26 11.88 116.59 10.37C115.92 8.86 114.14 8.19 112.63 8.86Z" fill="#232323"/>
<g opacity="0.3">
<path fill-rule="evenodd" clip-rule="evenodd" d="M116.64 10.65C117.16 11.74 116.96 13.04 116.15 13.93C115.33 14.82 114.05 15.12 112.92 14.69C111.79 14.26 111.03 13.19 111.01 11.98C111.71 13.08 113.03 13.61 114.3 13.31C115.57 13.01 116.51 11.94 116.64 10.65Z" fill="#000072"/>
</g>
<g opacity="0.65">
<path fill-rule="evenodd" clip-rule="evenodd" d="M113.21 8.80001C112.23 9.03001 111.56 9.71001 111.7 10.32C111.84 10.93 112.75 11.23 113.73 11C114.71 10.77 115.38 10.09 115.24 9.48001C115.1 8.87001 114.19 8.57001 113.21 8.80001Z" fill="white"/>
</g>
<path fill-rule="evenodd" clip-rule="evenodd" d="M131.45 20.99C133.39 20.12 135.66 20.99 136.53 22.92C137.4 24.85 136.53 27.13 134.6 28C132.67 28.87 130.39 28 129.52 26.07C128.65 24.13 129.52 21.86 131.45 20.99Z" fill="url(#paint4_linear_69_2142)"/>
<path d="M134.94 28.77C132.58 29.83 129.81 28.77 128.75 26.41C127.69 24.05 128.75 21.28 131.11 20.22C133.47 19.16 136.24 20.22 137.3 22.58C138.36 24.94 137.3 27.71 134.94 28.77ZM131.8 21.76C130.29 22.44 129.62 24.21 130.29 25.72C130.96 27.23 132.74 27.9 134.25 27.23C135.76 26.56 136.43 24.78 135.76 23.27C135.09 21.76 133.31 21.09 131.8 21.76Z" fill="#232323"/>
<g opacity="0.3">
<path fill-rule="evenodd" clip-rule="evenodd" d="M130.459 25.94C130.929 27.05 132.029 27.77 133.239 27.75C134.449 27.73 135.519 26.98 135.959 25.85C136.389 24.72 136.099 23.44 135.209 22.62C135.559 23.87 135.079 25.21 134.019 25.96C132.949 26.71 131.529 26.7 130.469 25.94" fill="#000072"/>
</g>
<g opacity="0.65">
<path fill-rule="evenodd" clip-rule="evenodd" d="M131.36 22.16C132.18 21.58 133.14 21.53 133.5 22.04C133.86 22.55 133.48 23.43 132.66 24.01C131.84 24.59 130.88 24.64 130.52 24.13C130.16 23.62 130.54 22.74 131.36 22.16Z" fill="white"/>
</g>
<path fill-rule="evenodd" clip-rule="evenodd" d="M83.3595 14.38C85.2995 13.51 87.5695 14.38 88.4395 16.31C89.3095 18.24 88.4395 20.52 86.5095 21.39C84.5795 22.26 82.2995 21.39 81.4295 19.46C80.5595 17.53 81.4295 15.25 83.3595 14.38Z" fill="url(#paint5_linear_69_2142)"/>
<path d="M86.8499 22.16C84.4899 23.22 81.7199 22.16 80.6599 19.8C79.5999 17.44 80.6599 14.67 83.0199 13.61C85.3799 12.55 88.1499 13.61 89.2099 15.97C90.2699 18.33 89.2099 21.1 86.8499 22.16ZM83.7099 15.15C82.1999 15.83 81.5299 17.6 82.1999 19.11C82.8699 20.62 84.6499 21.29 86.1599 20.62C87.6699 19.95 88.3399 18.17 87.6699 16.66C86.9899 15.15 85.2199 14.48 83.7099 15.15Z" fill="#232323"/>
<g opacity="0.3">
<path fill-rule="evenodd" clip-rule="evenodd" d="M82.3696 19.34C82.8396 20.45 83.9396 21.17 85.1496 21.15C86.3596 21.13 87.4296 20.38 87.8696 19.25C88.2996 18.12 88.0096 16.84 87.1196 16.02C87.4696 17.27 86.9896 18.61 85.9296 19.36C84.8596 20.11 83.4396 20.1 82.3796 19.34" fill="#000072"/>
</g>
<g opacity="0.65">
<path fill-rule="evenodd" clip-rule="evenodd" d="M83.2697 15.55C84.0897 14.97 85.0497 14.92 85.4097 15.43C85.7697 15.94 85.3897 16.82 84.5697 17.4C83.7497 17.98 82.7897 18.03 82.4397 17.52C82.0797 17.01 82.4597 16.13 83.2797 15.55" fill="white"/>
</g>
<path d="M95.5396 96.99C88.0396 98.24 82.2096 92.77 81.4296 88.55C80.2496 82.14 87.0996 78.88 91.1096 83.32C91.7496 77.37 99.2096 76 102.02 81.88C103.87 85.76 102.35 93.6 95.5396 96.99Z" fill="#FF0086"/>
<g opacity="0.3">
<path d="M95.5399 96.99C90.3199 97.86 85.8999 95.47 83.4399 92.52C85.8399 94.36 89.2499 95.55 93.1599 94.87C99.6599 91.68 101.19 84.47 99.4799 80.94C98.8299 79.58 97.8799 78.66 96.8299 78.11C98.8199 78.2 100.84 79.39 102.02 81.89C103.87 85.77 102.35 93.61 95.5399 97V96.99Z" fill="#262F6A"/>
</g>
<g opacity="0.6">
<path d="M90.9495 83.14C86.9595 80.07 81.5295 83.15 82.6195 89.08C83.0895 91.61 85.3695 94.59 88.7395 96.3C84.7295 94.74 81.9595 91.37 81.4395 88.55C80.2795 82.23 86.9295 78.97 90.9495 83.14Z" fill="white"/>
</g>
<g opacity="0.6">
<path d="M99.6296 79.03C96.3196 77.86 92.3496 79.87 91.8996 84.03C91.6496 83.75 91.3896 83.5 91.1196 83.28C91.6396 78.66 96.2896 76.82 99.6296 79.03Z" fill="white"/>
</g>
<path d="M84.1897 94.26C82.3297 92.57 81.0997 90.52 80.7597 88.68C80.1597 85.44 81.4797 82.51 84.1097 81.21C86.2697 80.14 88.7397 80.46 90.6797 81.98C91.3597 79.61 93.1697 77.91 95.5497 77.5C98.4397 77.01 101.22 78.61 102.64 81.59C104.62 85.76 102.97 94.07 95.8497 97.61C95.7897 97.64 95.7197 97.66 95.6597 97.67C90.9997 98.44 86.9197 96.73 84.1997 94.26H84.1897ZM90.1697 83.35C88.5997 81.92 86.5097 81.56 84.7097 82.45C83.0697 83.26 81.5197 85.26 82.1097 88.44C82.8397 92.42 88.3497 97.45 95.3297 96.34C101.63 93.14 103.14 85.84 101.4 82.19C100.01 79.27 97.5897 78.56 95.7797 78.87C93.6197 79.24 92.0497 81.02 91.7897 83.41C91.7597 83.68 91.5797 83.91 91.3197 83.99C91.0597 84.07 90.7797 83.99 90.5997 83.8C90.4597 83.64 90.3097 83.5 90.1597 83.36L90.1697 83.35Z" fill="#232323"/>
<g opacity="0.25">
<path d="M86.568 91.4004C87.4979 91.0992 87.8806 89.7092 87.4228 88.2959C86.9649 86.8825 85.8399 85.981 84.9099 86.2823C83.98 86.5836 83.5972 87.9735 84.0551 89.3868C84.513 90.8002 85.638 91.7017 86.568 91.4004Z" fill="white"/>
</g>
<g opacity="0.25">
<path d="M90.0372 92.9415C90.2149 92.4011 89.8017 91.7798 89.1144 91.5539C88.4271 91.3279 87.7259 91.5828 87.5483 92.1232C87.3706 92.6636 87.7837 93.2848 88.471 93.5108C89.1583 93.7368 89.8595 93.4819 90.0372 92.9415Z" fill="white"/>
</g>
<path d="M133.54 88.14C126.04 89.39 120.21 83.92 119.43 79.7C118.25 73.29 125.1 70.03 129.11 74.47C129.75 68.52 137.21 67.15 140.02 73.03C141.87 76.91 140.35 84.75 133.54 88.14Z" fill="#FF0086"/>
<g opacity="0.3">
<path d="M133.54 88.14C128.32 89.01 123.9 86.62 121.44 83.67C123.84 85.51 127.25 86.7 131.16 86.02C137.66 82.83 139.19 75.62 137.48 72.09C136.83 70.73 135.88 69.81 134.83 69.26C136.82 69.35 138.84 70.54 140.02 73.04C141.87 76.92 140.35 84.76 133.54 88.15V88.14Z" fill="#262F6A"/>
</g>
<g opacity="0.6">
<path d="M128.95 74.3C124.96 71.23 119.53 74.31 120.62 80.24C121.09 82.77 123.37 85.75 126.74 87.46C122.73 85.9 119.96 82.53 119.44 79.71C118.28 73.39 124.93 70.13 128.95 74.3Z" fill="white"/>
</g>
<g opacity="0.6">
<path d="M137.63 70.19C134.32 69.02 130.35 71.03 129.9 75.19C129.65 74.91 129.39 74.66 129.12 74.44C129.64 69.82 134.29 67.98 137.63 70.19Z" fill="white"/>
</g>
<path d="M122.19 85.41C120.33 83.72 119.1 81.67 118.76 79.83C118.16 76.59 119.48 73.66 122.11 72.36C124.27 71.29 126.74 71.61 128.68 73.13C129.36 70.76 131.17 69.06 133.55 68.65C136.44 68.16 139.22 69.76 140.64 72.74C142.62 76.91 140.97 85.22 133.85 88.76C133.79 88.79 133.72 88.81 133.66 88.82C129 89.59 124.92 87.88 122.2 85.41H122.19ZM128.17 74.5C126.6 73.07 124.51 72.71 122.71 73.6C121.07 74.41 119.52 76.41 120.11 79.59C120.84 83.57 126.35 88.6 133.33 87.49C139.63 84.29 141.14 76.99 139.4 73.34C138.01 70.42 135.59 69.71 133.78 70.02C131.62 70.39 130.05 72.17 129.79 74.56C129.76 74.83 129.58 75.06 129.32 75.14C129.06 75.22 128.78 75.14 128.6 74.95C128.46 74.79 128.31 74.65 128.16 74.51L128.17 74.5Z" fill="#232323"/>
<g opacity="0.25">
<path d="M124.574 82.5596C125.504 82.2583 125.887 80.8684 125.429 79.455C124.971 78.0417 123.846 77.1402 122.916 77.4415C121.986 77.7427 121.603 79.1327 122.061 80.546C122.519 81.9594 123.644 82.8609 124.574 82.5596Z" fill="white"/>
</g>
<g opacity="0.25">
<path d="M128.039 84.0884C128.216 83.548 127.803 82.9267 127.116 82.7008C126.429 82.4748 125.727 82.7297 125.55 83.2701C125.372 83.8105 125.785 84.4317 126.472 84.6577C127.16 84.8837 127.861 84.6288 128.039 84.0884Z" fill="white"/>
</g>
<path d="M86.2898 159.82C83.5598 145.98 88.1498 128.09 88.3498 127.34L90.8298 127.99C90.7798 128.17 86.1898 146.07 88.7998 159.33L86.2898 159.83V159.82Z" fill="#232323"/>
<path d="M125.76 131.57C128.23 132.92 130.61 134.22 133.06 135.42C135.5 136.62 138.09 137.51 140.72 138.14C141.38 138.29 142.04 138.46 142.71 138.56C143.38 138.68 144.03 138.8 144.74 138.91C145.44 139.03 146.14 139.13 146.84 139.27C147.54 139.4 148.24 139.54 148.94 139.7C150.34 140.01 151.73 140.38 153.13 140.88C153.48 141 153.83 141.15 154.18 141.28C154.53 141.44 154.88 141.58 155.23 141.78C155.58 141.96 155.93 142.16 156.29 142.42C156.47 142.54 156.65 142.7 156.84 142.86C156.94 142.95 157.03 143.05 157.13 143.17L157.29 143.38C157.29 143.38 157.35 143.48 157.38 143.53L157.43 143.61C157.43 143.61 157.49 143.74 157.51 143.8L157.47 143.69C157.81 144.45 158.06 145.16 158.31 145.91C158.55 146.65 158.77 147.41 158.95 148.18C159.29 149.73 159.54 151.34 159.31 153.1C159.19 153.97 158.93 154.89 158.39 155.74C157.86 156.59 157.01 157.29 156.11 157.66C156 157.71 155.89 157.76 155.77 157.8L155.43 157.9C155.2 157.96 154.97 158.04 154.75 158.06L154.08 158.16L153.43 158.18C153.21 158.19 153 158.18 152.79 158.17L152.16 158.13C151.75 158.08 151.35 158.01 150.95 157.95C150.25 157.85 149.77 157.2 149.87 156.5C149.97 155.82 150.59 155.34 151.27 155.41H151.39C151.73 155.46 152.06 155.51 152.39 155.54C152.71 155.54 153.05 155.59 153.36 155.55C154 155.55 154.57 155.41 155.04 155.21C155.51 155 155.86 154.71 156.11 154.29C156.37 153.88 156.53 153.33 156.61 152.73C156.76 151.52 156.57 150.13 156.27 148.78C155.97 147.43 155.5 146.03 154.98 144.78L154.94 144.67C154.94 144.67 154.98 144.78 155 144.8V144.82L155.04 144.86L154.97 144.78C154.89 144.71 154.82 144.64 154.7 144.56C154.49 144.41 154.24 144.25 153.97 144.11C153.71 143.96 153.41 143.84 153.13 143.7C152.83 143.58 152.54 143.45 152.23 143.34C151 142.87 149.69 142.51 148.37 142.18C147.71 142.01 147.04 141.86 146.37 141.72C145.7 141.57 145.02 141.45 144.35 141.32C143.69 141.2 142.96 141.05 142.26 140.9C141.55 140.77 140.86 140.57 140.16 140.39C137.39 139.62 134.69 138.57 132.16 137.21C130.88 136.56 129.67 135.77 128.54 134.88C127.97 134.44 127.44 133.95 126.93 133.45C126.42 132.94 125.94 132.4 125.53 131.79C125.47 131.7 125.5 131.59 125.58 131.53C125.64 131.49 125.71 131.49 125.77 131.53L125.76 131.57Z" fill="#232323"/>
<path d="M150.93 148.15C151.71 149.47 152.15 150.92 152.37 152.45C152.58 153.98 152.51 155.6 151.92 157.23C151.64 158.04 151.16 158.83 150.55 159.52C149.94 160.21 149.14 160.75 148.31 161.09C146.63 161.76 144.9 161.77 143.37 161.49C142.67 161.36 142.21 160.69 142.34 160C142.45 159.38 142.99 158.95 143.59 158.95H143.63C144.94 158.94 146.18 158.82 147.17 158.39C148.16 157.98 148.86 157.25 149.36 156.2C149.86 155.16 150.08 153.86 150.23 152.52C150.39 151.17 150.42 149.76 150.49 148.3C150.49 148.15 150.61 148.05 150.74 148.05C150.82 148.05 150.9 148.1 150.94 148.17L150.93 148.15Z" fill="#232323"/>
<path d="M143.35 151.07C144.05 151.94 144.6 152.91 145.03 153.95C145.46 154.99 145.76 156.12 145.81 157.35C145.83 157.96 145.79 158.61 145.62 159.26C145.45 159.91 145.16 160.57 144.74 161.15C143.88 162.34 142.54 163.04 141.32 163.37C140.69 163.54 140.1 163.6 139.51 163.67C139.36 163.69 139.21 163.71 139.06 163.72H138.6H137.68C136.45 163.61 135.21 163.32 134.07 162.78C132.94 162.21 131.93 161.45 131.12 160.53C130.91 160.31 130.73 160.06 130.54 159.82C130.36 159.58 130.2 159.32 130.03 159.06C129.88 158.8 129.72 158.54 129.59 158.26C129.45 157.98 129.34 157.73 129.21 157.36L130.57 158.16C129.05 158.4 127.64 158.47 126.17 158.47C124.71 158.47 123.25 158.36 121.8 158.16C120.35 157.96 118.9 157.66 117.49 157.23C116.07 156.81 114.69 156.26 113.36 155.57C112.03 154.89 110.76 154.08 109.61 153.1C108.46 152.14 107.39 151.05 106.51 149.84C106.4 149.69 106.28 149.54 106.17 149.39L105.87 148.92C105.67 148.6 105.47 148.29 105.29 147.96C104.96 147.29 104.62 146.63 104.4 145.92C103.88 144.54 103.63 143.07 103.58 141.62C103.58 141.45 103.71 141.31 103.88 141.3C104 141.3 104.11 141.36 104.16 141.46C105.52 143.97 106.79 146.29 108.48 148.29C109.3 149.31 110.26 150.19 111.29 150.98C112.33 151.76 113.44 152.46 114.62 153.01C115.8 153.57 117.04 154.04 118.31 154.42C119.58 154.8 120.89 155.06 122.21 155.27C123.53 155.47 124.87 155.6 126.22 155.66C126.89 155.68 127.57 155.71 128.24 155.7C128.9 155.7 129.61 155.68 130.21 155.63H130.33C130.89 155.57 131.4 155.92 131.58 156.43C131.66 156.55 131.79 156.77 131.91 156.95C132.04 157.14 132.17 157.32 132.31 157.5C132.6 157.85 132.9 158.19 133.22 158.49C133.87 159.09 134.59 159.6 135.37 159.95C136.15 160.3 137 160.48 137.87 160.57H138.54L138.88 160.59C138.99 160.59 139.11 160.57 139.22 160.56C139.68 160.52 140.15 160.49 140.54 160.4C140.94 160.31 141.32 160.19 141.63 160.02C141.95 159.86 142.22 159.66 142.44 159.4C142.88 158.9 143.17 158.16 143.29 157.27C143.53 155.48 143.21 153.39 142.84 151.32V151.3C142.81 151.15 142.91 151 143.06 150.98C143.16 150.96 143.26 151 143.33 151.08L143.35 151.07Z" fill="#232323"/>
<path d="M78.8396 160.11C78.2996 160.11 77.7896 159.76 77.6196 159.22C74.3696 149.04 67.1896 133.51 61.7396 135.17C54.0696 137.52 54.2596 151.69 54.2596 151.83C54.2696 152.54 53.7096 153.12 53.0096 153.14H52.9796C52.2896 153.14 51.7096 152.58 51.6996 151.89C51.6896 151.23 51.4796 135.64 60.9896 132.73C70.6196 129.78 79.1196 155.5 80.0596 158.45C80.2696 159.12 79.8996 159.84 79.2296 160.06C79.0996 160.1 78.9696 160.12 78.8396 160.12V160.11Z" fill="#232323"/>
<path d="M85.4498 159.83C81.9698 142.5 77.0798 134.42 73.6598 132.64C73.0398 132.32 72.4998 132.23 72.1398 132.38C69.7998 133.4 69.2998 137.13 69.2998 137.16L66.7598 136.85C66.7898 136.64 67.4398 131.64 71.1198 130.03C71.8898 129.7 73.1598 129.48 74.8498 130.36C77.2998 131.64 83.4898 137.02 87.9698 159.32L85.4598 159.82L85.4498 159.83Z" fill="#232323"/>
<path d="M6.50977 189.3C6.36977 189.3 6.23977 189.28 6.10977 189.24C5.80977 189.14 -1.15023 186.72 0.169768 176.07C0.499768 173.43 1.40977 170.99 2.79977 169.02C6.34977 164 11.0398 164.03 13.7098 164.93C26.1698 150.81 51.3698 150.58 52.9498 150.58H52.9898C53.4798 150.58 53.9198 150.86 54.1398 151.3C60.1498 163.71 78.2498 157.68 78.4298 157.62C78.5998 157.56 78.7798 157.54 78.9598 157.56C99.0698 159.29 130.63 156.82 130.94 156.79C131.65 156.74 132.26 157.26 132.32 157.96C132.38 158.66 131.85 159.28 131.15 159.34C130.83 159.37 99.3298 161.84 78.9998 160.13C76.6098 160.87 59.0698 165.77 52.2198 153.16C47.8498 153.29 26.0098 154.58 15.4198 166.88C15.7398 170.07 16.7298 185.12 7.01977 189.21C6.85977 189.28 6.68977 189.31 6.51977 189.31L6.50977 189.3ZM10.7998 167.03C9.09977 167.03 6.85977 167.7 4.88977 170.49C3.73977 172.12 2.98977 174.15 2.70977 176.38C1.82977 183.52 5.25977 185.97 6.49977 186.62C13.7598 183.02 13.1598 170.53 12.8798 167.37C12.3998 167.21 11.6698 167.04 10.7998 167.04V167.03Z" fill="#232323"/>
<path d="M9.53988 216.77H4.42988C3.87988 216.77 3.38988 216.42 3.21988 215.89C-0.830117 203.73 2.22988 186.38 2.35988 185.65C2.48988 184.96 3.14988 184.49 3.84988 184.62C4.54988 184.75 5.00988 185.41 4.87988 186.11C4.84988 186.28 1.94988 202.7 5.36988 214.21H9.53988C10.2499 214.21 10.8199 214.78 10.8199 215.49C10.8199 216.2 10.2499 216.77 9.53988 216.77Z" fill="#232323"/>
<path d="M12.9597 218.85C12.0797 218.85 11.2097 218.57 10.4597 218.03C9.45968 217.31 8.78968 216.19 8.62968 214.97C7.88968 209.44 7.04968 190.55 27.2897 179.76C33.7597 176.31 41.3197 175.04 49.1397 176.08C56.4897 177.06 63.4897 180.08 68.8597 184.56C77.9597 192.15 81.1897 202.69 77.7297 213.47C77.0297 215.64 75.1597 217.26 72.9697 217.6C71.3797 217.85 70.3597 217.35 69.7797 216.89C68.8297 216.14 68.2897 214.91 68.1497 213.23C67.6097 206.43 63.8497 190.62 40.7397 190.62C33.8797 190.62 28.3697 192.66 24.3597 196.69C17.1297 203.95 17.0997 215.36 17.0997 215.47C17.0997 215.6 17.0797 215.74 17.0397 215.87C16.7497 216.77 15.7397 218.38 13.7497 218.76C13.4797 218.81 13.2197 218.84 12.9497 218.84L12.9597 218.85ZM43.9597 178.33C38.5197 178.33 33.1597 179.54 28.4997 182.02C10.2297 191.76 10.2897 208.07 11.1697 214.64C11.2397 215.17 11.5297 215.65 11.9597 215.96C12.3497 216.24 12.8197 216.35 13.2797 216.26C14.0397 216.11 14.4197 215.51 14.5497 215.23C14.5897 213.34 15.1197 202.38 22.5397 194.91C27.0497 190.37 33.1797 188.07 40.7497 188.07C65.9897 188.07 70.1097 205.53 70.7097 213.03C70.7797 213.95 71.0197 214.61 71.3697 214.89C71.6297 215.1 72.0397 215.16 72.5797 215.07C73.8297 214.88 74.8897 213.94 75.2897 212.69C78.4097 202.95 75.4697 193.41 67.2197 186.52C60.7697 181.14 52.2697 178.32 43.9497 178.32L43.9597 178.33Z" fill="#232323"/>
<path d="M42.3196 232.17C30.2296 232.17 19.1796 224.6 14.8096 213.33L17.1996 212.4C21.1896 222.69 31.2796 229.6 42.3196 229.6C54.1896 229.6 64.5196 222 68.0396 210.68L70.4796 211.44C66.6296 223.84 55.3096 232.16 42.3096 232.16L42.3196 232.17Z" fill="#232323"/>
<path d="M42.3199 217.75C35.2199 217.75 29.4399 211.97 29.4399 204.87C29.4399 197.77 35.2199 191.99 42.3199 191.99C49.4199 191.99 55.1999 197.77 55.1999 204.87C55.1999 211.97 49.4199 217.75 42.3199 217.75ZM42.3199 194.55C36.6299 194.55 31.9999 199.18 31.9999 204.87C31.9999 210.56 36.6299 215.19 42.3199 215.19C48.0099 215.19 52.6399 210.56 52.6399 204.87C52.6399 199.18 48.0099 194.55 42.3199 194.55Z" fill="#232323"/>
<path d="M191.92 217.75C184.82 217.75 179.04 211.97 179.04 204.87C179.04 197.77 184.82 191.99 191.92 191.99C199.02 191.99 204.8 197.77 204.8 204.87C204.8 211.97 199.02 217.75 191.92 217.75ZM191.92 194.55C186.23 194.55 181.6 199.18 181.6 204.87C181.6 210.56 186.23 215.19 191.92 215.19C197.61 215.19 202.24 210.56 202.24 204.87C202.24 199.18 197.61 194.55 191.92 194.55Z" fill="#232323"/>
<path d="M154 166.97C147.71 166.97 145.51 162.58 145.23 160.26C145.14 159.56 145.64 158.92 146.35 158.83C147.05 158.75 147.68 159.24 147.77 159.94C147.83 160.4 148.55 164.41 154 164.41C157.86 164.41 164.44 163.36 166.19 156.52C164.86 155.8 161.79 154.4 157.9 154.35C157.19 154.35 156.63 153.76 156.64 153.05C156.64 152.34 157.23 151.76 157.94 151.79C163.97 151.87 168.19 154.71 168.37 154.84C168.79 155.13 169 155.63 168.91 156.13C167.64 163.02 162.21 166.98 154.01 166.98L154 166.97Z" fill="#232323"/>
<path d="M223.12 170.26C222.8 170.26 222.49 170.14 222.24 169.91C209.08 157.4 185.17 154.95 182.6 154.72C176.61 156.45 168.1 157.14 167.74 157.17C167.02 157.23 166.42 156.7 166.36 156C166.3 155.3 166.83 154.68 167.53 154.62C167.62 154.62 176.36 153.9 182.1 152.2C182.25 152.16 182.4 152.14 182.56 152.15C183.65 152.23 209.5 154.26 224 168.06C224.51 168.55 224.53 169.36 224.05 169.87C223.8 170.13 223.46 170.27 223.12 170.27V170.26Z" fill="#232323"/>
<path d="M182.47 154.7C181.91 154.7 181.39 154.33 181.24 153.76C177.7 140.83 170.74 133.33 165.53 129.31C164.84 128.78 163.97 128.7 163.19 129.08C162.4 129.47 161.93 130.22 161.93 131.09V153.3C161.93 154.01 161.36 154.58 160.65 154.58C159.94 154.58 159.37 154.01 159.37 153.3V131.09C159.37 129.25 160.4 127.59 162.05 126.78C163.7 125.97 165.63 126.16 167.08 127.28C172.61 131.54 179.98 139.47 183.7 153.08C183.89 153.76 183.49 154.47 182.8 154.65C182.69 154.68 182.57 154.7 182.46 154.7H182.47Z" fill="#232323"/>
<path d="M235.27 199.02C234.99 199.02 234.71 198.93 234.47 198.74C218.51 186.05 218.05 170.55 218.04 169.9C218.03 169.31 218.42 168.79 219 168.64C219.19 168.59 237.88 163.86 242.66 176.76C247.56 189.97 236.15 198.68 236.03 198.76C235.8 198.93 235.53 199.01 235.26 199.01L235.27 199.02ZM220.69 170.89C221.09 174.39 223.29 186.13 235.26 196.08C237.53 194.04 243.84 187.28 240.26 177.65C236.86 168.5 224.39 170.17 220.69 170.89Z" fill="#232323"/>
<path d="M241.95 189.23C241.7 189.23 241.44 189.16 241.22 189C229.77 181.07 226.64 169.82 226.51 169.34C226.33 168.66 226.73 167.96 227.41 167.77C228.09 167.59 228.79 167.99 228.98 168.67C229.02 168.82 232.05 179.53 242.67 186.89C243.25 187.29 243.4 188.09 242.99 188.67C242.74 189.03 242.34 189.22 241.94 189.22L241.95 189.23Z" fill="#232323"/>
<path d="M227.12 212.42C226.58 212.42 226.07 212.07 225.9 211.52C225.69 210.85 226.06 210.13 226.74 209.91C236.59 206.81 235.62 196.88 235.57 196.46C235.49 195.76 236 195.13 236.7 195.05C237.39 194.97 238.03 195.48 238.11 196.18C238.12 196.3 239.34 208.63 227.5 212.35C227.37 212.39 227.24 212.41 227.12 212.41V212.42Z" fill="#232323"/>
<path d="M221.65 216.78C220.2 216.78 218.81 216.28 217.66 215.34C216.31 214.24 215.46 212.62 215.31 210.89C214.73 204.19 211.16 188.61 190.59 188.61C183.44 188.61 177.94 190.5 174.24 194.22C169.34 199.15 168.66 206.29 168.69 210.11C168.7 212.06 167.83 213.88 166.29 215.09C164.82 216.25 162.95 216.67 161.15 216.22C159.34 215.77 156.95 214.31 155.83 209.87C155.83 209.84 155.81 209.8 155.81 209.77C155.72 209.2 153.59 195.63 162.34 185.31C168.56 177.98 178.6 174.26 192.2 174.26C219.64 174.26 226.45 196.35 228.06 209.52C228.48 212.91 226.21 216.04 222.89 216.64C222.72 216.67 222.55 216.7 222.37 216.72C222.13 216.75 221.88 216.76 221.64 216.76L221.65 216.78ZM190.59 186.06C200.42 186.06 207.83 189.34 212.59 195.82C216.53 201.17 217.58 207.43 217.87 210.68C217.96 211.74 218.47 212.69 219.29 213.37C220.09 214.02 221.09 214.32 222.1 214.2C222.22 214.19 222.34 214.17 222.46 214.15C224.44 213.79 225.8 211.9 225.54 209.85C223.69 194.79 216.42 176.84 192.22 176.84C179.42 176.84 170.04 180.25 164.33 186.96C156.59 196.07 158.22 208.45 158.35 209.32C159 211.86 160.15 213.35 161.78 213.75C162.8 214 163.87 213.76 164.72 213.09C165.63 212.37 166.15 211.29 166.14 210.13C166.11 205.92 166.89 198.01 172.44 192.42C176.64 188.19 182.75 186.05 190.61 186.05L190.59 186.06Z" fill="#232323"/>
<path d="M191.82 231.29C179.91 231.29 169.28 223.3 165.98 211.87L168.44 211.16C171.42 221.5 181.04 228.73 191.82 228.73C202.6 228.73 212.62 221.23 215.38 210.48L217.86 211.12C214.81 223 204.1 231.29 191.82 231.29Z" fill="#232323"/>
<path d="M110.65 217.3C91.4398 217.3 75.8698 215.91 75.5898 215.89L75.8198 213.34C76.3198 213.39 126.42 217.84 157.61 210.64L158.19 213.13C144.07 216.39 126.18 217.3 110.65 217.3Z" fill="#232323"/>
<path d="M92.1996 216.06C85.1496 192.39 90.2096 160.52 90.4296 159.17L92.9596 159.58C92.9096 159.9 87.7696 192.22 94.6496 215.32L92.1996 216.05V216.06Z" fill="#232323"/>
<path d="M97.8096 172.38C95.8796 172.38 94.3296 170.84 94.3296 168.94C94.3296 167.04 95.8696 165.5 97.7696 165.5C97.7996 165.5 97.8296 165.5 97.8696 165.5L109.1 166.69C110.44 166.83 111.45 167.95 111.45 169.3C111.45 170.65 110.35 171.86 108.94 171.92L97.8196 172.38H97.8096ZM97.7296 167.33C96.8596 167.35 96.1596 168.07 96.1596 168.94C96.1596 169.81 96.8796 170.55 97.7696 170.55L108.85 170.09C109.28 170.07 109.61 169.72 109.61 169.3C109.61 168.88 109.3 168.55 108.9 168.51L97.7296 167.33Z" fill="#232323"/>
<path d="M147.29 141.13C145.83 131.55 138.97 121.88 138.9 121.79L140.98 120.3C141.28 120.71 148.27 130.55 149.82 140.75L147.29 141.14V141.13Z" fill="#232323"/>
<path d="M148.3 138.99L147.49 136.56C152.12 135.02 156.82 132.17 159.95 130.04L161.39 132.16C156.64 135.38 152.23 137.67 148.3 138.98V138.99Z" fill="#232323"/>
<path d="M166.1 128.74L164.52 126.73C165.28 126.14 165.7 125.78 165.71 125.77C165.9 125.61 166.14 125.5 166.39 125.48C173.28 124.7 177.53 122.91 178.36 120.44C179.15 118.08 176.76 115.14 175.77 114.21C175.39 113.85 175.27 113.3 175.45 112.81C176.69 109.62 176.82 107.34 175.83 106.22C174.51 104.74 171.24 105.19 170.09 105.48C169.72 105.58 169.33 105.5 169.02 105.28C168.71 105.06 168.52 104.71 168.49 104.34C168.3 101.86 167.58 100.26 166.33 99.59C164.05 98.36 160.46 100.29 160.43 100.31L159.19 98.07C159.39 97.96 164.02 95.44 167.55 97.34C169.32 98.29 170.43 100.11 170.88 102.74C172.74 102.49 175.89 102.44 177.74 104.52C179.34 106.32 179.47 109.16 178.13 112.98C179.37 114.36 181.95 117.78 180.8 121.25C179.61 124.83 175.12 127.03 167.07 127.99C166.85 128.17 166.53 128.43 166.11 128.76L166.1 128.74Z" fill="#232323"/>
</g>
<defs>
<linearGradient id="paint0_linear_69_2142" x1="101.328" y1="13.6912" x2="109.059" y2="81.7416" gradientUnits="userSpaceOnUse">
<stop stop-color="#FFCC00"/>
<stop offset="1" stop-color="#FF9966"/>
</linearGradient>
<linearGradient id="paint1_linear_69_2142" x1="99.3998" y1="23.5333" x2="104.569" y2="34.2458" gradientUnits="userSpaceOnUse">
<stop stop-color="#FFCC00"/>
<stop offset="1" stop-color="#FF9966"/>
</linearGradient>
<linearGradient id="paint2_linear_69_2142" x1="66.3514" y1="30.6376" x2="72.9193" y2="38.9468" gradientUnits="userSpaceOnUse">
<stop stop-color="#FFCC00"/>
<stop offset="1" stop-color="#FF9966"/>
</linearGradient>
<linearGradient id="paint3_linear_69_2142" x1="112.397" y1="8.46004" x2="115.66" y2="15.4135" gradientUnits="userSpaceOnUse">
<stop stop-color="#FFCC00"/>
<stop offset="1" stop-color="#FF9966"/>
</linearGradient>
<linearGradient id="paint4_linear_69_2142" x1="131.596" y1="21.0753" x2="134.576" y2="28.1557" gradientUnits="userSpaceOnUse">
<stop stop-color="#FFCC00"/>
<stop offset="1" stop-color="#FF9966"/>
</linearGradient>
<linearGradient id="paint5_linear_69_2142" x1="83.0158" y1="14.5763" x2="88.0231" y2="23.1694" gradientUnits="userSpaceOnUse">
<stop stop-color="#FFCC00"/>
<stop offset="1" stop-color="#FF9966"/>
</linearGradient>
<clipPath id="clip0_69_2142">
<rect width="243.88" height="232.17" fill="white"/>
</clipPath>
</defs>
</svg>
