<svg width="245" height="202" viewBox="0 0 245 202" fill="none" xmlns="http://www.w3.org/2000/svg">
<path d="M159.42 66.22C159.23 66.14 159.01 66.06 158.79 65.98C158.83 65.88 160.54 62.16 159.84 58.93C159.84 58.93 156.44 57.53 155.05 55.36C154.96 55.22 154.87 55.02 154.76 54.75C154.11 53.05 153.14 48.88 151.61 44.37C149.56 38.32 146.51 31.66 141.87 29.54C141.87 29.54 143.69 28.03 143.11 24.61C142.93 23.57 142.54 22.35 141.8 20.95L141.78 20.94C142.68 19.27 143.44 16.7 142.47 13.47C142.47 13.47 139 14.55 136.57 17.37C138.99 8.14999 143.19 1.73003 143.32 1.53003C143.32 1.53003 130.55 2.93001 117 18.88V18.98C115.08 18.97 112.82 19.08 110.31 19.4C108.62 19.61 106.8 19.93 104.9 20.37C101.99 21.05 99.4 21.9 97.17 22.79C95.79 23.34 94.54 23.91 93.43 24.46L93.39 24.38C74.19 16.06 62.12 20.44 62.12 20.44C62.12 20.44 68.85 24.35 75.19 31.67C71.76 30.21 68.17 30.77 68.17 30.77C68.72 34.09 70.55 36.06 72.09 37.17L72.08 37.18C72.06 37.91 72.09 38.57 72.15 39.17C72.69 44.18 75.81 44.93 75.81 44.93C72.58 48.88 72.79 56.2 73.62 62.53C74.19 66.85 75.05 70.71 75.32 72.72C75.39 73.25 75.42 73.66 75.39 73.91C75.1 76.47 72.67 79.23 72.67 79.23C73.49 82.48 76.73 85.09 76.73 85.09C75.85 85.96 75.39 86.78 75.39 86.78C78.86 92.2 84.28 95.36 90.23 97.12C104.89 101.44 122.8 97.23 122.8 97.23C122.8 97.23 131.51 95.22 140.59 90.5C149.35 85.95 158.47 78.87 160.46 68.62C160.57 68.06 160.66 67.49 160.72 66.92C160.74 66.9 160.23 66.56 159.42 66.22ZM127.2 86.2C127.11 86.47 127.01 86.75 126.91 87.03C126.57 87.94 126.18 88.88 125.72 89.82C124.09 93.13 119.86 94.11 116.95 91.86C115.87 91.03 114.89 90.15 114.02 89.27L113.82 89.07C110.55 85.74 108.77 82.53 108.77 82.53C112.98 82.59 115.74 80.29 117.13 78.72C117.82 77.94 118.08 76.87 117.85 75.85C118.09 76.87 118.79 77.72 119.76 78.11C121.69 78.9 125.19 79.74 128.94 77.83C128.93 77.83 128.75 81.64 127.2 86.2Z" fill="#2D2D2D"/>
<path d="M158.66 121.35C158.66 121.75 158.63 122.14 158.58 122.51C158.2 125.06 156.49 126.97 151.8 126.16L151.32 126.11C150.67 127.74 149.41 129.09 147.16 129.55C146.35 129.71 145.4 129.76 144.31 129.66C143.66 130.52 142.62 131.18 141.02 131.45C135.63 132.36 132.83 129.28 131.69 127.51C131.69 127.51 129.31 127.7 125.42 127.94C117.88 128.4 104.69 129.06 92.34 128.87C90.93 128.85 89.52 128.82 88.15 128.77C87.71 126.46 87.48 124.02 87.4 121.57C87.33 119.54 87.37 117.49 87.47 115.5C87.6 113.08 87.84 110.72 88.12 108.56C88.41 106.34 88.74 104.31 89.06 102.6C89.69 99.24 90.24 97.11 90.24 97.11C92.15 97.67 94.12 98.09 96.09 98.39C109.26 100.4 122.81 97.22 122.81 97.22C122.81 97.22 124.53 96.83 127.24 95.97C130.63 94.9 135.56 93.12 140.61 90.49C140.61 90.49 146.28 98.39 148.56 107.22C148.83 108.27 149.06 109.32 149.22 110.38C156.27 112.03 156.86 113.7 156.86 113.7C156.86 113.7 157.22 114.5 157.61 115.7C158.12 117.22 158.68 119.37 158.66 121.35Z" fill="#2D2D2D"/>
<path d="M167.2 96.18C167.2 96.18 166.76 96.56 165.97 97.17L165.96 97.2C163.79 96.45 161.31 98.03 161.31 100.54V100.57C157.81 102.94 153.16 105.69 148.56 107.22C147.67 103.77 146.26 100.48 144.88 97.73C142.71 93.43 140.6 90.49 140.6 90.49C145.95 87.71 151.44 83.98 155.35 79.17C157.84 76.11 159.69 72.6 160.47 68.62C160.47 68.62 169.66 63.51 170.43 73.68C170.43 73.68 182.01 70.64 177.31 82.71C177.31 82.7 189.07 93.72 167.2 96.18Z" fill="#2D2D2D"/>
<path d="M73.6301 62.52C73.6301 62.52 59.5201 47.83 62.1301 20.42C62.1301 20.42 68.8601 24.33 75.2001 31.65C71.7701 30.19 68.1801 30.75 68.1801 30.75C68.7301 34.07 70.5601 36.04 72.1001 37.15L72.0901 37.16C71.9001 43.96 75.8201 44.9 75.8201 44.9C72.5901 48.86 72.8001 56.18 73.6301 62.52Z" fill="white"/>
<path d="M151.61 44.36C149.56 38.31 146.51 31.65 141.87 29.53C141.87 29.53 144.97 26.96 141.8 20.94L141.78 20.93C142.68 19.26 143.44 16.69 142.47 13.46C142.47 13.46 139 14.54 136.57 17.36C139.02 7.98999 143.33 1.51001 143.33 1.51001C157.78 24.94 151.61 44.36 151.61 44.36Z" fill="white"/>
<path d="M160.74 66.9C160.67 67.48 160.59 68.04 160.48 68.6C158.49 78.84 149.38 85.92 140.61 90.48C131.53 95.2 122.82 97.21 122.82 97.21C122.82 97.21 104.91 101.42 90.2501 97.1C84.3001 95.35 78.8801 92.18 75.4101 86.76C75.4101 86.76 75.8701 85.94 76.7501 85.07C76.7501 85.07 73.5101 82.46 72.6901 79.21C72.6901 79.21 75.1301 76.45 75.4101 73.89C75.4401 73.64 75.4101 73.24 75.3401 72.7C77.3101 70.94 80.5501 68.71 83.7001 69.49C88.7001 70.72 109.11 72.6201 116.01 71.0301C122.91 69.4501 138.9 60.43 145.3 55.38C147.56 53.6 151.11 53.77 154.77 54.73C154.87 55 154.97 55.2101 155.06 55.3401C156.45 57.5101 159.85 58.91 159.85 58.91C160.54 62.14 158.84 65.87 158.8 65.96C159.96 66.37 160.74 66.9 160.74 66.9Z" fill="white"/>
<path d="M128.93 77.83C128.93 77.83 128.75 81.64 127.2 86.2C127.2 86.2 124.21 84.88 120.16 85.82C116.11 86.76 114.01 89.27 114.01 89.27C110.61 85.87 108.76 82.53 108.76 82.53C112.97 82.59 115.73 80.29 117.12 78.72C117.81 77.94 118.07 76.87 117.84 75.85C118.08 76.87 118.78 77.72 119.75 78.11C121.69 78.9 125.19 79.74 128.93 77.83Z" fill="#232323"/>
<path d="M4.64003 155.73C4.52003 155.61 4.40003 155.47 4.28003 155.33C2.82003 153.61 1.48003 150.65 2.10003 145.67C2.39003 143.35 3.16003 141.11 4.50003 139.2C6.80003 135.95 9.46003 135.18 11.49 135.2C11.49 135.2 13.51 150.91 4.64003 155.73Z" fill="#FFD00D"/>
<path d="M7.17001 157.47C7.17001 157.47 5.92001 157.06 4.64001 155.73C13.51 150.91 11.49 135.2 11.49 135.2C13.38 135.22 14.73 135.92 14.73 135.92C14.73 135.92 17.04 153.31 7.17001 157.47Z" fill="#3F1AA3"/>
<path d="M183.13 122.87C177.19 124.63 168.3 125.34 168.3 125.34C168.3 125.34 165.53 123.44 161.31 122.76V100.55C161.31 98.04 163.8 96.46 165.96 97.21C166.31 97.33 166.64 97.51 166.96 97.75C172.11 101.71 179.45 109.42 183.13 122.87Z" fill="#C3B0FF"/>
<path d="M242.61 157.39C241.46 161.29 239.09 164.18 237.5 165.77C236.59 166.7 235.93 167.18 235.93 167.18C220.26 154.72 219.98 139.32 219.98 139.32C219.98 139.32 221.52 138.92 223.81 138.65C225.14 138.5 226.72 138.39 228.4 138.45C228.41 138.45 231.42 149.64 242.61 157.39Z" fill="#C3B0FF"/>
<path d="M242.61 157.39C231.42 149.64 228.41 138.45 228.41 138.45C233.62 138.61 239.75 140.26 242.12 146.65C243.64 150.75 243.5 154.37 242.61 157.39Z" fill="#FFD00D"/>
<path d="M79.5101 128.27C79.5101 128.27 60.2301 134.9 53.6501 121.3C53.6501 121.3 53.3401 106.05 62.0401 103.39C64.3101 102.7 66.5801 104.06 68.7001 106.44C74.7101 113.22 79.5101 128.27 79.5101 128.27Z" fill="#7636FF"/>
<path d="M94.09 185.14C83.5 184.72 76.37 184.07 76.37 184.07C76.73 183.62 77.01 183.1 77.19 182.54C85.57 156.42 51.48 138.12 28.57 150.34C9.27001 160.64 9.78001 178.27 10.58 184.25C10.61 184.45 10.65 184.64 10.71 184.82L10.22 184.94H5.1C1.11 172.95 4.29001 155.33 4.29001 155.33C5.68001 156.97 7.18001 157.47 7.18001 157.47C15.08 154.15 15.18 142.34 14.9 137.76C14.83 136.62 14.74 135.92 14.74 135.92C26.85 121.23 53.65 121.31 53.65 121.31C54.41 122.88 55.34 124.17 56.38 125.25C64.42 133.48 79.51 128.29 79.51 128.29C81.97 128.5 84.6 128.65 87.32 128.75C87.6 128.76 87.88 128.77 88.16 128.78C89.54 128.83 90.94 128.86 92.35 128.88C92.14 130.2 87.19 161.98 94.09 185.14Z" fill="#7636FF"/>
<path d="M237.5 165.78C236.58 166.7 235.93 167.19 235.93 167.19C220.26 154.73 219.98 139.33 219.98 139.33C219.98 139.33 221.52 138.93 223.81 138.66L223.78 138.42C209.44 124.79 183.13 122.87 183.13 122.87C178.26 124.31 171.4 125.05 169.09 125.27C168.59 125.32 168.3 125.34 168.3 125.34C167.05 132.16 161.48 135.13 154.67 135.13C147.86 135.13 147.17 129.55 147.17 129.55C146.36 129.71 145.41 129.76 144.32 129.66C143.67 130.52 142.63 131.18 141.03 131.45C135.64 132.36 132.84 129.28 131.7 127.51C131.7 127.51 125.78 127.98 117.4 128.37C110.14 128.71 101.04 129 92.35 128.86C92.14 130.19 87.19 161.97 94.09 185.13C111.66 185.83 138.74 185.91 158.56 181.33C158.24 180.68 157.96 179.91 157.73 179.01C157.73 179.01 152.11 145 192.86 145C212.5 145 221.26 156.56 225.09 168.27C226.32 172 227.04 175.74 227.45 179.13C227.51 179.61 227.5 180.07 227.44 180.53L227.78 180.58C235.8 178.06 237.29 171.31 237.51 167.86C237.6 166.6 237.5 165.78 237.5 165.78ZM109.55 140.45L98.43 140.91C97.03 140.91 95.9 139.78 95.9 138.38C95.9 137.68 96.18 137.05 96.64 136.59C97.1 136.13 97.73 135.85 98.43 135.85L109.66 137.04C110.53 137.13 111.19 137.86 111.19 138.74C111.19 139.66 110.47 140.41 109.55 140.45Z" fill="#7636FF"/>
<path d="M77.19 182.54C77.01 183.1 76.73 183.62 76.37 184.07C75.65 184.98 74.62 185.61 73.45 185.79C73.23 185.82 73.01 185.84 72.79 185.84C71.49 185.83 70.3 185.1 70.09 182.59C70.05 182.05 69.98 181.4 69.87 180.67C68.85 173.55 64.16 158.81 41.41 158.81C21.25 158.81 17.39 175.7 16.66 182.32C16.48 183.94 16.49 184.94 16.49 184.94C16.49 184.94 15.95 186.63 14.18 186.97C13.72 187.06 13.26 187.03 12.83 186.91C11.84 186.63 11.02 185.84 10.69 184.83C10.63 184.65 10.59 184.46 10.56 184.26C9.76003 178.27 9.25004 160.64 28.55 150.35C51.48 138.11 85.57 156.42 77.19 182.54Z" fill="#3F1AA3"/>
<path d="M227.44 180.54C227.19 182.23 226.12 183.72 224.58 184.45C224.19 184.63 223.78 184.77 223.33 184.85C223.19 184.88 223.04 184.9 222.89 184.92C220.08 185.25 217.56 183.16 217.25 180.36C217.24 180.32 217.24 180.28 217.24 180.24C216.67 173.61 213.06 156.79 191.24 156.79C170.29 156.79 168.01 172.41 168.06 179.58C168.06 180.06 168 180.52 167.87 180.97C167.19 183.41 164.7 185.09 162.11 184.45C162.08 184.44 162.04 184.43 162.01 184.42C160.72 184.07 159.47 183.18 158.56 181.34C158.24 180.69 157.96 179.92 157.73 179.02C157.73 179.02 152.11 145.01 192.86 145.01C218.74 145.01 225.73 165.1 227.45 179.14C227.51 179.61 227.51 180.08 227.44 180.54Z" fill="#3F1AA3"/>
<path d="M54.59 174.32C54.59 180.72 49.4 185.92 42.99 185.92C36.59 185.92 31.39 180.73 31.39 174.32C31.39 167.91 36.58 162.72 42.99 162.72C49.39 162.72 54.59 167.91 54.59 174.32Z" fill="white"/>
<path d="M204.18 174.32C204.18 180.72 198.99 185.92 192.58 185.92C186.18 185.92 180.98 180.73 180.98 174.32C180.98 167.91 186.17 162.72 192.58 162.72C198.99 162.72 204.18 167.91 204.18 174.32Z" fill="white"/>
<path d="M87.3201 128.73C84.6001 128.63 81.9801 128.48 79.5101 128.27C79.5101 128.27 74.7201 113.22 68.7001 106.44C68.7001 106.44 69.2501 101.97 72.3001 100.64C75.3401 99.32 82.4801 104.91 87.3201 128.73Z" fill="#595989"/>
<path d="M41.42 158.8C21.26 158.8 17.4 175.69 16.67 182.31C20.76 192.85 31 200.33 42.98 200.33C55.59 200.33 66.2601 192.06 69.8801 180.66C68.8601 173.54 64.18 158.8 41.42 158.8ZM42.9901 185.92C36.5901 185.92 31.39 180.73 31.39 174.32C31.39 167.91 36.5801 162.72 42.9901 162.72C49.4001 162.72 54.59 167.91 54.59 174.32C54.59 180.72 49.3901 185.92 42.9901 185.92Z" fill="#595989"/>
<path d="M168.3 125.34C167.05 132.16 161.48 135.13 154.67 135.13C147.86 135.13 147.17 129.55 147.17 129.55C149.42 129.1 150.67 127.75 151.33 126.11L151.81 126.16C156.49 126.97 158.21 125.06 158.59 122.51C159.55 122.52 160.47 122.61 161.32 122.75C165.53 123.44 168.3 125.34 168.3 125.34Z" fill="#595989"/>
<path d="M217.24 180.23C216.67 173.6 213.06 156.78 191.24 156.78C170.29 156.78 168.01 172.4 168.06 179.57C168.06 180.05 168 180.51 167.87 180.96C170.95 191.64 180.8 199.45 192.48 199.45C204.38 199.45 214.37 191.34 217.25 180.35C217.25 180.31 217.24 180.27 217.24 180.23ZM192.58 185.92C186.18 185.92 180.98 180.73 180.98 174.32C180.98 167.91 186.17 162.72 192.58 162.72C198.99 162.72 204.18 167.91 204.18 174.32C204.18 180.72 198.99 185.92 192.58 185.92Z" fill="#595989"/>
<path d="M111.19 138.74C111.19 139.65 110.47 140.41 109.56 140.45L98.44 140.91C97.04 140.91 95.91 139.78 95.91 138.38C95.91 137.68 96.19 137.05 96.65 136.59C97.11 136.13 97.74 135.85 98.44 135.85L109.67 137.04C110.53 137.14 111.19 137.87 111.19 138.74Z" fill="#595989"/>
<path d="M158.79 65.98C158.83 65.88 160.54 62.16 159.84 58.93C159.84 58.93 156.44 57.53 155.05 55.36C154.96 55.22 154.87 55.02 154.76 54.75C151.1 53.79 147.55 53.62 145.29 55.4C143.36 56.92 140.56 58.81 137.39 60.74C132.9 63.48 127.16 63.01 123.14 59.63C119.68 56.73 116.56 53.53 114.41 51.17C113.06 49.7 110.63 50.19 109.96 52.06C108.76 55.42 106.85 60.18 104.38 64.57C101.98 68.84 97.2601 71.26 92.3901 70.76C88.5301 70.36 85.3101 69.9 83.6901 69.5C80.5401 68.72 77.3001 70.96 75.3301 72.71C75.4001 73.24 75.4301 73.65 75.4001 73.9C75.1101 76.46 72.6801 79.2199 72.6801 79.2199C73.5001 82.4699 76.7401 85.08 76.7401 85.08C75.8601 85.95 75.4001 86.77 75.4001 86.77C78.8701 92.19 84.2901 95.35 90.2401 97.11C104.9 101.43 122.81 97.2199 122.81 97.2199C122.81 97.2199 131.52 95.21 140.6 90.49C149.36 85.94 158.48 78.86 160.47 68.61C160.58 68.05 160.67 67.4799 160.73 66.9099C160.74 66.9099 159.96 66.38 158.79 65.98ZM115.94 71.06C115.98 71.05 116 71.04 116 71.04L115.06 66.23L116.01 71.04C116 71.04 116 71.04 115.99 71.04C115.98 71.05 115.96 71.05 115.94 71.06Z" fill="white"/>
<path d="M149.22 110.38C141.22 109.22 129.56 104.96 127.44 102.29C126.05 100.53 126.66 97.7 127.24 95.96C130.63 94.89 135.56 93.11 140.61 90.48C140.61 90.48 146.28 98.38 148.56 107.21C148.84 108.26 149.06 109.32 149.22 110.38Z" fill="white"/>
<path d="M167.2 96.18C167.2 96.18 157.98 92.09 155.36 79.16C157.85 76.1 159.7 72.59 160.48 68.61C160.48 68.61 169.67 63.5 170.44 73.67C170.44 73.67 182.02 70.63 177.32 82.7C177.31 82.7 189.07 93.72 167.2 96.18Z" fill="white"/>
<path d="M164.12 87.64C166.672 87.64 168.74 85.5716 168.74 83.02C168.74 80.4685 166.672 78.4 164.12 78.4C161.568 78.4 159.5 80.4685 159.5 83.02C159.5 85.5716 161.568 87.64 164.12 87.64Z" fill="#FF4D96"/>
<path d="M164.39 75.78C165.599 75.78 166.58 74.7995 166.58 73.59C166.58 72.3805 165.599 71.4 164.39 71.4C163.18 71.4 162.2 72.3805 162.2 73.59C162.2 74.7995 163.18 75.78 164.39 75.78Z" fill="#FF4D96"/>
<path d="M172.67 80.93C173.879 80.93 174.86 79.9495 174.86 78.74C174.86 77.5305 173.879 76.55 172.67 76.55C171.46 76.55 170.48 77.5305 170.48 78.74C170.48 79.9495 171.46 80.93 172.67 80.93Z" fill="#FF4D96"/>
<path d="M172.67 90.48C173.879 90.48 174.86 89.4995 174.86 88.29C174.86 87.0805 173.879 86.1 172.67 86.1C171.46 86.1 170.48 87.0805 170.48 88.29C170.48 89.4995 171.46 90.48 172.67 90.48Z" fill="#FF4D96"/>
<path d="M89.0701 102.6C88.7601 104.31 88.4201 106.33 88.1301 108.56C91.2401 108.28 93.8601 107.45 95.4001 106.86C96.0201 106.62 96.0601 105.77 95.4801 105.46C93.1901 104.22 90.8401 103.26 89.0701 102.6Z" fill="white"/>
<path d="M87.4101 121.56C90.4001 121.12 92.8901 120.2 94.3601 119.57C94.9601 119.31 94.9801 118.46 94.3901 118.17C91.8801 116.97 89.3201 116.07 87.4901 115.49C87.3801 117.48 87.3401 119.53 87.4101 121.56Z" fill="white"/>
<g opacity="0.3">
<path d="M120.83 88.31C123.18 87.76 125.16 87.98 126.42 88.25C126.71 87.55 126.97 86.86 127.2 86.19C127.2 86.19 124.21 84.87 120.16 85.81C116.11 86.75 114.01 89.26 114.01 89.26C114.53 89.78 115.09 90.3 115.68 90.81C116.67 90.01 118.4 88.88 120.83 88.31Z" fill="#000566"/>
</g>
<g opacity="0.3">
<path d="M160.74 66.9C160.67 67.48 160.59 68.04 160.48 68.6C158.49 78.84 149.38 85.92 140.61 90.48C131.53 95.2 122.82 97.21 122.82 97.21C122.82 97.21 104.91 101.42 90.2501 97.1C84.3001 95.35 78.8801 92.18 75.4101 86.76C75.4101 86.76 75.8701 85.94 76.7501 85.07C76.7501 85.07 73.5101 82.46 72.6901 79.21C72.6901 79.21 75.1301 76.45 75.4101 73.89C75.4401 73.64 75.4101 73.24 75.3401 72.7C75.0701 70.68 74.2101 66.83 73.6401 62.51C72.8101 56.18 72.6101 48.85 75.8301 44.91C75.8301 44.91 70.7601 91.67 113.81 89.06C115.96 88.93 118.22 88.68 120.61 88.29C122.81 87.93 124.91 87.51 126.91 87.02C143.61 83 153.53 74.81 159.42 66.21C160.23 66.56 160.74 66.9 160.74 66.9Z" fill="black"/>
</g>
<g opacity="0.3">
<path d="M70.18 30.65C71.53 30.67 73.39 30.88 75.2 31.65C68.85 24.33 62.13 20.42 62.13 20.42C62.02 21.54 61.95 22.63 61.89 23.71C63.82 25.04 66.91 27.38 70.18 30.65Z" fill="black"/>
</g>
<g opacity="0.3">
<path d="M75.8201 44.91C75.8201 44.91 71.9001 43.97 72.0901 37.17L72.1001 37.16C70.8801 36.28 69.4901 34.87 68.6901 32.68C68.6701 32.68 68.6601 32.68 68.6401 32.68C67.1601 32.59 66.1501 34.14 66.7901 35.48C67.6101 37.22 68.8101 38.39 69.8701 39.16L69.8601 39.17C69.6701 45.97 73.5901 46.91 73.5901 46.91C71.2801 49.74 70.7301 54.3 70.9101 58.99C72.4901 61.33 73.6301 62.52 73.6301 62.52C72.8001 56.18 72.5901 48.86 75.8201 44.91Z" fill="black"/>
</g>
<g opacity="0.3">
<path d="M144.9 4.19C144.4 3.3 143.88 2.41001 143.33 1.51001C143.33 1.51001 139.03 7.98999 136.57 17.36C137.86 15.87 139.43 14.86 140.63 14.25C142.03 9.93 143.7 6.44 144.9 4.19Z" fill="black"/>
</g>
<g opacity="0.3">
<path d="M145.04 29.46C145.04 29.46 148.14 26.89 144.97 20.87L144.95 20.86C145.52 19.81 146.03 18.39 146.09 16.67C146.15 14.96 144.29 13.84 142.82 14.73L142.77 14.76C143.22 17.38 142.55 19.49 141.77 20.93L141.79 20.94C144.96 26.96 141.86 29.53 141.86 29.53C146.5 31.65 149.55 38.31 151.6 44.36C151.6 44.36 152.24 42.33 152.63 38.79C150.75 34.64 148.28 30.94 145.04 29.46Z" fill="black"/>
</g>
<g opacity="0.3">
<path d="M74.66 39.12C74.04 39.33 73.12 39.49 72.15 39.16C72.09 38.56 72.06 37.9 72.08 37.17C72.08 37.17 73.41 38.05 74.41 38.39L74.66 38.48C74.97 38.58 74.97 39.01 74.66 39.12Z" fill="black"/>
</g>
<g opacity="0.3">
<path d="M68.1801 30.76C68.1801 30.76 70.6101 31.65 72.9701 33.17C73.6001 33.58 74.1901 34.0499 74.7101 34.5999C75.4901 35.4199 76.7501 36.84 77.8301 38.51C78.2201 39.12 79.1701 38.8899 79.2401 38.1599C79.2801 37.7399 79.2901 37.26 79.2501 36.7L75.2101 31.65C75.2001 31.65 71.1401 30.46 68.1801 30.76Z" fill="black"/>
</g>
<g opacity="0.3">
<path d="M87.3701 28.14C87.3701 28.14 87.3901 27.86 87.4801 27.48C87.7201 26.46 87.2201 25.4 86.2601 24.97C82.5001 23.28 73.5301 19.93 62.1301 20.41C62.1301 20.41 74.2101 16.03 93.4001 24.35C93.4001 24.36 89.4901 26.21 87.3701 28.14Z" fill="black"/>
</g>
<g opacity="0.3">
<path d="M143.33 1.51001C129.85 8.96001 125.1 14.45 123.6 16.65C123.25 17.16 123.23 17.81 123.54 18.35C123.86 18.9 124.1 19.59 124.1 19.59C121.49 18.82 117.01 18.87 117.01 18.87C130.56 2.92 143.33 1.51001 143.33 1.51001Z" fill="black"/>
</g>
<g opacity="0.3">
<path d="M131.7 127.51C131.7 127.51 111.07 129.15 92.3501 128.87C90.9401 128.85 89.5301 128.82 88.1601 128.77C87.7201 126.46 87.4901 124.02 87.4101 121.57C87.3401 119.54 87.3801 117.49 87.4801 115.5C87.6101 113.08 87.8501 110.72 88.1301 108.56C88.4201 106.34 88.7501 104.31 89.0701 102.6C89.7001 99.24 90.2501 97.11 90.2501 97.11C92.1601 97.67 94.1301 98.09 96.1001 98.39C93.2201 110.29 98.2601 117.39 102.35 121C103.27 121.81 104.66 120.93 104.34 119.75C103.19 115.52 104.54 111 104.54 111C109 127.8 131.7 127.51 131.7 127.51Z" fill="black"/>
</g>
<g opacity="0.3">
<path d="M158.58 122.51C158.2 125.06 156.49 126.97 151.8 126.16L151.32 126.11C150.67 127.74 149.41 129.09 147.16 129.55C146.35 129.71 145.4 129.76 144.31 129.66C143.66 130.52 142.62 131.18 141.02 131.45C135.63 132.36 132.83 129.28 131.69 127.51C142.5 130.1 144.9 124.57 144.9 124.57C149.4 125.22 151.96 120.75 151.96 120.75C156.12 119.33 157.28 116.83 157.6 115.7C158.22 117.52 158.91 120.27 158.58 122.51Z" fill="black"/>
</g>
<g opacity="0.3">
<path d="M167.2 96.18C167.2 96.18 166.76 96.56 165.97 97.17L165.96 97.2C163.79 96.45 161.31 98.03 161.31 100.54V100.57C157.81 102.94 153.16 105.69 148.56 107.22C147.67 103.77 146.26 100.48 144.88 97.73L158.63 91.68C160.27 90.96 162.09 90.7 163.87 90.98C168.89 91.75 179.47 92.31 177.31 82.71C177.31 82.7 189.07 93.72 167.2 96.18Z" fill="black"/>
</g>
<g opacity="0.3">
<path d="M10.6101 174.96L10.21 175.06C7.02005 175.06 4.30005 172.74 3.78005 169.59C3.52005 168 3.35005 166.39 3.24005 164.77C2.88005 170.8 3.00005 178.64 5.10005 184.93H10.2201L10.71 184.81C10.65 184.63 10.6101 184.44 10.5801 184.24C10.3001 182.23 10.0701 178.9 10.6101 174.96Z" fill="#000566"/>
</g>
<g opacity="0.3">
<path d="M157.62 171.67C137.89 176.04 111.38 175.96 94.09 175.27C86.92 174.98 81.34 174.59 78.48 174.37C78.5 176.98 78.09 179.72 77.19 182.54C77.01 183.1 76.73 183.62 76.37 184.07C76.37 184.07 83.5 184.72 94.09 185.15C111.66 185.85 138.74 185.93 158.56 181.35C158.24 180.7 157.96 179.93 157.73 179.03C157.73 179.02 157.23 175.95 157.62 171.67Z" fill="#000566"/>
</g>
<g opacity="0.3">
<path d="M72.8 185.84C71.5 185.83 70.31 185.1 70.1 182.59C70.06 182.05 69.99 181.4 69.88 180.67C68.86 173.55 64.17 158.81 41.42 158.81C21.26 158.81 17.4 175.7 16.67 182.32C16.49 183.94 16.5 184.94 16.5 184.94C16.5 184.94 15.96 186.63 14.19 186.97C13.73 187.06 13.27 187.03 12.84 186.91C12.83 180.87 14.3 154.19 41.2 154.19C65.76 154.18 73.9 167.48 72.8 185.84Z" fill="#000566"/>
</g>
<g opacity="0.3">
<path d="M224.58 184.45C224.19 184.63 223.78 184.77 223.33 184.85C223.19 184.88 223.04 184.9 222.89 184.92C220.08 185.25 217.56 183.16 217.25 180.36C217.24 180.32 217.24 180.28 217.24 180.24C216.67 173.61 213.06 156.79 191.24 156.79C170.29 156.79 168.01 172.41 168.06 179.58C168.06 180.06 168 180.52 167.87 180.97C167.19 183.41 164.7 185.09 162.11 184.45C162.08 184.44 162.04 184.43 162.01 184.42C161.48 174.45 163.27 151.29 191.31 151.29C216.16 151.28 222.82 171.89 224.58 184.45Z" fill="#000566"/>
</g>
<g opacity="0.3">
<path d="M17.07 183.29C18.52 175.65 23.6 162.46 41.42 162.46C61.86 162.46 67.72 174.36 69.44 181.94C69.6 181.52 69.75 181.1 69.8801 180.67C68.8601 173.55 64.17 158.81 41.42 158.81C21.26 158.81 17.4 175.7 16.67 182.32C16.8 182.64 16.93 182.97 17.07 183.29Z" fill="#000566"/>
</g>
<g opacity="0.3">
<path d="M217.24 180.23C216.67 173.6 213.06 156.78 191.24 156.78C170.29 156.78 168.01 172.4 168.06 179.57C168.06 180.05 168 180.51 167.87 180.96C167.95 181.23 168.03 181.49 168.12 181.75C168.6 174.01 172.25 161.17 191.24 161.17C210.33 161.17 215.48 174.04 216.85 181.71C216.99 181.26 217.13 180.81 217.25 180.36C217.25 180.31 217.24 180.27 217.24 180.23Z" fill="#000566"/>
</g>
<g opacity="0.3">
<path d="M42.99 181.53C37.34 181.53 32.63 177.48 31.6 172.13C31.46 172.84 31.39 173.57 31.39 174.32C31.39 180.72 36.58 185.92 42.99 185.92C49.4 185.92 54.59 180.73 54.59 174.32C54.59 173.57 54.52 172.84 54.38 172.13C53.35 177.48 48.64 181.53 42.99 181.53Z" fill="#000566"/>
</g>
<g opacity="0.3">
<path d="M192.58 181.53C186.93 181.53 182.22 177.48 181.19 172.13C181.05 172.84 180.98 173.57 180.98 174.32C180.98 180.72 186.17 185.92 192.58 185.92C198.99 185.92 204.18 180.73 204.18 174.32C204.18 173.57 204.11 172.84 203.97 172.13C202.94 177.48 198.24 181.53 192.58 181.53Z" fill="#000566"/>
</g>
<g opacity="0.3">
<path d="M42.9901 193.02C31.8501 193.02 22.22 186.56 17.63 177.18C17.1 179.17 16.82 180.96 16.67 182.32C20.76 192.86 31 200.34 42.98 200.34C55.59 200.34 66.2601 192.07 69.8801 180.67C69.6901 179.36 69.3801 177.78 68.8501 176.09C64.5001 186.05 54.5601 193.02 42.9901 193.02Z" fill="#000566"/>
</g>
<g opacity="0.3">
<path d="M216.42 175.27C212.75 184.92 203.42 191.77 192.48 191.77C181.38 191.77 171.94 184.71 168.38 174.83C168.12 176.6 168.05 178.23 168.06 179.57C168.06 180.05 168 180.51 167.87 180.96C170.95 191.64 180.8 199.45 192.48 199.45C204.38 199.45 214.37 191.34 217.25 180.35C217.24 180.31 217.24 180.27 217.24 180.23C217.13 178.91 216.89 177.19 216.42 175.27Z" fill="#000566"/>
</g>
<g opacity="0.3">
<path d="M62.2201 105.91C62.7901 104.95 63.4701 104.08 64.2701 103.34C63.5301 103.16 62.7801 103.16 62.0401 103.39C53.3401 106.05 53.6501 121.3 53.6501 121.3C60.2301 134.9 79.5101 128.27 79.5101 128.27C79.5101 128.27 79.4301 128.03 79.2901 127.61C78.1401 127.77 76.8701 127.89 75.5501 127.93C64.0101 128.24 56.3101 115.82 62.2201 105.91Z" fill="#000566"/>
</g>
<g opacity="0.3">
<path d="M83.5001 127.45C83.5001 127.45 79.5801 115.14 74.3801 107.77C72.9701 105.77 72.9701 103.03 74.5501 101.16C74.6301 101.06 74.7201 100.97 74.8001 100.88C73.8201 100.4 72.9601 100.36 72.3001 100.65C69.2501 101.98 68.7001 106.45 68.7001 106.45C74.7201 113.22 79.5101 128.28 79.5101 128.28C81.9701 128.49 84.6001 128.64 87.3201 128.74C87.2501 128.39 87.1801 128.05 87.1101 127.72C85.8701 127.64 84.6601 127.55 83.5001 127.45Z" fill="#000566"/>
</g>
<g opacity="0.3">
<path d="M148.93 132.34C150.99 131.93 152.21 130.77 152.9 129.32C153.02 129.07 153.29 128.92 153.56 128.95C157.91 129.7 159.7 128.11 160.23 125.84C160.3 125.53 160.58 125.31 160.89 125.32C161.65 125.35 162.37 125.43 163.06 125.55C165.03 125.87 166.67 126.45 167.88 126.98C168.04 126.46 168.18 125.91 168.29 125.34C168.29 125.34 165.52 123.44 161.3 122.76C160.45 122.62 159.53 122.53 158.57 122.52C158.19 125.07 156.48 126.98 151.79 126.17L151.31 126.12C150.66 127.75 149.4 129.1 147.15 129.56C147.15 129.56 147.4 131.62 149.13 133.24C148.97 132.69 148.93 132.34 148.93 132.34Z" fill="#000566"/>
</g>
<g opacity="0.3">
<path d="M237.51 167.87C237.29 171.32 235.8 178.07 227.78 180.59L227.44 180.54C227.51 180.09 227.51 179.62 227.45 179.14C227.03 175.75 226.31 172.01 225.09 168.28C228.76 169.01 233.25 169.28 237.51 167.87Z" fill="#000566"/>
</g>
<g opacity="0.3">
<path d="M237.83 160.88C237.82 160.89 237.81 160.9 237.8 160.91C236.96 161.76 235.61 161.79 234.7 161.01C225.56 153.12 222.23 144.33 221.01 139.1C220.36 139.23 219.98 139.33 219.98 139.33C219.98 139.33 220.25 154.73 235.93 167.19C235.93 167.19 236.58 166.7 237.5 165.78C239.09 164.19 241.46 161.3 242.61 157.4C242.15 157.08 241.7 156.75 241.26 156.42C240.14 158.37 238.83 159.88 237.83 160.88Z" fill="#000566"/>
</g>
<g opacity="0.3">
<path d="M11.4901 135.2C10.7101 135.19 9.85007 135.3 8.94007 135.62C9.14007 139.74 8.90007 149.23 3.07007 153.47C3.43007 154.21 3.85007 154.83 4.28007 155.33C4.40007 155.47 4.52007 155.6 4.64007 155.73C13.5101 150.91 11.4901 135.2 11.4901 135.2Z" fill="#000566"/>
</g>
<g opacity="0.3">
<path d="M169.09 125.26C169 125.61 168.88 125.98 168.74 126.35C162.92 141.7 150.31 137.47 146.41 135.71C145.64 135.36 144.77 135.3 143.96 135.52C136.26 137.67 132.17 134.35 130.61 132.59C130.06 131.96 129.31 131.55 128.49 131.4C125.18 130.81 120.46 129.36 117.4 128.36C125.78 127.97 131.7 127.5 131.7 127.5C132.84 129.27 135.64 132.35 141.03 131.44C142.64 131.17 143.67 130.51 144.32 129.65C145.41 129.75 146.36 129.7 147.17 129.54C147.17 129.54 147.85 135.12 154.67 135.12C161.49 135.12 167.05 132.14 168.3 125.33C168.3 125.34 168.59 125.31 169.09 125.26Z" fill="black"/>
</g>
<g opacity="0.3">
<path d="M112.14 140.98C112.14 142.01 111.33 142.86 110.3 142.9L97.7901 143.42C96.2201 143.42 94.9501 142.14 94.9501 140.58C94.9501 139.79 95.2701 139.08 95.7801 138.57C96.2901 138.06 97.0101 137.73 97.7901 137.73L110.42 139.07C111.4 139.18 112.14 140 112.14 140.98Z" fill="#000566"/>
</g>
<g opacity="0.3">
<path d="M7.17001 157.47C7.17001 157.47 5.92001 157.06 4.64001 155.73C13.51 150.91 11.49 135.2 11.49 135.2C13.38 135.22 14.73 135.92 14.73 135.92C14.73 135.92 17.04 153.31 7.17001 157.47Z" fill="#000566"/>
</g>
<g opacity="0.7">
<path d="M160 58.92C160 58.92 154.59 61.3 151.98 55.35C149.37 49.4 149.86 42.12 141.86 29.53C146.54 31.65 149.63 38.31 151.69 44.36C153.23 48.87 154.21 53.04 154.86 54.74C154.96 55.01 155.06 55.22 155.15 55.35C156.57 57.52 160 58.92 160 58.92Z" fill="white"/>
</g>
<g opacity="0.7">
<path d="M158.66 121.35C156.42 113.76 149.22 113 149.22 113C130.95 110.54 126.29 101.14 126.29 101.14C133.6 107.75 149.22 110.37 149.22 110.37C156.27 112.02 156.86 113.69 156.86 113.69C156.86 113.69 157.22 114.49 157.61 115.69C158.12 117.22 158.68 119.37 158.66 121.35Z" fill="white"/>
</g>
<g opacity="0.7">
<path d="M145.65 108.09C145.8 108.66 145.93 109.23 146.05 109.81C147.15 110.05 148.21 110.24 149.22 110.39C149.06 109.33 148.84 108.27 148.56 107.23C146.27 98.4 140.61 90.5 140.61 90.5C139.73 90.96 138.86 91.39 137.99 91.79C139.18 93.52 143.68 100.45 145.65 108.09Z" fill="white"/>
</g>
<g opacity="0.7">
<path d="M28.5601 150.33C27.4301 150.94 26.3601 151.57 25.3601 152.22C25.4601 152.17 25.5601 152.11 25.6601 152.06C48.5801 139.84 82.6601 158.15 74.2801 184.26C74.1001 184.82 73.8301 185.33 73.4701 185.78C74.6301 185.6 75.6501 184.96 76.3701 184.06C76.7301 183.61 77.0101 183.09 77.1901 182.53C85.5701 156.42 51.4801 138.11 28.5601 150.33Z" fill="white"/>
</g>
<g opacity="0.7">
<path d="M227.45 179.14C225.73 165.09 218.74 145.01 192.86 145.01C178.03 145.01 169.35 149.51 164.3 155.24C169.56 150.6 177.8 147.2 190.67 147.2C216.55 147.2 223.54 167.29 225.26 181.33C225.32 181.81 225.31 182.27 225.25 182.73C225.16 183.31 224.98 183.87 224.71 184.38C226.18 183.62 227.2 182.18 227.44 180.54C227.51 180.08 227.51 179.61 227.45 179.14Z" fill="white"/>
</g>
<g opacity="0.7">
<path d="M65.24 107.39C71.07 113.95 75.75 128.27 76.04 129.17C78.15 128.74 79.5 128.27 79.5 128.27C79.5 128.27 74.71 113.22 68.69 106.44C66.57 104.05 64.29 102.69 62.03 103.39C61.39 103.59 60.8 103.85 60.25 104.18C61.95 104.37 63.64 105.58 65.24 107.39Z" fill="white"/>
</g>
<g opacity="0.7">
<path d="M166.96 97.75C166.64 97.51 166.31 97.33 165.96 97.21C164.95 96.86 163.87 97.02 163 97.55C163.1 97.61 163.2 97.68 163.3 97.76C168.45 101.72 175.79 109.44 179.47 122.88C175.76 123.98 170.91 124.67 167.78 125.03C168.12 125.22 168.3 125.35 168.3 125.35C168.3 125.35 177.2 124.64 183.13 122.88C179.45 109.42 172.11 101.71 166.96 97.75Z" fill="white"/>
</g>
<g opacity="0.7">
<path d="M223.82 138.66L223.79 138.42C209.45 124.79 183.14 122.87 183.14 122.87C177.2 124.63 168.31 125.34 168.31 125.34C173.04 127.93 183.57 126.75 183.57 126.75C185.14 126.84 186.68 126.99 188.19 127.2C189.02 127.31 189.77 127.74 190.31 128.38C191.63 129.94 195.44 131.87 200.16 133.22C204.31 134.41 208.1 134.84 210.27 134.51C210.94 134.41 211.63 134.53 212.24 134.83C217.12 137.29 220 139.34 220 139.34C220 139.34 221.53 138.92 223.82 138.66Z" fill="white"/>
</g>
<g opacity="0.7">
<path d="M242.12 146.65C239.75 140.27 233.62 138.61 228.41 138.45C228.41 138.45 228.58 139.09 229 140.17C233.42 140.83 237.89 142.88 239.83 148.11C240.91 151.03 241.15 153.71 240.87 156.1C241.43 156.54 242 156.97 242.61 157.38C243.5 154.37 243.64 150.75 242.12 146.65Z" fill="white"/>
</g>
<g opacity="0.7">
<path d="M56.3701 125.24C34.2001 125.35 19.9401 134.07 14.8901 137.76C14.8201 136.62 14.7301 135.92 14.7301 135.92C26.8401 121.23 53.6401 121.31 53.6401 121.31C54.4001 122.87 55.3301 124.17 56.3701 125.24Z" fill="white"/>
</g>
<g opacity="0.3">
<path d="M126.69 150.75C126.69 150.75 143.78 153.67 152.71 149.05C161.63 144.42 147.93 167.1 127.24 156.57C110.05 147.82 126.69 150.75 126.69 150.75Z" fill="white"/>
</g>
<g opacity="0.3">
<path d="M109.06 157.85C111.74 157.4 116.23 157.08 121.47 158.44C122.73 158.77 122.79 160.54 121.55 160.93C120.24 161.34 118.35 161.77 115.65 162.14C111.97 162.64 109.72 161.92 108.37 160.99C107.08 160.11 107.53 158.11 109.06 157.85Z" fill="white"/>
</g>
<path d="M127.2 86.2C126.81 87.37 126.31 88.6 125.72 89.82C124.09 93.13 119.86 94.11 116.95 91.86C115.87 91.03 114.89 90.15 114.02 89.27C114.02 89.27 116.12 86.76 120.17 85.82C124.21 84.88 127.2 86.2 127.2 86.2Z" fill="#FF4D96"/>
<path d="M4.64005 156.64C4.32005 156.64 4.00005 156.47 3.84005 156.16C3.60005 155.72 3.76005 155.16 4.21005 154.92C12.4301 150.46 10.6101 135.46 10.5901 135.31C10.5301 134.81 10.8801 134.35 11.3801 134.29C11.8801 134.23 12.3401 134.58 12.4001 135.08C12.4901 135.75 14.3901 151.47 5.07006 156.53C4.94006 156.61 4.79005 156.64 4.64005 156.64Z" fill="#232323"/>
<path d="M123.11 98.46C120.93 98.94 118.82 99.28 116.66 99.57C114.51 99.85 112.35 100.06 110.18 100.19C108.01 100.32 105.84 100.36 103.66 100.31C101.48 100.25 99.3 100.09 97.13 99.82C94.96 99.56 92.79 99.11 90.66 98.54C90.13 98.38 89.59 98.26 89.07 98.07L87.5 97.54C86.47 97.13 85.43 96.73 84.43 96.22L83.68 95.85L82.95 95.43L82.22 95.01L81.86 94.8L81.51 94.56L80.12 93.61L78.8 92.55C77.09 91.07 75.59 89.35 74.34 87.46C74.07 87.05 74.07 86.54 74.3 86.14V86.13C74.5 85.8 74.67 85.59 74.87 85.35C75.07 85.12 75.28 84.9 75.5 84.69C75.94 84.27 76.44 83.91 76.96 83.6C77.48 83.28 78.06 83.05 78.64 82.9C79.23 82.74 79.85 82.72 80.43 82.78C80.59 82.8 80.71 82.94 80.69 83.1C80.68 83.2 80.62 83.28 80.54 83.32L80.51 83.34C80.03 83.61 79.6 83.86 79.21 84.17C78.82 84.47 78.46 84.79 78.13 85.15C77.8 85.5 77.5 85.88 77.23 86.26C77.09 86.46 76.96 86.65 76.83 86.85C76.7 87.03 76.57 87.27 76.49 87.41L76.46 86.09C77.57 87.77 78.9 89.3 80.43 90.62L81.61 91.57L82.87 92.43L83.18 92.64L83.51 92.83L84.17 93.21L84.83 93.59L85.52 93.92C86.43 94.39 87.39 94.76 88.34 95.14L89.81 95.64C90.3 95.81 90.8 95.93 91.3 96.08C93.3 96.62 95.34 97.04 97.42 97.29C99.49 97.55 101.59 97.7 103.69 97.76C105.79 97.81 107.9 97.76 110 97.64C112.1 97.52 114.21 97.32 116.3 97.04C118.38 96.76 120.5 96.42 122.5 95.98L122.53 95.97C123.22 95.82 123.9 96.25 124.06 96.94C124.23 97.63 123.8 98.31 123.11 98.46Z" fill="#232323"/>
<path d="M75.9399 86.08C75.7899 85.96 72.3499 83.16 71.4399 79.53C71.3399 79.12 71.4399 78.69 71.7199 78.37C72.3199 77.68 73.9299 75.51 74.1299 73.75C74.1799 73.31 73.8299 71.41 73.5199 69.73C72.2599 62.88 70.1999 51.72 73.9399 45.37C72.5199 44.34 70.6699 42.05 70.7999 37.14L73.3599 37.21C73.2099 42.82 76.0799 43.66 76.1099 43.67C76.5399 43.77 76.8799 44.09 77.0299 44.51C77.1699 44.93 77.0899 45.39 76.8099 45.73C72.6399 50.84 74.8499 62.83 76.0399 69.28C76.5299 71.95 76.7699 73.27 76.6799 74.05C76.4299 76.26 74.8999 78.49 74.1099 79.51C75.0299 82.03 77.5299 84.08 77.5499 84.1L75.9399 86.08Z" fill="#232323"/>
<path d="M73.63 63.8C73.29 63.8 72.96 63.6699 72.71 63.41C72.12 62.79 58.22 47.97 60.86 20.3C60.91 19.81 61.23 19.3899 61.7 19.2199C62.21 19.0299 74.48 14.76 93.92 23.19C94.57 23.47 94.87 24.22 94.59 24.87C94.31 25.52 93.55 25.82 92.91 25.54C77.07 18.67 66.22 20.66 63.34 21.4C61.19 47.3 74.43 61.49 74.57 61.63C75.06 62.14 75.04 62.95 74.53 63.44C74.27 63.68 73.95 63.8 73.63 63.8Z" fill="#232323"/>
<path d="M62.78 19.31C64.62 20.43 66.26 21.63 67.89 22.92C69.51 24.2 71.07 25.56 72.55 27.01C73.31 27.72 74.01 28.48 74.73 29.22C75.42 29.99 76.13 30.74 76.78 31.55C78.13 33.12 79.33 34.82 80.5 36.54L78.36 36.5301C78.59 36.2301 78.84 35.95 79.1 35.67C79.36 35.39 79.63 35.13 79.91 34.87C80.2 34.62 80.47 34.35 80.78 34.11C81.08 33.86 81.39 33.62 81.72 33.41C81.88 33.31 82.09 33.35 82.19 33.51C82.25 33.6 82.26 33.71 82.23 33.8V33.81C82.11 34.18 81.98 34.53 81.85 34.89C81.72 35.25 81.57 35.59 81.44 35.94C81.3 36.29 81.15 36.63 80.99 36.97C80.83 37.3 80.67 37.64 80.49 37.95C80.15 38.54 79.4 38.7401 78.81 38.4001C78.65 38.3101 78.52 38.18 78.42 38.04L78.35 37.94C77.24 36.31 76.1 34.7 74.81 33.2C74.19 32.43 73.51 31.71 72.85 30.97C72.16 30.26 71.49 29.53 70.76 28.85C69.34 27.47 67.85 26.16 66.29 24.93C64.75 23.71 63.1 22.5201 61.48 21.5301L61.44 21.5C60.84 21.13 60.65 20.34 61.01 19.74C61.38 19.14 62.17 18.95 62.78 19.31Z" fill="#232323"/>
<path d="M74.4 38.61C73.44 38.58 72.55 38.29 71.71 37.85C70.88 37.41 70.12 36.81 69.46 36.11C68.8 35.41 68.21 34.61 67.8 33.73C67.35 32.86 67.1 31.91 66.92 30.97C66.78 30.3 67.21 29.65 67.88 29.51L67.95 29.5H67.98C68.37 29.45 68.66 29.42 69 29.4C69.32 29.38 69.65 29.37 69.97 29.37C70.62 29.37 71.26 29.41 71.9 29.49C72.54 29.56 73.19 29.68 73.82 29.85C74.46 30 75.08 30.23 75.7 30.48C76.36 30.74 76.67 31.49 76.41 32.14C76.15 32.79 75.41 33.11 74.75 32.85L74.69 32.83C74.2 32.64 73.7 32.45 73.18 32.33C72.66 32.2 72.13 32.1 71.59 32.03C71.05 31.96 70.5 31.93 69.96 31.93C69.69 31.93 69.41 31.94 69.14 31.95C68.88 31.96 68.58 31.99 68.38 32.02L69.44 30.55C69.54 30.92 69.58 31.3 69.69 31.67C69.81 32.03 69.88 32.41 70.04 32.75C70.29 33.47 70.65 34.14 71.08 34.78C71.5 35.43 72.03 36.01 72.62 36.56C73.2 37.12 73.84 37.65 74.52 38.18L74.54 38.2C74.64 38.28 74.66 38.43 74.58 38.53C74.54 38.58 74.47 38.61 74.4 38.61Z" fill="#232323"/>
<path d="M87.1699 27.9C88.2099 26.53 89.5099 25.49 90.8899 24.57C91.2399 24.34 91.5899 24.12 91.9499 23.92C92.3099 23.71 92.6599 23.5 93.0299 23.31C93.7499 22.91 94.49 22.54 95.24 22.19C96.74 21.5 98.2699 20.86 99.8399 20.36C101.41 19.83 103.01 19.43 104.63 19.11C105.32 18.98 106 19.43 106.13 20.12C106.26 20.77 105.87 21.39 105.26 21.59L105.21 21.61C104.46 21.85 103.7 22.05 102.95 22.28C102.2 22.52 101.44 22.73 100.7 22.99C99.1999 23.46 97.7399 24.02 96.2699 24.59C94.8099 25.17 93.37 25.81 91.96 26.49C90.53 27.15 89.08 27.81 87.57 28.4L87.5499 28.41C87.3799 28.48 87.1899 28.39 87.1299 28.23C87.0799 28.1 87.0999 27.98 87.1699 27.9Z" fill="#232323"/>
<path d="M122.53 95.9699C124.52 95.4799 126.57 94.86 128.56 94.19C130.56 93.51 132.53 92.77 134.47 91.95C136.41 91.13 138.32 90.24 140.18 89.27C142.04 88.29 143.85 87.23 145.59 86.08C147.34 84.94 148.99 83.66 150.54 82.29C150.92 81.94 151.32 81.61 151.68 81.24L152.78 80.15C153.47 79.38 154.17 78.63 154.77 77.81L155.24 77.21L155.67 76.58L156.1 75.95L156.31 75.63L156.5 75.3L157.25 73.98L157.89 72.6C158.68 70.74 159.2 68.78 159.45 66.78L160 67.98C159.87 67.89 159.65 67.74 159.45 67.63C159.25 67.51 159.04 67.39 158.83 67.28C158.41 67.05 157.98 66.85 157.53 66.68C157.08 66.51 156.62 66.38 156.13 66.28C155.64 66.17 155.14 66.14 154.6 66.11H154.57C154.41 66.1 154.29 65.96 154.3 65.8C154.31 65.7 154.36 65.62 154.44 65.57C154.94 65.26 155.5 65 156.1 64.89C156.69 64.77 157.32 64.72 157.92 64.78C158.53 64.82 159.13 64.94 159.71 65.11C160 65.2 160.29 65.3 160.57 65.42C160.86 65.55 161.11 65.66 161.43 65.87C161.84 66.14 162.03 66.61 161.98 67.07C161.7 69.32 161.11 71.53 160.23 73.61L159.52 75.15L158.69 76.62L158.48 76.99L158.25 77.34L157.78 78.04L157.31 78.74L156.8 79.4C156.13 80.3 155.38 81.12 154.63 81.94L153.45 83.11C153.06 83.51 152.63 83.86 152.23 84.23C150.57 85.69 148.83 87.04 146.99 88.23C145.16 89.44 143.28 90.54 141.35 91.56C139.42 92.57 137.44 93.49 135.44 94.33C133.44 95.17 131.41 95.94 129.35 96.64C127.28 97.34 125.24 97.97 123.07 98.49C122.38 98.66 121.69 98.24 121.52 97.55C121.35 96.86 121.77 96.17 122.46 96L122.53 95.9699Z" fill="#232323"/>
<path d="M159.94 66.52L157.62 65.44C157.63 65.41 158.97 62.47 158.68 59.8C157.52 59.23 155.16 57.91 153.96 56.04C153.54 55.38 153.16 54.09 152.43 51.48C150.65 45.17 147.34 33.43 141.34 30.7C140.94 30.52 140.66 30.14 140.6 29.7C140.54 29.26 140.71 28.83 141.05 28.55C141.12 28.48 143.26 26.47 140.67 21.54L142.93 20.35C145.22 24.7 144.57 27.57 143.75 29.12C149.92 33.16 153 44.09 154.89 50.79C155.35 52.43 155.88 54.29 156.12 54.67C157.08 56.17 159.48 57.4 160.32 57.75C160.71 57.91 161 58.25 161.08 58.67C161.87 62.31 160.02 66.35 159.94 66.52Z" fill="#232323"/>
<path d="M151.61 45.64C151.48 45.64 151.35 45.62 151.22 45.58C150.55 45.37 150.17 44.65 150.39 43.97C150.47 43.71 156.03 25.16 142.69 2.91997C139.78 3.53997 129.12 6.57999 117.99 19.69C117.53 20.23 116.72 20.29 116.19 19.84C115.65 19.38 115.59 18.57 116.04 18.04C129.76 1.88997 142.65 0.299976 143.19 0.239976C143.67 0.189976 144.16 0.420013 144.42 0.840013C159.01 24.5 153.09 43.93 152.83 44.75C152.66 45.29 152.16 45.64 151.61 45.64Z" fill="#232323"/>
<path d="M144.4 2.21998C143.38 3.81998 142.43 5.61002 141.59 7.39002C140.74 9.18002 139.97 11.01 139.31 12.88C138.96 13.81 138.68 14.76 138.37 15.7C138.11 16.65 137.81 17.6 137.6 18.57C137.11 20.49 136.79 22.44 136.52 24.39L136.5 24.5C136.4 25.17 135.78 25.63 135.11 25.54C134.93 25.51 134.75 25.44 134.61 25.34C134.31 25.14 134.02 24.91 133.73 24.68C133.44 24.45 133.16 24.21 132.88 23.96C132.6 23.7 132.32 23.46 132.04 23.2C131.76 22.94 131.49 22.68 131.22 22.4C131.09 22.26 131.09 22.05 131.23 21.92C131.31 21.84 131.41 21.81 131.51 21.83C131.91 21.88 132.29 21.96 132.67 22.05C133.05 22.13 133.41 22.25 133.79 22.35C134.16 22.46 134.52 22.58 134.87 22.71C135.22 22.84 135.57 22.98 135.91 23.15L133.99 24.1C134.28 22.04 134.61 19.99 135.13 17.98C135.35 16.97 135.66 15.98 135.94 14.98C136.26 14 136.55 13 136.92 12.04C137.61 10.09 138.41 8.18 139.29 6.31C140.18 4.43 141.13 2.64001 142.28 0.820014C142.66 0.220014 143.45 0.0499989 144.05 0.429999C144.65 0.809999 144.82 1.60002 144.44 2.20002L144.4 2.21998Z" fill="#232323"/>
<path d="M140.05 22.91C140.43 22.14 140.77 21.37 141.04 20.62C141.32 19.87 141.54 19.11 141.63 18.34C141.73 17.58 141.76 16.81 141.67 16.06C141.66 15.68 141.56 15.31 141.51 14.94C141.44 14.57 141.31 14.2 141.24 13.83L142.85 14.68C142.65 14.74 142.37 14.85 142.13 14.95C141.88 15.06 141.63 15.17 141.39 15.29C140.9 15.53 140.42 15.81 139.97 16.1C139.51 16.39 139.08 16.72 138.67 17.07C138.25 17.41 137.89 17.8 137.54 18.19L137.5 18.24C137.02 18.76 136.22 18.8 135.69 18.33C135.17 17.86 135.13 17.05 135.6 16.53C136.04 16.04 136.5 15.55 137.01 15.14C137.51 14.71 138.03 14.32 138.58 13.97C139.12 13.62 139.68 13.29 140.26 13.01C140.55 12.87 140.84 12.73 141.14 12.6C141.45 12.47 141.72 12.36 142.09 12.24L142.11 12.23C142.76 12.02 143.46 12.37 143.67 13.02C143.68 13.04 143.69 13.07 143.69 13.09C143.94 14.02 144.13 14.98 144.12 15.96C144.14 16.93 143.97 17.91 143.68 18.83C143.39 19.75 142.98 20.62 142.43 21.38C141.88 22.14 141.2 22.8 140.36 23.25C140.25 23.31 140.1 23.27 140.04 23.15C140 23.08 140 23 140.04 22.94L140.05 22.91Z" fill="#232323"/>
<path d="M124.03 19.9C122.41 20.04 120.82 20.09 119.25 20.13C117.68 20.14 116.11 20.21 114.54 20.33C112.98 20.47 111.41 20.62 109.86 20.85C109.08 20.94 108.31 21.1 107.53 21.21C106.76 21.34 105.98 21.49 105.2 21.61L105.15 21.62C104.45 21.73 103.8 21.25 103.69 20.55C103.59 19.9 104 19.29 104.62 19.12C106.21 18.69 107.83 18.34 109.47 18.12C111.1 17.87 112.76 17.77 114.41 17.73C115.24 17.72 116.06 17.72 116.89 17.76C117.3 17.77 117.72 17.8 118.13 17.83C118.54 17.85 118.95 17.89 119.36 17.94C121 18.15 122.63 18.51 124.17 19.29C124.33 19.37 124.4 19.57 124.31 19.73C124.26 19.83 124.16 19.9 124.05 19.91L124.03 19.9Z" fill="#232323"/>
<path d="M86.5099 65.48C86.3099 64.98 86.19 64.49 86.13 63.97C86.06 63.46 86.0699 62.94 86.1099 62.41C86.2099 61.36 86.5599 60.29 87.1399 59.31C87.7099 58.34 88.5399 57.46 89.4999 56.84C90.4499 56.17 91.5099 55.79 92.5599 55.51C93.0999 55.39 93.6399 55.32 94.1899 55.25H95.0399H95.46C95.6 55.26 95.7499 55.28 95.8899 55.3L96.74 55.44C97.02 55.52 97.2999 55.61 97.5799 55.7C97.8599 55.78 98.12 55.92 98.38 56.05C98.64 56.18 98.89 56.31 99.13 56.49C100.09 57.13 100.85 57.98 101.35 58.91C101.46 59.15 101.58 59.38 101.68 59.62C101.76 59.87 101.87 60.1 101.92 60.36C102.06 60.85 102.13 61.36 102.12 61.88C102.12 62 102.02 62.1 101.9 62.1C101.84 62.1 101.79 62.08 101.75 62.04L101.73 62.02C100.36 60.71 98.97 59.76 97.63 59.42C97.47 59.36 97.3 59.34 97.13 59.31C96.96 59.28 96.81 59.23 96.63 59.23C96.46 59.22 96.2999 59.21 96.1399 59.18L95.63 59.2H95.38L95.1199 59.23L94.6 59.29C94.25 59.36 93.8899 59.43 93.5399 59.51C92.8399 59.71 92.1499 59.91 91.5599 60.23C91.2399 60.36 90.9799 60.57 90.6799 60.73C90.5399 60.82 90.4199 60.94 90.2799 61.04C90.1299 61.13 90.01 61.26 89.88 61.38C88.83 62.31 87.9699 63.74 87.2599 65.43L87.24 65.48C87.16 65.68 86.9199 65.78 86.7199 65.69C86.6299 65.66 86.5499 65.58 86.5099 65.48Z" fill="#0C0C0C"/>
<path d="M140.09 53.81C138.71 52.61 137.31 51.7 135.95 51.33C135.78 51.28 135.62 51.22 135.45 51.2C135.28 51.18 135.12 51.12 134.95 51.1C134.61 51.09 134.28 51.01 133.94 51.04C133.27 51.01 132.56 51.14 131.85 51.27C131.5 51.35 131.15 51.45 130.8 51.54L130.31 51.72L130.06 51.8L129.84 51.91L129.38 52.12C129.25 52.21 129.1 52.3 128.96 52.38C128.8 52.45 128.69 52.57 128.55 52.67C128.41 52.77 128.26 52.86 128.15 52.99C127.09 53.89 126.26 55.35 125.61 57.13L125.6 57.15C125.56 57.26 125.43 57.32 125.32 57.28C125.27 57.26 125.22 57.22 125.2 57.17C124.96 56.7 124.8 56.22 124.71 55.71C124.65 55.46 124.64 55.2 124.6 54.94C124.58 54.68 124.59 54.42 124.58 54.15C124.62 53.09 124.92 51.99 125.5 51C125.63 50.74 125.8 50.51 125.98 50.28C126.16 50.05 126.33 49.81 126.54 49.62C126.74 49.41 126.95 49.21 127.17 49.02L127.87 48.52C127.99 48.44 128.11 48.35 128.23 48.28L128.61 48.09L129.37 47.72C129.89 47.54 130.41 47.36 130.94 47.23C132.01 47.02 133.13 46.89 134.27 47.07C135.4 47.2 136.53 47.62 137.48 48.24C138.43 48.86 139.22 49.67 139.77 50.57C140.04 51.03 140.28 51.49 140.44 51.98C140.62 52.47 140.72 52.96 140.77 53.5C140.79 53.72 140.63 53.91 140.41 53.93C140.3 53.94 140.2 53.9 140.12 53.84L140.09 53.81Z" fill="#0C0C0C"/>
<path d="M116.08 68.29C116.08 68.29 113.16 68.9701 111.31 70.1501C110.62 70.5901 110.4 71.51 110.85 72.2C111.81 73.68 113.94 75.99 117.68 75.12C121.41 74.25 122.31 71.24 122.51 69.48C122.6 68.66 122 67.94 121.19 67.85C119 67.61 116.08 68.29 116.08 68.29Z" fill="#232323"/>
<path d="M108.1 82.75L116.71 80.27L118.34 77.21L125.37 78.92L128.86 78.74L128.12 82.12L126.9 85.41L124.17 85.52L118.48 85.84L115.23 88.15L114.01 88.29L111.43 85.48L108.1 82.75Z" fill="#232323"/>
<path d="M118.65 73.7L118.99 75.14L119.07 75.5C119.1 75.61 119.11 75.66 119.13 75.74C119.18 75.88 119.24 76.02 119.32 76.15C119.48 76.41 119.69 76.62 119.94 76.78C120 76.82 120.07 76.85 120.13 76.89L120.24 76.94L120.39 77C120.6 77.08 120.81 77.15 121.02 77.22C122.71 77.78 124.51 77.86 126.19 77.47C127.03 77.27 127.86 76.98 128.63 76.56L129.21 76.26L129.73 75.9C129.92 75.79 130.06 75.65 130.21 75.51L130.45 75.31C130.53 75.24 130.58 75.16 130.65 75.09C131.2 74.5 131.55 73.81 131.81 73.02C132.07 72.23 132.16 71.31 132.16 70.29V70.27C132.16 70.19 132.23 70.13 132.3 70.13C132.34 70.13 132.37 70.15 132.4 70.17C132.8 70.56 133.08 71.04 133.27 71.56C133.38 71.82 133.44 72.09 133.51 72.37C133.54 72.65 133.6 72.94 133.58 73.23C133.6 74.4 133.12 75.59 132.41 76.52C132.32 76.64 132.24 76.76 132.14 76.87L131.84 77.18C131.64 77.39 131.44 77.61 131.21 77.77L130.54 78.29L129.83 78.73C128.88 79.29 127.85 79.71 126.76 79.96C124.59 80.48 122.3 80.29 120.23 79.63C119.97 79.55 119.71 79.46 119.46 79.36L119.27 79.29L119.04 79.19C118.88 79.12 118.73 79.03 118.58 78.94C117.99 78.58 117.49 78.07 117.13 77.49C116.95 77.2 116.8 76.88 116.69 76.56C116.63 76.41 116.59 76.21 116.55 76.08L116.46 75.72L116.13 74.27C115.97 73.58 116.4 72.89 117.09 72.74C117.81 72.6 118.49 73.02 118.65 73.7Z" fill="#232323"/>
<path d="M120.49 94.35C118.94 94.35 117.42 93.84 116.16 92.87C110.75 88.7 107.76 83.37 107.64 83.14C107.3 82.52 107.52 81.74 108.14 81.4C108.76 81.06 109.54 81.28 109.88 81.9C109.91 81.95 112.75 87.01 117.72 90.84C118.81 91.68 120.19 91.98 121.52 91.67C122.85 91.36 123.96 90.48 124.56 89.25C127.33 83.61 127.65 77.82 127.65 77.76C127.69 77.05 128.29 76.5 128.99 76.54C129.7 76.57 130.24 77.17 130.21 77.88C130.2 78.14 129.87 84.24 126.86 90.37C125.91 92.29 124.18 93.6699 122.1 94.1599C121.57 94.2899 121.03 94.35 120.49 94.35Z" fill="#232323"/>
<path d="M114.01 90.18C113.8 90.18 113.6 90.11 113.42 89.97C113.03 89.65 112.98 89.07 113.31 88.68C113.4 88.57 115.65 85.93 119.95 84.92C120.44 84.81 120.93 85.11 121.05 85.6C121.16 86.09 120.86 86.58 120.37 86.7C116.66 87.56 114.73 89.82 114.71 89.85C114.53 90.07 114.27 90.18 114.01 90.18Z" fill="#232323"/>
<path d="M127.2 87.11C127.08 87.11 126.95 87.0901 126.83 87.0301C126.79 87.0101 124.03 85.85 120.36 86.7C119.87 86.82 119.38 86.51 119.26 86.02C119.15 85.53 119.45 85.04 119.94 84.92C124.24 83.92 127.43 85.3 127.56 85.35C128.02 85.55 128.23 86.09 128.03 86.56C127.89 86.91 127.55 87.11 127.2 87.11Z" fill="#232323"/>
<path d="M118.65 73.7L118.99 75.14L119.07 75.5C119.1 75.63 119.14 75.83 119.16 75.99C119.2 76.33 119.21 76.68 119.18 77.02C119.11 77.71 118.89 78.38 118.52 78.97C118.43 79.12 118.33 79.26 118.22 79.39L118.06 79.58L117.92 79.73C117.74 79.93 117.54 80.12 117.35 80.31C115.78 81.81 113.82 82.99 111.64 83.49C110.56 83.74 109.44 83.82 108.34 83.74L107.51 83.66L106.68 83.49C106.4 83.44 106.13 83.34 105.86 83.24L105.45 83.09C105.32 83.04 105.19 82.96 105.05 82.89C104 82.38 103.04 81.52 102.54 80.46C102.39 80.21 102.32 79.92 102.23 79.65C102.17 79.37 102.1 79.1 102.08 78.82C102.03 78.26 102.06 77.71 102.25 77.18C102.28 77.1 102.36 77.07 102.43 77.09C102.47 77.1 102.5 77.13 102.51 77.16L102.52 77.18C102.98 78.09 103.46 78.88 104.04 79.48C104.62 80.07 105.24 80.53 105.99 80.82C106.08 80.85 106.17 80.9 106.27 80.93L106.57 81C106.77 81.05 106.96 81.11 107.17 81.13L107.8 81.22L108.45 81.24C109.32 81.28 110.2 81.17 111.04 80.98C112.72 80.59 114.3 79.72 115.57 78.47C115.73 78.32 115.89 78.16 116.03 77.99L116.14 77.87L116.22 77.78C116.27 77.72 116.31 77.66 116.35 77.6C116.5 77.35 116.6 77.06 116.63 76.76C116.64 76.61 116.64 76.46 116.62 76.31C116.61 76.23 116.6 76.18 116.57 76.07L116.48 75.71L116.15 74.26C115.99 73.57 116.42 72.88 117.11 72.73C117.81 72.6 118.49 73.02 118.65 73.7Z" fill="#232323"/>
<path d="M86.95 129.27C84.22 115.43 88.81 97.54 89.01 96.79L91.49 97.44C91.44 97.62 86.85 115.52 89.46 128.78L86.95 129.27Z" fill="#232323"/>
<path d="M126.42 101.02C128.89 102.37 131.27 103.67 133.72 104.87C136.16 106.07 138.75 106.96 141.38 107.59C142.04 107.74 142.7 107.91 143.37 108.01C144.04 108.13 144.69 108.25 145.4 108.36C146.1 108.48 146.8 108.58 147.5 108.72C148.2 108.85 148.9 108.99 149.6 109.15C151 109.46 152.39 109.83 153.79 110.33C154.14 110.45 154.49 110.6 154.84 110.73C155.19 110.89 155.54 111.03 155.89 111.23C156.24 111.41 156.59 111.61 156.95 111.87C157.13 111.99 157.31 112.15 157.5 112.31C157.6 112.4 157.69 112.5 157.79 112.62L157.95 112.83C157.98 112.86 158.01 112.93 158.04 112.98L158.09 113.06C158.11 113.1 158.15 113.19 158.17 113.25L158.13 113.14C158.47 113.9 158.72 114.61 158.97 115.36C159.21 116.1 159.43 116.86 159.61 117.63C159.95 119.18 160.2 120.79 159.97 122.55C159.85 123.42 159.59 124.34 159.05 125.19C158.52 126.04 157.67 126.74 156.77 127.11C156.66 127.16 156.55 127.21 156.43 127.25L156.09 127.35C155.86 127.41 155.63 127.49 155.41 127.51L154.74 127.61L154.09 127.63C153.87 127.64 153.66 127.64 153.45 127.62L152.82 127.58C152.41 127.53 152.01 127.46 151.61 127.4C150.91 127.3 150.43 126.65 150.53 125.95C150.63 125.27 151.25 124.79 151.93 124.86L152.05 124.87C152.39 124.91 152.72 124.96 153.05 124.98C153.37 124.98 153.71 125.03 154.02 124.99C154.66 124.98 155.23 124.85 155.7 124.65C156.17 124.44 156.52 124.15 156.77 123.73C157.03 123.32 157.19 122.77 157.27 122.17C157.42 120.96 157.23 119.57 156.93 118.22C156.63 116.87 156.16 115.47 155.64 114.22L155.6 114.11C155.61 114.15 155.64 114.22 155.66 114.24L155.67 114.26L155.69 114.3L155.62 114.23C155.54 114.16 155.47 114.09 155.35 114.01C155.14 113.86 154.89 113.7 154.62 113.56C154.36 113.41 154.06 113.29 153.78 113.15C153.48 113.03 153.19 112.9 152.88 112.79C151.65 112.32 150.34 111.96 149.02 111.63C148.36 111.46 147.69 111.31 147.02 111.17C146.35 111.02 145.67 110.9 145 110.77C144.34 110.65 143.61 110.5 142.91 110.35C142.2 110.22 141.51 110.02 140.81 109.84C138.04 109.07 135.34 108.02 132.81 106.66C131.53 106.01 130.32 105.22 129.19 104.33C128.62 103.89 128.09 103.4 127.58 102.9C127.07 102.39 126.59 101.85 126.18 101.24C126.12 101.15 126.15 101.04 126.23 100.98C126.28 100.98 126.35 100.98 126.42 101.02Z" fill="#232323"/>
<path d="M151.6 117.59C152.38 118.91 152.82 120.36 153.04 121.89C153.25 123.42 153.18 125.04 152.59 126.67C152.31 127.48 151.83 128.27 151.22 128.96C150.61 129.65 149.81 130.19 148.98 130.53C147.3 131.2 145.57 131.21 144.04 130.93C143.34 130.8 142.88 130.13 143.01 129.44C143.12 128.82 143.66 128.39 144.26 128.39H144.3C145.61 128.38 146.85 128.26 147.84 127.83C148.83 127.42 149.53 126.69 150.03 125.64C150.53 124.6 150.75 123.3 150.9 121.96C151.06 120.61 151.09 119.2 151.16 117.74V117.73C151.17 117.6 151.28 117.49 151.41 117.5C151.48 117.48 151.56 117.52 151.6 117.59Z" fill="#232323"/>
<path d="M144.01 120.51C144.71 121.39 145.26 122.35 145.69 123.39C146.12 124.43 146.42 125.56 146.47 126.79C146.49 127.4 146.45 128.05 146.28 128.7C146.11 129.35 145.82 130.01 145.4 130.59C144.54 131.78 143.2 132.48 141.98 132.81C141.35 132.98 140.76 133.04 140.17 133.11C140.02 133.13 139.87 133.15 139.72 133.16H139.26H138.34C137.11 133.05 135.87 132.76 134.73 132.22C133.6 131.65 132.59 130.89 131.78 129.97C131.57 129.75 131.39 129.5 131.2 129.26C131.02 129.02 130.86 128.76 130.69 128.5C130.54 128.24 130.38 127.98 130.25 127.7C130.11 127.42 130 127.17 129.87 126.8L131.23 127.6C129.71 127.84 128.3 127.91 126.83 127.91C125.37 127.9 123.91 127.8 122.46 127.6C121.01 127.4 119.56 127.1 118.15 126.67C116.73 126.25 115.35 125.7 114.02 125.01C112.69 124.33 111.42 123.52 110.27 122.54C109.12 121.58 108.05 120.49 107.17 119.28C107.06 119.13 106.94 118.98 106.83 118.83L106.53 118.36C106.33 118.04 106.13 117.73 105.95 117.4C105.62 116.73 105.28 116.07 105.06 115.36C104.54 113.98 104.29 112.51 104.24 111.06C104.23 110.89 104.37 110.75 104.54 110.74C104.66 110.74 104.77 110.8 104.82 110.9V110.91C106.18 113.41 107.45 115.73 109.14 117.73C109.96 118.75 110.92 119.63 111.95 120.42C112.99 121.2 114.1 121.9 115.28 122.45C116.46 123.01 117.7 123.48 118.97 123.86C120.24 124.24 121.55 124.5 122.87 124.71C124.19 124.91 125.53 125.04 126.88 125.1C127.55 125.12 128.23 125.15 128.9 125.14C129.56 125.13 130.27 125.12 130.87 125.07L130.99 125.06C131.55 125.01 132.06 125.36 132.24 125.87C132.32 125.99 132.45 126.21 132.57 126.39C132.7 126.58 132.83 126.76 132.97 126.94C133.26 127.29 133.56 127.63 133.88 127.93C134.53 128.53 135.25 129.04 136.03 129.39C136.81 129.74 137.66 129.92 138.53 130.01L139.2 130.02L139.54 130.03C139.65 130.03 139.77 130.01 139.88 130C140.34 129.96 140.81 129.93 141.2 129.84C141.6 129.75 141.98 129.63 142.29 129.46C142.61 129.3 142.88 129.1 143.1 128.84C143.54 128.34 143.83 127.6 143.95 126.71C144.19 124.92 143.87 122.83 143.5 120.76V120.74C143.47 120.59 143.57 120.44 143.73 120.42C143.85 120.39 143.95 120.44 144.01 120.51Z" fill="#232323"/>
<path d="M79.51 129.55C78.97 129.55 78.46 129.2 78.29 128.66C75.04 118.48 67.86 102.95 62.41 104.61C54.74 106.96 54.93 121.13 54.93 121.27C54.94 121.98 54.38 122.56 53.68 122.58C53.67 122.58 53.66 122.58 53.65 122.58C52.96 122.58 52.38 122.02 52.37 121.33C52.36 120.67 52.15 105.08 61.66 102.17C71.29 99.22 79.79 124.94 80.73 127.89C80.94 128.56 80.57 129.28 79.9 129.5C79.77 129.53 79.63 129.55 79.51 129.55Z" fill="#232323"/>
<path d="M86.12 129.27C82.64 111.94 77.75 103.86 74.33 102.08C73.71 101.76 73.17 101.67 72.81 101.82C70.47 102.84 69.9701 106.57 69.9601 106.6L67.42 106.29C67.45 106.08 68.1 101.08 71.78 99.47C72.55 99.14 73.82 98.92 75.51 99.8C77.96 101.08 84.1501 106.46 88.6301 128.76L86.12 129.27Z" fill="#232323"/>
<path d="M7.17004 158.75C7.03004 158.75 6.90004 158.73 6.77004 158.69C6.47004 158.59 -0.489953 156.17 0.830047 145.52C1.16005 142.88 2.07004 140.44 3.46004 138.47C7.01004 133.45 11.7 133.48 14.37 134.38C26.83 120.26 52.03 120.03 53.61 120.03C53.63 120.03 53.64 120.03 53.65 120.03C54.14 120.03 54.58 120.31 54.8 120.75C60.8101 133.16 78.91 127.13 79.09 127.07C79.26 127.01 79.44 126.99 79.62 127.01C99.73 128.74 131.29 126.27 131.6 126.24C132.31 126.19 132.92 126.71 132.98 127.41C133.04 128.11 132.51 128.73 131.81 128.79C131.49 128.82 99.9901 131.29 79.66 129.58C77.2701 130.32 59.73 135.22 52.8801 122.61C48.5101 122.74 26.67 124.03 16.08 136.33C16.4 139.52 17.39 154.57 7.68005 158.66C7.51005 158.71 7.34004 158.75 7.17004 158.75ZM11.46 136.48C9.76004 136.48 7.52005 137.15 5.55005 139.94C4.40005 141.57 3.65005 143.6 3.37005 145.83C2.49005 152.97 5.92005 155.42 7.16005 156.07C14.42 152.47 13.82 139.98 13.54 136.82C13.06 136.65 12.33 136.48 11.46 136.48Z" fill="#232323"/>
<path d="M10.21 186.22H5.10005C4.55005 186.22 4.06005 185.87 3.89005 185.34C-0.15995 173.18 2.90005 155.83 3.03005 155.1C3.16005 154.41 3.82005 153.94 4.52005 154.07C5.22005 154.2 5.68005 154.86 5.55005 155.56C5.52005 155.73 2.62005 172.15 6.04005 183.66H10.21C10.92 183.66 11.49 184.23 11.49 184.94C11.49 185.64 10.91 186.22 10.21 186.22Z" fill="#232323"/>
<path d="M13.6301 188.29C12.7501 188.29 11.8801 188.01 11.1301 187.47C10.1301 186.75 9.46009 185.63 9.30009 184.41C8.56009 178.88 7.72008 159.99 27.9601 149.2C34.4301 145.75 41.9901 144.48 49.8101 145.52C57.1601 146.5 64.1601 149.52 69.5301 154C78.6301 161.59 81.8601 172.13 78.4001 182.91C77.7001 185.08 75.8301 186.7 73.6401 187.04C72.0501 187.29 71.0301 186.79 70.4501 186.33C69.5001 185.58 68.9601 184.35 68.8201 182.67C68.2801 175.87 64.5201 160.06 41.4101 160.06C34.5501 160.06 29.0401 162.1 25.0301 166.13C17.8001 173.39 17.7701 184.8 17.7701 184.91C17.7701 185.04 17.7501 185.18 17.7101 185.31C17.4201 186.21 16.4101 187.82 14.4201 188.2C14.1601 188.27 13.8901 188.29 13.6301 188.29ZM44.6301 147.77C39.1901 147.77 33.8301 148.98 29.1701 151.46C10.9001 161.2 10.9601 177.51 11.8401 184.08C11.9101 184.61 12.2001 185.09 12.6301 185.4C13.0201 185.68 13.4901 185.79 13.9501 185.7C14.7101 185.55 15.0901 184.95 15.2201 184.67C15.2601 182.78 15.7901 171.82 23.2101 164.35C27.7201 159.81 33.8501 157.51 41.4201 157.51C66.6601 157.51 70.7801 174.97 71.3801 182.47C71.4501 183.39 71.6901 184.05 72.0401 184.33C72.3001 184.54 72.7101 184.6 73.2501 184.51C74.5001 184.32 75.5601 183.38 75.9601 182.13C79.0801 172.39 76.1401 162.85 67.8901 155.96C61.4501 150.6 52.9501 147.77 44.6301 147.77Z" fill="#232323"/>
<path d="M42.9901 201.62C30.9001 201.62 19.8501 194.05 15.4801 182.78L17.8701 181.85C21.8601 192.14 31.9501 199.05 42.9901 199.05C54.8601 199.05 65.1901 191.45 68.7101 180.13L71.1501 180.89C67.3001 193.29 55.9801 201.62 42.9901 201.62Z" fill="#232323"/>
<path d="M42.9901 187.19C35.8901 187.19 30.1101 181.41 30.1101 174.31C30.1101 167.21 35.8901 161.43 42.9901 161.43C50.0901 161.43 55.8701 167.21 55.8701 174.31C55.8701 181.41 50.0901 187.19 42.9901 187.19ZM42.9901 164C37.3001 164 32.6701 168.63 32.6701 174.32C32.6701 180.01 37.3001 184.64 42.9901 184.64C48.6801 184.64 53.3101 180.01 53.3101 174.32C53.3101 168.63 48.6801 164 42.9901 164Z" fill="#232323"/>
<path d="M192.58 187.19C185.48 187.19 179.7 181.41 179.7 174.31C179.7 167.21 185.48 161.43 192.58 161.43C199.68 161.43 205.46 167.21 205.46 174.31C205.46 181.41 199.68 187.19 192.58 187.19ZM192.58 164C186.89 164 182.26 168.63 182.26 174.32C182.26 180.01 186.89 184.64 192.58 184.64C198.27 184.64 202.9 180.01 202.9 174.32C202.9 168.63 198.27 164 192.58 164Z" fill="#232323"/>
<path d="M154.66 136.41C148.37 136.41 146.17 132.02 145.89 129.7C145.8 129 146.3 128.36 147.01 128.27C147.71 128.19 148.34 128.68 148.43 129.38C148.49 129.84 149.21 133.85 154.66 133.85C158.52 133.85 165.1 132.8 166.85 125.96C165.52 125.24 162.45 123.84 158.56 123.79C157.85 123.78 157.29 123.2 157.3 122.49C157.31 121.78 157.89 121.2 158.6 121.23C164.63 121.31 168.85 124.15 169.03 124.28C169.45 124.57 169.66 125.07 169.57 125.57C168.29 132.46 162.86 136.41 154.66 136.41Z" fill="#232323"/>
<path d="M223.79 139.7C223.47 139.7 223.16 139.58 222.91 139.35C209.75 126.84 185.84 124.39 183.27 124.16C177.28 125.89 168.77 126.58 168.41 126.61C167.69 126.67 167.09 126.14 167.03 125.44C166.97 124.74 167.5 124.12 168.2 124.06C168.29 124.05 177.03 123.34 182.77 121.64C182.92 121.6 183.07 121.58 183.23 121.59C184.32 121.67 210.17 123.7 224.67 137.5C225.18 137.99 225.2 138.8 224.72 139.31C224.46 139.57 224.12 139.7 223.79 139.7Z" fill="#232323"/>
<path d="M183.13 124.15C182.57 124.15 182.05 123.78 181.9 123.21C178.36 110.28 171.4 102.78 166.19 98.77C165.5 98.24 164.63 98.16 163.85 98.54C163.06 98.93 162.59 99.68 162.59 100.55V122.76C162.59 123.47 162.02 124.04 161.31 124.04C160.6 124.04 160.03 123.47 160.03 122.76V100.55C160.03 98.71 161.06 97.05 162.71 96.24C164.36 95.43 166.29 95.62 167.74 96.74C173.27 101 180.64 108.93 184.36 122.54C184.55 123.22 184.15 123.93 183.46 124.11C183.36 124.13 183.24 124.15 183.13 124.15Z" fill="#232323"/>
<path d="M235.93 168.46C235.65 168.46 235.37 168.37 235.13 168.18C219.17 155.49 218.71 139.99 218.7 139.34C218.69 138.75 219.08 138.23 219.66 138.08C219.85 138.03 238.54 133.3 243.32 146.2C248.22 159.41 236.81 168.12 236.69 168.2C236.47 168.38 236.2 168.46 235.93 168.46ZM221.35 140.34C221.75 143.84 223.95 155.58 235.92 165.53C238.19 163.49 244.5 156.73 240.92 147.1C237.53 137.95 225.05 139.62 221.35 140.34Z" fill="#232323"/>
<path d="M242.61 158.67C242.36 158.67 242.1 158.6 241.88 158.44C230.43 150.51 227.3 139.26 227.17 138.78C226.99 138.1 227.39 137.4 228.07 137.21C228.75 137.03 229.45 137.43 229.64 138.11C229.68 138.26 232.71 148.97 243.33 156.33C243.91 156.73 244.06 157.53 243.65 158.11C243.41 158.48 243.01 158.67 242.61 158.67Z" fill="#232323"/>
<path d="M227.78 181.87C227.24 181.87 226.73 181.52 226.56 180.97C226.35 180.3 226.72 179.58 227.4 179.37C237.25 176.27 236.28 166.34 236.23 165.92C236.15 165.22 236.66 164.59 237.36 164.51C238.05 164.43 238.69 164.94 238.77 165.64C238.78 165.76 240 178.09 228.16 181.81C228.04 181.85 227.91 181.87 227.78 181.87Z" fill="#232323"/>
<path d="M222.31 186.23C220.86 186.23 219.47 185.73 218.32 184.79C216.97 183.69 216.12 182.07 215.97 180.34C215.39 173.64 211.82 158.06 191.25 158.06C184.1 158.06 178.6 159.95 174.9 163.67C170 168.6 169.32 175.74 169.35 179.56C169.36 181.51 168.49 183.33 166.95 184.54C165.48 185.7 163.61 186.12 161.81 185.67C160 185.22 157.61 183.76 156.49 179.32C156.48 179.29 156.47 179.25 156.47 179.22C156.38 178.65 154.25 165.08 163 154.76C169.22 147.43 179.26 143.71 192.86 143.71C220.3 143.71 227.11 165.8 228.72 178.97C229.14 182.36 226.87 185.49 223.55 186.09C223.38 186.12 223.21 186.15 223.03 186.17C222.79 186.21 222.55 186.23 222.31 186.23ZM191.24 155.5C201.07 155.5 208.48 158.78 213.24 165.26C217.18 170.61 218.23 176.87 218.52 180.12C218.61 181.18 219.12 182.13 219.94 182.81C220.74 183.46 221.74 183.76 222.75 183.64C222.87 183.63 222.99 183.61 223.11 183.59C225.09 183.23 226.45 181.34 226.19 179.29C224.34 164.23 217.07 146.28 192.87 146.28C180.07 146.28 170.69 149.69 164.98 156.4C157.24 165.51 158.87 177.89 159 178.76C159.65 181.3 160.8 182.79 162.43 183.19C163.45 183.44 164.52 183.2 165.37 182.53C166.28 181.81 166.8 180.73 166.79 179.57C166.76 175.36 167.54 167.45 173.09 161.86C177.28 157.65 183.39 155.5 191.24 155.5Z" fill="#232323"/>
<path d="M192.48 200.73C180.57 200.73 169.94 192.74 166.64 181.31L169.1 180.6C172.08 190.94 181.7 198.17 192.48 198.17C203.59 198.17 213.28 190.67 216.04 179.92L218.52 180.56C215.47 192.44 204.76 200.73 192.48 200.73Z" fill="#232323"/>
<path d="M111.32 186.75C92.11 186.75 76.54 185.36 76.26 185.34L76.49 182.79C76.99 182.84 127.09 187.29 158.28 180.09L158.86 182.58C144.73 185.84 126.84 186.75 111.32 186.75Z" fill="#232323"/>
<path d="M92.8601 185.5C85.8101 161.83 90.8701 129.96 91.0901 128.61L93.6201 129.02C93.5701 129.34 88.4301 161.66 95.3101 184.76L92.8601 185.5Z" fill="#232323"/>
<path d="M98.47 141.82C96.54 141.82 94.99 140.28 94.99 138.38C94.99 136.48 96.53 134.94 98.43 134.94C98.46 134.94 98.49 134.94 98.53 134.94L109.76 136.13C111.1 136.27 112.11 137.39 112.11 138.74C112.11 140.15 111.01 141.3 109.6 141.36L98.47 141.82ZM98.39 136.77C97.52 136.79 96.82 137.51 96.82 138.38C96.82 139.27 97.54 139.99 98.43 139.99L109.51 139.53C109.94 139.51 110.27 139.16 110.27 138.74C110.27 138.33 109.96 137.99 109.56 137.95L98.39 136.77Z" fill="#232323"/>
<path d="M147.96 110.58C146.5 101 139.64 91.33 139.57 91.24L141.65 89.75C141.95 90.16 148.94 100 150.49 110.2L147.96 110.58Z" fill="#232323"/>
<path d="M148.97 108.43L148.16 106C152.79 104.46 157.49 101.61 160.62 99.48L162.06 101.6C157.31 104.83 152.9 107.12 148.97 108.43Z" fill="#232323"/>
<path d="M166.76 98.18L165.18 96.17C165.94 95.58 166.36 95.22 166.37 95.21C166.56 95.05 166.8 94.94 167.05 94.92C173.94 94.14 178.19 92.35 179.02 89.88C179.81 87.52 177.42 84.58 176.43 83.65C176.05 83.29 175.92 82.74 176.11 82.25C177.35 79.06 177.48 76.7799 176.49 75.6599C175.17 74.1799 171.9 74.63 170.75 74.92C170.38 75.02 169.99 74.9399 169.68 74.7199C169.37 74.4999 169.18 74.15 169.15 73.78C168.96 71.3 168.24 69.7 166.99 69.03C164.71 67.8 161.12 69.73 161.09 69.75L159.85 67.51C160.05 67.4 164.68 64.88 168.21 66.78C169.98 67.73 171.09 69.55 171.54 72.18C173.4 71.93 176.55 71.88 178.4 73.96C180 75.76 180.13 78.6 178.79 82.42C180.03 83.8 182.61 87.22 181.46 90.69C180.27 94.27 175.78 96.47 167.73 97.43C167.51 97.59 167.18 97.85 166.76 98.18Z" fill="#232323"/>
</svg>
