<svg width="518" height="179" viewBox="0 0 518 179" fill="none" xmlns="http://www.w3.org/2000/svg">
<path d="M501.271 3H90.2241C82.8404 3 76.8547 8.98566 76.8547 16.3693V162.522C76.8547 169.906 82.8404 175.892 90.2241 175.892H501.271C508.654 175.892 514.64 169.906 514.64 162.522V16.3693C514.64 8.98566 508.654 3 501.271 3Z" fill="#232323" stroke="#232323" stroke-width="5.06" stroke-linecap="round" stroke-linejoin="round"/>
<path d="M200.798 84.1662L194.167 71.0327H189.861V82.7983C189.861 84.5099 188.493 85.8778 186.849 85.8778H177.55C175.838 85.8778 174.47 84.5099 174.47 82.7983V41.0123C174.47 39.3681 175.838 38.0002 177.55 38.0002H194.713C207.981 38.0002 214.955 44.0851 214.955 55.1633C214.955 61.2483 212.496 65.4195 208.183 68.0206L216.802 83.1352C217.482 84.3683 216.6 85.8711 215.232 85.8711H203.54C202.374 85.8711 201.283 85.1905 200.804 84.1595L200.798 84.1662ZM189.854 58.7954H194.713C197.927 58.7954 199.43 57.6297 199.43 55.1701C199.43 52.7105 197.927 51.4773 194.713 51.4773H189.854V58.7954Z" fill="#7636FF"/>
<path d="M269.113 61.9424C269.113 76.1001 258.237 86.7673 243.877 86.7673C229.517 86.7673 218.641 76.1001 218.641 61.9424C218.641 47.7846 229.517 37.1848 243.877 37.1848C258.237 37.1848 269.113 47.852 269.113 61.9424ZM253.729 61.9424C253.729 56.2011 249.558 52.0973 243.884 52.0973C238.21 52.0973 234.039 56.2011 234.039 61.9424C234.039 67.6836 238.21 71.7874 243.884 71.7874C249.558 71.7874 253.729 67.751 253.729 61.9424Z" fill="#7636FF"/>
<path d="M312.739 85.8778H301.249C299.949 85.8778 298.723 85.1972 298.035 84.0988L291.674 73.1554L285.245 84.0988C284.632 85.1905 283.399 85.8778 282.098 85.8778H270.609C269.174 85.8778 268.284 84.3077 269.039 83.0746L282.24 61.3966L269.659 40.8102C268.904 39.577 269.794 38.007 271.229 38.007H282.718C284.019 38.007 285.178 38.6943 285.865 39.7859L291.681 49.7051L297.496 39.7859C298.109 38.6943 299.342 38.007 300.643 38.007H312.132C313.568 38.007 314.457 39.577 313.702 40.8102L301.121 61.3292L314.322 83.0746C315.077 84.3077 314.188 85.8778 312.752 85.8778H312.739Z" fill="#7636FF"/>
<path d="M364.781 61.9424C364.781 76.1001 353.905 86.7673 339.545 86.7673C325.185 86.7673 314.309 76.1001 314.309 61.9424C314.309 47.7846 325.185 37.1848 339.545 37.1848C353.905 37.1848 364.781 47.852 364.781 61.9424ZM349.397 61.9424C349.397 56.2011 345.225 52.0973 339.552 52.0973C333.878 52.0973 329.706 56.2011 329.706 61.9424C329.706 67.6836 333.878 71.7874 339.552 71.7874C345.225 71.7874 349.397 67.751 349.397 61.9424Z" fill="#7636FF"/>
<path d="M199.766 112.199H218.439C220.151 112.199 221.519 113.567 221.519 115.211V137.435C221.519 138.803 220.427 139.894 219.059 139.894H216.532C215.44 139.894 214.483 139.14 214.207 138.048L213.318 134.766C209.76 138.459 204.632 140.716 198.001 140.716C183.641 140.716 172.765 130.049 172.765 115.959C172.765 101.868 183.641 91.1339 198.001 91.1339C205.663 91.1339 212.361 94.2134 216.876 99.2067C217.9 100.298 217.63 102.077 216.397 102.832L207.576 108.715C206.62 109.328 205.454 109.193 204.638 108.439C202.859 106.936 200.602 106.114 198.008 106.114C192.334 106.114 188.095 110.218 188.095 115.959C188.095 122.044 192.334 126.424 198.008 126.424C202.111 126.424 205.117 125.056 206.694 122.044H199.787C198.142 122.044 196.781 120.743 196.781 119.032V115.204C196.781 113.56 198.149 112.192 199.787 112.192L199.766 112.199Z" fill="white"/>
<path d="M257.826 137.637L256.391 132.509H242.853L241.418 137.637C241.074 139.005 239.848 139.894 238.48 139.894H227.671C226.027 139.894 224.8 138.25 225.346 136.68L239.436 94.483C239.982 93.0476 241.35 92.0234 242.927 92.0234H256.33C257.9 92.0234 259.342 93.0476 259.821 94.483L273.911 136.68C274.457 138.25 273.298 139.894 271.654 139.894H260.778C259.41 139.894 258.251 139.005 257.84 137.637H257.826ZM253.446 121.842L249.618 107.96L245.791 121.842H253.453H253.446Z" fill="white"/>
<path d="M310.347 92.0234H319.646C321.357 92.0234 322.725 93.3913 322.725 95.0355V136.821C322.725 138.533 321.357 139.901 319.646 139.901H310.825C309.592 139.901 308.433 139.22 307.746 138.189L293.797 115.689V136.821C293.797 138.533 292.429 139.901 290.717 139.901H281.418C279.706 139.901 278.406 138.533 278.406 136.821V95.0355C278.406 93.3913 279.706 92.0234 281.418 92.0234H290.239C291.472 92.0234 292.631 92.6366 293.318 93.735L307.334 116.235V95.0355C307.334 93.3913 308.635 92.0234 310.347 92.0234Z" fill="white"/>
<path d="M361.701 92.0234H371.001C372.645 92.0234 374.006 93.3913 374.006 95.0355V136.821C374.006 138.533 372.638 139.901 371.001 139.901H361.701C359.99 139.901 358.622 138.533 358.622 136.821V122.664H344.942V136.821C344.942 138.533 343.574 139.901 341.863 139.901H332.631C330.919 139.901 329.552 138.533 329.552 136.821V95.0355C329.552 93.3913 330.919 92.0234 332.631 92.0234H341.863C343.574 92.0234 344.942 93.3913 344.942 95.0355V108.782H358.622V95.0355C358.622 93.3913 359.99 92.0234 361.701 92.0234Z" fill="white"/>
<path d="M429.606 115.959C429.606 130.117 418.73 140.784 404.37 140.784C390.01 140.784 379.134 130.117 379.134 115.959C379.134 101.801 390.01 91.2013 404.37 91.2013C418.73 91.2013 429.606 101.868 429.606 115.959ZM414.222 115.959C414.222 110.218 410.051 106.114 404.377 106.114C398.703 106.114 394.532 110.218 394.532 115.959C394.532 121.7 398.703 125.804 404.377 125.804C410.051 125.804 414.222 121.767 414.222 115.959Z" fill="white"/>
<path d="M475.354 92.0234C477.066 92.0234 478.434 93.3913 478.434 95.0355V120.541C478.434 134.766 469.613 140.716 456.547 140.716C443.481 140.716 434.734 134.766 434.734 120.541V95.0355C434.734 93.3913 436.102 92.0234 437.813 92.0234H447.113C448.757 92.0234 450.125 93.3913 450.125 95.0355V118.904C450.125 123.284 452.45 125.811 456.553 125.811C460.657 125.811 463.049 123.284 463.049 118.904V95.0355C463.049 93.3913 464.417 92.0234 466.055 92.0234H475.354Z" fill="white"/>
<path d="M76.8548 163.304C117.644 163.304 150.71 130.238 150.71 89.4493C150.71 48.6604 117.644 15.5944 76.8548 15.5944C36.0659 15.5944 3 48.6604 3 89.4493C3 130.238 36.0659 163.304 76.8548 163.304Z" fill="#7636FF" stroke="#232323" stroke-width="5.06" stroke-linecap="round" stroke-linejoin="round"/>
<mask id="mask0_69_1942" style="mask-type:luminance" maskUnits="userSpaceOnUse" x="3" y="15" width="148" height="149">
<path d="M76.8548 163.304C117.644 163.304 150.71 130.238 150.71 89.4493C150.71 48.6604 117.644 15.5944 76.8548 15.5944C36.0659 15.5944 3 48.6604 3 89.4493C3 130.238 36.0659 163.304 76.8548 163.304Z" fill="white"/>
</mask>
<g mask="url(#mask0_69_1942)">
<path d="M123.142 113.708C122.94 113.627 122.724 113.54 122.495 113.466C122.542 113.365 124.294 109.537 123.58 106.215C123.58 106.215 120.083 104.773 118.654 102.549C118.566 102.408 118.465 102.199 118.357 101.916C117.69 100.164 116.693 95.8779 115.123 91.2485C113.02 85.0288 109.88 78.1891 105.109 76.0125C105.109 76.0125 106.983 74.4559 106.39 70.9451C106.208 69.8737 105.797 68.6271 105.042 67.185L105.022 67.1715C105.945 65.4599 106.733 62.8117 105.729 59.4963C105.729 59.4963 102.165 60.6082 99.6646 63.5057C102.151 54.0313 106.471 47.4275 106.605 47.2253C106.605 47.2253 93.4786 48.6674 79.5567 65.0624V65.1634C77.5823 65.1567 75.2575 65.2645 72.6833 65.6014C70.9448 65.8171 69.0782 66.1405 67.124 66.5988C64.1254 67.2928 61.4704 68.1756 59.1792 69.092C57.7574 69.6581 56.4703 70.2443 55.3382 70.8036L55.2911 70.716C35.5605 62.1648 23.1548 66.6661 23.1548 66.6661C23.1548 66.6661 30.0686 70.6891 36.5848 78.2093C33.0605 76.7066 29.3745 77.2929 29.3745 77.2929C29.9405 80.7026 31.8206 82.7309 33.3974 83.8697L33.3839 83.8832C33.3637 84.6312 33.3907 85.3118 33.4581 85.925C34.0106 91.0733 37.2249 91.8415 37.2249 91.8415C33.9096 95.8981 34.1185 103.425 34.9743 109.935C35.5605 114.375 36.45 118.338 36.7263 120.406C36.8004 120.952 36.8341 121.37 36.8004 121.626C36.5039 124.254 33.9972 127.098 33.9972 127.098C34.8395 130.433 38.1751 133.122 38.1751 133.122C37.2721 134.018 36.7937 134.861 36.7937 134.861C40.3584 140.433 45.9312 143.681 52.0498 145.481C67.1173 149.921 85.5203 145.595 85.5203 145.595C85.5203 145.595 94.4692 143.533 103.809 138.681C112.812 134.005 122.178 126.727 124.227 116.195C124.341 115.622 124.429 115.036 124.496 114.443C124.496 114.443 123.977 114.086 123.142 113.735V113.708ZM90.0352 134.241C89.9408 134.524 89.8398 134.807 89.732 135.096C89.3883 136.033 88.9772 137.003 88.5055 137.967C86.8344 141.37 82.488 142.381 79.4893 140.063C78.3775 139.207 77.3801 138.304 76.4772 137.401L76.2683 137.192C72.9057 133.769 71.0796 130.474 71.0796 130.474C75.4057 130.534 78.2494 128.169 79.678 126.559C80.3923 125.757 80.6618 124.652 80.4125 123.607C80.6551 124.652 81.3829 125.521 82.3802 125.932C84.368 126.741 87.9664 127.61 91.8209 125.649C91.8209 125.649 91.6322 129.564 90.0419 134.247L90.0352 134.241Z" fill="#2D2D2D"/>
<path d="M49.1388 170.589C49.0647 168.5 49.1051 166.397 49.213 164.349C49.3477 161.855 49.5903 159.443 49.8801 157.219C50.1766 154.935 50.5202 152.853 50.8437 151.094C51.4839 147.644 52.0566 145.454 52.0566 145.454C54.0176 146.033 56.0391 146.458 58.0674 146.768C71.6053 148.836 85.5204 145.568 85.5204 145.568C85.5204 145.568 87.2859 145.164 90.069 144.281C93.5461 143.183 98.6135 141.35 103.809 138.648C103.809 138.648 109.638 146.768 111.983 155.845C112.266 156.923 112.495 158.008 112.657 159.092C119.907 160.791 120.507 162.502 120.507 162.502C120.507 162.502 120.878 163.324 121.282 164.557C121.801 166.114 122.38 168.338 122.367 170.366C122.367 170.77 122.34 171.175 122.279 171.559" fill="#2D2D2D"/>
<path d="M131.141 144.503C131.141 144.503 130.689 144.888 129.881 145.528L129.867 145.555C127.643 144.786 125.089 146.41 125.089 148.991V149.018C121.491 151.458 116.713 154.274 111.99 155.851C111.073 152.313 109.631 148.917 108.209 146.1C105.985 141.68 103.816 138.661 103.816 138.661C109.321 135.804 114.955 131.97 118.971 127.024C121.531 123.877 123.432 120.272 124.227 116.174C124.227 116.174 133.674 110.925 134.463 121.377C134.463 121.377 146.363 118.257 141.532 130.662C141.532 130.662 153.614 141.976 131.141 144.51V144.503Z" fill="#2D2D2D"/>
<path d="M34.9744 109.908C34.9744 109.908 20.4729 94.8064 23.1549 66.6459C23.1549 66.6459 30.0687 70.6688 36.5849 78.1891C33.0606 76.6864 29.3746 77.2726 29.3746 77.2726C29.9406 80.6823 31.8207 82.7106 33.3975 83.8495L33.3841 83.8629C33.1954 90.8508 37.2183 91.8212 37.2183 91.8212C33.9029 95.8778 34.1118 103.405 34.9676 109.914L34.9744 109.908Z" fill="white"/>
<path d="M115.123 91.2485C113.021 85.0288 109.88 78.1891 105.109 76.0125C105.109 76.0125 108.297 73.3643 105.035 67.1783L105.015 67.1648C105.938 65.4532 106.727 62.8049 105.723 59.4895C105.723 59.4895 102.158 60.6014 99.658 63.499C102.178 53.8763 106.605 47.2119 106.605 47.2119C121.451 71.2955 115.116 91.2485 115.116 91.2485H115.123Z" fill="white"/>
<path d="M124.496 114.416C124.429 115.009 124.341 115.595 124.227 116.168C122.185 126.693 112.818 133.971 103.809 138.654C94.4761 143.506 85.5205 145.568 85.5205 145.568C85.5205 145.568 67.1174 149.894 52.05 145.454C45.9313 143.654 40.3585 140.4 36.7938 134.834C36.7938 134.834 37.2723 133.998 38.1752 133.095C38.1752 133.095 34.8396 130.406 33.9973 127.071C33.9973 127.071 36.4973 124.234 36.8006 121.599C36.8275 121.343 36.8006 120.925 36.7264 120.379C38.748 118.573 42.0769 116.276 45.3114 117.077C50.4462 118.344 71.4301 120.292 78.5124 118.661C85.6014 117.03 102.03 107.771 108.614 102.576C110.932 100.743 114.584 100.918 118.344 101.909C118.452 102.185 118.546 102.401 118.641 102.542C120.069 104.773 123.567 106.208 123.567 106.208C124.281 109.53 122.529 113.358 122.482 113.452C123.695 113.863 124.49 114.409 124.49 114.409L124.496 114.416Z" fill="white"/>
<path d="M91.8144 125.642C91.8144 125.642 91.6258 129.557 90.0355 134.241C90.0355 134.241 86.9627 132.886 82.7982 133.856C78.6338 134.827 76.4774 137.401 76.4774 137.401C72.9801 133.904 71.0798 130.467 71.0798 130.467C75.406 130.528 78.2497 128.162 79.6783 126.552C80.3926 125.75 80.6621 124.645 80.4128 123.6C80.6554 124.645 81.3831 125.514 82.3804 125.925C84.3683 126.734 87.9667 127.603 91.8212 125.642H91.8144Z" fill="#232323"/>
<path d="M122.488 113.472C122.536 113.371 124.288 109.544 123.573 106.222C123.573 106.222 120.076 104.78 118.647 102.556C118.56 102.414 118.459 102.205 118.351 101.922C114.591 100.932 110.938 100.763 108.62 102.59C106.632 104.153 103.755 106.094 100.507 108.075C95.8979 110.891 89.9949 110.406 85.8574 106.936C82.2995 103.951 79.0986 100.662 76.8884 98.2431C75.507 96.7337 73.0002 97.2323 72.3129 99.1596C71.073 102.616 69.1121 107.509 66.5783 112.024C64.0446 116.538 59.2602 118.897 54.2535 118.385C50.2912 117.98 46.9758 117.495 45.3181 117.091C42.0836 116.289 38.7548 118.587 36.7264 120.393C36.8006 120.939 36.8343 121.356 36.8006 121.613C36.5041 124.241 33.9973 127.084 33.9973 127.084C34.8396 130.42 38.1752 133.109 38.1752 133.109C37.2723 134.005 36.7938 134.847 36.7938 134.847C40.3585 140.42 45.9313 143.668 52.05 145.467C67.1174 149.908 85.5205 145.582 85.5205 145.582C85.5205 145.582 94.4693 143.52 103.802 138.668C112.805 133.991 122.172 126.714 124.22 116.181C124.335 115.608 124.422 115.022 124.49 114.429C124.49 114.429 123.695 113.883 122.482 113.479L122.488 113.472ZM78.4517 118.688C78.4922 118.675 78.5124 118.668 78.5124 118.668L77.5488 113.722L78.5259 118.668H78.5124C78.4922 118.668 78.4719 118.674 78.4517 118.681V118.688Z" fill="white"/>
<path d="M112.664 159.099C104.442 157.906 92.4546 153.526 90.2847 150.791C88.8494 148.985 89.4828 146.067 90.0758 144.288C93.5529 143.189 98.6204 141.357 103.816 138.654C103.816 138.654 109.645 146.774 111.99 155.851C112.273 156.929 112.502 158.014 112.664 159.099Z" fill="white"/>
<path d="M131.141 144.503C131.141 144.503 121.666 140.299 118.971 127.017C121.532 123.87 123.432 120.265 124.227 116.168C124.227 116.168 133.675 110.918 134.463 121.37C134.463 121.37 146.363 118.25 141.532 130.656C141.532 130.656 153.614 141.97 131.141 144.503Z" fill="white"/>
<path d="M127.974 135.723C130.597 135.723 132.724 133.596 132.724 130.972C132.724 128.349 130.597 126.222 127.974 126.222C125.35 126.222 123.223 128.349 123.223 130.972C123.223 133.596 125.35 135.723 127.974 135.723Z" fill="#FF4D96"/>
<path d="M128.257 123.546C129.503 123.546 130.514 122.536 130.514 121.289C130.514 120.042 129.503 119.032 128.257 119.032C127.01 119.032 125.999 120.042 125.999 121.289C125.999 122.536 127.01 123.546 128.257 123.546Z" fill="#FF4D96"/>
<path d="M138.947 127.093C139.234 125.879 138.482 124.664 137.269 124.377C136.055 124.091 134.84 124.842 134.553 126.056C134.267 127.269 135.018 128.485 136.232 128.771C137.445 129.058 138.661 128.306 138.947 127.093Z" fill="#FF4D96"/>
<path d="M136.754 138.654C138.001 138.654 139.011 137.644 139.011 136.397C139.011 135.15 138.001 134.14 136.754 134.14C135.507 134.14 134.497 135.15 134.497 136.397C134.497 137.644 135.507 138.654 136.754 138.654Z" fill="#FF4D96"/>
<path d="M50.8437 151.094C50.5203 152.846 50.1766 154.928 49.8801 157.219C53.081 156.929 55.7764 156.074 57.3532 155.474C57.9866 155.231 58.0338 154.355 57.4341 154.032C55.0756 152.765 52.6632 151.774 50.8437 151.094Z" fill="white"/>
<g opacity="0.3">
<path d="M83.4788 136.424C85.8912 135.865 87.933 136.08 89.2268 136.363C89.5301 135.649 89.7996 134.935 90.0287 134.247C90.0287 134.247 86.9559 132.893 82.7915 133.863C78.6271 134.834 76.4707 137.408 76.4707 137.408C77.0031 137.94 77.5826 138.479 78.189 139.005C79.2133 138.169 80.9788 137.01 83.4788 136.431V136.424Z" fill="#000566"/>
</g>
<g opacity="0.7">
<path d="M123.742 106.215C123.742 106.215 118.183 108.668 115.501 102.542C112.819 96.4169 113.317 88.9438 105.103 76.0125C109.914 78.1891 113.082 85.0355 115.211 91.2484C116.794 95.8779 117.799 100.164 118.472 101.916C118.58 102.192 118.675 102.408 118.769 102.549C120.211 104.78 123.742 106.215 123.742 106.215Z" fill="white"/>
</g>
<g opacity="0.7">
<path d="M122.367 170.373C120.063 162.576 112.664 161.795 112.664 161.795C93.89 159.268 89.0989 149.611 89.0989 149.611C96.6191 156.404 112.664 159.099 112.664 159.099C119.914 160.797 120.514 162.509 120.514 162.509C120.514 162.509 120.885 163.331 121.289 164.564C121.808 166.121 122.387 168.345 122.374 170.373H122.367Z" fill="white"/>
</g>
<g opacity="0.7">
<path d="M108.991 156.741C109.146 157.327 109.281 157.913 109.402 158.506C110.528 158.749 111.626 158.951 112.664 159.099C112.495 158.008 112.266 156.923 111.99 155.851C109.638 146.774 103.816 138.654 103.816 138.654C102.913 139.126 102.017 139.564 101.127 139.982C102.347 141.774 106.97 148.897 108.998 156.741H108.991Z" fill="white"/>
</g>
<path d="M90.0286 134.241C89.6243 135.447 89.1189 136.707 88.5057 137.96C86.8345 141.363 82.4881 142.374 79.4894 140.056C78.3776 139.2 77.3803 138.297 76.4773 137.394C76.4773 137.394 78.6336 134.82 82.7981 133.85C86.9625 132.879 90.0353 134.234 90.0353 134.234L90.0286 134.241Z" fill="#FF4D96"/>
<path d="M85.824 146.848C83.5868 147.34 81.4169 147.691 79.1932 147.987C76.9829 148.277 74.7592 148.493 72.5287 148.621C70.2983 148.749 68.0611 148.796 65.8239 148.749C63.5867 148.688 61.3427 148.526 59.1122 148.243C56.875 147.974 54.658 147.516 52.468 146.929C51.9222 146.768 51.3696 146.64 50.8305 146.451L49.2133 145.905C48.1553 145.481 47.0839 145.07 46.0596 144.544L45.2847 144.167L44.5367 143.742L43.7887 143.311L43.4113 143.095L43.0542 142.853L41.6189 141.875L40.2644 140.784C38.5057 139.268 36.9625 137.495 35.6755 135.548C35.3992 135.13 35.3992 134.604 35.635 134.193V134.187C35.8372 133.85 36.0191 133.634 36.228 133.378C36.4302 133.135 36.6458 132.913 36.8749 132.697C37.3331 132.273 37.8385 131.896 38.3776 131.579C38.91 131.255 39.5097 131.02 40.1094 130.858C40.7092 130.689 41.3493 130.676 41.9491 130.73C42.1108 130.743 42.2321 130.892 42.2186 131.06C42.2051 131.161 42.1512 131.242 42.0704 131.289L42.0434 131.303C41.5515 131.579 41.1068 131.835 40.7092 132.158C40.3049 132.468 39.941 132.799 39.604 133.162C39.2671 133.526 38.9639 133.91 38.6741 134.308C38.5326 134.51 38.3978 134.712 38.2698 134.914C38.1418 135.103 38.007 135.346 37.9261 135.487L37.8924 134.126C39.0313 135.851 40.4059 137.421 41.9693 138.782L43.1822 139.759L44.476 140.642L44.7995 140.865L45.1432 141.06L45.8238 141.451L46.5043 141.842L47.2119 142.185C48.1486 142.671 49.1324 143.048 50.1162 143.439L51.6189 143.951C52.1176 144.126 52.6432 144.247 53.1486 144.396C55.2039 144.948 57.3063 145.379 59.4357 145.636C61.5651 145.905 63.7147 146.06 65.8778 146.121C68.0341 146.168 70.2039 146.121 72.3603 145.999C74.5234 145.871 76.6797 145.662 78.8293 145.386C80.9654 145.103 83.142 144.753 85.204 144.295H85.2377C85.9453 144.133 86.6461 144.578 86.8078 145.285C86.9628 145.993 86.518 146.693 85.8105 146.855L85.824 146.848Z" fill="#232323"/>
<path d="M37.3533 134.119C37.205 133.998 33.6673 131.114 32.7306 127.387C32.6228 126.97 32.7306 126.518 33.0204 126.195C33.6403 125.487 35.298 123.257 35.5002 121.451C35.5473 120.999 35.1902 119.045 34.8735 117.32C33.5729 110.278 31.457 98.8091 35.3115 92.2795C33.8492 91.2215 31.9489 88.8697 32.0837 83.8158L34.7117 83.8899C34.5568 89.6514 37.5082 90.5207 37.5419 90.5274C37.9799 90.6352 38.3371 90.9587 38.4853 91.3832C38.6269 91.8145 38.546 92.2862 38.2562 92.6366C33.9638 97.886 36.2414 110.211 37.4611 116.835C37.9665 119.584 38.2091 120.939 38.1147 121.734C37.8587 124.005 36.2818 126.296 35.4732 127.34C36.4166 129.928 38.984 132.037 39.011 132.057L37.36 134.106L37.3533 134.119Z" fill="#232323"/>
<path d="M34.9746 111.222C34.6309 111.222 34.2872 111.087 34.0244 110.817C33.418 110.184 19.1389 94.9547 21.8478 66.5179C21.895 66.0125 22.2319 65.5812 22.7104 65.406C23.236 65.2173 35.8439 60.8238 55.8237 69.4896C56.4909 69.7793 56.7941 70.5543 56.5043 71.2214C56.2146 71.8885 55.4396 72.1917 54.7725 71.902C38.4921 64.8467 27.3465 66.8885 24.3883 67.6499C22.178 94.2606 35.7832 108.85 35.9247 108.998C36.4234 109.523 36.4099 110.352 35.8843 110.858C35.6282 111.1 35.3048 111.222 34.9746 111.222Z" fill="#232323"/>
<path d="M23.8221 65.5071C25.7089 66.6594 27.3936 67.8858 29.0715 69.2133C30.7359 70.5341 32.3397 71.929 33.8626 73.4115C34.6376 74.1392 35.3586 74.9209 36.0998 75.6824C36.8074 76.4775 37.5419 77.2457 38.209 78.0813C39.5972 79.6986 40.8371 81.4371 42.0365 83.2026L39.8397 83.1959C40.0756 82.8859 40.3384 82.6029 40.6012 82.3131C40.8708 82.0301 41.147 81.7538 41.4368 81.491C41.7333 81.2282 42.0163 80.9587 42.333 80.7093C42.643 80.46 42.9597 80.2107 43.3034 79.9883C43.4651 79.8805 43.6875 79.9277 43.7886 80.0894C43.8492 80.1837 43.8627 80.2915 43.829 80.3926C43.7077 80.7767 43.5729 81.1406 43.4314 81.5045C43.2966 81.8684 43.1484 82.2255 43.0069 82.5827C42.8586 82.9398 42.7104 83.2902 42.5487 83.6406C42.3869 83.9843 42.2185 84.328 42.0365 84.6514C41.6861 85.2579 40.9179 85.46 40.3114 85.1164C40.143 85.022 40.0082 84.894 39.9071 84.7457L39.8397 84.6447C38.7009 82.9668 37.5284 81.3091 36.2009 79.7727C35.5675 78.9775 34.8599 78.243 34.1861 77.4816C33.4785 76.7538 32.7845 76.0058 32.0432 75.305C30.5877 73.8832 29.0513 72.5354 27.4475 71.2753C25.8639 70.0152 24.1725 68.7955 22.5081 67.7847L22.4609 67.7578C21.841 67.3804 21.6456 66.5718 22.0229 65.9519C22.4003 65.3319 23.2089 65.1365 23.8289 65.5138L23.8221 65.5071Z" fill="#232323"/>
<path d="M35.7696 85.3388C34.7857 85.3051 33.8625 85.0086 33.0067 84.5571C32.1509 84.1056 31.376 83.4924 30.6887 82.7714C30.0148 82.0503 29.4083 81.235 28.9838 80.3252C28.5256 79.429 28.2628 78.4587 28.0741 77.4883C27.9326 76.801 28.3773 76.1338 29.0647 75.9923L29.1388 75.9789H29.1658C29.5633 75.9182 29.8666 75.898 30.2102 75.8778C30.5404 75.8576 30.8774 75.8508 31.2075 75.8508C31.8679 75.8508 32.535 75.8913 33.1954 75.9721C33.8558 76.0462 34.5162 76.1675 35.1698 76.336C35.8235 76.491 36.4704 76.7268 37.1038 76.9829C37.7777 77.2525 38.1079 78.0207 37.8316 78.6945C37.562 79.3684 36.8006 79.6918 36.1267 79.429L36.0661 79.4021C35.5607 79.2066 35.0553 79.0112 34.5162 78.8832C33.9838 78.7484 33.438 78.6406 32.8787 78.58C32.3262 78.5126 31.7601 78.4789 31.2008 78.4789C30.9178 78.4789 30.6415 78.4789 30.3585 78.4991C30.0889 78.5126 29.7857 78.5395 29.5768 78.5732L30.6685 77.057C30.7695 77.4344 30.8167 77.832 30.9245 78.2026C31.0458 78.5732 31.1267 78.9573 31.2817 79.3145C31.5377 80.049 31.9151 80.7363 32.3531 81.3967C32.7844 82.0638 33.3302 82.6635 33.9367 83.2296C34.5297 83.8024 35.1968 84.3482 35.8909 84.894L35.9111 84.9142C36.0189 84.9951 36.0391 85.1501 35.9515 85.2511C35.9043 85.3118 35.8302 85.3455 35.7494 85.3455L35.7696 85.3388Z" fill="#232323"/>
<path d="M48.8895 74.3279C49.9542 72.9195 51.2952 71.8481 52.7103 70.9047C53.0674 70.6688 53.4246 70.4465 53.7952 70.2376C54.1658 70.0219 54.5297 69.813 54.9071 69.6109C55.6483 69.1998 56.4098 68.8157 57.178 68.4519C58.7211 67.7443 60.2912 67.0839 61.9084 66.5718C63.519 66.026 65.1699 65.6149 66.8344 65.2915C67.5486 65.15 68.236 65.6217 68.3775 66.3292C68.5055 66.9896 68.1147 67.6365 67.4813 67.8319L67.4273 67.8454C66.6524 68.088 65.8775 68.2969 65.1025 68.5327C64.3343 68.782 63.5527 68.9909 62.7979 69.2605C61.2615 69.7457 59.7521 70.3184 58.2427 70.898C56.7467 71.4977 55.2642 72.1513 53.8087 72.8521C52.3397 73.5327 50.8504 74.2066 49.2938 74.8131H49.2736C49.0984 74.8872 48.9097 74.8063 48.8423 74.6311C48.7952 74.5166 48.8221 74.3953 48.8895 74.3077V74.3279Z" fill="#232323"/>
<path d="M85.2308 144.288C87.2793 143.789 89.3885 143.142 91.4303 142.455C93.4855 141.761 95.5138 140.993 97.5085 140.15C99.5031 139.308 101.464 138.392 103.378 137.394C105.285 136.39 107.145 135.299 108.937 134.113C110.736 132.94 112.428 131.626 114.031 130.218C114.422 129.854 114.84 129.524 115.204 129.14L116.329 128.014C117.037 127.226 117.758 126.451 118.378 125.609L118.863 124.989L119.301 124.335L119.739 123.681L119.961 123.358L120.157 123.014L120.925 121.653L121.579 120.238C122.387 118.324 122.92 116.316 123.182 114.261L123.748 115.494C123.614 115.406 123.385 115.245 123.189 115.137C122.98 115.009 122.771 114.894 122.556 114.773C122.124 114.544 121.68 114.335 121.215 114.153C120.75 113.971 120.278 113.843 119.779 113.742C119.281 113.627 118.769 113.594 118.209 113.567H118.182C118.014 113.553 117.893 113.412 117.899 113.25C117.899 113.149 117.96 113.061 118.041 113.014C118.553 112.697 119.133 112.435 119.746 112.313C120.359 112.192 120.992 112.138 121.619 112.199C122.246 112.246 122.866 112.36 123.465 112.542C123.762 112.63 124.058 112.738 124.348 112.866C124.645 113.001 124.901 113.115 125.231 113.331C125.649 113.607 125.851 114.092 125.797 114.564C125.507 116.875 124.901 119.146 123.998 121.282L123.263 122.859L122.408 124.369L122.192 124.746L121.949 125.103L121.464 125.817L120.979 126.532L120.453 127.212C119.766 128.135 118.991 128.978 118.23 129.827L117.023 131.033C116.626 131.444 116.188 131.801 115.77 132.185C114.065 133.681 112.273 135.069 110.393 136.303C108.513 137.543 106.579 138.681 104.597 139.719C102.61 140.757 100.581 141.7 98.526 142.57C96.4707 143.439 94.3818 144.227 92.2726 144.941C90.1499 145.656 88.0475 146.303 85.8238 146.849C85.1162 147.024 84.4087 146.586 84.2335 145.885C84.0583 145.177 84.4963 144.47 85.1971 144.295H85.2308V144.288Z" fill="#232323"/>
<path d="M123.681 114.018L121.296 112.913C121.296 112.913 122.684 109.86 122.387 107.118C121.195 106.538 118.769 105.177 117.535 103.257C117.104 102.583 116.72 101.255 115.959 98.5666C114.133 92.0841 110.723 80.022 104.557 77.2053C104.146 77.0166 103.856 76.6325 103.796 76.181C103.735 75.7295 103.91 75.2848 104.26 74.995C104.335 74.9276 106.531 72.8522 103.863 67.7915L106.188 66.5651C108.546 71.0327 107.879 73.9842 107.03 75.5813C113.371 79.7322 116.538 90.9587 118.479 97.8523C118.957 99.5369 119.496 101.451 119.739 101.835C120.73 103.378 123.189 104.638 124.058 104.995C124.463 105.157 124.753 105.514 124.847 105.939C125.655 109.692 123.748 113.843 123.668 114.018H123.681Z" fill="#232323"/>
<path d="M115.116 92.5625C114.982 92.5625 114.847 92.5423 114.719 92.5018C114.025 92.2795 113.641 91.545 113.863 90.8509C113.944 90.5881 119.658 71.5246 105.952 48.6674C102.96 49.3008 92.0099 52.4343 80.5678 65.8979C80.0961 66.4505 79.2672 66.5179 78.7147 66.0462C78.1621 65.5745 78.0947 64.7456 78.5664 64.1931C92.6635 47.5959 105.912 45.9652 106.471 45.9046C106.97 45.8507 107.468 46.0865 107.738 46.5245C122.731 70.8373 116.646 90.8105 116.383 91.646C116.208 92.2053 115.689 92.5625 115.13 92.5625H115.116Z" fill="#232323"/>
<path d="M107.704 47.9464C106.66 49.5906 105.682 51.4369 104.813 53.2631C103.937 55.1027 103.155 56.9895 102.475 58.91C102.111 59.8602 101.828 60.8373 101.511 61.8076C101.242 62.7847 100.938 63.7618 100.716 64.7524C100.211 66.72 99.8873 68.7281 99.6043 70.7362L99.584 70.8508C99.483 71.5381 98.8428 72.0166 98.1487 71.9155C97.96 71.8885 97.7781 71.8144 97.6299 71.7133C97.3199 71.5044 97.0234 71.2686 96.7201 71.0327C96.4236 70.7969 96.1339 70.5475 95.8441 70.2915C95.5611 70.0287 95.2646 69.7794 94.9883 69.5098C94.7053 69.247 94.4223 68.9775 94.146 68.6944C94.0112 68.5529 94.0112 68.3306 94.146 68.1958C94.2269 68.1217 94.3347 68.088 94.4358 68.1014C94.8401 68.1486 95.2377 68.2362 95.6218 68.3238C96.0126 68.4114 96.3832 68.526 96.7673 68.6338C97.1447 68.7416 97.5153 68.8696 97.8792 69.0044C98.2431 69.1459 98.6002 69.2807 98.9506 69.4559L96.9829 70.433C97.2794 68.3171 97.6231 66.2079 98.1487 64.1459C98.3778 63.1082 98.6946 62.0906 98.9776 61.0664C99.3078 60.0556 99.611 59.0381 99.9816 58.0407C100.689 56.0394 101.511 54.0785 102.421 52.158C103.337 50.2307 104.308 48.3844 105.494 46.511C105.885 45.8978 106.693 45.7159 107.306 46.1067C107.92 46.4976 108.102 47.3062 107.711 47.9194L107.684 47.9666L107.704 47.9464Z" fill="#232323"/>
<path d="M103.236 69.2066C103.627 68.4114 103.978 67.6298 104.261 66.8481C104.55 66.0732 104.779 65.2982 104.874 64.5098C104.975 63.7281 105.009 62.9397 104.914 62.1715C104.901 61.7807 104.8 61.4033 104.746 61.0192C104.678 60.6351 104.544 60.2645 104.469 59.8737L106.12 60.7497C105.918 60.8171 105.628 60.9249 105.386 61.0327C105.13 61.1405 104.874 61.2618 104.624 61.3831C104.119 61.6324 103.634 61.9155 103.162 62.2187C102.69 62.5219 102.246 62.8521 101.828 63.216C101.403 63.5664 101.026 63.964 100.662 64.3683L100.622 64.4155C100.137 64.9545 99.301 64.995 98.7619 64.5031C98.2295 64.0179 98.1824 63.189 98.6675 62.65C99.1258 62.1446 99.5975 61.6459 100.116 61.2146C100.628 60.7766 101.168 60.3723 101.727 60.0152C102.286 59.6513 102.859 59.3211 103.452 59.0246C103.748 58.8763 104.052 58.7416 104.355 58.6068C104.672 58.472 104.955 58.3575 105.339 58.2362H105.366C106.033 58.0071 106.747 58.371 106.969 59.0381C106.976 59.065 106.983 59.092 106.99 59.1122C107.252 60.0691 107.448 61.0529 107.428 62.057C107.448 63.061 107.266 64.0583 106.983 65.0017C106.686 65.9451 106.262 66.8414 105.696 67.623C105.123 68.4047 104.436 69.0786 103.566 69.5435C103.445 69.6042 103.304 69.5637 103.236 69.4424C103.196 69.3683 103.203 69.2875 103.236 69.2268L103.25 69.1999L103.236 69.2066Z" fill="#232323"/>
<path d="M86.7808 66.1068C85.1097 66.2483 83.4857 66.3022 81.8617 66.3426C80.2444 66.3561 78.6271 66.4235 77.0166 66.5448C75.4061 66.6931 73.8023 66.8413 72.2053 67.0839C71.4034 67.1782 70.615 67.3332 69.8131 67.4478C69.0179 67.5825 68.2228 67.7375 67.4209 67.8588H67.367C66.6459 67.9734 65.9788 67.4815 65.871 66.7672C65.7699 66.1001 66.1877 65.4734 66.8279 65.2982C68.4654 64.8534 70.1298 64.4895 71.8144 64.2739C73.4923 64.0178 75.1972 63.9168 76.8886 63.8696C77.7376 63.8561 78.5867 63.8629 79.4358 63.9033C79.8603 63.9168 80.2848 63.9437 80.7094 63.9707C81.1339 63.9909 81.5584 64.0313 81.9762 64.092C83.6609 64.3143 85.3388 64.6782 86.9156 65.4734C87.0841 65.5542 87.1447 65.7564 87.0638 65.9249C87.0099 66.0327 86.9021 66.1001 86.7943 66.1068H86.7741H86.7808Z" fill="#232323"/>
<path d="M78.6001 115.838C78.6001 115.838 75.6014 116.538 73.6944 117.751C72.9801 118.203 72.7577 119.146 73.2159 119.86C74.1998 121.383 76.3965 123.755 80.2308 122.859C84.0718 121.963 84.995 118.87 85.1971 117.064C85.2915 116.222 84.6783 115.48 83.8359 115.386C81.592 115.137 78.5933 115.838 78.5933 115.838H78.6001Z" fill="#232323"/>
<path d="M70.3992 130.696L79.2537 128.156L80.9316 125.009L88.1486 126.761L91.7335 126.579L90.9721 130.049L89.7187 133.432L86.9154 133.553L81.0663 133.877L77.7307 136.249L76.4774 136.397L73.8291 133.506L70.3992 130.696Z" fill="#232323"/>
<path d="M81.2483 121.404L81.5987 122.886L81.6863 123.257C81.7133 123.371 81.7268 123.418 81.7537 123.499C81.8009 123.648 81.8683 123.789 81.9491 123.917C82.1109 124.18 82.3332 124.402 82.5893 124.564C82.6499 124.604 82.7173 124.638 82.7847 124.672L82.8993 124.719L83.061 124.78C83.2699 124.867 83.4855 124.935 83.7012 125.009C85.433 125.582 87.2861 125.669 89.0179 125.265C89.8804 125.063 90.7362 124.759 91.5179 124.328L92.1109 124.018L92.6433 123.648C92.8319 123.533 92.9802 123.385 93.1419 123.25L93.3845 123.048C93.4654 122.98 93.5193 122.9 93.5934 122.819C94.1594 122.212 94.5166 121.505 94.7861 120.696C95.0557 119.881 95.1433 118.937 95.15 117.886V117.866C95.15 117.785 95.2174 117.718 95.2983 117.718C95.3387 117.718 95.3724 117.731 95.3993 117.758C95.8104 118.162 96.0934 118.654 96.2956 119.193C96.4101 119.463 96.4708 119.739 96.5382 120.029C96.5718 120.319 96.6325 120.615 96.6123 120.912C96.6325 122.118 96.1406 123.344 95.4061 124.294C95.3117 124.416 95.2309 124.544 95.1298 124.658L94.8198 124.982C94.6177 125.197 94.4088 125.42 94.1729 125.588L93.4856 126.127L92.7578 126.579C91.7807 127.152 90.716 127.583 89.6042 127.846C87.3737 128.378 85.0219 128.183 82.8925 127.509C82.623 127.421 82.3602 127.334 82.0974 127.232L81.902 127.158L81.6661 127.057C81.5044 126.983 81.3494 126.896 81.1944 126.801C80.5879 126.424 80.0758 125.912 79.6984 125.305C79.5098 125.002 79.3615 124.685 79.247 124.348C79.193 124.187 79.1391 123.991 79.1054 123.856L79.0178 123.486L78.6809 122.003C78.5192 121.296 78.9639 120.588 79.6715 120.426C80.379 120.265 81.0799 120.703 81.2416 121.404H81.2483Z" fill="#232323"/>
<path d="M83.1352 142.63C81.5449 142.63 79.9815 142.105 78.6877 141.107C73.1284 136.821 70.0556 131.343 69.9275 131.107C69.5771 130.474 69.8062 129.672 70.4397 129.321C71.0731 128.971 71.875 129.2 72.2254 129.834C72.2524 129.887 75.1769 135.083 80.2847 139.018C81.4033 139.881 82.8252 140.191 84.1931 139.874C85.561 139.557 86.6999 138.648 87.3198 137.381C90.1635 131.592 90.4937 125.635 90.4937 125.575C90.5274 124.847 91.1473 124.274 91.8751 124.328C92.6029 124.362 93.1622 124.982 93.1217 125.703C93.1083 125.966 92.7781 132.239 89.6783 138.54C88.708 140.514 86.9222 141.936 84.7861 142.435C84.2335 142.563 83.681 142.623 83.1284 142.623L83.1352 142.63Z" fill="#232323"/>
<path d="M76.4776 138.344C76.2619 138.344 76.053 138.27 75.8778 138.129C75.4803 137.799 75.4264 137.206 75.7633 136.808C75.8576 136.693 78.1757 133.978 82.5895 132.947C83.0949 132.832 83.6002 133.142 83.7148 133.648C83.8294 134.153 83.5194 134.658 83.014 134.773C79.2 135.662 77.2188 137.987 77.1986 138.007C77.0099 138.23 76.7471 138.344 76.4776 138.344Z" fill="#232323"/>
<path d="M90.0355 135.184C89.9074 135.184 89.7794 135.157 89.6581 135.103C89.6177 135.09 86.7807 133.89 83.0139 134.766C82.5085 134.888 82.0031 134.571 81.8885 134.065C81.774 133.56 82.0839 133.055 82.5893 132.94C87.0098 131.916 90.2848 133.324 90.4196 133.385C90.8913 133.594 91.1069 134.153 90.898 134.625C90.743 134.975 90.3994 135.184 90.0355 135.184Z" fill="#232323"/>
<path d="M81.2484 121.404L81.5988 122.886L81.6864 123.257C81.7133 123.392 81.7605 123.594 81.774 123.755C81.8211 124.106 81.8279 124.463 81.7875 124.813C81.7201 125.514 81.4842 126.208 81.1069 126.815C81.0125 126.963 80.9114 127.111 80.7969 127.253L80.6284 127.448L80.4869 127.603C80.2982 127.812 80.1028 128.007 79.9007 128.203C78.2901 129.746 76.2686 130.959 74.0314 131.471C72.9195 131.727 71.7739 131.815 70.6418 131.727L69.7928 131.646L68.937 131.471C68.654 131.424 68.3709 131.316 68.0879 131.215L67.6701 131.06C67.5286 131.006 67.4006 130.925 67.2658 130.858C66.1876 130.326 65.2038 129.449 64.6917 128.358C64.5434 128.095 64.4693 127.805 64.3682 127.529C64.3008 127.239 64.2335 126.963 64.22 126.673C64.1661 126.1 64.2065 125.534 64.3952 124.989C64.4221 124.914 64.5097 124.867 64.5839 124.894C64.6243 124.908 64.6512 124.935 64.6647 124.968V124.982C65.1432 125.918 65.6351 126.727 66.2348 127.34C66.8278 127.947 67.468 128.425 68.2429 128.722C68.3372 128.755 68.4249 128.803 68.5327 128.836L68.8426 128.91C69.0448 128.958 69.2402 129.025 69.4626 129.045L70.1028 129.14L70.7699 129.16C71.6661 129.193 72.5691 129.092 73.4316 128.897C75.1634 128.499 76.7807 127.596 78.088 126.323C78.2497 126.161 78.4114 126.006 78.5664 125.831L78.681 125.703L78.7618 125.608C78.809 125.548 78.8494 125.487 78.8899 125.427C79.0516 125.17 79.1459 124.874 79.1729 124.564C79.1864 124.409 79.1864 124.254 79.1594 124.106C79.1459 124.018 79.1392 123.971 79.1122 123.856L79.0246 123.486L78.6877 122.003C78.526 121.296 78.9707 120.588 79.6783 120.427C80.3858 120.265 81.0866 120.703 81.2484 121.404Z" fill="#232323"/>
<path d="M50.7832 145.123L53.3304 145.791L50.7832 145.123Z" fill="#232323"/>
<path d="M115.413 174.005L115.534 174.018C115.878 174.052 116.228 174.106 116.565 174.133C116.895 174.133 117.246 174.18 117.562 174.147C118.223 174.14 118.802 173.998 119.288 173.796C119.773 173.58 120.123 173.277 120.393 172.853C120.656 172.428 120.824 171.869 120.905 171.249C121.06 170.002 120.864 168.574 120.561 167.186C120.251 165.797 119.773 164.362 119.234 163.075L119.193 162.967C119.207 163.014 119.24 163.082 119.254 163.102L119.267 163.129L119.294 163.169L119.22 163.088C119.146 163.021 119.058 162.947 118.944 162.866C118.735 162.711 118.472 162.549 118.196 162.401C117.933 162.246 117.623 162.118 117.333 161.977C117.023 161.855 116.72 161.714 116.403 161.599C115.137 161.121 113.796 160.75 112.434 160.413C111.754 160.238 111.073 160.083 110.379 159.942C109.692 159.787 108.998 159.665 108.297 159.531C107.616 159.409 106.868 159.247 106.147 159.099C105.42 158.971 104.705 158.762 103.991 158.574C101.141 157.778 98.371 156.7 95.7699 155.305C94.4559 154.632 93.216 153.823 92.057 152.913C91.4774 152.462 90.9249 151.963 90.406 151.437C89.8871 150.912 89.3885 150.359 88.9707 149.733C88.91 149.645 88.937 149.524 89.0246 149.47C89.0853 149.429 89.1594 149.429 89.22 149.463H89.2268C91.7672 150.858 94.2133 152.192 96.7268 153.425C99.2403 154.659 101.895 155.575 104.597 156.222C105.278 156.37 105.952 156.552 106.639 156.653C107.327 156.774 107.994 156.902 108.728 157.017C109.449 157.138 110.17 157.239 110.885 157.388C111.606 157.516 112.32 157.657 113.041 157.826C114.476 158.142 115.912 158.52 117.34 159.032C117.697 159.153 118.054 159.308 118.412 159.45C118.769 159.618 119.126 159.76 119.49 159.962C119.847 160.15 120.211 160.359 120.581 160.622C120.763 160.75 120.952 160.905 121.141 161.08C121.242 161.175 121.336 161.283 121.437 161.397L121.599 161.613C121.626 161.646 121.666 161.714 121.693 161.768L121.74 161.849C121.761 161.889 121.801 161.983 121.828 162.051L121.788 161.943C122.131 162.731 122.394 163.459 122.65 164.227C122.899 164.989 123.122 165.77 123.304 166.566C123.661 168.156 123.917 169.82 123.674 171.62C123.553 172.516 123.284 173.466 122.731 174.335" fill="#232323"/>
<path d="M76.4976 174.14C75.1296 173.446 73.8223 172.603 72.6431 171.606C71.4638 170.615 70.3655 169.504 69.4557 168.257C69.3412 168.102 69.2199 167.954 69.1053 167.799L68.7954 167.314C68.5932 166.99 68.3843 166.667 68.2024 166.323C67.8654 165.636 67.515 164.955 67.2859 164.227C66.7536 162.805 66.4975 161.296 66.4436 159.807C66.4436 159.632 66.5716 159.483 66.7536 159.477C66.8749 159.477 66.9894 159.537 67.0433 159.645C68.445 162.219 69.7455 164.611 71.4841 166.66C72.3196 167.704 73.317 168.614 74.3749 169.423C75.4396 170.225 76.5784 170.939 77.7981 171.512C79.0111 172.091 80.2846 172.563 81.5852 172.954C82.8925 173.338 84.2335 173.614 85.5946 173.83C86.9558 174.032 88.3305 174.173 89.7119 174.227C90.406 174.248 91.0933 174.274 91.7874 174.268C92.468 174.261 93.189 174.248 93.8157 174.194H93.937" fill="#232323"/>
<path d="M111.363 159.301C109.867 149.45 102.812 139.524 102.744 139.423L104.881 137.886C105.184 138.311 112.374 148.419 113.964 158.904L111.363 159.301Z" fill="#232323"/>
<path d="M112.401 157.098L111.572 154.605C116.323 153.021 121.161 150.09 124.382 147.906L125.858 150.083C120.972 153.392 116.451 155.75 112.401 157.098Z" fill="#232323"/>
<path d="M130.689 146.559L129.065 144.49C129.84 143.884 130.285 143.506 130.292 143.499C130.494 143.331 130.737 143.223 130.993 143.196C138.075 142.401 142.441 140.555 143.291 138.014C144.099 135.588 141.64 132.569 140.629 131.606C140.238 131.235 140.11 130.669 140.305 130.171C141.586 126.889 141.714 124.551 140.696 123.398C139.342 121.875 135.979 122.334 134.8 122.644C134.423 122.745 134.018 122.664 133.702 122.441C133.385 122.212 133.183 121.862 133.156 121.471C132.967 118.924 132.219 117.28 130.932 116.586C128.594 115.325 124.908 117.3 124.867 117.32L123.587 115.022C123.789 114.908 128.547 112.313 132.179 114.267C133.991 115.245 135.144 117.111 135.602 119.813C137.509 119.557 140.757 119.51 142.657 121.646C144.301 123.493 144.436 126.41 143.055 130.339C144.322 131.754 146.983 135.272 145.797 138.843C144.578 142.516 139.962 144.786 131.687 145.77C131.464 145.952 131.127 146.222 130.696 146.565L130.689 146.559Z" fill="#232323"/>
<mask id="mask1_69_1942" style="mask-type:luminance" maskUnits="userSpaceOnUse" x="32" y="29" width="71" height="63">
<path d="M40.7226 46.8345C39.2805 52.9464 36.612 54.6849 32.2185 51.9423C32.1039 62.1647 34.0177 72.313 37.8452 81.7942C40.6889 86.3562 46.9355 90.9924 56.9693 91.0598C88.4317 91.2619 103.661 81.2754 102.455 65.7564C101.882 58.4316 100.629 50.6148 98.9708 42.2859C97.9533 40.7698 96.8482 40.4059 95.6689 41.1808C93.4385 45.4059 90.3926 43.3371 85.4128 35.6417C79.0247 25.7697 73.2766 27.8991 69.2537 41.3088C66.6526 46.9356 63.3305 47.852 59.8467 43.5865C50.3722 31.9894 44.0245 32.8856 40.7293 46.8412" fill="white"/>
</mask>
<g mask="url(#mask1_69_1942)">
<path d="M86.2479 13.9283L20.6135 43.3843L49.8653 108.564L115.5 79.1077L86.2479 13.9283Z" fill="url(#paint0_linear_69_1942)"/>
</g>
<path d="M89.1392 86.7134C81.2955 90.2309 70.4127 92.0167 56.9625 91.9291C48.2697 91.8751 40.8505 88.2565 37.1039 82.2524C37.0769 82.212 37.0567 82.1649 37.0365 82.1177C33.1416 72.4815 31.2346 62.3197 31.3491 51.9288C31.3491 51.6121 31.5243 51.3224 31.8006 51.1741C32.0769 51.0259 32.4138 51.0326 32.6833 51.2011C34.3613 52.2523 35.7359 52.569 36.7669 52.1445C38.0944 51.5987 39.1389 49.7455 39.8734 46.6323C41.5581 39.4827 44.0446 35.6215 47.4611 34.8331C51.0595 34.0042 55.3317 36.6794 60.5137 43.0272C61.9018 44.7186 63.2024 45.507 64.3816 45.352C65.7765 45.1768 67.1781 43.6673 68.4248 40.9854C70.7428 33.3034 73.6741 29.1524 77.1378 28.6605C80.0556 28.2427 83.0812 30.4328 86.1405 35.1498C89.3144 40.0555 91.6594 42.5083 93.1015 42.4477C93.7147 42.4207 94.3144 41.8547 94.8939 40.763C94.9613 40.635 95.0624 40.5204 95.1904 40.4396C95.9384 39.9477 97.8791 39.0986 99.6985 41.7873C99.7659 41.8816 99.8063 41.9894 99.8333 42.104C101.693 51.4639 102.805 58.9572 103.331 65.6823C103.775 71.4168 102.084 76.3764 98.3104 80.433C95.999 82.9196 92.9263 85.0153 89.1526 86.7066L89.1392 86.7134ZM38.6268 81.3967C39.9745 83.526 45.1025 90.1096 56.9759 90.1838C76.3965 90.3118 90.2443 86.5247 97.0233 79.247C100.453 75.561 101.99 71.0462 101.585 65.8171C101.073 59.2065 99.9815 51.8278 98.1554 42.6229C97.3063 41.4301 96.7201 41.5649 96.3292 41.7873C95.4532 43.3506 94.429 44.139 93.1891 44.193C90.9316 44.294 88.4653 41.949 84.685 36.0999C82.0704 32.0568 79.5502 30.0824 77.3938 30.3856C74.6917 30.7697 72.1647 34.6309 70.0892 41.5447C70.0757 41.5851 70.0622 41.6256 70.0488 41.6593C68.5056 44.9948 66.6795 46.821 64.6175 47.0771C62.7981 47.3062 60.9652 46.3156 59.1794 44.1256C54.5231 38.4315 50.7158 35.8708 47.8721 36.5312C45.2036 37.1511 43.0877 40.6822 41.5917 47.0299C40.709 50.7766 39.3545 52.9733 37.4475 53.755C36.1807 54.2739 34.7521 54.1661 33.1079 53.4046C33.182 63.034 35.0418 72.4343 38.6403 81.3899L38.6268 81.3967Z" fill="#3B1942"/>
<g opacity="0.6">
<path fill-rule="evenodd" clip-rule="evenodd" d="M69.9748 66.9492L66.4909 56.7874L61.0327 67.8723L68.9842 76.6055L69.9748 66.9492ZM49.4491 90.0288C51.6661 90.6555 54.1728 91.0328 56.9693 91.0463C59.4828 91.0598 61.8952 91.0126 64.1998 90.8981C64.3144 90.5746 64.4222 90.2444 64.5233 89.9142C54.3682 90.77 49.5569 83.243 50.0758 67.3333C53.2631 64.6311 54.8939 61.7604 56.1203 59.1526C62.03 46.6054 69.3144 46.3021 77.805 56.9761C81.4708 61.5852 85.7094 62.5152 89.611 60.5273C84.1056 60.0556 78.7754 56.4841 73.6136 49.8264C67.4748 46.1135 62.2322 46.7469 57.8925 51.7334C52.6836 62.5691 48.29 67.1311 44.6984 65.4128L33.8425 53.9437C35.0622 62.4747 35.9113 70.4465 37.7711 76.4505C40.1431 83.4317 45.1903 87.4479 50.7833 89.1865C50.3318 89.4762 49.8871 89.7525 49.4491 90.0153V90.0288Z" fill="white"/>
</g>
<path d="M89.1392 86.7134C81.2955 90.2309 70.4127 92.0167 56.9625 91.9291C48.2697 91.8751 40.8505 88.2565 37.1039 82.2524C37.0769 82.212 37.0567 82.1649 37.0365 82.1177C33.1416 72.4815 31.2346 62.3197 31.3491 51.9288C31.3491 51.6121 31.5243 51.3224 31.8006 51.1741C32.0769 51.0259 32.4138 51.0326 32.6833 51.2011C34.3613 52.2523 35.7359 52.569 36.7669 52.1445C38.0944 51.5987 39.1389 49.7455 39.8734 46.6323C41.5581 39.4827 44.0446 35.6215 47.4611 34.8331C51.0595 34.0042 55.3317 36.6794 60.5137 43.0272C61.9018 44.7186 63.2024 45.507 64.3816 45.352C65.7765 45.1768 67.1781 43.6673 68.4248 40.9854C70.7428 33.3034 73.6741 29.1524 77.1378 28.6605C80.0556 28.2427 83.0812 30.4328 86.1405 35.1498C89.3144 40.0555 91.6594 42.5083 93.1015 42.4477C93.7147 42.4207 94.3144 41.8547 94.8939 40.763C94.9613 40.635 95.0624 40.5204 95.1904 40.4396C95.9384 39.9477 97.8791 39.0986 99.6985 41.7873C99.7659 41.8816 99.8063 41.9894 99.8333 42.104C101.693 51.4639 102.805 58.9572 103.331 65.6823C103.775 71.4168 102.084 76.3764 98.3104 80.433C95.999 82.9196 92.9263 85.0153 89.1526 86.7066L89.1392 86.7134ZM38.6268 81.3967C39.9745 83.526 45.1025 90.1096 56.9759 90.1838C76.3965 90.3118 90.2443 86.5247 97.0233 79.247C100.453 75.561 101.99 71.0462 101.585 65.8171C101.073 59.2065 99.9815 51.8278 98.1554 42.6229C97.3063 41.4301 96.7201 41.5649 96.3292 41.7873C95.4532 43.3506 94.429 44.139 93.1891 44.193C90.9316 44.294 88.4653 41.949 84.685 36.0999C82.0704 32.0568 79.5502 30.0824 77.3938 30.3856C74.6917 30.7697 72.1647 34.6309 70.0892 41.5447C70.0757 41.5851 70.0622 41.6256 70.0488 41.6593C68.5056 44.9948 66.6795 46.821 64.6175 47.0771C62.7981 47.3062 60.9652 46.3156 59.1794 44.1256C54.5231 38.4315 50.7158 35.8708 47.8721 36.5312C45.2036 37.1511 43.0877 40.6822 41.5917 47.0299C40.709 50.7766 39.3545 52.9733 37.4475 53.755C36.1807 54.2739 34.7521 54.1661 33.1079 53.4046C33.182 63.034 35.0418 72.4343 38.6403 81.3899L38.6268 81.3967Z" fill="#232323"/>
<g opacity="0.2">
<path fill-rule="evenodd" clip-rule="evenodd" d="M74.9478 66.6594L67.5623 56.4505L66.0057 67.5826L70.0893 76.6864L74.9478 66.6661V66.6594ZM50.7833 89.2067C50.3655 89.1797 49.9409 89.146 49.5097 89.1124C49.9342 89.146 50.3587 89.1797 50.7833 89.2067ZM37.0972 53.9774L36.8479 53.0475H36.8344C36.7468 53.0812 36.6525 53.1014 36.5581 53.1283C33.5797 53.9976 34.4287 56.3359 39.1053 60.1432C43.0204 66.4977 47.1916 67.3602 51.6323 62.7241C53.7482 60.4734 56.0259 56.3629 58.4652 50.379C60.8911 47.7375 64.193 46.5852 68.3642 46.9423C70.2915 47.104 75.406 50.844 83.708 58.1621C83.7956 58.472 83.8764 58.782 83.9573 59.092V59.0515C86.7808 59.8871 89.1662 59.6378 91.1002 58.3036C93.1757 56.4842 94.739 52.7914 95.7902 47.2253C96.1474 46.6189 96.4304 46.0798 96.6528 45.6081C95.4061 51.8548 93.6676 56.0057 91.4439 58.0542C94.1999 55.9114 95.9924 51.4572 96.8347 44.6782C98.1353 56.9559 92.2457 65.0152 84.7322 62.4815V62.4478C88.2026 80.2781 79.274 89.2741 57.9329 89.4493C58.3035 89.4493 58.6741 89.4425 59.038 89.4291C60.6486 89.9345 62.4747 90.1029 64.5232 89.9277L64.2402 90.7835C67.7712 90.7566 71.3157 90.4331 74.8602 89.7997C74.6648 89.5638 74.4761 89.3213 74.2874 89.0787C93.5396 85.1501 101.606 75.9789 99.7727 61.3831C98.2296 49.0582 98.1016 42.8183 98.1016 42.8116C97.4816 42.4477 97.084 42.5555 96.9088 43.1283C96.5719 42.9329 95.9452 43.0205 95.0355 43.3911C92.3468 45.8035 89.5436 44.9005 86.6258 40.6889C79.9209 29.3883 74.4694 29.4153 70.2578 40.7698C69.3548 42.4612 68.3642 43.7011 67.286 44.4962C65.278 46.821 63.0003 46.8615 60.6149 44.4558C59.503 43.8021 60.251 44.9544 59.0245 43.7213C49.1188 34.0986 44.6175 38.5326 41.8479 49.7725C41.5312 51.1539 38.4517 53.5461 37.0837 53.9841L37.0972 53.9774Z" fill="#000072"/>
</g>
<path fill-rule="evenodd" clip-rule="evenodd" d="M32.4543 58.8696C30.8573 63.1081 29.8398 66.0192 29.395 67.6028C31.5851 71.6392 33.7549 74.5907 35.918 76.4573C34.0851 70.7497 32.926 64.8467 32.4543 58.8696Z" fill="#7636FF"/>
<path d="M36.1875 77.0502C35.9584 77.1513 35.6888 77.1176 35.4934 76.9492C33.2832 75.0421 31.0392 72.003 28.829 67.9127C28.7481 67.7645 28.7279 67.5893 28.7751 67.4208C29.2198 65.8238 30.2575 62.8723 31.8479 58.6337C31.9557 58.3439 32.2522 58.1755 32.5554 58.2159C32.8586 58.2563 33.0945 58.5057 33.1147 58.8156C33.5797 64.7321 34.732 70.6014 36.5446 76.2484C36.6322 76.5246 36.5244 76.8346 36.2818 76.9963C36.2549 77.0165 36.2212 77.03 36.1875 77.0502ZM30.1026 67.5219C31.585 70.2308 33.0675 72.4343 34.5298 74.1257C33.3842 70.0758 32.5621 65.9383 32.077 61.7604C31.1201 64.3682 30.4597 66.2955 30.1026 67.5219Z" fill="#232323"/>
<path fill-rule="evenodd" clip-rule="evenodd" d="M105.083 54.9342L100.015 47.7846C100.966 53.034 101.714 58.0744 102.199 62.8992L105.083 54.9342Z" fill="#7636FF"/>
<path d="M102.468 63.499C102.36 63.5461 102.239 63.5664 102.118 63.5529C101.814 63.5124 101.579 63.2699 101.545 62.9666C101.093 58.4248 100.379 53.4989 99.3683 47.8992C99.3144 47.6027 99.4694 47.3062 99.7457 47.1849C99.7457 47.1849 99.7524 47.1849 99.7591 47.1849C100.042 47.0636 100.372 47.1579 100.548 47.4072L105.615 54.5569C105.736 54.7321 105.77 54.9545 105.696 55.1566L102.812 63.1216C102.751 63.2901 102.623 63.4248 102.461 63.499H102.468ZM101.168 50.5339C101.74 53.9167 102.199 57.0569 102.549 60.0219L104.355 55.0286L101.168 50.5272V50.5339Z" fill="#232323"/>
<path d="M97.0166 45.069C97.677 45.069 95.46 58.4788 89.7928 60.9383C86.3562 62.2524 82.4208 59.9949 77.6364 54.9208C72.5892 49.5636 68.5865 47.1849 65.0488 47.9598C61.4504 48.7415 58.0945 52.7577 54.3816 60.1701C50.8506 67.2254 47.3533 68.1958 44.0379 66.5314C41.8883 65.4532 34.1726 55.9855 34.3747 54.5771C34.8532 54.3076 42.5756 63.5529 44.9408 64.7322C47.2117 65.871 49.7387 64.9411 52.5891 59.2604C56.5851 51.282 60.3587 46.9221 64.6175 45.9922C68.9369 45.0488 73.5259 47.6296 79.0987 53.5461C83.2766 57.9801 86.5381 60.0219 89.0651 59.0583C94.6446 56.9289 96.1945 44.7321 97.0098 45.0622L97.0166 45.069Z" fill="#232323"/>
<path fill-rule="evenodd" clip-rule="evenodd" d="M72.6904 66.5987L67.2591 57.3804L63.7483 67.5152L69.4289 75.6824L72.6904 66.5987Z" fill="#7636FF"/>
<g opacity="0.3">
<path fill-rule="evenodd" clip-rule="evenodd" d="M69.0583 71.7403C67.3669 70.1028 65.6823 68.4586 63.9909 66.8211L63.7483 67.5152L69.4289 75.6891L72.6904 66.5987L72.3332 65.9922C71.2416 67.906 70.1499 69.8265 69.0516 71.7403H69.0583Z" fill="#000072"/>
</g>
<g opacity="0.45">
<path fill-rule="evenodd" clip-rule="evenodd" d="M66.3696 66.9896L68.6742 66.7537L67.5421 58.627L67.4006 57.6162L67.2928 57.9127L64.0718 67.2254L66.3696 66.9896Z" fill="white"/>
</g>
<g opacity="0.3">
<path fill-rule="evenodd" clip-rule="evenodd" d="M68.6741 66.7538L69.604 73.3845L69.8466 75.1298L73.0137 66.309L70.2644 66.592L68.6741 66.7538Z" fill="white"/>
</g>
<path d="M69.6985 76.2821C69.6446 76.309 69.5772 76.3225 69.5166 76.336C69.274 76.3697 69.0314 76.2618 68.8899 76.0597L63.2092 67.8858C63.088 67.7106 63.061 67.495 63.1284 67.2995L66.6392 57.1647C66.72 56.9221 66.9424 56.7537 67.1917 56.7267C67.4478 56.6998 67.6904 56.8278 67.8184 57.0434L73.2497 66.2618C73.3508 66.4303 73.3643 66.6324 73.3036 66.8144L70.0422 75.9047C69.9815 76.0732 69.8535 76.2079 69.6918 76.2821H69.6985ZM64.4761 67.4141L69.2403 74.2672L71.9694 66.6594L67.4141 58.9235L64.4761 67.4074V67.4141Z" fill="#232323"/>
<path d="M77.7038 54.9949C77.2861 54.631 77.2389 53.9908 77.6095 53.573C77.9734 53.1552 78.6068 53.1081 79.0313 53.4787C79.5367 53.9167 80.0287 54.2941 80.5071 54.604L80.561 54.6377C81.8885 55.4868 83.1014 55.8372 84.2066 55.6957C85.3184 55.5542 86.3764 54.9005 87.3804 53.7415C87.7174 53.3507 88.0476 52.9127 88.3643 52.4275C90.7363 48.7482 88.216 61.9221 79.4761 56.3224L79.4222 56.2887C78.8561 55.9248 78.2901 55.4935 77.7106 54.9949H77.7038Z" fill="#232323"/>
<path d="M54.3076 56.0327C54.5704 55.5407 55.1769 55.3588 55.6688 55.6216C56.1608 55.8844 56.3427 56.4909 56.0799 56.9828C55.561 57.9464 55.0287 58.7753 54.4694 59.4491C53.3912 60.7631 52.2187 61.5718 50.9451 61.8885C46.7739 62.4141 43.6876 56.2416 46.4976 58.5529C46.9693 58.937 47.4141 59.247 47.8453 59.4761C48.7887 59.9815 49.658 60.1365 50.4599 59.9343C51.2955 59.7321 52.1109 59.1391 52.906 58.1755C53.3845 57.5893 53.8494 56.875 54.3009 56.0394L54.3076 56.0327Z" fill="#232323"/>
<path fill-rule="evenodd" clip-rule="evenodd" d="M62.4411 38.3169C64.8872 37.2185 67.7645 38.3169 68.8629 40.763C69.9613 43.2091 68.8629 46.0865 66.4168 47.1849C63.9707 48.2833 61.0933 47.1849 59.995 44.7388C58.8966 42.2927 59.995 39.4153 62.4343 38.3169H62.4411Z" fill="url(#paint1_linear_69_1942)"/>
<path d="M66.7739 47.9733C63.8898 49.2671 60.4936 47.9733 59.1998 45.0892C57.906 42.2051 59.1998 38.8088 62.0839 37.515C64.968 36.2212 68.3642 37.515 69.658 40.3991C70.9518 43.2832 69.658 46.6795 66.7739 47.9733ZM62.7982 39.1121C60.7968 40.0083 59.8938 42.3735 60.7968 44.3816C61.693 46.383 64.0583 47.286 66.0596 46.383C68.061 45.48 68.964 43.1215 68.061 41.1134C67.1648 39.1121 64.7995 38.2091 62.7914 39.1121H62.7982Z" fill="#232323"/>
<g opacity="0.3">
<path fill-rule="evenodd" clip-rule="evenodd" d="M61.1471 44.9477C61.794 46.4841 63.3169 47.4746 64.9814 47.4477C66.6525 47.4207 68.135 46.383 68.7348 44.8196C69.3345 43.263 68.9234 41.4975 67.697 40.3587C68.1822 42.0905 67.5218 43.9436 66.0461 44.9746C64.5703 46.0056 62.6094 45.9922 61.1404 44.9477" fill="#000072"/>
</g>
<g opacity="0.65">
<path fill-rule="evenodd" clip-rule="evenodd" d="M62.3937 39.7118C63.5326 38.9167 64.8533 38.8425 65.3452 39.5501C65.8372 40.2576 65.3183 41.4706 64.1795 42.2657C63.0406 43.0609 61.7199 43.135 61.228 42.4275C60.7361 41.7199 61.2549 40.507 62.387 39.7118" fill="white"/>
</g>
<path fill-rule="evenodd" clip-rule="evenodd" d="M29.2062 45.4598C31.2076 44.5636 33.5593 45.4598 34.4555 47.4544C35.3518 49.4558 34.4555 51.8075 32.4609 52.7038C30.4596 53.6 28.1078 52.7038 27.2116 50.7092C26.3153 48.7145 27.2116 46.356 29.2062 45.4598Z" fill="url(#paint2_linear_69_1942)"/>
<path d="M32.8183 53.499C30.3789 54.5906 27.5083 53.499 26.4166 51.0596C25.325 48.6202 26.4166 45.7496 28.856 44.658C31.2954 43.5663 34.166 44.658 35.2576 47.0906C36.3493 49.53 35.2576 52.4006 32.8183 53.4922V53.499ZM29.5703 46.255C28.0137 46.9558 27.3129 48.7887 28.0137 50.3521C28.7145 51.9087 30.5474 52.6095 32.1107 51.9087C33.6673 51.2079 34.3682 49.375 33.6673 47.8116C32.9665 46.255 31.1336 45.5542 29.5703 46.255Z" fill="#232323"/>
<g opacity="0.3">
<path fill-rule="evenodd" clip-rule="evenodd" d="M28.1887 50.5811C28.6739 51.7334 29.8127 52.4747 31.0594 52.4545C32.306 52.4343 33.4179 51.6526 33.8693 50.4868C34.3141 49.321 34.0109 48.0003 33.0944 47.1445C33.4583 48.445 32.9596 49.8264 31.8612 50.6014C30.7561 51.3763 29.2871 51.3628 28.1955 50.5811" fill="#000072"/>
</g>
<g opacity="0.65">
<path fill-rule="evenodd" clip-rule="evenodd" d="M29.1187 46.666C29.9677 46.073 30.9583 46.0124 31.3289 46.5447C31.6995 47.0703 31.3087 47.98 30.4596 48.5798C29.6106 49.1728 28.62 49.2267 28.2494 48.7011C27.8788 48.1754 28.2696 47.2657 29.1187 46.666Z" fill="white"/>
</g>
<path fill-rule="evenodd" clip-rule="evenodd" d="M75.6083 22.2993C73.607 23.1955 72.7107 25.5473 73.6137 27.5487C74.5167 29.55 76.8617 30.4462 78.863 29.5433C80.8644 28.6403 81.7606 26.2953 80.8577 24.2939C79.9547 22.2926 77.6097 21.3963 75.6083 22.2993Z" fill="url(#paint3_linear_69_1942)"/>
<path d="M79.2201 30.3384C76.7808 31.4301 73.9101 30.3384 72.8185 27.9058C71.7268 25.4732 72.8185 22.5958 75.2578 21.5042C77.6972 20.4125 80.5679 21.5042 81.6595 23.9435C82.7512 26.3829 81.6595 29.2535 79.2201 30.3452V30.3384ZM75.9721 23.0945C74.4155 23.7953 73.7147 25.6282 74.4155 27.1915C75.1163 28.7549 76.9492 29.4489 78.5126 28.7481C80.0759 28.0473 80.77 26.2144 80.0692 24.6511C79.3684 23.0877 77.5355 22.3936 75.9721 23.0945Z" fill="#232323"/>
<g opacity="0.3">
<path fill-rule="evenodd" clip-rule="evenodd" d="M80.1162 24.9409C80.6553 26.0662 80.4532 27.4139 79.6041 28.3304C78.755 29.2468 77.4343 29.5635 76.2685 29.1188C75.096 28.674 74.3143 27.5689 74.2874 26.3223C75.0151 27.4543 76.3763 28.0069 77.6903 27.6969C79.0044 27.387 79.9747 26.2818 80.1162 24.9409Z" fill="#000072"/>
</g>
<g opacity="0.65">
<path fill-rule="evenodd" clip-rule="evenodd" d="M76.5717 23.0338C75.5609 23.2697 74.8601 23.9772 75.0083 24.6039C75.1566 25.2306 76.1 25.5473 77.104 25.3047C78.1148 25.0689 78.8156 24.3613 78.6674 23.7346C78.5191 23.1079 77.5757 22.7912 76.5717 23.0338Z" fill="white"/>
</g>
<path fill-rule="evenodd" clip-rule="evenodd" d="M95.433 35.635C97.4344 34.7387 99.7861 35.635 100.682 37.6296C101.579 39.6242 100.682 41.9827 98.6877 42.8789C96.6931 43.7752 94.3346 42.8789 93.4384 40.8843C92.5422 38.883 93.4384 36.5312 95.433 35.635Z" fill="url(#paint4_linear_69_1942)"/>
<path d="M99.0381 43.6809C96.5988 44.7725 93.7281 43.6809 92.6365 41.2415C91.5448 38.8021 92.6365 35.9315 95.0691 34.8398C97.5085 33.7482 100.379 34.8398 101.471 37.2792C102.562 39.7186 101.471 42.5892 99.0314 43.6809H99.0381ZM95.7901 36.4369C94.2335 37.1377 93.5327 38.9706 94.2335 40.5339C94.9343 42.0973 96.7672 42.7914 98.3306 42.0906C99.8872 41.3897 100.588 39.5568 99.8872 37.9935C99.1864 36.4301 97.3535 35.7361 95.7901 36.4369Z" fill="#232323"/>
<g opacity="0.3">
<path fill-rule="evenodd" clip-rule="evenodd" d="M94.4087 40.763C94.8939 41.9153 96.0327 42.6566 97.2793 42.6364C98.5327 42.6161 99.6446 41.8412 100.089 40.6687C100.534 39.5029 100.231 38.1822 99.3144 37.3264C99.6783 38.6202 99.1796 40.0083 98.0812 40.7832C96.9761 41.5582 95.5071 41.5447 94.4087 40.763Z" fill="#000072"/>
</g>
<g opacity="0.65">
<path fill-rule="evenodd" clip-rule="evenodd" d="M95.3455 36.8479C96.1945 36.2549 97.1851 36.1943 97.5557 36.7266C97.9264 37.2522 97.5355 38.1619 96.6865 38.7616C95.8374 39.3614 94.8468 39.4153 94.4762 38.8829C94.1056 38.3573 94.4964 37.4476 95.3455 36.8479Z" fill="white"/>
</g>
<path fill-rule="evenodd" clip-rule="evenodd" d="M45.7023 28.802C47.7036 27.9058 50.0554 28.802 50.9516 30.7966C51.8479 32.798 50.9516 35.1498 48.957 36.046C46.9557 36.9422 44.6039 36.046 43.7077 34.0514C42.8114 32.0568 43.7077 29.6983 45.7023 28.802Z" fill="url(#paint5_linear_69_1942)"/>
<path d="M49.3075 36.8479C46.8682 37.9396 43.9975 36.8479 42.9059 34.4085C41.8142 31.9692 42.9059 29.0985 45.3453 28.0069C47.7846 26.9152 50.6553 28.0069 51.7469 30.4463C52.8386 32.8856 51.7469 35.7563 49.3075 36.8479ZM46.0528 29.6039C44.4962 30.3048 43.7954 32.1376 44.4962 33.701C45.197 35.2576 47.0299 35.9584 48.5932 35.2576C50.1499 34.5568 50.8507 32.7239 50.1499 31.1606C49.449 29.6039 47.6161 28.9031 46.0528 29.6039Z" fill="#232323"/>
<g opacity="0.3">
<path fill-rule="evenodd" clip-rule="evenodd" d="M44.6782 33.9301C45.1634 35.0824 46.3022 35.8236 47.5489 35.8034C48.7955 35.7832 49.9074 35.0015 50.3588 33.8357C50.8036 32.67 50.5004 31.3492 49.5839 30.4934C49.9478 31.7872 49.4559 33.1754 48.3508 33.9503C47.2456 34.7252 45.7766 34.7118 44.685 33.9301" fill="#000072"/>
</g>
<g opacity="0.65">
<path fill-rule="evenodd" clip-rule="evenodd" d="M45.6148 30.0082C46.4638 29.4152 47.4544 29.3546 47.825 29.8869C48.1956 30.4125 47.8048 31.3223 46.9557 31.922C46.1067 32.5217 45.1161 32.5756 44.7455 32.0433C44.3749 31.5177 44.7657 30.608 45.6148 30.0082Z" fill="white"/>
</g>
<path d="M58.3034 114.234C50.5473 115.528 44.5163 109.874 43.7144 105.507C42.4947 98.8765 49.577 95.5005 53.7212 100.103C54.3816 93.9506 62.104 92.5288 65.0016 98.6137C66.9153 102.623 65.3453 110.736 58.3034 114.234Z" fill="#7636FF"/>
<g opacity="0.3">
<path d="M58.3036 114.234C52.8992 115.13 48.3372 112.664 45.79 109.604C48.2698 111.511 51.7941 112.731 55.8373 112.037C62.5556 108.742 64.1392 101.282 62.3737 97.6299C61.6998 96.2282 60.7227 95.2646 59.6311 94.7053C61.6863 94.7997 63.7753 96.0328 65.0017 98.607C66.9155 102.616 65.3454 110.73 58.3036 114.227V114.234Z" fill="#262F6A"/>
</g>
<g opacity="0.6">
<path d="M53.5528 99.9143C49.4221 96.7404 43.8156 99.9277 44.9409 106.053C45.4193 108.674 47.7778 111.754 51.2684 113.519C47.1175 111.909 44.2536 108.418 43.7212 105.507C42.5217 98.9708 49.3951 95.5948 53.5595 99.9143H53.5528Z" fill="white"/>
</g>
<g opacity="0.6">
<path d="M62.5286 95.6622C59.1054 94.4493 54.9949 96.5315 54.5367 100.831C54.2806 100.541 54.011 100.285 53.728 100.056C54.2671 95.2781 59.0717 93.3778 62.5286 95.6622Z" fill="white"/>
</g>
<path d="M46.5648 111.404C44.6376 109.652 43.364 107.536 43.0136 105.629C42.4004 102.28 43.7548 99.2471 46.4772 97.9062C48.7144 96.801 51.2684 97.1312 53.2765 98.7013C53.984 96.2552 55.8573 94.4897 58.3169 94.0719C61.3021 93.5665 64.1795 95.2242 65.6485 98.297C67.7038 102.603 65.9854 111.201 58.6202 114.86C58.5595 114.894 58.4921 114.914 58.418 114.928C53.5999 115.73 49.3816 113.957 46.5648 111.397V111.404ZM52.7441 100.116C51.1134 98.6407 48.9638 98.2633 47.1039 99.1798C45.4058 100.015 43.8088 102.084 44.4085 105.373C45.1632 109.483 50.8573 114.685 58.0811 113.546C64.5973 110.238 66.1606 102.684 64.3614 98.9102C62.9261 95.8913 60.4194 95.1568 58.5528 95.4735C56.3156 95.8576 54.6983 97.6973 54.4288 100.17C54.4018 100.447 54.2064 100.682 53.9436 100.77C53.6808 100.858 53.3843 100.777 53.1956 100.568C53.0541 100.406 52.8991 100.258 52.7441 100.116Z" fill="#232323"/>
<g opacity="0.25">
<path d="M49.0313 108.46C49.9907 108.149 50.3845 106.712 49.9108 105.25C49.4372 103.787 48.2753 102.854 47.3159 103.165C46.3564 103.476 45.9626 104.913 46.4363 106.375C46.91 107.837 48.0718 108.771 49.0313 108.46Z" fill="white"/>
</g>
<g opacity="0.25">
<path d="M52.6002 110.031C52.7838 109.473 52.3595 108.831 51.6524 108.599C50.9453 108.366 50.2232 108.631 50.0396 109.189C49.8559 109.748 50.2802 110.389 50.9873 110.622C51.6944 110.854 52.4165 110.59 52.6002 110.031Z" fill="white"/>
</g>
<path d="M97.5959 105.083C89.8398 106.377 83.8088 100.723 83.0069 96.3563C81.7872 89.7255 88.8695 86.3495 93.0137 90.952C93.6741 84.7996 101.396 83.3778 104.294 89.4627C106.208 93.4722 104.638 101.585 97.5959 105.083Z" fill="#7636FF"/>
<g opacity="0.3">
<path d="M97.5961 105.083C92.1917 105.979 87.6297 103.513 85.0825 100.453C87.5623 102.36 91.0866 103.58 95.1297 102.886C101.848 99.5908 103.432 92.1312 101.666 88.4789C100.992 87.0772 100.015 86.1136 98.9236 85.5543C100.979 85.6487 103.068 86.8818 104.294 89.456C106.208 93.4654 104.638 101.579 97.5961 105.076V105.083Z" fill="#262F6A"/>
</g>
<g opacity="0.6">
<path d="M92.8453 90.7633C88.7145 87.5894 83.108 90.7767 84.2334 96.9021C84.7118 99.5234 87.0703 102.603 90.5609 104.368C86.4099 102.758 83.546 99.2673 83.0137 96.3563C81.8142 89.8199 88.6876 86.4438 92.852 90.7633H92.8453Z" fill="white"/>
</g>
<g opacity="0.6">
<path d="M101.828 86.5112C98.4047 85.2983 94.2942 87.3805 93.836 91.6797C93.5799 91.3899 93.3104 91.1339 93.0273 90.9048C93.5664 86.1271 98.371 84.2268 101.828 86.5112Z" fill="white"/>
</g>
<path d="M85.8576 102.253C83.9303 100.501 82.6567 98.3846 82.3063 96.4776C81.6931 93.1285 83.0476 90.0961 85.77 88.7552C88.0072 87.65 90.5611 87.9802 92.5692 89.5503C93.2767 87.1042 95.1501 85.3387 97.6096 84.9209C100.595 84.4155 103.472 86.0732 104.941 89.146C106.996 93.4519 105.278 102.05 97.9129 105.709C97.8522 105.743 97.7848 105.763 97.7107 105.777C92.8926 106.579 88.6743 104.806 85.8576 102.246V102.253ZM92.0368 90.9654C90.4061 89.4897 88.2565 89.1123 86.3966 90.0287C84.6985 90.8643 83.1015 92.9331 83.7012 96.2215C84.4559 100.332 90.15 105.534 97.3738 104.395C103.89 101.087 105.453 93.5328 103.654 89.7592C102.219 86.7403 99.7121 86.0058 97.8455 86.3225C95.6083 86.7066 93.991 88.5463 93.7215 91.0193C93.6945 91.2956 93.4991 91.5315 93.2363 91.6191C92.9735 91.7067 92.677 91.6258 92.4883 91.4169C92.3468 91.2552 92.1918 91.1069 92.0368 90.9654Z" fill="#232323"/>
<g opacity="0.25">
<path d="M88.3216 99.3093C89.281 98.9985 89.6748 97.5612 89.2011 96.0989C88.7274 94.6367 87.5656 93.7033 86.6062 94.0142C85.6467 94.325 85.2529 95.7623 85.7266 97.2245C86.2003 98.6868 87.3621 99.6201 88.3216 99.3093Z" fill="white"/>
</g>
<g opacity="0.25">
<path d="M91.9002 100.893C92.0839 100.334 91.6595 99.6929 90.9525 99.4605C90.2454 99.228 89.5233 99.4923 89.3396 100.051C89.156 100.61 89.5803 101.251 90.2874 101.483C90.9945 101.716 91.7165 101.451 91.9002 100.893Z" fill="white"/>
</g>
</g>
<path d="M76.8548 163.304C117.644 163.304 150.71 130.238 150.71 89.4493C150.71 48.6604 117.644 15.5944 76.8548 15.5944C36.0659 15.5944 3 48.6604 3 89.4493C3 130.238 36.0659 163.304 76.8548 163.304Z" stroke="#232323" stroke-width="5.06" stroke-linecap="round" stroke-linejoin="round"/>
<defs>
<linearGradient id="paint0_linear_69_1942" x1="64.2972" y1="28.1004" x2="72.2843" y2="98.4801" gradientUnits="userSpaceOnUse">
<stop stop-color="#FFCC00"/>
<stop offset="1" stop-color="#FF9966"/>
</linearGradient>
<linearGradient id="paint1_linear_69_1942" x1="62.2694" y1="38.2823" x2="67.6183" y2="49.3614" gradientUnits="userSpaceOnUse">
<stop stop-color="#FFCC00"/>
<stop offset="1" stop-color="#FF9966"/>
</linearGradient>
<linearGradient id="paint2_linear_69_1942" x1="28.102" y1="45.6244" x2="34.8883" y2="54.2119" gradientUnits="userSpaceOnUse">
<stop stop-color="#FFCC00"/>
<stop offset="1" stop-color="#FF9966"/>
</linearGradient>
<linearGradient id="paint3_linear_69_1942" x1="75.7164" y1="22.6898" x2="79.0896" y2="29.8768" gradientUnits="userSpaceOnUse">
<stop stop-color="#FFCC00"/>
<stop offset="1" stop-color="#FF9966"/>
</linearGradient>
<linearGradient id="paint4_linear_69_1942" x1="95.5725" y1="35.73" x2="98.6472" y2="43.0583" gradientUnits="userSpaceOnUse">
<stop stop-color="#FFCC00"/>
<stop offset="1" stop-color="#FF9966"/>
</linearGradient>
<linearGradient id="paint5_linear_69_1942" x1="45.3318" y1="29.0138" x2="50.5126" y2="37.9082" gradientUnits="userSpaceOnUse">
<stop stop-color="#FFCC00"/>
<stop offset="1" stop-color="#FF9966"/>
</linearGradient>
</defs>
</svg>
