<svg width="245" height="202" viewBox="0 0 245 202" fill="none" xmlns="http://www.w3.org/2000/svg">
<path d="M159.42 66.44C159.23 66.36 159.01 66.28 158.79 66.2C158.83 66.1 160.54 62.38 159.84 59.15C159.84 59.15 156.44 57.75 155.05 55.58C154.96 55.44 154.87 55.24 154.76 54.97C154.11 53.27 153.14 49.1 151.61 44.59C149.56 38.54 146.51 31.88 141.87 29.76C141.87 29.76 143.69 28.25 143.11 24.83C142.93 23.79 142.54 22.57 141.8 21.17L141.78 21.16C142.68 19.49 143.44 16.92 142.47 13.69C142.47 13.69 139 14.77 136.57 17.59C138.99 8.37003 143.19 1.95 143.32 1.75C143.32 1.75 130.55 3.14998 117 19.1V19.2C115.08 19.19 112.82 19.3 110.31 19.62C108.62 19.83 106.8 20.15 104.9 20.59C101.99 21.27 99.4 22.12 97.17 23.01C95.79 23.56 94.54 24.13 93.43 24.68L93.39 24.6C74.19 16.28 62.12 20.66 62.12 20.66C62.12 20.66 68.85 24.57 75.19 31.89C71.76 30.43 68.17 30.99 68.17 30.99C68.72 34.31 70.55 36.28 72.09 37.39L72.08 37.4C72.06 38.13 72.09 38.79 72.15 39.39C72.69 44.4 75.81 45.15 75.81 45.15C72.58 49.1 72.79 56.42 73.62 62.75C74.19 67.07 75.05 70.93 75.32 72.94C75.39 73.47 75.42 73.88 75.39 74.13C75.1 76.69 72.67 79.45 72.67 79.45C73.49 82.7 76.73 85.31 76.73 85.31C75.85 86.18 75.39 87 75.39 87C78.86 92.42 84.28 95.58 90.23 97.34C104.89 101.66 122.8 97.45 122.8 97.45C122.8 97.45 131.51 95.44 140.59 90.72C149.35 86.17 158.47 79.09 160.46 68.84C160.57 68.28 160.66 67.71 160.72 67.14C160.74 67.13 160.23 66.78 159.42 66.44ZM127.2 86.42C127.11 86.69 127.01 86.97 126.91 87.25C126.57 88.16 126.18 89.1 125.72 90.04C124.09 93.35 119.86 94.33 116.95 92.08C115.87 91.25 114.89 90.37 114.02 89.49L113.82 89.29C110.55 85.96 108.77 82.75 108.77 82.75C112.98 82.81 115.74 80.51 117.13 78.94C117.82 78.16 118.08 77.09 117.85 76.07C118.09 77.09 118.79 77.94 119.76 78.33C121.69 79.12 125.19 79.96 128.94 78.05C128.93 78.05 128.75 81.86 127.2 86.42Z" fill="#2D2D2D"/>
<path d="M158.66 121.58C158.66 121.98 158.63 122.37 158.58 122.74C158.2 125.29 156.49 127.2 151.8 126.39L151.32 126.34C150.67 127.97 149.41 129.32 147.16 129.78C146.35 129.94 145.4 129.99 144.31 129.89C143.66 130.75 142.62 131.41 141.02 131.68C135.63 132.59 132.83 129.51 131.69 127.74C131.69 127.74 129.31 127.93 125.42 128.17C117.88 128.63 104.69 129.29 92.34 129.1C90.93 129.08 89.52 129.05 88.15 129C87.71 126.69 87.48 124.25 87.4 121.8C87.33 119.77 87.37 117.72 87.47 115.73C87.6 113.31 87.84 110.95 88.12 108.79C88.41 106.57 88.74 104.54 89.06 102.83C89.69 99.47 90.24 97.34 90.24 97.34C92.15 97.9 94.12 98.32 96.09 98.62C109.26 100.63 122.81 97.45 122.81 97.45C122.81 97.45 124.53 97.06 127.24 96.2C130.63 95.13 135.56 93.35 140.61 90.72C140.61 90.72 146.28 98.62 148.56 107.45C148.83 108.5 149.06 109.55 149.22 110.61C156.27 112.26 156.86 113.93 156.86 113.93C156.86 113.93 157.22 114.73 157.61 115.93C158.12 117.44 158.68 119.6 158.66 121.58Z" fill="#2D2D2D"/>
<path d="M167.2 96.41C167.2 96.41 166.76 96.79 165.97 97.4L165.96 97.43C163.79 96.68 161.31 98.26 161.31 100.77V100.8C157.81 103.17 153.16 105.92 148.56 107.45C147.67 104 146.26 100.71 144.88 97.96C142.71 93.66 140.6 90.72 140.6 90.72C145.95 87.94 151.44 84.21 155.35 79.4C157.84 76.34 159.69 72.83 160.47 68.85C160.47 68.85 169.66 63.74 170.43 73.91C170.43 73.91 182.01 70.87 177.31 82.94C177.31 82.93 189.07 93.94 167.2 96.41Z" fill="#2D2D2D"/>
<path d="M73.6301 62.74C73.6301 62.74 59.5201 48.05 62.1301 20.64C62.1301 20.64 68.8601 24.55 75.2001 31.87C71.7701 30.41 68.1801 30.97 68.1801 30.97C68.7301 34.29 70.5601 36.26 72.1001 37.37L72.0901 37.38C71.9001 44.18 75.8201 45.12 75.8201 45.12C72.5901 49.08 72.8001 56.41 73.6301 62.74Z" fill="white"/>
<path d="M151.61 44.59C149.56 38.54 146.51 31.88 141.87 29.76C141.87 29.76 144.97 27.19 141.8 21.17L141.78 21.16C142.68 19.49 143.44 16.92 142.47 13.69C142.47 13.69 139 14.77 136.57 17.59C139.02 8.22003 143.33 1.73999 143.33 1.73999C157.78 25.17 151.61 44.59 151.61 44.59Z" fill="white"/>
<path d="M160.74 67.13C160.67 67.71 160.59 68.27 160.48 68.83C158.49 79.07 149.38 86.15 140.61 90.71C131.53 95.43 122.82 97.44 122.82 97.44C122.82 97.44 104.91 101.65 90.2501 97.33C84.3001 95.58 78.8801 92.41 75.4101 86.99C75.4101 86.99 75.8701 86.17 76.7501 85.3C76.7501 85.3 73.5101 82.69 72.6901 79.44C72.6901 79.44 75.1301 76.68 75.4101 74.12C75.4401 73.87 75.4101 73.47 75.3401 72.93C77.3101 71.17 80.5501 68.94 83.7001 69.72C88.7001 70.95 109.11 72.85 116.01 71.26C122.91 69.68 138.9 60.66 145.3 55.61C147.56 53.83 151.11 54 154.77 54.96C154.87 55.23 154.97 55.44 155.06 55.57C156.45 57.74 159.85 59.14 159.85 59.14C160.54 62.37 158.84 66.1 158.8 66.19C159.96 66.6 160.74 67.13 160.74 67.13Z" fill="white"/>
<path d="M128.93 78.05C128.93 78.05 128.75 81.86 127.2 86.42C127.2 86.42 124.21 85.1 120.16 86.04C116.11 86.98 114.01 89.49 114.01 89.49C110.61 86.09 108.76 82.75 108.76 82.75C112.97 82.81 115.73 80.51 117.12 78.94C117.81 78.16 118.07 77.09 117.84 76.07C118.08 77.09 118.78 77.94 119.75 78.33C121.69 79.12 125.19 79.97 128.93 78.05Z" fill="#232323"/>
<path d="M4.64003 155.95C4.52003 155.83 4.40003 155.69 4.28003 155.55C2.82003 153.83 1.48003 150.87 2.10003 145.89C2.39003 143.57 3.16003 141.33 4.50003 139.42C6.80003 136.17 9.46003 135.4 11.49 135.42C11.49 135.42 13.51 151.13 4.64003 155.95Z" fill="#FFD00D"/>
<path d="M7.17001 157.69C7.17001 157.69 5.92001 157.28 4.64001 155.95C13.51 151.13 11.49 135.42 11.49 135.42C13.38 135.44 14.73 136.14 14.73 136.14C14.73 136.14 17.04 153.54 7.17001 157.69Z" fill="#A50862"/>
<path d="M183.13 123.09C177.19 124.85 168.3 125.56 168.3 125.56C168.3 125.56 165.53 123.66 161.31 122.98V100.77C161.31 98.26 163.8 96.68 165.96 97.43C166.31 97.55 166.64 97.73 166.96 97.97C172.11 101.94 179.45 109.65 183.13 123.09Z" fill="#FFAEDC"/>
<path d="M242.61 157.62C241.46 161.52 239.09 164.41 237.5 166C236.59 166.93 235.93 167.41 235.93 167.41C220.26 154.95 219.98 139.55 219.98 139.55C219.98 139.55 221.52 139.15 223.81 138.88C225.14 138.73 226.72 138.62 228.4 138.68C228.41 138.68 231.42 149.86 242.61 157.62Z" fill="#FFAEDC"/>
<path d="M242.61 157.62C231.42 149.87 228.41 138.68 228.41 138.68C233.62 138.84 239.75 140.49 242.12 146.88C243.64 150.98 243.5 154.6 242.61 157.62Z" fill="#FFD00D"/>
<path d="M79.5101 128.5C79.5101 128.5 60.2301 135.13 53.6501 121.53C53.6501 121.53 53.3401 106.28 62.0401 103.62C64.3101 102.93 66.5801 104.29 68.7001 106.67C74.7101 113.44 79.5101 128.5 79.5101 128.5Z" fill="#FF0086"/>
<path d="M94.09 185.36C83.5 184.94 76.37 184.29 76.37 184.29C76.73 183.84 77.01 183.32 77.19 182.76C85.57 156.64 51.48 138.34 28.57 150.56C9.27001 160.86 9.78001 178.49 10.58 184.47C10.61 184.67 10.65 184.86 10.71 185.04L10.22 185.16H5.1C1.11 173.17 4.29001 155.55 4.29001 155.55C5.68001 157.19 7.18001 157.69 7.18001 157.69C15.08 154.37 15.18 142.56 14.9 137.98C14.83 136.84 14.74 136.14 14.74 136.14C26.85 121.45 53.65 121.53 53.65 121.53C54.41 123.1 55.34 124.39 56.38 125.47C64.42 133.7 79.51 128.51 79.51 128.51C81.97 128.72 84.6 128.87 87.32 128.97C87.6 128.98 87.88 128.99 88.16 129C89.54 129.05 90.94 129.08 92.35 129.1C92.14 130.43 87.19 162.2 94.09 185.36Z" fill="#FF0086"/>
<path d="M237.5 166C236.58 166.92 235.93 167.41 235.93 167.41C220.26 154.95 219.98 139.55 219.98 139.55C219.98 139.55 221.52 139.15 223.81 138.88L223.78 138.64C209.44 125.01 183.13 123.09 183.13 123.09C178.26 124.53 171.4 125.27 169.09 125.49C168.59 125.54 168.3 125.56 168.3 125.56C167.05 132.38 161.48 135.35 154.67 135.35C147.86 135.35 147.17 129.77 147.17 129.77C146.36 129.93 145.41 129.98 144.32 129.88C143.67 130.74 142.63 131.4 141.03 131.67C135.64 132.58 132.84 129.5 131.7 127.73C131.7 127.73 125.78 128.2 117.4 128.59C110.14 128.93 101.04 129.22 92.35 129.08C92.14 130.41 87.19 162.19 94.09 185.35C111.66 186.05 138.74 186.13 158.56 181.55C158.24 180.9 157.96 180.13 157.73 179.23C157.73 179.23 152.11 145.22 192.86 145.22C212.5 145.22 221.26 156.78 225.09 168.49C226.32 172.22 227.04 175.96 227.45 179.35C227.51 179.83 227.5 180.29 227.44 180.75L227.78 180.8C235.8 178.28 237.29 171.53 237.51 168.08C237.6 166.83 237.5 166 237.5 166ZM109.55 140.68L98.43 141.14C97.03 141.14 95.9 140.01 95.9 138.61C95.9 137.91 96.18 137.28 96.64 136.82C97.1 136.36 97.73 136.08 98.43 136.08L109.66 137.27C110.53 137.36 111.19 138.09 111.19 138.97C111.19 139.88 110.47 140.64 109.55 140.68Z" fill="#FF0086"/>
<path d="M77.19 182.76C77.01 183.32 76.73 183.84 76.37 184.29C75.65 185.2 74.62 185.83 73.45 186.01C73.23 186.04 73.01 186.06 72.79 186.06C71.49 186.05 70.3 185.32 70.09 182.81C70.05 182.27 69.98 181.62 69.87 180.89C68.85 173.77 64.16 159.03 41.41 159.03C21.25 159.03 17.39 175.92 16.66 182.54C16.48 184.16 16.49 185.16 16.49 185.16C16.49 185.16 15.95 186.85 14.18 187.19C13.72 187.28 13.26 187.25 12.83 187.13C11.84 186.85 11.02 186.06 10.69 185.05C10.63 184.87 10.59 184.68 10.56 184.48C9.76003 178.49 9.25004 160.86 28.55 150.57C51.48 138.34 85.57 156.64 77.19 182.76Z" fill="#A50862"/>
<path d="M227.44 180.76C227.19 182.45 226.12 183.94 224.58 184.67C224.19 184.85 223.78 184.99 223.33 185.07C223.19 185.1 223.04 185.12 222.89 185.14C220.08 185.47 217.56 183.38 217.25 180.58C217.24 180.54 217.24 180.5 217.24 180.46C216.67 173.83 213.06 157.01 191.24 157.01C170.29 157.01 168.01 172.63 168.06 179.8C168.06 180.28 168 180.74 167.87 181.19C167.19 183.63 164.7 185.31 162.11 184.67C162.08 184.66 162.04 184.65 162.01 184.64C160.72 184.29 159.47 183.4 158.56 181.56C158.24 180.91 157.96 180.14 157.73 179.24C157.73 179.24 152.11 145.23 192.86 145.23C218.74 145.23 225.73 165.32 227.45 179.36C227.51 179.84 227.51 180.31 227.44 180.76Z" fill="#A50862"/>
<path d="M54.59 174.54C54.59 180.94 49.4 186.14 42.99 186.14C36.59 186.14 31.39 180.95 31.39 174.54C31.39 168.13 36.58 162.94 42.99 162.94C49.39 162.94 54.59 168.14 54.59 174.54Z" fill="white"/>
<path d="M204.18 174.54C204.18 180.94 198.99 186.14 192.58 186.14C186.18 186.14 180.98 180.95 180.98 174.54C180.98 168.13 186.17 162.94 192.58 162.94C198.99 162.94 204.18 168.14 204.18 174.54Z" fill="white"/>
<path d="M87.3201 128.96C84.6001 128.86 81.9801 128.71 79.5101 128.5C79.5101 128.5 74.7201 113.45 68.7001 106.67C68.7001 106.67 69.2501 102.2 72.3001 100.87C75.3401 99.54 82.4801 105.14 87.3201 128.96Z" fill="#595989"/>
<path d="M41.42 159.03C21.26 159.03 17.4 175.92 16.67 182.54C20.76 193.08 31 200.56 42.98 200.56C55.59 200.56 66.2601 192.29 69.8801 180.89C68.8601 173.77 64.18 159.03 41.42 159.03ZM42.9901 186.14C36.5901 186.14 31.39 180.95 31.39 174.54C31.39 168.13 36.5801 162.94 42.9901 162.94C49.4001 162.94 54.59 168.13 54.59 174.54C54.59 180.95 49.3901 186.14 42.9901 186.14Z" fill="#595989"/>
<path d="M168.3 125.56C167.05 132.38 161.48 135.35 154.67 135.35C147.86 135.35 147.17 129.77 147.17 129.77C149.42 129.32 150.67 127.97 151.33 126.33L151.81 126.38C156.49 127.19 158.21 125.28 158.59 122.73C159.55 122.74 160.47 122.83 161.32 122.97C165.53 123.66 168.3 125.56 168.3 125.56Z" fill="#595989"/>
<path d="M217.24 180.46C216.67 173.83 213.06 157.01 191.24 157.01C170.29 157.01 168.01 172.63 168.06 179.8C168.06 180.28 168 180.74 167.87 181.19C170.95 191.87 180.8 199.68 192.48 199.68C204.38 199.68 214.37 191.57 217.25 180.58C217.25 180.54 217.24 180.5 217.24 180.46ZM192.58 186.14C186.18 186.14 180.98 180.95 180.98 174.54C180.98 168.13 186.17 162.94 192.58 162.94C198.99 162.94 204.18 168.13 204.18 174.54C204.18 180.95 198.99 186.14 192.58 186.14Z" fill="#595989"/>
<path d="M111.19 138.97C111.19 139.88 110.47 140.64 109.56 140.68L98.44 141.14C97.04 141.14 95.91 140.01 95.91 138.61C95.91 137.91 96.19 137.28 96.65 136.82C97.11 136.36 97.74 136.08 98.44 136.08L109.67 137.27C110.53 137.36 111.19 138.09 111.19 138.97Z" fill="#595989"/>
<path d="M158.79 66.21C158.83 66.11 160.54 62.39 159.84 59.16C159.84 59.16 156.44 57.76 155.05 55.59C154.96 55.45 154.87 55.25 154.76 54.98C151.1 54.02 147.55 53.85 145.29 55.63C143.36 57.15 140.56 59.04 137.39 60.97C132.9 63.71 127.16 63.24 123.14 59.86C119.68 56.96 116.56 53.76 114.41 51.4C113.06 49.93 110.63 50.42 109.96 52.29C108.76 55.65 106.85 60.41 104.38 64.8C101.98 69.07 97.2601 71.49 92.3901 70.99C88.5301 70.59 85.3101 70.13 83.6901 69.73C80.5401 68.95 77.3001 71.19 75.3301 72.94C75.4001 73.47 75.4301 73.88 75.4001 74.13C75.1101 76.69 72.6801 79.45 72.6801 79.45C73.5001 82.7 76.7401 85.31 76.7401 85.31C75.8601 86.18 75.4001 87 75.4001 87C78.8701 92.42 84.2901 95.58 90.2401 97.34C104.9 101.66 122.81 97.45 122.81 97.45C122.81 97.45 131.52 95.44 140.6 90.72C149.36 86.17 158.48 79.09 160.47 68.84C160.58 68.28 160.67 67.71 160.73 67.14C160.74 67.13 159.96 66.6 158.79 66.21ZM115.94 71.28C115.98 71.27 116 71.26 116 71.26L115.06 66.45L116.01 71.26C116 71.26 116 71.26 115.99 71.26C115.98 71.28 115.96 71.28 115.94 71.28Z" fill="white"/>
<path d="M149.22 110.61C141.22 109.45 129.56 105.19 127.44 102.52C126.05 100.76 126.66 97.93 127.24 96.19C130.63 95.12 135.56 93.34 140.61 90.71C140.61 90.71 146.28 98.61 148.56 107.44C148.84 108.49 149.06 109.55 149.22 110.61Z" fill="white"/>
<path d="M167.2 96.41C167.2 96.41 157.98 92.32 155.36 79.39C157.85 76.33 159.7 72.82 160.48 68.84C160.48 68.84 169.67 63.73 170.44 73.9C170.44 73.9 182.02 70.86 177.32 82.93C177.31 82.93 189.07 93.94 167.2 96.41Z" fill="white"/>
<path d="M164.12 87.86C166.672 87.86 168.74 85.7915 168.74 83.24C168.74 80.6884 166.672 78.62 164.12 78.62C161.568 78.62 159.5 80.6884 159.5 83.24C159.5 85.7915 161.568 87.86 164.12 87.86Z" fill="#FF4D96"/>
<path d="M164.39 76.01C165.599 76.01 166.58 75.0295 166.58 73.82C166.58 72.6105 165.599 71.63 164.39 71.63C163.18 71.63 162.2 72.6105 162.2 73.82C162.2 75.0295 163.18 76.01 164.39 76.01Z" fill="#FF4D96"/>
<path d="M172.67 81.15C173.879 81.15 174.86 80.1695 174.86 78.96C174.86 77.7505 173.879 76.77 172.67 76.77C171.46 76.77 170.48 77.7505 170.48 78.96C170.48 80.1695 171.46 81.15 172.67 81.15Z" fill="#FF4D96"/>
<path d="M172.67 90.71C173.879 90.71 174.86 89.7295 174.86 88.52C174.86 87.3105 173.879 86.33 172.67 86.33C171.46 86.33 170.48 87.3105 170.48 88.52C170.48 89.7295 171.46 90.71 172.67 90.71Z" fill="#FF4D96"/>
<path d="M89.0701 102.82C88.7601 104.53 88.4201 106.55 88.1301 108.78C91.2401 108.5 93.8601 107.67 95.4001 107.08C96.0201 106.84 96.0601 105.99 95.4801 105.68C93.1901 104.45 90.8401 103.48 89.0701 102.82Z" fill="white"/>
<path d="M87.4101 121.79C90.4001 121.35 92.8901 120.43 94.3601 119.8C94.9601 119.54 94.9801 118.69 94.3901 118.4C91.8801 117.2 89.3201 116.3 87.4901 115.72C87.3801 117.71 87.3401 119.75 87.4101 121.79Z" fill="white"/>
<g opacity="0.3">
<path d="M120.83 88.54C123.18 87.99 125.16 88.21 126.42 88.48C126.71 87.78 126.97 87.09 127.2 86.42C127.2 86.42 124.21 85.1 120.16 86.04C116.11 86.98 114.01 89.49 114.01 89.49C114.53 90.01 115.09 90.53 115.68 91.04C116.67 90.23 118.4 89.11 120.83 88.54Z" fill="#000566"/>
</g>
<g opacity="0.3">
<path d="M160.74 67.13C160.67 67.71 160.59 68.27 160.48 68.83C158.49 79.07 149.38 86.15 140.61 90.71C131.53 95.43 122.82 97.44 122.82 97.44C122.82 97.44 104.91 101.65 90.2501 97.33C84.3001 95.58 78.8801 92.41 75.4101 86.99C75.4101 86.99 75.8701 86.17 76.7501 85.3C76.7501 85.3 73.5101 82.69 72.6901 79.44C72.6901 79.44 75.1301 76.68 75.4101 74.12C75.4401 73.87 75.4101 73.47 75.3401 72.93C75.0701 70.91 74.2101 67.06 73.6401 62.74C72.8101 56.41 72.6101 49.08 75.8301 45.14C75.8301 45.14 70.7601 91.9 113.81 89.29C115.96 89.16 118.22 88.91 120.61 88.52C122.81 88.16 124.91 87.74 126.91 87.25C143.61 83.23 153.53 75.04 159.42 66.44C160.23 66.78 160.74 67.13 160.74 67.13Z" fill="black"/>
</g>
<g opacity="0.3">
<path d="M70.18 30.88C71.53 30.9 73.39 31.11 75.2 31.88C68.85 24.56 62.13 20.65 62.13 20.65C62.02 21.77 61.95 22.86 61.89 23.94C63.82 25.27 66.91 27.6 70.18 30.88Z" fill="black"/>
</g>
<g opacity="0.3">
<path d="M75.8201 45.14C75.8201 45.14 71.9001 44.2 72.0901 37.4L72.1001 37.39C70.8801 36.51 69.4901 35.1 68.6901 32.91C68.6701 32.91 68.6601 32.91 68.6401 32.91C67.1601 32.82 66.1501 34.37 66.7901 35.71C67.6101 37.45 68.8101 38.62 69.8701 39.39L69.8601 39.4C69.6701 46.2 73.5901 47.14 73.5901 47.14C71.2801 49.97 70.7301 54.53 70.9101 59.22C72.4901 61.56 73.6301 62.75 73.6301 62.75C72.8001 56.41 72.5901 49.08 75.8201 45.14Z" fill="black"/>
</g>
<g opacity="0.3">
<path d="M144.9 4.41998C144.4 3.52998 143.88 2.63999 143.33 1.73999C143.33 1.73999 139.03 8.22003 136.57 17.59C137.86 16.1 139.43 15.09 140.63 14.48C142.03 10.16 143.7 6.65998 144.9 4.41998Z" fill="black"/>
</g>
<g opacity="0.3">
<path d="M145.04 29.69C145.04 29.69 148.14 27.12 144.97 21.1L144.95 21.09C145.52 20.04 146.03 18.62 146.09 16.9C146.15 15.19 144.29 14.07 142.82 14.96L142.77 14.99C143.22 17.61 142.55 19.72 141.77 21.16L141.79 21.17C144.96 27.19 141.86 29.76 141.86 29.76C146.5 31.88 149.55 38.54 151.6 44.59C151.6 44.59 152.24 42.56 152.63 39.02C150.75 34.86 148.28 31.17 145.04 29.69Z" fill="black"/>
</g>
<g opacity="0.3">
<path d="M74.66 39.34C74.04 39.55 73.12 39.71 72.15 39.38C72.09 38.78 72.06 38.12 72.08 37.39C72.08 37.39 73.41 38.27 74.41 38.61L74.66 38.7C74.97 38.81 74.97 39.24 74.66 39.34Z" fill="black"/>
</g>
<g opacity="0.3">
<path d="M68.1801 30.98C68.1801 30.98 70.6101 31.87 72.9701 33.39C73.6001 33.8 74.1901 34.27 74.7101 34.82C75.4901 35.64 76.7501 37.06 77.8301 38.73C78.2201 39.34 79.1701 39.11 79.2401 38.38C79.2801 37.96 79.2901 37.48 79.2501 36.92L75.2101 31.87C75.2001 31.88 71.1401 30.69 68.1801 30.98Z" fill="black"/>
</g>
<g opacity="0.3">
<path d="M87.3701 28.37C87.3701 28.37 87.3901 28.09 87.4801 27.71C87.7201 26.69 87.2201 25.63 86.2601 25.2C82.5001 23.51 73.5301 20.16 62.1301 20.64C62.1301 20.64 74.2101 16.26 93.4001 24.58C93.4001 24.59 89.4901 26.43 87.3701 28.37Z" fill="black"/>
</g>
<g opacity="0.3">
<path d="M143.33 1.73999C129.85 9.18999 125.1 14.68 123.6 16.88C123.25 17.39 123.23 18.04 123.54 18.58C123.86 19.13 124.1 19.82 124.1 19.82C121.49 19.05 117.01 19.1 117.01 19.1C130.56 3.13998 143.33 1.73999 143.33 1.73999Z" fill="black"/>
</g>
<g opacity="0.3">
<path d="M131.7 127.73C131.7 127.73 111.07 129.37 92.3501 129.09C90.9401 129.07 89.5301 129.04 88.1601 128.99C87.7201 126.68 87.4901 124.24 87.4101 121.79C87.3401 119.76 87.3801 117.71 87.4801 115.72C87.6101 113.3 87.8501 110.94 88.1301 108.78C88.4201 106.56 88.7501 104.53 89.0701 102.82C89.7001 99.46 90.2501 97.33 90.2501 97.33C92.1601 97.89 94.1301 98.31 96.1001 98.61C93.2201 110.51 98.2601 117.61 102.35 121.22C103.27 122.03 104.66 121.15 104.34 119.97C103.19 115.74 104.54 111.22 104.54 111.22C109 128.03 131.7 127.73 131.7 127.73Z" fill="black"/>
</g>
<g opacity="0.3">
<path d="M158.58 122.74C158.2 125.29 156.49 127.2 151.8 126.39L151.32 126.34C150.67 127.97 149.41 129.32 147.16 129.78C146.35 129.94 145.4 129.99 144.31 129.89C143.66 130.75 142.62 131.41 141.02 131.68C135.63 132.59 132.83 129.51 131.69 127.74C142.5 130.33 144.9 124.8 144.9 124.8C149.4 125.45 151.96 120.98 151.96 120.98C156.12 119.56 157.28 117.06 157.6 115.93C158.22 117.75 158.91 120.49 158.58 122.74Z" fill="black"/>
</g>
<g opacity="0.3">
<path d="M167.2 96.41C167.2 96.41 166.76 96.79 165.97 97.4L165.96 97.43C163.79 96.68 161.31 98.26 161.31 100.77V100.8C157.81 103.17 153.16 105.92 148.56 107.45C147.67 104 146.26 100.71 144.88 97.96L158.63 91.91C160.27 91.19 162.09 90.93 163.87 91.21C168.89 91.98 179.47 92.54 177.31 82.94C177.31 82.93 189.07 93.94 167.2 96.41Z" fill="black"/>
</g>
<g opacity="0.3">
<path d="M10.6101 175.19L10.21 175.29C7.02005 175.29 4.30005 172.97 3.78005 169.82C3.52005 168.23 3.35005 166.62 3.24005 165C2.88005 171.03 3.00005 178.87 5.10005 185.16H10.2201L10.71 185.04C10.65 184.86 10.6101 184.67 10.5801 184.47C10.3001 182.46 10.0701 179.12 10.6101 175.19Z" fill="#000566"/>
</g>
<g opacity="0.3">
<path d="M157.62 171.89C137.89 176.26 111.38 176.18 94.09 175.49C86.92 175.2 81.34 174.81 78.48 174.59C78.5 177.2 78.09 179.94 77.19 182.76C77.01 183.32 76.73 183.84 76.37 184.29C76.37 184.29 83.5 184.94 94.09 185.37C111.66 186.07 138.74 186.15 158.56 181.57C158.24 180.92 157.96 180.15 157.73 179.25C157.73 179.24 157.23 176.18 157.62 171.89Z" fill="#000566"/>
</g>
<g opacity="0.3">
<path d="M72.8 186.06C71.5 186.05 70.31 185.32 70.1 182.81C70.06 182.27 69.99 181.62 69.88 180.89C68.86 173.77 64.17 159.03 41.42 159.03C21.26 159.03 17.4 175.92 16.67 182.54C16.49 184.16 16.5 185.16 16.5 185.16C16.5 185.16 15.96 186.85 14.19 187.19C13.73 187.28 13.27 187.25 12.84 187.13C12.83 181.09 14.3 154.41 41.2 154.41C65.76 154.41 73.9 167.71 72.8 186.06Z" fill="#000566"/>
</g>
<g opacity="0.3">
<path d="M224.58 184.67C224.19 184.85 223.78 184.99 223.33 185.07C223.19 185.1 223.04 185.12 222.89 185.14C220.08 185.47 217.56 183.38 217.25 180.58C217.24 180.54 217.24 180.5 217.24 180.46C216.67 173.83 213.06 157.01 191.24 157.01C170.29 157.01 168.01 172.63 168.06 179.8C168.06 180.28 168 180.74 167.87 181.19C167.19 183.63 164.7 185.31 162.11 184.67C162.08 184.66 162.04 184.65 162.01 184.64C161.48 174.67 163.27 151.51 191.31 151.51C216.16 151.5 222.82 172.11 224.58 184.67Z" fill="#000566"/>
</g>
<g opacity="0.3">
<path d="M17.07 183.51C18.52 175.87 23.6 162.68 41.42 162.68C61.86 162.68 67.72 174.58 69.44 182.16C69.6 181.74 69.75 181.32 69.8801 180.89C68.8601 173.77 64.17 159.03 41.42 159.03C21.26 159.03 17.4 175.92 16.67 182.54C16.8 182.87 16.93 183.19 17.07 183.51Z" fill="#000566"/>
</g>
<g opacity="0.3">
<path d="M217.24 180.46C216.67 173.83 213.06 157.01 191.24 157.01C170.29 157.01 168.01 172.63 168.06 179.8C168.06 180.28 168 180.74 167.87 181.19C167.95 181.46 168.03 181.72 168.12 181.98C168.6 174.24 172.25 161.4 191.24 161.4C210.33 161.4 215.48 174.27 216.85 181.94C216.99 181.49 217.13 181.04 217.25 180.59C217.25 180.54 217.24 180.5 217.24 180.46Z" fill="#000566"/>
</g>
<g opacity="0.3">
<path d="M42.99 181.75C37.34 181.75 32.63 177.7 31.6 172.35C31.46 173.06 31.39 173.79 31.39 174.54C31.39 180.94 36.58 186.14 42.99 186.14C49.4 186.14 54.59 180.95 54.59 174.54C54.59 173.79 54.52 173.06 54.38 172.35C53.35 177.7 48.64 181.75 42.99 181.75Z" fill="#000566"/>
</g>
<g opacity="0.3">
<path d="M192.58 181.75C186.93 181.75 182.22 177.7 181.19 172.35C181.05 173.06 180.98 173.79 180.98 174.54C180.98 180.94 186.17 186.14 192.58 186.14C198.99 186.14 204.18 180.95 204.18 174.54C204.18 173.79 204.11 173.06 203.97 172.35C202.94 177.7 198.24 181.75 192.58 181.75Z" fill="#000566"/>
</g>
<g opacity="0.3">
<path d="M42.9901 193.25C31.8501 193.25 22.22 186.79 17.63 177.41C17.1 179.4 16.82 181.19 16.67 182.55C20.76 193.09 31 200.57 42.98 200.57C55.59 200.57 66.2601 192.3 69.8801 180.9C69.6901 179.59 69.3801 178.01 68.8501 176.32C64.5001 186.28 54.5601 193.25 42.9901 193.25Z" fill="#000566"/>
</g>
<g opacity="0.3">
<path d="M216.42 175.5C212.75 185.15 203.42 192 192.48 192C181.38 192 171.94 184.94 168.38 175.06C168.12 176.83 168.05 178.46 168.06 179.8C168.06 180.28 168 180.74 167.87 181.19C170.95 191.87 180.8 199.68 192.48 199.68C204.38 199.68 214.37 191.57 217.25 180.58C217.24 180.54 217.24 180.5 217.24 180.46C217.13 179.14 216.89 177.41 216.42 175.5Z" fill="#000566"/>
</g>
<g opacity="0.3">
<path d="M62.2201 106.14C62.7901 105.18 63.4701 104.31 64.2701 103.57C63.5301 103.39 62.7801 103.39 62.0401 103.62C53.3401 106.28 53.6501 121.53 53.6501 121.53C60.2301 135.13 79.5101 128.5 79.5101 128.5C79.5101 128.5 79.4301 128.26 79.2901 127.84C78.1401 128 76.8701 128.12 75.5501 128.16C64.0101 128.46 56.3101 116.05 62.2201 106.14Z" fill="#000566"/>
</g>
<g opacity="0.3">
<path d="M83.5001 127.68C83.5001 127.68 79.5801 115.37 74.3801 108C72.9701 106 72.9701 103.26 74.5501 101.39C74.6301 101.29 74.7201 101.2 74.8001 101.11C73.8201 100.63 72.9601 100.59 72.3001 100.88C69.2501 102.21 68.7001 106.68 68.7001 106.68C74.7201 113.45 79.5101 128.51 79.5101 128.51C81.9701 128.72 84.6001 128.87 87.3201 128.97C87.2501 128.62 87.1801 128.28 87.1101 127.95C85.8701 127.86 84.6601 127.78 83.5001 127.68Z" fill="#000566"/>
</g>
<g opacity="0.3">
<path d="M148.93 132.56C150.99 132.15 152.21 130.99 152.9 129.54C153.02 129.29 153.29 129.14 153.56 129.17C157.91 129.92 159.7 128.33 160.23 126.06C160.3 125.75 160.58 125.53 160.89 125.54C161.65 125.57 162.37 125.65 163.06 125.77C165.03 126.09 166.67 126.67 167.88 127.2C168.04 126.68 168.18 126.13 168.29 125.56C168.29 125.56 165.52 123.66 161.3 122.98C160.45 122.84 159.53 122.75 158.57 122.74C158.19 125.29 156.48 127.2 151.79 126.39L151.31 126.34C150.66 127.97 149.4 129.32 147.15 129.78C147.15 129.78 147.4 131.84 149.13 133.46C148.97 132.92 148.93 132.56 148.93 132.56Z" fill="#000566"/>
</g>
<g opacity="0.3">
<path d="M237.51 168.09C237.29 171.54 235.8 178.29 227.78 180.81L227.44 180.76C227.51 180.31 227.51 179.84 227.45 179.36C227.03 175.97 226.31 172.23 225.09 168.5C228.76 169.23 233.25 169.5 237.51 168.09Z" fill="#000566"/>
</g>
<g opacity="0.3">
<path d="M237.83 161.11C237.82 161.12 237.81 161.13 237.8 161.14C236.96 161.99 235.61 162.02 234.7 161.24C225.56 153.35 222.23 144.56 221.01 139.33C220.36 139.46 219.98 139.56 219.98 139.56C219.98 139.56 220.25 154.96 235.93 167.42C235.93 167.42 236.58 166.93 237.5 166.01C239.09 164.42 241.46 161.53 242.61 157.63C242.15 157.31 241.7 156.98 241.26 156.65C240.14 158.59 238.83 160.11 237.83 161.11Z" fill="#000566"/>
</g>
<g opacity="0.3">
<path d="M11.4901 135.42C10.7101 135.41 9.85007 135.52 8.94007 135.84C9.14007 139.96 8.90007 149.45 3.07007 153.69C3.43007 154.43 3.85007 155.05 4.28007 155.55C4.40007 155.69 4.52007 155.82 4.64007 155.95C13.5101 151.13 11.4901 135.42 11.4901 135.42Z" fill="#000566"/>
</g>
<g opacity="0.3">
<path d="M169.09 125.49C169 125.84 168.88 126.21 168.74 126.58C162.92 141.93 150.31 137.7 146.41 135.94C145.64 135.59 144.77 135.53 143.96 135.75C136.26 137.9 132.17 134.58 130.61 132.82C130.06 132.19 129.31 131.78 128.49 131.63C125.18 131.04 120.46 129.59 117.4 128.59C125.78 128.2 131.7 127.73 131.7 127.73C132.84 129.5 135.64 132.58 141.03 131.67C142.64 131.4 143.67 130.74 144.32 129.88C145.41 129.98 146.36 129.93 147.17 129.77C147.17 129.77 147.85 135.35 154.67 135.35C161.49 135.35 167.05 132.37 168.3 125.56C168.3 125.56 168.59 125.54 169.09 125.49Z" fill="black"/>
</g>
<g opacity="0.3">
<path d="M112.14 141.21C112.14 142.24 111.33 143.09 110.3 143.13L97.7901 143.65C96.2201 143.65 94.9501 142.37 94.9501 140.81C94.9501 140.02 95.2701 139.31 95.7801 138.8C96.2901 138.29 97.0101 137.96 97.7901 137.96L110.42 139.3C111.4 139.4 112.14 140.22 112.14 141.21Z" fill="#000566"/>
</g>
<g opacity="0.3">
<path d="M7.17001 157.69C7.17001 157.69 5.92001 157.28 4.64001 155.95C13.51 151.13 11.49 135.42 11.49 135.42C13.38 135.44 14.73 136.14 14.73 136.14C14.73 136.14 17.04 153.54 7.17001 157.69Z" fill="#000566"/>
</g>
<g opacity="0.7">
<path d="M160 59.15C160 59.15 154.59 61.53 151.98 55.58C149.37 49.62 149.86 42.35 141.86 29.76C146.54 31.88 149.63 38.54 151.69 44.59C153.23 49.1 154.21 53.27 154.86 54.97C154.96 55.24 155.06 55.45 155.15 55.58C156.57 57.75 160 59.15 160 59.15Z" fill="white"/>
</g>
<g opacity="0.7">
<path d="M158.66 121.58C156.42 113.99 149.22 113.23 149.22 113.23C130.95 110.77 126.29 101.37 126.29 101.37C133.6 107.98 149.22 110.6 149.22 110.6C156.27 112.25 156.86 113.92 156.86 113.92C156.86 113.92 157.22 114.72 157.61 115.92C158.12 117.44 158.68 119.6 158.66 121.58Z" fill="white"/>
</g>
<g opacity="0.7">
<path d="M145.65 108.31C145.8 108.88 145.93 109.45 146.05 110.03C147.15 110.27 148.21 110.46 149.22 110.61C149.06 109.55 148.84 108.49 148.56 107.45C146.27 98.62 140.61 90.72 140.61 90.72C139.73 91.18 138.86 91.61 137.99 92.01C139.18 93.75 143.68 100.68 145.65 108.31Z" fill="white"/>
</g>
<g opacity="0.7">
<path d="M28.5601 150.56C27.4301 151.16 26.3601 151.8 25.3601 152.45C25.4601 152.4 25.5601 152.34 25.6601 152.29C48.5801 140.07 82.6601 158.38 74.2801 184.49C74.1001 185.05 73.8301 185.56 73.4701 186.01C74.6301 185.83 75.6501 185.19 76.3701 184.29C76.7301 183.84 77.0101 183.32 77.1901 182.76C85.5701 156.64 51.4801 138.34 28.5601 150.56Z" fill="white"/>
</g>
<g opacity="0.7">
<path d="M227.45 179.36C225.73 165.31 218.74 145.23 192.86 145.23C178.03 145.23 169.35 149.73 164.3 155.46C169.56 150.82 177.8 147.42 190.67 147.42C216.55 147.42 223.54 167.51 225.26 181.55C225.32 182.03 225.31 182.49 225.25 182.95C225.16 183.53 224.98 184.09 224.71 184.6C226.18 183.84 227.2 182.4 227.44 180.76C227.51 180.31 227.51 179.84 227.45 179.36Z" fill="white"/>
</g>
<g opacity="0.7">
<path d="M65.24 107.61C71.07 114.17 75.75 128.49 76.04 129.39C78.15 128.96 79.5 128.49 79.5 128.49C79.5 128.49 74.71 113.44 68.69 106.66C66.57 104.27 64.29 102.91 62.03 103.61C61.39 103.81 60.8 104.07 60.25 104.4C61.95 104.59 63.64 105.81 65.24 107.61Z" fill="white"/>
</g>
<g opacity="0.7">
<path d="M166.96 97.97C166.64 97.73 166.31 97.55 165.96 97.43C164.95 97.08 163.87 97.24 163 97.77C163.1 97.83 163.2 97.9 163.3 97.98C168.45 101.94 175.79 109.66 179.47 123.1C175.76 124.2 170.91 124.89 167.78 125.25C168.12 125.44 168.3 125.57 168.3 125.57C168.3 125.57 177.2 124.86 183.13 123.1C179.45 109.65 172.11 101.94 166.96 97.97Z" fill="white"/>
</g>
<g opacity="0.7">
<path d="M223.82 138.88L223.79 138.64C209.45 125.01 183.14 123.09 183.14 123.09C177.2 124.85 168.31 125.56 168.31 125.56C173.04 128.15 183.57 126.97 183.57 126.97C185.14 127.06 186.68 127.21 188.19 127.42C189.02 127.53 189.77 127.96 190.31 128.6C191.63 130.16 195.44 132.09 200.16 133.44C204.31 134.63 208.1 135.06 210.27 134.73C210.94 134.63 211.63 134.75 212.24 135.05C217.12 137.51 220 139.56 220 139.56C220 139.56 221.53 139.15 223.82 138.88Z" fill="white"/>
</g>
<g opacity="0.7">
<path d="M242.12 146.88C239.75 140.5 233.62 138.84 228.41 138.68C228.41 138.68 228.58 139.32 229 140.4C233.42 141.06 237.89 143.11 239.83 148.34C240.91 151.26 241.15 153.94 240.87 156.33C241.43 156.77 242 157.2 242.61 157.61C243.5 154.6 243.64 150.98 242.12 146.88Z" fill="white"/>
</g>
<g opacity="0.7">
<path d="M56.3701 125.46C34.2001 125.57 19.9401 134.29 14.8901 137.98C14.8201 136.84 14.7301 136.14 14.7301 136.14C26.8401 121.45 53.6401 121.53 53.6401 121.53C54.4001 123.09 55.3301 124.39 56.3701 125.46Z" fill="white"/>
</g>
<g opacity="0.3">
<path d="M126.69 150.98C126.69 150.98 143.78 153.9 152.71 149.28C161.63 144.65 147.93 167.33 127.24 156.8C110.05 148.05 126.69 150.98 126.69 150.98Z" fill="white"/>
</g>
<g opacity="0.3">
<path d="M109.06 158.07C111.74 157.62 116.23 157.3 121.47 158.66C122.73 158.99 122.79 160.76 121.55 161.15C120.24 161.56 118.35 161.99 115.65 162.36C111.97 162.86 109.72 162.14 108.37 161.21C107.08 160.33 107.53 158.33 109.06 158.07Z" fill="white"/>
</g>
<path d="M127.2 86.42C126.81 87.59 126.31 88.82 125.72 90.04C124.09 93.35 119.86 94.33 116.95 92.08C115.87 91.25 114.89 90.37 114.02 89.49C114.02 89.49 116.12 86.98 120.17 86.04C124.21 85.1 127.2 86.42 127.2 86.42Z" fill="#FF4D96"/>
<path d="M4.64005 156.87C4.32005 156.87 4.00005 156.7 3.84005 156.39C3.60005 155.95 3.76005 155.39 4.21005 155.15C12.4301 150.69 10.6101 135.69 10.5901 135.54C10.5301 135.04 10.8801 134.58 11.3801 134.52C11.8801 134.46 12.3401 134.81 12.4001 135.31C12.4901 135.98 14.3901 151.7 5.07006 156.76C4.94006 156.83 4.79005 156.87 4.64005 156.87Z" fill="#232323"/>
<path d="M123.11 98.69C120.93 99.17 118.82 99.51 116.66 99.8C114.51 100.08 112.35 100.29 110.18 100.42C108.01 100.55 105.84 100.59 103.66 100.54C101.48 100.48 99.3 100.32 97.13 100.05C94.96 99.78 92.79 99.34 90.66 98.77C90.13 98.61 89.59 98.49 89.07 98.3L87.5 97.77C86.47 97.36 85.43 96.96 84.43 96.45L83.68 96.08L82.95 95.66L82.22 95.24L81.86 95.03L81.51 94.79L80.12 93.84L78.8 92.78C77.09 91.3 75.59 89.58 74.34 87.69C74.07 87.28 74.07 86.77 74.3 86.37V86.36C74.5 86.03 74.67 85.82 74.87 85.58C75.07 85.35 75.28 85.13 75.5 84.92C75.94 84.5 76.44 84.14 76.96 83.83C77.48 83.51 78.06 83.28 78.64 83.13C79.23 82.97 79.85 82.95 80.43 83.01C80.59 83.03 80.71 83.17 80.69 83.33C80.68 83.43 80.62 83.51 80.54 83.55L80.51 83.57C80.03 83.84 79.6 84.09 79.21 84.4C78.82 84.7 78.46 85.02 78.13 85.38C77.8 85.73 77.5 86.11 77.23 86.49C77.09 86.69 76.96 86.88 76.83 87.08C76.7 87.26 76.57 87.5 76.49 87.64L76.46 86.32C77.57 88 78.9 89.53 80.43 90.85L81.61 91.8L82.87 92.66L83.18 92.87L83.51 93.06L84.17 93.44L84.83 93.82L85.52 94.15C86.43 94.62 87.39 94.99 88.34 95.37L89.81 95.87C90.3 96.04 90.8 96.16 91.3 96.31C93.3 96.85 95.34 97.27 97.42 97.52C99.49 97.78 101.59 97.93 103.69 97.99C105.79 98.04 107.9 97.99 110 97.87C112.1 97.75 114.21 97.55 116.3 97.27C118.38 96.99 120.5 96.65 122.5 96.21L122.53 96.2C123.22 96.05 123.9 96.48 124.06 97.17C124.23 97.85 123.8 98.54 123.11 98.69Z" fill="#232323"/>
<path d="M75.9399 86.3C75.7899 86.18 72.3499 83.38 71.4399 79.75C71.3399 79.34 71.4399 78.91 71.7199 78.59C72.3199 77.9 73.9299 75.73 74.1299 73.97C74.1799 73.53 73.8299 71.63 73.5199 69.95C72.2599 63.1 70.1999 51.94 73.9399 45.59C72.5199 44.56 70.6699 42.27 70.7999 37.36L73.3599 37.43C73.2099 43.04 76.0799 43.88 76.1099 43.89C76.5399 43.99 76.8799 44.31 77.0299 44.73C77.1799 45.15 77.0899 45.61 76.8099 45.95C72.6399 51.06 74.8499 63.05 76.0399 69.5C76.5299 72.17 76.7699 73.49 76.6799 74.27C76.4299 76.48 74.8999 78.71 74.1099 79.73C75.0299 82.25 77.5299 84.3 77.5499 84.32L75.9399 86.3Z" fill="#232323"/>
<path d="M73.63 64.02C73.29 64.02 72.96 63.89 72.71 63.63C72.12 63.01 58.22 48.19 60.86 20.52C60.91 20.03 61.23 19.61 61.7 19.44C62.21 19.25 74.48 14.98 93.92 23.41C94.57 23.69 94.87 24.44 94.59 25.09C94.31 25.74 93.55 26.04 92.91 25.76C77.07 18.89 66.22 20.88 63.34 21.62C61.19 47.52 74.43 61.71 74.57 61.85C75.06 62.36 75.04 63.17 74.53 63.66C74.27 63.9 73.95 64.02 73.63 64.02Z" fill="#232323"/>
<path d="M62.78 19.54C64.62 20.66 66.26 21.86 67.89 23.15C69.51 24.43 71.07 25.79 72.55 27.24C73.31 27.95 74.01 28.71 74.73 29.45C75.42 30.22 76.13 30.97 76.78 31.78C78.13 33.35 79.33 35.05 80.5 36.77L78.36 36.76C78.59 36.46 78.84 36.18 79.1 35.9C79.36 35.62 79.63 35.36 79.91 35.1C80.2 34.85 80.47 34.58 80.78 34.34C81.08 34.09 81.39 33.85 81.72 33.64C81.88 33.54 82.09 33.58 82.19 33.74C82.25 33.83 82.26 33.94 82.23 34.03V34.04C82.11 34.41 81.98 34.76 81.85 35.12C81.72 35.48 81.57 35.82 81.44 36.17C81.3 36.52 81.15 36.86 80.99 37.2C80.83 37.53 80.67 37.87 80.49 38.18C80.15 38.77 79.4 38.97 78.81 38.63C78.65 38.54 78.52 38.41 78.42 38.27L78.35 38.17C77.24 36.54 76.1 34.93 74.81 33.43C74.19 32.66 73.51 31.94 72.85 31.2C72.16 30.49 71.49 29.76 70.76 29.08C69.34 27.7 67.85 26.39 66.29 25.16C64.75 23.94 63.1 22.75 61.48 21.76L61.44 21.73C60.84 21.36 60.65 20.57 61.01 19.97C61.38 19.36 62.17 19.17 62.78 19.54Z" fill="#232323"/>
<path d="M74.4 38.83C73.44 38.8 72.55 38.51 71.71 38.07C70.88 37.63 70.12 37.03 69.46 36.33C68.8 35.63 68.21 34.83 67.8 33.95C67.35 33.08 67.1 32.13 66.92 31.19C66.78 30.52 67.21 29.87 67.88 29.73L67.95 29.72H67.98C68.37 29.67 68.66 29.64 69 29.62C69.32 29.6 69.65 29.59 69.97 29.59C70.62 29.59 71.26 29.63 71.9 29.71C72.54 29.78 73.19 29.9 73.82 30.07C74.46 30.22 75.08 30.45 75.7 30.7C76.36 30.96 76.67 31.71 76.41 32.36C76.15 33.01 75.41 33.33 74.75 33.07L74.69 33.05C74.2 32.86 73.7 32.67 73.18 32.55C72.66 32.42 72.13 32.32 71.59 32.25C71.05 32.18 70.5 32.15 69.96 32.15C69.69 32.15 69.41 32.16 69.14 32.17C68.88 32.18 68.58 32.21 68.38 32.24L69.44 30.77C69.54 31.14 69.58 31.52 69.69 31.89C69.81 32.25 69.88 32.63 70.04 32.97C70.29 33.69 70.65 34.36 71.08 35C71.5 35.65 72.03 36.23 72.62 36.78C73.2 37.34 73.84 37.87 74.52 38.4L74.54 38.42C74.64 38.5 74.66 38.65 74.58 38.75C74.54 38.8 74.47 38.84 74.4 38.83Z" fill="#232323"/>
<path d="M87.1699 28.12C88.2099 26.75 89.5099 25.71 90.8899 24.79C91.2399 24.56 91.5899 24.34 91.9499 24.14C92.3099 23.93 92.6599 23.72 93.0299 23.53C93.7499 23.13 94.49 22.76 95.24 22.41C96.74 21.72 98.2699 21.08 99.8399 20.58C101.41 20.05 103.01 19.65 104.63 19.33C105.32 19.2 106 19.65 106.13 20.34C106.26 20.99 105.87 21.61 105.26 21.81L105.21 21.83C104.46 22.07 103.7 22.27 102.95 22.5C102.2 22.74 101.44 22.95 100.7 23.21C99.1999 23.68 97.7399 24.24 96.2699 24.81C94.8099 25.39 93.37 26.03 91.96 26.71C90.53 27.37 89.08 28.03 87.57 28.62L87.5499 28.63C87.3799 28.7 87.1899 28.61 87.1299 28.45C87.0799 28.33 87.0999 28.21 87.1699 28.12Z" fill="#232323"/>
<path d="M122.53 96.19C124.52 95.7 126.57 95.0799 128.56 94.4099C130.56 93.7299 132.53 92.99 134.47 92.17C136.41 91.35 138.32 90.46 140.18 89.49C142.04 88.51 143.85 87.45 145.59 86.3C147.34 85.16 148.99 83.88 150.54 82.51C150.92 82.16 151.32 81.83 151.68 81.46L152.78 80.37C153.47 79.6 154.17 78.85 154.77 78.03L155.24 77.43L155.67 76.8L156.1 76.17L156.31 75.85L156.5 75.52L157.25 74.2L157.89 72.82C158.68 70.96 159.2 69 159.45 67L160 68.2C159.87 68.11 159.65 67.96 159.45 67.85C159.25 67.73 159.04 67.61 158.83 67.5C158.41 67.27 157.98 67.07 157.53 66.9C157.08 66.73 156.62 66.6 156.13 66.5C155.64 66.39 155.14 66.36 154.6 66.33H154.57C154.41 66.32 154.29 66.18 154.3 66.02C154.31 65.92 154.36 65.84 154.44 65.79C154.94 65.48 155.5 65.22 156.1 65.11C156.69 64.99 157.32 64.94 157.92 65C158.53 65.04 159.13 65.16 159.71 65.33C160 65.42 160.29 65.52 160.57 65.64C160.86 65.77 161.11 65.88 161.43 66.09C161.84 66.36 162.03 66.83 161.98 67.29C161.7 69.54 161.11 71.75 160.23 73.83L159.52 75.37L158.69 76.84L158.48 77.21L158.25 77.56L157.78 78.26L157.31 78.96L156.8 79.62C156.13 80.52 155.38 81.3399 154.63 82.1599L153.45 83.33C153.06 83.73 152.63 84.08 152.23 84.45C150.57 85.91 148.83 87.26 146.99 88.45C145.16 89.66 143.28 90.76 141.35 91.78C139.42 92.79 137.44 93.71 135.44 94.55C133.44 95.39 131.41 96.16 129.35 96.86C127.28 97.56 125.24 98.19 123.07 98.71C122.38 98.88 121.69 98.46 121.52 97.77C121.35 97.08 121.77 96.3899 122.46 96.2199L122.53 96.19Z" fill="#232323"/>
<path d="M159.94 66.74L157.62 65.66C157.63 65.63 158.97 62.69 158.68 60.02C157.52 59.45 155.16 58.13 153.96 56.26C153.54 55.6 153.16 54.31 152.43 51.7C150.65 45.39 147.34 33.65 141.34 30.92C140.94 30.74 140.66 30.36 140.6 29.92C140.54 29.48 140.71 29.05 141.05 28.77C141.12 28.7 143.26 26.69 140.67 21.76L142.93 20.57C145.22 24.92 144.57 27.79 143.75 29.34C149.92 33.38 153 44.31 154.89 51.01C155.35 52.65 155.88 54.51 156.12 54.89C157.08 56.39 159.48 57.62 160.32 57.97C160.71 58.13 161 58.47 161.08 58.89C161.87 62.54 160.02 66.57 159.94 66.74Z" fill="#232323"/>
<path d="M151.61 45.87C151.48 45.87 151.35 45.85 151.22 45.81C150.55 45.6 150.17 44.88 150.39 44.2C150.47 43.94 156.03 25.39 142.69 3.15001C139.78 3.77001 129.12 6.80997 117.99 19.92C117.53 20.46 116.72 20.52 116.19 20.07C115.65 19.61 115.59 18.8 116.04 18.27C129.76 2.12001 142.65 0.529957 143.19 0.469957C143.67 0.419957 144.16 0.649994 144.42 1.06999C159.01 24.73 153.09 44.16 152.83 44.98C152.66 45.52 152.16 45.87 151.61 45.87Z" fill="#232323"/>
<path d="M144.4 2.45002C143.38 4.05002 142.43 5.84 141.59 7.62C140.74 9.41 139.97 11.24 139.31 13.11C138.96 14.04 138.68 14.99 138.37 15.93C138.11 16.88 137.81 17.83 137.6 18.8C137.11 20.72 136.79 22.67 136.52 24.62L136.5 24.73C136.4 25.4 135.78 25.86 135.11 25.77C134.93 25.74 134.75 25.67 134.61 25.57C134.31 25.37 134.02 25.14 133.73 24.91C133.44 24.68 133.16 24.44 132.88 24.19C132.6 23.93 132.32 23.69 132.04 23.43C131.76 23.17 131.49 22.91 131.22 22.63C131.09 22.49 131.09 22.28 131.23 22.15C131.31 22.07 131.41 22.04 131.51 22.06C131.91 22.11 132.29 22.19 132.67 22.28C133.05 22.36 133.41 22.48 133.79 22.58C134.16 22.69 134.52 22.81 134.87 22.94C135.22 23.07 135.57 23.21 135.91 23.38L133.99 24.33C134.28 22.27 134.61 20.22 135.13 18.21C135.35 17.2 135.66 16.21 135.94 15.21C136.26 14.23 136.55 13.23 136.92 12.27C137.61 10.32 138.41 8.40998 139.29 6.53998C140.18 4.65998 141.13 2.86999 142.28 1.04999C142.66 0.449994 143.45 0.279979 144.05 0.659979C144.65 1.03998 144.82 1.83 144.44 2.43L144.4 2.45002Z" fill="#232323"/>
<path d="M140.05 23.14C140.43 22.37 140.77 21.6 141.04 20.85C141.32 20.1 141.54 19.34 141.63 18.57C141.73 17.81 141.76 17.04 141.67 16.29C141.66 15.91 141.56 15.54 141.51 15.17C141.44 14.8 141.31 14.43 141.24 14.06L142.85 14.91C142.65 14.97 142.37 15.08 142.13 15.18C141.88 15.29 141.63 15.4 141.39 15.52C140.9 15.76 140.42 16.04 139.97 16.33C139.51 16.62 139.08 16.95 138.67 17.3C138.25 17.64 137.89 18.03 137.54 18.42L137.5 18.47C137.02 18.99 136.22 19.03 135.69 18.56C135.17 18.09 135.13 17.28 135.6 16.76C136.04 16.27 136.5 15.78 137.01 15.37C137.51 14.94 138.03 14.55 138.58 14.2C139.12 13.85 139.68 13.52 140.26 13.24C140.55 13.1 140.84 12.96 141.14 12.83C141.45 12.7 141.72 12.59 142.09 12.47L142.11 12.46C142.76 12.25 143.46 12.6 143.67 13.25C143.68 13.27 143.69 13.3 143.69 13.32C143.94 14.25 144.13 15.21 144.12 16.19C144.14 17.16 143.97 18.14 143.68 19.06C143.39 19.98 142.98 20.85 142.43 21.61C141.88 22.37 141.2 23.03 140.36 23.48C140.25 23.54 140.1 23.5 140.04 23.38C140 23.31 140 23.23 140.04 23.17L140.05 23.14Z" fill="#232323"/>
<path d="M124.03 20.12C122.41 20.26 120.82 20.31 119.25 20.35C117.68 20.36 116.11 20.43 114.54 20.55C112.98 20.69 111.41 20.84 109.86 21.07C109.08 21.16 108.31 21.32 107.53 21.43C106.76 21.56 105.98 21.71 105.2 21.83L105.15 21.84C104.45 21.95 103.8 21.47 103.69 20.77C103.59 20.12 104 19.51 104.62 19.34C106.21 18.91 107.83 18.56 109.47 18.34C111.1 18.09 112.76 17.99 114.41 17.95C115.24 17.94 116.06 17.94 116.89 17.98C117.3 17.99 117.72 18.02 118.13 18.05C118.54 18.07 118.95 18.11 119.36 18.16C121 18.37 122.63 18.73 124.17 19.51C124.33 19.59 124.4 19.79 124.31 19.95C124.26 20.05 124.16 20.12 124.05 20.13L124.03 20.12Z" fill="#232323"/>
<path d="M86.5099 65.71C86.3099 65.21 86.19 64.72 86.13 64.2C86.06 63.69 86.0699 63.17 86.1099 62.64C86.2099 61.59 86.5599 60.52 87.1399 59.54C87.7099 58.57 88.5399 57.69 89.4999 57.07C90.4499 56.4 91.5099 56.02 92.5599 55.74C93.0999 55.62 93.6399 55.55 94.1899 55.48H95.0399H95.46C95.6 55.49 95.7499 55.51 95.8899 55.53L96.74 55.67C97.02 55.75 97.2999 55.84 97.5799 55.93C97.8599 56.01 98.12 56.15 98.38 56.28C98.64 56.41 98.89 56.54 99.13 56.72C100.09 57.36 100.85 58.21 101.35 59.14C101.46 59.38 101.58 59.61 101.68 59.85C101.76 60.1 101.87 60.33 101.92 60.59C102.06 61.08 102.13 61.59 102.12 62.11C102.12 62.23 102.02 62.33 101.9 62.33C101.84 62.33 101.79 62.31 101.75 62.27L101.73 62.25C100.36 60.94 98.97 59.99 97.63 59.65C97.47 59.59 97.3 59.57 97.13 59.54C96.96 59.51 96.81 59.46 96.63 59.46C96.46 59.45 96.2999 59.44 96.1399 59.41L95.63 59.43H95.38L95.1199 59.46L94.6 59.52C94.25 59.59 93.8899 59.66 93.5399 59.74C92.8399 59.94 92.1499 60.14 91.5599 60.46C91.2399 60.59 90.9799 60.8 90.6799 60.96C90.5399 61.05 90.4199 61.17 90.2799 61.27C90.1299 61.36 90.01 61.49 89.88 61.61C88.83 62.54 87.9699 63.97 87.2599 65.66L87.24 65.71C87.16 65.91 86.9199 66.01 86.7199 65.92C86.6299 65.88 86.5499 65.8 86.5099 65.71Z" fill="#0C0C0C"/>
<path d="M140.09 54.03C138.71 52.83 137.31 51.92 135.95 51.55C135.78 51.5 135.62 51.44 135.45 51.42C135.28 51.4 135.12 51.34 134.95 51.32C134.61 51.31 134.28 51.23 133.94 51.26C133.27 51.23 132.56 51.36 131.85 51.49C131.5 51.57 131.15 51.67 130.8 51.76L130.31 51.94L130.06 52.02L129.84 52.13L129.38 52.34C129.25 52.43 129.1 52.52 128.96 52.6C128.8 52.67 128.69 52.79 128.55 52.89C128.41 52.99 128.26 53.08 128.15 53.21C127.09 54.11 126.26 55.57 125.61 57.35L125.6 57.37C125.56 57.48 125.43 57.54 125.32 57.5C125.27 57.48 125.22 57.44 125.2 57.39C124.96 56.92 124.8 56.44 124.71 55.93C124.65 55.68 124.64 55.4199 124.6 55.1599C124.58 54.8999 124.59 54.64 124.58 54.37C124.62 53.31 124.92 52.2099 125.5 51.2199C125.63 50.9599 125.8 50.73 125.98 50.5C126.16 50.27 126.33 50.03 126.54 49.84C126.74 49.63 126.95 49.43 127.17 49.24L127.87 48.74C127.99 48.66 128.11 48.57 128.23 48.5L128.61 48.31L129.37 47.94C129.89 47.76 130.41 47.58 130.94 47.45C132.01 47.24 133.13 47.11 134.27 47.29C135.4 47.42 136.53 47.84 137.48 48.46C138.43 49.08 139.22 49.89 139.77 50.79C140.04 51.25 140.28 51.71 140.44 52.2C140.62 52.69 140.72 53.1799 140.77 53.7199C140.79 53.9399 140.63 54.13 140.41 54.15C140.3 54.16 140.2 54.12 140.12 54.06L140.09 54.03Z" fill="#0C0C0C"/>
<path d="M116.08 68.51C116.08 68.51 113.16 69.19 111.31 70.37C110.62 70.81 110.4 71.73 110.85 72.42C111.81 73.9 113.94 76.2101 117.68 75.3401C121.41 74.4701 122.31 71.46 122.51 69.7C122.6 68.88 122 68.16 121.19 68.07C119 67.83 116.08 68.51 116.08 68.51Z" fill="#232323"/>
<path d="M108.1 82.97L116.71 80.49L118.34 77.43L125.37 79.14L128.86 78.96L128.12 82.34L126.9 85.63L124.17 85.75L118.48 86.06L115.23 88.37L114.01 88.52L111.43 85.7L108.1 82.97Z" fill="#232323"/>
<path d="M118.65 73.93L118.99 75.37L119.07 75.73C119.1 75.84 119.11 75.89 119.13 75.97C119.18 76.11 119.24 76.25 119.32 76.38C119.48 76.64 119.69 76.85 119.94 77.01C120 77.05 120.07 77.08 120.13 77.12L120.24 77.17L120.39 77.23C120.6 77.31 120.81 77.38 121.02 77.45C122.71 78.01 124.51 78.09 126.19 77.7C127.03 77.5 127.86 77.21 128.63 76.79L129.21 76.49L129.73 76.13C129.92 76.02 130.06 75.88 130.21 75.74L130.45 75.54C130.53 75.47 130.58 75.39 130.65 75.32C131.2 74.73 131.55 74.04 131.81 73.25C132.07 72.46 132.16 71.54 132.16 70.52V70.5C132.16 70.42 132.23 70.36 132.3 70.36C132.34 70.36 132.37 70.38 132.4 70.4C132.8 70.79 133.08 71.27 133.27 71.79C133.38 72.05 133.44 72.32 133.51 72.6C133.54 72.88 133.6 73.17 133.58 73.46C133.6 74.63 133.12 75.82 132.41 76.75C132.32 76.87 132.24 76.99 132.14 77.1L131.84 77.41C131.64 77.62 131.44 77.84 131.21 78L130.54 78.52L129.83 78.96C128.88 79.52 127.85 79.94 126.76 80.19C124.59 80.71 122.3 80.52 120.23 79.86C119.97 79.78 119.71 79.69 119.46 79.59L119.27 79.52L119.04 79.42C118.88 79.35 118.73 79.26 118.58 79.17C117.99 78.81 117.49 78.3 117.13 77.72C116.95 77.43 116.8 77.11 116.69 76.79C116.63 76.64 116.59 76.44 116.55 76.31L116.46 75.95L116.13 74.5C115.97 73.81 116.4 73.12 117.09 72.97C117.81 72.82 118.49 73.25 118.65 73.93Z" fill="#232323"/>
<path d="M120.49 94.58C118.94 94.58 117.42 94.07 116.16 93.1C110.75 88.93 107.76 83.6 107.64 83.37C107.3 82.75 107.52 81.97 108.14 81.63C108.76 81.29 109.54 81.51 109.88 82.13C109.91 82.18 112.75 87.24 117.72 91.07C118.81 91.91 120.19 92.21 121.52 91.9C122.85 91.59 123.96 90.71 124.56 89.48C127.33 83.84 127.65 78.05 127.65 77.99C127.69 77.28 128.29 76.73 128.99 76.77C129.7 76.8 130.24 77.4 130.21 78.11C130.2 78.37 129.87 84.47 126.86 90.6C125.91 92.52 124.18 93.9 122.1 94.39C121.57 94.52 121.03 94.58 120.49 94.58Z" fill="#232323"/>
<path d="M114.01 90.41C113.8 90.41 113.6 90.34 113.42 90.2C113.03 89.88 112.98 89.3 113.31 88.91C113.4 88.8 115.65 86.16 119.95 85.15C120.44 85.04 120.93 85.34 121.05 85.83C121.16 86.32 120.86 86.81 120.37 86.93C116.66 87.79 114.73 90.05 114.71 90.08C114.53 90.3 114.27 90.41 114.01 90.41Z" fill="#232323"/>
<path d="M127.2 87.3401C127.08 87.3401 126.95 87.32 126.83 87.26C126.79 87.24 124.03 86.08 120.36 86.93C119.87 87.05 119.38 86.74 119.26 86.25C119.15 85.76 119.45 85.2701 119.94 85.1501C124.24 84.1501 127.43 85.53 127.56 85.58C128.02 85.78 128.23 86.32 128.03 86.79C127.89 87.13 127.55 87.3401 127.2 87.3401Z" fill="#232323"/>
<path d="M118.65 73.93L118.99 75.37L119.07 75.73C119.1 75.86 119.14 76.06 119.16 76.22C119.2 76.56 119.21 76.91 119.18 77.25C119.11 77.94 118.89 78.61 118.52 79.2C118.43 79.35 118.33 79.49 118.22 79.62L118.06 79.81L117.92 79.96C117.74 80.16 117.54 80.35 117.35 80.54C115.78 82.04 113.82 83.22 111.64 83.72C110.56 83.97 109.44 84.05 108.34 83.97L107.51 83.89L106.68 83.72C106.4 83.67 106.13 83.57 105.86 83.47L105.45 83.32C105.32 83.27 105.19 83.19 105.05 83.12C104 82.61 103.04 81.75 102.54 80.69C102.39 80.44 102.32 80.15 102.23 79.88C102.17 79.6 102.1 79.33 102.08 79.05C102.03 78.49 102.06 77.94 102.25 77.41C102.28 77.33 102.36 77.3 102.43 77.32C102.47 77.33 102.5 77.36 102.51 77.39L102.52 77.41C102.98 78.32 103.46 79.11 104.04 79.71C104.62 80.3 105.24 80.76 105.99 81.05C106.08 81.08 106.17 81.13 106.27 81.16L106.57 81.23C106.77 81.28 106.96 81.34 107.17 81.36L107.8 81.45L108.45 81.47C109.32 81.51 110.2 81.4 111.04 81.21C112.72 80.82 114.3 79.95 115.57 78.7C115.73 78.55 115.89 78.39 116.03 78.22L116.14 78.1L116.22 78.01C116.27 77.95 116.31 77.89 116.35 77.83C116.5 77.58 116.6 77.29 116.63 76.99C116.64 76.84 116.64 76.69 116.62 76.54C116.61 76.46 116.6 76.41 116.57 76.3L116.48 75.94L116.15 74.49C115.99 73.8 116.42 73.11 117.11 72.96C117.81 72.82 118.49 73.25 118.65 73.93Z" fill="#232323"/>
<path d="M86.95 129.49C84.22 115.65 88.81 97.76 89.01 97.01L91.49 97.66C91.44 97.84 86.85 115.74 89.46 129L86.95 129.49Z" fill="#232323"/>
<path d="M126.42 101.24C128.89 102.59 131.27 103.89 133.72 105.09C136.16 106.29 138.75 107.18 141.38 107.81C142.04 107.96 142.7 108.13 143.37 108.23C144.04 108.35 144.69 108.47 145.4 108.58C146.1 108.7 146.8 108.8 147.5 108.94C148.2 109.07 148.9 109.21 149.6 109.37C151 109.68 152.39 110.05 153.79 110.55C154.14 110.67 154.49 110.82 154.84 110.95C155.19 111.11 155.54 111.25 155.89 111.45C156.24 111.63 156.59 111.83 156.95 112.09C157.13 112.21 157.31 112.37 157.5 112.53C157.6 112.62 157.69 112.72 157.79 112.84L157.95 113.05C157.98 113.08 158.01 113.15 158.04 113.2L158.09 113.28C158.11 113.32 158.15 113.41 158.17 113.47L158.13 113.36C158.47 114.12 158.72 114.83 158.97 115.58C159.21 116.32 159.43 117.08 159.61 117.85C159.95 119.4 160.2 121.01 159.97 122.77C159.85 123.64 159.59 124.56 159.05 125.41C158.52 126.26 157.67 126.96 156.77 127.33C156.66 127.38 156.55 127.43 156.43 127.47L156.09 127.57C155.86 127.63 155.63 127.71 155.41 127.73L154.74 127.83L154.09 127.85C153.87 127.86 153.66 127.86 153.45 127.84L152.82 127.8C152.41 127.75 152.01 127.68 151.61 127.62C150.91 127.52 150.43 126.87 150.53 126.17C150.63 125.49 151.25 125.01 151.93 125.08L152.05 125.09C152.39 125.13 152.72 125.18 153.05 125.2C153.37 125.2 153.71 125.25 154.02 125.21C154.66 125.2 155.23 125.07 155.7 124.87C156.17 124.66 156.52 124.37 156.77 123.95C157.03 123.54 157.19 122.99 157.27 122.39C157.42 121.18 157.23 119.79 156.93 118.44C156.63 117.09 156.16 115.69 155.64 114.44L155.6 114.33C155.61 114.37 155.64 114.44 155.66 114.46L155.67 114.48L155.69 114.52L155.62 114.45C155.54 114.38 155.47 114.31 155.35 114.23C155.14 114.08 154.89 113.92 154.62 113.78C154.36 113.63 154.06 113.51 153.78 113.37C153.48 113.25 153.19 113.12 152.88 113.01C151.65 112.54 150.34 112.18 149.02 111.85C148.36 111.68 147.69 111.53 147.02 111.39C146.35 111.24 145.67 111.12 145 110.99C144.34 110.87 143.61 110.72 142.91 110.57C142.2 110.44 141.51 110.24 140.81 110.06C138.04 109.29 135.34 108.24 132.81 106.88C131.53 106.23 130.32 105.44 129.19 104.55C128.62 104.11 128.09 103.62 127.58 103.12C127.07 102.61 126.59 102.07 126.18 101.46C126.12 101.37 126.15 101.26 126.23 101.2C126.28 101.21 126.35 101.21 126.42 101.24Z" fill="#232323"/>
<path d="M151.6 117.82C152.38 119.14 152.82 120.59 153.04 122.12C153.25 123.65 153.18 125.27 152.59 126.9C152.31 127.71 151.83 128.5 151.22 129.19C150.61 129.88 149.81 130.42 148.98 130.76C147.3 131.43 145.57 131.44 144.04 131.16C143.34 131.03 142.88 130.36 143.01 129.67C143.12 129.05 143.66 128.62 144.26 128.62H144.3C145.61 128.61 146.85 128.49 147.84 128.06C148.83 127.65 149.53 126.92 150.03 125.87C150.53 124.83 150.75 123.53 150.9 122.19C151.06 120.84 151.09 119.43 151.16 117.97V117.96C151.17 117.83 151.28 117.72 151.41 117.73C151.48 117.7 151.56 117.75 151.6 117.82Z" fill="#232323"/>
<path d="M144.01 120.74C144.71 121.61 145.26 122.58 145.69 123.62C146.12 124.66 146.42 125.79 146.47 127.02C146.49 127.63 146.45 128.28 146.28 128.93C146.11 129.58 145.82 130.24 145.4 130.82C144.54 132.01 143.2 132.71 141.98 133.04C141.35 133.21 140.76 133.27 140.17 133.34C140.02 133.36 139.87 133.38 139.72 133.39H139.26H138.34C137.11 133.28 135.87 132.99 134.73 132.45C133.6 131.88 132.59 131.12 131.78 130.2C131.57 129.98 131.39 129.73 131.2 129.49C131.02 129.25 130.86 128.99 130.69 128.73C130.54 128.47 130.38 128.21 130.25 127.93C130.11 127.65 130 127.4 129.87 127.03L131.23 127.83C129.71 128.07 128.3 128.14 126.83 128.14C125.37 128.13 123.91 128.03 122.46 127.83C121.01 127.63 119.56 127.33 118.15 126.9C116.73 126.48 115.35 125.93 114.02 125.24C112.69 124.56 111.42 123.75 110.27 122.77C109.12 121.81 108.05 120.72 107.17 119.51C107.06 119.36 106.94 119.21 106.83 119.06L106.53 118.59C106.33 118.27 106.13 117.96 105.95 117.63C105.62 116.96 105.28 116.3 105.06 115.59C104.54 114.21 104.29 112.74 104.24 111.29C104.23 111.12 104.37 110.98 104.54 110.97C104.66 110.97 104.77 111.03 104.82 111.13V111.14C106.18 113.64 107.45 115.96 109.14 117.96C109.96 118.98 110.92 119.86 111.95 120.65C112.99 121.43 114.1 122.13 115.28 122.68C116.46 123.24 117.7 123.71 118.97 124.09C120.24 124.47 121.55 124.73 122.87 124.94C124.19 125.14 125.53 125.27 126.88 125.33C127.55 125.35 128.23 125.38 128.9 125.37C129.56 125.36 130.27 125.35 130.87 125.3L130.99 125.29C131.55 125.24 132.06 125.59 132.24 126.1C132.32 126.22 132.45 126.44 132.57 126.62C132.7 126.81 132.83 126.99 132.97 127.17C133.26 127.52 133.56 127.86 133.88 128.16C134.53 128.76 135.25 129.27 136.03 129.62C136.81 129.97 137.66 130.15 138.53 130.24L139.2 130.25L139.54 130.26C139.65 130.26 139.77 130.24 139.88 130.23C140.34 130.19 140.81 130.16 141.2 130.07C141.6 129.98 141.98 129.86 142.29 129.69C142.61 129.53 142.88 129.33 143.1 129.07C143.54 128.57 143.83 127.83 143.95 126.94C144.19 125.15 143.87 123.06 143.5 120.99V120.97C143.47 120.82 143.57 120.67 143.73 120.65C143.85 120.62 143.95 120.66 144.01 120.74Z" fill="#232323"/>
<path d="M79.51 129.78C78.97 129.78 78.46 129.43 78.29 128.89C75.04 118.71 67.86 103.18 62.41 104.84C54.74 107.19 54.93 121.36 54.93 121.5C54.94 122.21 54.38 122.79 53.68 122.81C53.67 122.81 53.66 122.81 53.65 122.81C52.96 122.81 52.38 122.25 52.37 121.56C52.36 120.9 52.15 105.31 61.66 102.4C71.29 99.4501 79.79 125.17 80.73 128.12C80.94 128.79 80.57 129.51 79.9 129.73C79.77 129.76 79.63 129.78 79.51 129.78Z" fill="#232323"/>
<path d="M86.12 129.5C82.64 112.17 77.75 104.09 74.33 102.31C73.71 101.99 73.17 101.9 72.81 102.05C70.47 103.07 69.9701 106.8 69.9601 106.83L67.42 106.52C67.45 106.31 68.1 101.31 71.78 99.7C72.55 99.37 73.82 99.15 75.51 100.03C77.96 101.31 84.1501 106.69 88.6301 128.99L86.12 129.5Z" fill="#232323"/>
<path d="M7.17004 158.97C7.03004 158.97 6.90004 158.95 6.77004 158.91C6.47004 158.81 -0.489953 156.39 0.830047 145.74C1.16005 143.1 2.07004 140.66 3.46004 138.69C7.01004 133.67 11.7 133.7 14.37 134.6C26.83 120.48 52.03 120.25 53.61 120.25C53.63 120.25 53.64 120.25 53.65 120.25C54.14 120.25 54.58 120.53 54.8 120.97C60.8101 133.38 78.91 127.35 79.09 127.29C79.26 127.23 79.44 127.21 79.62 127.23C99.73 128.96 131.29 126.49 131.6 126.46C132.31 126.41 132.92 126.93 132.98 127.63C133.04 128.33 132.51 128.95 131.81 129.01C131.49 129.04 99.9901 131.51 79.66 129.8C77.2701 130.54 59.73 135.44 52.8801 122.83C48.5101 122.96 26.67 124.25 16.08 136.55C16.4 139.74 17.39 154.79 7.68005 158.88C7.51005 158.94 7.34004 158.97 7.17004 158.97ZM11.46 136.71C9.76004 136.71 7.52005 137.38 5.55005 140.17C4.40005 141.8 3.65005 143.83 3.37005 146.06C2.49005 153.2 5.92005 155.65 7.16005 156.3C14.42 152.7 13.82 140.21 13.54 137.05C13.06 136.88 12.33 136.71 11.46 136.71Z" fill="#232323"/>
<path d="M10.21 186.44H5.10005C4.55005 186.44 4.06005 186.09 3.89005 185.56C-0.15995 173.4 2.90005 156.05 3.03005 155.32C3.16005 154.63 3.82005 154.16 4.52005 154.29C5.22005 154.42 5.68005 155.08 5.55005 155.78C5.52005 155.95 2.62005 172.37 6.04005 183.88H10.21C10.92 183.88 11.49 184.45 11.49 185.16C11.49 185.87 10.91 186.44 10.21 186.44Z" fill="#232323"/>
<path d="M13.6301 188.52C12.7501 188.52 11.8801 188.24 11.1301 187.7C10.1301 186.98 9.46009 185.86 9.30009 184.64C8.56009 179.11 7.72008 160.22 27.9601 149.43C34.4301 145.98 41.9901 144.71 49.8101 145.75C57.1601 146.73 64.1601 149.75 69.5301 154.23C78.6301 161.82 81.8601 172.36 78.4001 183.14C77.7001 185.31 75.8301 186.93 73.6401 187.27C72.0501 187.52 71.0301 187.02 70.4501 186.56C69.5001 185.81 68.9601 184.58 68.8201 182.9C68.2801 176.1 64.5201 160.29 41.4101 160.29C34.5501 160.29 29.0401 162.33 25.0301 166.36C17.8001 173.62 17.7701 185.03 17.7701 185.14C17.7701 185.27 17.7501 185.41 17.7101 185.54C17.4201 186.44 16.4101 188.05 14.4201 188.43C14.1601 188.49 13.8901 188.52 13.6301 188.52ZM44.6301 148C39.1901 148 33.8301 149.21 29.1701 151.69C10.9001 161.43 10.9601 177.74 11.8401 184.31C11.9101 184.84 12.2001 185.32 12.6301 185.63C13.0201 185.91 13.4901 186.02 13.9501 185.93C14.7101 185.78 15.0901 185.18 15.2201 184.9C15.2601 183.01 15.7901 172.05 23.2101 164.58C27.7201 160.04 33.8501 157.74 41.4201 157.74C66.6601 157.74 70.7801 175.2 71.3801 182.7C71.4501 183.62 71.6901 184.28 72.0401 184.56C72.3001 184.77 72.7101 184.83 73.2501 184.74C74.5001 184.55 75.5601 183.61 75.9601 182.36C79.0801 172.62 76.1401 163.08 67.8901 156.19C61.4501 150.82 52.9501 148 44.6301 148Z" fill="#232323"/>
<path d="M42.9901 201.84C30.9001 201.84 19.8501 194.27 15.4801 183L17.8701 182.07C21.8601 192.36 31.9501 199.27 42.9901 199.27C54.8601 199.27 65.1901 191.67 68.7101 180.35L71.1501 181.11C67.3001 193.51 55.9801 201.84 42.9901 201.84Z" fill="#232323"/>
<path d="M42.9901 187.42C35.8901 187.42 30.1101 181.64 30.1101 174.54C30.1101 167.44 35.8901 161.66 42.9901 161.66C50.0901 161.66 55.8701 167.44 55.8701 174.54C55.8701 181.64 50.0901 187.42 42.9901 187.42ZM42.9901 164.22C37.3001 164.22 32.6701 168.85 32.6701 174.54C32.6701 180.23 37.3001 184.86 42.9901 184.86C48.6801 184.86 53.3101 180.23 53.3101 174.54C53.3001 168.85 48.6801 164.22 42.9901 164.22Z" fill="#232323"/>
<path d="M192.58 187.42C185.48 187.42 179.7 181.64 179.7 174.54C179.7 167.44 185.48 161.66 192.58 161.66C199.68 161.66 205.46 167.44 205.46 174.54C205.46 181.64 199.68 187.42 192.58 187.42ZM192.58 164.22C186.89 164.22 182.26 168.85 182.26 174.54C182.26 180.23 186.89 184.86 192.58 184.86C198.27 184.86 202.9 180.23 202.9 174.54C202.9 168.85 198.27 164.22 192.58 164.22Z" fill="#232323"/>
<path d="M154.66 136.64C148.37 136.64 146.17 132.25 145.89 129.93C145.8 129.23 146.3 128.59 147.01 128.5C147.71 128.42 148.34 128.91 148.43 129.61C148.49 130.07 149.21 134.08 154.66 134.08C158.52 134.08 165.1 133.03 166.85 126.19C165.52 125.47 162.45 124.07 158.56 124.02C157.85 124.01 157.29 123.43 157.3 122.72C157.31 122.01 157.89 121.43 158.6 121.46C164.63 121.54 168.85 124.38 169.03 124.51C169.45 124.8 169.66 125.3 169.57 125.8C168.29 132.68 162.86 136.64 154.66 136.64Z" fill="#232323"/>
<path d="M223.79 139.93C223.47 139.93 223.16 139.81 222.91 139.58C209.75 127.07 185.84 124.62 183.27 124.39C177.28 126.12 168.77 126.81 168.41 126.84C167.69 126.9 167.09 126.37 167.03 125.67C166.97 124.97 167.5 124.35 168.2 124.29C168.29 124.28 177.03 123.57 182.77 121.87C182.92 121.83 183.07 121.81 183.23 121.82C184.32 121.9 210.17 123.93 224.67 137.73C225.18 138.22 225.2 139.03 224.72 139.54C224.46 139.79 224.12 139.93 223.79 139.93Z" fill="#232323"/>
<path d="M183.13 124.37C182.57 124.37 182.05 124 181.9 123.43C178.36 110.5 171.4 103 166.19 98.98C165.5 98.45 164.63 98.37 163.85 98.75C163.06 99.14 162.59 99.89 162.59 100.76V122.97C162.59 123.68 162.02 124.25 161.31 124.25C160.6 124.25 160.03 123.68 160.03 122.97V100.76C160.03 98.92 161.06 97.26 162.71 96.45C164.36 95.64 166.29 95.83 167.74 96.95C173.27 101.21 180.64 109.14 184.36 122.75C184.55 123.43 184.15 124.14 183.46 124.32C183.36 124.36 183.24 124.37 183.13 124.37Z" fill="#232323"/>
<path d="M235.93 168.69C235.65 168.69 235.37 168.6 235.13 168.41C219.17 155.72 218.71 140.22 218.7 139.57C218.69 138.98 219.08 138.46 219.66 138.31C219.85 138.26 238.54 133.53 243.32 146.43C248.22 159.64 236.81 168.35 236.69 168.43C236.47 168.61 236.2 168.69 235.93 168.69ZM221.35 140.56C221.75 144.06 223.95 155.8 235.92 165.75C238.19 163.71 244.5 156.95 240.92 147.32C237.53 138.17 225.05 139.84 221.35 140.56Z" fill="#232323"/>
<path d="M242.61 158.9C242.36 158.9 242.1 158.83 241.88 158.67C230.43 150.74 227.3 139.49 227.17 139.01C226.99 138.33 227.39 137.63 228.07 137.44C228.75 137.26 229.45 137.66 229.64 138.34C229.68 138.49 232.71 149.2 243.33 156.56C243.91 156.96 244.06 157.76 243.65 158.34C243.41 158.71 243.01 158.9 242.61 158.9Z" fill="#232323"/>
<path d="M227.78 182.09C227.24 182.09 226.73 181.74 226.56 181.19C226.35 180.52 226.72 179.8 227.4 179.59C237.25 176.49 236.28 166.56 236.23 166.14C236.15 165.44 236.66 164.81 237.36 164.73C238.05 164.65 238.69 165.16 238.77 165.86C238.78 165.98 240 178.31 228.16 182.03C228.04 182.07 227.91 182.09 227.78 182.09Z" fill="#232323"/>
<path d="M222.31 186.45C220.86 186.45 219.47 185.95 218.32 185.01C216.97 183.91 216.12 182.29 215.97 180.56C215.39 173.86 211.82 158.28 191.25 158.28C184.1 158.28 178.6 160.17 174.9 163.89C170 168.82 169.32 175.96 169.35 179.78C169.36 181.73 168.49 183.55 166.95 184.76C165.48 185.92 163.61 186.34 161.81 185.89C160 185.44 157.61 183.98 156.49 179.54C156.48 179.51 156.47 179.47 156.47 179.44C156.38 178.87 154.25 165.3 163 154.98C169.22 147.65 179.26 143.93 192.86 143.93C220.3 143.93 227.11 166.02 228.72 179.19C229.14 182.58 226.87 185.71 223.55 186.31C223.38 186.34 223.21 186.37 223.03 186.39C222.79 186.44 222.55 186.45 222.31 186.45ZM191.24 155.73C201.07 155.73 208.48 159.01 213.24 165.49C217.18 170.84 218.23 177.1 218.52 180.35C218.61 181.41 219.12 182.36 219.94 183.04C220.74 183.69 221.74 183.99 222.75 183.87C222.87 183.86 222.99 183.84 223.11 183.82C225.09 183.46 226.45 181.57 226.19 179.52C224.34 164.46 217.07 146.51 192.87 146.51C180.07 146.51 170.69 149.92 164.98 156.63C157.24 165.74 158.87 178.12 159 178.99C159.65 181.53 160.8 183.02 162.43 183.42C163.45 183.67 164.52 183.43 165.37 182.76C166.28 182.04 166.8 180.96 166.79 179.8C166.76 175.59 167.54 167.68 173.09 162.09C177.28 157.87 183.39 155.73 191.24 155.73Z" fill="#232323"/>
<path d="M192.48 200.96C180.57 200.96 169.94 192.97 166.64 181.54L169.1 180.83C172.08 191.17 181.7 198.4 192.48 198.4C203.59 198.4 213.28 190.9 216.04 180.15L218.52 180.79C215.47 192.66 204.76 200.96 192.48 200.96Z" fill="#232323"/>
<path d="M111.32 186.98C92.11 186.98 76.54 185.59 76.26 185.57L76.49 183.02C76.99 183.07 127.09 187.52 158.28 180.32L158.86 182.81C144.73 186.07 126.84 186.98 111.32 186.98Z" fill="#232323"/>
<path d="M92.8601 185.73C85.8101 162.06 90.8701 130.19 91.0901 128.84L93.6201 129.25C93.5701 129.57 88.4301 161.89 95.3101 184.99L92.8601 185.73Z" fill="#232323"/>
<path d="M98.47 142.05C96.54 142.05 94.99 140.51 94.99 138.61C94.99 136.71 96.53 135.17 98.43 135.17C98.46 135.17 98.49 135.17 98.53 135.17L109.76 136.36C111.1 136.5 112.11 137.62 112.11 138.97C112.11 140.38 111.01 141.53 109.6 141.59L98.47 142.05ZM98.39 137C97.52 137.02 96.82 137.74 96.82 138.61C96.82 139.5 97.54 140.22 98.43 140.22L109.51 139.76C109.94 139.74 110.27 139.39 110.27 138.97C110.27 138.56 109.96 138.22 109.56 138.18L98.39 137Z" fill="#232323"/>
<path d="M147.96 110.8C146.5 101.22 139.64 91.55 139.57 91.46L141.65 89.97C141.95 90.38 148.94 100.22 150.49 110.42L147.96 110.8Z" fill="#232323"/>
<path d="M148.97 108.66L148.16 106.23C152.79 104.69 157.49 101.84 160.62 99.71L162.06 101.83C157.31 105.05 152.9 107.35 148.97 108.66Z" fill="#232323"/>
<path d="M166.76 98.4099L165.18 96.4C165.94 95.81 166.36 95.45 166.37 95.44C166.56 95.28 166.8 95.17 167.05 95.15C173.94 94.37 178.19 92.58 179.02 90.11C179.81 87.75 177.42 84.81 176.43 83.88C176.05 83.52 175.92 82.97 176.11 82.48C177.35 79.29 177.48 77.01 176.49 75.89C175.17 74.41 171.9 74.86 170.75 75.15C170.38 75.25 169.99 75.17 169.68 74.95C169.37 74.73 169.18 74.38 169.15 74.01C168.96 71.53 168.24 69.93 166.99 69.26C164.71 68.03 161.12 69.96 161.09 69.98L159.85 67.74C160.05 67.63 164.68 65.11 168.21 67.01C169.98 67.96 171.09 69.7799 171.54 72.4099C173.4 72.1599 176.55 72.11 178.4 74.19C180 75.99 180.13 78.83 178.79 82.65C180.03 84.03 182.61 87.45 181.46 90.92C180.27 94.5 175.78 96.6999 167.73 97.6599C167.51 97.8099 167.18 98.0699 166.76 98.4099Z" fill="#232323"/>
</svg>
