<svg width="245" height="267" viewBox="0 0 245 267" fill="none" xmlns="http://www.w3.org/2000/svg">
<path d="M198.75 103.52C200.58 103.47 201.98 101.55 202.33 98.64C203.01 92.9 199.97 86.5 198.78 84.26C197.35 86.45 193.57 92.88 194.57 98.5C195.19 102.04 197.12 103.57 198.75 103.52Z" fill="#FFBE1D"/>
<path d="M145.45 42.04C146.92 41.54 147.75 39.56 147.53 37.13C147.14 32.8 144.99 24.86 144.08 21.62C138.61 31.99 139.13 36.79 140.55 39C142.12 41.42 143.95 42.56 145.45 42.04Z" fill="#FFBE1D"/>
<path d="M19.6198 115.87C17.9598 118.37 14.8098 123.8 14.7498 129.18C14.7098 133.16 16.9998 135.73 19.2298 135.92C20.7798 136.05 21.8798 134.98 22.1798 133.06C22.6498 130.11 21.9698 127.52 21.1798 124.51C20.5498 122.04 19.8198 119.29 19.6198 115.87Z" fill="#FFBE1D"/>
<path d="M52.2599 66.82C53.9699 67.27 55.2699 67.07 56.1099 66.24C57.6399 64.74 57.8599 60.99 56.6999 56.21C55.9099 52.93 55.0699 50.59 54.4499 49.11C54.2299 50.06 53.8199 51.31 53.0599 52.9C52.9499 53.14 52.8299 53.39 52.6999 53.66C51.1599 56.85 48.5899 62.18 49.9099 65.04C50.3299 65.94 51.0999 66.52 52.2599 66.82Z" fill="#FFBE1D"/>
<path d="M163.08 144.4C163.32 143 163.56 141.71 163.82 140.34L163.83 140.28C165.59 130.87 166.76 124.66 161.73 113.3C160.96 111.55 158.5 107.55 150.71 100.39C144.62 94.79 137.24 89.04 130.72 83.97C122.23 77.36 114.2 71.11 107.59 64.56C105.94 62.93 104.39 61.2 102.94 59.39C102.8 61.43 102.68 63.67 102.59 66.12C101.88 84.25 96.7699 98.53 87.3899 108.56C81.6999 114.64 75.6498 117.84 70.8898 119.52C68.7298 124.24 66.1299 128.72 63.5799 133.1C58.0399 142.65 52.3098 152.52 50.0998 164.94C49.6198 167.64 49.8898 170.06 50.9698 172.78C52.0098 175.4 53.7398 178.08 56.1098 180.75C59.7598 184.85 63.8798 187.74 65.4998 188.81C82.6998 196.59 101.55 200.7 120.07 200.7C135.73 200.7 150.97 197.7 164.16 192.03C171.48 188.88 175.99 185.89 178.76 183.41C168.66 177.5 159.6 164.6 163.08 144.4Z" fill="#DD3A0E"/>
<path d="M194.22 172.92C192.14 172.92 190.11 172.53 188.18 171.75C181.42 169.03 175.06 161.06 177.51 146.88C177.73 145.59 177.97 144.34 178.21 143.03L178.22 142.97C180.16 132.64 181.98 122.88 175.12 107.37C170.12 96.07 153.27 82.95 139.72 72.4C131.58 66.06 123.89 60.08 117.9 54.14C108.58 44.91 104.92 33.38 103.63 23.85C103.32 24.12 103 24.39 102.68 24.67C92.1598 33.8 88.9497 40.27 87.9697 65.53C87.4097 80.05 83.6198 91.15 76.7098 98.53C70.4798 105.19 63.8798 106.45 62.0098 106.68C61.5198 106.74 61.0098 106.77 60.4998 106.77C60.3798 106.77 60.2498 106.77 60.1298 106.76C58.2698 113.09 54.6598 119.3 50.9298 125.72C45.0398 135.87 38.3598 147.38 35.6998 162.35C34.7398 167.73 35.2898 172.9 37.3698 178.14C39.0398 182.36 41.6698 186.5 45.1898 190.45C50.7898 196.74 56.9898 200.74 58.5198 201.68C77.8698 210.6 99.1498 215.32 120.09 215.32C137.72 215.32 154.96 211.91 169.96 205.46C183.19 199.77 191.86 192.97 195.73 185.26C197.61 181.5 198.52 177.42 198.51 172.35C197.11 172.73 195.68 172.92 194.22 172.92ZM120.08 200.69C101.56 200.69 82.7198 196.58 65.5098 188.8C63.8898 187.73 59.7698 184.84 56.1198 180.74C53.7498 178.07 52.0198 175.39 50.9798 172.77C49.8998 170.05 49.6398 167.63 50.1098 164.93C52.3198 152.51 58.0398 142.64 63.5898 133.09C66.1298 128.71 68.7298 124.23 70.8998 119.51C75.6598 117.83 81.6998 114.63 87.3998 108.55C96.7798 98.52 101.9 84.24 102.6 66.11C102.7 63.66 102.81 61.42 102.95 59.38C104.4 61.2 105.95 62.92 107.6 64.55C114.21 71.1 122.23 77.35 130.73 83.96C137.24 89.03 144.63 94.78 150.72 100.38C158.51 107.55 160.97 111.55 161.74 113.29C166.76 124.65 165.6 130.86 163.84 140.27L163.83 140.33C163.57 141.7 163.33 142.99 163.09 144.39C159.61 164.58 168.67 177.49 178.79 183.39C176.02 185.86 171.51 188.86 164.19 192.01C150.98 197.69 135.74 200.69 120.08 200.69Z" fill="#FF7F1F"/>
<path d="M209.63 162.67C207.86 150.03 201.62 146 198.98 144.85C200.02 147.53 201.96 153.85 199.07 158.12C197.8 159.99 195.99 161.05 194.23 161.05C193.68 161.05 193.14 160.95 192.62 160.74C190.16 159.75 187.97 156.12 189.21 148.91C189.42 147.68 189.65 146.46 189.89 145.17C191.97 134.06 194.33 121.46 185.98 102.58C179.78 88.55 162.37 75 147.01 63.05C139.16 56.94 131.74 51.16 126.26 45.73C117.66 37.21 115.37 25.67 114.96 17.5C114.61 10.56 115.53 4.79999 115.95 2.60999C113.5 3.31999 105.98 6.11001 94.8998 15.73C81.0299 27.77 77.1598 37.92 76.1098 65.09C75.5498 79.52 71.4098 86.84 68.0398 90.44C64.3198 94.42 60.7198 94.89 60.5698 94.91C60.5498 94.91 60.5198 94.91 60.4998 94.91C60.2298 94.91 59.9998 94.73 59.9298 94.47C57.1398 83.77 46.5398 81.36 41.5498 80.82C43.9298 82.59 47.4198 86.63 49.2898 95.58C50.7298 102.45 46.2898 110.1 40.6698 119.79C34.5998 130.25 27.0498 143.27 24.0198 160.3C21.0498 177 29.0798 190.22 36.3298 198.37C44.0398 207.03 52.5098 211.95 52.9698 212.22C74.3598 222.19 97.5299 227.22 120.09 227.22C139.17 227.22 157.83 223.63 174.65 216.39C209.98 201.18 212.16 180.7 209.63 162.67ZM195.72 185.27C191.86 192.98 183.19 199.78 169.95 205.47C154.95 211.92 137.71 215.33 120.08 215.33C99.1398 215.33 77.8598 210.62 58.5098 201.69C56.9798 200.75 50.7798 196.76 45.1798 190.46C41.6698 186.51 39.0398 182.37 37.3598 178.15C35.2798 172.9 34.7398 167.74 35.6898 162.36C38.3498 147.39 45.0298 135.89 50.9198 125.73C54.6498 119.31 58.2498 113.1 60.1198 106.77C60.2398 106.77 60.3698 106.78 60.4898 106.78C60.9998 106.78 61.5098 106.75 61.9998 106.69C63.8698 106.46 70.4698 105.2 76.6998 98.54C83.6098 91.16 87.3998 80.05 87.9598 65.54C88.9398 40.29 92.1498 33.82 102.67 24.68C102.99 24.4 103.31 24.13 103.62 23.86C104.91 33.38 108.57 44.92 117.89 54.15C123.88 60.08 131.57 66.07 139.71 72.41C153.26 82.96 170.11 96.08 175.11 107.38C181.97 122.89 180.14 132.65 178.21 142.98L178.2 143.04C177.95 144.35 177.72 145.6 177.5 146.89C175.06 161.07 181.41 169.03 188.17 171.76C190.1 172.54 192.13 172.93 194.21 172.93C195.66 172.93 197.1 172.73 198.49 172.36C198.51 177.42 197.61 181.51 195.72 185.27Z" fill="#FFBE1D"/>
<path d="M120.09 229.09C97.2398 229.09 73.7998 224 52.1398 213.91C52.1098 213.9 52.0798 213.88 52.0498 213.86C51.6798 213.65 42.9998 208.71 34.9098 199.61C24.1098 187.48 19.6998 173.77 22.1598 159.96C25.2398 142.6 32.8898 129.42 39.0398 118.83C44.4598 109.5 48.7398 102.12 47.4498 95.96C44.7798 83.15 38.6498 81.34 38.5898 81.32C37.9698 81.15 37.5598 80.55 37.6398 79.91C37.7198 79.27 38.2398 78.78 38.8798 78.77C39.0598 78.76 56.7098 78.48 61.3998 92.74C62.6098 92.32 64.6998 91.3 66.8298 88.97C69.9098 85.59 73.6998 78.68 74.2298 65C75.3098 37.18 79.3098 26.75 93.6698 14.28C107.72 2.07998 116.17 0.559986 116.52 0.499986C116.95 0.429986 117.38 0.58 117.68 0.89C117.98 1.21 118.09 1.64999 118 2.06999C117.94 2.33999 111.94 28.83 127.61 44.36C133.02 49.72 140.39 55.46 148.2 61.53C163.73 73.62 181.34 87.33 187.73 101.79C196.32 121.21 193.8 134.67 191.77 145.49C191.53 146.77 191.3 147.99 191.09 149.2C190.04 155.31 191.64 158.28 193.34 158.96C194.71 159.51 196.36 158.76 197.52 157.04C200.58 152.52 196.8 144.47 196.76 144.38C196.55 143.94 196.61 143.41 196.91 143.03C197.21 142.64 197.7 142.46 198.19 142.55C198.63 142.64 209.08 144.92 211.53 162.38C212.62 170.16 213.25 180.42 208.34 190.67C202.97 201.9 192.2 210.87 175.42 218.08C158.34 225.45 139.42 229.09 120.09 229.09ZM53.2798 211.58C92.5798 229.89 137.84 231.44 174.37 215.73C209.27 200.72 211.43 180.53 208.94 162.77C207.48 152.37 203.08 148.02 200.22 146.26C201.24 149.5 202.22 154.73 199.65 158.52C197.8 161.25 194.87 162.41 192.35 161.4C191.03 160.87 186.86 158.39 188.51 148.8C188.72 147.57 188.95 146.35 189.19 145.05C191.25 134.04 193.59 121.55 185.33 102.87C179.2 89 161.87 75.51 146.57 63.61C138.7 57.48 131.27 51.7 125.75 46.23C118.81 39.36 114.83 29.44 114.24 17.53C113.94 11.46 114.57 6.35999 115.03 3.62999C111.9 4.72999 105 7.87 95.3398 16.26C81.6498 28.14 77.8398 38.19 76.7898 65.12C75.6898 93.47 61.2498 95.54 60.6398 95.62C59.9898 95.69 59.3898 95.29 59.2298 94.66C56.8698 85.62 48.8898 82.72 43.6498 81.8C45.8998 84.14 48.4598 88.26 49.9598 95.44C51.4498 102.58 46.9498 110.33 41.2598 120.14C35.2198 130.55 27.6998 143.51 24.6998 160.42C22.3598 173.58 26.4298 186.17 36.7898 197.84C44.3298 206.33 52.6398 211.21 53.2798 211.58Z" fill="#232323"/>
<path d="M19.4997 137.82C19.3597 137.82 19.2197 137.81 19.0797 137.8C15.9897 137.54 12.8197 134.23 12.8697 129.16C12.9497 121.23 18.8998 113.6 19.1498 113.28C19.4898 112.85 20.0698 112.68 20.5898 112.86C21.1098 113.04 21.4598 113.53 21.4598 114.08C21.4698 118.12 22.2998 121.26 23.0298 124.04C23.8398 127.12 24.5997 130.02 24.0597 133.36C23.6097 136.11 21.8497 137.82 19.4997 137.82ZM19.1097 118C17.4897 120.76 15.4997 125 15.4497 129.18C15.4097 133.11 17.6697 135.08 19.2897 135.21C20.4497 135.31 21.2397 134.5 21.4897 132.94C21.9397 130.14 21.2797 127.61 20.5097 124.68C19.9997 122.71 19.4297 120.55 19.1097 118Z" fill="#232323"/>
<path d="M198.68 105.41C196.27 105.41 193.51 103.39 192.71 98.83C191.35 91.17 197.53 82.72 197.8 82.36C198.06 82.01 198.47 81.82 198.9 81.84C199.33 81.86 199.73 82.1 199.95 82.47C200.16 82.82 205.12 91.16 204.21 98.87C203.65 103.6 200.95 105.36 198.81 105.42C198.76 105.41 198.72 105.41 198.68 105.41ZM198.71 85.69C197.09 88.39 194.42 93.71 195.25 98.38C195.79 101.44 197.39 102.82 198.67 102.82C198.69 102.82 198.7 102.82 198.72 102.82C200.18 102.78 201.32 101.1 201.62 98.56C202.2 93.76 200.05 88.44 198.71 85.69Z" fill="#232323"/>
<path d="M53.8999 68.94C53.2799 68.94 52.5698 68.85 51.7898 68.65C50.0698 68.2 48.8599 67.26 48.2099 65.84C46.5099 62.16 49.2199 56.55 51.0099 52.84C51.1399 52.58 51.2599 52.33 51.3699 52.09C52.8899 48.89 52.8198 47.33 52.7998 47.13C52.6298 46.51 52.9498 45.9 53.5498 45.64C54.1498 45.38 54.8599 45.65 55.1899 46.21C55.2599 46.33 56.9898 49.31 58.5498 55.75C59.3298 58.99 60.2299 64.84 57.4499 67.58C56.7599 68.27 55.6399 68.94 53.8999 68.94ZM54.5299 51.27C54.3099 51.86 54.0399 52.5 53.6999 53.21C53.5899 53.45 53.4599 53.7 53.3299 53.97C51.9399 56.84 49.3598 62.19 50.5498 64.75C50.7498 65.19 51.1699 65.81 52.4299 66.14C54.6299 66.71 55.3698 65.98 55.6098 65.74C56.9398 64.43 57.0899 60.85 56.0099 56.37C55.5199 54.3 54.9999 52.6 54.5299 51.27Z" fill="#232323"/>
<path d="M144.71 44.05C142.71 44.05 140.64 42.62 138.97 40.02C136.46 36.12 137.73 29.43 142.73 20.14C142.87 19.88 142.97 19.7 143.02 19.59C143.18 19.14 143.57 18.8 144.06 18.73C144.7 18.64 145.31 19.03 145.49 19.65C145.63 20.12 148.9 31.28 149.42 36.95C149.73 40.32 148.41 43.01 146.07 43.82C145.62 43.98 145.17 44.05 144.71 44.05ZM143.89 23.54C139.44 32.5 139.9 36.68 141.15 38.62C142.5 40.72 144.06 41.77 145.23 41.37C146.37 40.98 147.03 39.26 146.84 37.19C146.5 33.56 144.91 27.31 143.89 23.54Z" fill="#232323"/>
<path d="M158.89 130.7C158.7 130.62 158.48 130.54 158.26 130.46C158.3 130.36 160.01 126.64 159.31 123.41C159.31 123.41 155.91 122.01 154.52 119.84C154.43 119.7 154.34 119.5 154.23 119.23C153.58 117.53 152.61 113.36 151.08 108.85C149.03 102.8 145.98 96.14 141.34 94.02C141.34 94.02 143.16 92.51 142.58 89.09C142.4 88.05 142.01 86.83 141.27 85.43L141.25 85.42C142.15 83.75 142.91 81.18 141.94 77.95C141.94 77.95 138.47 79.03 136.04 81.85C138.46 72.63 142.66 66.21 142.8 66.01C142.8 66.01 130.03 67.41 116.48 83.36V83.46C114.56 83.45 112.3 83.56 109.79 83.88C108.1 84.09 106.28 84.41 104.38 84.85C101.47 85.53 98.8799 86.38 96.6499 87.27C95.2699 87.82 94.0199 88.39 92.9099 88.94L92.8699 88.86C73.6699 80.54 61.5999 84.92 61.5999 84.92C61.5999 84.92 68.3299 88.83 74.6699 96.15C71.2399 94.69 67.6499 95.25 67.6499 95.25C68.1999 98.57 70.0299 100.54 71.5699 101.65L71.5599 101.66C71.5399 102.39 71.5699 103.05 71.6299 103.65C72.1699 108.66 75.2899 109.41 75.2899 109.41C72.0599 113.36 72.2699 120.68 73.0999 127.01C73.6699 131.33 74.5299 135.19 74.7999 137.2C74.8699 137.73 74.8999 138.14 74.8699 138.39C74.5799 140.95 72.1499 143.71 72.1499 143.71C72.9699 146.96 76.2099 149.57 76.2099 149.57C75.3299 150.44 74.8699 151.26 74.8699 151.26C78.3399 156.68 83.7599 159.84 89.7099 161.6C104.37 165.92 122.28 161.71 122.28 161.71C122.28 161.71 130.99 159.7 140.07 154.98C148.83 150.43 157.95 143.35 159.94 133.1C160.05 132.54 160.14 131.97 160.2 131.4C160.21 131.39 159.7 131.04 158.89 130.7ZM126.67 150.68C126.58 150.95 126.48 151.23 126.38 151.51C126.04 152.42 125.65 153.36 125.19 154.3C123.56 157.61 119.33 158.59 116.42 156.34C115.34 155.51 114.36 154.63 113.49 153.75L113.29 153.55C110.02 150.22 108.24 147.01 108.24 147.01C112.45 147.07 115.21 144.77 116.6 143.2C117.29 142.42 117.55 141.35 117.32 140.33C117.56 141.35 118.26 142.2 119.23 142.59C121.16 143.38 124.66 144.22 128.41 142.31C128.4 142.32 128.22 146.13 126.67 150.68Z" fill="#2D2D2D"/>
<path d="M158.13 185.84C158.13 186.23 158.1 186.63 158.05 187C157.67 189.55 155.96 191.46 151.27 190.65L150.79 190.6C150.14 192.23 148.88 193.58 146.63 194.04C145.82 194.2 144.87 194.25 143.78 194.15C143.13 195.01 142.09 195.67 140.49 195.94C135.1 196.85 132.3 193.77 131.16 192C131.16 192 128.78 192.19 124.89 192.43C117.35 192.89 104.16 193.55 91.8099 193.36C90.3999 193.34 88.9899 193.31 87.6199 193.26C87.1799 190.95 86.9499 188.51 86.8699 186.06C86.7999 184.03 86.8399 181.98 86.9399 179.99C87.0699 177.57 87.31 175.21 87.59 173.05C87.88 170.83 88.21 168.8 88.53 167.09C89.16 163.73 89.71 161.6 89.71 161.6C91.62 162.16 93.5899 162.58 95.5599 162.88C108.73 164.89 122.28 161.71 122.28 161.71C122.28 161.71 124 161.32 126.71 160.46C130.1 159.39 135.03 157.61 140.08 154.98C140.08 154.98 145.75 162.88 148.03 171.71C148.3 172.76 148.53 173.81 148.69 174.87C155.74 176.52 156.33 178.19 156.33 178.19C156.33 178.19 156.69 178.99 157.08 180.19C157.59 181.7 158.15 183.86 158.13 185.84Z" fill="#2D2D2D"/>
<path d="M166.67 160.67C166.67 160.67 166.23 161.05 165.44 161.66L165.43 161.69C163.26 160.94 160.78 162.52 160.78 165.03V165.06C157.28 167.43 152.63 170.18 148.03 171.71C147.14 168.26 145.73 164.97 144.35 162.22C142.18 157.92 140.07 154.98 140.07 154.98C145.42 152.2 150.91 148.47 154.82 143.66C157.31 140.6 159.16 137.09 159.94 133.11C159.94 133.11 169.13 128 169.9 138.17C169.9 138.17 181.48 135.13 176.78 147.2C176.78 147.19 188.54 158.2 166.67 160.67Z" fill="#2D2D2D"/>
<path d="M73.0999 127C73.0999 127 58.9899 112.31 61.5999 84.9C61.5999 84.9 68.3299 88.81 74.6699 96.13C71.2399 94.67 67.65 95.23 67.65 95.23C68.2 98.55 70.0299 100.52 71.5699 101.63L71.5599 101.64C71.3699 108.44 75.2899 109.38 75.2899 109.38C72.0599 113.35 72.2699 120.67 73.0999 127Z" fill="white"/>
<path d="M151.08 108.85C149.03 102.8 145.98 96.14 141.34 94.02C141.34 94.02 144.44 91.45 141.27 85.43L141.25 85.42C142.15 83.75 142.91 81.18 141.94 77.95C141.94 77.95 138.47 79.03 136.04 81.85C138.49 72.48 142.8 66 142.8 66C157.25 89.43 151.08 108.85 151.08 108.85Z" fill="white"/>
<path d="M160.21 131.39C160.14 131.97 160.06 132.53 159.95 133.09C157.96 143.33 148.85 150.41 140.08 154.97C131 159.69 122.29 161.7 122.29 161.7C122.29 161.7 104.38 165.91 89.7199 161.59C83.7699 159.84 78.3499 156.67 74.8799 151.25C74.8799 151.25 75.3399 150.43 76.2199 149.56C76.2199 149.56 72.9799 146.95 72.1599 143.7C72.1599 143.7 74.5999 140.94 74.8799 138.38C74.9099 138.13 74.8799 137.73 74.8099 137.19C76.7799 135.43 80.0199 133.2 83.1699 133.98C88.1699 135.21 108.58 137.11 115.48 135.52C122.38 133.94 138.37 124.92 144.77 119.87C147.03 118.09 150.58 118.26 154.24 119.22C154.34 119.49 154.44 119.7 154.53 119.83C155.92 122 159.32 123.4 159.32 123.4C160.01 126.63 158.31 130.36 158.27 130.45C159.43 130.86 160.21 131.39 160.21 131.39Z" fill="white"/>
<path d="M128.4 142.32C128.4 142.32 128.22 146.13 126.67 150.69C126.67 150.69 123.68 149.37 119.63 150.31C115.58 151.25 113.48 153.76 113.48 153.76C110.08 150.36 108.23 147.02 108.23 147.02C112.44 147.08 115.2 144.78 116.59 143.21C117.28 142.43 117.54 141.36 117.31 140.34C117.55 141.36 118.25 142.21 119.22 142.6C121.16 143.38 124.66 144.23 128.4 142.32Z" fill="#232323"/>
<path d="M4.10986 220.22C3.98986 220.1 3.86987 219.96 3.74987 219.82C2.28987 218.1 0.94988 215.14 1.56988 210.16C1.85988 207.84 2.62984 205.6 3.96984 203.69C6.26984 200.44 8.9299 199.67 10.9599 199.69C10.9599 199.69 12.9799 215.4 4.10986 220.22Z" fill="#FFD00D"/>
<path d="M6.63989 221.95C6.63989 221.95 5.38986 221.54 4.10986 220.21C12.9799 215.39 10.9599 199.68 10.9599 199.68C12.8499 199.7 14.1999 200.4 14.1999 200.4C14.1999 200.4 16.5099 217.8 6.63989 221.95Z" fill="#A50862"/>
<path d="M182.6 187.36C176.66 189.12 167.77 189.83 167.77 189.83C167.77 189.83 165 187.93 160.78 187.25V165.04C160.78 162.53 163.27 160.95 165.43 161.7C165.78 161.82 166.11 162 166.43 162.24C171.58 166.2 178.92 173.91 182.6 187.36Z" fill="#FFAEDC"/>
<path d="M242.08 221.88C240.93 225.78 238.56 228.67 236.97 230.26C236.06 231.19 235.4 231.67 235.4 231.67C219.73 219.21 219.45 203.81 219.45 203.81C219.45 203.81 220.99 203.41 223.28 203.14C224.61 202.99 226.19 202.88 227.87 202.94C227.88 202.94 230.89 214.13 242.08 221.88Z" fill="#FFAEDC"/>
<path d="M242.08 221.88C230.89 214.13 227.88 202.94 227.88 202.94C233.09 203.1 239.22 204.75 241.59 211.14C243.11 215.24 242.96 218.86 242.08 221.88Z" fill="#FFD00D"/>
<path d="M78.9798 192.76C78.9798 192.76 59.6998 199.39 53.1198 185.79C53.1198 185.79 52.8098 170.54 61.5098 167.88C63.7798 167.19 66.0498 168.55 68.1698 170.93C74.1798 177.71 78.9798 192.76 78.9798 192.76Z" fill="#FF0086"/>
<path d="M93.5598 249.62C82.9698 249.2 75.8399 248.55 75.8399 248.55C76.1999 248.1 76.4798 247.58 76.6598 247.02C85.0398 220.9 50.9498 202.6 28.0398 214.82C8.73982 225.12 9.24983 242.75 10.0498 248.73C10.0798 248.93 10.1198 249.12 10.1798 249.3L9.68985 249.42H4.56985C0.579854 237.43 3.75986 219.81 3.75986 219.81C5.14986 221.45 6.64987 221.95 6.64987 221.95C14.5499 218.63 14.6498 206.82 14.3698 202.24C14.2998 201.1 14.2099 200.4 14.2099 200.4C26.3199 185.71 53.1198 185.79 53.1198 185.79C53.8798 187.36 54.8098 188.65 55.8498 189.73C63.8898 197.96 78.9798 192.77 78.9798 192.77C81.4398 192.98 84.0698 193.13 86.7898 193.23C87.0698 193.24 87.3499 193.25 87.6299 193.26C89.0098 193.31 90.4099 193.34 91.8199 193.36C91.6099 194.69 86.6598 226.47 93.5598 249.62Z" fill="#FF0086"/>
<path d="M236.97 230.27C236.05 231.19 235.4 231.68 235.4 231.68C219.73 219.22 219.45 203.82 219.45 203.82C219.45 203.82 220.99 203.42 223.28 203.15L223.25 202.91C208.91 189.28 182.6 187.36 182.6 187.36C177.73 188.8 170.87 189.54 168.56 189.76C168.06 189.81 167.77 189.83 167.77 189.83C166.52 196.65 160.95 199.62 154.14 199.62C147.33 199.62 146.64 194.04 146.64 194.04C145.83 194.2 144.88 194.25 143.79 194.15C143.14 195.01 142.1 195.67 140.5 195.94C135.11 196.85 132.31 193.77 131.17 192C131.17 192 125.25 192.47 116.87 192.86C109.61 193.2 100.51 193.49 91.8198 193.35C91.6098 194.68 86.6598 226.46 93.5598 249.62C111.13 250.32 138.21 250.4 158.03 245.82C157.71 245.17 157.43 244.4 157.2 243.5C157.2 243.5 151.58 209.49 192.33 209.49C211.97 209.49 220.73 221.05 224.56 232.76C225.79 236.49 226.51 240.23 226.92 243.62C226.98 244.1 226.97 244.56 226.91 245.02L227.25 245.07C235.27 242.55 236.76 235.8 236.98 232.35C237.07 231.09 236.97 230.27 236.97 230.27ZM109.02 204.94L97.8999 205.4C96.4999 205.4 95.3698 204.27 95.3698 202.87C95.3698 202.17 95.6498 201.54 96.1098 201.08C96.5698 200.62 97.1999 200.34 97.8999 200.34L109.13 201.53C110 201.62 110.66 202.35 110.66 203.23C110.66 204.15 109.93 204.9 109.02 204.94Z" fill="#FF0086"/>
<path d="M76.66 247.02C76.4799 247.58 76.2 248.1 75.84 248.55C75.12 249.46 74.09 250.09 72.92 250.27C72.7 250.3 72.48 250.32 72.26 250.32C70.96 250.31 69.77 249.58 69.56 247.07C69.52 246.53 69.45 245.88 69.34 245.15C68.32 238.03 63.63 223.29 40.88 223.29C20.72 223.29 16.86 240.18 16.13 246.8C15.95 248.42 15.96 249.42 15.96 249.42C15.96 249.42 15.42 251.11 13.65 251.45C13.19 251.54 12.73 251.51 12.3 251.39C11.31 251.11 10.4899 250.32 10.1599 249.31C10.0999 249.13 10.06 248.94 10.03 248.74C9.23001 242.75 8.72 225.12 28.02 214.83C50.95 202.6 85.0399 220.91 76.66 247.02Z" fill="#A50862"/>
<path d="M226.91 245.02C226.66 246.71 225.59 248.2 224.05 248.93C223.66 249.11 223.25 249.25 222.8 249.33C222.66 249.36 222.51 249.38 222.36 249.4C219.55 249.73 217.03 247.64 216.72 244.84C216.71 244.8 216.71 244.76 216.71 244.72C216.14 238.09 212.53 221.27 190.71 221.27C169.76 221.27 167.48 236.89 167.53 244.06C167.53 244.54 167.47 245 167.34 245.45C166.66 247.89 164.17 249.57 161.58 248.93C161.55 248.92 161.51 248.91 161.48 248.9C160.19 248.55 158.94 247.66 158.03 245.82C157.71 245.17 157.43 244.4 157.2 243.5C157.2 243.5 151.58 209.49 192.33 209.49C218.21 209.49 225.2 229.58 226.92 243.62C226.98 244.1 226.97 244.57 226.91 245.02Z" fill="#A50862"/>
<path d="M54.0599 238.81C54.0599 245.21 48.8699 250.41 42.4599 250.41C36.0599 250.41 30.8599 245.22 30.8599 238.81C30.8599 232.4 36.0499 227.21 42.4599 227.21C48.8599 227.21 54.0599 232.4 54.0599 238.81Z" fill="white"/>
<path d="M203.65 238.81C203.65 245.21 198.46 250.41 192.05 250.41C185.65 250.41 180.45 245.22 180.45 238.81C180.45 232.4 185.64 227.21 192.05 227.21C198.46 227.21 203.65 232.4 203.65 238.81Z" fill="white"/>
<path d="M86.78 193.22C84.06 193.12 81.4399 192.97 78.9699 192.76C78.9699 192.76 74.1799 177.71 68.1599 170.93C68.1599 170.93 68.7099 166.46 71.7599 165.13C74.8099 163.81 81.95 169.4 86.78 193.22Z" fill="#595989"/>
<path d="M40.8899 223.29C20.7299 223.29 16.8699 240.18 16.1399 246.8C20.2299 257.34 30.4699 264.82 42.4499 264.82C55.0599 264.82 65.7299 256.55 69.3499 245.15C68.3299 238.03 63.6399 223.29 40.8899 223.29ZM42.4499 250.4C36.0499 250.4 30.8499 245.21 30.8499 238.8C30.8499 232.39 36.0399 227.2 42.4499 227.2C48.8599 227.2 54.0499 232.39 54.0499 238.8C54.0599 245.21 48.8599 250.4 42.4499 250.4Z" fill="#595989"/>
<path d="M167.77 189.82C166.52 196.64 160.95 199.61 154.14 199.61C147.33 199.61 146.64 194.03 146.64 194.03C148.89 193.58 150.14 192.23 150.8 190.59L151.28 190.64C155.96 191.45 157.68 189.54 158.06 186.99C159.02 187 159.94 187.09 160.79 187.23C165 187.93 167.77 189.82 167.77 189.82Z" fill="#595989"/>
<path d="M216.71 244.72C216.14 238.09 212.53 221.27 190.71 221.27C169.76 221.27 167.48 236.89 167.53 244.06C167.53 244.54 167.47 245 167.34 245.45C170.42 256.13 180.27 263.94 191.95 263.94C203.85 263.94 213.84 255.83 216.72 244.84C216.72 244.8 216.71 244.76 216.71 244.72ZM192.05 250.4C185.65 250.4 180.45 245.21 180.45 238.8C180.45 232.39 185.64 227.2 192.05 227.2C198.46 227.2 203.65 232.39 203.65 238.8C203.65 245.21 198.46 250.4 192.05 250.4Z" fill="#595989"/>
<path d="M110.66 203.23C110.66 204.14 109.94 204.9 109.03 204.94L97.9099 205.4C96.5099 205.4 95.3799 204.27 95.3799 202.87C95.3799 202.17 95.6599 201.54 96.1199 201.08C96.5799 200.62 97.2099 200.34 97.9099 200.34L109.14 201.53C110 201.63 110.66 202.36 110.66 203.23Z" fill="#595989"/>
<path d="M158.25 130.47C158.29 130.37 160 126.65 159.3 123.42C159.3 123.42 155.9 122.02 154.51 119.85C154.42 119.71 154.33 119.51 154.22 119.24C150.56 118.28 147.01 118.11 144.75 119.89C142.82 121.41 140.02 123.3 136.85 125.23C132.36 127.97 126.62 127.5 122.6 124.12C119.14 121.22 116.02 118.02 113.87 115.66C112.52 114.19 110.09 114.68 109.42 116.55C108.22 119.91 106.31 124.67 103.84 129.06C101.44 133.33 96.7199 135.75 91.8499 135.25C87.9899 134.85 84.7699 134.39 83.1499 133.99C79.9999 133.21 76.7599 135.45 74.7899 137.2C74.8599 137.73 74.8899 138.14 74.8599 138.39C74.5699 140.95 72.1399 143.71 72.1399 143.71C72.9599 146.96 76.1999 149.57 76.1999 149.57C75.3199 150.44 74.8599 151.26 74.8599 151.26C78.3299 156.68 83.7499 159.84 89.6999 161.6C104.36 165.92 122.27 161.71 122.27 161.71C122.27 161.71 130.98 159.7 140.06 154.98C148.82 150.43 157.94 143.35 159.93 133.1C160.04 132.54 160.13 131.97 160.19 131.4C160.21 131.4 159.43 130.87 158.25 130.47ZM115.41 135.55C115.45 135.54 115.47 135.53 115.47 135.53L114.53 130.72L115.48 135.53C115.47 135.53 115.47 135.53 115.46 135.53C115.45 135.54 115.43 135.54 115.41 135.55Z" fill="white"/>
<path d="M148.69 174.87C140.69 173.71 129.03 169.45 126.91 166.78C125.52 165.02 126.13 162.19 126.71 160.45C130.1 159.38 135.03 157.6 140.08 154.97C140.08 154.97 145.75 162.87 148.03 171.7C148.31 172.75 148.53 173.81 148.69 174.87Z" fill="white"/>
<path d="M166.67 160.67C166.67 160.67 157.45 156.58 154.83 143.65C157.32 140.59 159.17 137.08 159.95 133.1C159.95 133.1 169.14 127.99 169.91 138.16C169.91 138.16 181.49 135.12 176.79 147.19C176.78 147.19 188.54 158.2 166.67 160.67Z" fill="white"/>
<path d="M163.59 152.12C166.141 152.12 168.21 150.052 168.21 147.5C168.21 144.948 166.141 142.88 163.59 142.88C161.038 142.88 158.97 144.948 158.97 147.5C158.97 150.052 161.038 152.12 163.59 152.12Z" fill="#FF4D96"/>
<path d="M163.86 140.27C165.069 140.27 166.05 139.289 166.05 138.08C166.05 136.87 165.069 135.89 163.86 135.89C162.65 135.89 161.67 136.87 161.67 138.08C161.67 139.289 162.65 140.27 163.86 140.27Z" fill="#FF4D96"/>
<path d="M172.14 145.41C173.349 145.41 174.33 144.43 174.33 143.22C174.33 142.01 173.349 141.03 172.14 141.03C170.93 141.03 169.95 142.01 169.95 143.22C169.95 144.43 170.93 145.41 172.14 145.41Z" fill="#FF4D96"/>
<path d="M172.14 154.97C173.349 154.97 174.33 153.99 174.33 152.78C174.33 151.57 173.349 150.59 172.14 150.59C170.93 150.59 169.95 151.57 169.95 152.78C169.95 153.99 170.93 154.97 172.14 154.97Z" fill="#FF4D96"/>
<path d="M88.5401 167.08C88.2301 168.79 87.8901 170.81 87.6001 173.04C90.7101 172.76 93.3301 171.93 94.8701 171.34C95.4901 171.1 95.5301 170.25 94.9501 169.94C92.6601 168.71 90.3101 167.74 88.5401 167.08Z" fill="white"/>
<path d="M86.88 186.05C89.87 185.61 92.36 184.69 93.83 184.06C94.43 183.8 94.45 182.95 93.86 182.66C91.35 181.46 88.7901 180.56 86.9601 179.98C86.8501 181.97 86.81 184.02 86.88 186.05Z" fill="white"/>
<g opacity="0.3">
<path d="M120.3 152.8C122.65 152.25 124.63 152.47 125.89 152.74C126.18 152.04 126.44 151.35 126.67 150.68C126.67 150.68 123.68 149.36 119.63 150.3C115.58 151.24 113.48 153.75 113.48 153.75C114 154.27 114.56 154.79 115.15 155.3C116.14 154.5 117.86 153.37 120.3 152.8Z" fill="#000566"/>
</g>
<g opacity="0.3">
<path d="M160.21 131.39C160.14 131.97 160.06 132.53 159.95 133.09C157.96 143.33 148.85 150.41 140.08 154.97C131 159.69 122.29 161.7 122.29 161.7C122.29 161.7 104.38 165.91 89.7197 161.59C83.7697 159.84 78.3497 156.67 74.8797 151.25C74.8797 151.25 75.3397 150.43 76.2197 149.56C76.2197 149.56 72.9797 146.95 72.1597 143.7C72.1597 143.7 74.5997 140.94 74.8797 138.38C74.9097 138.13 74.8797 137.73 74.8097 137.19C74.5397 135.17 73.6797 131.32 73.1097 127C72.2797 120.67 72.0797 113.34 75.2997 109.4C75.2997 109.4 70.2297 156.16 113.28 153.55C115.43 153.42 117.69 153.17 120.08 152.78C122.28 152.42 124.38 152 126.38 151.51C143.08 147.49 153 139.3 158.89 130.7C159.7 131.04 160.21 131.39 160.21 131.39Z" fill="black"/>
</g>
<g opacity="0.3">
<path d="M69.6499 95.14C70.9999 95.16 72.8599 95.37 74.6699 96.14C68.3199 88.82 61.5999 84.91 61.5999 84.91C61.4899 86.03 61.4199 87.12 61.3599 88.2C63.2899 89.53 66.3799 91.87 69.6499 95.14Z" fill="black"/>
</g>
<g opacity="0.3">
<path d="M75.2898 109.4C75.2898 109.4 71.3698 108.46 71.5598 101.66L71.5698 101.65C70.3498 100.77 68.9598 99.36 68.1598 97.17C68.1398 97.17 68.1298 97.17 68.1098 97.17C66.6298 97.08 65.6198 98.63 66.2598 99.97C67.0798 101.71 68.2798 102.88 69.3398 103.65L69.3298 103.66C69.1398 110.46 73.0598 111.4 73.0598 111.4C70.7498 114.23 70.1998 118.79 70.3798 123.48C71.9598 125.82 73.0998 127.01 73.0998 127.01C72.2698 120.67 72.0598 113.35 75.2898 109.4Z" fill="black"/>
</g>
<g opacity="0.3">
<path d="M144.37 68.68C143.87 67.79 143.35 66.9 142.8 66C142.8 66 138.5 72.48 136.04 81.85C137.33 80.36 138.9 79.35 140.1 78.74C141.5 74.42 143.17 70.92 144.37 68.68Z" fill="black"/>
</g>
<g opacity="0.3">
<path d="M144.51 93.95C144.51 93.95 147.61 91.38 144.44 85.36L144.42 85.35C144.99 84.3 145.5 82.88 145.56 81.16C145.62 79.45 143.76 78.33 142.29 79.22L142.24 79.25C142.69 81.87 142.02 83.98 141.24 85.42L141.26 85.43C144.43 91.45 141.33 94.02 141.33 94.02C145.97 96.14 149.02 102.8 151.07 108.85C151.07 108.85 151.71 106.82 152.1 103.28C150.22 99.12 147.75 95.43 144.51 93.95Z" fill="black"/>
</g>
<g opacity="0.3">
<path d="M74.1299 103.6C73.5099 103.81 72.5899 103.97 71.6199 103.64C71.5599 103.04 71.5299 102.38 71.5499 101.65C71.5499 101.65 72.8799 102.53 73.8799 102.87L74.1299 102.96C74.4399 103.07 74.4399 103.5 74.1299 103.6Z" fill="black"/>
</g>
<g opacity="0.3">
<path d="M67.6499 95.25C67.6499 95.25 70.0799 96.14 72.4399 97.66C73.0699 98.07 73.6599 98.54 74.1799 99.09C74.9599 99.91 76.2199 101.33 77.2999 103C77.6899 103.61 78.6399 103.38 78.7099 102.65C78.7499 102.23 78.7598 101.75 78.7198 101.19L74.6799 96.14C74.6699 96.14 70.6099 94.95 67.6499 95.25Z" fill="black"/>
</g>
<g opacity="0.3">
<path d="M86.8399 92.63C86.8399 92.63 86.8599 92.35 86.9499 91.97C87.1899 90.95 86.6899 89.89 85.7299 89.46C81.9699 87.77 72.9999 84.42 61.5999 84.9C61.5999 84.9 73.6799 80.52 92.8699 88.84C92.8699 88.85 88.9599 90.7 86.8399 92.63Z" fill="black"/>
</g>
<g opacity="0.3">
<path d="M142.8 66C129.32 73.45 124.57 78.94 123.07 81.14C122.72 81.65 122.7 82.3 123.01 82.84C123.33 83.39 123.57 84.08 123.57 84.08C120.96 83.31 116.48 83.36 116.48 83.36C130.03 67.4 142.8 66 142.8 66Z" fill="black"/>
</g>
<g opacity="0.3">
<path d="M131.17 192C131.17 192 110.54 193.64 91.82 193.36C90.41 193.34 88.9999 193.31 87.6299 193.26C87.1899 190.95 86.9599 188.51 86.8799 186.06C86.8099 184.03 86.85 181.98 86.95 179.99C87.08 177.57 87.3199 175.21 87.5999 173.05C87.8899 170.83 88.2199 168.8 88.5399 167.09C89.1699 163.73 89.7199 161.6 89.7199 161.6C91.6299 162.16 93.6 162.58 95.57 162.88C92.69 174.78 97.73 181.88 101.82 185.49C102.74 186.3 104.13 185.42 103.81 184.24C102.66 180.01 104.01 175.49 104.01 175.49C108.47 192.29 131.17 192 131.17 192Z" fill="black"/>
</g>
<g opacity="0.3">
<path d="M158.05 187C157.67 189.55 155.96 191.46 151.27 190.65L150.79 190.6C150.14 192.23 148.88 193.58 146.63 194.04C145.82 194.2 144.87 194.25 143.78 194.15C143.13 195.01 142.09 195.67 140.49 195.94C135.1 196.85 132.3 193.77 131.16 192C141.97 194.59 144.37 189.06 144.37 189.06C148.87 189.71 151.43 185.24 151.43 185.24C155.59 183.82 156.75 181.32 157.07 180.19C157.69 182.01 158.38 184.76 158.05 187Z" fill="black"/>
</g>
<g opacity="0.3">
<path d="M166.67 160.67C166.67 160.67 166.23 161.05 165.44 161.66L165.43 161.69C163.26 160.94 160.78 162.52 160.78 165.03V165.06C157.28 167.43 152.63 170.18 148.03 171.71C147.14 168.26 145.73 164.97 144.35 162.22L158.1 156.17C159.74 155.45 161.56 155.19 163.34 155.47C168.36 156.24 178.94 156.8 176.78 147.2C176.78 147.19 188.54 158.2 166.67 160.67Z" fill="black"/>
</g>
<g opacity="0.3">
<path d="M10.0799 239.45L9.67987 239.55C6.48987 239.55 3.76988 237.23 3.24988 234.08C2.98988 232.49 2.8199 230.88 2.7099 229.26C2.3499 235.29 2.46988 243.13 4.56988 249.42H9.68988L10.1799 249.3C10.1199 249.12 10.0799 248.93 10.0499 248.73C9.76986 246.72 9.53989 243.38 10.0799 239.45Z" fill="#000566"/>
</g>
<g opacity="0.3">
<path d="M157.09 236.16C137.36 240.53 110.85 240.45 93.5598 239.76C86.3898 239.47 80.8098 239.08 77.9498 238.86C77.9698 241.47 77.5598 244.21 76.6598 247.03C76.4798 247.59 76.1998 248.11 75.8398 248.56C75.8398 248.56 82.9698 249.21 93.5598 249.64C111.13 250.34 138.21 250.42 158.03 245.84C157.71 245.19 157.43 244.42 157.2 243.52C157.2 243.51 156.7 240.44 157.09 236.16Z" fill="#000566"/>
</g>
<g opacity="0.3">
<path d="M72.2699 250.33C70.9699 250.32 69.7799 249.59 69.5699 247.08C69.5299 246.54 69.4598 245.89 69.3498 245.16C68.3298 238.04 63.6399 223.3 40.8899 223.3C20.7299 223.3 16.8699 240.19 16.1399 246.81C15.9599 248.43 15.9698 249.43 15.9698 249.43C15.9698 249.43 15.4298 251.12 13.6598 251.46C13.1998 251.55 12.7399 251.52 12.3099 251.4C12.2999 245.36 13.7698 218.68 40.6698 218.68C65.2198 218.67 73.3699 231.97 72.2699 250.33Z" fill="#000566"/>
</g>
<g opacity="0.3">
<path d="M224.05 248.94C223.66 249.12 223.25 249.26 222.8 249.34C222.66 249.37 222.51 249.39 222.36 249.41C219.55 249.74 217.03 247.65 216.72 244.85C216.71 244.81 216.71 244.77 216.71 244.73C216.14 238.1 212.53 221.28 190.71 221.28C169.76 221.28 167.48 236.9 167.53 244.07C167.53 244.55 167.47 245.01 167.34 245.46C166.66 247.9 164.17 249.58 161.58 248.94C161.55 248.93 161.51 248.92 161.48 248.91C160.95 238.94 162.74 215.78 190.78 215.78C215.63 215.77 222.29 236.38 224.05 248.94Z" fill="#000566"/>
</g>
<g opacity="0.3">
<path d="M16.5399 247.78C17.9899 240.14 23.0699 226.95 40.8899 226.95C61.3299 226.95 67.1898 238.85 68.9099 246.43C69.0699 246.01 69.2199 245.59 69.3499 245.16C68.3299 238.04 63.6399 223.3 40.8899 223.3C20.7299 223.3 16.8699 240.19 16.1399 246.81C16.2699 247.13 16.3999 247.46 16.5399 247.78Z" fill="#000566"/>
</g>
<g opacity="0.3">
<path d="M216.71 244.72C216.14 238.09 212.53 221.27 190.71 221.27C169.76 221.27 167.48 236.89 167.53 244.06C167.53 244.54 167.47 245 167.34 245.45C167.42 245.72 167.5 245.98 167.59 246.24C168.07 238.5 171.72 225.66 190.71 225.66C209.8 225.66 214.95 238.53 216.32 246.2C216.46 245.75 216.6 245.3 216.72 244.85C216.72 244.8 216.71 244.76 216.71 244.72Z" fill="#000566"/>
</g>
<g opacity="0.3">
<path d="M42.4499 246.01C36.7999 246.01 32.0899 241.96 31.0599 236.61C30.9199 237.32 30.8499 238.05 30.8499 238.8C30.8499 245.2 36.0399 250.4 42.4499 250.4C48.8599 250.4 54.0499 245.21 54.0499 238.8C54.0499 238.05 53.9799 237.32 53.8399 236.61C52.8199 241.97 48.1099 246.01 42.4499 246.01Z" fill="#000566"/>
</g>
<g opacity="0.3">
<path d="M192.05 246.01C186.4 246.01 181.69 241.96 180.66 236.61C180.52 237.32 180.45 238.05 180.45 238.8C180.45 245.2 185.64 250.4 192.05 250.4C198.46 250.4 203.65 245.21 203.65 238.8C203.65 238.05 203.58 237.32 203.44 236.61C202.41 241.97 197.7 246.01 192.05 246.01Z" fill="#000566"/>
</g>
<g opacity="0.3">
<path d="M42.4499 257.51C31.3099 257.51 21.6799 251.05 17.0899 241.67C16.5599 243.66 16.2799 245.45 16.1299 246.81C20.2199 257.35 30.4599 264.83 42.4399 264.83C55.0499 264.83 65.7199 256.56 69.3399 245.16C69.1499 243.85 68.8399 242.27 68.3099 240.58C63.9699 250.54 54.0299 257.51 42.4499 257.51Z" fill="#000566"/>
</g>
<g opacity="0.3">
<path d="M215.89 239.76C212.22 249.41 202.89 256.26 191.95 256.26C180.85 256.26 171.41 249.2 167.85 239.32C167.59 241.09 167.52 242.72 167.53 244.06C167.53 244.54 167.47 245 167.34 245.45C170.42 256.13 180.27 263.94 191.95 263.94C203.85 263.94 213.84 255.83 216.72 244.84C216.71 244.8 216.71 244.76 216.71 244.72C216.6 243.4 216.36 241.67 215.89 239.76Z" fill="#000566"/>
</g>
<g opacity="0.3">
<path d="M61.6898 170.4C62.2598 169.44 62.9398 168.57 63.7398 167.83C62.9998 167.65 62.2498 167.65 61.5098 167.88C52.8098 170.54 53.1198 185.79 53.1198 185.79C59.6998 199.39 78.9798 192.76 78.9798 192.76C78.9798 192.76 78.8998 192.52 78.7598 192.1C77.6098 192.26 76.3398 192.38 75.0198 192.42C63.4798 192.72 55.7798 180.31 61.6898 170.4Z" fill="#000566"/>
</g>
<g opacity="0.3">
<path d="M82.9699 191.94C82.9699 191.94 79.0499 179.63 73.8499 172.26C72.4399 170.26 72.44 167.52 74.02 165.65C74.1 165.55 74.19 165.46 74.27 165.37C73.29 164.89 72.43 164.85 71.77 165.14C68.72 166.47 68.1699 170.94 68.1699 170.94C74.1899 177.71 78.9799 192.77 78.9799 192.77C81.4399 192.98 84.0699 193.13 86.7899 193.23C86.7199 192.88 86.65 192.54 86.58 192.21C85.34 192.12 84.1299 192.04 82.9699 191.94Z" fill="#000566"/>
</g>
<g opacity="0.3">
<path d="M148.4 196.82C150.46 196.41 151.68 195.25 152.37 193.8C152.49 193.55 152.76 193.4 153.03 193.43C157.38 194.18 159.17 192.59 159.7 190.32C159.77 190.01 160.05 189.79 160.36 189.8C161.12 189.83 161.84 189.91 162.53 190.03C164.5 190.35 166.14 190.93 167.35 191.46C167.51 190.94 167.65 190.39 167.76 189.82C167.76 189.82 164.99 187.92 160.77 187.24C159.92 187.1 159 187.01 158.04 187C157.66 189.55 155.95 191.46 151.26 190.65L150.78 190.6C150.13 192.23 148.87 193.58 146.62 194.04C146.62 194.04 146.87 196.1 148.6 197.72C148.44 197.18 148.4 196.82 148.4 196.82Z" fill="#000566"/>
</g>
<g opacity="0.3">
<path d="M236.98 232.35C236.76 235.8 235.27 242.55 227.25 245.07L226.91 245.02C226.98 244.57 226.98 244.1 226.92 243.62C226.5 240.23 225.78 236.49 224.56 232.76C228.23 233.5 232.72 233.77 236.98 232.35Z" fill="#000566"/>
</g>
<g opacity="0.3">
<path d="M237.3 225.37C237.29 225.38 237.28 225.39 237.27 225.4C236.43 226.25 235.08 226.28 234.17 225.5C225.03 217.61 221.7 208.82 220.48 203.59C219.83 203.72 219.45 203.82 219.45 203.82C219.45 203.82 219.72 219.22 235.4 231.68C235.4 231.68 236.05 231.19 236.97 230.27C238.56 228.68 240.93 225.79 242.08 221.89C241.61 221.57 241.17 221.24 240.73 220.91C239.61 222.85 238.3 224.37 237.3 225.37Z" fill="#000566"/>
</g>
<g opacity="0.3">
<path d="M10.9598 199.69C10.1798 199.68 9.31979 199.79 8.40979 200.11C8.60979 204.23 8.36979 213.72 2.53979 217.96C2.89979 218.7 3.31982 219.32 3.74982 219.82C3.86982 219.96 3.9898 220.09 4.1098 220.22C12.9798 215.4 10.9598 199.69 10.9598 199.69Z" fill="#000566"/>
</g>
<g opacity="0.3">
<path d="M168.56 189.75C168.47 190.1 168.35 190.47 168.21 190.84C162.39 206.19 149.78 201.96 145.88 200.2C145.11 199.85 144.24 199.79 143.43 200.01C135.73 202.16 131.64 198.84 130.08 197.08C129.53 196.45 128.78 196.04 127.96 195.89C124.65 195.3 119.93 193.85 116.87 192.85C125.25 192.46 131.17 191.99 131.17 191.99C132.31 193.76 135.11 196.84 140.5 195.93C142.11 195.66 143.14 195 143.79 194.14C144.88 194.24 145.83 194.19 146.64 194.03C146.64 194.03 147.32 199.61 154.14 199.61C160.96 199.61 166.52 196.63 167.77 189.82C167.77 189.82 168.06 189.8 168.56 189.75Z" fill="black"/>
</g>
<g opacity="0.3">
<path d="M111.61 205.47C111.61 206.5 110.8 207.35 109.77 207.39L97.2599 207.91C95.6899 207.91 94.4199 206.63 94.4199 205.07C94.4199 204.28 94.7399 203.57 95.2499 203.06C95.7599 202.55 96.4799 202.22 97.2599 202.22L109.89 203.56C110.87 203.66 111.61 204.49 111.61 205.47Z" fill="#000566"/>
</g>
<g opacity="0.3">
<path d="M6.63989 221.95C6.63989 221.95 5.38986 221.54 4.10986 220.21C12.9799 215.39 10.9599 199.68 10.9599 199.68C12.8499 199.7 14.1999 200.4 14.1999 200.4C14.1999 200.4 16.5099 217.8 6.63989 221.95Z" fill="#000566"/>
</g>
<g opacity="0.7">
<path d="M159.47 123.41C159.47 123.41 154.06 125.79 151.45 119.84C148.84 113.88 149.33 106.61 141.33 94.02C146.01 96.14 149.1 102.8 151.16 108.85C152.7 113.36 153.68 117.53 154.33 119.23C154.43 119.5 154.53 119.71 154.62 119.84C156.04 122.01 159.47 123.41 159.47 123.41Z" fill="white"/>
</g>
<g opacity="0.7">
<path d="M158.13 185.84C155.89 178.25 148.69 177.49 148.69 177.49C130.42 175.03 125.76 165.63 125.76 165.63C133.07 172.24 148.69 174.86 148.69 174.86C155.74 176.51 156.33 178.18 156.33 178.18C156.33 178.18 156.69 178.98 157.08 180.18C157.59 181.7 158.15 183.86 158.13 185.84Z" fill="white"/>
</g>
<g opacity="0.7">
<path d="M145.12 172.57C145.27 173.14 145.4 173.71 145.52 174.29C146.62 174.53 147.68 174.72 148.69 174.87C148.53 173.81 148.31 172.75 148.03 171.71C145.74 162.88 140.08 154.98 140.08 154.98C139.2 155.44 138.33 155.87 137.46 156.27C138.65 158.01 143.15 164.94 145.12 172.57Z" fill="white"/>
</g>
<g opacity="0.7">
<path d="M28.0298 214.82C26.8998 215.43 25.8298 216.06 24.8298 216.71C24.9298 216.66 25.0298 216.6 25.1298 216.55C48.0498 204.33 82.1298 222.64 73.7498 248.75C73.5698 249.31 73.2998 249.82 72.9398 250.27C74.0998 250.09 75.1198 249.45 75.8398 248.55C76.1998 248.1 76.4798 247.58 76.6598 247.02C85.0398 220.91 50.9498 202.6 28.0298 214.82Z" fill="white"/>
</g>
<g opacity="0.7">
<path d="M226.92 243.63C225.2 229.58 218.21 209.5 192.33 209.5C177.5 209.5 168.82 214 163.77 219.73C169.03 215.09 177.27 211.69 190.14 211.69C216.02 211.69 223.01 231.78 224.73 245.82C224.79 246.3 224.78 246.76 224.72 247.22C224.63 247.8 224.45 248.36 224.18 248.87C225.65 248.11 226.67 246.67 226.91 245.03C226.97 244.57 226.98 244.1 226.92 243.63Z" fill="white"/>
</g>
<g opacity="0.7">
<path d="M64.7098 171.87C70.5398 178.43 75.2198 192.75 75.5098 193.65C77.6198 193.22 78.9697 192.75 78.9697 192.75C78.9697 192.75 74.1797 177.7 68.1597 170.92C66.0397 168.53 63.7598 167.17 61.4998 167.87C60.8598 168.07 60.2697 168.33 59.7197 168.66C61.4197 168.86 63.1098 170.07 64.7098 171.87Z" fill="white"/>
</g>
<g opacity="0.7">
<path d="M166.43 162.23C166.11 161.98 165.78 161.81 165.43 161.69C164.42 161.34 163.34 161.5 162.47 162.03C162.57 162.09 162.67 162.16 162.77 162.24C167.92 166.2 175.26 173.92 178.94 187.36C175.23 188.46 170.38 189.15 167.25 189.51C167.59 189.7 167.77 189.83 167.77 189.83C167.77 189.83 176.67 189.12 182.6 187.36C178.92 173.91 171.58 166.2 166.43 162.23Z" fill="white"/>
</g>
<g opacity="0.7">
<path d="M223.28 203.15L223.25 202.91C208.91 189.28 182.6 187.36 182.6 187.36C176.66 189.12 167.77 189.83 167.77 189.83C172.5 192.42 183.03 191.24 183.03 191.24C184.6 191.33 186.14 191.48 187.65 191.69C188.48 191.8 189.23 192.23 189.77 192.87C191.09 194.43 194.9 196.36 199.62 197.71C203.77 198.9 207.56 199.33 209.73 199C210.4 198.9 211.09 199.02 211.7 199.32C216.58 201.78 219.46 203.83 219.46 203.83C219.46 203.83 221 203.41 223.28 203.15Z" fill="white"/>
</g>
<g opacity="0.7">
<path d="M241.59 211.14C239.22 204.76 233.09 203.1 227.88 202.94C227.88 202.94 228.05 203.58 228.47 204.66C232.89 205.32 237.36 207.37 239.3 212.6C240.38 215.52 240.62 218.2 240.34 220.59C240.9 221.03 241.47 221.46 242.08 221.87C242.96 218.86 243.11 215.24 241.59 211.14Z" fill="white"/>
</g>
<g opacity="0.7">
<path d="M55.84 189.73C33.67 189.84 19.4099 198.55 14.3599 202.25C14.2899 201.11 14.2 200.41 14.2 200.41C26.31 185.72 53.1099 185.8 53.1099 185.8C53.8699 187.36 54.8 188.65 55.84 189.73Z" fill="white"/>
</g>
<g opacity="0.3">
<path d="M126.16 215.24C126.16 215.24 143.25 218.16 152.18 213.54C161.1 208.91 147.4 231.59 126.71 221.06C109.52 212.31 126.16 215.24 126.16 215.24Z" fill="white"/>
</g>
<g opacity="0.3">
<path d="M108.53 222.34C111.21 221.89 115.7 221.57 120.94 222.93C122.2 223.26 122.26 225.03 121.02 225.42C119.71 225.83 117.82 226.26 115.12 226.63C111.44 227.13 109.19 226.41 107.84 225.48C106.55 224.59 107 222.6 108.53 222.34Z" fill="white"/>
</g>
<path d="M126.67 150.68C126.27 151.85 125.78 153.08 125.19 154.3C123.56 157.61 119.33 158.59 116.42 156.34C115.34 155.51 114.36 154.63 113.49 153.75C113.49 153.75 115.59 151.24 119.64 150.3C123.69 149.36 126.67 150.68 126.67 150.68Z" fill="#FF4D96"/>
<path d="M4.10989 221.13C3.78989 221.13 3.4699 220.96 3.3099 220.65C3.0699 220.21 3.2299 219.65 3.6799 219.41C11.8999 214.95 10.0799 199.95 10.0599 199.8C9.9999 199.3 10.3499 198.84 10.8499 198.78C11.3499 198.72 11.8099 199.07 11.8699 199.57C11.9599 200.24 13.8599 215.96 4.53988 221.02C4.40988 221.09 4.25989 221.13 4.10989 221.13Z" fill="#232323"/>
<path d="M122.58 162.95C120.4 163.43 118.29 163.77 116.13 164.06C113.98 164.34 111.82 164.55 109.65 164.68C107.48 164.81 105.31 164.85 103.13 164.8C100.95 164.74 98.7698 164.58 96.5998 164.31C94.4298 164.05 92.2598 163.6 90.1298 163.03C89.5998 162.87 89.0598 162.75 88.5398 162.56L86.9698 162.03C85.9398 161.62 84.8999 161.22 83.8999 160.71L83.1499 160.34L82.4198 159.92L81.6898 159.5L81.3299 159.29L80.9798 159.05L79.5899 158.1L78.2699 157.04C76.5599 155.56 75.0598 153.84 73.8098 151.95C73.5398 151.54 73.5399 151.03 73.7699 150.63V150.62C73.9699 150.29 74.1398 150.08 74.3498 149.84C74.5498 149.61 74.7598 149.39 74.9798 149.18C75.4198 148.76 75.9198 148.4 76.4398 148.09C76.9598 147.77 77.5398 147.54 78.1198 147.39C78.7098 147.23 79.3298 147.21 79.9098 147.27C80.0698 147.29 80.1898 147.43 80.1698 147.59C80.1598 147.69 80.0999 147.77 80.0199 147.81L79.9898 147.83C79.5098 148.1 79.0798 148.35 78.6898 148.66C78.2998 148.96 77.9398 149.28 77.6098 149.64C77.2798 149.99 76.9799 150.37 76.7099 150.75C76.5699 150.95 76.4398 151.14 76.3098 151.34C76.1798 151.52 76.0498 151.76 75.9698 151.9L75.9398 150.58C77.0498 152.26 78.3798 153.79 79.9098 155.11L81.0899 156.06L82.3498 156.92L82.6598 157.13L82.9898 157.32L83.6499 157.7L84.3098 158.08L84.9998 158.41C85.9098 158.88 86.8698 159.25 87.8198 159.63L89.2898 160.13C89.7798 160.3 90.2799 160.42 90.7799 160.57C92.7799 161.11 94.8199 161.53 96.8999 161.78C98.9699 162.04 101.07 162.19 103.17 162.25C105.27 162.3 107.38 162.25 109.48 162.13C111.58 162.01 113.69 161.81 115.78 161.53C117.86 161.25 119.98 160.91 121.98 160.47L122.01 160.46C122.7 160.31 123.38 160.74 123.54 161.43C123.7 162.11 123.27 162.8 122.58 162.95Z" fill="#232323"/>
<path d="M75.4099 150.57C75.2599 150.45 71.8199 147.65 70.9099 144.02C70.8099 143.61 70.9099 143.18 71.1899 142.86C71.7899 142.17 73.3999 140 73.5999 138.24C73.6499 137.8 73.2999 135.9 72.9899 134.22C71.7299 127.37 69.6699 116.21 73.4099 109.86C71.9899 108.83 70.1399 106.54 70.2699 101.63L72.8299 101.7C72.6799 107.31 75.5499 108.15 75.5799 108.16C76.0099 108.26 76.3499 108.58 76.4999 109C76.6399 109.42 76.5599 109.88 76.2799 110.22C72.1099 115.33 74.3199 127.32 75.5099 133.77C75.9999 136.44 76.2399 137.76 76.1499 138.54C75.8999 140.75 74.3699 142.98 73.5799 144C74.4999 146.52 76.9999 148.57 77.0199 148.59L75.4099 150.57Z" fill="#232323"/>
<path d="M73.0999 128.28C72.7599 128.28 72.4299 128.15 72.1799 127.89C71.5899 127.27 57.69 112.45 60.33 84.78C60.38 84.29 60.6999 83.87 61.1699 83.7C61.6799 83.51 73.95 79.24 93.39 87.67C94.04 87.95 94.3399 88.7 94.0599 89.35C93.7799 90 93.0199 90.3 92.3799 90.02C76.5399 83.15 65.6899 85.14 62.8099 85.88C60.6599 111.78 73.8999 125.97 74.0399 126.11C74.5299 126.62 74.5099 127.43 73.9999 127.92C73.7399 128.17 73.4199 128.28 73.0999 128.28Z" fill="#232323"/>
<path d="M62.2498 83.8C64.0898 84.92 65.7298 86.12 67.3598 87.41C68.9798 88.69 70.5399 90.05 72.0199 91.5C72.7799 92.21 73.4799 92.97 74.1999 93.71C74.8899 94.48 75.5998 95.23 76.2498 96.04C77.5998 97.61 78.7998 99.31 79.9698 101.03L77.8299 101.02C78.0599 100.72 78.3099 100.44 78.5699 100.16C78.8299 99.88 79.0998 99.62 79.3798 99.36C79.6698 99.11 79.9398 98.84 80.2498 98.6C80.5498 98.35 80.8598 98.11 81.1898 97.9C81.3498 97.8 81.5598 97.84 81.6598 98C81.7198 98.09 81.7299 98.2 81.6999 98.29V98.3C81.5799 98.67 81.4499 99.02 81.3199 99.38C81.1899 99.74 81.0398 100.08 80.9098 100.43C80.7698 100.78 80.6199 101.12 80.4599 101.46C80.2999 101.79 80.1399 102.13 79.9599 102.44C79.6199 103.03 78.8699 103.23 78.2799 102.89C78.1199 102.8 77.9899 102.67 77.8899 102.53L77.8199 102.43C76.7099 100.8 75.5699 99.19 74.2799 97.69C73.6599 96.92 72.9798 96.2 72.3198 95.46C71.6299 94.75 70.9598 94.02 70.2298 93.34C68.8098 91.96 67.3199 90.65 65.7599 89.42C64.2199 88.2 62.5699 87.01 60.9499 86.02L60.9098 85.99C60.3098 85.62 60.1198 84.83 60.4798 84.23C60.8498 83.62 61.6398 83.43 62.2498 83.8Z" fill="#232323"/>
<path d="M73.8699 103.1C72.9099 103.07 72.0199 102.78 71.1799 102.34C70.3499 101.9 69.5899 101.3 68.9299 100.6C68.2699 99.9 67.68 99.1 67.27 98.22C66.82 97.35 66.57 96.4 66.39 95.46C66.25 94.79 66.6799 94.14 67.3499 94L67.4199 93.99H67.45C67.84 93.94 68.1299 93.91 68.4699 93.89C68.7899 93.87 69.12 93.86 69.44 93.86C70.09 93.86 70.7299 93.9 71.3699 93.98C72.0099 94.05 72.6599 94.17 73.2899 94.34C73.9299 94.49 74.5499 94.72 75.1699 94.97C75.8299 95.23 76.14 95.98 75.88 96.63C75.62 97.28 74.8799 97.6 74.2199 97.34L74.1599 97.32C73.6699 97.13 73.17 96.94 72.65 96.82C72.13 96.69 71.5999 96.59 71.0599 96.52C70.5199 96.45 69.9699 96.42 69.4299 96.42C69.1599 96.42 68.8799 96.43 68.6099 96.44C68.3499 96.45 68.0499 96.48 67.8499 96.51L68.9099 95.04C69.0099 95.41 69.0499 95.79 69.1599 96.16C69.2799 96.52 69.35 96.9 69.51 97.24C69.76 97.96 70.1199 98.63 70.5499 99.27C70.9699 99.92 71.5 100.5 72.09 101.05C72.67 101.61 73.3099 102.14 73.9899 102.67L74.01 102.69C74.11 102.77 74.1299 102.92 74.0499 103.02C74.0099 103.07 73.9399 103.1 73.8699 103.1Z" fill="#232323"/>
<path d="M86.6401 92.39C87.6801 91.02 88.98 89.98 90.36 89.06C90.71 88.83 91.06 88.61 91.42 88.41C91.78 88.2 92.1301 87.99 92.5001 87.8C93.2201 87.4 93.9601 87.03 94.7101 86.68C96.2101 85.99 97.7401 85.35 99.3101 84.85C100.88 84.32 102.48 83.92 104.1 83.6C104.79 83.47 105.47 83.92 105.6 84.61C105.73 85.26 105.34 85.88 104.73 86.08L104.68 86.1C103.93 86.34 103.17 86.54 102.42 86.77C101.67 87.01 100.91 87.22 100.17 87.48C98.67 87.95 97.21 88.51 95.74 89.08C94.28 89.66 92.84 90.3 91.43 90.98C90 91.64 88.55 92.3 87.04 92.89L87.0201 92.9C86.8501 92.97 86.66 92.88 86.6 92.72C86.55 92.59 86.5701 92.47 86.6401 92.39Z" fill="#232323"/>
<path d="M122 160.46C123.99 159.97 126.04 159.35 128.03 158.68C130.03 158 132 157.26 133.94 156.44C135.88 155.62 137.79 154.73 139.65 153.76C141.51 152.78 143.32 151.72 145.06 150.57C146.81 149.43 148.46 148.15 150.02 146.78C150.4 146.43 150.8 146.1 151.16 145.73L152.26 144.64C152.95 143.87 153.65 143.12 154.25 142.3L154.72 141.7L155.15 141.07L155.58 140.44L155.79 140.12L155.98 139.79L156.73 138.47L157.37 137.09C158.16 135.23 158.68 133.27 158.93 131.27L159.48 132.47C159.35 132.38 159.13 132.23 158.93 132.12C158.73 132 158.52 131.88 158.31 131.77C157.89 131.54 157.46 131.34 157.01 131.17C156.56 131 156.1 130.87 155.61 130.77C155.12 130.66 154.62 130.63 154.08 130.6H154.05C153.89 130.59 153.77 130.45 153.78 130.29C153.79 130.19 153.84 130.11 153.92 130.06C154.42 129.75 154.98 129.49 155.58 129.38C156.17 129.26 156.8 129.21 157.4 129.27C158.01 129.31 158.61 129.43 159.19 129.6C159.48 129.69 159.77 129.79 160.05 129.91C160.34 130.04 160.59 130.15 160.91 130.36C161.32 130.63 161.51 131.1 161.46 131.56C161.18 133.81 160.59 136.02 159.71 138.1L159 139.64L158.17 141.11L157.96 141.48L157.73 141.83L157.26 142.53L156.79 143.23L156.28 143.89C155.61 144.79 154.86 145.61 154.11 146.43L152.93 147.6C152.54 148 152.11 148.35 151.71 148.72C150.05 150.18 148.31 151.53 146.47 152.72C144.64 153.93 142.76 155.03 140.83 156.05C138.9 157.06 136.92 157.98 134.92 158.82C132.92 159.66 130.89 160.43 128.83 161.13C126.76 161.83 124.72 162.46 122.55 162.98C121.86 163.15 121.17 162.73 121 162.04C120.83 161.35 121.25 160.66 121.94 160.49L122 160.46Z" fill="#232323"/>
<path d="M159.41 131.01L157.09 129.93C157.1 129.9 158.44 126.96 158.15 124.29C156.99 123.72 154.63 122.4 153.43 120.53C153.01 119.87 152.63 118.58 151.9 115.97C150.12 109.66 146.81 97.92 140.81 95.19C140.41 95.01 140.13 94.63 140.07 94.19C140.01 93.75 140.18 93.32 140.52 93.04C140.59 92.97 142.73 90.96 140.14 86.03L142.4 84.84C144.69 89.19 144.04 92.06 143.22 93.61C149.39 97.65 152.47 108.58 154.36 115.28C154.82 116.92 155.35 118.78 155.59 119.16C156.55 120.66 158.95 121.89 159.79 122.24C160.18 122.4 160.47 122.74 160.55 123.16C161.34 126.8 159.49 130.84 159.41 131.01Z" fill="#232323"/>
<path d="M151.08 110.13C150.95 110.13 150.82 110.11 150.69 110.07C150.02 109.86 149.64 109.14 149.86 108.46C149.94 108.2 155.5 89.65 142.16 67.41C139.25 68.03 128.59 71.07 117.46 84.18C117 84.72 116.19 84.78 115.66 84.33C115.12 83.87 115.06 83.06 115.51 82.53C129.23 66.38 142.12 64.79 142.66 64.73C143.14 64.68 143.63 64.91 143.89 65.33C158.48 88.99 152.56 108.42 152.3 109.24C152.13 109.78 151.62 110.13 151.08 110.13Z" fill="#232323"/>
<path d="M143.87 66.71C142.85 68.31 141.9 70.1 141.06 71.88C140.21 73.67 139.44 75.5 138.78 77.37C138.43 78.3 138.15 79.25 137.84 80.19C137.58 81.14 137.28 82.09 137.07 83.06C136.58 84.98 136.26 86.93 135.99 88.88L135.97 88.99C135.87 89.66 135.25 90.12 134.58 90.03C134.4 90 134.22 89.93 134.08 89.83C133.78 89.63 133.49 89.4 133.2 89.17C132.91 88.94 132.63 88.7 132.35 88.45C132.07 88.19 131.79 87.95 131.51 87.69C131.23 87.43 130.96 87.17 130.69 86.89C130.56 86.75 130.56 86.54 130.7 86.41C130.78 86.33 130.88 86.3 130.98 86.32C131.38 86.37 131.76 86.45 132.14 86.54C132.52 86.62 132.88 86.74 133.26 86.84C133.63 86.95 133.99 87.07 134.34 87.2C134.69 87.33 135.04 87.47 135.38 87.64L133.46 88.59C133.75 86.53 134.08 84.48 134.6 82.47C134.82 81.46 135.13 80.47 135.41 79.47C135.73 78.49 136.02 77.49 136.39 76.53C137.08 74.58 137.88 72.67 138.76 70.8C139.65 68.92 140.6 67.13 141.75 65.31C142.13 64.71 142.92 64.54 143.52 64.92C144.12 65.3 144.29 66.09 143.91 66.69L143.87 66.71Z" fill="#232323"/>
<path d="M139.52 87.4C139.9 86.63 140.24 85.86 140.51 85.11C140.79 84.36 141.01 83.6 141.1 82.83C141.2 82.07 141.23 81.3 141.14 80.55C141.13 80.17 141.03 79.8 140.98 79.43C140.91 79.06 140.78 78.69 140.71 78.32L142.32 79.17C142.12 79.23 141.84 79.34 141.6 79.44C141.35 79.55 141.1 79.66 140.86 79.78C140.37 80.02 139.89 80.3 139.44 80.59C138.98 80.88 138.55 81.21 138.14 81.56C137.72 81.9 137.36 82.29 137.01 82.68L136.97 82.73C136.49 83.25 135.69 83.29 135.16 82.82C134.64 82.35 134.6 81.54 135.07 81.02C135.51 80.53 135.97 80.04 136.48 79.63C136.98 79.2 137.5 78.81 138.05 78.46C138.59 78.11 139.15 77.78 139.73 77.5C140.02 77.36 140.31 77.22 140.61 77.09C140.92 76.96 141.19 76.85 141.56 76.73L141.58 76.72C142.23 76.51 142.93 76.86 143.14 77.51C143.15 77.53 143.16 77.56 143.16 77.58C143.41 78.51 143.6 79.47 143.59 80.45C143.61 81.42 143.44 82.4 143.15 83.32C142.86 84.24 142.45 85.11 141.9 85.87C141.35 86.63 140.67 87.29 139.83 87.74C139.72 87.8 139.57 87.76 139.51 87.64C139.47 87.57 139.47 87.49 139.51 87.43L139.52 87.4Z" fill="#232323"/>
<path d="M123.5 84.39C121.88 84.53 120.29 84.58 118.72 84.62C117.15 84.63 115.57 84.7 114.01 84.82C112.45 84.96 110.88 85.11 109.33 85.34C108.55 85.43 107.78 85.59 107 85.7C106.23 85.83 105.45 85.98 104.67 86.1L104.62 86.11C103.92 86.22 103.27 85.74 103.16 85.04C103.06 84.39 103.47 83.78 104.09 83.61C105.68 83.18 107.3 82.83 108.94 82.61C110.57 82.36 112.23 82.26 113.88 82.22C114.71 82.21 115.53 82.21 116.36 82.25C116.77 82.26 117.19 82.29 117.6 82.32C118.01 82.34 118.42 82.38 118.83 82.43C120.47 82.64 122.1 83 123.64 83.78C123.8 83.86 123.87 84.06 123.78 84.22C123.73 84.32 123.63 84.39 123.52 84.4L123.5 84.39Z" fill="#232323"/>
<path d="M85.9799 129.97C85.7799 129.47 85.6599 128.98 85.5999 128.46C85.5299 127.95 85.5399 127.43 85.5799 126.9C85.6799 125.85 86.0299 124.78 86.6099 123.8C87.1799 122.83 88.0099 121.95 88.9699 121.33C89.9199 120.66 90.98 120.28 92.03 120C92.57 119.88 93.1099 119.81 93.6599 119.74H94.5099H94.9299C95.0699 119.75 95.2199 119.77 95.3599 119.79L96.2099 119.93C96.4899 120.01 96.7699 120.1 97.0499 120.19C97.3299 120.27 97.5899 120.41 97.8499 120.54C98.1099 120.67 98.3599 120.8 98.5999 120.98C99.5599 121.62 100.32 122.47 100.82 123.4C100.93 123.64 101.05 123.87 101.15 124.11C101.23 124.36 101.34 124.59 101.39 124.85C101.53 125.34 101.6 125.85 101.59 126.37C101.59 126.49 101.49 126.59 101.37 126.59C101.31 126.59 101.26 126.57 101.22 126.53L101.2 126.51C99.8299 125.2 98.4399 124.25 97.0999 123.91C96.9399 123.85 96.7699 123.83 96.5999 123.8C96.4299 123.77 96.2799 123.72 96.0999 123.72C95.9299 123.71 95.7699 123.7 95.6099 123.67L95.0999 123.69H94.8499L94.5899 123.72L94.0699 123.78C93.7199 123.85 93.3599 123.92 93.0099 124C92.3099 124.2 91.62 124.4 91.03 124.72C90.71 124.85 90.4499 125.06 90.1499 125.22C90.0099 125.31 89.8899 125.43 89.7499 125.53C89.5999 125.62 89.4799 125.75 89.3499 125.87C88.2999 126.8 87.4399 128.23 86.7399 129.92L86.7199 129.97C86.6399 130.17 86.3999 130.27 86.1999 130.18C86.0999 130.15 86.0199 130.07 85.9799 129.97Z" fill="#0C0C0C"/>
<path d="M139.56 118.3C138.18 117.1 136.78 116.19 135.42 115.82C135.25 115.77 135.09 115.71 134.92 115.69C134.75 115.67 134.59 115.61 134.42 115.59C134.08 115.58 133.75 115.5 133.41 115.53C132.74 115.5 132.03 115.63 131.32 115.76C130.97 115.84 130.62 115.94 130.27 116.03L129.78 116.21L129.53 116.29L129.31 116.4L128.85 116.61C128.72 116.7 128.57 116.79 128.43 116.87C128.27 116.94 128.16 117.06 128.02 117.16C127.88 117.26 127.73 117.35 127.62 117.48C126.56 118.38 125.73 119.84 125.08 121.62L125.07 121.64C125.03 121.75 124.9 121.81 124.79 121.77C124.74 121.75 124.69 121.71 124.67 121.66C124.43 121.19 124.27 120.71 124.18 120.2C124.12 119.95 124.11 119.69 124.07 119.43C124.05 119.17 124.06 118.91 124.05 118.64C124.09 117.58 124.39 116.48 124.97 115.49C125.1 115.23 125.27 115 125.45 114.77C125.63 114.54 125.8 114.3 126.01 114.11C126.21 113.9 126.42 113.7 126.64 113.51L127.34 113.01C127.46 112.93 127.58 112.84 127.7 112.77L128.08 112.58L128.84 112.21C129.36 112.03 129.88 111.85 130.41 111.72C131.48 111.51 132.6 111.38 133.74 111.56C134.87 111.69 136 112.11 136.95 112.73C137.9 113.35 138.69 114.16 139.24 115.06C139.51 115.52 139.75 115.98 139.91 116.47C140.09 116.96 140.19 117.45 140.24 117.99C140.26 118.21 140.1 118.4 139.88 118.42C139.77 118.43 139.67 118.39 139.59 118.33L139.56 118.3Z" fill="#0C0C0C"/>
<path d="M115.55 132.78C115.55 132.78 112.63 133.46 110.78 134.64C110.09 135.08 109.87 136 110.32 136.69C111.28 138.17 113.41 140.48 117.15 139.61C120.88 138.74 121.78 135.73 121.98 133.97C122.07 133.15 121.47 132.43 120.66 132.34C118.47 132.1 115.55 132.78 115.55 132.78Z" fill="#232323"/>
<path d="M107.56 147.23L116.18 144.76L117.81 141.7L124.83 143.4L128.33 143.22L127.59 146.6L126.37 149.9L123.64 150.01L117.95 150.33L114.7 152.64L113.48 152.78L110.9 149.97L107.56 147.23Z" fill="#232323"/>
<path d="M118.12 138.19L118.46 139.63L118.54 139.99C118.57 140.1 118.58 140.15 118.6 140.23C118.65 140.37 118.71 140.51 118.79 140.64C118.95 140.9 119.16 141.11 119.41 141.27C119.47 141.31 119.54 141.34 119.6 141.38L119.71 141.43L119.86 141.49C120.07 141.57 120.28 141.64 120.49 141.71C122.18 142.27 123.98 142.35 125.66 141.96C126.5 141.76 127.33 141.47 128.1 141.05L128.68 140.75L129.2 140.39C129.39 140.28 129.53 140.14 129.68 140L129.92 139.8C130 139.73 130.05 139.65 130.12 139.58C130.67 138.99 131.02 138.3 131.28 137.51C131.54 136.72 131.63 135.8 131.63 134.78V134.76C131.63 134.68 131.7 134.62 131.77 134.62C131.81 134.62 131.84 134.64 131.87 134.66C132.27 135.05 132.55 135.53 132.74 136.05C132.85 136.31 132.91 136.58 132.98 136.86C133.01 137.14 133.07 137.43 133.05 137.72C133.07 138.89 132.59 140.08 131.88 141.01C131.79 141.13 131.71 141.25 131.61 141.36L131.31 141.67C131.11 141.88 130.91 142.1 130.68 142.26L130.01 142.78L129.3 143.22C128.35 143.78 127.32 144.2 126.23 144.45C124.06 144.97 121.77 144.78 119.7 144.12C119.44 144.04 119.18 143.95 118.93 143.85L118.74 143.78L118.51 143.68C118.35 143.61 118.2 143.52 118.05 143.43C117.46 143.07 116.96 142.56 116.6 141.98C116.42 141.69 116.27 141.37 116.16 141.05C116.1 140.9 116.06 140.7 116.02 140.57L115.93 140.21L115.6 138.76C115.44 138.07 115.87 137.38 116.56 137.23C117.28 137.08 117.96 137.51 118.12 138.19Z" fill="#232323"/>
<path d="M119.96 158.84C118.41 158.84 116.89 158.33 115.63 157.36C110.22 153.19 107.23 147.86 107.11 147.63C106.77 147.01 106.99 146.23 107.61 145.89C108.23 145.55 109.01 145.77 109.35 146.39C109.38 146.44 112.22 151.5 117.19 155.33C118.28 156.17 119.66 156.47 120.99 156.16C122.32 155.85 123.43 154.97 124.03 153.74C126.8 148.1 127.12 142.31 127.12 142.25C127.16 141.54 127.76 140.99 128.46 141.03C129.17 141.06 129.71 141.66 129.68 142.37C129.67 142.63 129.34 148.73 126.33 154.86C125.38 156.78 123.65 158.16 121.57 158.65C121.04 158.78 120.5 158.84 119.96 158.84Z" fill="#232323"/>
<path d="M113.48 154.67C113.27 154.67 113.07 154.6 112.89 154.46C112.5 154.14 112.45 153.56 112.78 153.17C112.87 153.06 115.12 150.42 119.42 149.41C119.91 149.3 120.4 149.6 120.52 150.09C120.63 150.58 120.33 151.07 119.84 151.19C116.13 152.05 114.2 154.31 114.18 154.34C114 154.56 113.74 154.67 113.48 154.67Z" fill="#232323"/>
<path d="M126.67 151.6C126.55 151.6 126.42 151.58 126.3 151.52C126.26 151.5 123.5 150.34 119.83 151.19C119.34 151.31 118.85 151 118.73 150.51C118.62 150.02 118.92 149.53 119.41 149.41C123.71 148.41 126.9 149.79 127.03 149.84C127.49 150.04 127.7 150.58 127.5 151.05C127.36 151.4 127.02 151.6 126.67 151.6Z" fill="#232323"/>
<path d="M118.12 138.19L118.46 139.63L118.54 139.99C118.57 140.12 118.61 140.32 118.63 140.48C118.67 140.82 118.68 141.17 118.65 141.51C118.58 142.2 118.36 142.87 117.99 143.46C117.9 143.61 117.8 143.75 117.69 143.88L117.53 144.07L117.39 144.22C117.21 144.42 117.01 144.61 116.82 144.8C115.25 146.3 113.29 147.48 111.11 147.98C110.03 148.23 108.91 148.31 107.81 148.23L106.98 148.15L106.15 147.98C105.87 147.93 105.6 147.83 105.33 147.73L104.92 147.58C104.79 147.53 104.66 147.45 104.52 147.38C103.47 146.87 102.51 146.01 102.01 144.95C101.86 144.7 101.79 144.41 101.7 144.14C101.64 143.86 101.57 143.59 101.55 143.31C101.5 142.75 101.53 142.2 101.72 141.67C101.75 141.59 101.83 141.56 101.9 141.58C101.94 141.59 101.97 141.62 101.98 141.65L101.99 141.67C102.45 142.58 102.93 143.37 103.51 143.97C104.09 144.56 104.71 145.02 105.46 145.31C105.55 145.34 105.64 145.39 105.74 145.42L106.04 145.49C106.24 145.54 106.43 145.6 106.64 145.62L107.27 145.71L107.92 145.73C108.79 145.77 109.67 145.66 110.51 145.47C112.19 145.08 113.77 144.21 115.04 142.96C115.2 142.81 115.36 142.65 115.5 142.48L115.61 142.36L115.69 142.27C115.74 142.21 115.78 142.15 115.82 142.09C115.97 141.84 116.07 141.55 116.1 141.25C116.11 141.1 116.11 140.95 116.09 140.8C116.08 140.72 116.07 140.67 116.04 140.56L115.95 140.2L115.62 138.75C115.46 138.06 115.89 137.37 116.58 137.22C117.28 137.08 117.96 137.51 118.12 138.19Z" fill="#232323"/>
<path d="M86.4197 193.75C83.6897 179.91 88.2797 162.02 88.4797 161.27L90.9598 161.92C90.9098 162.1 86.3197 180 88.9297 193.26L86.4197 193.75Z" fill="#232323"/>
<path d="M125.89 165.5C128.36 166.85 130.74 168.15 133.19 169.35C135.63 170.55 138.22 171.44 140.85 172.07C141.51 172.22 142.17 172.39 142.84 172.49C143.51 172.61 144.16 172.73 144.87 172.84C145.57 172.96 146.27 173.06 146.97 173.2C147.67 173.33 148.37 173.47 149.07 173.63C150.47 173.94 151.86 174.31 153.26 174.81C153.61 174.93 153.96 175.08 154.31 175.21C154.66 175.37 155.01 175.51 155.36 175.71C155.71 175.89 156.06 176.09 156.42 176.35C156.6 176.47 156.78 176.63 156.97 176.79C157.07 176.88 157.16 176.98 157.26 177.1L157.42 177.31C157.45 177.34 157.48 177.41 157.51 177.46L157.55 177.54C157.57 177.58 157.61 177.67 157.63 177.73L157.59 177.62C157.93 178.38 158.18 179.09 158.43 179.84C158.67 180.58 158.89 181.34 159.07 182.11C159.41 183.66 159.66 185.27 159.43 187.03C159.31 187.9 159.05 188.82 158.51 189.67C157.98 190.52 157.13 191.22 156.23 191.59C156.12 191.64 156.01 191.69 155.89 191.73L155.55 191.83C155.32 191.89 155.09 191.97 154.87 191.99L154.2 192.09L153.55 192.11C153.33 192.12 153.12 192.12 152.91 192.1L152.28 192.06C151.87 192.01 151.47 191.94 151.07 191.88C150.37 191.78 149.89 191.13 149.99 190.43C150.09 189.75 150.71 189.27 151.39 189.34L151.51 189.35C151.85 189.39 152.18 189.44 152.51 189.46C152.83 189.46 153.17 189.51 153.48 189.47C154.12 189.46 154.69 189.33 155.16 189.13C155.63 188.92 155.98 188.63 156.23 188.21C156.49 187.8 156.65 187.25 156.73 186.65C156.88 185.44 156.69 184.05 156.39 182.7C156.09 181.35 155.62 179.95 155.1 178.7L155.06 178.59C155.07 178.63 155.1 178.7 155.12 178.72L155.13 178.74L155.15 178.78L155.08 178.71C155 178.64 154.93 178.57 154.81 178.49C154.6 178.34 154.35 178.18 154.08 178.04C153.82 177.89 153.52 177.77 153.24 177.63C152.94 177.51 152.65 177.38 152.34 177.27C151.11 176.8 149.8 176.44 148.48 176.11C147.82 175.94 147.15 175.79 146.48 175.65C145.81 175.5 145.13 175.38 144.46 175.25C143.8 175.13 143.07 174.98 142.37 174.83C141.66 174.7 140.97 174.5 140.27 174.32C137.5 173.55 134.8 172.5 132.27 171.14C130.99 170.49 129.78 169.7 128.65 168.81C128.08 168.37 127.55 167.88 127.04 167.38C126.53 166.87 126.05 166.33 125.64 165.72C125.58 165.63 125.61 165.52 125.69 165.46C125.75 165.47 125.82 165.47 125.89 165.5Z" fill="#232323"/>
<path d="M151.07 182.08C151.85 183.4 152.29 184.85 152.51 186.38C152.72 187.91 152.65 189.53 152.06 191.16C151.78 191.97 151.3 192.76 150.69 193.45C150.08 194.14 149.28 194.68 148.45 195.02C146.77 195.69 145.04 195.7 143.51 195.42C142.81 195.29 142.35 194.62 142.48 193.93C142.59 193.31 143.13 192.88 143.73 192.88H143.77C145.08 192.87 146.32 192.75 147.31 192.32C148.3 191.91 149 191.18 149.5 190.13C150 189.09 150.22 187.79 150.37 186.45C150.53 185.1 150.56 183.69 150.63 182.23V182.22C150.64 182.09 150.75 181.98 150.88 181.99C150.95 181.96 151.03 182.01 151.07 182.08Z" fill="#232323"/>
<path d="M143.48 185C144.18 185.87 144.73 186.84 145.16 187.88C145.59 188.92 145.89 190.05 145.94 191.28C145.96 191.89 145.92 192.54 145.75 193.19C145.58 193.84 145.29 194.5 144.87 195.08C144.01 196.27 142.67 196.97 141.45 197.3C140.82 197.47 140.23 197.53 139.64 197.6C139.49 197.62 139.34 197.64 139.19 197.65H138.73H137.81C136.58 197.54 135.34 197.25 134.2 196.71C133.07 196.14 132.06 195.38 131.25 194.46C131.04 194.24 130.86 193.99 130.67 193.75C130.49 193.51 130.33 193.25 130.16 192.99C130.01 192.73 129.85 192.47 129.72 192.19C129.58 191.91 129.47 191.66 129.34 191.29L130.7 192.09C129.18 192.33 127.77 192.4 126.3 192.4C124.84 192.39 123.38 192.29 121.93 192.09C120.48 191.89 119.03 191.59 117.62 191.16C116.2 190.74 114.82 190.19 113.49 189.5C112.16 188.82 110.89 188.01 109.74 187.03C108.59 186.07 107.52 184.98 106.64 183.77C106.53 183.62 106.41 183.47 106.3 183.32L106 182.85C105.8 182.53 105.6 182.22 105.42 181.89C105.09 181.22 104.75 180.56 104.52 179.85C104 178.47 103.75 177 103.7 175.55C103.69 175.38 103.83 175.24 104 175.23C104.12 175.23 104.23 175.29 104.28 175.39V175.4C105.64 177.9 106.91 180.22 108.6 182.22C109.42 183.24 110.38 184.12 111.41 184.91C112.45 185.69 113.56 186.39 114.74 186.94C115.92 187.5 117.16 187.97 118.43 188.35C119.7 188.73 121.01 188.99 122.33 189.2C123.65 189.4 124.99 189.53 126.34 189.59C127.01 189.61 127.69 189.64 128.36 189.63C129.02 189.62 129.73 189.61 130.33 189.56L130.45 189.55C131.01 189.5 131.52 189.85 131.7 190.36C131.78 190.48 131.91 190.7 132.03 190.88C132.16 191.07 132.29 191.25 132.43 191.43C132.72 191.78 133.02 192.12 133.34 192.42C133.99 193.02 134.71 193.53 135.49 193.88C136.27 194.23 137.12 194.41 137.99 194.5L138.66 194.51L139 194.52C139.11 194.52 139.23 194.5 139.34 194.49C139.8 194.45 140.27 194.42 140.66 194.33C141.06 194.24 141.44 194.12 141.75 193.95C142.07 193.79 142.34 193.59 142.56 193.33C143 192.83 143.29 192.09 143.41 191.2C143.65 189.41 143.33 187.32 142.96 185.25V185.23C142.93 185.08 143.03 184.93 143.19 184.91C143.32 184.88 143.42 184.92 143.48 185Z" fill="#232323"/>
<path d="M78.9799 194.04C78.4399 194.04 77.9299 193.69 77.7599 193.15C74.5099 182.97 67.3299 167.44 61.8799 169.1C54.2099 171.45 54.4 185.62 54.4 185.76C54.41 186.47 53.85 187.05 53.15 187.07C53.14 187.07 53.1299 187.07 53.1199 187.07C52.4299 187.07 51.85 186.51 51.84 185.82C51.83 185.16 51.6199 169.57 61.1299 166.66C70.7599 163.71 79.2599 189.43 80.1999 192.38C80.4099 193.05 80.0399 193.77 79.3699 193.99C79.2299 194.02 79.0999 194.04 78.9799 194.04Z" fill="#232323"/>
<path d="M85.5899 193.76C82.1099 176.43 77.2199 168.35 73.7999 166.57C73.1799 166.25 72.6399 166.16 72.2799 166.31C69.9399 167.33 69.4399 171.06 69.4399 171.09L66.8999 170.78C66.9299 170.57 67.5799 165.57 71.2599 163.96C72.0299 163.63 73.2999 163.41 74.9899 164.29C77.4399 165.57 83.6299 170.95 88.1099 193.25L85.5899 193.76Z" fill="#232323"/>
<path d="M6.63992 223.23C6.49992 223.23 6.3699 223.21 6.2399 223.17C5.9399 223.07 -1.0201 220.65 0.299895 210C0.629895 207.36 1.5399 204.92 2.9299 202.95C6.4799 197.93 11.1699 197.96 13.8399 198.86C26.2999 184.74 51.4999 184.51 53.0799 184.51C53.0999 184.51 53.1099 184.51 53.1199 184.51C53.6099 184.51 54.0499 184.79 54.2699 185.23C60.2799 197.64 78.3799 191.61 78.5599 191.55C78.7299 191.49 78.9099 191.47 79.0899 191.49C99.1999 193.22 130.76 190.75 131.07 190.72C131.78 190.67 132.39 191.19 132.45 191.89C132.51 192.59 131.98 193.21 131.28 193.27C130.96 193.3 99.4599 195.77 79.1299 194.06C76.7399 194.8 59.1999 199.7 52.3499 187.09C47.9799 187.22 26.1399 188.51 15.5499 200.81C15.8699 204 16.8599 219.05 7.14993 223.14C6.97993 223.2 6.80992 223.23 6.63992 223.23ZM10.9299 200.97C9.2299 200.97 6.97993 201.64 5.01993 204.43C3.86993 206.06 3.11993 208.09 2.83993 210.32C1.95993 217.46 5.38991 219.91 6.62991 220.56C13.8899 216.96 13.2899 204.47 13.0099 201.31C12.5299 201.14 11.7999 200.97 10.9299 200.97Z" fill="#232323"/>
<path d="M9.68002 250.7H4.57004C4.02004 250.7 3.53002 250.35 3.36002 249.82C-0.689985 237.66 2.37003 220.31 2.50003 219.58C2.63003 218.89 3.29002 218.42 3.99002 218.55C4.69002 218.68 5.15005 219.34 5.02005 220.04C4.99005 220.21 2.09004 236.63 5.51004 248.14H9.68002C10.39 248.14 10.9601 248.71 10.9601 249.42C10.9601 250.13 10.38 250.7 9.68002 250.7Z" fill="#232323"/>
<path d="M13.0998 252.78C12.2198 252.78 11.3498 252.5 10.5998 251.96C9.59977 251.24 8.92982 250.12 8.76982 248.9C8.02982 243.37 7.18979 224.48 27.4298 213.69C33.8998 210.24 41.4598 208.97 49.2798 210.01C56.6298 210.99 63.6298 214.01 68.9998 218.49C78.0998 226.08 81.3298 236.62 77.8698 247.4C77.1698 249.57 75.2998 251.19 73.1098 251.53C71.5198 251.78 70.4998 251.28 69.9198 250.82C68.9698 250.07 68.4298 248.84 68.2898 247.16C67.7498 240.36 63.9898 224.55 40.8798 224.55C34.0198 224.55 28.5098 226.59 24.4998 230.62C17.2698 237.88 17.2398 249.29 17.2398 249.4C17.2398 249.53 17.2198 249.67 17.1798 249.8C16.8898 250.7 15.8798 252.31 13.8898 252.69C13.6298 252.76 13.3598 252.78 13.0998 252.78ZM44.0998 212.26C38.6598 212.26 33.2998 213.47 28.6398 215.95C10.3698 225.69 10.4298 242 11.3098 248.57C11.3798 249.1 11.6698 249.58 12.0998 249.89C12.4898 250.17 12.9598 250.28 13.4198 250.19C14.1798 250.04 14.5598 249.44 14.6898 249.16C14.7298 247.27 15.2598 236.31 22.6798 228.84C27.1898 224.3 33.3198 222 40.8898 222C66.1298 222 70.2498 239.46 70.8498 246.96C70.9198 247.88 71.1598 248.54 71.5098 248.82C71.7698 249.03 72.1798 249.09 72.7198 249C73.9698 248.81 75.0298 247.87 75.4298 246.62C78.5498 236.88 75.6098 227.34 67.3598 220.45C60.9198 215.08 52.4198 212.26 44.0998 212.26Z" fill="#232323"/>
<path d="M42.46 266.1C30.37 266.1 19.32 258.53 14.95 247.26L17.34 246.33C21.33 256.62 31.42 263.53 42.46 263.53C54.33 263.53 64.6599 255.93 68.1799 244.61L70.6199 245.37C66.7699 257.78 55.45 266.1 42.46 266.1Z" fill="#232323"/>
<path d="M42.4598 251.68C35.3598 251.68 29.5798 245.9 29.5798 238.8C29.5798 231.7 35.3598 225.92 42.4598 225.92C49.5598 225.92 55.3398 231.7 55.3398 238.8C55.3298 245.91 49.5598 251.68 42.4598 251.68ZM42.4598 228.49C36.7698 228.49 32.1398 233.12 32.1398 238.81C32.1398 244.5 36.7698 249.13 42.4598 249.13C48.1498 249.13 52.7798 244.5 52.7798 238.81C52.7798 233.12 48.1398 228.49 42.4598 228.49Z" fill="#232323"/>
<path d="M192.05 251.68C184.95 251.68 179.17 245.9 179.17 238.8C179.17 231.7 184.95 225.92 192.05 225.92C199.15 225.92 204.93 231.7 204.93 238.8C204.93 245.91 199.15 251.68 192.05 251.68ZM192.05 228.49C186.36 228.49 181.73 233.12 181.73 238.81C181.73 244.5 186.36 249.13 192.05 249.13C197.74 249.13 202.37 244.5 202.37 238.81C202.37 233.12 197.74 228.49 192.05 228.49Z" fill="#232323"/>
<path d="M154.13 200.9C147.84 200.9 145.64 196.51 145.36 194.19C145.27 193.49 145.77 192.85 146.48 192.76C147.18 192.68 147.81 193.17 147.9 193.87C147.96 194.33 148.68 198.34 154.13 198.34C157.99 198.34 164.57 197.29 166.32 190.45C164.99 189.73 161.92 188.33 158.03 188.28C157.32 188.27 156.76 187.69 156.77 186.98C156.78 186.27 157.36 185.69 158.07 185.72C164.1 185.8 168.32 188.64 168.5 188.77C168.92 189.06 169.13 189.56 169.04 190.06C167.76 196.95 162.33 200.9 154.13 200.9Z" fill="#232323"/>
<path d="M223.26 204.19C222.94 204.19 222.63 204.07 222.38 203.84C209.22 191.33 185.31 188.88 182.74 188.65C176.75 190.38 168.24 191.07 167.88 191.1C167.16 191.16 166.56 190.63 166.5 189.93C166.44 189.23 166.97 188.61 167.67 188.55C167.76 188.54 176.5 187.83 182.24 186.13C182.39 186.09 182.54 186.07 182.7 186.08C183.79 186.16 209.64 188.19 224.14 201.99C224.65 202.48 224.67 203.29 224.19 203.8C223.93 204.06 223.59 204.19 223.26 204.19Z" fill="#232323"/>
<path d="M182.6 188.63C182.04 188.63 181.52 188.26 181.37 187.69C177.83 174.76 170.87 167.26 165.66 163.24C164.97 162.71 164.1 162.63 163.32 163.01C162.53 163.4 162.06 164.15 162.06 165.02V187.23C162.06 187.94 161.49 188.51 160.78 188.51C160.07 188.51 159.5 187.94 159.5 187.23V165.02C159.5 163.18 160.53 161.52 162.18 160.71C163.83 159.9 165.76 160.09 167.21 161.21C172.74 165.47 180.11 173.4 183.83 187.01C184.02 187.69 183.62 188.4 182.93 188.58C182.82 188.62 182.71 188.63 182.6 188.63Z" fill="#232323"/>
<path d="M235.4 232.95C235.12 232.95 234.84 232.86 234.6 232.67C218.64 219.98 218.18 204.48 218.17 203.83C218.16 203.24 218.55 202.72 219.13 202.57C219.32 202.52 238.01 197.79 242.79 210.69C247.69 223.9 236.28 232.61 236.16 232.69C235.94 232.87 235.67 232.95 235.4 232.95ZM220.82 204.82C221.22 208.32 223.42 220.06 235.39 230.01C237.66 227.97 243.97 221.21 240.39 211.58C237 202.43 224.52 204.11 220.82 204.82Z" fill="#232323"/>
<path d="M242.08 223.16C241.83 223.16 241.57 223.09 241.35 222.93C229.9 215 226.77 203.75 226.64 203.27C226.46 202.59 226.86 201.89 227.54 201.7C228.22 201.52 228.92 201.92 229.11 202.6C229.15 202.75 232.18 213.46 242.8 220.82C243.38 221.22 243.53 222.02 243.12 222.6C242.88 222.97 242.48 223.16 242.08 223.16Z" fill="#232323"/>
<path d="M227.25 246.35C226.71 246.35 226.2 246 226.03 245.45C225.82 244.78 226.19 244.06 226.87 243.85C236.72 240.75 235.75 230.82 235.7 230.4C235.62 229.7 236.13 229.07 236.83 228.99C237.52 228.91 238.16 229.42 238.24 230.12C238.25 230.24 239.47 242.57 227.63 246.29C227.51 246.34 227.38 246.35 227.25 246.35Z" fill="#232323"/>
<path d="M221.78 250.71C220.33 250.71 218.94 250.21 217.79 249.27C216.44 248.17 215.59 246.55 215.44 244.82C214.86 238.12 211.29 222.54 190.72 222.54C183.57 222.54 178.07 224.43 174.37 228.15C169.47 233.08 168.79 240.22 168.82 244.04C168.83 245.99 167.96 247.81 166.42 249.02C164.95 250.18 163.08 250.6 161.28 250.15C159.47 249.7 157.08 248.24 155.96 243.8C155.95 243.77 155.94 243.73 155.94 243.7C155.85 243.13 153.72 229.56 162.47 219.24C168.69 211.91 178.73 208.19 192.33 208.19C219.77 208.19 226.58 230.28 228.19 243.45C228.61 246.84 226.34 249.97 223.02 250.57C222.85 250.6 222.68 250.63 222.5 250.65C222.26 250.7 222.02 250.71 221.78 250.71ZM190.71 219.99C200.54 219.99 207.95 223.27 212.71 229.75C216.65 235.1 217.7 241.36 217.99 244.61C218.08 245.67 218.59 246.62 219.41 247.3C220.21 247.95 221.21 248.25 222.22 248.13C222.34 248.12 222.46 248.1 222.58 248.08C224.56 247.72 225.92 245.83 225.66 243.78C223.81 228.72 216.54 210.77 192.34 210.77C179.54 210.77 170.16 214.18 164.45 220.89C156.71 230 158.34 242.38 158.47 243.25C159.12 245.79 160.27 247.28 161.9 247.68C162.92 247.93 163.99 247.69 164.84 247.02C165.75 246.3 166.27 245.22 166.26 244.06C166.23 239.85 167.01 231.94 172.56 226.35C176.75 222.13 182.86 219.99 190.71 219.99Z" fill="#232323"/>
<path d="M191.95 265.22C180.04 265.22 169.41 257.23 166.11 245.8L168.57 245.09C171.55 255.43 181.17 262.66 191.95 262.66C203.06 262.66 212.75 255.16 215.51 244.41L217.99 245.05C214.94 256.93 204.23 265.22 191.95 265.22Z" fill="#232323"/>
<path d="M110.78 251.24C91.5698 251.24 75.9997 249.85 75.7197 249.83L75.9498 247.28C76.4498 247.33 126.55 251.78 157.74 244.58L158.32 247.07C144.2 250.33 126.31 251.24 110.78 251.24Z" fill="#232323"/>
<path d="M92.33 249.99C85.28 226.32 90.3399 194.45 90.5599 193.1L93.09 193.51C93.04 193.83 87.9 226.15 94.78 249.25L92.33 249.99Z" fill="#232323"/>
<path d="M97.9399 206.31C96.0099 206.31 94.46 204.77 94.46 202.87C94.46 200.97 96 199.43 97.9 199.43C97.93 199.43 97.9599 199.43 97.9999 199.43L109.23 200.62C110.57 200.76 111.58 201.88 111.58 203.23C111.58 204.64 110.48 205.79 109.07 205.85L97.9399 206.31ZM97.8599 201.26C96.9899 201.28 96.2899 202 96.2899 202.87C96.2899 203.76 97.01 204.48 97.9 204.48L108.98 204.02C109.41 204 109.74 203.65 109.74 203.23C109.74 202.82 109.43 202.48 109.03 202.44L97.8599 201.26Z" fill="#232323"/>
<path d="M147.43 175.06C145.97 165.48 139.11 155.81 139.04 155.72L141.12 154.23C141.42 154.64 148.41 164.48 149.96 174.68L147.43 175.06Z" fill="#232323"/>
<path d="M148.44 172.92L147.63 170.49C152.26 168.95 156.96 166.1 160.09 163.97L161.53 166.09C156.78 169.31 152.37 171.61 148.44 172.92Z" fill="#232323"/>
<path d="M166.23 162.67L164.65 160.66C165.41 160.07 165.83 159.71 165.84 159.7C166.03 159.54 166.27 159.43 166.52 159.41C173.41 158.63 177.66 156.84 178.49 154.37C179.28 152.01 176.89 149.07 175.9 148.14C175.52 147.78 175.39 147.23 175.58 146.74C176.82 143.55 176.95 141.27 175.96 140.15C174.64 138.67 171.37 139.12 170.22 139.41C169.85 139.51 169.46 139.43 169.15 139.21C168.84 138.99 168.65 138.64 168.62 138.27C168.43 135.79 167.71 134.19 166.46 133.52C164.18 132.29 160.59 134.22 160.56 134.24L159.32 132C159.52 131.89 164.15 129.37 167.68 131.27C169.45 132.22 170.56 134.04 171.01 136.67C172.87 136.42 176.02 136.37 177.87 138.45C179.47 140.25 179.6 143.09 178.26 146.91C179.5 148.29 182.08 151.71 180.93 155.18C179.74 158.76 175.25 160.96 167.2 161.92C166.98 162.07 166.65 162.34 166.23 162.67Z" fill="#232323"/>
</svg>
