<svg width="1920" height="1080" viewBox="0 0 1920 1080" fill="none" xmlns="http://www.w3.org/2000/svg">
<g clip-path="url(#clip0_46_2394)">
<path d="M1920 0H0V1080H1920V0Z" fill="#7636FF"/>
<path d="M1824.64 949.54H979.28C962.27 949.54 948.49 935.75 948.49 918.75V169.3H1855.44V918.75C1855.44 935.75 1841.65 949.54 1824.64 949.54Z" fill="#6B787F"/>
<mask id="mask0_46_2394" style="mask-type:luminance" maskUnits="userSpaceOnUse" x="948" y="169" width="908" height="781">
<path d="M1824.64 949.54H979.28C962.27 949.54 948.49 935.75 948.49 918.75V169.3H1855.44V918.75C1855.44 935.75 1841.65 949.54 1824.64 949.54Z" fill="white"/>
</mask>
<g mask="url(#mask0_46_2394)">
<path d="M1047.25 246.58H938.45V324.34H1047.25V246.58Z" fill="#6B787F" stroke="#232323" stroke-width="6" stroke-miterlimit="10"/>
</g>
<mask id="mask1_46_2394" style="mask-type:luminance" maskUnits="userSpaceOnUse" x="948" y="169" width="908" height="781">
<path d="M1824.64 949.54H979.28C962.27 949.54 948.49 935.75 948.49 918.75V169.3H1855.44V918.75C1855.44 935.75 1841.65 949.54 1824.64 949.54Z" fill="white"/>
</mask>
<g mask="url(#mask1_46_2394)">
<path d="M1327.59 246.58H1218.79V324.34H1327.59V246.58Z" fill="#6B787F" stroke="#232323" stroke-width="6" stroke-miterlimit="10"/>
</g>
<mask id="mask2_46_2394" style="mask-type:luminance" maskUnits="userSpaceOnUse" x="948" y="169" width="908" height="781">
<path d="M1824.64 949.54H979.28C962.27 949.54 948.49 935.75 948.49 918.75V169.3H1855.44V918.75C1855.44 935.75 1841.65 949.54 1824.64 949.54Z" fill="white"/>
</mask>
<g mask="url(#mask2_46_2394)">
<path d="M1218.79 246.58H1047.58V324.34H1218.79V246.58Z" fill="#2C3135" stroke="#232323" stroke-width="6" stroke-miterlimit="10"/>
</g>
<mask id="mask3_46_2394" style="mask-type:luminance" maskUnits="userSpaceOnUse" x="948" y="169" width="908" height="781">
<path d="M1824.64 949.54H979.28C962.27 949.54 948.49 935.75 948.49 918.75V169.3H1855.44V918.75C1855.44 935.75 1841.65 949.54 1824.64 949.54Z" fill="white"/>
</mask>
<g mask="url(#mask3_46_2394)">
<path d="M1499.13 246.58H1327.92V324.34H1499.13V246.58Z" fill="#6B787F" stroke="#232323" stroke-width="6" stroke-miterlimit="10"/>
</g>
<mask id="mask4_46_2394" style="mask-type:luminance" maskUnits="userSpaceOnUse" x="948" y="169" width="908" height="781">
<path d="M1824.64 949.54H979.28C962.27 949.54 948.49 935.75 948.49 918.75V169.3H1855.44V918.75C1855.44 935.75 1841.65 949.54 1824.64 949.54Z" fill="white"/>
</mask>
<g mask="url(#mask4_46_2394)">
<path d="M1078.46 324.64H907.25V402.4H1078.46V324.64Z" fill="#48525B" stroke="#232323" stroke-width="6" stroke-miterlimit="10"/>
</g>
<mask id="mask5_46_2394" style="mask-type:luminance" maskUnits="userSpaceOnUse" x="948" y="169" width="908" height="781">
<path d="M1824.64 949.54H979.28C962.27 949.54 948.49 935.75 948.49 918.75V169.3H1855.44V918.75C1855.44 935.75 1841.65 949.54 1824.64 949.54Z" fill="white"/>
</mask>
<g mask="url(#mask5_46_2394)">
<path d="M1187.26 324.64H1078.46V402.4H1187.26V324.64Z" fill="#6B787F" stroke="#232323" stroke-width="6" stroke-miterlimit="10"/>
</g>
<mask id="mask6_46_2394" style="mask-type:luminance" maskUnits="userSpaceOnUse" x="948" y="169" width="908" height="781">
<path d="M1824.64 949.54H979.28C962.27 949.54 948.49 935.75 948.49 918.75V169.3H1855.44V918.75C1855.44 935.75 1841.65 949.54 1824.64 949.54Z" fill="white"/>
</mask>
<g mask="url(#mask6_46_2394)">
<path d="M1467.59 324.64H1358.79V402.4H1467.59V324.64Z" fill="#6B787F" stroke="#232323" stroke-width="6" stroke-miterlimit="10"/>
</g>
<mask id="mask7_46_2394" style="mask-type:luminance" maskUnits="userSpaceOnUse" x="948" y="169" width="908" height="781">
<path d="M1824.64 949.54H979.28C962.27 949.54 948.49 935.75 948.49 918.75V169.3H1855.44V918.75C1855.44 935.75 1841.65 949.54 1824.64 949.54Z" fill="white"/>
</mask>
<g mask="url(#mask7_46_2394)">
<path d="M1358.79 324.64H1187.58V402.4H1358.79V324.64Z" fill="#2C3135" stroke="#232323" stroke-width="6" stroke-miterlimit="10"/>
</g>
<mask id="mask8_46_2394" style="mask-type:luminance" maskUnits="userSpaceOnUse" x="948" y="169" width="908" height="781">
<path d="M1824.64 949.54H979.28C962.27 949.54 948.49 935.75 948.49 918.75V169.3H1855.44V918.75C1855.44 935.75 1841.65 949.54 1824.64 949.54Z" fill="white"/>
</mask>
<g mask="url(#mask8_46_2394)">
<path d="M1639.13 324.64H1467.92V402.4H1639.13V324.64Z" fill="#48525B" stroke="#232323" stroke-width="6" stroke-miterlimit="10"/>
</g>
<mask id="mask9_46_2394" style="mask-type:luminance" maskUnits="userSpaceOnUse" x="948" y="169" width="908" height="781">
<path d="M1824.64 949.54H979.28C962.27 949.54 948.49 935.75 948.49 918.75V169.3H1855.44V918.75C1855.44 935.75 1841.65 949.54 1824.64 949.54Z" fill="white"/>
</mask>
<g mask="url(#mask9_46_2394)">
<path d="M1047.25 402.45H938.45V480.21H1047.25V402.45Z" fill="#232323" stroke="#232323" stroke-width="6" stroke-miterlimit="10"/>
</g>
<mask id="mask10_46_2394" style="mask-type:luminance" maskUnits="userSpaceOnUse" x="948" y="169" width="908" height="781">
<path d="M1824.64 949.54H979.28C962.27 949.54 948.49 935.75 948.49 918.75V169.3H1855.44V918.75C1855.44 935.75 1841.65 949.54 1824.64 949.54Z" fill="white"/>
</mask>
<g mask="url(#mask10_46_2394)">
<path d="M1327.59 402.45H1218.79V480.21H1327.59V402.45Z" fill="#232323" stroke="#232323" stroke-width="6" stroke-miterlimit="10"/>
</g>
<mask id="mask11_46_2394" style="mask-type:luminance" maskUnits="userSpaceOnUse" x="948" y="169" width="908" height="781">
<path d="M1824.64 949.54H979.28C962.27 949.54 948.49 935.75 948.49 918.75V169.3H1855.44V918.75C1855.44 935.75 1841.65 949.54 1824.64 949.54Z" fill="white"/>
</mask>
<g mask="url(#mask11_46_2394)">
<path d="M1218.79 402.45H1047.58V480.21H1218.79V402.45Z" fill="#232323" stroke="#232323" stroke-width="6" stroke-miterlimit="10"/>
</g>
<mask id="mask12_46_2394" style="mask-type:luminance" maskUnits="userSpaceOnUse" x="948" y="169" width="908" height="781">
<path d="M1824.64 949.54H979.28C962.27 949.54 948.49 935.75 948.49 918.75V169.3H1855.44V918.75C1855.44 935.75 1841.65 949.54 1824.64 949.54Z" fill="white"/>
</mask>
<g mask="url(#mask12_46_2394)">
<path d="M1499.13 402.45H1327.92V480.21H1499.13V402.45Z" fill="#232323" stroke="#232323" stroke-width="6" stroke-miterlimit="10"/>
</g>
<mask id="mask13_46_2394" style="mask-type:luminance" maskUnits="userSpaceOnUse" x="948" y="169" width="908" height="781">
<path d="M1824.64 949.54H979.28C962.27 949.54 948.49 935.75 948.49 918.75V169.3H1855.44V918.75C1855.44 935.75 1841.65 949.54 1824.64 949.54Z" fill="white"/>
</mask>
<g mask="url(#mask13_46_2394)">
<path d="M1078.46 480.51H907.25V558.27H1078.46V480.51Z" fill="#6B787F" stroke="#232323" stroke-width="6" stroke-miterlimit="10"/>
</g>
<mask id="mask14_46_2394" style="mask-type:luminance" maskUnits="userSpaceOnUse" x="948" y="169" width="908" height="781">
<path d="M1824.64 949.54H979.28C962.27 949.54 948.49 935.75 948.49 918.75V169.3H1855.44V918.75C1855.44 935.75 1841.65 949.54 1824.64 949.54Z" fill="white"/>
</mask>
<g mask="url(#mask14_46_2394)">
<path d="M1187.26 480.51H1078.46V558.27H1187.26V480.51Z" fill="#6B787F" stroke="#232323" stroke-width="6" stroke-miterlimit="10"/>
</g>
<mask id="mask15_46_2394" style="mask-type:luminance" maskUnits="userSpaceOnUse" x="948" y="169" width="908" height="781">
<path d="M1824.64 949.54H979.28C962.27 949.54 948.49 935.75 948.49 918.75V169.3H1855.44V918.75C1855.44 935.75 1841.65 949.54 1824.64 949.54Z" fill="white"/>
</mask>
<g mask="url(#mask15_46_2394)">
<path d="M1467.59 480.51H1358.79V558.27H1467.59V480.51Z" fill="#48525B" stroke="#232323" stroke-width="6" stroke-miterlimit="10"/>
</g>
<mask id="mask16_46_2394" style="mask-type:luminance" maskUnits="userSpaceOnUse" x="948" y="169" width="908" height="781">
<path d="M1824.64 949.54H979.28C962.27 949.54 948.49 935.75 948.49 918.75V169.3H1855.44V918.75C1855.44 935.75 1841.65 949.54 1824.64 949.54Z" fill="white"/>
</mask>
<g mask="url(#mask16_46_2394)">
<path d="M1358.79 480.51H1187.58V558.27H1358.79V480.51Z" fill="#48525B" stroke="#232323" stroke-width="6" stroke-miterlimit="10"/>
</g>
<mask id="mask17_46_2394" style="mask-type:luminance" maskUnits="userSpaceOnUse" x="948" y="169" width="908" height="781">
<path d="M1824.64 949.54H979.28C962.27 949.54 948.49 935.75 948.49 918.75V169.3H1855.44V918.75C1855.44 935.75 1841.65 949.54 1824.64 949.54Z" fill="white"/>
</mask>
<g mask="url(#mask17_46_2394)">
<path d="M1639.13 480.51H1467.92V558.27H1639.13V480.51Z" fill="#6B787F" stroke="#232323" stroke-width="6" stroke-miterlimit="10"/>
</g>
<mask id="mask18_46_2394" style="mask-type:luminance" maskUnits="userSpaceOnUse" x="948" y="169" width="908" height="781">
<path d="M1824.64 949.54H979.28C962.27 949.54 948.49 935.75 948.49 918.75V169.3H1855.44V918.75C1855.44 935.75 1841.65 949.54 1824.64 949.54Z" fill="white"/>
</mask>
<g mask="url(#mask18_46_2394)">
<path d="M1047.25 557.76H938.45V635.52H1047.25V557.76Z" fill="#2C3135" stroke="#232323" stroke-width="6" stroke-miterlimit="10"/>
</g>
<mask id="mask19_46_2394" style="mask-type:luminance" maskUnits="userSpaceOnUse" x="948" y="169" width="908" height="781">
<path d="M1824.64 949.54H979.28C962.27 949.54 948.49 935.75 948.49 918.75V169.3H1855.44V918.75C1855.44 935.75 1841.65 949.54 1824.64 949.54Z" fill="white"/>
</mask>
<g mask="url(#mask19_46_2394)">
<path d="M1327.59 557.76H1218.79V635.52H1327.59V557.76Z" fill="#6B787F" stroke="#232323" stroke-width="6" stroke-miterlimit="10"/>
</g>
<mask id="mask20_46_2394" style="mask-type:luminance" maskUnits="userSpaceOnUse" x="948" y="169" width="908" height="781">
<path d="M1824.64 949.54H979.28C962.27 949.54 948.49 935.75 948.49 918.75V169.3H1855.44V918.75C1855.44 935.75 1841.65 949.54 1824.64 949.54Z" fill="white"/>
</mask>
<g mask="url(#mask20_46_2394)">
<path d="M1218.79 557.76H1047.58V635.52H1218.79V557.76Z" fill="#48525B" stroke="#232323" stroke-width="6" stroke-miterlimit="10"/>
</g>
<mask id="mask21_46_2394" style="mask-type:luminance" maskUnits="userSpaceOnUse" x="948" y="169" width="908" height="781">
<path d="M1824.64 949.54H979.28C962.27 949.54 948.49 935.75 948.49 918.75V169.3H1855.44V918.75C1855.44 935.75 1841.65 949.54 1824.64 949.54Z" fill="white"/>
</mask>
<g mask="url(#mask21_46_2394)">
<path d="M1499.13 557.76H1327.92V635.52H1499.13V557.76Z" fill="#6B787F" stroke="#232323" stroke-width="6" stroke-miterlimit="10"/>
</g>
<mask id="mask22_46_2394" style="mask-type:luminance" maskUnits="userSpaceOnUse" x="948" y="169" width="908" height="781">
<path d="M1824.64 949.54H979.28C962.27 949.54 948.49 935.75 948.49 918.75V169.3H1855.44V918.75C1855.44 935.75 1841.65 949.54 1824.64 949.54Z" fill="white"/>
</mask>
<g mask="url(#mask22_46_2394)">
<path d="M1078.46 635.83H907.25V713.59H1078.46V635.83Z" fill="#232323" stroke="#232323" stroke-width="6" stroke-miterlimit="10"/>
</g>
<mask id="mask23_46_2394" style="mask-type:luminance" maskUnits="userSpaceOnUse" x="948" y="169" width="908" height="781">
<path d="M1824.64 949.54H979.28C962.27 949.54 948.49 935.75 948.49 918.75V169.3H1855.44V918.75C1855.44 935.75 1841.65 949.54 1824.64 949.54Z" fill="white"/>
</mask>
<g mask="url(#mask23_46_2394)">
<path d="M1187.26 635.83H1078.46V713.59H1187.26V635.83Z" fill="#232323" stroke="#232323" stroke-width="6" stroke-miterlimit="10"/>
</g>
<mask id="mask24_46_2394" style="mask-type:luminance" maskUnits="userSpaceOnUse" x="948" y="169" width="908" height="781">
<path d="M1824.64 949.54H979.28C962.27 949.54 948.49 935.75 948.49 918.75V169.3H1855.44V918.75C1855.44 935.75 1841.65 949.54 1824.64 949.54Z" fill="white"/>
</mask>
<g mask="url(#mask24_46_2394)">
<path d="M1467.59 635.83H1358.79V713.59H1467.59V635.83Z" fill="#232323" stroke="#232323" stroke-width="6" stroke-miterlimit="10"/>
</g>
<mask id="mask25_46_2394" style="mask-type:luminance" maskUnits="userSpaceOnUse" x="948" y="169" width="908" height="781">
<path d="M1824.64 949.54H979.28C962.27 949.54 948.49 935.75 948.49 918.75V169.3H1855.44V918.75C1855.44 935.75 1841.65 949.54 1824.64 949.54Z" fill="white"/>
</mask>
<g mask="url(#mask25_46_2394)">
<path d="M1358.79 635.83H1187.58V713.59H1358.79V635.83Z" fill="#232323" stroke="#232323" stroke-width="6" stroke-miterlimit="10"/>
</g>
<mask id="mask26_46_2394" style="mask-type:luminance" maskUnits="userSpaceOnUse" x="948" y="169" width="908" height="781">
<path d="M1824.64 949.54H979.28C962.27 949.54 948.49 935.75 948.49 918.75V169.3H1855.44V918.75C1855.44 935.75 1841.65 949.54 1824.64 949.54Z" fill="white"/>
</mask>
<g mask="url(#mask26_46_2394)">
<path d="M1639.13 635.83H1467.92V713.59H1639.13V635.83Z" fill="#232323" stroke="#232323" stroke-width="6" stroke-miterlimit="10"/>
</g>
<mask id="mask27_46_2394" style="mask-type:luminance" maskUnits="userSpaceOnUse" x="948" y="169" width="908" height="781">
<path d="M1824.64 949.54H979.28C962.27 949.54 948.49 935.75 948.49 918.75V169.3H1855.44V918.75C1855.44 935.75 1841.65 949.54 1824.64 949.54Z" fill="white"/>
</mask>
<g mask="url(#mask27_46_2394)">
<path d="M1047.25 713.89H938.45V791.65H1047.25V713.89Z" fill="#6B787F" stroke="#232323" stroke-width="6" stroke-miterlimit="10"/>
</g>
<mask id="mask28_46_2394" style="mask-type:luminance" maskUnits="userSpaceOnUse" x="948" y="169" width="908" height="781">
<path d="M1824.64 949.54H979.28C962.27 949.54 948.49 935.75 948.49 918.75V169.3H1855.44V918.75C1855.44 935.75 1841.65 949.54 1824.64 949.54Z" fill="white"/>
</mask>
<g mask="url(#mask28_46_2394)">
<path d="M1327.59 713.89H1218.79V791.65H1327.59V713.89Z" fill="#6B787F" stroke="#232323" stroke-width="6" stroke-miterlimit="10"/>
</g>
<mask id="mask29_46_2394" style="mask-type:luminance" maskUnits="userSpaceOnUse" x="948" y="169" width="908" height="781">
<path d="M1824.64 949.54H979.28C962.27 949.54 948.49 935.75 948.49 918.75V169.3H1855.44V918.75C1855.44 935.75 1841.65 949.54 1824.64 949.54Z" fill="white"/>
</mask>
<g mask="url(#mask29_46_2394)">
<path d="M1218.79 713.89H1047.58V791.65H1218.79V713.89Z" fill="#48525B" stroke="#232323" stroke-width="6" stroke-miterlimit="10"/>
</g>
<mask id="mask30_46_2394" style="mask-type:luminance" maskUnits="userSpaceOnUse" x="948" y="169" width="908" height="781">
<path d="M1824.64 949.54H979.28C962.27 949.54 948.49 935.75 948.49 918.75V169.3H1855.44V918.75C1855.44 935.75 1841.65 949.54 1824.64 949.54Z" fill="white"/>
</mask>
<g mask="url(#mask30_46_2394)">
<path d="M1499.13 713.89H1327.92V791.65H1499.13V713.89Z" fill="#6B787F" stroke="#232323" stroke-width="6" stroke-miterlimit="10"/>
</g>
<mask id="mask31_46_2394" style="mask-type:luminance" maskUnits="userSpaceOnUse" x="948" y="169" width="908" height="781">
<path d="M1824.64 949.54H979.28C962.27 949.54 948.49 935.75 948.49 918.75V169.3H1855.44V918.75C1855.44 935.75 1841.65 949.54 1824.64 949.54Z" fill="white"/>
</mask>
<g mask="url(#mask31_46_2394)">
<path d="M1078.46 791.95H907.25V869.71H1078.46V791.95Z" fill="#48525B" stroke="#232323" stroke-width="6" stroke-miterlimit="10"/>
</g>
<mask id="mask32_46_2394" style="mask-type:luminance" maskUnits="userSpaceOnUse" x="948" y="169" width="908" height="781">
<path d="M1824.64 949.54H979.28C962.27 949.54 948.49 935.75 948.49 918.75V169.3H1855.44V918.75C1855.44 935.75 1841.65 949.54 1824.64 949.54Z" fill="white"/>
</mask>
<g mask="url(#mask32_46_2394)">
<path d="M1187.26 791.95H1078.46V869.71H1187.26V791.95Z" fill="#2C3135" stroke="#232323" stroke-width="6" stroke-miterlimit="10"/>
</g>
<mask id="mask33_46_2394" style="mask-type:luminance" maskUnits="userSpaceOnUse" x="948" y="169" width="908" height="781">
<path d="M1824.64 949.54H979.28C962.27 949.54 948.49 935.75 948.49 918.75V169.3H1855.44V918.75C1855.44 935.75 1841.65 949.54 1824.64 949.54Z" fill="white"/>
</mask>
<g mask="url(#mask33_46_2394)">
<path d="M1467.59 791.95H1358.79V869.71H1467.59V791.95Z" fill="#48525B" stroke="#232323" stroke-width="6" stroke-miterlimit="10"/>
</g>
<mask id="mask34_46_2394" style="mask-type:luminance" maskUnits="userSpaceOnUse" x="948" y="169" width="908" height="781">
<path d="M1824.64 949.54H979.28C962.27 949.54 948.49 935.75 948.49 918.75V169.3H1855.44V918.75C1855.44 935.75 1841.65 949.54 1824.64 949.54Z" fill="white"/>
</mask>
<g mask="url(#mask34_46_2394)">
<path d="M1358.79 791.95H1187.58V869.71H1358.79V791.95Z" fill="#6B787F" stroke="#232323" stroke-width="6" stroke-miterlimit="10"/>
</g>
<mask id="mask35_46_2394" style="mask-type:luminance" maskUnits="userSpaceOnUse" x="948" y="169" width="908" height="781">
<path d="M1824.64 949.54H979.28C962.27 949.54 948.49 935.75 948.49 918.75V169.3H1855.44V918.75C1855.44 935.75 1841.65 949.54 1824.64 949.54Z" fill="white"/>
</mask>
<g mask="url(#mask35_46_2394)">
<path d="M1639.13 791.95H1467.92V869.71H1639.13V791.95Z" fill="#6B787F" stroke="#232323" stroke-width="6" stroke-miterlimit="10"/>
</g>
<mask id="mask36_46_2394" style="mask-type:luminance" maskUnits="userSpaceOnUse" x="948" y="169" width="908" height="781">
<path d="M1824.64 949.54H979.28C962.27 949.54 948.49 935.75 948.49 918.75V169.3H1855.44V918.75C1855.44 935.75 1841.65 949.54 1824.64 949.54Z" fill="white"/>
</mask>
<g mask="url(#mask36_46_2394)">
<path d="M1047.25 869.71H938.45V947.47H1047.25V869.71Z" fill="#232323" stroke="#232323" stroke-width="6" stroke-miterlimit="10"/>
</g>
<mask id="mask37_46_2394" style="mask-type:luminance" maskUnits="userSpaceOnUse" x="948" y="169" width="908" height="781">
<path d="M1824.64 949.54H979.28C962.27 949.54 948.49 935.75 948.49 918.75V169.3H1855.44V918.75C1855.44 935.75 1841.65 949.54 1824.64 949.54Z" fill="white"/>
</mask>
<g mask="url(#mask37_46_2394)">
<path d="M1327.59 869.71H1218.79V947.47H1327.59V869.71Z" fill="#232323" stroke="#232323" stroke-width="6" stroke-miterlimit="10"/>
</g>
<mask id="mask38_46_2394" style="mask-type:luminance" maskUnits="userSpaceOnUse" x="948" y="169" width="908" height="781">
<path d="M1824.64 949.54H979.28C962.27 949.54 948.49 935.75 948.49 918.75V169.3H1855.44V918.75C1855.44 935.75 1841.65 949.54 1824.64 949.54Z" fill="white"/>
</mask>
<g mask="url(#mask38_46_2394)">
<path d="M1218.79 869.71H1047.58V947.47H1218.79V869.71Z" fill="#232323" stroke="#232323" stroke-width="6" stroke-miterlimit="10"/>
</g>
<mask id="mask39_46_2394" style="mask-type:luminance" maskUnits="userSpaceOnUse" x="948" y="169" width="908" height="781">
<path d="M1824.64 949.54H979.28C962.27 949.54 948.49 935.75 948.49 918.75V169.3H1855.44V918.75C1855.44 935.75 1841.65 949.54 1824.64 949.54Z" fill="white"/>
</mask>
<g mask="url(#mask39_46_2394)">
<path d="M1499.13 869.71H1327.92V947.47H1499.13V869.71Z" fill="#232323" stroke="#232323" stroke-width="6" stroke-miterlimit="10"/>
</g>
<mask id="mask40_46_2394" style="mask-type:luminance" maskUnits="userSpaceOnUse" x="948" y="169" width="908" height="781">
<path d="M1824.64 949.54H979.28C962.27 949.54 948.49 935.75 948.49 918.75V169.3H1855.44V918.75C1855.44 935.75 1841.65 949.54 1824.64 949.54Z" fill="white"/>
</mask>
<g mask="url(#mask40_46_2394)">
<path d="M1670.34 246.58H1499.13V324.34H1670.34V246.58Z" fill="#2C3135" stroke="#232323" stroke-width="6" stroke-miterlimit="10"/>
</g>
<mask id="mask41_46_2394" style="mask-type:luminance" maskUnits="userSpaceOnUse" x="948" y="169" width="908" height="781">
<path d="M1824.64 949.54H979.28C962.27 949.54 948.49 935.75 948.49 918.75V169.3H1855.44V918.75C1855.44 935.75 1841.65 949.54 1824.64 949.54Z" fill="white"/>
</mask>
<g mask="url(#mask41_46_2394)">
<path d="M1779.14 246.58H1670.34V324.34H1779.14V246.58Z" fill="#2C3135" stroke="#232323" stroke-width="6" stroke-miterlimit="10"/>
</g>
<mask id="mask42_46_2394" style="mask-type:luminance" maskUnits="userSpaceOnUse" x="948" y="169" width="908" height="781">
<path d="M1824.64 949.54H979.28C962.27 949.54 948.49 935.75 948.49 918.75V169.3H1855.44V918.75C1855.44 935.75 1841.65 949.54 1824.64 949.54Z" fill="white"/>
</mask>
<g mask="url(#mask42_46_2394)">
<path d="M1950.68 246.58H1779.47V324.34H1950.68V246.58Z" fill="#6B787F" stroke="#232323" stroke-width="6" stroke-miterlimit="10"/>
</g>
<mask id="mask43_46_2394" style="mask-type:luminance" maskUnits="userSpaceOnUse" x="948" y="169" width="908" height="781">
<path d="M1824.64 949.54H979.28C962.27 949.54 948.49 935.75 948.49 918.75V169.3H1855.44V918.75C1855.44 935.75 1841.65 949.54 1824.64 949.54Z" fill="white"/>
</mask>
<g mask="url(#mask43_46_2394)">
<path d="M1810.34 324.64H1639.13V402.4H1810.34V324.64Z" fill="#2C3135" stroke="#232323" stroke-width="6" stroke-miterlimit="10"/>
</g>
<mask id="mask44_46_2394" style="mask-type:luminance" maskUnits="userSpaceOnUse" x="948" y="169" width="908" height="781">
<path d="M1824.64 949.54H979.28C962.27 949.54 948.49 935.75 948.49 918.75V169.3H1855.44V918.75C1855.44 935.75 1841.65 949.54 1824.64 949.54Z" fill="white"/>
</mask>
<g mask="url(#mask44_46_2394)">
<path d="M1919.14 324.64H1810.34V402.4H1919.14V324.64Z" fill="#6B787F" stroke="#232323" stroke-width="6" stroke-miterlimit="10"/>
</g>
<mask id="mask45_46_2394" style="mask-type:luminance" maskUnits="userSpaceOnUse" x="948" y="169" width="908" height="781">
<path d="M1824.64 949.54H979.28C962.27 949.54 948.49 935.75 948.49 918.75V169.3H1855.44V918.75C1855.44 935.75 1841.65 949.54 1824.64 949.54Z" fill="white"/>
</mask>
<g mask="url(#mask45_46_2394)">
<path d="M1639.14 324.64H1530.34V402.4H1639.14V324.64Z" fill="#6B787F" stroke="#232323" stroke-width="6" stroke-miterlimit="10"/>
</g>
<mask id="mask46_46_2394" style="mask-type:luminance" maskUnits="userSpaceOnUse" x="948" y="169" width="908" height="781">
<path d="M1824.64 949.54H979.28C962.27 949.54 948.49 935.75 948.49 918.75V169.3H1855.44V918.75C1855.44 935.75 1841.65 949.54 1824.64 949.54Z" fill="white"/>
</mask>
<g mask="url(#mask46_46_2394)">
<path d="M1670.34 402.45H1499.13V480.21H1670.34V402.45Z" fill="#232323" stroke="#232323" stroke-width="6" stroke-miterlimit="10"/>
</g>
<mask id="mask47_46_2394" style="mask-type:luminance" maskUnits="userSpaceOnUse" x="948" y="169" width="908" height="781">
<path d="M1824.64 949.54H979.28C962.27 949.54 948.49 935.75 948.49 918.75V169.3H1855.44V918.75C1855.44 935.75 1841.65 949.54 1824.64 949.54Z" fill="white"/>
</mask>
<g mask="url(#mask47_46_2394)">
<path d="M1779.14 402.45H1670.34V480.21H1779.14V402.45Z" fill="#232323" stroke="#232323" stroke-width="6" stroke-miterlimit="10"/>
</g>
<mask id="mask48_46_2394" style="mask-type:luminance" maskUnits="userSpaceOnUse" x="948" y="169" width="908" height="781">
<path d="M1824.64 949.54H979.28C962.27 949.54 948.49 935.75 948.49 918.75V169.3H1855.44V918.75C1855.44 935.75 1841.65 949.54 1824.64 949.54Z" fill="white"/>
</mask>
<g mask="url(#mask48_46_2394)">
<path d="M1950.68 402.45H1779.47V480.21H1950.68V402.45Z" fill="#232323" stroke="#232323" stroke-width="6" stroke-miterlimit="10"/>
</g>
<mask id="mask49_46_2394" style="mask-type:luminance" maskUnits="userSpaceOnUse" x="948" y="169" width="908" height="781">
<path d="M1824.64 949.54H979.28C962.27 949.54 948.49 935.75 948.49 918.75V169.3H1855.44V918.75C1855.44 935.75 1841.65 949.54 1824.64 949.54Z" fill="white"/>
</mask>
<g mask="url(#mask49_46_2394)">
<path d="M1078.46 169.3H907.25V247.06H1078.46V169.3Z" fill="#48525B" stroke="#232323" stroke-width="6" stroke-miterlimit="10"/>
</g>
<mask id="mask50_46_2394" style="mask-type:luminance" maskUnits="userSpaceOnUse" x="948" y="169" width="908" height="781">
<path d="M1824.64 949.54H979.28C962.27 949.54 948.49 935.75 948.49 918.75V169.3H1855.44V918.75C1855.44 935.75 1841.65 949.54 1824.64 949.54Z" fill="white"/>
</mask>
<g mask="url(#mask50_46_2394)">
<path d="M1187.26 169.3H1078.46V247.06H1187.26V169.3Z" fill="#6B787F" stroke="#232323" stroke-width="6" stroke-miterlimit="10"/>
</g>
<mask id="mask51_46_2394" style="mask-type:luminance" maskUnits="userSpaceOnUse" x="948" y="169" width="908" height="781">
<path d="M1824.64 949.54H979.28C962.27 949.54 948.49 935.75 948.49 918.75V169.3H1855.44V918.75C1855.44 935.75 1841.65 949.54 1824.64 949.54Z" fill="white"/>
</mask>
<g mask="url(#mask51_46_2394)">
<path d="M1467.59 169.3H1358.79V247.06H1467.59V169.3Z" fill="#6B787F" stroke="#232323" stroke-width="6" stroke-miterlimit="10"/>
</g>
<mask id="mask52_46_2394" style="mask-type:luminance" maskUnits="userSpaceOnUse" x="948" y="169" width="908" height="781">
<path d="M1824.64 949.54H979.28C962.27 949.54 948.49 935.75 948.49 918.75V169.3H1855.44V918.75C1855.44 935.75 1841.65 949.54 1824.64 949.54Z" fill="white"/>
</mask>
<g mask="url(#mask52_46_2394)">
<path d="M1358.79 169.3H1187.58V247.06H1358.79V169.3Z" fill="#2C3135" stroke="#232323" stroke-width="6" stroke-miterlimit="10"/>
</g>
<mask id="mask53_46_2394" style="mask-type:luminance" maskUnits="userSpaceOnUse" x="948" y="169" width="908" height="781">
<path d="M1824.64 949.54H979.28C962.27 949.54 948.49 935.75 948.49 918.75V169.3H1855.44V918.75C1855.44 935.75 1841.65 949.54 1824.64 949.54Z" fill="white"/>
</mask>
<g mask="url(#mask53_46_2394)">
<path d="M1639.13 169.3H1467.92V247.06H1639.13V169.3Z" fill="#48525B" stroke="#232323" stroke-width="6" stroke-miterlimit="10"/>
</g>
<mask id="mask54_46_2394" style="mask-type:luminance" maskUnits="userSpaceOnUse" x="948" y="169" width="908" height="781">
<path d="M1824.64 949.54H979.28C962.27 949.54 948.49 935.75 948.49 918.75V169.3H1855.44V918.75C1855.44 935.75 1841.65 949.54 1824.64 949.54Z" fill="white"/>
</mask>
<g mask="url(#mask54_46_2394)">
<path d="M1810.34 169.3H1639.13V247.06H1810.34V169.3Z" fill="#2C3135" stroke="#232323" stroke-width="6" stroke-miterlimit="10"/>
</g>
<mask id="mask55_46_2394" style="mask-type:luminance" maskUnits="userSpaceOnUse" x="948" y="169" width="908" height="781">
<path d="M1824.64 949.54H979.28C962.27 949.54 948.49 935.75 948.49 918.75V169.3H1855.44V918.75C1855.44 935.75 1841.65 949.54 1824.64 949.54Z" fill="white"/>
</mask>
<g mask="url(#mask55_46_2394)">
<path d="M1919.14 169.3H1810.34V247.06H1919.14V169.3Z" fill="#6B787F" stroke="#232323" stroke-width="6" stroke-miterlimit="10"/>
</g>
<mask id="mask56_46_2394" style="mask-type:luminance" maskUnits="userSpaceOnUse" x="948" y="169" width="908" height="781">
<path d="M1824.64 949.54H979.28C962.27 949.54 948.49 935.75 948.49 918.75V169.3H1855.44V918.75C1855.44 935.75 1841.65 949.54 1824.64 949.54Z" fill="white"/>
</mask>
<g mask="url(#mask56_46_2394)">
<path d="M1639.14 169.3H1530.34V247.06H1639.14V169.3Z" fill="#6B787F" stroke="#232323" stroke-width="6" stroke-miterlimit="10"/>
</g>
<mask id="mask57_46_2394" style="mask-type:luminance" maskUnits="userSpaceOnUse" x="948" y="169" width="908" height="781">
<path d="M1824.64 949.54H979.28C962.27 949.54 948.49 935.75 948.49 918.75V169.3H1855.44V918.75C1855.44 935.75 1841.65 949.54 1824.64 949.54Z" fill="white"/>
</mask>
<g mask="url(#mask57_46_2394)">
<path d="M1810.34 480.51H1639.13V558.27H1810.34V480.51Z" fill="#48525B" stroke="#232323" stroke-width="6" stroke-miterlimit="10"/>
</g>
<mask id="mask58_46_2394" style="mask-type:luminance" maskUnits="userSpaceOnUse" x="948" y="169" width="908" height="781">
<path d="M1824.64 949.54H979.28C962.27 949.54 948.49 935.75 948.49 918.75V169.3H1855.44V918.75C1855.44 935.75 1841.65 949.54 1824.64 949.54Z" fill="white"/>
</mask>
<g mask="url(#mask58_46_2394)">
<path d="M1919.14 480.51H1810.34V558.27H1919.14V480.51Z" fill="#6B787F" stroke="#232323" stroke-width="6" stroke-miterlimit="10"/>
</g>
<mask id="mask59_46_2394" style="mask-type:luminance" maskUnits="userSpaceOnUse" x="948" y="169" width="908" height="781">
<path d="M1824.64 949.54H979.28C962.27 949.54 948.49 935.75 948.49 918.75V169.3H1855.44V918.75C1855.44 935.75 1841.65 949.54 1824.64 949.54Z" fill="white"/>
</mask>
<g mask="url(#mask59_46_2394)">
<path d="M1639.14 480.51H1530.34V558.27H1639.14V480.51Z" fill="#6B787F" stroke="#232323" stroke-width="6" stroke-miterlimit="10"/>
</g>
<mask id="mask60_46_2394" style="mask-type:luminance" maskUnits="userSpaceOnUse" x="948" y="169" width="908" height="781">
<path d="M1824.64 949.54H979.28C962.27 949.54 948.49 935.75 948.49 918.75V169.3H1855.44V918.75C1855.44 935.75 1841.65 949.54 1824.64 949.54Z" fill="white"/>
</mask>
<g mask="url(#mask60_46_2394)">
<path d="M1670.34 557.76H1499.13V635.52H1670.34V557.76Z" fill="#48525B" stroke="#232323" stroke-width="6" stroke-miterlimit="10"/>
</g>
<mask id="mask61_46_2394" style="mask-type:luminance" maskUnits="userSpaceOnUse" x="948" y="169" width="908" height="781">
<path d="M1824.64 949.54H979.28C962.27 949.54 948.49 935.75 948.49 918.75V169.3H1855.44V918.75C1855.44 935.75 1841.65 949.54 1824.64 949.54Z" fill="white"/>
</mask>
<g mask="url(#mask61_46_2394)">
<path d="M1779.14 557.76H1670.34V635.52H1779.14V557.76Z" fill="#6B787F" stroke="#232323" stroke-width="6" stroke-miterlimit="10"/>
</g>
<mask id="mask62_46_2394" style="mask-type:luminance" maskUnits="userSpaceOnUse" x="948" y="169" width="908" height="781">
<path d="M1824.64 949.54H979.28C962.27 949.54 948.49 935.75 948.49 918.75V169.3H1855.44V918.75C1855.44 935.75 1841.65 949.54 1824.64 949.54Z" fill="white"/>
</mask>
<g mask="url(#mask62_46_2394)">
<path d="M1950.68 557.76H1779.47V635.52H1950.68V557.76Z" fill="#48525B" stroke="#232323" stroke-width="6" stroke-miterlimit="10"/>
</g>
<mask id="mask63_46_2394" style="mask-type:luminance" maskUnits="userSpaceOnUse" x="948" y="169" width="908" height="781">
<path d="M1824.64 949.54H979.28C962.27 949.54 948.49 935.75 948.49 918.75V169.3H1855.44V918.75C1855.44 935.75 1841.65 949.54 1824.64 949.54Z" fill="white"/>
</mask>
<g mask="url(#mask63_46_2394)">
<path d="M1810.34 635.83H1639.13V713.59H1810.34V635.83Z" fill="#232323" stroke="#232323" stroke-width="6" stroke-miterlimit="10"/>
</g>
<mask id="mask64_46_2394" style="mask-type:luminance" maskUnits="userSpaceOnUse" x="948" y="169" width="908" height="781">
<path d="M1824.64 949.54H979.28C962.27 949.54 948.49 935.75 948.49 918.75V169.3H1855.44V918.75C1855.44 935.75 1841.65 949.54 1824.64 949.54Z" fill="white"/>
</mask>
<g mask="url(#mask64_46_2394)">
<path d="M1919.14 635.83H1810.34V713.59H1919.14V635.83Z" fill="#232323" stroke="#232323" stroke-width="6" stroke-miterlimit="10"/>
</g>
<mask id="mask65_46_2394" style="mask-type:luminance" maskUnits="userSpaceOnUse" x="948" y="169" width="908" height="781">
<path d="M1824.64 949.54H979.28C962.27 949.54 948.49 935.75 948.49 918.75V169.3H1855.44V918.75C1855.44 935.75 1841.65 949.54 1824.64 949.54Z" fill="white"/>
</mask>
<g mask="url(#mask65_46_2394)">
<path d="M1639.14 635.83H1530.34V713.59H1639.14V635.83Z" fill="#232323" stroke="#232323" stroke-width="6" stroke-miterlimit="10"/>
</g>
<mask id="mask66_46_2394" style="mask-type:luminance" maskUnits="userSpaceOnUse" x="948" y="169" width="908" height="781">
<path d="M1824.64 949.54H979.28C962.27 949.54 948.49 935.75 948.49 918.75V169.3H1855.44V918.75C1855.44 935.75 1841.65 949.54 1824.64 949.54Z" fill="white"/>
</mask>
<g mask="url(#mask66_46_2394)">
<path d="M1670.34 713.89H1499.13V791.65H1670.34V713.89Z" fill="#2C3135" stroke="#232323" stroke-width="6" stroke-miterlimit="10"/>
</g>
<mask id="mask67_46_2394" style="mask-type:luminance" maskUnits="userSpaceOnUse" x="948" y="169" width="908" height="781">
<path d="M1824.64 949.54H979.28C962.27 949.54 948.49 935.75 948.49 918.75V169.3H1855.44V918.75C1855.44 935.75 1841.65 949.54 1824.64 949.54Z" fill="white"/>
</mask>
<g mask="url(#mask67_46_2394)">
<path d="M1779.14 713.89H1670.34V791.65H1779.14V713.89Z" fill="#48525B" stroke="#232323" stroke-width="6" stroke-miterlimit="10"/>
</g>
<mask id="mask68_46_2394" style="mask-type:luminance" maskUnits="userSpaceOnUse" x="948" y="169" width="908" height="781">
<path d="M1824.64 949.54H979.28C962.27 949.54 948.49 935.75 948.49 918.75V169.3H1855.44V918.75C1855.44 935.75 1841.65 949.54 1824.64 949.54Z" fill="white"/>
</mask>
<g mask="url(#mask68_46_2394)">
<path d="M1950.68 713.89H1779.47V791.65H1950.68V713.89Z" fill="#6B787F" stroke="#232323" stroke-width="6" stroke-miterlimit="10"/>
</g>
<mask id="mask69_46_2394" style="mask-type:luminance" maskUnits="userSpaceOnUse" x="948" y="169" width="908" height="781">
<path d="M1824.64 949.54H979.28C962.27 949.54 948.49 935.75 948.49 918.75V169.3H1855.44V918.75C1855.44 935.75 1841.65 949.54 1824.64 949.54Z" fill="white"/>
</mask>
<g mask="url(#mask69_46_2394)">
<path d="M1810.34 791.95H1639.13V869.71H1810.34V791.95Z" fill="#2C3135" stroke="#232323" stroke-width="6" stroke-miterlimit="10"/>
</g>
<mask id="mask70_46_2394" style="mask-type:luminance" maskUnits="userSpaceOnUse" x="948" y="169" width="908" height="781">
<path d="M1824.64 949.54H979.28C962.27 949.54 948.49 935.75 948.49 918.75V169.3H1855.44V918.75C1855.44 935.75 1841.65 949.54 1824.64 949.54Z" fill="white"/>
</mask>
<g mask="url(#mask70_46_2394)">
<path d="M1919.14 791.95H1810.34V869.71H1919.14V791.95Z" fill="#6B787F" stroke="#232323" stroke-width="6" stroke-miterlimit="10"/>
</g>
<mask id="mask71_46_2394" style="mask-type:luminance" maskUnits="userSpaceOnUse" x="948" y="169" width="908" height="781">
<path d="M1824.64 949.54H979.28C962.27 949.54 948.49 935.75 948.49 918.75V169.3H1855.44V918.75C1855.44 935.75 1841.65 949.54 1824.64 949.54Z" fill="white"/>
</mask>
<g mask="url(#mask71_46_2394)">
<path d="M1639.14 791.95H1530.34V869.71H1639.14V791.95Z" fill="#6B787F" stroke="#232323" stroke-width="6" stroke-miterlimit="10"/>
</g>
<mask id="mask72_46_2394" style="mask-type:luminance" maskUnits="userSpaceOnUse" x="948" y="169" width="908" height="781">
<path d="M1824.64 949.54H979.28C962.27 949.54 948.49 935.75 948.49 918.75V169.3H1855.44V918.75C1855.44 935.75 1841.65 949.54 1824.64 949.54Z" fill="white"/>
</mask>
<g mask="url(#mask72_46_2394)">
<path d="M1670.34 869.71H1499.13V947.47H1670.34V869.71Z" fill="#232323" stroke="#232323" stroke-width="6" stroke-miterlimit="10"/>
</g>
<mask id="mask73_46_2394" style="mask-type:luminance" maskUnits="userSpaceOnUse" x="948" y="169" width="908" height="781">
<path d="M1824.64 949.54H979.28C962.27 949.54 948.49 935.75 948.49 918.75V169.3H1855.44V918.75C1855.44 935.75 1841.65 949.54 1824.64 949.54Z" fill="white"/>
</mask>
<g mask="url(#mask73_46_2394)">
<path d="M1779.14 869.71H1670.34V947.47H1779.14V869.71Z" fill="#232323" stroke="#232323" stroke-width="6" stroke-miterlimit="10"/>
</g>
<mask id="mask74_46_2394" style="mask-type:luminance" maskUnits="userSpaceOnUse" x="948" y="169" width="908" height="781">
<path d="M1824.64 949.54H979.28C962.27 949.54 948.49 935.75 948.49 918.75V169.3H1855.44V918.75C1855.44 935.75 1841.65 949.54 1824.64 949.54Z" fill="white"/>
</mask>
<g mask="url(#mask74_46_2394)">
<path d="M1950.68 869.71H1779.47V947.47H1950.68V869.71Z" fill="#232323" stroke="#232323" stroke-width="6" stroke-miterlimit="10"/>
</g>
<mask id="mask75_46_2394" style="mask-type:luminance" maskUnits="userSpaceOnUse" x="948" y="169" width="908" height="781">
<path d="M1824.64 949.54H979.28C962.27 949.54 948.49 935.75 948.49 918.75V169.3H1855.44V918.75C1855.44 935.75 1841.65 949.54 1824.64 949.54Z" fill="white"/>
</mask>
<g mask="url(#mask75_46_2394)">
<g opacity="0.5">
<path d="M1755.69 370.78C1755.73 370.3 1755.73 369.8 1755.68 369.31C1755.63 368.62 1755.36 367.81 1755 367.2C1754.38 366.19 1753.58 365.07 1752.59 364.37C1750.52 362.92 1748.06 363.95 1746.46 365.61C1746.19 365.88 1745.96 366.21 1745.74 366.57C1743.46 368.02 1741.99 371.01 1741.7 373.57C1741.53 375.03 1742.07 376.77 1743.6 377.3C1744.88 377.75 1745.89 377.7 1747.23 377.55C1747.37 377.54 1747.51 377.51 1747.65 377.49C1747.75 377.48 1747.99 377.45 1748.16 377.46C1751.41 377.58 1754.21 375.43 1755.34 372.43C1755.44 372.02 1755.54 371.62 1755.64 371.22C1755.29 372.39 1755.31 372.26 1755.69 370.78Z" fill="#1D2226"/>
<path d="M1763.57 346.56C1762.83 345.57 1761.13 346.55 1760.56 347.16C1760.5 347.23 1760.45 347.3 1760.4 347.37C1758.61 348.38 1757.81 351 1760.23 351.94C1761.73 352.53 1763.23 351.6 1764.07 350.39C1765.04 349.01 1764.47 347.75 1763.57 346.56Z" fill="#1D2226"/>
<path d="M1701.55 344.51C1701.35 344.3 1701.09 344.17 1700.8 344.12C1700.39 343.94 1700 343.78 1699.66 343.71C1698.22 343.37 1696.85 344.51 1696.63 345.95C1696.47 346.94 1696.21 347.9 1696.11 348.89C1695.64 350.46 1695.59 352.14 1696.31 353.55C1696.76 354.44 1697.65 354.59 1698.55 354.49C1701.77 354.14 1704.86 352 1704.83 348.55C1704.82 347 1703.17 345.45 1701.55 344.51Z" fill="#1D2226"/>
<path d="M1720.77 366.38C1720.39 365.36 1719.75 364.19 1719.04 363.38C1717.84 362.02 1715.54 363.19 1714.67 364.29C1714.67 364.3 1714.66 364.31 1714.66 364.31C1713.28 365.26 1712.3 366.72 1712.04 368.41C1711.46 372.13 1716.69 372.54 1718.9 371.09C1720.39 370.11 1721.43 368.15 1720.77 366.38Z" fill="#1D2226"/>
<path d="M1680.81 377.65C1680.58 377.75 1680.36 377.88 1680.15 378.01C1679.78 378.08 1679.41 378.27 1679.08 378.46C1678.37 378.88 1677.87 379.89 1677.97 380.7C1678.14 382.06 1679.39 382.48 1680.59 382.39C1681.94 382.27 1682.89 380.86 1683.07 379.65C1683.26 378.37 1682.11 377.06 1680.81 377.65Z" fill="#1D2226"/>
<path d="M1691.78 372.95C1691.67 372.92 1691.57 372.88 1691.46 372.85C1690.03 372.38 1689.51 375.01 1690.8 374.66C1690.94 374.62 1691.06 374.58 1691.2 374.54C1691.68 374.42 1692.67 373.25 1691.78 372.95Z" fill="#1D2226"/>
<path d="M1311.67 370.78C1311.71 370.3 1311.71 369.8 1311.66 369.31C1311.61 368.62 1311.34 367.81 1310.98 367.2C1310.36 366.19 1309.56 365.07 1308.57 364.37C1306.5 362.92 1304.04 363.95 1302.44 365.61C1302.17 365.88 1301.94 366.21 1301.72 366.57C1299.44 368.02 1297.97 371.01 1297.68 373.57C1297.51 375.03 1298.05 376.77 1299.58 377.3C1300.86 377.75 1301.87 377.7 1303.21 377.55C1303.35 377.54 1303.49 377.51 1303.63 377.49C1303.73 377.48 1303.97 377.45 1304.14 377.46C1307.39 377.58 1310.19 375.43 1311.32 372.43C1311.42 372.02 1311.52 371.62 1311.62 371.22C1311.27 372.39 1311.29 372.26 1311.67 370.78Z" fill="#1D2226"/>
<path d="M1319.56 346.56C1318.82 345.57 1317.12 346.55 1316.55 347.16C1316.49 347.23 1316.44 347.3 1316.39 347.37C1314.6 348.38 1313.8 351 1316.22 351.94C1317.72 352.53 1319.22 351.6 1320.06 350.39C1321.02 349.01 1320.45 347.75 1319.56 346.56Z" fill="#1D2226"/>
<path d="M1257.53 344.51C1257.33 344.3 1257.07 344.17 1256.78 344.12C1256.37 343.94 1255.98 343.78 1255.64 343.71C1254.2 343.37 1252.83 344.51 1252.61 345.95C1252.45 346.94 1252.19 347.9 1252.09 348.89C1251.62 350.46 1251.57 352.14 1252.29 353.55C1252.74 354.44 1253.63 354.59 1254.53 354.49C1257.75 354.14 1260.84 352 1260.81 348.55C1260.8 347 1259.16 345.45 1257.53 344.51Z" fill="#1D2226"/>
<path d="M1276.76 366.38C1276.38 365.36 1275.74 364.19 1275.03 363.38C1273.83 362.02 1271.53 363.19 1270.66 364.29C1270.66 364.3 1270.65 364.31 1270.65 364.31C1269.27 365.26 1268.29 366.72 1268.03 368.41C1267.45 372.13 1272.68 372.54 1274.89 371.09C1276.37 370.11 1277.41 368.15 1276.76 366.38Z" fill="#1D2226"/>
<path d="M1236.8 377.65C1236.57 377.75 1236.35 377.88 1236.14 378.01C1235.77 378.08 1235.4 378.27 1235.07 378.46C1234.36 378.88 1233.86 379.89 1233.96 380.7C1234.13 382.06 1235.38 382.48 1236.58 382.39C1237.93 382.27 1238.88 380.86 1239.06 379.65C1239.24 378.37 1238.1 377.06 1236.8 377.65Z" fill="#1D2226"/>
<path d="M1247.76 372.95C1247.65 372.92 1247.55 372.88 1247.44 372.85C1246.01 372.38 1245.49 375.01 1246.78 374.66C1246.92 374.62 1247.04 374.58 1247.18 374.54C1247.67 374.42 1248.66 373.25 1247.76 372.95Z" fill="#1D2226"/>
<path d="M1168.06 607.99C1168.1 607.51 1168.1 607.01 1168.05 606.52C1168 605.83 1167.73 605.02 1167.37 604.41C1166.75 603.4 1165.95 602.28 1164.96 601.58C1162.89 600.13 1160.43 601.16 1158.83 602.82C1158.56 603.09 1158.33 603.42 1158.11 603.78C1155.83 605.23 1154.36 608.22 1154.07 610.78C1153.9 612.24 1154.44 613.98 1155.97 614.51C1157.25 614.96 1158.26 614.91 1159.6 614.76C1159.74 614.75 1159.88 614.72 1160.02 614.7C1160.12 614.69 1160.36 614.66 1160.53 614.67C1163.78 614.79 1166.58 612.64 1167.71 609.64C1167.81 609.23 1167.91 608.83 1168.01 608.43C1167.66 609.6 1167.68 609.46 1168.06 607.99Z" fill="#1D2226"/>
<path d="M1175.94 583.76C1175.2 582.78 1173.5 583.75 1172.93 584.36C1172.87 584.43 1172.82 584.5 1172.77 584.57C1170.98 585.58 1170.18 588.2 1172.6 589.14C1174.1 589.73 1175.6 588.8 1176.44 587.59C1177.41 586.21 1176.84 584.95 1175.94 583.76Z" fill="#1D2226"/>
<path d="M1113.92 581.72C1113.72 581.51 1113.46 581.38 1113.17 581.33C1112.76 581.15 1112.37 580.99 1112.03 580.92C1110.59 580.58 1109.22 581.72 1109 583.16C1108.84 584.15 1108.58 585.11 1108.48 586.1C1108.01 587.67 1107.96 589.35 1108.68 590.76C1109.13 591.65 1110.02 591.8 1110.92 591.7C1114.14 591.35 1117.23 589.21 1117.2 585.76C1117.19 584.2 1115.54 582.65 1113.92 581.72Z" fill="#1D2226"/>
<path d="M1133.14 603.59C1132.76 602.57 1132.12 601.4 1131.41 600.59C1130.21 599.23 1127.91 600.4 1127.04 601.5C1127.04 601.51 1127.03 601.52 1127.03 601.52C1125.65 602.47 1124.67 603.93 1124.41 605.62C1123.83 609.34 1129.06 609.75 1131.27 608.3C1132.76 607.32 1133.8 605.35 1133.14 603.59Z" fill="#1D2226"/>
<path d="M1093.18 614.86C1092.95 614.96 1092.73 615.09 1092.52 615.22C1092.15 615.29 1091.78 615.48 1091.45 615.67C1090.74 616.09 1090.24 617.1 1090.34 617.91C1090.51 619.27 1091.76 619.69 1092.96 619.6C1094.31 619.48 1095.26 618.07 1095.44 616.86C1095.63 615.58 1094.48 614.27 1093.18 614.86Z" fill="#1D2226"/>
<path d="M1104.15 610.16C1104.04 610.13 1103.94 610.09 1103.83 610.06C1102.4 609.59 1101.88 612.22 1103.17 611.87C1103.31 611.83 1103.43 611.79 1103.57 611.75C1104.05 611.62 1105.04 610.45 1104.15 610.16Z" fill="#1D2226"/>
<path d="M1311.68 837.38C1311.72 836.9 1311.72 836.4 1311.67 835.91C1311.62 835.22 1311.35 834.41 1310.99 833.8C1310.37 832.79 1309.57 831.67 1308.58 830.97C1306.51 829.52 1304.05 830.55 1302.45 832.21C1302.18 832.48 1301.95 832.81 1301.73 833.17C1299.45 834.62 1297.98 837.6 1297.69 840.17C1297.52 841.63 1298.06 843.37 1299.59 843.9C1300.87 844.35 1301.88 844.3 1303.22 844.15C1303.36 844.14 1303.5 844.11 1303.64 844.09C1303.74 844.08 1303.98 844.05 1304.15 844.06C1307.4 844.18 1310.2 842.03 1311.33 839.03C1311.43 838.62 1311.53 838.22 1311.63 837.82C1311.27 838.99 1311.29 838.86 1311.68 837.38Z" fill="#1D2226"/>
<path d="M1319.56 813.16C1318.82 812.17 1317.12 813.15 1316.55 813.76C1316.49 813.83 1316.44 813.9 1316.39 813.97C1314.6 814.98 1313.8 817.6 1316.22 818.54C1317.72 819.13 1319.22 818.2 1320.06 816.99C1321.03 815.61 1320.45 814.35 1319.56 813.16Z" fill="#1D2226"/>
<path d="M1257.53 811.11C1257.33 810.9 1257.07 810.77 1256.78 810.72C1256.37 810.54 1255.98 810.38 1255.64 810.31C1254.2 809.97 1252.83 811.11 1252.61 812.55C1252.45 813.54 1252.19 814.5 1252.09 815.49C1251.62 817.06 1251.57 818.74 1252.29 820.15C1252.74 821.04 1253.63 821.19 1254.53 821.09C1257.75 820.74 1260.84 818.6 1260.81 815.15C1260.81 813.6 1259.16 812.05 1257.53 811.11Z" fill="#1D2226"/>
<path d="M1276.76 832.98C1276.38 831.96 1275.74 830.79 1275.03 829.98C1273.83 828.62 1271.53 829.79 1270.66 830.89C1270.66 830.9 1270.65 830.91 1270.65 830.91C1269.27 831.86 1268.29 833.32 1268.03 835.01C1267.45 838.73 1272.68 839.14 1274.89 837.69C1276.37 836.71 1277.42 834.75 1276.76 832.98Z" fill="#1D2226"/>
<path d="M1236.8 844.25C1236.57 844.35 1236.35 844.48 1236.14 844.61C1235.77 844.68 1235.4 844.87 1235.07 845.06C1234.36 845.48 1233.86 846.49 1233.96 847.3C1234.13 848.66 1235.38 849.08 1236.58 848.99C1237.93 848.87 1238.88 847.46 1239.06 846.25C1239.24 844.97 1238.1 843.66 1236.8 844.25Z" fill="#1D2226"/>
<path d="M1247.76 839.55C1247.65 839.52 1247.55 839.48 1247.44 839.45C1246.01 838.98 1245.49 841.61 1246.78 841.26C1246.92 841.22 1247.04 841.18 1247.18 841.14C1247.67 841.02 1248.66 839.85 1247.76 839.55Z" fill="#1D2226"/>
<path d="M1755.69 218.9C1755.73 218.42 1755.73 217.92 1755.68 217.43C1755.63 216.74 1755.36 215.93 1755 215.32C1754.38 214.31 1753.58 213.19 1752.59 212.49C1750.52 211.04 1748.06 212.07 1746.46 213.73C1746.19 214 1745.96 214.33 1745.74 214.69C1743.46 216.14 1741.99 219.13 1741.7 221.69C1741.53 223.15 1742.07 224.89 1743.6 225.42C1744.88 225.87 1745.89 225.82 1747.23 225.67C1747.37 225.66 1747.51 225.63 1747.65 225.61C1747.75 225.6 1747.99 225.57 1748.16 225.58C1751.41 225.7 1754.21 223.55 1755.34 220.55C1755.44 220.14 1755.54 219.74 1755.64 219.34C1755.29 220.51 1755.31 220.37 1755.69 218.9Z" fill="#1D2226"/>
<path d="M1763.57 194.68C1762.83 193.69 1761.13 194.67 1760.56 195.28C1760.5 195.35 1760.45 195.42 1760.4 195.49C1758.61 196.5 1757.81 199.12 1760.23 200.06C1761.73 200.65 1763.23 199.72 1764.07 198.51C1765.04 197.12 1764.47 195.87 1763.57 194.68Z" fill="#1D2226"/>
<path d="M1701.55 192.63C1701.35 192.42 1701.09 192.29 1700.8 192.24C1700.39 192.06 1700 191.9 1699.66 191.83C1698.22 191.49 1696.85 192.63 1696.63 194.07C1696.47 195.06 1696.21 196.02 1696.11 197.01C1695.64 198.58 1695.59 200.26 1696.31 201.67C1696.76 202.56 1697.65 202.71 1698.55 202.61C1701.77 202.26 1704.86 200.12 1704.83 196.67C1704.82 195.12 1703.17 193.56 1701.55 192.63Z" fill="#1D2226"/>
<path d="M1720.77 214.5C1720.39 213.48 1719.75 212.31 1719.04 211.5C1717.84 210.14 1715.54 211.31 1714.67 212.41C1714.67 212.42 1714.66 212.43 1714.66 212.43C1713.28 213.38 1712.3 214.84 1712.04 216.53C1711.46 220.25 1716.69 220.66 1718.9 219.21C1720.39 218.23 1721.43 216.26 1720.77 214.5Z" fill="#1D2226"/>
<path d="M1680.81 225.77C1680.58 225.87 1680.36 226 1680.15 226.13C1679.78 226.2 1679.41 226.39 1679.08 226.58C1678.37 227 1677.87 228.01 1677.97 228.82C1678.14 230.18 1679.39 230.6 1680.59 230.51C1681.94 230.39 1682.89 228.98 1683.07 227.77C1683.26 226.49 1682.11 225.18 1680.81 225.77Z" fill="#1D2226"/>
<path d="M1691.78 221.07C1691.67 221.04 1691.57 221 1691.46 220.97C1690.03 220.5 1689.51 223.13 1690.8 222.78C1690.94 222.74 1691.06 222.7 1691.2 222.66C1691.68 222.53 1692.67 221.36 1691.78 221.07Z" fill="#1D2226"/>
<path d="M1037.74 216.72C1037.78 216.24 1037.78 215.74 1037.73 215.25C1037.68 214.56 1037.41 213.75 1037.05 213.14C1036.43 212.13 1035.63 211.01 1034.64 210.31C1032.57 208.86 1030.11 209.89 1028.51 211.55C1028.24 211.82 1028.01 212.15 1027.79 212.51C1025.51 213.96 1024.04 216.95 1023.75 219.51C1023.58 220.97 1024.12 222.71 1025.65 223.24C1026.93 223.69 1027.94 223.64 1029.28 223.49C1029.42 223.48 1029.56 223.45 1029.7 223.43C1029.8 223.42 1030.04 223.39 1030.21 223.4C1033.46 223.52 1036.26 221.37 1037.39 218.37C1037.49 217.96 1037.59 217.56 1037.69 217.16C1037.34 218.33 1037.36 218.19 1037.74 216.72Z" fill="#1D2226"/>
<path d="M1045.62 192.49C1044.88 191.5 1043.18 192.48 1042.61 193.09C1042.55 193.16 1042.5 193.23 1042.45 193.3C1040.66 194.31 1039.86 196.93 1042.28 197.87C1043.78 198.46 1045.28 197.53 1046.12 196.32C1047.09 194.94 1046.52 193.68 1045.62 192.49Z" fill="#1D2226"/>
<path d="M983.6 190.45C983.4 190.24 983.14 190.11 982.85 190.06C982.44 189.88 982.05 189.72 981.71 189.65C980.27 189.31 978.9 190.45 978.68 191.89C978.52 192.88 978.26 193.84 978.16 194.83C977.69 196.4 977.64 198.08 978.36 199.49C978.81 200.38 979.7 200.53 980.6 200.43C983.82 200.08 986.91 197.94 986.88 194.49C986.87 192.94 985.22 191.38 983.6 190.45Z" fill="#1D2226"/>
<path d="M1002.82 212.32C1002.44 211.3 1001.8 210.13 1001.09 209.32C999.89 207.96 997.59 209.13 996.72 210.23C996.72 210.24 996.71 210.25 996.71 210.25C995.33 211.2 994.35 212.66 994.09 214.35C993.51 218.07 998.74 218.48 1000.95 217.03C1002.44 216.05 1003.48 214.08 1002.82 212.32Z" fill="#1D2226"/>
<path d="M962.86 223.59C962.63 223.69 962.41 223.82 962.2 223.95C961.83 224.02 961.46 224.21 961.13 224.4C960.42 224.82 959.92 225.83 960.02 226.64C960.19 228 961.44 228.42 962.64 228.33C963.99 228.21 964.94 226.8 965.12 225.59C965.31 224.31 964.16 223 962.86 223.59Z" fill="#1D2226"/>
<path d="M973.83 218.89C973.72 218.86 973.62 218.82 973.51 218.79C972.08 218.32 971.56 220.95 972.85 220.6C972.99 220.56 973.11 220.52 973.25 220.48C973.73 220.35 974.72 219.18 973.83 218.89Z" fill="#1D2226"/>
<path d="M1016.35 763.13C1016.39 762.65 1016.39 762.15 1016.34 761.66C1016.29 760.97 1016.02 760.16 1015.66 759.55C1015.04 758.54 1014.24 757.42 1013.25 756.72C1011.18 755.27 1008.72 756.3 1007.12 757.96C1006.85 758.23 1006.62 758.56 1006.4 758.92C1004.12 760.37 1002.65 763.36 1002.36 765.92C1002.19 767.38 1002.73 769.12 1004.26 769.65C1005.54 770.1 1006.55 770.05 1007.89 769.9C1008.03 769.89 1008.17 769.86 1008.31 769.84C1008.41 769.83 1008.65 769.8 1008.82 769.81C1012.07 769.93 1014.87 767.78 1016 764.78C1016.1 764.37 1016.2 763.97 1016.3 763.57C1015.95 764.74 1015.97 764.61 1016.35 763.13Z" fill="#1D2226"/>
<path d="M1024.23 738.91C1023.49 737.93 1021.79 738.9 1021.22 739.51C1021.16 739.58 1021.11 739.65 1021.06 739.72C1019.27 740.73 1018.47 743.35 1020.89 744.29C1022.39 744.88 1023.89 743.95 1024.73 742.74C1025.7 741.36 1025.13 740.1 1024.23 738.91Z" fill="#1D2226"/>
<path d="M962.21 736.87C962.01 736.66 961.75 736.53 961.46 736.48C961.05 736.3 960.66 736.14 960.32 736.07C958.88 735.73 957.51 736.87 957.29 738.31C957.13 739.3 956.87 740.26 956.77 741.25C956.3 742.82 956.25 744.5 956.97 745.91C957.42 746.8 958.31 746.95 959.21 746.85C962.43 746.5 965.52 744.36 965.49 740.91C965.48 739.35 963.84 737.8 962.21 736.87Z" fill="#1D2226"/>
<path d="M981.44 758.74C981.06 757.72 980.42 756.55 979.71 755.74C978.51 754.38 976.21 755.55 975.34 756.65C975.34 756.66 975.33 756.67 975.33 756.67C973.95 757.62 972.97 759.08 972.71 760.77C972.13 764.49 977.36 764.9 979.57 763.45C981.05 762.46 982.09 760.5 981.44 758.74Z" fill="#1D2226"/>
<path d="M952.44 765.3C952.33 765.27 952.23 765.23 952.12 765.2C950.69 764.73 950.17 767.36 951.46 767.01C951.6 766.97 951.72 766.93 951.86 766.89C952.35 766.77 953.33 765.6 952.44 765.3Z" fill="#1D2226"/>
<path d="M1755.69 839.84C1755.73 839.36 1755.73 838.86 1755.68 838.37C1755.63 837.68 1755.36 836.87 1755 836.26C1754.38 835.25 1753.58 834.13 1752.59 833.43C1750.52 831.98 1748.06 833.01 1746.46 834.67C1746.19 834.94 1745.96 835.27 1745.74 835.63C1743.46 837.08 1741.99 840.06 1741.7 842.63C1741.53 844.09 1742.07 845.83 1743.6 846.36C1744.88 846.81 1745.89 846.76 1747.23 846.61C1747.37 846.6 1747.51 846.57 1747.65 846.55C1747.75 846.54 1747.99 846.51 1748.16 846.52C1751.41 846.64 1754.21 844.49 1755.34 841.49C1755.44 841.08 1755.54 840.68 1755.64 840.28C1755.29 841.45 1755.31 841.31 1755.69 839.84Z" fill="#1D2226"/>
<path d="M1763.57 815.61C1762.83 814.63 1761.13 815.6 1760.56 816.21C1760.5 816.28 1760.45 816.35 1760.4 816.42C1758.61 817.43 1757.81 820.05 1760.23 820.99C1761.73 821.58 1763.23 820.65 1764.07 819.44C1765.04 818.06 1764.47 816.8 1763.57 815.61Z" fill="#1D2226"/>
<path d="M1701.55 813.57C1701.35 813.36 1701.09 813.23 1700.8 813.18C1700.39 813 1700 812.84 1699.66 812.77C1698.22 812.43 1696.85 813.57 1696.63 815.01C1696.47 816 1696.21 816.96 1696.11 817.95C1695.64 819.52 1695.59 821.2 1696.31 822.61C1696.76 823.5 1697.65 823.65 1698.55 823.55C1701.77 823.2 1704.86 821.06 1704.83 817.61C1704.82 816.05 1703.17 814.5 1701.55 813.57Z" fill="#1D2226"/>
<path d="M1720.77 835.44C1720.39 834.42 1719.75 833.25 1719.04 832.44C1717.84 831.08 1715.54 832.25 1714.67 833.35C1714.67 833.36 1714.66 833.37 1714.66 833.37C1713.28 834.32 1712.3 835.78 1712.04 837.47C1711.46 841.19 1716.69 841.6 1718.9 840.15C1720.39 839.17 1721.43 837.2 1720.77 835.44Z" fill="#1D2226"/>
<path d="M1680.81 846.71C1680.58 846.81 1680.36 846.94 1680.15 847.07C1679.78 847.14 1679.41 847.33 1679.08 847.52C1678.37 847.94 1677.87 848.95 1677.97 849.76C1678.14 851.12 1679.39 851.54 1680.59 851.45C1681.94 851.33 1682.89 849.92 1683.07 848.71C1683.26 847.43 1682.11 846.12 1680.81 846.71Z" fill="#1D2226"/>
<path d="M1691.78 842.01C1691.67 841.98 1691.57 841.94 1691.46 841.91C1690.03 841.44 1689.51 844.07 1690.8 843.72C1690.94 843.68 1691.06 843.64 1691.2 843.6C1691.68 843.47 1692.67 842.3 1691.78 842.01Z" fill="#1D2226"/>
<path d="M1627.08 605.66C1627.12 605.18 1627.12 604.68 1627.07 604.19C1627.02 603.5 1626.75 602.69 1626.39 602.08C1625.77 601.07 1624.97 599.95 1623.98 599.25C1621.91 597.8 1619.45 598.83 1617.85 600.49C1617.58 600.76 1617.35 601.09 1617.13 601.45C1614.85 602.9 1613.38 605.88 1613.09 608.45C1612.92 609.91 1613.46 611.65 1614.99 612.18C1616.27 612.63 1617.28 612.58 1618.62 612.43C1618.76 612.42 1618.9 612.39 1619.04 612.37C1619.14 612.36 1619.38 612.33 1619.55 612.34C1622.8 612.46 1625.6 610.31 1626.73 607.31C1626.83 606.9 1626.93 606.5 1627.03 606.1C1626.68 607.27 1626.7 607.13 1627.08 605.66Z" fill="#1D2226"/>
<path d="M1634.97 581.44C1634.23 580.46 1632.53 581.43 1631.96 582.04C1631.9 582.11 1631.85 582.18 1631.8 582.25C1630.01 583.26 1629.21 585.88 1631.63 586.82C1633.13 587.41 1634.63 586.48 1635.47 585.27C1636.44 583.88 1635.86 582.63 1634.97 581.44Z" fill="#1D2226"/>
<path d="M1572.94 579.39C1572.74 579.18 1572.48 579.05 1572.19 579C1571.78 578.82 1571.39 578.66 1571.05 578.59C1569.61 578.25 1568.24 579.39 1568.02 580.83C1567.86 581.82 1567.6 582.78 1567.5 583.77C1567.03 585.34 1566.98 587.02 1567.7 588.43C1568.15 589.32 1569.04 589.47 1569.94 589.37C1573.16 589.02 1576.25 586.88 1576.22 583.43C1576.21 581.88 1574.57 580.32 1572.94 579.39Z" fill="#1D2226"/>
<path d="M1592.17 601.26C1591.79 600.24 1591.15 599.07 1590.44 598.26C1589.24 596.9 1586.94 598.07 1586.07 599.17C1586.07 599.18 1586.06 599.19 1586.06 599.19C1584.68 600.14 1583.7 601.6 1583.44 603.29C1582.86 607.01 1588.09 607.42 1590.3 605.97C1591.78 604.99 1592.82 603.02 1592.17 601.26Z" fill="#1D2226"/>
<path d="M1552.21 612.53C1551.98 612.63 1551.76 612.76 1551.55 612.89C1551.18 612.96 1550.81 613.15 1550.48 613.34C1549.77 613.76 1549.27 614.77 1549.37 615.58C1549.54 616.94 1550.79 617.36 1551.99 617.27C1553.34 617.15 1554.29 615.74 1554.47 614.53C1554.65 613.25 1553.51 611.94 1552.21 612.53Z" fill="#1D2226"/>
<path d="M1563.17 607.83C1563.06 607.8 1562.96 607.76 1562.85 607.73C1561.42 607.26 1560.9 609.89 1562.19 609.54C1562.33 609.5 1562.45 609.46 1562.59 609.42C1563.08 609.29 1564.07 608.12 1563.17 607.83Z" fill="#1D2226"/>
<path d="M1448.34 293.55C1448.38 293.07 1448.38 292.57 1448.33 292.08C1448.28 291.39 1448.01 290.58 1447.65 289.97C1447.03 288.96 1446.23 287.84 1445.24 287.14C1443.17 285.69 1440.71 286.72 1439.11 288.38C1438.84 288.65 1438.61 288.98 1438.39 289.34C1436.11 290.79 1434.64 293.78 1434.35 296.34C1434.18 297.8 1434.72 299.54 1436.25 300.07C1437.53 300.52 1438.54 300.47 1439.88 300.32C1440.02 300.31 1440.16 300.28 1440.3 300.26C1440.4 300.25 1440.64 300.22 1440.81 300.23C1444.06 300.35 1446.86 298.2 1447.99 295.2C1448.09 294.79 1448.19 294.39 1448.29 293.99C1447.94 295.16 1447.96 295.02 1448.34 293.55Z" fill="#1D2226"/>
<path d="M1456.22 269.32C1455.48 268.33 1453.78 269.31 1453.21 269.92C1453.15 269.99 1453.1 270.06 1453.05 270.13C1451.26 271.14 1450.46 273.76 1452.88 274.7C1454.38 275.29 1455.88 274.36 1456.72 273.15C1457.69 271.77 1457.12 270.51 1456.22 269.32Z" fill="#1D2226"/>
<path d="M1394.2 267.28C1394 267.07 1393.74 266.94 1393.45 266.89C1393.04 266.71 1392.65 266.55 1392.31 266.48C1390.87 266.14 1389.5 267.28 1389.28 268.72C1389.12 269.71 1388.86 270.67 1388.76 271.66C1388.29 273.23 1388.24 274.91 1388.96 276.32C1389.41 277.21 1390.3 277.36 1391.2 277.26C1394.42 276.91 1397.51 274.77 1397.48 271.32C1397.47 269.77 1395.83 268.21 1394.2 267.28Z" fill="#1D2226"/>
<path d="M1413.43 289.15C1413.05 288.13 1412.41 286.96 1411.7 286.15C1410.5 284.79 1408.2 285.96 1407.33 287.06C1407.33 287.07 1407.32 287.08 1407.32 287.08C1405.94 288.03 1404.96 289.49 1404.7 291.18C1404.12 294.9 1409.35 295.31 1411.56 293.86C1413.04 292.88 1414.08 290.91 1413.43 289.15Z" fill="#1D2226"/>
<path d="M1373.46 300.42C1373.23 300.52 1373.01 300.65 1372.8 300.78C1372.43 300.85 1372.06 301.04 1371.73 301.23C1371.02 301.65 1370.52 302.66 1370.62 303.47C1370.79 304.83 1372.04 305.25 1373.24 305.16C1374.59 305.04 1375.54 303.63 1375.72 302.42C1375.91 301.14 1374.77 299.83 1373.46 300.42Z" fill="#1D2226"/>
<path d="M1384.43 295.72C1384.32 295.69 1384.22 295.65 1384.11 295.62C1382.68 295.15 1382.16 297.78 1383.45 297.43C1383.59 297.39 1383.71 297.35 1383.85 297.31C1384.33 297.18 1385.32 296.01 1384.43 295.72Z" fill="#1D2226"/>
</g>
</g>
<mask id="mask76_46_2394" style="mask-type:luminance" maskUnits="userSpaceOnUse" x="948" y="62" width="908" height="887">
<path d="M1822.55 948.52H981.37C963.21 948.52 948.48 933.8 948.48 915.63V95.67C948.48 77.51 963.2 62.78 981.37 62.78H1822.55C1840.71 62.78 1855.44 77.5 1855.44 95.67V915.64C1855.44 933.8 1840.71 948.52 1822.55 948.52Z" fill="white"/>
</mask>
<g mask="url(#mask76_46_2394)">
<path d="M2039.31 -52.93H839.57V174.29H2039.31V-52.93Z" fill="white" stroke="#232323" stroke-width="6" stroke-miterlimit="10"/>
</g>
<path d="M1822.55 68.78C1837.37 68.78 1849.44 80.84 1849.44 95.67V915.64C1849.44 930.46 1837.38 942.53 1822.55 942.53H981.37C966.55 942.53 954.48 930.47 954.48 915.64V95.67C954.48 80.85 966.54 68.78 981.37 68.78H1822.55ZM1822.55 62.78H981.37C963.21 62.78 948.48 77.5 948.48 95.67V915.64C948.48 933.8 963.2 948.53 981.37 948.53H1822.55C1840.71 948.53 1855.44 933.81 1855.44 915.64V95.67C1855.44 77.5 1840.71 62.78 1822.55 62.78Z" fill="#232323"/>
<path d="M1780.5 102.52L1813.67 135.68" stroke="#232323" stroke-width="4.6724" stroke-miterlimit="10" stroke-linecap="round" stroke-linejoin="round"/>
<path d="M1813.67 102.52L1780.5 135.68" stroke="#232323" stroke-width="4.6724" stroke-miterlimit="10" stroke-linecap="round" stroke-linejoin="round"/>
<path d="M1760.85 102.63H1727.91V135.57H1760.85V102.63Z" fill="#FF0086" stroke="#232323" stroke-width="4.6724" stroke-miterlimit="10" stroke-linecap="round" stroke-linejoin="round"/>
<path d="M1677.95 119.1H1711.26" stroke="#232323" stroke-width="4.6724" stroke-miterlimit="10" stroke-linecap="round" stroke-linejoin="round"/>
<path d="M1003.1 104.182C1011.47 104.182 1015.9 108.392 1015.9 115.424C1015.9 122.976 1010.73 126.318 1003.1 126.318H999.97V132.612C999.97 133.697 999.102 134.565 998.06 134.565H992.157C991.072 134.565 990.204 133.697 990.204 132.612V106.092C990.204 105.05 991.072 104.182 992.157 104.182H1003.1ZM1003.1 118.158C1005.09 118.158 1006.05 117.03 1006.05 115.424C1006.05 113.861 1005.09 112.733 1003.1 112.733H999.97V118.158H1003.1ZM1033.87 103.661C1042.99 103.661 1049.89 110.432 1049.89 119.374C1049.89 128.359 1042.99 135.13 1033.87 135.13C1024.76 135.13 1017.86 128.359 1017.86 119.374C1017.86 110.432 1024.76 103.661 1033.87 103.661ZM1033.87 125.624C1037.48 125.624 1040.12 123.063 1040.12 119.374C1040.12 115.728 1037.48 113.123 1033.87 113.123C1030.27 113.123 1027.62 115.728 1027.62 119.374C1027.62 123.063 1030.27 125.624 1033.87 125.624ZM1071.6 134.565C1070.86 134.565 1070.16 134.131 1069.86 133.48L1065.65 125.147H1062.92V132.612C1062.92 133.697 1062.05 134.565 1061.01 134.565H1055.1C1054.02 134.565 1053.15 133.697 1053.15 132.612V106.092C1053.15 105.05 1054.02 104.182 1055.1 104.182H1066C1074.42 104.182 1078.85 108.045 1078.85 115.077C1078.85 118.94 1077.28 121.587 1074.55 123.237L1080.02 132.829C1080.45 133.611 1079.89 134.565 1079.02 134.565H1071.6ZM1062.92 112.733V117.377H1066C1068.04 117.377 1068.99 116.639 1068.99 115.077C1068.99 113.471 1068.04 112.733 1066 112.733H1062.92ZM1104.17 134.565C1103.3 134.565 1102.56 134.001 1102.3 133.133L1101.39 129.878H1092.8L1091.89 133.133C1091.67 134.001 1090.89 134.565 1090.02 134.565H1083.16C1082.12 134.565 1081.34 133.524 1081.69 132.525L1090.63 105.744C1090.97 104.833 1091.84 104.182 1092.84 104.182H1101.35C1102.35 104.182 1103.26 104.833 1103.56 105.744L1112.5 132.525C1112.85 133.524 1112.11 134.565 1111.07 134.565H1104.17ZM1094.66 123.106H1099.52L1097.09 114.295L1094.66 123.106ZM1100.61 94.8062L1103.95 95.3705C1104.6 95.5007 1104.99 96.1084 1104.91 96.7161C1104.39 100.058 1103 101.664 1100.7 101.664C1098.44 101.664 1096.83 100.319 1095.79 100.319C1095.27 100.319 1094.97 100.579 1094.79 100.883C1094.58 101.317 1094.1 101.577 1093.58 101.491L1090.24 100.883C1089.63 100.796 1089.19 100.188 1089.32 99.5374C1089.76 96.8029 1090.97 94.6326 1093.97 94.6326C1096.01 94.6326 1097.09 95.9348 1098.44 95.9348C1098.96 95.9348 1099.26 95.7177 1099.44 95.4139C1099.65 94.9799 1100.13 94.7194 1100.61 94.8062ZM1128.99 103.661C1138.11 103.661 1145.01 110.432 1145.01 119.374C1145.01 128.359 1138.11 135.13 1128.99 135.13C1119.88 135.13 1112.98 128.359 1112.98 119.374C1112.98 110.432 1119.88 103.661 1128.99 103.661ZM1128.99 125.624C1132.6 125.624 1135.24 123.063 1135.24 119.374C1135.24 115.728 1132.6 113.123 1128.99 113.123C1125.39 113.123 1122.74 115.728 1122.74 119.374C1122.74 123.063 1125.39 125.624 1128.99 125.624ZM1172.08 104.182C1182.19 104.182 1188.66 110.128 1188.66 119.374C1188.66 128.576 1182.19 134.565 1172.08 134.565H1161.88C1160.84 134.565 1159.97 133.697 1159.97 132.612V106.092C1159.97 105.05 1160.84 104.182 1161.88 104.182H1172.08ZM1172.08 125.624C1176.55 125.624 1178.89 123.02 1178.89 119.374C1178.89 115.728 1176.55 113.123 1172.08 113.123H1169.73V125.624H1172.08ZM1206.9 103.661C1216.02 103.661 1222.92 110.432 1222.92 119.374C1222.92 128.359 1216.02 135.13 1206.9 135.13C1197.79 135.13 1190.89 128.359 1190.89 119.374C1190.89 110.432 1197.79 103.661 1206.9 103.661ZM1206.9 125.624C1210.5 125.624 1213.15 123.063 1213.15 119.374C1213.15 115.728 1210.5 113.123 1206.9 113.123C1203.3 113.123 1200.65 115.728 1200.65 119.374C1200.65 123.063 1203.3 125.624 1206.9 125.624ZM1238.91 115.554C1246.33 117.594 1249.24 119.764 1249.24 124.886C1249.24 130.312 1245.29 135.086 1237 135.086C1231.83 135.086 1226.41 133.437 1224.5 128.619C1224.15 127.751 1224.58 126.839 1225.45 126.536L1230.75 124.93C1231.4 124.712 1232.09 124.973 1232.48 125.537C1233.18 126.536 1234.78 127.23 1236.52 127.23C1238.21 127.23 1239.51 126.536 1239.51 125.407C1239.51 123.888 1237.65 123.801 1234.57 123.063C1229.01 121.718 1224.97 119.764 1224.97 113.514C1224.97 107.567 1230.18 103.618 1236.91 103.618C1241.64 103.618 1245.98 105.744 1247.63 109.911C1247.98 110.823 1247.5 111.778 1246.59 111.995L1241.29 113.297C1240.73 113.427 1240.08 113.253 1239.73 112.733C1239.17 111.995 1238.21 111.517 1236.95 111.517C1235.22 111.517 1234.3 112.255 1234.3 113.297C1234.3 114.729 1236.56 114.903 1238.91 115.554ZM1288.17 105.354C1288.57 104.616 1289.35 104.182 1290.17 104.182H1297.42C1298.51 104.182 1299.33 105.05 1299.33 106.092V132.612C1299.33 133.697 1298.51 134.565 1297.42 134.565H1291.52C1290.48 134.565 1289.61 133.697 1289.61 132.612V118.592L1283.27 129.53C1283.01 130.008 1282.49 130.312 1281.92 130.312H1280.97C1280.45 130.312 1279.93 130.008 1279.67 129.53L1273.33 118.592V132.612C1273.33 133.697 1272.46 134.565 1271.38 134.565H1265.52C1264.43 134.565 1263.56 133.697 1263.56 132.612V106.092C1263.56 105.05 1264.43 104.182 1265.52 104.182H1272.77C1273.59 104.182 1274.37 104.616 1274.76 105.354L1281.45 117.117L1288.17 105.354ZM1318.59 103.661C1327.71 103.661 1334.61 110.432 1334.61 119.374C1334.61 128.359 1327.71 135.13 1318.59 135.13C1309.48 135.13 1302.58 128.359 1302.58 119.374C1302.58 110.432 1309.48 103.661 1318.59 103.661ZM1318.59 125.624C1322.2 125.624 1324.84 123.063 1324.84 119.374C1324.84 115.728 1322.2 113.123 1318.59 113.123C1314.99 113.123 1312.34 115.728 1312.34 119.374C1312.34 123.063 1314.99 125.624 1318.59 125.624ZM1349.98 104.182C1360.09 104.182 1366.56 110.128 1366.56 119.374C1366.56 128.576 1360.09 134.565 1349.98 134.565H1339.78C1338.74 134.565 1337.87 133.697 1337.87 132.612V106.092C1337.87 105.05 1338.74 104.182 1339.78 104.182H1349.98ZM1349.98 125.624C1354.45 125.624 1356.79 123.02 1356.79 119.374C1356.79 115.728 1354.45 113.123 1349.98 113.123H1347.64V125.624H1349.98ZM1383.02 115.554C1390.45 117.594 1393.36 119.764 1393.36 124.886C1393.36 130.312 1389.41 135.086 1381.12 135.086C1375.95 135.086 1370.52 133.437 1368.61 128.619C1368.27 127.751 1368.7 126.839 1369.57 126.536L1374.86 124.93C1375.52 124.712 1376.21 124.973 1376.6 125.537C1377.3 126.536 1378.9 127.23 1380.64 127.23C1382.33 127.23 1383.63 126.536 1383.63 125.407C1383.63 123.888 1381.77 123.801 1378.68 123.063C1373.13 121.718 1369.09 119.764 1369.09 113.514C1369.09 107.567 1374.3 103.618 1381.03 103.618C1385.76 103.618 1390.1 105.744 1391.75 109.911C1392.1 110.823 1391.62 111.778 1390.71 111.995L1385.41 113.297C1384.85 113.427 1384.2 113.253 1383.85 112.733C1383.29 111.995 1382.33 111.517 1381.07 111.517C1379.34 111.517 1378.42 112.255 1378.42 113.297C1378.42 114.729 1380.68 114.903 1383.02 115.554ZM1399.76 125.798C1402.36 125.798 1404.45 127.881 1404.45 130.442C1404.45 133.046 1402.36 135.13 1399.76 135.13C1397.2 135.13 1395.12 133.046 1395.12 130.442C1395.12 127.881 1397.2 125.798 1399.76 125.798ZM1417.7 126.405H1427.43C1428.51 126.405 1429.38 127.273 1429.38 128.315V132.612C1429.38 133.697 1428.51 134.565 1427.43 134.565H1409.89C1408.81 134.565 1407.94 133.697 1407.94 132.612V106.092C1407.94 105.05 1408.81 104.182 1409.89 104.182H1427.04C1428.08 104.182 1428.95 105.05 1428.95 106.092V110.432C1428.95 111.474 1428.08 112.342 1427.04 112.342H1417.7V115.728H1425.65C1426.73 115.728 1427.6 116.596 1427.6 117.637V120.806C1427.6 121.891 1426.73 122.759 1425.65 122.759H1417.7V126.405ZM1460.43 132.786C1460.9 133.567 1460.34 134.565 1459.43 134.565H1452.13C1451.31 134.565 1450.53 134.131 1450.09 133.437L1446.06 126.492L1441.98 133.437C1441.59 134.131 1440.81 134.565 1439.98 134.565H1432.69C1431.78 134.565 1431.21 133.567 1431.69 132.786L1440.07 119.026L1432.08 105.961C1431.6 105.18 1432.17 104.182 1433.08 104.182H1440.37C1441.2 104.182 1441.93 104.616 1442.37 105.31L1446.06 111.604L1449.75 105.31C1450.14 104.616 1450.92 104.182 1451.74 104.182H1459.04C1459.95 104.182 1460.51 105.18 1460.03 105.961L1452.05 118.983L1460.43 132.786ZM1473.44 126.405H1483.17C1484.25 126.405 1485.12 127.273 1485.12 128.315V132.612C1485.12 133.697 1484.25 134.565 1483.17 134.565H1465.63C1464.55 134.565 1463.68 133.697 1463.68 132.612V106.092C1463.68 105.05 1464.55 104.182 1465.63 104.182H1482.78C1483.82 104.182 1484.69 105.05 1484.69 106.092V110.432C1484.69 111.474 1483.82 112.342 1482.78 112.342H1473.44V115.728H1481.39C1482.47 115.728 1483.34 116.596 1483.34 117.637V120.806C1483.34 121.891 1482.47 122.759 1481.39 122.759H1473.44V126.405Z" fill="#232323"/>
<path fill-rule="evenodd" clip-rule="evenodd" d="M1536.13 133.823L1531.23 138.723C1529.82 140.133 1527.41 139.593 1526.74 137.713L1513.16 99.6431C1512.39 97.4831 1514.48 95.3931 1516.64 96.1631L1554.71 109.743C1556.59 110.413 1557.13 112.823 1555.72 114.233L1550.82 119.133C1549.76 120.193 1549.76 121.923 1550.82 122.983L1559.12 131.283C1560.18 132.343 1560.18 134.073 1559.12 135.133L1552.14 142.113C1551.08 143.173 1549.35 143.173 1548.29 142.113L1539.99 133.813C1538.92 132.753 1537.2 132.753 1536.13 133.823Z" fill="#FFCB00" stroke="#232323" stroke-width="5.9026" stroke-miterlimit="10" stroke-linecap="round" stroke-linejoin="round"/>
</g>
<defs>
<clipPath id="clip0_46_2394">
<rect width="1920" height="1080" fill="white"/>
</clipPath>
</defs>
</svg>
